M48
;DRILL file {KiCad (5.0.2)-1} date 5/25/2019 2:40:40 AM
;FORMAT={3:3/ absolute / metric / suppress leading zeros}
FMAT,2
METRIC,TZ
T1C2.000
T2C2.540
T3C3.400
%
G90
G05
T1
X65280Y-113480
X65280Y-120480
X70280Y-113480
X70280Y-120480
X121250Y-125250
X121250Y-132250
X126250Y-125250
X126250Y-132250
X121160Y-88080
X121160Y-95080
X126160Y-88080
X126160Y-95080
X65280Y-75380
X65280Y-82380
X70280Y-75380
X70280Y-82380
X121160Y-113480
X121160Y-120480
X126160Y-113480
X126160Y-120480
X65280Y-100780
X65280Y-107780
X70280Y-100780
X70280Y-107780
X65250Y-125750
X65250Y-132750
X70250Y-125750
X70250Y-132750
X121160Y-75380
X121160Y-82380
X126160Y-75380
X126160Y-82380
X121160Y-100780
X121160Y-107780
X126160Y-100780
X126160Y-107780
X65280Y-88080
X65280Y-95080
X70280Y-88080
X70280Y-95080
T2
X89100Y-129045
X94180Y-129045
X98260Y-129045
X103340Y-129045
X88735Y-104280
X93815Y-104280
X97895Y-104280
X102975Y-104280
X89100Y-78880
X94180Y-78880
X98260Y-78880
X103340Y-78880
X89100Y-116980
X94180Y-116980
X98260Y-116980
X103340Y-116980
X89100Y-91580
X94180Y-91580
X98260Y-91580
X103340Y-91580
T3
X60000Y-68000
X60000Y-140000
X132000Y-68000
X132000Y-140000
T0
M30
