G04 #@! TF.GenerationSoftware,KiCad,Pcbnew,(5.0.2)-1*
G04 #@! TF.CreationDate,2019-05-25T02:40:28-02:30*
G04 #@! TF.ProjectId,FusePCB,46757365-5043-4422-9e6b-696361645f70,rev?*
G04 #@! TF.SameCoordinates,Original*
G04 #@! TF.FileFunction,Copper,L2,Bot*
G04 #@! TF.FilePolarity,Positive*
%FSLAX46Y46*%
G04 Gerber Fmt 4.6, Leading zero omitted, Abs format (unit mm)*
G04 Created by KiCad (PCBNEW (5.0.2)-1) date 5/25/2019 2:40:28 AM*
%MOMM*%
%LPD*%
G01*
G04 APERTURE LIST*
G04 #@! TA.AperFunction,ComponentPad*
%ADD10O,3.000000X5.000000*%
G04 #@! TD*
G04 #@! TA.AperFunction,ComponentPad*
%ADD11C,6.000000*%
G04 #@! TD*
G04 #@! TA.AperFunction,ComponentPad*
%ADD12O,4.000000X2.150000*%
G04 #@! TD*
G04 #@! TA.AperFunction,Conductor*
%ADD13C,0.254000*%
G04 #@! TD*
G04 APERTURE END LIST*
D10*
G04 #@! TO.P,F1,2*
G04 #@! TO.N,Net-(F1-Pad2)*
X89100000Y-78880000D03*
X94180000Y-78880000D03*
G04 #@! TO.P,F1,1*
G04 #@! TO.N,Net-(F1-Pad1)*
X98260000Y-78880000D03*
X103340000Y-78880000D03*
G04 #@! TD*
G04 #@! TO.P,F2,2*
G04 #@! TO.N,Net-(F2-Pad2)*
X89100000Y-91580000D03*
X94180000Y-91580000D03*
G04 #@! TO.P,F2,1*
G04 #@! TO.N,Net-(F2-Pad1)*
X98260000Y-91580000D03*
X103340000Y-91580000D03*
G04 #@! TD*
G04 #@! TO.P,F3,2*
G04 #@! TO.N,Net-(F3-Pad2)*
X88735000Y-104280000D03*
X93815000Y-104280000D03*
G04 #@! TO.P,F3,1*
G04 #@! TO.N,Net-(F3-Pad1)*
X97895000Y-104280000D03*
X102975000Y-104280000D03*
G04 #@! TD*
G04 #@! TO.P,F4,2*
G04 #@! TO.N,Net-(F4-Pad2)*
X89100000Y-116980000D03*
X94180000Y-116980000D03*
G04 #@! TO.P,F4,1*
G04 #@! TO.N,Net-(F4-Pad1)*
X98260000Y-116980000D03*
X103340000Y-116980000D03*
G04 #@! TD*
G04 #@! TO.P,F5,2*
G04 #@! TO.N,Net-(F5-Pad2)*
X89100000Y-129045000D03*
X94180000Y-129045000D03*
G04 #@! TO.P,F5,1*
G04 #@! TO.N,Net-(F5-Pad1)*
X98260000Y-129045000D03*
X103340000Y-129045000D03*
G04 #@! TD*
D11*
G04 #@! TO.P,H1,1*
G04 #@! TO.N,GND*
X132000000Y-68000000D03*
G04 #@! TD*
G04 #@! TO.P,H2,1*
G04 #@! TO.N,GND*
X60000000Y-68000000D03*
G04 #@! TD*
G04 #@! TO.P,H3,1*
G04 #@! TO.N,GND*
X132000000Y-140000000D03*
G04 #@! TD*
G04 #@! TO.P,H4,1*
G04 #@! TO.N,GND*
X60000000Y-140000000D03*
G04 #@! TD*
D12*
G04 #@! TO.P,J1,1*
G04 #@! TO.N,Net-(F1-Pad2)*
X70280000Y-82380000D03*
X70280000Y-75380000D03*
X65280000Y-75380000D03*
X65280000Y-82380000D03*
G04 #@! TD*
G04 #@! TO.P,J2,1*
G04 #@! TO.N,Net-(F2-Pad2)*
X65280000Y-95080000D03*
X65280000Y-88080000D03*
X70280000Y-88080000D03*
X70280000Y-95080000D03*
G04 #@! TD*
G04 #@! TO.P,J3,1*
G04 #@! TO.N,Net-(F3-Pad2)*
X65280000Y-107780000D03*
X65280000Y-100780000D03*
X70280000Y-100780000D03*
X70280000Y-107780000D03*
G04 #@! TD*
G04 #@! TO.P,J4,1*
G04 #@! TO.N,Net-(F4-Pad2)*
X65280000Y-120480000D03*
X65280000Y-113480000D03*
X70280000Y-113480000D03*
X70280000Y-120480000D03*
G04 #@! TD*
G04 #@! TO.P,J5,1*
G04 #@! TO.N,Net-(F5-Pad2)*
X65250000Y-132750000D03*
X65250000Y-125750000D03*
X70250000Y-125750000D03*
X70250000Y-132750000D03*
G04 #@! TD*
G04 #@! TO.P,J7,1*
G04 #@! TO.N,Net-(F1-Pad1)*
X126160000Y-82380000D03*
X126160000Y-75380000D03*
X121160000Y-75380000D03*
X121160000Y-82380000D03*
G04 #@! TD*
G04 #@! TO.P,J8,1*
G04 #@! TO.N,Net-(F2-Pad1)*
X126160000Y-95080000D03*
X126160000Y-88080000D03*
X121160000Y-88080000D03*
X121160000Y-95080000D03*
G04 #@! TD*
G04 #@! TO.P,J9,1*
G04 #@! TO.N,Net-(F3-Pad1)*
X121160000Y-100780000D03*
X121160000Y-107780000D03*
X126160000Y-107780000D03*
X126160000Y-100780000D03*
G04 #@! TD*
G04 #@! TO.P,J10,1*
G04 #@! TO.N,Net-(F4-Pad1)*
X126160000Y-120480000D03*
X126160000Y-113480000D03*
X121160000Y-113480000D03*
X121160000Y-120480000D03*
G04 #@! TD*
G04 #@! TO.P,J11,1*
G04 #@! TO.N,Net-(F5-Pad1)*
X126250000Y-132250000D03*
X126250000Y-125250000D03*
X121250000Y-125250000D03*
X121250000Y-132250000D03*
G04 #@! TD*
D13*
G04 #@! TO.N,Net-(F1-Pad2)*
G36*
X68498958Y-73883544D02*
X67991451Y-74325048D01*
X67835741Y-74595173D01*
X67899847Y-74842500D01*
X69407000Y-74842500D01*
X69407000Y-74487000D01*
X71153000Y-74487000D01*
X71153000Y-74842500D01*
X72660153Y-74842500D01*
X72724259Y-74595173D01*
X72568549Y-74325048D01*
X72061042Y-73883544D01*
X72041508Y-73877000D01*
X94447441Y-73877000D01*
X94793080Y-73945752D01*
X95075495Y-74134455D01*
X95264198Y-74416870D01*
X95332950Y-74762509D01*
X95332950Y-76080171D01*
X95233468Y-76023005D01*
X94930000Y-76051595D01*
X94930000Y-78007000D01*
X95073000Y-78007000D01*
X95073000Y-79753000D01*
X94930000Y-79753000D01*
X94930000Y-81708405D01*
X95233468Y-81736995D01*
X95332950Y-81679829D01*
X95332950Y-82737491D01*
X95264198Y-83083130D01*
X95075495Y-83365545D01*
X94793080Y-83554248D01*
X94447441Y-83623000D01*
X72352389Y-83623000D01*
X72568549Y-83434952D01*
X72724259Y-83164827D01*
X72660153Y-82917500D01*
X71153000Y-82917500D01*
X71153000Y-83273000D01*
X69407000Y-83273000D01*
X69407000Y-82917500D01*
X67899847Y-82917500D01*
X67835741Y-83164827D01*
X67991451Y-83434952D01*
X68207611Y-83623000D01*
X67352389Y-83623000D01*
X67568549Y-83434952D01*
X67724259Y-83164827D01*
X67660153Y-82917500D01*
X66153000Y-82917500D01*
X66153000Y-83273000D01*
X64407000Y-83273000D01*
X64407000Y-82917500D01*
X64387000Y-82917500D01*
X64387000Y-81842500D01*
X64407000Y-81842500D01*
X64407000Y-80815531D01*
X66153000Y-80815531D01*
X66153000Y-81842500D01*
X67660153Y-81842500D01*
X67724259Y-81595173D01*
X67835741Y-81595173D01*
X67899847Y-81842500D01*
X69407000Y-81842500D01*
X69407000Y-80815531D01*
X71153000Y-80815531D01*
X71153000Y-81842500D01*
X72660153Y-81842500D01*
X72724259Y-81595173D01*
X72568549Y-81325048D01*
X72061042Y-80883544D01*
X71423211Y-80669862D01*
X71153000Y-80815531D01*
X69407000Y-80815531D01*
X69136789Y-80669862D01*
X68498958Y-80883544D01*
X67991451Y-81325048D01*
X67835741Y-81595173D01*
X67724259Y-81595173D01*
X67568549Y-81325048D01*
X67061042Y-80883544D01*
X66423211Y-80669862D01*
X66153000Y-80815531D01*
X64407000Y-80815531D01*
X64136789Y-80669862D01*
X63498958Y-80883544D01*
X63086950Y-81241969D01*
X63086950Y-80092587D01*
X86945934Y-80092587D01*
X87191256Y-80900730D01*
X87727167Y-81553476D01*
X88046532Y-81736995D01*
X88350000Y-81708405D01*
X88350000Y-79753000D01*
X89850000Y-79753000D01*
X89850000Y-81708405D01*
X90153468Y-81736995D01*
X90472833Y-81553476D01*
X91008744Y-80900730D01*
X91254066Y-80092587D01*
X92025934Y-80092587D01*
X92271256Y-80900730D01*
X92807167Y-81553476D01*
X93126532Y-81736995D01*
X93430000Y-81708405D01*
X93430000Y-79753000D01*
X92177948Y-79753000D01*
X92025934Y-80092587D01*
X91254066Y-80092587D01*
X91102052Y-79753000D01*
X89850000Y-79753000D01*
X88350000Y-79753000D01*
X87097948Y-79753000D01*
X86945934Y-80092587D01*
X63086950Y-80092587D01*
X63086950Y-77667413D01*
X86945934Y-77667413D01*
X87097948Y-78007000D01*
X88350000Y-78007000D01*
X88350000Y-76051595D01*
X89850000Y-76051595D01*
X89850000Y-78007000D01*
X91102052Y-78007000D01*
X91254066Y-77667413D01*
X92025934Y-77667413D01*
X92177948Y-78007000D01*
X93430000Y-78007000D01*
X93430000Y-76051595D01*
X93126532Y-76023005D01*
X92807167Y-76206524D01*
X92271256Y-76859270D01*
X92025934Y-77667413D01*
X91254066Y-77667413D01*
X91008744Y-76859270D01*
X90472833Y-76206524D01*
X90153468Y-76023005D01*
X89850000Y-76051595D01*
X88350000Y-76051595D01*
X88046532Y-76023005D01*
X87727167Y-76206524D01*
X87191256Y-76859270D01*
X86945934Y-77667413D01*
X63086950Y-77667413D01*
X63086950Y-76518031D01*
X63498958Y-76876456D01*
X64136789Y-77090138D01*
X64407000Y-76944469D01*
X64407000Y-75917500D01*
X66153000Y-75917500D01*
X66153000Y-76944469D01*
X66423211Y-77090138D01*
X67061042Y-76876456D01*
X67568549Y-76434952D01*
X67724259Y-76164827D01*
X67835741Y-76164827D01*
X67991451Y-76434952D01*
X68498958Y-76876456D01*
X69136789Y-77090138D01*
X69407000Y-76944469D01*
X69407000Y-75917500D01*
X71153000Y-75917500D01*
X71153000Y-76944469D01*
X71423211Y-77090138D01*
X72061042Y-76876456D01*
X72568549Y-76434952D01*
X72724259Y-76164827D01*
X72660153Y-75917500D01*
X71153000Y-75917500D01*
X69407000Y-75917500D01*
X67899847Y-75917500D01*
X67835741Y-76164827D01*
X67724259Y-76164827D01*
X67660153Y-75917500D01*
X66153000Y-75917500D01*
X64407000Y-75917500D01*
X64387000Y-75917500D01*
X64387000Y-74842500D01*
X64407000Y-74842500D01*
X64407000Y-74487000D01*
X66153000Y-74487000D01*
X66153000Y-74842500D01*
X67660153Y-74842500D01*
X67724259Y-74595173D01*
X67568549Y-74325048D01*
X67061042Y-73883544D01*
X67041508Y-73877000D01*
X68518492Y-73877000D01*
X68498958Y-73883544D01*
X68498958Y-73883544D01*
G37*
X68498958Y-73883544D02*
X67991451Y-74325048D01*
X67835741Y-74595173D01*
X67899847Y-74842500D01*
X69407000Y-74842500D01*
X69407000Y-74487000D01*
X71153000Y-74487000D01*
X71153000Y-74842500D01*
X72660153Y-74842500D01*
X72724259Y-74595173D01*
X72568549Y-74325048D01*
X72061042Y-73883544D01*
X72041508Y-73877000D01*
X94447441Y-73877000D01*
X94793080Y-73945752D01*
X95075495Y-74134455D01*
X95264198Y-74416870D01*
X95332950Y-74762509D01*
X95332950Y-76080171D01*
X95233468Y-76023005D01*
X94930000Y-76051595D01*
X94930000Y-78007000D01*
X95073000Y-78007000D01*
X95073000Y-79753000D01*
X94930000Y-79753000D01*
X94930000Y-81708405D01*
X95233468Y-81736995D01*
X95332950Y-81679829D01*
X95332950Y-82737491D01*
X95264198Y-83083130D01*
X95075495Y-83365545D01*
X94793080Y-83554248D01*
X94447441Y-83623000D01*
X72352389Y-83623000D01*
X72568549Y-83434952D01*
X72724259Y-83164827D01*
X72660153Y-82917500D01*
X71153000Y-82917500D01*
X71153000Y-83273000D01*
X69407000Y-83273000D01*
X69407000Y-82917500D01*
X67899847Y-82917500D01*
X67835741Y-83164827D01*
X67991451Y-83434952D01*
X68207611Y-83623000D01*
X67352389Y-83623000D01*
X67568549Y-83434952D01*
X67724259Y-83164827D01*
X67660153Y-82917500D01*
X66153000Y-82917500D01*
X66153000Y-83273000D01*
X64407000Y-83273000D01*
X64407000Y-82917500D01*
X64387000Y-82917500D01*
X64387000Y-81842500D01*
X64407000Y-81842500D01*
X64407000Y-80815531D01*
X66153000Y-80815531D01*
X66153000Y-81842500D01*
X67660153Y-81842500D01*
X67724259Y-81595173D01*
X67835741Y-81595173D01*
X67899847Y-81842500D01*
X69407000Y-81842500D01*
X69407000Y-80815531D01*
X71153000Y-80815531D01*
X71153000Y-81842500D01*
X72660153Y-81842500D01*
X72724259Y-81595173D01*
X72568549Y-81325048D01*
X72061042Y-80883544D01*
X71423211Y-80669862D01*
X71153000Y-80815531D01*
X69407000Y-80815531D01*
X69136789Y-80669862D01*
X68498958Y-80883544D01*
X67991451Y-81325048D01*
X67835741Y-81595173D01*
X67724259Y-81595173D01*
X67568549Y-81325048D01*
X67061042Y-80883544D01*
X66423211Y-80669862D01*
X66153000Y-80815531D01*
X64407000Y-80815531D01*
X64136789Y-80669862D01*
X63498958Y-80883544D01*
X63086950Y-81241969D01*
X63086950Y-80092587D01*
X86945934Y-80092587D01*
X87191256Y-80900730D01*
X87727167Y-81553476D01*
X88046532Y-81736995D01*
X88350000Y-81708405D01*
X88350000Y-79753000D01*
X89850000Y-79753000D01*
X89850000Y-81708405D01*
X90153468Y-81736995D01*
X90472833Y-81553476D01*
X91008744Y-80900730D01*
X91254066Y-80092587D01*
X92025934Y-80092587D01*
X92271256Y-80900730D01*
X92807167Y-81553476D01*
X93126532Y-81736995D01*
X93430000Y-81708405D01*
X93430000Y-79753000D01*
X92177948Y-79753000D01*
X92025934Y-80092587D01*
X91254066Y-80092587D01*
X91102052Y-79753000D01*
X89850000Y-79753000D01*
X88350000Y-79753000D01*
X87097948Y-79753000D01*
X86945934Y-80092587D01*
X63086950Y-80092587D01*
X63086950Y-77667413D01*
X86945934Y-77667413D01*
X87097948Y-78007000D01*
X88350000Y-78007000D01*
X88350000Y-76051595D01*
X89850000Y-76051595D01*
X89850000Y-78007000D01*
X91102052Y-78007000D01*
X91254066Y-77667413D01*
X92025934Y-77667413D01*
X92177948Y-78007000D01*
X93430000Y-78007000D01*
X93430000Y-76051595D01*
X93126532Y-76023005D01*
X92807167Y-76206524D01*
X92271256Y-76859270D01*
X92025934Y-77667413D01*
X91254066Y-77667413D01*
X91008744Y-76859270D01*
X90472833Y-76206524D01*
X90153468Y-76023005D01*
X89850000Y-76051595D01*
X88350000Y-76051595D01*
X88046532Y-76023005D01*
X87727167Y-76206524D01*
X87191256Y-76859270D01*
X86945934Y-77667413D01*
X63086950Y-77667413D01*
X63086950Y-76518031D01*
X63498958Y-76876456D01*
X64136789Y-77090138D01*
X64407000Y-76944469D01*
X64407000Y-75917500D01*
X66153000Y-75917500D01*
X66153000Y-76944469D01*
X66423211Y-77090138D01*
X67061042Y-76876456D01*
X67568549Y-76434952D01*
X67724259Y-76164827D01*
X67835741Y-76164827D01*
X67991451Y-76434952D01*
X68498958Y-76876456D01*
X69136789Y-77090138D01*
X69407000Y-76944469D01*
X69407000Y-75917500D01*
X71153000Y-75917500D01*
X71153000Y-76944469D01*
X71423211Y-77090138D01*
X72061042Y-76876456D01*
X72568549Y-76434952D01*
X72724259Y-76164827D01*
X72660153Y-75917500D01*
X71153000Y-75917500D01*
X69407000Y-75917500D01*
X67899847Y-75917500D01*
X67835741Y-76164827D01*
X67724259Y-76164827D01*
X67660153Y-75917500D01*
X66153000Y-75917500D01*
X64407000Y-75917500D01*
X64387000Y-75917500D01*
X64387000Y-74842500D01*
X64407000Y-74842500D01*
X64407000Y-74487000D01*
X66153000Y-74487000D01*
X66153000Y-74842500D01*
X67660153Y-74842500D01*
X67724259Y-74595173D01*
X67568549Y-74325048D01*
X67061042Y-73883544D01*
X67041508Y-73877000D01*
X68518492Y-73877000D01*
X68498958Y-73883544D01*
G04 #@! TO.N,Net-(F2-Pad2)*
G36*
X67991451Y-87025048D02*
X67835741Y-87295173D01*
X67899847Y-87542500D01*
X69407000Y-87542500D01*
X69407000Y-87187000D01*
X71153000Y-87187000D01*
X71153000Y-87542500D01*
X72660153Y-87542500D01*
X72724259Y-87295173D01*
X72568549Y-87025048D01*
X72110994Y-86627000D01*
X94487491Y-86627000D01*
X94833130Y-86695752D01*
X95115545Y-86884455D01*
X95304248Y-87166870D01*
X95373000Y-87512509D01*
X95373000Y-88803185D01*
X95233468Y-88723005D01*
X94930000Y-88751595D01*
X94930000Y-90707000D01*
X95073000Y-90707000D01*
X95073000Y-92453000D01*
X94930000Y-92453000D01*
X94930000Y-94408405D01*
X95233468Y-94436995D01*
X95373000Y-94356815D01*
X95373000Y-95487491D01*
X95304248Y-95833130D01*
X95115545Y-96115545D01*
X94833130Y-96304248D01*
X94487491Y-96373000D01*
X72294914Y-96373000D01*
X72568549Y-96134952D01*
X72724259Y-95864827D01*
X72660153Y-95617500D01*
X71153000Y-95617500D01*
X71153000Y-95973000D01*
X69407000Y-95973000D01*
X69407000Y-95617500D01*
X67899847Y-95617500D01*
X67835741Y-95864827D01*
X67991451Y-96134952D01*
X68265086Y-96373000D01*
X67294914Y-96373000D01*
X67568549Y-96134952D01*
X67724259Y-95864827D01*
X67660153Y-95617500D01*
X66153000Y-95617500D01*
X66153000Y-95973000D01*
X64407000Y-95973000D01*
X64407000Y-95617500D01*
X64387000Y-95617500D01*
X64387000Y-94542500D01*
X64407000Y-94542500D01*
X64407000Y-93515531D01*
X66153000Y-93515531D01*
X66153000Y-94542500D01*
X67660153Y-94542500D01*
X67724259Y-94295173D01*
X67835741Y-94295173D01*
X67899847Y-94542500D01*
X69407000Y-94542500D01*
X69407000Y-93515531D01*
X71153000Y-93515531D01*
X71153000Y-94542500D01*
X72660153Y-94542500D01*
X72724259Y-94295173D01*
X72568549Y-94025048D01*
X72061042Y-93583544D01*
X71423211Y-93369862D01*
X71153000Y-93515531D01*
X69407000Y-93515531D01*
X69136789Y-93369862D01*
X68498958Y-93583544D01*
X67991451Y-94025048D01*
X67835741Y-94295173D01*
X67724259Y-94295173D01*
X67568549Y-94025048D01*
X67061042Y-93583544D01*
X66423211Y-93369862D01*
X66153000Y-93515531D01*
X64407000Y-93515531D01*
X64136789Y-93369862D01*
X63498958Y-93583544D01*
X63127000Y-93907128D01*
X63127000Y-92792587D01*
X86945934Y-92792587D01*
X87191256Y-93600730D01*
X87727167Y-94253476D01*
X88046532Y-94436995D01*
X88350000Y-94408405D01*
X88350000Y-92453000D01*
X89850000Y-92453000D01*
X89850000Y-94408405D01*
X90153468Y-94436995D01*
X90472833Y-94253476D01*
X91008744Y-93600730D01*
X91254066Y-92792587D01*
X92025934Y-92792587D01*
X92271256Y-93600730D01*
X92807167Y-94253476D01*
X93126532Y-94436995D01*
X93430000Y-94408405D01*
X93430000Y-92453000D01*
X92177948Y-92453000D01*
X92025934Y-92792587D01*
X91254066Y-92792587D01*
X91102052Y-92453000D01*
X89850000Y-92453000D01*
X88350000Y-92453000D01*
X87097948Y-92453000D01*
X86945934Y-92792587D01*
X63127000Y-92792587D01*
X63127000Y-90367413D01*
X86945934Y-90367413D01*
X87097948Y-90707000D01*
X88350000Y-90707000D01*
X88350000Y-88751595D01*
X89850000Y-88751595D01*
X89850000Y-90707000D01*
X91102052Y-90707000D01*
X91254066Y-90367413D01*
X92025934Y-90367413D01*
X92177948Y-90707000D01*
X93430000Y-90707000D01*
X93430000Y-88751595D01*
X93126532Y-88723005D01*
X92807167Y-88906524D01*
X92271256Y-89559270D01*
X92025934Y-90367413D01*
X91254066Y-90367413D01*
X91008744Y-89559270D01*
X90472833Y-88906524D01*
X90153468Y-88723005D01*
X89850000Y-88751595D01*
X88350000Y-88751595D01*
X88046532Y-88723005D01*
X87727167Y-88906524D01*
X87191256Y-89559270D01*
X86945934Y-90367413D01*
X63127000Y-90367413D01*
X63127000Y-89252872D01*
X63498958Y-89576456D01*
X64136789Y-89790138D01*
X64407000Y-89644469D01*
X64407000Y-88617500D01*
X66153000Y-88617500D01*
X66153000Y-89644469D01*
X66423211Y-89790138D01*
X67061042Y-89576456D01*
X67568549Y-89134952D01*
X67724259Y-88864827D01*
X67835741Y-88864827D01*
X67991451Y-89134952D01*
X68498958Y-89576456D01*
X69136789Y-89790138D01*
X69407000Y-89644469D01*
X69407000Y-88617500D01*
X71153000Y-88617500D01*
X71153000Y-89644469D01*
X71423211Y-89790138D01*
X72061042Y-89576456D01*
X72568549Y-89134952D01*
X72724259Y-88864827D01*
X72660153Y-88617500D01*
X71153000Y-88617500D01*
X69407000Y-88617500D01*
X67899847Y-88617500D01*
X67835741Y-88864827D01*
X67724259Y-88864827D01*
X67660153Y-88617500D01*
X66153000Y-88617500D01*
X64407000Y-88617500D01*
X64387000Y-88617500D01*
X64387000Y-87542500D01*
X64407000Y-87542500D01*
X64407000Y-87187000D01*
X66153000Y-87187000D01*
X66153000Y-87542500D01*
X67660153Y-87542500D01*
X67724259Y-87295173D01*
X67568549Y-87025048D01*
X67110994Y-86627000D01*
X68449006Y-86627000D01*
X67991451Y-87025048D01*
X67991451Y-87025048D01*
G37*
X67991451Y-87025048D02*
X67835741Y-87295173D01*
X67899847Y-87542500D01*
X69407000Y-87542500D01*
X69407000Y-87187000D01*
X71153000Y-87187000D01*
X71153000Y-87542500D01*
X72660153Y-87542500D01*
X72724259Y-87295173D01*
X72568549Y-87025048D01*
X72110994Y-86627000D01*
X94487491Y-86627000D01*
X94833130Y-86695752D01*
X95115545Y-86884455D01*
X95304248Y-87166870D01*
X95373000Y-87512509D01*
X95373000Y-88803185D01*
X95233468Y-88723005D01*
X94930000Y-88751595D01*
X94930000Y-90707000D01*
X95073000Y-90707000D01*
X95073000Y-92453000D01*
X94930000Y-92453000D01*
X94930000Y-94408405D01*
X95233468Y-94436995D01*
X95373000Y-94356815D01*
X95373000Y-95487491D01*
X95304248Y-95833130D01*
X95115545Y-96115545D01*
X94833130Y-96304248D01*
X94487491Y-96373000D01*
X72294914Y-96373000D01*
X72568549Y-96134952D01*
X72724259Y-95864827D01*
X72660153Y-95617500D01*
X71153000Y-95617500D01*
X71153000Y-95973000D01*
X69407000Y-95973000D01*
X69407000Y-95617500D01*
X67899847Y-95617500D01*
X67835741Y-95864827D01*
X67991451Y-96134952D01*
X68265086Y-96373000D01*
X67294914Y-96373000D01*
X67568549Y-96134952D01*
X67724259Y-95864827D01*
X67660153Y-95617500D01*
X66153000Y-95617500D01*
X66153000Y-95973000D01*
X64407000Y-95973000D01*
X64407000Y-95617500D01*
X64387000Y-95617500D01*
X64387000Y-94542500D01*
X64407000Y-94542500D01*
X64407000Y-93515531D01*
X66153000Y-93515531D01*
X66153000Y-94542500D01*
X67660153Y-94542500D01*
X67724259Y-94295173D01*
X67835741Y-94295173D01*
X67899847Y-94542500D01*
X69407000Y-94542500D01*
X69407000Y-93515531D01*
X71153000Y-93515531D01*
X71153000Y-94542500D01*
X72660153Y-94542500D01*
X72724259Y-94295173D01*
X72568549Y-94025048D01*
X72061042Y-93583544D01*
X71423211Y-93369862D01*
X71153000Y-93515531D01*
X69407000Y-93515531D01*
X69136789Y-93369862D01*
X68498958Y-93583544D01*
X67991451Y-94025048D01*
X67835741Y-94295173D01*
X67724259Y-94295173D01*
X67568549Y-94025048D01*
X67061042Y-93583544D01*
X66423211Y-93369862D01*
X66153000Y-93515531D01*
X64407000Y-93515531D01*
X64136789Y-93369862D01*
X63498958Y-93583544D01*
X63127000Y-93907128D01*
X63127000Y-92792587D01*
X86945934Y-92792587D01*
X87191256Y-93600730D01*
X87727167Y-94253476D01*
X88046532Y-94436995D01*
X88350000Y-94408405D01*
X88350000Y-92453000D01*
X89850000Y-92453000D01*
X89850000Y-94408405D01*
X90153468Y-94436995D01*
X90472833Y-94253476D01*
X91008744Y-93600730D01*
X91254066Y-92792587D01*
X92025934Y-92792587D01*
X92271256Y-93600730D01*
X92807167Y-94253476D01*
X93126532Y-94436995D01*
X93430000Y-94408405D01*
X93430000Y-92453000D01*
X92177948Y-92453000D01*
X92025934Y-92792587D01*
X91254066Y-92792587D01*
X91102052Y-92453000D01*
X89850000Y-92453000D01*
X88350000Y-92453000D01*
X87097948Y-92453000D01*
X86945934Y-92792587D01*
X63127000Y-92792587D01*
X63127000Y-90367413D01*
X86945934Y-90367413D01*
X87097948Y-90707000D01*
X88350000Y-90707000D01*
X88350000Y-88751595D01*
X89850000Y-88751595D01*
X89850000Y-90707000D01*
X91102052Y-90707000D01*
X91254066Y-90367413D01*
X92025934Y-90367413D01*
X92177948Y-90707000D01*
X93430000Y-90707000D01*
X93430000Y-88751595D01*
X93126532Y-88723005D01*
X92807167Y-88906524D01*
X92271256Y-89559270D01*
X92025934Y-90367413D01*
X91254066Y-90367413D01*
X91008744Y-89559270D01*
X90472833Y-88906524D01*
X90153468Y-88723005D01*
X89850000Y-88751595D01*
X88350000Y-88751595D01*
X88046532Y-88723005D01*
X87727167Y-88906524D01*
X87191256Y-89559270D01*
X86945934Y-90367413D01*
X63127000Y-90367413D01*
X63127000Y-89252872D01*
X63498958Y-89576456D01*
X64136789Y-89790138D01*
X64407000Y-89644469D01*
X64407000Y-88617500D01*
X66153000Y-88617500D01*
X66153000Y-89644469D01*
X66423211Y-89790138D01*
X67061042Y-89576456D01*
X67568549Y-89134952D01*
X67724259Y-88864827D01*
X67835741Y-88864827D01*
X67991451Y-89134952D01*
X68498958Y-89576456D01*
X69136789Y-89790138D01*
X69407000Y-89644469D01*
X69407000Y-88617500D01*
X71153000Y-88617500D01*
X71153000Y-89644469D01*
X71423211Y-89790138D01*
X72061042Y-89576456D01*
X72568549Y-89134952D01*
X72724259Y-88864827D01*
X72660153Y-88617500D01*
X71153000Y-88617500D01*
X69407000Y-88617500D01*
X67899847Y-88617500D01*
X67835741Y-88864827D01*
X67724259Y-88864827D01*
X67660153Y-88617500D01*
X66153000Y-88617500D01*
X64407000Y-88617500D01*
X64387000Y-88617500D01*
X64387000Y-87542500D01*
X64407000Y-87542500D01*
X64407000Y-87187000D01*
X66153000Y-87187000D01*
X66153000Y-87542500D01*
X67660153Y-87542500D01*
X67724259Y-87295173D01*
X67568549Y-87025048D01*
X67110994Y-86627000D01*
X68449006Y-86627000D01*
X67991451Y-87025048D01*
G04 #@! TO.N,Net-(F3-Pad2)*
G36*
X67991451Y-99725048D02*
X67835741Y-99995173D01*
X67899847Y-100242500D01*
X69407000Y-100242500D01*
X69407000Y-99887000D01*
X71153000Y-99887000D01*
X71153000Y-100242500D01*
X72660153Y-100242500D01*
X72724259Y-99995173D01*
X72568549Y-99725048D01*
X72168469Y-99377000D01*
X94237491Y-99377000D01*
X94583130Y-99445752D01*
X94865545Y-99634455D01*
X95054248Y-99916870D01*
X95123000Y-100262509D01*
X95123000Y-101569269D01*
X94868468Y-101423005D01*
X94565000Y-101451595D01*
X94565000Y-103407000D01*
X94708000Y-103407000D01*
X94708000Y-105153000D01*
X94565000Y-105153000D01*
X94565000Y-107108405D01*
X94868468Y-107136995D01*
X95123000Y-106990731D01*
X95123000Y-108237491D01*
X95054248Y-108583130D01*
X94865545Y-108865545D01*
X94583130Y-109054248D01*
X94237491Y-109123000D01*
X72237439Y-109123000D01*
X72568549Y-108834952D01*
X72724259Y-108564827D01*
X72660153Y-108317500D01*
X71153000Y-108317500D01*
X71153000Y-108673000D01*
X69407000Y-108673000D01*
X69407000Y-108317500D01*
X67899847Y-108317500D01*
X67835741Y-108564827D01*
X67991451Y-108834952D01*
X68322561Y-109123000D01*
X67237439Y-109123000D01*
X67568549Y-108834952D01*
X67724259Y-108564827D01*
X67660153Y-108317500D01*
X66153000Y-108317500D01*
X66153000Y-108673000D01*
X64407000Y-108673000D01*
X64407000Y-108317500D01*
X64387000Y-108317500D01*
X64387000Y-107242500D01*
X64407000Y-107242500D01*
X64407000Y-106215531D01*
X66153000Y-106215531D01*
X66153000Y-107242500D01*
X67660153Y-107242500D01*
X67724259Y-106995173D01*
X67835741Y-106995173D01*
X67899847Y-107242500D01*
X69407000Y-107242500D01*
X69407000Y-106215531D01*
X71153000Y-106215531D01*
X71153000Y-107242500D01*
X72660153Y-107242500D01*
X72724259Y-106995173D01*
X72568549Y-106725048D01*
X72061042Y-106283544D01*
X71423211Y-106069862D01*
X71153000Y-106215531D01*
X69407000Y-106215531D01*
X69136789Y-106069862D01*
X68498958Y-106283544D01*
X67991451Y-106725048D01*
X67835741Y-106995173D01*
X67724259Y-106995173D01*
X67568549Y-106725048D01*
X67061042Y-106283544D01*
X66423211Y-106069862D01*
X66153000Y-106215531D01*
X64407000Y-106215531D01*
X64136789Y-106069862D01*
X63498958Y-106283544D01*
X62991451Y-106725048D01*
X62886568Y-106906998D01*
X62877000Y-106906998D01*
X62877000Y-105492587D01*
X86580934Y-105492587D01*
X86826256Y-106300730D01*
X87362167Y-106953476D01*
X87681532Y-107136995D01*
X87985000Y-107108405D01*
X87985000Y-105153000D01*
X89485000Y-105153000D01*
X89485000Y-107108405D01*
X89788468Y-107136995D01*
X90107833Y-106953476D01*
X90643744Y-106300730D01*
X90889066Y-105492587D01*
X91660934Y-105492587D01*
X91906256Y-106300730D01*
X92442167Y-106953476D01*
X92761532Y-107136995D01*
X93065000Y-107108405D01*
X93065000Y-105153000D01*
X91812948Y-105153000D01*
X91660934Y-105492587D01*
X90889066Y-105492587D01*
X90737052Y-105153000D01*
X89485000Y-105153000D01*
X87985000Y-105153000D01*
X86732948Y-105153000D01*
X86580934Y-105492587D01*
X62877000Y-105492587D01*
X62877000Y-103067413D01*
X86580934Y-103067413D01*
X86732948Y-103407000D01*
X87985000Y-103407000D01*
X87985000Y-101451595D01*
X89485000Y-101451595D01*
X89485000Y-103407000D01*
X90737052Y-103407000D01*
X90889066Y-103067413D01*
X91660934Y-103067413D01*
X91812948Y-103407000D01*
X93065000Y-103407000D01*
X93065000Y-101451595D01*
X92761532Y-101423005D01*
X92442167Y-101606524D01*
X91906256Y-102259270D01*
X91660934Y-103067413D01*
X90889066Y-103067413D01*
X90643744Y-102259270D01*
X90107833Y-101606524D01*
X89788468Y-101423005D01*
X89485000Y-101451595D01*
X87985000Y-101451595D01*
X87681532Y-101423005D01*
X87362167Y-101606524D01*
X86826256Y-102259270D01*
X86580934Y-103067413D01*
X62877000Y-103067413D01*
X62877000Y-101653002D01*
X62886568Y-101653002D01*
X62991451Y-101834952D01*
X63498958Y-102276456D01*
X64136789Y-102490138D01*
X64407000Y-102344469D01*
X64407000Y-101317500D01*
X66153000Y-101317500D01*
X66153000Y-102344469D01*
X66423211Y-102490138D01*
X67061042Y-102276456D01*
X67568549Y-101834952D01*
X67724259Y-101564827D01*
X67835741Y-101564827D01*
X67991451Y-101834952D01*
X68498958Y-102276456D01*
X69136789Y-102490138D01*
X69407000Y-102344469D01*
X69407000Y-101317500D01*
X71153000Y-101317500D01*
X71153000Y-102344469D01*
X71423211Y-102490138D01*
X72061042Y-102276456D01*
X72568549Y-101834952D01*
X72724259Y-101564827D01*
X72660153Y-101317500D01*
X71153000Y-101317500D01*
X69407000Y-101317500D01*
X67899847Y-101317500D01*
X67835741Y-101564827D01*
X67724259Y-101564827D01*
X67660153Y-101317500D01*
X66153000Y-101317500D01*
X64407000Y-101317500D01*
X64387000Y-101317500D01*
X64387000Y-100242500D01*
X64407000Y-100242500D01*
X64407000Y-99887000D01*
X66153000Y-99887000D01*
X66153000Y-100242500D01*
X67660153Y-100242500D01*
X67724259Y-99995173D01*
X67568549Y-99725048D01*
X67168469Y-99377000D01*
X68391531Y-99377000D01*
X67991451Y-99725048D01*
X67991451Y-99725048D01*
G37*
X67991451Y-99725048D02*
X67835741Y-99995173D01*
X67899847Y-100242500D01*
X69407000Y-100242500D01*
X69407000Y-99887000D01*
X71153000Y-99887000D01*
X71153000Y-100242500D01*
X72660153Y-100242500D01*
X72724259Y-99995173D01*
X72568549Y-99725048D01*
X72168469Y-99377000D01*
X94237491Y-99377000D01*
X94583130Y-99445752D01*
X94865545Y-99634455D01*
X95054248Y-99916870D01*
X95123000Y-100262509D01*
X95123000Y-101569269D01*
X94868468Y-101423005D01*
X94565000Y-101451595D01*
X94565000Y-103407000D01*
X94708000Y-103407000D01*
X94708000Y-105153000D01*
X94565000Y-105153000D01*
X94565000Y-107108405D01*
X94868468Y-107136995D01*
X95123000Y-106990731D01*
X95123000Y-108237491D01*
X95054248Y-108583130D01*
X94865545Y-108865545D01*
X94583130Y-109054248D01*
X94237491Y-109123000D01*
X72237439Y-109123000D01*
X72568549Y-108834952D01*
X72724259Y-108564827D01*
X72660153Y-108317500D01*
X71153000Y-108317500D01*
X71153000Y-108673000D01*
X69407000Y-108673000D01*
X69407000Y-108317500D01*
X67899847Y-108317500D01*
X67835741Y-108564827D01*
X67991451Y-108834952D01*
X68322561Y-109123000D01*
X67237439Y-109123000D01*
X67568549Y-108834952D01*
X67724259Y-108564827D01*
X67660153Y-108317500D01*
X66153000Y-108317500D01*
X66153000Y-108673000D01*
X64407000Y-108673000D01*
X64407000Y-108317500D01*
X64387000Y-108317500D01*
X64387000Y-107242500D01*
X64407000Y-107242500D01*
X64407000Y-106215531D01*
X66153000Y-106215531D01*
X66153000Y-107242500D01*
X67660153Y-107242500D01*
X67724259Y-106995173D01*
X67835741Y-106995173D01*
X67899847Y-107242500D01*
X69407000Y-107242500D01*
X69407000Y-106215531D01*
X71153000Y-106215531D01*
X71153000Y-107242500D01*
X72660153Y-107242500D01*
X72724259Y-106995173D01*
X72568549Y-106725048D01*
X72061042Y-106283544D01*
X71423211Y-106069862D01*
X71153000Y-106215531D01*
X69407000Y-106215531D01*
X69136789Y-106069862D01*
X68498958Y-106283544D01*
X67991451Y-106725048D01*
X67835741Y-106995173D01*
X67724259Y-106995173D01*
X67568549Y-106725048D01*
X67061042Y-106283544D01*
X66423211Y-106069862D01*
X66153000Y-106215531D01*
X64407000Y-106215531D01*
X64136789Y-106069862D01*
X63498958Y-106283544D01*
X62991451Y-106725048D01*
X62886568Y-106906998D01*
X62877000Y-106906998D01*
X62877000Y-105492587D01*
X86580934Y-105492587D01*
X86826256Y-106300730D01*
X87362167Y-106953476D01*
X87681532Y-107136995D01*
X87985000Y-107108405D01*
X87985000Y-105153000D01*
X89485000Y-105153000D01*
X89485000Y-107108405D01*
X89788468Y-107136995D01*
X90107833Y-106953476D01*
X90643744Y-106300730D01*
X90889066Y-105492587D01*
X91660934Y-105492587D01*
X91906256Y-106300730D01*
X92442167Y-106953476D01*
X92761532Y-107136995D01*
X93065000Y-107108405D01*
X93065000Y-105153000D01*
X91812948Y-105153000D01*
X91660934Y-105492587D01*
X90889066Y-105492587D01*
X90737052Y-105153000D01*
X89485000Y-105153000D01*
X87985000Y-105153000D01*
X86732948Y-105153000D01*
X86580934Y-105492587D01*
X62877000Y-105492587D01*
X62877000Y-103067413D01*
X86580934Y-103067413D01*
X86732948Y-103407000D01*
X87985000Y-103407000D01*
X87985000Y-101451595D01*
X89485000Y-101451595D01*
X89485000Y-103407000D01*
X90737052Y-103407000D01*
X90889066Y-103067413D01*
X91660934Y-103067413D01*
X91812948Y-103407000D01*
X93065000Y-103407000D01*
X93065000Y-101451595D01*
X92761532Y-101423005D01*
X92442167Y-101606524D01*
X91906256Y-102259270D01*
X91660934Y-103067413D01*
X90889066Y-103067413D01*
X90643744Y-102259270D01*
X90107833Y-101606524D01*
X89788468Y-101423005D01*
X89485000Y-101451595D01*
X87985000Y-101451595D01*
X87681532Y-101423005D01*
X87362167Y-101606524D01*
X86826256Y-102259270D01*
X86580934Y-103067413D01*
X62877000Y-103067413D01*
X62877000Y-101653002D01*
X62886568Y-101653002D01*
X62991451Y-101834952D01*
X63498958Y-102276456D01*
X64136789Y-102490138D01*
X64407000Y-102344469D01*
X64407000Y-101317500D01*
X66153000Y-101317500D01*
X66153000Y-102344469D01*
X66423211Y-102490138D01*
X67061042Y-102276456D01*
X67568549Y-101834952D01*
X67724259Y-101564827D01*
X67835741Y-101564827D01*
X67991451Y-101834952D01*
X68498958Y-102276456D01*
X69136789Y-102490138D01*
X69407000Y-102344469D01*
X69407000Y-101317500D01*
X71153000Y-101317500D01*
X71153000Y-102344469D01*
X71423211Y-102490138D01*
X72061042Y-102276456D01*
X72568549Y-101834952D01*
X72724259Y-101564827D01*
X72660153Y-101317500D01*
X71153000Y-101317500D01*
X69407000Y-101317500D01*
X67899847Y-101317500D01*
X67835741Y-101564827D01*
X67724259Y-101564827D01*
X67660153Y-101317500D01*
X66153000Y-101317500D01*
X64407000Y-101317500D01*
X64387000Y-101317500D01*
X64387000Y-100242500D01*
X64407000Y-100242500D01*
X64407000Y-99887000D01*
X66153000Y-99887000D01*
X66153000Y-100242500D01*
X67660153Y-100242500D01*
X67724259Y-99995173D01*
X67568549Y-99725048D01*
X67168469Y-99377000D01*
X68391531Y-99377000D01*
X67991451Y-99725048D01*
G04 #@! TO.N,Net-(F4-Pad2)*
G36*
X67991451Y-112425048D02*
X67835741Y-112695173D01*
X67899847Y-112942500D01*
X69407000Y-112942500D01*
X69407000Y-112587000D01*
X71153000Y-112587000D01*
X71153000Y-112942500D01*
X72660153Y-112942500D01*
X72724259Y-112695173D01*
X72568549Y-112425048D01*
X72225944Y-112127000D01*
X94451653Y-112127000D01*
X94797292Y-112195752D01*
X95079707Y-112384455D01*
X95268410Y-112666870D01*
X95337162Y-113012509D01*
X95337162Y-114182591D01*
X95233468Y-114123005D01*
X94930000Y-114151595D01*
X94930000Y-116107000D01*
X95073000Y-116107000D01*
X95073000Y-117853000D01*
X94930000Y-117853000D01*
X94930000Y-119808405D01*
X95233468Y-119836995D01*
X95337162Y-119777409D01*
X95337162Y-120987491D01*
X95268410Y-121333130D01*
X95079707Y-121615545D01*
X94797292Y-121804248D01*
X94451653Y-121873000D01*
X72179964Y-121873000D01*
X72568549Y-121534952D01*
X72724259Y-121264827D01*
X72660153Y-121017500D01*
X71153000Y-121017500D01*
X71153000Y-121373000D01*
X69407000Y-121373000D01*
X69407000Y-121017500D01*
X67899847Y-121017500D01*
X67835741Y-121264827D01*
X67991451Y-121534952D01*
X68380036Y-121873000D01*
X67179964Y-121873000D01*
X67568549Y-121534952D01*
X67724259Y-121264827D01*
X67660153Y-121017500D01*
X66153000Y-121017500D01*
X66153000Y-121373000D01*
X64407000Y-121373000D01*
X64407000Y-121017500D01*
X64387000Y-121017500D01*
X64387000Y-119942500D01*
X64407000Y-119942500D01*
X64407000Y-118915531D01*
X66153000Y-118915531D01*
X66153000Y-119942500D01*
X67660153Y-119942500D01*
X67724259Y-119695173D01*
X67835741Y-119695173D01*
X67899847Y-119942500D01*
X69407000Y-119942500D01*
X69407000Y-118915531D01*
X71153000Y-118915531D01*
X71153000Y-119942500D01*
X72660153Y-119942500D01*
X72724259Y-119695173D01*
X72568549Y-119425048D01*
X72061042Y-118983544D01*
X71423211Y-118769862D01*
X71153000Y-118915531D01*
X69407000Y-118915531D01*
X69136789Y-118769862D01*
X68498958Y-118983544D01*
X67991451Y-119425048D01*
X67835741Y-119695173D01*
X67724259Y-119695173D01*
X67568549Y-119425048D01*
X67061042Y-118983544D01*
X66423211Y-118769862D01*
X66153000Y-118915531D01*
X64407000Y-118915531D01*
X64136789Y-118769862D01*
X63498958Y-118983544D01*
X63091162Y-119338305D01*
X63091162Y-118192587D01*
X86945934Y-118192587D01*
X87191256Y-119000730D01*
X87727167Y-119653476D01*
X88046532Y-119836995D01*
X88350000Y-119808405D01*
X88350000Y-117853000D01*
X89850000Y-117853000D01*
X89850000Y-119808405D01*
X90153468Y-119836995D01*
X90472833Y-119653476D01*
X91008744Y-119000730D01*
X91254066Y-118192587D01*
X92025934Y-118192587D01*
X92271256Y-119000730D01*
X92807167Y-119653476D01*
X93126532Y-119836995D01*
X93430000Y-119808405D01*
X93430000Y-117853000D01*
X92177948Y-117853000D01*
X92025934Y-118192587D01*
X91254066Y-118192587D01*
X91102052Y-117853000D01*
X89850000Y-117853000D01*
X88350000Y-117853000D01*
X87097948Y-117853000D01*
X86945934Y-118192587D01*
X63091162Y-118192587D01*
X63091162Y-115767413D01*
X86945934Y-115767413D01*
X87097948Y-116107000D01*
X88350000Y-116107000D01*
X88350000Y-114151595D01*
X89850000Y-114151595D01*
X89850000Y-116107000D01*
X91102052Y-116107000D01*
X91254066Y-115767413D01*
X92025934Y-115767413D01*
X92177948Y-116107000D01*
X93430000Y-116107000D01*
X93430000Y-114151595D01*
X93126532Y-114123005D01*
X92807167Y-114306524D01*
X92271256Y-114959270D01*
X92025934Y-115767413D01*
X91254066Y-115767413D01*
X91008744Y-114959270D01*
X90472833Y-114306524D01*
X90153468Y-114123005D01*
X89850000Y-114151595D01*
X88350000Y-114151595D01*
X88046532Y-114123005D01*
X87727167Y-114306524D01*
X87191256Y-114959270D01*
X86945934Y-115767413D01*
X63091162Y-115767413D01*
X63091162Y-114621695D01*
X63498958Y-114976456D01*
X64136789Y-115190138D01*
X64407000Y-115044469D01*
X64407000Y-114017500D01*
X66153000Y-114017500D01*
X66153000Y-115044469D01*
X66423211Y-115190138D01*
X67061042Y-114976456D01*
X67568549Y-114534952D01*
X67724259Y-114264827D01*
X67835741Y-114264827D01*
X67991451Y-114534952D01*
X68498958Y-114976456D01*
X69136789Y-115190138D01*
X69407000Y-115044469D01*
X69407000Y-114017500D01*
X71153000Y-114017500D01*
X71153000Y-115044469D01*
X71423211Y-115190138D01*
X72061042Y-114976456D01*
X72568549Y-114534952D01*
X72724259Y-114264827D01*
X72660153Y-114017500D01*
X71153000Y-114017500D01*
X69407000Y-114017500D01*
X67899847Y-114017500D01*
X67835741Y-114264827D01*
X67724259Y-114264827D01*
X67660153Y-114017500D01*
X66153000Y-114017500D01*
X64407000Y-114017500D01*
X64387000Y-114017500D01*
X64387000Y-112942500D01*
X64407000Y-112942500D01*
X64407000Y-112587000D01*
X66153000Y-112587000D01*
X66153000Y-112942500D01*
X67660153Y-112942500D01*
X67724259Y-112695173D01*
X67568549Y-112425048D01*
X67225944Y-112127000D01*
X68334056Y-112127000D01*
X67991451Y-112425048D01*
X67991451Y-112425048D01*
G37*
X67991451Y-112425048D02*
X67835741Y-112695173D01*
X67899847Y-112942500D01*
X69407000Y-112942500D01*
X69407000Y-112587000D01*
X71153000Y-112587000D01*
X71153000Y-112942500D01*
X72660153Y-112942500D01*
X72724259Y-112695173D01*
X72568549Y-112425048D01*
X72225944Y-112127000D01*
X94451653Y-112127000D01*
X94797292Y-112195752D01*
X95079707Y-112384455D01*
X95268410Y-112666870D01*
X95337162Y-113012509D01*
X95337162Y-114182591D01*
X95233468Y-114123005D01*
X94930000Y-114151595D01*
X94930000Y-116107000D01*
X95073000Y-116107000D01*
X95073000Y-117853000D01*
X94930000Y-117853000D01*
X94930000Y-119808405D01*
X95233468Y-119836995D01*
X95337162Y-119777409D01*
X95337162Y-120987491D01*
X95268410Y-121333130D01*
X95079707Y-121615545D01*
X94797292Y-121804248D01*
X94451653Y-121873000D01*
X72179964Y-121873000D01*
X72568549Y-121534952D01*
X72724259Y-121264827D01*
X72660153Y-121017500D01*
X71153000Y-121017500D01*
X71153000Y-121373000D01*
X69407000Y-121373000D01*
X69407000Y-121017500D01*
X67899847Y-121017500D01*
X67835741Y-121264827D01*
X67991451Y-121534952D01*
X68380036Y-121873000D01*
X67179964Y-121873000D01*
X67568549Y-121534952D01*
X67724259Y-121264827D01*
X67660153Y-121017500D01*
X66153000Y-121017500D01*
X66153000Y-121373000D01*
X64407000Y-121373000D01*
X64407000Y-121017500D01*
X64387000Y-121017500D01*
X64387000Y-119942500D01*
X64407000Y-119942500D01*
X64407000Y-118915531D01*
X66153000Y-118915531D01*
X66153000Y-119942500D01*
X67660153Y-119942500D01*
X67724259Y-119695173D01*
X67835741Y-119695173D01*
X67899847Y-119942500D01*
X69407000Y-119942500D01*
X69407000Y-118915531D01*
X71153000Y-118915531D01*
X71153000Y-119942500D01*
X72660153Y-119942500D01*
X72724259Y-119695173D01*
X72568549Y-119425048D01*
X72061042Y-118983544D01*
X71423211Y-118769862D01*
X71153000Y-118915531D01*
X69407000Y-118915531D01*
X69136789Y-118769862D01*
X68498958Y-118983544D01*
X67991451Y-119425048D01*
X67835741Y-119695173D01*
X67724259Y-119695173D01*
X67568549Y-119425048D01*
X67061042Y-118983544D01*
X66423211Y-118769862D01*
X66153000Y-118915531D01*
X64407000Y-118915531D01*
X64136789Y-118769862D01*
X63498958Y-118983544D01*
X63091162Y-119338305D01*
X63091162Y-118192587D01*
X86945934Y-118192587D01*
X87191256Y-119000730D01*
X87727167Y-119653476D01*
X88046532Y-119836995D01*
X88350000Y-119808405D01*
X88350000Y-117853000D01*
X89850000Y-117853000D01*
X89850000Y-119808405D01*
X90153468Y-119836995D01*
X90472833Y-119653476D01*
X91008744Y-119000730D01*
X91254066Y-118192587D01*
X92025934Y-118192587D01*
X92271256Y-119000730D01*
X92807167Y-119653476D01*
X93126532Y-119836995D01*
X93430000Y-119808405D01*
X93430000Y-117853000D01*
X92177948Y-117853000D01*
X92025934Y-118192587D01*
X91254066Y-118192587D01*
X91102052Y-117853000D01*
X89850000Y-117853000D01*
X88350000Y-117853000D01*
X87097948Y-117853000D01*
X86945934Y-118192587D01*
X63091162Y-118192587D01*
X63091162Y-115767413D01*
X86945934Y-115767413D01*
X87097948Y-116107000D01*
X88350000Y-116107000D01*
X88350000Y-114151595D01*
X89850000Y-114151595D01*
X89850000Y-116107000D01*
X91102052Y-116107000D01*
X91254066Y-115767413D01*
X92025934Y-115767413D01*
X92177948Y-116107000D01*
X93430000Y-116107000D01*
X93430000Y-114151595D01*
X93126532Y-114123005D01*
X92807167Y-114306524D01*
X92271256Y-114959270D01*
X92025934Y-115767413D01*
X91254066Y-115767413D01*
X91008744Y-114959270D01*
X90472833Y-114306524D01*
X90153468Y-114123005D01*
X89850000Y-114151595D01*
X88350000Y-114151595D01*
X88046532Y-114123005D01*
X87727167Y-114306524D01*
X87191256Y-114959270D01*
X86945934Y-115767413D01*
X63091162Y-115767413D01*
X63091162Y-114621695D01*
X63498958Y-114976456D01*
X64136789Y-115190138D01*
X64407000Y-115044469D01*
X64407000Y-114017500D01*
X66153000Y-114017500D01*
X66153000Y-115044469D01*
X66423211Y-115190138D01*
X67061042Y-114976456D01*
X67568549Y-114534952D01*
X67724259Y-114264827D01*
X67835741Y-114264827D01*
X67991451Y-114534952D01*
X68498958Y-114976456D01*
X69136789Y-115190138D01*
X69407000Y-115044469D01*
X69407000Y-114017500D01*
X71153000Y-114017500D01*
X71153000Y-115044469D01*
X71423211Y-115190138D01*
X72061042Y-114976456D01*
X72568549Y-114534952D01*
X72724259Y-114264827D01*
X72660153Y-114017500D01*
X71153000Y-114017500D01*
X69407000Y-114017500D01*
X67899847Y-114017500D01*
X67835741Y-114264827D01*
X67724259Y-114264827D01*
X67660153Y-114017500D01*
X66153000Y-114017500D01*
X64407000Y-114017500D01*
X64387000Y-114017500D01*
X64387000Y-112942500D01*
X64407000Y-112942500D01*
X64407000Y-112587000D01*
X66153000Y-112587000D01*
X66153000Y-112942500D01*
X67660153Y-112942500D01*
X67724259Y-112695173D01*
X67568549Y-112425048D01*
X67225944Y-112127000D01*
X68334056Y-112127000D01*
X67991451Y-112425048D01*
G04 #@! TO.N,Net-(F5-Pad2)*
G36*
X68468958Y-124253544D02*
X67961451Y-124695048D01*
X67805741Y-124965173D01*
X67869847Y-125212500D01*
X69377000Y-125212500D01*
X69377000Y-124857000D01*
X71123000Y-124857000D01*
X71123000Y-125212500D01*
X72630153Y-125212500D01*
X72694259Y-124965173D01*
X72538549Y-124695048D01*
X72031042Y-124253544D01*
X71653314Y-124127000D01*
X94487491Y-124127000D01*
X94833130Y-124195752D01*
X95115545Y-124384455D01*
X95304248Y-124666870D01*
X95373000Y-125012509D01*
X95373000Y-126268185D01*
X95233468Y-126188005D01*
X94930000Y-126216595D01*
X94930000Y-128172000D01*
X95073000Y-128172000D01*
X95073000Y-129918000D01*
X94930000Y-129918000D01*
X94930000Y-131873405D01*
X95233468Y-131901995D01*
X95373000Y-131821815D01*
X95373000Y-132987491D01*
X95304248Y-133333130D01*
X95115545Y-133615545D01*
X94833130Y-133804248D01*
X94487491Y-133873000D01*
X72460328Y-133873000D01*
X72538549Y-133804952D01*
X72694259Y-133534827D01*
X72630153Y-133287500D01*
X71123000Y-133287500D01*
X71123000Y-133643000D01*
X69377000Y-133643000D01*
X69377000Y-133287500D01*
X67869847Y-133287500D01*
X67805741Y-133534827D01*
X67961451Y-133804952D01*
X68039672Y-133873000D01*
X67460328Y-133873000D01*
X67538549Y-133804952D01*
X67694259Y-133534827D01*
X67630153Y-133287500D01*
X66123000Y-133287500D01*
X66123000Y-133643000D01*
X64377000Y-133643000D01*
X64377000Y-133287500D01*
X64357000Y-133287500D01*
X64357000Y-132212500D01*
X64377000Y-132212500D01*
X64377000Y-131185531D01*
X66123000Y-131185531D01*
X66123000Y-132212500D01*
X67630153Y-132212500D01*
X67694259Y-131965173D01*
X67805741Y-131965173D01*
X67869847Y-132212500D01*
X69377000Y-132212500D01*
X69377000Y-131185531D01*
X71123000Y-131185531D01*
X71123000Y-132212500D01*
X72630153Y-132212500D01*
X72694259Y-131965173D01*
X72538549Y-131695048D01*
X72031042Y-131253544D01*
X71393211Y-131039862D01*
X71123000Y-131185531D01*
X69377000Y-131185531D01*
X69106789Y-131039862D01*
X68468958Y-131253544D01*
X67961451Y-131695048D01*
X67805741Y-131965173D01*
X67694259Y-131965173D01*
X67538549Y-131695048D01*
X67031042Y-131253544D01*
X66393211Y-131039862D01*
X66123000Y-131185531D01*
X64377000Y-131185531D01*
X64106789Y-131039862D01*
X63468958Y-131253544D01*
X63127000Y-131551029D01*
X63127000Y-130257587D01*
X86945934Y-130257587D01*
X87191256Y-131065730D01*
X87727167Y-131718476D01*
X88046532Y-131901995D01*
X88350000Y-131873405D01*
X88350000Y-129918000D01*
X89850000Y-129918000D01*
X89850000Y-131873405D01*
X90153468Y-131901995D01*
X90472833Y-131718476D01*
X91008744Y-131065730D01*
X91254066Y-130257587D01*
X92025934Y-130257587D01*
X92271256Y-131065730D01*
X92807167Y-131718476D01*
X93126532Y-131901995D01*
X93430000Y-131873405D01*
X93430000Y-129918000D01*
X92177948Y-129918000D01*
X92025934Y-130257587D01*
X91254066Y-130257587D01*
X91102052Y-129918000D01*
X89850000Y-129918000D01*
X88350000Y-129918000D01*
X87097948Y-129918000D01*
X86945934Y-130257587D01*
X63127000Y-130257587D01*
X63127000Y-127832413D01*
X86945934Y-127832413D01*
X87097948Y-128172000D01*
X88350000Y-128172000D01*
X88350000Y-126216595D01*
X89850000Y-126216595D01*
X89850000Y-128172000D01*
X91102052Y-128172000D01*
X91254066Y-127832413D01*
X92025934Y-127832413D01*
X92177948Y-128172000D01*
X93430000Y-128172000D01*
X93430000Y-126216595D01*
X93126532Y-126188005D01*
X92807167Y-126371524D01*
X92271256Y-127024270D01*
X92025934Y-127832413D01*
X91254066Y-127832413D01*
X91008744Y-127024270D01*
X90472833Y-126371524D01*
X90153468Y-126188005D01*
X89850000Y-126216595D01*
X88350000Y-126216595D01*
X88046532Y-126188005D01*
X87727167Y-126371524D01*
X87191256Y-127024270D01*
X86945934Y-127832413D01*
X63127000Y-127832413D01*
X63127000Y-126948971D01*
X63468958Y-127246456D01*
X64106789Y-127460138D01*
X64377000Y-127314469D01*
X64377000Y-126287500D01*
X66123000Y-126287500D01*
X66123000Y-127314469D01*
X66393211Y-127460138D01*
X67031042Y-127246456D01*
X67538549Y-126804952D01*
X67694259Y-126534827D01*
X67805741Y-126534827D01*
X67961451Y-126804952D01*
X68468958Y-127246456D01*
X69106789Y-127460138D01*
X69377000Y-127314469D01*
X69377000Y-126287500D01*
X71123000Y-126287500D01*
X71123000Y-127314469D01*
X71393211Y-127460138D01*
X72031042Y-127246456D01*
X72538549Y-126804952D01*
X72694259Y-126534827D01*
X72630153Y-126287500D01*
X71123000Y-126287500D01*
X69377000Y-126287500D01*
X67869847Y-126287500D01*
X67805741Y-126534827D01*
X67694259Y-126534827D01*
X67630153Y-126287500D01*
X66123000Y-126287500D01*
X64377000Y-126287500D01*
X64357000Y-126287500D01*
X64357000Y-125212500D01*
X64377000Y-125212500D01*
X64377000Y-124857000D01*
X66123000Y-124857000D01*
X66123000Y-125212500D01*
X67630153Y-125212500D01*
X67694259Y-124965173D01*
X67538549Y-124695048D01*
X67031042Y-124253544D01*
X66653314Y-124127000D01*
X68846686Y-124127000D01*
X68468958Y-124253544D01*
X68468958Y-124253544D01*
G37*
X68468958Y-124253544D02*
X67961451Y-124695048D01*
X67805741Y-124965173D01*
X67869847Y-125212500D01*
X69377000Y-125212500D01*
X69377000Y-124857000D01*
X71123000Y-124857000D01*
X71123000Y-125212500D01*
X72630153Y-125212500D01*
X72694259Y-124965173D01*
X72538549Y-124695048D01*
X72031042Y-124253544D01*
X71653314Y-124127000D01*
X94487491Y-124127000D01*
X94833130Y-124195752D01*
X95115545Y-124384455D01*
X95304248Y-124666870D01*
X95373000Y-125012509D01*
X95373000Y-126268185D01*
X95233468Y-126188005D01*
X94930000Y-126216595D01*
X94930000Y-128172000D01*
X95073000Y-128172000D01*
X95073000Y-129918000D01*
X94930000Y-129918000D01*
X94930000Y-131873405D01*
X95233468Y-131901995D01*
X95373000Y-131821815D01*
X95373000Y-132987491D01*
X95304248Y-133333130D01*
X95115545Y-133615545D01*
X94833130Y-133804248D01*
X94487491Y-133873000D01*
X72460328Y-133873000D01*
X72538549Y-133804952D01*
X72694259Y-133534827D01*
X72630153Y-133287500D01*
X71123000Y-133287500D01*
X71123000Y-133643000D01*
X69377000Y-133643000D01*
X69377000Y-133287500D01*
X67869847Y-133287500D01*
X67805741Y-133534827D01*
X67961451Y-133804952D01*
X68039672Y-133873000D01*
X67460328Y-133873000D01*
X67538549Y-133804952D01*
X67694259Y-133534827D01*
X67630153Y-133287500D01*
X66123000Y-133287500D01*
X66123000Y-133643000D01*
X64377000Y-133643000D01*
X64377000Y-133287500D01*
X64357000Y-133287500D01*
X64357000Y-132212500D01*
X64377000Y-132212500D01*
X64377000Y-131185531D01*
X66123000Y-131185531D01*
X66123000Y-132212500D01*
X67630153Y-132212500D01*
X67694259Y-131965173D01*
X67805741Y-131965173D01*
X67869847Y-132212500D01*
X69377000Y-132212500D01*
X69377000Y-131185531D01*
X71123000Y-131185531D01*
X71123000Y-132212500D01*
X72630153Y-132212500D01*
X72694259Y-131965173D01*
X72538549Y-131695048D01*
X72031042Y-131253544D01*
X71393211Y-131039862D01*
X71123000Y-131185531D01*
X69377000Y-131185531D01*
X69106789Y-131039862D01*
X68468958Y-131253544D01*
X67961451Y-131695048D01*
X67805741Y-131965173D01*
X67694259Y-131965173D01*
X67538549Y-131695048D01*
X67031042Y-131253544D01*
X66393211Y-131039862D01*
X66123000Y-131185531D01*
X64377000Y-131185531D01*
X64106789Y-131039862D01*
X63468958Y-131253544D01*
X63127000Y-131551029D01*
X63127000Y-130257587D01*
X86945934Y-130257587D01*
X87191256Y-131065730D01*
X87727167Y-131718476D01*
X88046532Y-131901995D01*
X88350000Y-131873405D01*
X88350000Y-129918000D01*
X89850000Y-129918000D01*
X89850000Y-131873405D01*
X90153468Y-131901995D01*
X90472833Y-131718476D01*
X91008744Y-131065730D01*
X91254066Y-130257587D01*
X92025934Y-130257587D01*
X92271256Y-131065730D01*
X92807167Y-131718476D01*
X93126532Y-131901995D01*
X93430000Y-131873405D01*
X93430000Y-129918000D01*
X92177948Y-129918000D01*
X92025934Y-130257587D01*
X91254066Y-130257587D01*
X91102052Y-129918000D01*
X89850000Y-129918000D01*
X88350000Y-129918000D01*
X87097948Y-129918000D01*
X86945934Y-130257587D01*
X63127000Y-130257587D01*
X63127000Y-127832413D01*
X86945934Y-127832413D01*
X87097948Y-128172000D01*
X88350000Y-128172000D01*
X88350000Y-126216595D01*
X89850000Y-126216595D01*
X89850000Y-128172000D01*
X91102052Y-128172000D01*
X91254066Y-127832413D01*
X92025934Y-127832413D01*
X92177948Y-128172000D01*
X93430000Y-128172000D01*
X93430000Y-126216595D01*
X93126532Y-126188005D01*
X92807167Y-126371524D01*
X92271256Y-127024270D01*
X92025934Y-127832413D01*
X91254066Y-127832413D01*
X91008744Y-127024270D01*
X90472833Y-126371524D01*
X90153468Y-126188005D01*
X89850000Y-126216595D01*
X88350000Y-126216595D01*
X88046532Y-126188005D01*
X87727167Y-126371524D01*
X87191256Y-127024270D01*
X86945934Y-127832413D01*
X63127000Y-127832413D01*
X63127000Y-126948971D01*
X63468958Y-127246456D01*
X64106789Y-127460138D01*
X64377000Y-127314469D01*
X64377000Y-126287500D01*
X66123000Y-126287500D01*
X66123000Y-127314469D01*
X66393211Y-127460138D01*
X67031042Y-127246456D01*
X67538549Y-126804952D01*
X67694259Y-126534827D01*
X67805741Y-126534827D01*
X67961451Y-126804952D01*
X68468958Y-127246456D01*
X69106789Y-127460138D01*
X69377000Y-127314469D01*
X69377000Y-126287500D01*
X71123000Y-126287500D01*
X71123000Y-127314469D01*
X71393211Y-127460138D01*
X72031042Y-127246456D01*
X72538549Y-126804952D01*
X72694259Y-126534827D01*
X72630153Y-126287500D01*
X71123000Y-126287500D01*
X69377000Y-126287500D01*
X67869847Y-126287500D01*
X67805741Y-126534827D01*
X67694259Y-126534827D01*
X67630153Y-126287500D01*
X66123000Y-126287500D01*
X64377000Y-126287500D01*
X64357000Y-126287500D01*
X64357000Y-125212500D01*
X64377000Y-125212500D01*
X64377000Y-124857000D01*
X66123000Y-124857000D01*
X66123000Y-125212500D01*
X67630153Y-125212500D01*
X67694259Y-124965173D01*
X67538549Y-124695048D01*
X67031042Y-124253544D01*
X66653314Y-124127000D01*
X68846686Y-124127000D01*
X68468958Y-124253544D01*
G04 #@! TO.N,Net-(F1-Pad1)*
G36*
X119378958Y-73883544D02*
X118871451Y-74325048D01*
X118715741Y-74595173D01*
X118779847Y-74842500D01*
X120287000Y-74842500D01*
X120287000Y-74487000D01*
X122033000Y-74487000D01*
X122033000Y-74842500D01*
X123540153Y-74842500D01*
X123604259Y-74595173D01*
X123448549Y-74325048D01*
X122941042Y-73883544D01*
X122921508Y-73877000D01*
X124398492Y-73877000D01*
X124378958Y-73883544D01*
X123871451Y-74325048D01*
X123715741Y-74595173D01*
X123779847Y-74842500D01*
X125287000Y-74842500D01*
X125287000Y-74487000D01*
X127033000Y-74487000D01*
X127033000Y-74842500D01*
X128540153Y-74842500D01*
X128604259Y-74595173D01*
X128448549Y-74325048D01*
X127941042Y-73883544D01*
X127921508Y-73877000D01*
X128545948Y-73877000D01*
X128891587Y-73945752D01*
X129174002Y-74134455D01*
X129362705Y-74416870D01*
X129431457Y-74762509D01*
X129431457Y-82737491D01*
X129362705Y-83083130D01*
X129174002Y-83365545D01*
X128891587Y-83554248D01*
X128545948Y-83623000D01*
X128232389Y-83623000D01*
X128448549Y-83434952D01*
X128604259Y-83164827D01*
X128540153Y-82917500D01*
X127033000Y-82917500D01*
X127033000Y-83273000D01*
X125287000Y-83273000D01*
X125287000Y-82917500D01*
X123779847Y-82917500D01*
X123715741Y-83164827D01*
X123871451Y-83434952D01*
X124087611Y-83623000D01*
X123232389Y-83623000D01*
X123448549Y-83434952D01*
X123604259Y-83164827D01*
X123540153Y-82917500D01*
X122033000Y-82917500D01*
X122033000Y-83273000D01*
X120287000Y-83273000D01*
X120287000Y-82917500D01*
X118779847Y-82917500D01*
X118715741Y-83164827D01*
X118871451Y-83434952D01*
X119087611Y-83623000D01*
X98070966Y-83623000D01*
X97725327Y-83554248D01*
X97442912Y-83365545D01*
X97254209Y-83083130D01*
X97185457Y-82737491D01*
X97185457Y-81724885D01*
X97206532Y-81736995D01*
X97510000Y-81708405D01*
X97510000Y-79753000D01*
X99010000Y-79753000D01*
X99010000Y-81708405D01*
X99313468Y-81736995D01*
X99632833Y-81553476D01*
X100168744Y-80900730D01*
X100414066Y-80092587D01*
X101185934Y-80092587D01*
X101431256Y-80900730D01*
X101967167Y-81553476D01*
X102286532Y-81736995D01*
X102590000Y-81708405D01*
X102590000Y-79753000D01*
X104090000Y-79753000D01*
X104090000Y-81708405D01*
X104393468Y-81736995D01*
X104640270Y-81595173D01*
X118715741Y-81595173D01*
X118779847Y-81842500D01*
X120287000Y-81842500D01*
X120287000Y-80815531D01*
X122033000Y-80815531D01*
X122033000Y-81842500D01*
X123540153Y-81842500D01*
X123604259Y-81595173D01*
X123715741Y-81595173D01*
X123779847Y-81842500D01*
X125287000Y-81842500D01*
X125287000Y-80815531D01*
X127033000Y-80815531D01*
X127033000Y-81842500D01*
X128540153Y-81842500D01*
X128604259Y-81595173D01*
X128448549Y-81325048D01*
X127941042Y-80883544D01*
X127303211Y-80669862D01*
X127033000Y-80815531D01*
X125287000Y-80815531D01*
X125016789Y-80669862D01*
X124378958Y-80883544D01*
X123871451Y-81325048D01*
X123715741Y-81595173D01*
X123604259Y-81595173D01*
X123448549Y-81325048D01*
X122941042Y-80883544D01*
X122303211Y-80669862D01*
X122033000Y-80815531D01*
X120287000Y-80815531D01*
X120016789Y-80669862D01*
X119378958Y-80883544D01*
X118871451Y-81325048D01*
X118715741Y-81595173D01*
X104640270Y-81595173D01*
X104712833Y-81553476D01*
X105248744Y-80900730D01*
X105494066Y-80092587D01*
X105342052Y-79753000D01*
X104090000Y-79753000D01*
X102590000Y-79753000D01*
X101337948Y-79753000D01*
X101185934Y-80092587D01*
X100414066Y-80092587D01*
X100262052Y-79753000D01*
X99010000Y-79753000D01*
X97510000Y-79753000D01*
X97367000Y-79753000D01*
X97367000Y-78007000D01*
X97510000Y-78007000D01*
X97510000Y-76051595D01*
X99010000Y-76051595D01*
X99010000Y-78007000D01*
X100262052Y-78007000D01*
X100414066Y-77667413D01*
X101185934Y-77667413D01*
X101337948Y-78007000D01*
X102590000Y-78007000D01*
X102590000Y-76051595D01*
X104090000Y-76051595D01*
X104090000Y-78007000D01*
X105342052Y-78007000D01*
X105494066Y-77667413D01*
X105248744Y-76859270D01*
X104712833Y-76206524D01*
X104640271Y-76164827D01*
X118715741Y-76164827D01*
X118871451Y-76434952D01*
X119378958Y-76876456D01*
X120016789Y-77090138D01*
X120287000Y-76944469D01*
X120287000Y-75917500D01*
X122033000Y-75917500D01*
X122033000Y-76944469D01*
X122303211Y-77090138D01*
X122941042Y-76876456D01*
X123448549Y-76434952D01*
X123604259Y-76164827D01*
X123715741Y-76164827D01*
X123871451Y-76434952D01*
X124378958Y-76876456D01*
X125016789Y-77090138D01*
X125287000Y-76944469D01*
X125287000Y-75917500D01*
X127033000Y-75917500D01*
X127033000Y-76944469D01*
X127303211Y-77090138D01*
X127941042Y-76876456D01*
X128448549Y-76434952D01*
X128604259Y-76164827D01*
X128540153Y-75917500D01*
X127033000Y-75917500D01*
X125287000Y-75917500D01*
X123779847Y-75917500D01*
X123715741Y-76164827D01*
X123604259Y-76164827D01*
X123540153Y-75917500D01*
X122033000Y-75917500D01*
X120287000Y-75917500D01*
X118779847Y-75917500D01*
X118715741Y-76164827D01*
X104640271Y-76164827D01*
X104393468Y-76023005D01*
X104090000Y-76051595D01*
X102590000Y-76051595D01*
X102286532Y-76023005D01*
X101967167Y-76206524D01*
X101431256Y-76859270D01*
X101185934Y-77667413D01*
X100414066Y-77667413D01*
X100168744Y-76859270D01*
X99632833Y-76206524D01*
X99313468Y-76023005D01*
X99010000Y-76051595D01*
X97510000Y-76051595D01*
X97206532Y-76023005D01*
X97185457Y-76035115D01*
X97185457Y-74762509D01*
X97254209Y-74416870D01*
X97442912Y-74134455D01*
X97725327Y-73945752D01*
X98070966Y-73877000D01*
X119398492Y-73877000D01*
X119378958Y-73883544D01*
X119378958Y-73883544D01*
G37*
X119378958Y-73883544D02*
X118871451Y-74325048D01*
X118715741Y-74595173D01*
X118779847Y-74842500D01*
X120287000Y-74842500D01*
X120287000Y-74487000D01*
X122033000Y-74487000D01*
X122033000Y-74842500D01*
X123540153Y-74842500D01*
X123604259Y-74595173D01*
X123448549Y-74325048D01*
X122941042Y-73883544D01*
X122921508Y-73877000D01*
X124398492Y-73877000D01*
X124378958Y-73883544D01*
X123871451Y-74325048D01*
X123715741Y-74595173D01*
X123779847Y-74842500D01*
X125287000Y-74842500D01*
X125287000Y-74487000D01*
X127033000Y-74487000D01*
X127033000Y-74842500D01*
X128540153Y-74842500D01*
X128604259Y-74595173D01*
X128448549Y-74325048D01*
X127941042Y-73883544D01*
X127921508Y-73877000D01*
X128545948Y-73877000D01*
X128891587Y-73945752D01*
X129174002Y-74134455D01*
X129362705Y-74416870D01*
X129431457Y-74762509D01*
X129431457Y-82737491D01*
X129362705Y-83083130D01*
X129174002Y-83365545D01*
X128891587Y-83554248D01*
X128545948Y-83623000D01*
X128232389Y-83623000D01*
X128448549Y-83434952D01*
X128604259Y-83164827D01*
X128540153Y-82917500D01*
X127033000Y-82917500D01*
X127033000Y-83273000D01*
X125287000Y-83273000D01*
X125287000Y-82917500D01*
X123779847Y-82917500D01*
X123715741Y-83164827D01*
X123871451Y-83434952D01*
X124087611Y-83623000D01*
X123232389Y-83623000D01*
X123448549Y-83434952D01*
X123604259Y-83164827D01*
X123540153Y-82917500D01*
X122033000Y-82917500D01*
X122033000Y-83273000D01*
X120287000Y-83273000D01*
X120287000Y-82917500D01*
X118779847Y-82917500D01*
X118715741Y-83164827D01*
X118871451Y-83434952D01*
X119087611Y-83623000D01*
X98070966Y-83623000D01*
X97725327Y-83554248D01*
X97442912Y-83365545D01*
X97254209Y-83083130D01*
X97185457Y-82737491D01*
X97185457Y-81724885D01*
X97206532Y-81736995D01*
X97510000Y-81708405D01*
X97510000Y-79753000D01*
X99010000Y-79753000D01*
X99010000Y-81708405D01*
X99313468Y-81736995D01*
X99632833Y-81553476D01*
X100168744Y-80900730D01*
X100414066Y-80092587D01*
X101185934Y-80092587D01*
X101431256Y-80900730D01*
X101967167Y-81553476D01*
X102286532Y-81736995D01*
X102590000Y-81708405D01*
X102590000Y-79753000D01*
X104090000Y-79753000D01*
X104090000Y-81708405D01*
X104393468Y-81736995D01*
X104640270Y-81595173D01*
X118715741Y-81595173D01*
X118779847Y-81842500D01*
X120287000Y-81842500D01*
X120287000Y-80815531D01*
X122033000Y-80815531D01*
X122033000Y-81842500D01*
X123540153Y-81842500D01*
X123604259Y-81595173D01*
X123715741Y-81595173D01*
X123779847Y-81842500D01*
X125287000Y-81842500D01*
X125287000Y-80815531D01*
X127033000Y-80815531D01*
X127033000Y-81842500D01*
X128540153Y-81842500D01*
X128604259Y-81595173D01*
X128448549Y-81325048D01*
X127941042Y-80883544D01*
X127303211Y-80669862D01*
X127033000Y-80815531D01*
X125287000Y-80815531D01*
X125016789Y-80669862D01*
X124378958Y-80883544D01*
X123871451Y-81325048D01*
X123715741Y-81595173D01*
X123604259Y-81595173D01*
X123448549Y-81325048D01*
X122941042Y-80883544D01*
X122303211Y-80669862D01*
X122033000Y-80815531D01*
X120287000Y-80815531D01*
X120016789Y-80669862D01*
X119378958Y-80883544D01*
X118871451Y-81325048D01*
X118715741Y-81595173D01*
X104640270Y-81595173D01*
X104712833Y-81553476D01*
X105248744Y-80900730D01*
X105494066Y-80092587D01*
X105342052Y-79753000D01*
X104090000Y-79753000D01*
X102590000Y-79753000D01*
X101337948Y-79753000D01*
X101185934Y-80092587D01*
X100414066Y-80092587D01*
X100262052Y-79753000D01*
X99010000Y-79753000D01*
X97510000Y-79753000D01*
X97367000Y-79753000D01*
X97367000Y-78007000D01*
X97510000Y-78007000D01*
X97510000Y-76051595D01*
X99010000Y-76051595D01*
X99010000Y-78007000D01*
X100262052Y-78007000D01*
X100414066Y-77667413D01*
X101185934Y-77667413D01*
X101337948Y-78007000D01*
X102590000Y-78007000D01*
X102590000Y-76051595D01*
X104090000Y-76051595D01*
X104090000Y-78007000D01*
X105342052Y-78007000D01*
X105494066Y-77667413D01*
X105248744Y-76859270D01*
X104712833Y-76206524D01*
X104640271Y-76164827D01*
X118715741Y-76164827D01*
X118871451Y-76434952D01*
X119378958Y-76876456D01*
X120016789Y-77090138D01*
X120287000Y-76944469D01*
X120287000Y-75917500D01*
X122033000Y-75917500D01*
X122033000Y-76944469D01*
X122303211Y-77090138D01*
X122941042Y-76876456D01*
X123448549Y-76434952D01*
X123604259Y-76164827D01*
X123715741Y-76164827D01*
X123871451Y-76434952D01*
X124378958Y-76876456D01*
X125016789Y-77090138D01*
X125287000Y-76944469D01*
X125287000Y-75917500D01*
X127033000Y-75917500D01*
X127033000Y-76944469D01*
X127303211Y-77090138D01*
X127941042Y-76876456D01*
X128448549Y-76434952D01*
X128604259Y-76164827D01*
X128540153Y-75917500D01*
X127033000Y-75917500D01*
X125287000Y-75917500D01*
X123779847Y-75917500D01*
X123715741Y-76164827D01*
X123604259Y-76164827D01*
X123540153Y-75917500D01*
X122033000Y-75917500D01*
X120287000Y-75917500D01*
X118779847Y-75917500D01*
X118715741Y-76164827D01*
X104640271Y-76164827D01*
X104393468Y-76023005D01*
X104090000Y-76051595D01*
X102590000Y-76051595D01*
X102286532Y-76023005D01*
X101967167Y-76206524D01*
X101431256Y-76859270D01*
X101185934Y-77667413D01*
X100414066Y-77667413D01*
X100168744Y-76859270D01*
X99632833Y-76206524D01*
X99313468Y-76023005D01*
X99010000Y-76051595D01*
X97510000Y-76051595D01*
X97206532Y-76023005D01*
X97185457Y-76035115D01*
X97185457Y-74762509D01*
X97254209Y-74416870D01*
X97442912Y-74134455D01*
X97725327Y-73945752D01*
X98070966Y-73877000D01*
X119398492Y-73877000D01*
X119378958Y-73883544D01*
G04 #@! TO.N,Net-(F2-Pad1)*
G36*
X118871451Y-87025048D02*
X118715741Y-87295173D01*
X118779847Y-87542500D01*
X120287000Y-87542500D01*
X120287000Y-87187000D01*
X122033000Y-87187000D01*
X122033000Y-87542500D01*
X123540153Y-87542500D01*
X123604259Y-87295173D01*
X123448549Y-87025048D01*
X122990994Y-86627000D01*
X124329006Y-86627000D01*
X123871451Y-87025048D01*
X123715741Y-87295173D01*
X123779847Y-87542500D01*
X125287000Y-87542500D01*
X125287000Y-87187000D01*
X127033000Y-87187000D01*
X127033000Y-87542500D01*
X128540153Y-87542500D01*
X128604259Y-87295173D01*
X128448549Y-87025048D01*
X127990994Y-86627000D01*
X128548587Y-86627000D01*
X128894226Y-86695752D01*
X129176641Y-86884455D01*
X129365344Y-87166870D01*
X129434096Y-87512509D01*
X129434096Y-95487491D01*
X129365344Y-95833130D01*
X129176641Y-96115545D01*
X128894226Y-96304248D01*
X128548587Y-96373000D01*
X128174914Y-96373000D01*
X128448549Y-96134952D01*
X128604259Y-95864827D01*
X128540153Y-95617500D01*
X127033000Y-95617500D01*
X127033000Y-95973000D01*
X125287000Y-95973000D01*
X125287000Y-95617500D01*
X123779847Y-95617500D01*
X123715741Y-95864827D01*
X123871451Y-96134952D01*
X124145086Y-96373000D01*
X123174914Y-96373000D01*
X123448549Y-96134952D01*
X123604259Y-95864827D01*
X123540153Y-95617500D01*
X122033000Y-95617500D01*
X122033000Y-95973000D01*
X120287000Y-95973000D01*
X120287000Y-95617500D01*
X118779847Y-95617500D01*
X118715741Y-95864827D01*
X118871451Y-96134952D01*
X119145086Y-96373000D01*
X98073605Y-96373000D01*
X97727966Y-96304248D01*
X97445551Y-96115545D01*
X97256848Y-95833130D01*
X97188096Y-95487491D01*
X97188096Y-94426401D01*
X97206532Y-94436995D01*
X97510000Y-94408405D01*
X97510000Y-92453000D01*
X99010000Y-92453000D01*
X99010000Y-94408405D01*
X99313468Y-94436995D01*
X99632833Y-94253476D01*
X100168744Y-93600730D01*
X100414066Y-92792587D01*
X101185934Y-92792587D01*
X101431256Y-93600730D01*
X101967167Y-94253476D01*
X102286532Y-94436995D01*
X102590000Y-94408405D01*
X102590000Y-92453000D01*
X104090000Y-92453000D01*
X104090000Y-94408405D01*
X104393468Y-94436995D01*
X104640270Y-94295173D01*
X118715741Y-94295173D01*
X118779847Y-94542500D01*
X120287000Y-94542500D01*
X120287000Y-93515531D01*
X122033000Y-93515531D01*
X122033000Y-94542500D01*
X123540153Y-94542500D01*
X123604259Y-94295173D01*
X123715741Y-94295173D01*
X123779847Y-94542500D01*
X125287000Y-94542500D01*
X125287000Y-93515531D01*
X127033000Y-93515531D01*
X127033000Y-94542500D01*
X128540153Y-94542500D01*
X128604259Y-94295173D01*
X128448549Y-94025048D01*
X127941042Y-93583544D01*
X127303211Y-93369862D01*
X127033000Y-93515531D01*
X125287000Y-93515531D01*
X125016789Y-93369862D01*
X124378958Y-93583544D01*
X123871451Y-94025048D01*
X123715741Y-94295173D01*
X123604259Y-94295173D01*
X123448549Y-94025048D01*
X122941042Y-93583544D01*
X122303211Y-93369862D01*
X122033000Y-93515531D01*
X120287000Y-93515531D01*
X120016789Y-93369862D01*
X119378958Y-93583544D01*
X118871451Y-94025048D01*
X118715741Y-94295173D01*
X104640270Y-94295173D01*
X104712833Y-94253476D01*
X105248744Y-93600730D01*
X105494066Y-92792587D01*
X105342052Y-92453000D01*
X104090000Y-92453000D01*
X102590000Y-92453000D01*
X101337948Y-92453000D01*
X101185934Y-92792587D01*
X100414066Y-92792587D01*
X100262052Y-92453000D01*
X99010000Y-92453000D01*
X97510000Y-92453000D01*
X97367000Y-92453000D01*
X97367000Y-90707000D01*
X97510000Y-90707000D01*
X97510000Y-88751595D01*
X99010000Y-88751595D01*
X99010000Y-90707000D01*
X100262052Y-90707000D01*
X100414066Y-90367413D01*
X101185934Y-90367413D01*
X101337948Y-90707000D01*
X102590000Y-90707000D01*
X102590000Y-88751595D01*
X104090000Y-88751595D01*
X104090000Y-90707000D01*
X105342052Y-90707000D01*
X105494066Y-90367413D01*
X105248744Y-89559270D01*
X104712833Y-88906524D01*
X104640271Y-88864827D01*
X118715741Y-88864827D01*
X118871451Y-89134952D01*
X119378958Y-89576456D01*
X120016789Y-89790138D01*
X120287000Y-89644469D01*
X120287000Y-88617500D01*
X122033000Y-88617500D01*
X122033000Y-89644469D01*
X122303211Y-89790138D01*
X122941042Y-89576456D01*
X123448549Y-89134952D01*
X123604259Y-88864827D01*
X123715741Y-88864827D01*
X123871451Y-89134952D01*
X124378958Y-89576456D01*
X125016789Y-89790138D01*
X125287000Y-89644469D01*
X125287000Y-88617500D01*
X127033000Y-88617500D01*
X127033000Y-89644469D01*
X127303211Y-89790138D01*
X127941042Y-89576456D01*
X128448549Y-89134952D01*
X128604259Y-88864827D01*
X128540153Y-88617500D01*
X127033000Y-88617500D01*
X125287000Y-88617500D01*
X123779847Y-88617500D01*
X123715741Y-88864827D01*
X123604259Y-88864827D01*
X123540153Y-88617500D01*
X122033000Y-88617500D01*
X120287000Y-88617500D01*
X118779847Y-88617500D01*
X118715741Y-88864827D01*
X104640271Y-88864827D01*
X104393468Y-88723005D01*
X104090000Y-88751595D01*
X102590000Y-88751595D01*
X102286532Y-88723005D01*
X101967167Y-88906524D01*
X101431256Y-89559270D01*
X101185934Y-90367413D01*
X100414066Y-90367413D01*
X100168744Y-89559270D01*
X99632833Y-88906524D01*
X99313468Y-88723005D01*
X99010000Y-88751595D01*
X97510000Y-88751595D01*
X97206532Y-88723005D01*
X97188096Y-88733599D01*
X97188096Y-87512509D01*
X97256848Y-87166870D01*
X97445551Y-86884455D01*
X97727966Y-86695752D01*
X98073605Y-86627000D01*
X119329006Y-86627000D01*
X118871451Y-87025048D01*
X118871451Y-87025048D01*
G37*
X118871451Y-87025048D02*
X118715741Y-87295173D01*
X118779847Y-87542500D01*
X120287000Y-87542500D01*
X120287000Y-87187000D01*
X122033000Y-87187000D01*
X122033000Y-87542500D01*
X123540153Y-87542500D01*
X123604259Y-87295173D01*
X123448549Y-87025048D01*
X122990994Y-86627000D01*
X124329006Y-86627000D01*
X123871451Y-87025048D01*
X123715741Y-87295173D01*
X123779847Y-87542500D01*
X125287000Y-87542500D01*
X125287000Y-87187000D01*
X127033000Y-87187000D01*
X127033000Y-87542500D01*
X128540153Y-87542500D01*
X128604259Y-87295173D01*
X128448549Y-87025048D01*
X127990994Y-86627000D01*
X128548587Y-86627000D01*
X128894226Y-86695752D01*
X129176641Y-86884455D01*
X129365344Y-87166870D01*
X129434096Y-87512509D01*
X129434096Y-95487491D01*
X129365344Y-95833130D01*
X129176641Y-96115545D01*
X128894226Y-96304248D01*
X128548587Y-96373000D01*
X128174914Y-96373000D01*
X128448549Y-96134952D01*
X128604259Y-95864827D01*
X128540153Y-95617500D01*
X127033000Y-95617500D01*
X127033000Y-95973000D01*
X125287000Y-95973000D01*
X125287000Y-95617500D01*
X123779847Y-95617500D01*
X123715741Y-95864827D01*
X123871451Y-96134952D01*
X124145086Y-96373000D01*
X123174914Y-96373000D01*
X123448549Y-96134952D01*
X123604259Y-95864827D01*
X123540153Y-95617500D01*
X122033000Y-95617500D01*
X122033000Y-95973000D01*
X120287000Y-95973000D01*
X120287000Y-95617500D01*
X118779847Y-95617500D01*
X118715741Y-95864827D01*
X118871451Y-96134952D01*
X119145086Y-96373000D01*
X98073605Y-96373000D01*
X97727966Y-96304248D01*
X97445551Y-96115545D01*
X97256848Y-95833130D01*
X97188096Y-95487491D01*
X97188096Y-94426401D01*
X97206532Y-94436995D01*
X97510000Y-94408405D01*
X97510000Y-92453000D01*
X99010000Y-92453000D01*
X99010000Y-94408405D01*
X99313468Y-94436995D01*
X99632833Y-94253476D01*
X100168744Y-93600730D01*
X100414066Y-92792587D01*
X101185934Y-92792587D01*
X101431256Y-93600730D01*
X101967167Y-94253476D01*
X102286532Y-94436995D01*
X102590000Y-94408405D01*
X102590000Y-92453000D01*
X104090000Y-92453000D01*
X104090000Y-94408405D01*
X104393468Y-94436995D01*
X104640270Y-94295173D01*
X118715741Y-94295173D01*
X118779847Y-94542500D01*
X120287000Y-94542500D01*
X120287000Y-93515531D01*
X122033000Y-93515531D01*
X122033000Y-94542500D01*
X123540153Y-94542500D01*
X123604259Y-94295173D01*
X123715741Y-94295173D01*
X123779847Y-94542500D01*
X125287000Y-94542500D01*
X125287000Y-93515531D01*
X127033000Y-93515531D01*
X127033000Y-94542500D01*
X128540153Y-94542500D01*
X128604259Y-94295173D01*
X128448549Y-94025048D01*
X127941042Y-93583544D01*
X127303211Y-93369862D01*
X127033000Y-93515531D01*
X125287000Y-93515531D01*
X125016789Y-93369862D01*
X124378958Y-93583544D01*
X123871451Y-94025048D01*
X123715741Y-94295173D01*
X123604259Y-94295173D01*
X123448549Y-94025048D01*
X122941042Y-93583544D01*
X122303211Y-93369862D01*
X122033000Y-93515531D01*
X120287000Y-93515531D01*
X120016789Y-93369862D01*
X119378958Y-93583544D01*
X118871451Y-94025048D01*
X118715741Y-94295173D01*
X104640270Y-94295173D01*
X104712833Y-94253476D01*
X105248744Y-93600730D01*
X105494066Y-92792587D01*
X105342052Y-92453000D01*
X104090000Y-92453000D01*
X102590000Y-92453000D01*
X101337948Y-92453000D01*
X101185934Y-92792587D01*
X100414066Y-92792587D01*
X100262052Y-92453000D01*
X99010000Y-92453000D01*
X97510000Y-92453000D01*
X97367000Y-92453000D01*
X97367000Y-90707000D01*
X97510000Y-90707000D01*
X97510000Y-88751595D01*
X99010000Y-88751595D01*
X99010000Y-90707000D01*
X100262052Y-90707000D01*
X100414066Y-90367413D01*
X101185934Y-90367413D01*
X101337948Y-90707000D01*
X102590000Y-90707000D01*
X102590000Y-88751595D01*
X104090000Y-88751595D01*
X104090000Y-90707000D01*
X105342052Y-90707000D01*
X105494066Y-90367413D01*
X105248744Y-89559270D01*
X104712833Y-88906524D01*
X104640271Y-88864827D01*
X118715741Y-88864827D01*
X118871451Y-89134952D01*
X119378958Y-89576456D01*
X120016789Y-89790138D01*
X120287000Y-89644469D01*
X120287000Y-88617500D01*
X122033000Y-88617500D01*
X122033000Y-89644469D01*
X122303211Y-89790138D01*
X122941042Y-89576456D01*
X123448549Y-89134952D01*
X123604259Y-88864827D01*
X123715741Y-88864827D01*
X123871451Y-89134952D01*
X124378958Y-89576456D01*
X125016789Y-89790138D01*
X125287000Y-89644469D01*
X125287000Y-88617500D01*
X127033000Y-88617500D01*
X127033000Y-89644469D01*
X127303211Y-89790138D01*
X127941042Y-89576456D01*
X128448549Y-89134952D01*
X128604259Y-88864827D01*
X128540153Y-88617500D01*
X127033000Y-88617500D01*
X125287000Y-88617500D01*
X123779847Y-88617500D01*
X123715741Y-88864827D01*
X123604259Y-88864827D01*
X123540153Y-88617500D01*
X122033000Y-88617500D01*
X120287000Y-88617500D01*
X118779847Y-88617500D01*
X118715741Y-88864827D01*
X104640271Y-88864827D01*
X104393468Y-88723005D01*
X104090000Y-88751595D01*
X102590000Y-88751595D01*
X102286532Y-88723005D01*
X101967167Y-88906524D01*
X101431256Y-89559270D01*
X101185934Y-90367413D01*
X100414066Y-90367413D01*
X100168744Y-89559270D01*
X99632833Y-88906524D01*
X99313468Y-88723005D01*
X99010000Y-88751595D01*
X97510000Y-88751595D01*
X97206532Y-88723005D01*
X97188096Y-88733599D01*
X97188096Y-87512509D01*
X97256848Y-87166870D01*
X97445551Y-86884455D01*
X97727966Y-86695752D01*
X98073605Y-86627000D01*
X119329006Y-86627000D01*
X118871451Y-87025048D01*
G04 #@! TO.N,Net-(F3-Pad1)*
G36*
X118871451Y-99725048D02*
X118715741Y-99995173D01*
X118779847Y-100242500D01*
X120287000Y-100242500D01*
X120287000Y-99887000D01*
X122033000Y-99887000D01*
X122033000Y-100242500D01*
X123540153Y-100242500D01*
X123604259Y-99995173D01*
X123448549Y-99725048D01*
X123048469Y-99377000D01*
X124271531Y-99377000D01*
X123871451Y-99725048D01*
X123715741Y-99995173D01*
X123779847Y-100242500D01*
X125287000Y-100242500D01*
X125287000Y-99887000D01*
X127033000Y-99887000D01*
X127033000Y-100242500D01*
X128540153Y-100242500D01*
X128604259Y-99995173D01*
X128448549Y-99725048D01*
X128048469Y-99377000D01*
X128147614Y-99377000D01*
X128493253Y-99445752D01*
X128775668Y-99634455D01*
X128964371Y-99916870D01*
X129033123Y-100262509D01*
X129033123Y-108237491D01*
X128964371Y-108583130D01*
X128775668Y-108865545D01*
X128493253Y-109054248D01*
X128147614Y-109123000D01*
X128117439Y-109123000D01*
X128448549Y-108834952D01*
X128604259Y-108564827D01*
X128540153Y-108317500D01*
X127033000Y-108317500D01*
X127033000Y-108673000D01*
X125287000Y-108673000D01*
X125287000Y-108317500D01*
X123779847Y-108317500D01*
X123715741Y-108564827D01*
X123871451Y-108834952D01*
X124202561Y-109123000D01*
X123117439Y-109123000D01*
X123448549Y-108834952D01*
X123604259Y-108564827D01*
X123540153Y-108317500D01*
X122033000Y-108317500D01*
X122033000Y-108673000D01*
X120287000Y-108673000D01*
X120287000Y-108317500D01*
X118779847Y-108317500D01*
X118715741Y-108564827D01*
X118871451Y-108834952D01*
X119202561Y-109123000D01*
X97672632Y-109123000D01*
X97326993Y-109054248D01*
X97044578Y-108865545D01*
X96855875Y-108583130D01*
X96787123Y-108237491D01*
X96787123Y-107105730D01*
X96841532Y-107136995D01*
X97145000Y-107108405D01*
X97145000Y-105153000D01*
X98645000Y-105153000D01*
X98645000Y-107108405D01*
X98948468Y-107136995D01*
X99267833Y-106953476D01*
X99803744Y-106300730D01*
X100049066Y-105492587D01*
X100820934Y-105492587D01*
X101066256Y-106300730D01*
X101602167Y-106953476D01*
X101921532Y-107136995D01*
X102225000Y-107108405D01*
X102225000Y-105153000D01*
X103725000Y-105153000D01*
X103725000Y-107108405D01*
X104028468Y-107136995D01*
X104275270Y-106995173D01*
X118715741Y-106995173D01*
X118779847Y-107242500D01*
X120287000Y-107242500D01*
X120287000Y-106215531D01*
X122033000Y-106215531D01*
X122033000Y-107242500D01*
X123540153Y-107242500D01*
X123604259Y-106995173D01*
X123715741Y-106995173D01*
X123779847Y-107242500D01*
X125287000Y-107242500D01*
X125287000Y-106215531D01*
X127033000Y-106215531D01*
X127033000Y-107242500D01*
X128540153Y-107242500D01*
X128604259Y-106995173D01*
X128448549Y-106725048D01*
X127941042Y-106283544D01*
X127303211Y-106069862D01*
X127033000Y-106215531D01*
X125287000Y-106215531D01*
X125016789Y-106069862D01*
X124378958Y-106283544D01*
X123871451Y-106725048D01*
X123715741Y-106995173D01*
X123604259Y-106995173D01*
X123448549Y-106725048D01*
X122941042Y-106283544D01*
X122303211Y-106069862D01*
X122033000Y-106215531D01*
X120287000Y-106215531D01*
X120016789Y-106069862D01*
X119378958Y-106283544D01*
X118871451Y-106725048D01*
X118715741Y-106995173D01*
X104275270Y-106995173D01*
X104347833Y-106953476D01*
X104883744Y-106300730D01*
X105129066Y-105492587D01*
X104977052Y-105153000D01*
X103725000Y-105153000D01*
X102225000Y-105153000D01*
X100972948Y-105153000D01*
X100820934Y-105492587D01*
X100049066Y-105492587D01*
X99897052Y-105153000D01*
X98645000Y-105153000D01*
X97145000Y-105153000D01*
X97002000Y-105153000D01*
X97002000Y-103407000D01*
X97145000Y-103407000D01*
X97145000Y-101451595D01*
X98645000Y-101451595D01*
X98645000Y-103407000D01*
X99897052Y-103407000D01*
X100049066Y-103067413D01*
X100820934Y-103067413D01*
X100972948Y-103407000D01*
X102225000Y-103407000D01*
X102225000Y-101451595D01*
X103725000Y-101451595D01*
X103725000Y-103407000D01*
X104977052Y-103407000D01*
X105129066Y-103067413D01*
X104883744Y-102259270D01*
X104347833Y-101606524D01*
X104275271Y-101564827D01*
X118715741Y-101564827D01*
X118871451Y-101834952D01*
X119378958Y-102276456D01*
X120016789Y-102490138D01*
X120287000Y-102344469D01*
X120287000Y-101317500D01*
X122033000Y-101317500D01*
X122033000Y-102344469D01*
X122303211Y-102490138D01*
X122941042Y-102276456D01*
X123448549Y-101834952D01*
X123604259Y-101564827D01*
X123715741Y-101564827D01*
X123871451Y-101834952D01*
X124378958Y-102276456D01*
X125016789Y-102490138D01*
X125287000Y-102344469D01*
X125287000Y-101317500D01*
X127033000Y-101317500D01*
X127033000Y-102344469D01*
X127303211Y-102490138D01*
X127941042Y-102276456D01*
X128448549Y-101834952D01*
X128604259Y-101564827D01*
X128540153Y-101317500D01*
X127033000Y-101317500D01*
X125287000Y-101317500D01*
X123779847Y-101317500D01*
X123715741Y-101564827D01*
X123604259Y-101564827D01*
X123540153Y-101317500D01*
X122033000Y-101317500D01*
X120287000Y-101317500D01*
X118779847Y-101317500D01*
X118715741Y-101564827D01*
X104275271Y-101564827D01*
X104028468Y-101423005D01*
X103725000Y-101451595D01*
X102225000Y-101451595D01*
X101921532Y-101423005D01*
X101602167Y-101606524D01*
X101066256Y-102259270D01*
X100820934Y-103067413D01*
X100049066Y-103067413D01*
X99803744Y-102259270D01*
X99267833Y-101606524D01*
X98948468Y-101423005D01*
X98645000Y-101451595D01*
X97145000Y-101451595D01*
X96841532Y-101423005D01*
X96787123Y-101454270D01*
X96787123Y-100262509D01*
X96855875Y-99916870D01*
X97044578Y-99634455D01*
X97326993Y-99445752D01*
X97672632Y-99377000D01*
X119271531Y-99377000D01*
X118871451Y-99725048D01*
X118871451Y-99725048D01*
G37*
X118871451Y-99725048D02*
X118715741Y-99995173D01*
X118779847Y-100242500D01*
X120287000Y-100242500D01*
X120287000Y-99887000D01*
X122033000Y-99887000D01*
X122033000Y-100242500D01*
X123540153Y-100242500D01*
X123604259Y-99995173D01*
X123448549Y-99725048D01*
X123048469Y-99377000D01*
X124271531Y-99377000D01*
X123871451Y-99725048D01*
X123715741Y-99995173D01*
X123779847Y-100242500D01*
X125287000Y-100242500D01*
X125287000Y-99887000D01*
X127033000Y-99887000D01*
X127033000Y-100242500D01*
X128540153Y-100242500D01*
X128604259Y-99995173D01*
X128448549Y-99725048D01*
X128048469Y-99377000D01*
X128147614Y-99377000D01*
X128493253Y-99445752D01*
X128775668Y-99634455D01*
X128964371Y-99916870D01*
X129033123Y-100262509D01*
X129033123Y-108237491D01*
X128964371Y-108583130D01*
X128775668Y-108865545D01*
X128493253Y-109054248D01*
X128147614Y-109123000D01*
X128117439Y-109123000D01*
X128448549Y-108834952D01*
X128604259Y-108564827D01*
X128540153Y-108317500D01*
X127033000Y-108317500D01*
X127033000Y-108673000D01*
X125287000Y-108673000D01*
X125287000Y-108317500D01*
X123779847Y-108317500D01*
X123715741Y-108564827D01*
X123871451Y-108834952D01*
X124202561Y-109123000D01*
X123117439Y-109123000D01*
X123448549Y-108834952D01*
X123604259Y-108564827D01*
X123540153Y-108317500D01*
X122033000Y-108317500D01*
X122033000Y-108673000D01*
X120287000Y-108673000D01*
X120287000Y-108317500D01*
X118779847Y-108317500D01*
X118715741Y-108564827D01*
X118871451Y-108834952D01*
X119202561Y-109123000D01*
X97672632Y-109123000D01*
X97326993Y-109054248D01*
X97044578Y-108865545D01*
X96855875Y-108583130D01*
X96787123Y-108237491D01*
X96787123Y-107105730D01*
X96841532Y-107136995D01*
X97145000Y-107108405D01*
X97145000Y-105153000D01*
X98645000Y-105153000D01*
X98645000Y-107108405D01*
X98948468Y-107136995D01*
X99267833Y-106953476D01*
X99803744Y-106300730D01*
X100049066Y-105492587D01*
X100820934Y-105492587D01*
X101066256Y-106300730D01*
X101602167Y-106953476D01*
X101921532Y-107136995D01*
X102225000Y-107108405D01*
X102225000Y-105153000D01*
X103725000Y-105153000D01*
X103725000Y-107108405D01*
X104028468Y-107136995D01*
X104275270Y-106995173D01*
X118715741Y-106995173D01*
X118779847Y-107242500D01*
X120287000Y-107242500D01*
X120287000Y-106215531D01*
X122033000Y-106215531D01*
X122033000Y-107242500D01*
X123540153Y-107242500D01*
X123604259Y-106995173D01*
X123715741Y-106995173D01*
X123779847Y-107242500D01*
X125287000Y-107242500D01*
X125287000Y-106215531D01*
X127033000Y-106215531D01*
X127033000Y-107242500D01*
X128540153Y-107242500D01*
X128604259Y-106995173D01*
X128448549Y-106725048D01*
X127941042Y-106283544D01*
X127303211Y-106069862D01*
X127033000Y-106215531D01*
X125287000Y-106215531D01*
X125016789Y-106069862D01*
X124378958Y-106283544D01*
X123871451Y-106725048D01*
X123715741Y-106995173D01*
X123604259Y-106995173D01*
X123448549Y-106725048D01*
X122941042Y-106283544D01*
X122303211Y-106069862D01*
X122033000Y-106215531D01*
X120287000Y-106215531D01*
X120016789Y-106069862D01*
X119378958Y-106283544D01*
X118871451Y-106725048D01*
X118715741Y-106995173D01*
X104275270Y-106995173D01*
X104347833Y-106953476D01*
X104883744Y-106300730D01*
X105129066Y-105492587D01*
X104977052Y-105153000D01*
X103725000Y-105153000D01*
X102225000Y-105153000D01*
X100972948Y-105153000D01*
X100820934Y-105492587D01*
X100049066Y-105492587D01*
X99897052Y-105153000D01*
X98645000Y-105153000D01*
X97145000Y-105153000D01*
X97002000Y-105153000D01*
X97002000Y-103407000D01*
X97145000Y-103407000D01*
X97145000Y-101451595D01*
X98645000Y-101451595D01*
X98645000Y-103407000D01*
X99897052Y-103407000D01*
X100049066Y-103067413D01*
X100820934Y-103067413D01*
X100972948Y-103407000D01*
X102225000Y-103407000D01*
X102225000Y-101451595D01*
X103725000Y-101451595D01*
X103725000Y-103407000D01*
X104977052Y-103407000D01*
X105129066Y-103067413D01*
X104883744Y-102259270D01*
X104347833Y-101606524D01*
X104275271Y-101564827D01*
X118715741Y-101564827D01*
X118871451Y-101834952D01*
X119378958Y-102276456D01*
X120016789Y-102490138D01*
X120287000Y-102344469D01*
X120287000Y-101317500D01*
X122033000Y-101317500D01*
X122033000Y-102344469D01*
X122303211Y-102490138D01*
X122941042Y-102276456D01*
X123448549Y-101834952D01*
X123604259Y-101564827D01*
X123715741Y-101564827D01*
X123871451Y-101834952D01*
X124378958Y-102276456D01*
X125016789Y-102490138D01*
X125287000Y-102344469D01*
X125287000Y-101317500D01*
X127033000Y-101317500D01*
X127033000Y-102344469D01*
X127303211Y-102490138D01*
X127941042Y-102276456D01*
X128448549Y-101834952D01*
X128604259Y-101564827D01*
X128540153Y-101317500D01*
X127033000Y-101317500D01*
X125287000Y-101317500D01*
X123779847Y-101317500D01*
X123715741Y-101564827D01*
X123604259Y-101564827D01*
X123540153Y-101317500D01*
X122033000Y-101317500D01*
X120287000Y-101317500D01*
X118779847Y-101317500D01*
X118715741Y-101564827D01*
X104275271Y-101564827D01*
X104028468Y-101423005D01*
X103725000Y-101451595D01*
X102225000Y-101451595D01*
X101921532Y-101423005D01*
X101602167Y-101606524D01*
X101066256Y-102259270D01*
X100820934Y-103067413D01*
X100049066Y-103067413D01*
X99803744Y-102259270D01*
X99267833Y-101606524D01*
X98948468Y-101423005D01*
X98645000Y-101451595D01*
X97145000Y-101451595D01*
X96841532Y-101423005D01*
X96787123Y-101454270D01*
X96787123Y-100262509D01*
X96855875Y-99916870D01*
X97044578Y-99634455D01*
X97326993Y-99445752D01*
X97672632Y-99377000D01*
X119271531Y-99377000D01*
X118871451Y-99725048D01*
G04 #@! TO.N,Net-(F4-Pad1)*
G36*
X118871451Y-112425048D02*
X118715741Y-112695173D01*
X118779847Y-112942500D01*
X120287000Y-112942500D01*
X120287000Y-112587000D01*
X122033000Y-112587000D01*
X122033000Y-112942500D01*
X123540153Y-112942500D01*
X123604259Y-112695173D01*
X123448549Y-112425048D01*
X123105944Y-112127000D01*
X124214056Y-112127000D01*
X123871451Y-112425048D01*
X123715741Y-112695173D01*
X123779847Y-112942500D01*
X125287000Y-112942500D01*
X125287000Y-112587000D01*
X127033000Y-112587000D01*
X127033000Y-112942500D01*
X128540153Y-112942500D01*
X128604259Y-112695173D01*
X128448549Y-112425048D01*
X128105944Y-112127000D01*
X128668133Y-112127000D01*
X129013772Y-112195752D01*
X129296187Y-112384455D01*
X129484890Y-112666870D01*
X129553642Y-113012509D01*
X129553642Y-120987491D01*
X129484890Y-121333130D01*
X129296187Y-121615545D01*
X129013772Y-121804248D01*
X128668133Y-121873000D01*
X128059964Y-121873000D01*
X128448549Y-121534952D01*
X128604259Y-121264827D01*
X128540153Y-121017500D01*
X127033000Y-121017500D01*
X127033000Y-121373000D01*
X125287000Y-121373000D01*
X125287000Y-121017500D01*
X123779847Y-121017500D01*
X123715741Y-121264827D01*
X123871451Y-121534952D01*
X124260036Y-121873000D01*
X123059964Y-121873000D01*
X123448549Y-121534952D01*
X123604259Y-121264827D01*
X123540153Y-121017500D01*
X122033000Y-121017500D01*
X122033000Y-121373000D01*
X120287000Y-121373000D01*
X120287000Y-121017500D01*
X118779847Y-121017500D01*
X118715741Y-121264827D01*
X118871451Y-121534952D01*
X119260036Y-121873000D01*
X98193151Y-121873000D01*
X97847512Y-121804248D01*
X97565097Y-121615545D01*
X97376394Y-121333130D01*
X97307642Y-120987491D01*
X97307642Y-119827469D01*
X97510000Y-119808405D01*
X97510000Y-117853000D01*
X99010000Y-117853000D01*
X99010000Y-119808405D01*
X99313468Y-119836995D01*
X99632833Y-119653476D01*
X100168744Y-119000730D01*
X100414066Y-118192587D01*
X101185934Y-118192587D01*
X101431256Y-119000730D01*
X101967167Y-119653476D01*
X102286532Y-119836995D01*
X102590000Y-119808405D01*
X102590000Y-117853000D01*
X104090000Y-117853000D01*
X104090000Y-119808405D01*
X104393468Y-119836995D01*
X104640270Y-119695173D01*
X118715741Y-119695173D01*
X118779847Y-119942500D01*
X120287000Y-119942500D01*
X120287000Y-118915531D01*
X122033000Y-118915531D01*
X122033000Y-119942500D01*
X123540153Y-119942500D01*
X123604259Y-119695173D01*
X123715741Y-119695173D01*
X123779847Y-119942500D01*
X125287000Y-119942500D01*
X125287000Y-118915531D01*
X127033000Y-118915531D01*
X127033000Y-119942500D01*
X128540153Y-119942500D01*
X128604259Y-119695173D01*
X128448549Y-119425048D01*
X127941042Y-118983544D01*
X127303211Y-118769862D01*
X127033000Y-118915531D01*
X125287000Y-118915531D01*
X125016789Y-118769862D01*
X124378958Y-118983544D01*
X123871451Y-119425048D01*
X123715741Y-119695173D01*
X123604259Y-119695173D01*
X123448549Y-119425048D01*
X122941042Y-118983544D01*
X122303211Y-118769862D01*
X122033000Y-118915531D01*
X120287000Y-118915531D01*
X120016789Y-118769862D01*
X119378958Y-118983544D01*
X118871451Y-119425048D01*
X118715741Y-119695173D01*
X104640270Y-119695173D01*
X104712833Y-119653476D01*
X105248744Y-119000730D01*
X105494066Y-118192587D01*
X105342052Y-117853000D01*
X104090000Y-117853000D01*
X102590000Y-117853000D01*
X101337948Y-117853000D01*
X101185934Y-118192587D01*
X100414066Y-118192587D01*
X100262052Y-117853000D01*
X99010000Y-117853000D01*
X97510000Y-117853000D01*
X97367000Y-117853000D01*
X97367000Y-116107000D01*
X97510000Y-116107000D01*
X97510000Y-114151595D01*
X99010000Y-114151595D01*
X99010000Y-116107000D01*
X100262052Y-116107000D01*
X100414066Y-115767413D01*
X101185934Y-115767413D01*
X101337948Y-116107000D01*
X102590000Y-116107000D01*
X102590000Y-114151595D01*
X104090000Y-114151595D01*
X104090000Y-116107000D01*
X105342052Y-116107000D01*
X105494066Y-115767413D01*
X105248744Y-114959270D01*
X104712833Y-114306524D01*
X104640271Y-114264827D01*
X118715741Y-114264827D01*
X118871451Y-114534952D01*
X119378958Y-114976456D01*
X120016789Y-115190138D01*
X120287000Y-115044469D01*
X120287000Y-114017500D01*
X122033000Y-114017500D01*
X122033000Y-115044469D01*
X122303211Y-115190138D01*
X122941042Y-114976456D01*
X123448549Y-114534952D01*
X123604259Y-114264827D01*
X123715741Y-114264827D01*
X123871451Y-114534952D01*
X124378958Y-114976456D01*
X125016789Y-115190138D01*
X125287000Y-115044469D01*
X125287000Y-114017500D01*
X127033000Y-114017500D01*
X127033000Y-115044469D01*
X127303211Y-115190138D01*
X127941042Y-114976456D01*
X128448549Y-114534952D01*
X128604259Y-114264827D01*
X128540153Y-114017500D01*
X127033000Y-114017500D01*
X125287000Y-114017500D01*
X123779847Y-114017500D01*
X123715741Y-114264827D01*
X123604259Y-114264827D01*
X123540153Y-114017500D01*
X122033000Y-114017500D01*
X120287000Y-114017500D01*
X118779847Y-114017500D01*
X118715741Y-114264827D01*
X104640271Y-114264827D01*
X104393468Y-114123005D01*
X104090000Y-114151595D01*
X102590000Y-114151595D01*
X102286532Y-114123005D01*
X101967167Y-114306524D01*
X101431256Y-114959270D01*
X101185934Y-115767413D01*
X100414066Y-115767413D01*
X100168744Y-114959270D01*
X99632833Y-114306524D01*
X99313468Y-114123005D01*
X99010000Y-114151595D01*
X97510000Y-114151595D01*
X97307642Y-114132531D01*
X97307642Y-113012509D01*
X97376394Y-112666870D01*
X97565097Y-112384455D01*
X97847512Y-112195752D01*
X98193151Y-112127000D01*
X119214056Y-112127000D01*
X118871451Y-112425048D01*
X118871451Y-112425048D01*
G37*
X118871451Y-112425048D02*
X118715741Y-112695173D01*
X118779847Y-112942500D01*
X120287000Y-112942500D01*
X120287000Y-112587000D01*
X122033000Y-112587000D01*
X122033000Y-112942500D01*
X123540153Y-112942500D01*
X123604259Y-112695173D01*
X123448549Y-112425048D01*
X123105944Y-112127000D01*
X124214056Y-112127000D01*
X123871451Y-112425048D01*
X123715741Y-112695173D01*
X123779847Y-112942500D01*
X125287000Y-112942500D01*
X125287000Y-112587000D01*
X127033000Y-112587000D01*
X127033000Y-112942500D01*
X128540153Y-112942500D01*
X128604259Y-112695173D01*
X128448549Y-112425048D01*
X128105944Y-112127000D01*
X128668133Y-112127000D01*
X129013772Y-112195752D01*
X129296187Y-112384455D01*
X129484890Y-112666870D01*
X129553642Y-113012509D01*
X129553642Y-120987491D01*
X129484890Y-121333130D01*
X129296187Y-121615545D01*
X129013772Y-121804248D01*
X128668133Y-121873000D01*
X128059964Y-121873000D01*
X128448549Y-121534952D01*
X128604259Y-121264827D01*
X128540153Y-121017500D01*
X127033000Y-121017500D01*
X127033000Y-121373000D01*
X125287000Y-121373000D01*
X125287000Y-121017500D01*
X123779847Y-121017500D01*
X123715741Y-121264827D01*
X123871451Y-121534952D01*
X124260036Y-121873000D01*
X123059964Y-121873000D01*
X123448549Y-121534952D01*
X123604259Y-121264827D01*
X123540153Y-121017500D01*
X122033000Y-121017500D01*
X122033000Y-121373000D01*
X120287000Y-121373000D01*
X120287000Y-121017500D01*
X118779847Y-121017500D01*
X118715741Y-121264827D01*
X118871451Y-121534952D01*
X119260036Y-121873000D01*
X98193151Y-121873000D01*
X97847512Y-121804248D01*
X97565097Y-121615545D01*
X97376394Y-121333130D01*
X97307642Y-120987491D01*
X97307642Y-119827469D01*
X97510000Y-119808405D01*
X97510000Y-117853000D01*
X99010000Y-117853000D01*
X99010000Y-119808405D01*
X99313468Y-119836995D01*
X99632833Y-119653476D01*
X100168744Y-119000730D01*
X100414066Y-118192587D01*
X101185934Y-118192587D01*
X101431256Y-119000730D01*
X101967167Y-119653476D01*
X102286532Y-119836995D01*
X102590000Y-119808405D01*
X102590000Y-117853000D01*
X104090000Y-117853000D01*
X104090000Y-119808405D01*
X104393468Y-119836995D01*
X104640270Y-119695173D01*
X118715741Y-119695173D01*
X118779847Y-119942500D01*
X120287000Y-119942500D01*
X120287000Y-118915531D01*
X122033000Y-118915531D01*
X122033000Y-119942500D01*
X123540153Y-119942500D01*
X123604259Y-119695173D01*
X123715741Y-119695173D01*
X123779847Y-119942500D01*
X125287000Y-119942500D01*
X125287000Y-118915531D01*
X127033000Y-118915531D01*
X127033000Y-119942500D01*
X128540153Y-119942500D01*
X128604259Y-119695173D01*
X128448549Y-119425048D01*
X127941042Y-118983544D01*
X127303211Y-118769862D01*
X127033000Y-118915531D01*
X125287000Y-118915531D01*
X125016789Y-118769862D01*
X124378958Y-118983544D01*
X123871451Y-119425048D01*
X123715741Y-119695173D01*
X123604259Y-119695173D01*
X123448549Y-119425048D01*
X122941042Y-118983544D01*
X122303211Y-118769862D01*
X122033000Y-118915531D01*
X120287000Y-118915531D01*
X120016789Y-118769862D01*
X119378958Y-118983544D01*
X118871451Y-119425048D01*
X118715741Y-119695173D01*
X104640270Y-119695173D01*
X104712833Y-119653476D01*
X105248744Y-119000730D01*
X105494066Y-118192587D01*
X105342052Y-117853000D01*
X104090000Y-117853000D01*
X102590000Y-117853000D01*
X101337948Y-117853000D01*
X101185934Y-118192587D01*
X100414066Y-118192587D01*
X100262052Y-117853000D01*
X99010000Y-117853000D01*
X97510000Y-117853000D01*
X97367000Y-117853000D01*
X97367000Y-116107000D01*
X97510000Y-116107000D01*
X97510000Y-114151595D01*
X99010000Y-114151595D01*
X99010000Y-116107000D01*
X100262052Y-116107000D01*
X100414066Y-115767413D01*
X101185934Y-115767413D01*
X101337948Y-116107000D01*
X102590000Y-116107000D01*
X102590000Y-114151595D01*
X104090000Y-114151595D01*
X104090000Y-116107000D01*
X105342052Y-116107000D01*
X105494066Y-115767413D01*
X105248744Y-114959270D01*
X104712833Y-114306524D01*
X104640271Y-114264827D01*
X118715741Y-114264827D01*
X118871451Y-114534952D01*
X119378958Y-114976456D01*
X120016789Y-115190138D01*
X120287000Y-115044469D01*
X120287000Y-114017500D01*
X122033000Y-114017500D01*
X122033000Y-115044469D01*
X122303211Y-115190138D01*
X122941042Y-114976456D01*
X123448549Y-114534952D01*
X123604259Y-114264827D01*
X123715741Y-114264827D01*
X123871451Y-114534952D01*
X124378958Y-114976456D01*
X125016789Y-115190138D01*
X125287000Y-115044469D01*
X125287000Y-114017500D01*
X127033000Y-114017500D01*
X127033000Y-115044469D01*
X127303211Y-115190138D01*
X127941042Y-114976456D01*
X128448549Y-114534952D01*
X128604259Y-114264827D01*
X128540153Y-114017500D01*
X127033000Y-114017500D01*
X125287000Y-114017500D01*
X123779847Y-114017500D01*
X123715741Y-114264827D01*
X123604259Y-114264827D01*
X123540153Y-114017500D01*
X122033000Y-114017500D01*
X120287000Y-114017500D01*
X118779847Y-114017500D01*
X118715741Y-114264827D01*
X104640271Y-114264827D01*
X104393468Y-114123005D01*
X104090000Y-114151595D01*
X102590000Y-114151595D01*
X102286532Y-114123005D01*
X101967167Y-114306524D01*
X101431256Y-114959270D01*
X101185934Y-115767413D01*
X100414066Y-115767413D01*
X100168744Y-114959270D01*
X99632833Y-114306524D01*
X99313468Y-114123005D01*
X99010000Y-114151595D01*
X97510000Y-114151595D01*
X97307642Y-114132531D01*
X97307642Y-113012509D01*
X97376394Y-112666870D01*
X97565097Y-112384455D01*
X97847512Y-112195752D01*
X98193151Y-112127000D01*
X119214056Y-112127000D01*
X118871451Y-112425048D01*
G04 #@! TO.N,Net-(F5-Pad1)*
G36*
X118961451Y-124195048D02*
X118805741Y-124465173D01*
X118869847Y-124712500D01*
X120377000Y-124712500D01*
X120377000Y-124357000D01*
X122123000Y-124357000D01*
X122123000Y-124712500D01*
X123630153Y-124712500D01*
X123694259Y-124465173D01*
X123538549Y-124195048D01*
X123172954Y-123877000D01*
X124327046Y-123877000D01*
X123961451Y-124195048D01*
X123805741Y-124465173D01*
X123869847Y-124712500D01*
X125377000Y-124712500D01*
X125377000Y-124357000D01*
X127123000Y-124357000D01*
X127123000Y-124712500D01*
X128630153Y-124712500D01*
X128694259Y-124465173D01*
X128538549Y-124195048D01*
X128172954Y-123877000D01*
X128649775Y-123877000D01*
X128995414Y-123945752D01*
X129277829Y-124134455D01*
X129466532Y-124416870D01*
X129535284Y-124762509D01*
X129535284Y-132737491D01*
X129466532Y-133083130D01*
X129277829Y-133365545D01*
X128995414Y-133554248D01*
X128649775Y-133623000D01*
X128172954Y-133623000D01*
X128538549Y-133304952D01*
X128694259Y-133034827D01*
X128630153Y-132787500D01*
X127123000Y-132787500D01*
X127123000Y-133143000D01*
X125377000Y-133143000D01*
X125377000Y-132787500D01*
X123869847Y-132787500D01*
X123805741Y-133034827D01*
X123961451Y-133304952D01*
X124327046Y-133623000D01*
X123172954Y-133623000D01*
X123538549Y-133304952D01*
X123694259Y-133034827D01*
X123630153Y-132787500D01*
X122123000Y-132787500D01*
X122123000Y-133143000D01*
X120377000Y-133143000D01*
X120377000Y-132787500D01*
X118869847Y-132787500D01*
X118805741Y-133034827D01*
X118961451Y-133304952D01*
X119327046Y-133623000D01*
X98174793Y-133623000D01*
X97829154Y-133554248D01*
X97546739Y-133365545D01*
X97358036Y-133083130D01*
X97289284Y-132737491D01*
X97289284Y-131894199D01*
X97510000Y-131873405D01*
X97510000Y-129918000D01*
X99010000Y-129918000D01*
X99010000Y-131873405D01*
X99313468Y-131901995D01*
X99632833Y-131718476D01*
X100168744Y-131065730D01*
X100414066Y-130257587D01*
X101185934Y-130257587D01*
X101431256Y-131065730D01*
X101967167Y-131718476D01*
X102286532Y-131901995D01*
X102590000Y-131873405D01*
X102590000Y-129918000D01*
X104090000Y-129918000D01*
X104090000Y-131873405D01*
X104393468Y-131901995D01*
X104712833Y-131718476D01*
X104920797Y-131465173D01*
X118805741Y-131465173D01*
X118869847Y-131712500D01*
X120377000Y-131712500D01*
X120377000Y-130685531D01*
X122123000Y-130685531D01*
X122123000Y-131712500D01*
X123630153Y-131712500D01*
X123694259Y-131465173D01*
X123805741Y-131465173D01*
X123869847Y-131712500D01*
X125377000Y-131712500D01*
X125377000Y-130685531D01*
X127123000Y-130685531D01*
X127123000Y-131712500D01*
X128630153Y-131712500D01*
X128694259Y-131465173D01*
X128538549Y-131195048D01*
X128031042Y-130753544D01*
X127393211Y-130539862D01*
X127123000Y-130685531D01*
X125377000Y-130685531D01*
X125106789Y-130539862D01*
X124468958Y-130753544D01*
X123961451Y-131195048D01*
X123805741Y-131465173D01*
X123694259Y-131465173D01*
X123538549Y-131195048D01*
X123031042Y-130753544D01*
X122393211Y-130539862D01*
X122123000Y-130685531D01*
X120377000Y-130685531D01*
X120106789Y-130539862D01*
X119468958Y-130753544D01*
X118961451Y-131195048D01*
X118805741Y-131465173D01*
X104920797Y-131465173D01*
X105248744Y-131065730D01*
X105494066Y-130257587D01*
X105342052Y-129918000D01*
X104090000Y-129918000D01*
X102590000Y-129918000D01*
X101337948Y-129918000D01*
X101185934Y-130257587D01*
X100414066Y-130257587D01*
X100262052Y-129918000D01*
X99010000Y-129918000D01*
X97510000Y-129918000D01*
X97367000Y-129918000D01*
X97367000Y-128172000D01*
X97510000Y-128172000D01*
X97510000Y-126216595D01*
X99010000Y-126216595D01*
X99010000Y-128172000D01*
X100262052Y-128172000D01*
X100414066Y-127832413D01*
X101185934Y-127832413D01*
X101337948Y-128172000D01*
X102590000Y-128172000D01*
X102590000Y-126216595D01*
X104090000Y-126216595D01*
X104090000Y-128172000D01*
X105342052Y-128172000D01*
X105494066Y-127832413D01*
X105248744Y-127024270D01*
X104712833Y-126371524D01*
X104393468Y-126188005D01*
X104090000Y-126216595D01*
X102590000Y-126216595D01*
X102286532Y-126188005D01*
X101967167Y-126371524D01*
X101431256Y-127024270D01*
X101185934Y-127832413D01*
X100414066Y-127832413D01*
X100168744Y-127024270D01*
X99632833Y-126371524D01*
X99313468Y-126188005D01*
X99010000Y-126216595D01*
X97510000Y-126216595D01*
X97289284Y-126195801D01*
X97289284Y-126034827D01*
X118805741Y-126034827D01*
X118961451Y-126304952D01*
X119468958Y-126746456D01*
X120106789Y-126960138D01*
X120377000Y-126814469D01*
X120377000Y-125787500D01*
X122123000Y-125787500D01*
X122123000Y-126814469D01*
X122393211Y-126960138D01*
X123031042Y-126746456D01*
X123538549Y-126304952D01*
X123694259Y-126034827D01*
X123805741Y-126034827D01*
X123961451Y-126304952D01*
X124468958Y-126746456D01*
X125106789Y-126960138D01*
X125377000Y-126814469D01*
X125377000Y-125787500D01*
X127123000Y-125787500D01*
X127123000Y-126814469D01*
X127393211Y-126960138D01*
X128031042Y-126746456D01*
X128538549Y-126304952D01*
X128694259Y-126034827D01*
X128630153Y-125787500D01*
X127123000Y-125787500D01*
X125377000Y-125787500D01*
X123869847Y-125787500D01*
X123805741Y-126034827D01*
X123694259Y-126034827D01*
X123630153Y-125787500D01*
X122123000Y-125787500D01*
X120377000Y-125787500D01*
X118869847Y-125787500D01*
X118805741Y-126034827D01*
X97289284Y-126034827D01*
X97289284Y-124762509D01*
X97358036Y-124416870D01*
X97546739Y-124134455D01*
X97829154Y-123945752D01*
X98174793Y-123877000D01*
X119327046Y-123877000D01*
X118961451Y-124195048D01*
X118961451Y-124195048D01*
G37*
X118961451Y-124195048D02*
X118805741Y-124465173D01*
X118869847Y-124712500D01*
X120377000Y-124712500D01*
X120377000Y-124357000D01*
X122123000Y-124357000D01*
X122123000Y-124712500D01*
X123630153Y-124712500D01*
X123694259Y-124465173D01*
X123538549Y-124195048D01*
X123172954Y-123877000D01*
X124327046Y-123877000D01*
X123961451Y-124195048D01*
X123805741Y-124465173D01*
X123869847Y-124712500D01*
X125377000Y-124712500D01*
X125377000Y-124357000D01*
X127123000Y-124357000D01*
X127123000Y-124712500D01*
X128630153Y-124712500D01*
X128694259Y-124465173D01*
X128538549Y-124195048D01*
X128172954Y-123877000D01*
X128649775Y-123877000D01*
X128995414Y-123945752D01*
X129277829Y-124134455D01*
X129466532Y-124416870D01*
X129535284Y-124762509D01*
X129535284Y-132737491D01*
X129466532Y-133083130D01*
X129277829Y-133365545D01*
X128995414Y-133554248D01*
X128649775Y-133623000D01*
X128172954Y-133623000D01*
X128538549Y-133304952D01*
X128694259Y-133034827D01*
X128630153Y-132787500D01*
X127123000Y-132787500D01*
X127123000Y-133143000D01*
X125377000Y-133143000D01*
X125377000Y-132787500D01*
X123869847Y-132787500D01*
X123805741Y-133034827D01*
X123961451Y-133304952D01*
X124327046Y-133623000D01*
X123172954Y-133623000D01*
X123538549Y-133304952D01*
X123694259Y-133034827D01*
X123630153Y-132787500D01*
X122123000Y-132787500D01*
X122123000Y-133143000D01*
X120377000Y-133143000D01*
X120377000Y-132787500D01*
X118869847Y-132787500D01*
X118805741Y-133034827D01*
X118961451Y-133304952D01*
X119327046Y-133623000D01*
X98174793Y-133623000D01*
X97829154Y-133554248D01*
X97546739Y-133365545D01*
X97358036Y-133083130D01*
X97289284Y-132737491D01*
X97289284Y-131894199D01*
X97510000Y-131873405D01*
X97510000Y-129918000D01*
X99010000Y-129918000D01*
X99010000Y-131873405D01*
X99313468Y-131901995D01*
X99632833Y-131718476D01*
X100168744Y-131065730D01*
X100414066Y-130257587D01*
X101185934Y-130257587D01*
X101431256Y-131065730D01*
X101967167Y-131718476D01*
X102286532Y-131901995D01*
X102590000Y-131873405D01*
X102590000Y-129918000D01*
X104090000Y-129918000D01*
X104090000Y-131873405D01*
X104393468Y-131901995D01*
X104712833Y-131718476D01*
X104920797Y-131465173D01*
X118805741Y-131465173D01*
X118869847Y-131712500D01*
X120377000Y-131712500D01*
X120377000Y-130685531D01*
X122123000Y-130685531D01*
X122123000Y-131712500D01*
X123630153Y-131712500D01*
X123694259Y-131465173D01*
X123805741Y-131465173D01*
X123869847Y-131712500D01*
X125377000Y-131712500D01*
X125377000Y-130685531D01*
X127123000Y-130685531D01*
X127123000Y-131712500D01*
X128630153Y-131712500D01*
X128694259Y-131465173D01*
X128538549Y-131195048D01*
X128031042Y-130753544D01*
X127393211Y-130539862D01*
X127123000Y-130685531D01*
X125377000Y-130685531D01*
X125106789Y-130539862D01*
X124468958Y-130753544D01*
X123961451Y-131195048D01*
X123805741Y-131465173D01*
X123694259Y-131465173D01*
X123538549Y-131195048D01*
X123031042Y-130753544D01*
X122393211Y-130539862D01*
X122123000Y-130685531D01*
X120377000Y-130685531D01*
X120106789Y-130539862D01*
X119468958Y-130753544D01*
X118961451Y-131195048D01*
X118805741Y-131465173D01*
X104920797Y-131465173D01*
X105248744Y-131065730D01*
X105494066Y-130257587D01*
X105342052Y-129918000D01*
X104090000Y-129918000D01*
X102590000Y-129918000D01*
X101337948Y-129918000D01*
X101185934Y-130257587D01*
X100414066Y-130257587D01*
X100262052Y-129918000D01*
X99010000Y-129918000D01*
X97510000Y-129918000D01*
X97367000Y-129918000D01*
X97367000Y-128172000D01*
X97510000Y-128172000D01*
X97510000Y-126216595D01*
X99010000Y-126216595D01*
X99010000Y-128172000D01*
X100262052Y-128172000D01*
X100414066Y-127832413D01*
X101185934Y-127832413D01*
X101337948Y-128172000D01*
X102590000Y-128172000D01*
X102590000Y-126216595D01*
X104090000Y-126216595D01*
X104090000Y-128172000D01*
X105342052Y-128172000D01*
X105494066Y-127832413D01*
X105248744Y-127024270D01*
X104712833Y-126371524D01*
X104393468Y-126188005D01*
X104090000Y-126216595D01*
X102590000Y-126216595D01*
X102286532Y-126188005D01*
X101967167Y-126371524D01*
X101431256Y-127024270D01*
X101185934Y-127832413D01*
X100414066Y-127832413D01*
X100168744Y-127024270D01*
X99632833Y-126371524D01*
X99313468Y-126188005D01*
X99010000Y-126216595D01*
X97510000Y-126216595D01*
X97289284Y-126195801D01*
X97289284Y-126034827D01*
X118805741Y-126034827D01*
X118961451Y-126304952D01*
X119468958Y-126746456D01*
X120106789Y-126960138D01*
X120377000Y-126814469D01*
X120377000Y-125787500D01*
X122123000Y-125787500D01*
X122123000Y-126814469D01*
X122393211Y-126960138D01*
X123031042Y-126746456D01*
X123538549Y-126304952D01*
X123694259Y-126034827D01*
X123805741Y-126034827D01*
X123961451Y-126304952D01*
X124468958Y-126746456D01*
X125106789Y-126960138D01*
X125377000Y-126814469D01*
X125377000Y-125787500D01*
X127123000Y-125787500D01*
X127123000Y-126814469D01*
X127393211Y-126960138D01*
X128031042Y-126746456D01*
X128538549Y-126304952D01*
X128694259Y-126034827D01*
X128630153Y-125787500D01*
X127123000Y-125787500D01*
X125377000Y-125787500D01*
X123869847Y-125787500D01*
X123805741Y-126034827D01*
X123694259Y-126034827D01*
X123630153Y-125787500D01*
X122123000Y-125787500D01*
X120377000Y-125787500D01*
X118869847Y-125787500D01*
X118805741Y-126034827D01*
X97289284Y-126034827D01*
X97289284Y-124762509D01*
X97358036Y-124416870D01*
X97546739Y-124134455D01*
X97829154Y-123945752D01*
X98174793Y-123877000D01*
X119327046Y-123877000D01*
X118961451Y-124195048D01*
G04 #@! TO.N,GND*
G36*
X141290000Y-70294092D02*
X141290001Y-137705907D01*
X129705910Y-149290000D01*
X62294092Y-149290000D01*
X56052690Y-143048598D01*
X58186011Y-143048598D01*
X58589111Y-143427158D01*
X60008026Y-143706205D01*
X61410889Y-143427158D01*
X61813989Y-143048598D01*
X130186011Y-143048598D01*
X130589111Y-143427158D01*
X132008026Y-143706205D01*
X133410889Y-143427158D01*
X133813989Y-143048598D01*
X132000000Y-141234608D01*
X130186011Y-143048598D01*
X61813989Y-143048598D01*
X60000000Y-141234608D01*
X58186011Y-143048598D01*
X56052690Y-143048598D01*
X53012117Y-140008026D01*
X56293795Y-140008026D01*
X56572842Y-141410889D01*
X56951402Y-141813989D01*
X58765392Y-140000000D01*
X61234608Y-140000000D01*
X63048598Y-141813989D01*
X63427158Y-141410889D01*
X63703048Y-140008026D01*
X128293795Y-140008026D01*
X128572842Y-141410889D01*
X128951402Y-141813989D01*
X130765392Y-140000000D01*
X133234608Y-140000000D01*
X135048598Y-141813989D01*
X135427158Y-141410889D01*
X135706205Y-139991974D01*
X135427158Y-138589111D01*
X135048598Y-138186011D01*
X133234608Y-140000000D01*
X130765392Y-140000000D01*
X128951402Y-138186011D01*
X128572842Y-138589111D01*
X128293795Y-140008026D01*
X63703048Y-140008026D01*
X63706205Y-139991974D01*
X63427158Y-138589111D01*
X63048598Y-138186011D01*
X61234608Y-140000000D01*
X58765392Y-140000000D01*
X56951402Y-138186011D01*
X56572842Y-138589111D01*
X56293795Y-140008026D01*
X53012117Y-140008026D01*
X50731210Y-137727120D01*
X50731210Y-136951402D01*
X58186011Y-136951402D01*
X60000000Y-138765392D01*
X61813989Y-136951402D01*
X130186011Y-136951402D01*
X132000000Y-138765392D01*
X133813989Y-136951402D01*
X133410889Y-136572842D01*
X131991974Y-136293795D01*
X130589111Y-136572842D01*
X130186011Y-136951402D01*
X61813989Y-136951402D01*
X61410889Y-136572842D01*
X59991974Y-136293795D01*
X58589111Y-136572842D01*
X58186011Y-136951402D01*
X50731210Y-136951402D01*
X50731210Y-134747276D01*
X61128577Y-134747276D01*
X61130885Y-134772098D01*
X61205067Y-135155669D01*
X61223823Y-135201604D01*
X61439310Y-135527480D01*
X61474234Y-135562723D01*
X61798136Y-135781165D01*
X61843898Y-135800337D01*
X62226778Y-135878006D01*
X62251577Y-135880540D01*
X130988147Y-136123425D01*
X131013109Y-136121038D01*
X131398681Y-136045190D01*
X131444801Y-136026124D01*
X131771380Y-135807571D01*
X131806594Y-135772206D01*
X132023748Y-135444695D01*
X132042617Y-135398494D01*
X132116815Y-135012600D01*
X132119095Y-134987628D01*
X131634757Y-72992449D01*
X131632144Y-72967794D01*
X131553674Y-72587225D01*
X131534508Y-72541750D01*
X131316900Y-72219823D01*
X131281847Y-72185087D01*
X130957959Y-71970410D01*
X130912312Y-71951657D01*
X130531046Y-71876643D01*
X130506369Y-71874254D01*
X62597246Y-71959976D01*
X62572578Y-71962426D01*
X62191568Y-72038376D01*
X62145976Y-72057238D01*
X61822664Y-72272662D01*
X61787700Y-72307476D01*
X61570888Y-72629857D01*
X61551830Y-72675368D01*
X61474242Y-73056049D01*
X61471686Y-73080705D01*
X61128577Y-134747276D01*
X50731210Y-134747276D01*
X50731210Y-71048598D01*
X58186011Y-71048598D01*
X58589111Y-71427158D01*
X60008026Y-71706205D01*
X61410889Y-71427158D01*
X61813989Y-71048598D01*
X130186011Y-71048598D01*
X130589111Y-71427158D01*
X132008026Y-71706205D01*
X133410889Y-71427158D01*
X133813989Y-71048598D01*
X132000000Y-69234608D01*
X130186011Y-71048598D01*
X61813989Y-71048598D01*
X60000000Y-69234608D01*
X58186011Y-71048598D01*
X50731210Y-71048598D01*
X50731210Y-70272880D01*
X52996064Y-68008026D01*
X56293795Y-68008026D01*
X56572842Y-69410889D01*
X56951402Y-69813989D01*
X58765392Y-68000000D01*
X61234608Y-68000000D01*
X63048598Y-69813989D01*
X63427158Y-69410889D01*
X63703048Y-68008026D01*
X128293795Y-68008026D01*
X128572842Y-69410889D01*
X128951402Y-69813989D01*
X130765392Y-68000000D01*
X133234608Y-68000000D01*
X135048598Y-69813989D01*
X135427158Y-69410889D01*
X135706205Y-67991974D01*
X135427158Y-66589111D01*
X135048598Y-66186011D01*
X133234608Y-68000000D01*
X130765392Y-68000000D01*
X128951402Y-66186011D01*
X128572842Y-66589111D01*
X128293795Y-68008026D01*
X63703048Y-68008026D01*
X63706205Y-67991974D01*
X63427158Y-66589111D01*
X63048598Y-66186011D01*
X61234608Y-68000000D01*
X58765392Y-68000000D01*
X56951402Y-66186011D01*
X56572842Y-66589111D01*
X56293795Y-68008026D01*
X52996064Y-68008026D01*
X56052688Y-64951402D01*
X58186011Y-64951402D01*
X60000000Y-66765392D01*
X61813989Y-64951402D01*
X130186011Y-64951402D01*
X132000000Y-66765392D01*
X133813989Y-64951402D01*
X133410889Y-64572842D01*
X131991974Y-64293795D01*
X130589111Y-64572842D01*
X130186011Y-64951402D01*
X61813989Y-64951402D01*
X61410889Y-64572842D01*
X59991974Y-64293795D01*
X58589111Y-64572842D01*
X58186011Y-64951402D01*
X56052688Y-64951402D01*
X62294092Y-58710000D01*
X129705910Y-58710000D01*
X141290000Y-70294092D01*
X141290000Y-70294092D01*
G37*
X141290000Y-70294092D02*
X141290001Y-137705907D01*
X129705910Y-149290000D01*
X62294092Y-149290000D01*
X56052690Y-143048598D01*
X58186011Y-143048598D01*
X58589111Y-143427158D01*
X60008026Y-143706205D01*
X61410889Y-143427158D01*
X61813989Y-143048598D01*
X130186011Y-143048598D01*
X130589111Y-143427158D01*
X132008026Y-143706205D01*
X133410889Y-143427158D01*
X133813989Y-143048598D01*
X132000000Y-141234608D01*
X130186011Y-143048598D01*
X61813989Y-143048598D01*
X60000000Y-141234608D01*
X58186011Y-143048598D01*
X56052690Y-143048598D01*
X53012117Y-140008026D01*
X56293795Y-140008026D01*
X56572842Y-141410889D01*
X56951402Y-141813989D01*
X58765392Y-140000000D01*
X61234608Y-140000000D01*
X63048598Y-141813989D01*
X63427158Y-141410889D01*
X63703048Y-140008026D01*
X128293795Y-140008026D01*
X128572842Y-141410889D01*
X128951402Y-141813989D01*
X130765392Y-140000000D01*
X133234608Y-140000000D01*
X135048598Y-141813989D01*
X135427158Y-141410889D01*
X135706205Y-139991974D01*
X135427158Y-138589111D01*
X135048598Y-138186011D01*
X133234608Y-140000000D01*
X130765392Y-140000000D01*
X128951402Y-138186011D01*
X128572842Y-138589111D01*
X128293795Y-140008026D01*
X63703048Y-140008026D01*
X63706205Y-139991974D01*
X63427158Y-138589111D01*
X63048598Y-138186011D01*
X61234608Y-140000000D01*
X58765392Y-140000000D01*
X56951402Y-138186011D01*
X56572842Y-138589111D01*
X56293795Y-140008026D01*
X53012117Y-140008026D01*
X50731210Y-137727120D01*
X50731210Y-136951402D01*
X58186011Y-136951402D01*
X60000000Y-138765392D01*
X61813989Y-136951402D01*
X130186011Y-136951402D01*
X132000000Y-138765392D01*
X133813989Y-136951402D01*
X133410889Y-136572842D01*
X131991974Y-136293795D01*
X130589111Y-136572842D01*
X130186011Y-136951402D01*
X61813989Y-136951402D01*
X61410889Y-136572842D01*
X59991974Y-136293795D01*
X58589111Y-136572842D01*
X58186011Y-136951402D01*
X50731210Y-136951402D01*
X50731210Y-134747276D01*
X61128577Y-134747276D01*
X61130885Y-134772098D01*
X61205067Y-135155669D01*
X61223823Y-135201604D01*
X61439310Y-135527480D01*
X61474234Y-135562723D01*
X61798136Y-135781165D01*
X61843898Y-135800337D01*
X62226778Y-135878006D01*
X62251577Y-135880540D01*
X130988147Y-136123425D01*
X131013109Y-136121038D01*
X131398681Y-136045190D01*
X131444801Y-136026124D01*
X131771380Y-135807571D01*
X131806594Y-135772206D01*
X132023748Y-135444695D01*
X132042617Y-135398494D01*
X132116815Y-135012600D01*
X132119095Y-134987628D01*
X131634757Y-72992449D01*
X131632144Y-72967794D01*
X131553674Y-72587225D01*
X131534508Y-72541750D01*
X131316900Y-72219823D01*
X131281847Y-72185087D01*
X130957959Y-71970410D01*
X130912312Y-71951657D01*
X130531046Y-71876643D01*
X130506369Y-71874254D01*
X62597246Y-71959976D01*
X62572578Y-71962426D01*
X62191568Y-72038376D01*
X62145976Y-72057238D01*
X61822664Y-72272662D01*
X61787700Y-72307476D01*
X61570888Y-72629857D01*
X61551830Y-72675368D01*
X61474242Y-73056049D01*
X61471686Y-73080705D01*
X61128577Y-134747276D01*
X50731210Y-134747276D01*
X50731210Y-71048598D01*
X58186011Y-71048598D01*
X58589111Y-71427158D01*
X60008026Y-71706205D01*
X61410889Y-71427158D01*
X61813989Y-71048598D01*
X130186011Y-71048598D01*
X130589111Y-71427158D01*
X132008026Y-71706205D01*
X133410889Y-71427158D01*
X133813989Y-71048598D01*
X132000000Y-69234608D01*
X130186011Y-71048598D01*
X61813989Y-71048598D01*
X60000000Y-69234608D01*
X58186011Y-71048598D01*
X50731210Y-71048598D01*
X50731210Y-70272880D01*
X52996064Y-68008026D01*
X56293795Y-68008026D01*
X56572842Y-69410889D01*
X56951402Y-69813989D01*
X58765392Y-68000000D01*
X61234608Y-68000000D01*
X63048598Y-69813989D01*
X63427158Y-69410889D01*
X63703048Y-68008026D01*
X128293795Y-68008026D01*
X128572842Y-69410889D01*
X128951402Y-69813989D01*
X130765392Y-68000000D01*
X133234608Y-68000000D01*
X135048598Y-69813989D01*
X135427158Y-69410889D01*
X135706205Y-67991974D01*
X135427158Y-66589111D01*
X135048598Y-66186011D01*
X133234608Y-68000000D01*
X130765392Y-68000000D01*
X128951402Y-66186011D01*
X128572842Y-66589111D01*
X128293795Y-68008026D01*
X63703048Y-68008026D01*
X63706205Y-67991974D01*
X63427158Y-66589111D01*
X63048598Y-66186011D01*
X61234608Y-68000000D01*
X58765392Y-68000000D01*
X56951402Y-66186011D01*
X56572842Y-66589111D01*
X56293795Y-68008026D01*
X52996064Y-68008026D01*
X56052688Y-64951402D01*
X58186011Y-64951402D01*
X60000000Y-66765392D01*
X61813989Y-64951402D01*
X130186011Y-64951402D01*
X132000000Y-66765392D01*
X133813989Y-64951402D01*
X133410889Y-64572842D01*
X131991974Y-64293795D01*
X130589111Y-64572842D01*
X130186011Y-64951402D01*
X61813989Y-64951402D01*
X61410889Y-64572842D01*
X59991974Y-64293795D01*
X58589111Y-64572842D01*
X58186011Y-64951402D01*
X56052688Y-64951402D01*
X62294092Y-58710000D01*
X129705910Y-58710000D01*
X141290000Y-70294092D01*
G04 #@! TD*
M02*
