G04 #@! TF.GenerationSoftware,KiCad,Pcbnew,(5.0.2)-1*
G04 #@! TF.CreationDate,2019-05-25T13:24:05-02:30*
G04 #@! TF.ProjectId,PowerPCB,506f7765-7250-4434-922e-6b696361645f,rev?*
G04 #@! TF.SameCoordinates,Original*
G04 #@! TF.FileFunction,Copper,L2,Bot*
G04 #@! TF.FilePolarity,Positive*
%FSLAX46Y46*%
G04 Gerber Fmt 4.6, Leading zero omitted, Abs format (unit mm)*
G04 Created by KiCad (PCBNEW (5.0.2)-1) date 5/25/2019 1:24:05 PM*
%MOMM*%
%LPD*%
G01*
G04 APERTURE LIST*
G04 #@! TA.AperFunction,ComponentPad*
%ADD10C,6.000000*%
G04 #@! TD*
G04 #@! TA.AperFunction,ComponentPad*
%ADD11O,4.000000X2.150000*%
G04 #@! TD*
G04 #@! TA.AperFunction,ViaPad*
%ADD12C,0.800000*%
G04 #@! TD*
G04 #@! TA.AperFunction,Conductor*
%ADD13C,0.250000*%
G04 #@! TD*
G04 #@! TA.AperFunction,Conductor*
%ADD14C,0.254000*%
G04 #@! TD*
G04 APERTURE END LIST*
D10*
G04 #@! TO.P,H1,1*
G04 #@! TO.N,GND*
X132000000Y-68000000D03*
G04 #@! TD*
G04 #@! TO.P,H2,1*
G04 #@! TO.N,GND*
X60000000Y-68000000D03*
G04 #@! TD*
G04 #@! TO.P,H3,1*
G04 #@! TO.N,GND*
X132000000Y-140000000D03*
G04 #@! TD*
G04 #@! TO.P,H4,1*
G04 #@! TO.N,GND*
X60000000Y-140000000D03*
G04 #@! TD*
D11*
G04 #@! TO.P,J1,1*
G04 #@! TO.N,+V*
X67740000Y-88080000D03*
X67740000Y-95080000D03*
X62740000Y-95080000D03*
X62740000Y-88080000D03*
G04 #@! TD*
G04 #@! TO.P,J2,1*
G04 #@! TO.N,GND*
X67740000Y-117940000D03*
X67740000Y-110940000D03*
X62740000Y-110940000D03*
X62740000Y-117940000D03*
G04 #@! TD*
G04 #@! TO.P,J5,1*
G04 #@! TO.N,Net-(J5-Pad1)*
X129970000Y-123655000D03*
X129970000Y-116655000D03*
X124970000Y-116655000D03*
X124970000Y-123655000D03*
G04 #@! TD*
G04 #@! TO.P,J7,1*
G04 #@! TO.N,Net-(J7-Pad1)*
X124970000Y-80475000D03*
X124970000Y-73475000D03*
X129970000Y-73475000D03*
X129970000Y-80475000D03*
G04 #@! TD*
G04 #@! TO.P,J8,1*
G04 #@! TO.N,GND*
X124970000Y-91270000D03*
X124970000Y-84270000D03*
X129970000Y-84270000D03*
X129970000Y-91270000D03*
G04 #@! TD*
G04 #@! TO.P,J9,1*
G04 #@! TO.N,Net-(J9-Pad1)*
X129970000Y-95065000D03*
X129970000Y-102065000D03*
X124970000Y-102065000D03*
X124970000Y-95065000D03*
G04 #@! TD*
G04 #@! TO.P,J10,1*
G04 #@! TO.N,GND*
X124970000Y-112860000D03*
X124970000Y-105860000D03*
X129970000Y-105860000D03*
X129970000Y-112860000D03*
G04 #@! TD*
G04 #@! TO.P,J6,1*
G04 #@! TO.N,GND*
X129970000Y-134450000D03*
X129970000Y-127450000D03*
X124970000Y-127450000D03*
X124970000Y-134450000D03*
G04 #@! TD*
D12*
G04 #@! TO.N,GND*
X85500000Y-81000000D03*
X85500000Y-83000000D03*
X85500000Y-85250000D03*
X85000000Y-109250000D03*
X85000000Y-112000000D03*
X85000000Y-114250000D03*
X85750000Y-139000000D03*
X85750000Y-141000000D03*
X85750000Y-143500000D03*
X110000000Y-138500000D03*
X110000000Y-140750000D03*
X110000000Y-143250000D03*
X110750000Y-114250000D03*
X110750000Y-112000000D03*
X110750000Y-109750000D03*
X110250000Y-85250000D03*
X110250000Y-82750000D03*
X110250000Y-80250000D03*
G04 #@! TD*
D13*
G04 #@! TO.N,GND*
X85500000Y-81000000D02*
X85500000Y-83000000D01*
X85000000Y-109250000D02*
X85000000Y-112000000D01*
X85750000Y-139000000D02*
X85750000Y-141000000D01*
X110000000Y-138500000D02*
X110000000Y-140750000D01*
X110750000Y-114250000D02*
X110750000Y-112000000D01*
X110250000Y-85250000D02*
X110250000Y-82750000D01*
G04 #@! TD*
D14*
G04 #@! TO.N,GND*
G36*
X141290000Y-70294092D02*
X141290001Y-137705907D01*
X129705910Y-149290000D01*
X62294092Y-149290000D01*
X56328069Y-143323977D01*
X57910632Y-143323977D01*
X58286774Y-143843291D01*
X59887948Y-144206361D01*
X61506183Y-143929052D01*
X61713226Y-143843291D01*
X62089368Y-143323977D01*
X129910632Y-143323977D01*
X130286774Y-143843291D01*
X131887948Y-144206361D01*
X133506183Y-143929052D01*
X133713226Y-143843291D01*
X134089368Y-143323977D01*
X132000000Y-141234608D01*
X129910632Y-143323977D01*
X62089368Y-143323977D01*
X60000000Y-141234608D01*
X57910632Y-143323977D01*
X56328069Y-143323977D01*
X52892039Y-139887948D01*
X55793639Y-139887948D01*
X56070948Y-141506183D01*
X56156709Y-141713226D01*
X56676023Y-142089368D01*
X58765392Y-140000000D01*
X61234608Y-140000000D01*
X63323977Y-142089368D01*
X63843291Y-141713226D01*
X64206361Y-140112052D01*
X64167958Y-139887948D01*
X127793639Y-139887948D01*
X128070948Y-141506183D01*
X128156709Y-141713226D01*
X128676023Y-142089368D01*
X130765392Y-140000000D01*
X133234608Y-140000000D01*
X135323977Y-142089368D01*
X135843291Y-141713226D01*
X136206361Y-140112052D01*
X135929052Y-138493817D01*
X135843291Y-138286774D01*
X135323977Y-137910632D01*
X133234608Y-140000000D01*
X130765392Y-140000000D01*
X128676023Y-137910632D01*
X128156709Y-138286774D01*
X127793639Y-139887948D01*
X64167958Y-139887948D01*
X63929052Y-138493817D01*
X63843291Y-138286774D01*
X63323977Y-137910632D01*
X61234608Y-140000000D01*
X58765392Y-140000000D01*
X56676023Y-137910632D01*
X56156709Y-138286774D01*
X55793639Y-139887948D01*
X52892039Y-139887948D01*
X50710000Y-137705910D01*
X50710000Y-136676023D01*
X57910632Y-136676023D01*
X60000000Y-138765392D01*
X62089368Y-136676023D01*
X61713226Y-136156709D01*
X60112052Y-135793639D01*
X58493817Y-136070948D01*
X58286774Y-136156709D01*
X57910632Y-136676023D01*
X50710000Y-136676023D01*
X50710000Y-135314931D01*
X122019982Y-135314931D01*
X122285792Y-135792416D01*
X122933424Y-136363450D01*
X123750283Y-136643179D01*
X124097000Y-136380531D01*
X124097000Y-134987500D01*
X125843000Y-134987500D01*
X125843000Y-136380531D01*
X126189717Y-136643179D01*
X127006576Y-136363450D01*
X127470000Y-135954837D01*
X127933424Y-136363450D01*
X128750283Y-136643179D01*
X129096998Y-136380533D01*
X129096998Y-136652000D01*
X129928032Y-136652000D01*
X129910632Y-136676023D01*
X132000000Y-138765392D01*
X134089368Y-136676023D01*
X133713226Y-136156709D01*
X132542200Y-135891176D01*
X132654208Y-135792416D01*
X132920018Y-135314931D01*
X132738490Y-134987500D01*
X130843000Y-134987500D01*
X130843000Y-135343000D01*
X129097000Y-135343000D01*
X129097000Y-134987500D01*
X125843000Y-134987500D01*
X124097000Y-134987500D01*
X122201510Y-134987500D01*
X122019982Y-135314931D01*
X50710000Y-135314931D01*
X50710000Y-133585069D01*
X122019982Y-133585069D01*
X122201510Y-133912500D01*
X124097000Y-133912500D01*
X124097000Y-132519469D01*
X125843000Y-132519469D01*
X125843000Y-133912500D01*
X129097000Y-133912500D01*
X129097000Y-132519469D01*
X130843000Y-132519469D01*
X130843000Y-133912500D01*
X132738490Y-133912500D01*
X132920018Y-133585069D01*
X132654208Y-133107584D01*
X132006576Y-132536550D01*
X131189717Y-132256821D01*
X130843000Y-132519469D01*
X129097000Y-132519469D01*
X128750283Y-132256821D01*
X127933424Y-132536550D01*
X127470000Y-132945163D01*
X127006576Y-132536550D01*
X126189717Y-132256821D01*
X125843000Y-132519469D01*
X124097000Y-132519469D01*
X123750283Y-132256821D01*
X122933424Y-132536550D01*
X122285792Y-133107584D01*
X122019982Y-133585069D01*
X50710000Y-133585069D01*
X50710000Y-128314931D01*
X122019982Y-128314931D01*
X122285792Y-128792416D01*
X122933424Y-129363450D01*
X123750283Y-129643179D01*
X124097000Y-129380531D01*
X124097000Y-127987500D01*
X125843000Y-127987500D01*
X125843000Y-129380531D01*
X126189717Y-129643179D01*
X127006576Y-129363450D01*
X127470000Y-128954837D01*
X127933424Y-129363450D01*
X128750283Y-129643179D01*
X129097000Y-129380531D01*
X129097000Y-127987500D01*
X130843000Y-127987500D01*
X130843000Y-129380531D01*
X131189717Y-129643179D01*
X132006576Y-129363450D01*
X132654208Y-128792416D01*
X132920018Y-128314931D01*
X132738490Y-127987500D01*
X130843000Y-127987500D01*
X129097000Y-127987500D01*
X125843000Y-127987500D01*
X124097000Y-127987500D01*
X122201510Y-127987500D01*
X122019982Y-128314931D01*
X50710000Y-128314931D01*
X50710000Y-126585069D01*
X122019982Y-126585069D01*
X122201510Y-126912500D01*
X124097000Y-126912500D01*
X124097000Y-126557000D01*
X125843000Y-126557000D01*
X125843000Y-126912500D01*
X129097000Y-126912500D01*
X129097000Y-126557000D01*
X130843000Y-126557000D01*
X130843000Y-126912500D01*
X132738490Y-126912500D01*
X132920018Y-126585069D01*
X132654208Y-126107584D01*
X132006576Y-125536550D01*
X131343139Y-125309360D01*
X131562209Y-125265784D01*
X132127841Y-124887841D01*
X132505784Y-124322209D01*
X132638500Y-123655000D01*
X132505784Y-122987791D01*
X132127841Y-122422159D01*
X131562209Y-122044216D01*
X131063416Y-121945000D01*
X128876584Y-121945000D01*
X128377791Y-122044216D01*
X127812159Y-122422159D01*
X127470000Y-122934236D01*
X127127841Y-122422159D01*
X126562209Y-122044216D01*
X126063416Y-121945000D01*
X123876584Y-121945000D01*
X123377791Y-122044216D01*
X122812159Y-122422159D01*
X122434216Y-122987791D01*
X122301500Y-123655000D01*
X122434216Y-124322209D01*
X122812159Y-124887841D01*
X123377791Y-125265784D01*
X123596861Y-125309360D01*
X122933424Y-125536550D01*
X122285792Y-126107584D01*
X122019982Y-126585069D01*
X50710000Y-126585069D01*
X50710000Y-118804931D01*
X59789982Y-118804931D01*
X60055792Y-119282416D01*
X60703424Y-119853450D01*
X61520283Y-120133179D01*
X61867000Y-119870531D01*
X61867000Y-118477500D01*
X63613000Y-118477500D01*
X63613000Y-119870531D01*
X63959717Y-120133179D01*
X64776576Y-119853450D01*
X65240000Y-119444837D01*
X65703424Y-119853450D01*
X66520283Y-120133179D01*
X66867000Y-119870531D01*
X66867000Y-118477500D01*
X68613000Y-118477500D01*
X68613000Y-119870531D01*
X68959717Y-120133179D01*
X69776576Y-119853450D01*
X70424208Y-119282416D01*
X70690018Y-118804931D01*
X70508490Y-118477500D01*
X68613000Y-118477500D01*
X66867000Y-118477500D01*
X63613000Y-118477500D01*
X61867000Y-118477500D01*
X59971510Y-118477500D01*
X59789982Y-118804931D01*
X50710000Y-118804931D01*
X50710000Y-117075069D01*
X59789982Y-117075069D01*
X59971510Y-117402500D01*
X61867000Y-117402500D01*
X61867000Y-116009469D01*
X63613000Y-116009469D01*
X63613000Y-117402500D01*
X66867000Y-117402500D01*
X66867000Y-116009469D01*
X68613000Y-116009469D01*
X68613000Y-117402500D01*
X70508490Y-117402500D01*
X70690018Y-117075069D01*
X70424208Y-116597584D01*
X69776576Y-116026550D01*
X68959717Y-115746821D01*
X68613000Y-116009469D01*
X66867000Y-116009469D01*
X66520283Y-115746821D01*
X65703424Y-116026550D01*
X65240000Y-116435163D01*
X64776576Y-116026550D01*
X63959717Y-115746821D01*
X63613000Y-116009469D01*
X61867000Y-116009469D01*
X61520283Y-115746821D01*
X60703424Y-116026550D01*
X60055792Y-116597584D01*
X59789982Y-117075069D01*
X50710000Y-117075069D01*
X50710000Y-113724931D01*
X122019982Y-113724931D01*
X122285792Y-114202416D01*
X122933424Y-114773450D01*
X123596861Y-115000640D01*
X123377791Y-115044216D01*
X122812159Y-115422159D01*
X122434216Y-115987791D01*
X122301500Y-116655000D01*
X122434216Y-117322209D01*
X122812159Y-117887841D01*
X123377791Y-118265784D01*
X123876584Y-118365000D01*
X126063416Y-118365000D01*
X126562209Y-118265784D01*
X127127841Y-117887841D01*
X127470000Y-117375764D01*
X127812159Y-117887841D01*
X128377791Y-118265784D01*
X128876584Y-118365000D01*
X131063416Y-118365000D01*
X131562209Y-118265784D01*
X132127841Y-117887841D01*
X132505784Y-117322209D01*
X132638500Y-116655000D01*
X132505784Y-115987791D01*
X132127841Y-115422159D01*
X131562209Y-115044216D01*
X131343139Y-115000640D01*
X132006576Y-114773450D01*
X132654208Y-114202416D01*
X132920018Y-113724931D01*
X132738490Y-113397500D01*
X130843000Y-113397500D01*
X130843000Y-113753000D01*
X129097000Y-113753000D01*
X129097000Y-113397500D01*
X125843000Y-113397500D01*
X125843000Y-113753000D01*
X124097000Y-113753000D01*
X124097000Y-113397500D01*
X122201510Y-113397500D01*
X122019982Y-113724931D01*
X50710000Y-113724931D01*
X50710000Y-111804931D01*
X59789982Y-111804931D01*
X60055792Y-112282416D01*
X60703424Y-112853450D01*
X61520283Y-113133179D01*
X61867000Y-112870531D01*
X61867000Y-111477500D01*
X63613000Y-111477500D01*
X63613000Y-112870531D01*
X63959717Y-113133179D01*
X64776576Y-112853450D01*
X65240000Y-112444837D01*
X65703424Y-112853450D01*
X66520283Y-113133179D01*
X66867000Y-112870531D01*
X66867000Y-111477500D01*
X68613000Y-111477500D01*
X68613000Y-112870531D01*
X68959717Y-113133179D01*
X69776576Y-112853450D01*
X70424208Y-112282416D01*
X70584170Y-111995069D01*
X122019982Y-111995069D01*
X122201510Y-112322500D01*
X124097000Y-112322500D01*
X124097000Y-110929469D01*
X125843000Y-110929469D01*
X125843000Y-112322500D01*
X129097000Y-112322500D01*
X129097000Y-110929469D01*
X130843000Y-110929469D01*
X130843000Y-112322500D01*
X132738490Y-112322500D01*
X132920018Y-111995069D01*
X132654208Y-111517584D01*
X132006576Y-110946550D01*
X131189717Y-110666821D01*
X130843000Y-110929469D01*
X129097000Y-110929469D01*
X128750283Y-110666821D01*
X127933424Y-110946550D01*
X127470000Y-111355163D01*
X127006576Y-110946550D01*
X126189717Y-110666821D01*
X125843000Y-110929469D01*
X124097000Y-110929469D01*
X123750283Y-110666821D01*
X122933424Y-110946550D01*
X122285792Y-111517584D01*
X122019982Y-111995069D01*
X70584170Y-111995069D01*
X70690018Y-111804931D01*
X70508490Y-111477500D01*
X68613000Y-111477500D01*
X66867000Y-111477500D01*
X63613000Y-111477500D01*
X61867000Y-111477500D01*
X59971510Y-111477500D01*
X59789982Y-111804931D01*
X50710000Y-111804931D01*
X50710000Y-110075069D01*
X59789982Y-110075069D01*
X59971510Y-110402500D01*
X61867000Y-110402500D01*
X61867000Y-109009469D01*
X63613000Y-109009469D01*
X63613000Y-110402500D01*
X66867000Y-110402500D01*
X66867000Y-109009469D01*
X68613000Y-109009469D01*
X68613000Y-110402500D01*
X70508490Y-110402500D01*
X70690018Y-110075069D01*
X70424208Y-109597584D01*
X69776576Y-109026550D01*
X68959717Y-108746821D01*
X68613000Y-109009469D01*
X66867000Y-109009469D01*
X66520283Y-108746821D01*
X65703424Y-109026550D01*
X65240000Y-109435163D01*
X64776576Y-109026550D01*
X63959717Y-108746821D01*
X63613000Y-109009469D01*
X61867000Y-109009469D01*
X61520283Y-108746821D01*
X60703424Y-109026550D01*
X60055792Y-109597584D01*
X59789982Y-110075069D01*
X50710000Y-110075069D01*
X50710000Y-106724931D01*
X122019982Y-106724931D01*
X122285792Y-107202416D01*
X122933424Y-107773450D01*
X123750283Y-108053179D01*
X124097000Y-107790531D01*
X124097000Y-106397500D01*
X125843000Y-106397500D01*
X125843000Y-107790531D01*
X126189717Y-108053179D01*
X127006576Y-107773450D01*
X127470000Y-107364837D01*
X127933424Y-107773450D01*
X128750283Y-108053179D01*
X129097000Y-107790531D01*
X129097000Y-106397500D01*
X130843000Y-106397500D01*
X130843000Y-107790531D01*
X131189717Y-108053179D01*
X132006576Y-107773450D01*
X132654208Y-107202416D01*
X132920018Y-106724931D01*
X132738490Y-106397500D01*
X130843000Y-106397500D01*
X129097000Y-106397500D01*
X125843000Y-106397500D01*
X124097000Y-106397500D01*
X122201510Y-106397500D01*
X122019982Y-106724931D01*
X50710000Y-106724931D01*
X50710000Y-104995069D01*
X122019982Y-104995069D01*
X122201510Y-105322500D01*
X124097000Y-105322500D01*
X124097000Y-104967000D01*
X125843000Y-104967000D01*
X125843000Y-105322500D01*
X129097000Y-105322500D01*
X129097000Y-104967000D01*
X130843000Y-104967000D01*
X130843000Y-105322500D01*
X132738490Y-105322500D01*
X132920018Y-104995069D01*
X132654208Y-104517584D01*
X132006576Y-103946550D01*
X131343139Y-103719360D01*
X131562209Y-103675784D01*
X132127841Y-103297841D01*
X132505784Y-102732209D01*
X132638500Y-102065000D01*
X132505784Y-101397791D01*
X132127841Y-100832159D01*
X131562209Y-100454216D01*
X131063416Y-100355000D01*
X128876584Y-100355000D01*
X128377791Y-100454216D01*
X127812159Y-100832159D01*
X127470000Y-101344236D01*
X127127841Y-100832159D01*
X126562209Y-100454216D01*
X126063416Y-100355000D01*
X123876584Y-100355000D01*
X123377791Y-100454216D01*
X122812159Y-100832159D01*
X122434216Y-101397791D01*
X122301500Y-102065000D01*
X122434216Y-102732209D01*
X122812159Y-103297841D01*
X123377791Y-103675784D01*
X123596861Y-103719360D01*
X122933424Y-103946550D01*
X122285792Y-104517584D01*
X122019982Y-104995069D01*
X50710000Y-104995069D01*
X50710000Y-95080000D01*
X60071500Y-95080000D01*
X60204216Y-95747209D01*
X60582159Y-96312841D01*
X61147791Y-96690784D01*
X61646584Y-96790000D01*
X63833416Y-96790000D01*
X64332209Y-96690784D01*
X64897841Y-96312841D01*
X65240000Y-95800764D01*
X65582159Y-96312841D01*
X66147791Y-96690784D01*
X66646584Y-96790000D01*
X68833416Y-96790000D01*
X69332209Y-96690784D01*
X69897841Y-96312841D01*
X70275784Y-95747209D01*
X70408500Y-95080000D01*
X70275784Y-94412791D01*
X69897841Y-93847159D01*
X69332209Y-93469216D01*
X68833416Y-93370000D01*
X66646584Y-93370000D01*
X66147791Y-93469216D01*
X65582159Y-93847159D01*
X65240000Y-94359236D01*
X64897841Y-93847159D01*
X64332209Y-93469216D01*
X63833416Y-93370000D01*
X61646584Y-93370000D01*
X61147791Y-93469216D01*
X60582159Y-93847159D01*
X60204216Y-94412791D01*
X60071500Y-95080000D01*
X50710000Y-95080000D01*
X50710000Y-92134931D01*
X122019982Y-92134931D01*
X122285792Y-92612416D01*
X122933424Y-93183450D01*
X123596861Y-93410640D01*
X123377791Y-93454216D01*
X122812159Y-93832159D01*
X122434216Y-94397791D01*
X122301500Y-95065000D01*
X122434216Y-95732209D01*
X122812159Y-96297841D01*
X123377791Y-96675784D01*
X123876584Y-96775000D01*
X126063416Y-96775000D01*
X126562209Y-96675784D01*
X127127841Y-96297841D01*
X127470000Y-95785764D01*
X127812159Y-96297841D01*
X128377791Y-96675784D01*
X128876584Y-96775000D01*
X131063416Y-96775000D01*
X131562209Y-96675784D01*
X132127841Y-96297841D01*
X132505784Y-95732209D01*
X132638500Y-95065000D01*
X132505784Y-94397791D01*
X132127841Y-93832159D01*
X131562209Y-93454216D01*
X131343139Y-93410640D01*
X132006576Y-93183450D01*
X132654208Y-92612416D01*
X132920018Y-92134931D01*
X132738490Y-91807500D01*
X130843000Y-91807500D01*
X130843000Y-92163000D01*
X129097000Y-92163000D01*
X129097000Y-91807500D01*
X125843000Y-91807500D01*
X125843000Y-92163000D01*
X124097000Y-92163000D01*
X124097000Y-91807500D01*
X122201510Y-91807500D01*
X122019982Y-92134931D01*
X50710000Y-92134931D01*
X50710000Y-90405069D01*
X122019982Y-90405069D01*
X122201510Y-90732500D01*
X124097000Y-90732500D01*
X124097000Y-89339469D01*
X125843000Y-89339469D01*
X125843000Y-90732500D01*
X129097000Y-90732500D01*
X129097000Y-89339469D01*
X130843000Y-89339469D01*
X130843000Y-90732500D01*
X132738490Y-90732500D01*
X132920018Y-90405069D01*
X132654208Y-89927584D01*
X132006576Y-89356550D01*
X131189717Y-89076821D01*
X130843000Y-89339469D01*
X129097000Y-89339469D01*
X128750283Y-89076821D01*
X127933424Y-89356550D01*
X127470000Y-89765163D01*
X127006576Y-89356550D01*
X126189717Y-89076821D01*
X125843000Y-89339469D01*
X124097000Y-89339469D01*
X123750283Y-89076821D01*
X122933424Y-89356550D01*
X122285792Y-89927584D01*
X122019982Y-90405069D01*
X50710000Y-90405069D01*
X50710000Y-88080000D01*
X60071500Y-88080000D01*
X60204216Y-88747209D01*
X60582159Y-89312841D01*
X61147791Y-89690784D01*
X61646584Y-89790000D01*
X63833416Y-89790000D01*
X64332209Y-89690784D01*
X64897841Y-89312841D01*
X65240000Y-88800764D01*
X65582159Y-89312841D01*
X66147791Y-89690784D01*
X66646584Y-89790000D01*
X68833416Y-89790000D01*
X69332209Y-89690784D01*
X69897841Y-89312841D01*
X70275784Y-88747209D01*
X70408500Y-88080000D01*
X70275784Y-87412791D01*
X69897841Y-86847159D01*
X69332209Y-86469216D01*
X68833416Y-86370000D01*
X66646584Y-86370000D01*
X66147791Y-86469216D01*
X65582159Y-86847159D01*
X65240000Y-87359236D01*
X64897841Y-86847159D01*
X64332209Y-86469216D01*
X63833416Y-86370000D01*
X61646584Y-86370000D01*
X61147791Y-86469216D01*
X60582159Y-86847159D01*
X60204216Y-87412791D01*
X60071500Y-88080000D01*
X50710000Y-88080000D01*
X50710000Y-85134931D01*
X122019982Y-85134931D01*
X122285792Y-85612416D01*
X122933424Y-86183450D01*
X123750283Y-86463179D01*
X124097000Y-86200531D01*
X124097000Y-84807500D01*
X125843000Y-84807500D01*
X125843000Y-86200531D01*
X126189717Y-86463179D01*
X127006576Y-86183450D01*
X127470000Y-85774837D01*
X127933424Y-86183450D01*
X128750283Y-86463179D01*
X129097000Y-86200531D01*
X129097000Y-84807500D01*
X130843000Y-84807500D01*
X130843000Y-86200531D01*
X131189717Y-86463179D01*
X132006576Y-86183450D01*
X132654208Y-85612416D01*
X132920018Y-85134931D01*
X132738490Y-84807500D01*
X130843000Y-84807500D01*
X129097000Y-84807500D01*
X125843000Y-84807500D01*
X124097000Y-84807500D01*
X122201510Y-84807500D01*
X122019982Y-85134931D01*
X50710000Y-85134931D01*
X50710000Y-83405069D01*
X122019982Y-83405069D01*
X122201510Y-83732500D01*
X124097000Y-83732500D01*
X124097000Y-83377000D01*
X125843000Y-83377000D01*
X125843000Y-83732500D01*
X129097000Y-83732500D01*
X129097000Y-83377000D01*
X130843000Y-83377000D01*
X130843000Y-83732500D01*
X132738490Y-83732500D01*
X132920018Y-83405069D01*
X132654208Y-82927584D01*
X132006576Y-82356550D01*
X131343139Y-82129360D01*
X131562209Y-82085784D01*
X132127841Y-81707841D01*
X132505784Y-81142209D01*
X132638500Y-80475000D01*
X132505784Y-79807791D01*
X132127841Y-79242159D01*
X131562209Y-78864216D01*
X131063416Y-78765000D01*
X128876584Y-78765000D01*
X128377791Y-78864216D01*
X127812159Y-79242159D01*
X127470000Y-79754236D01*
X127127841Y-79242159D01*
X126562209Y-78864216D01*
X126063416Y-78765000D01*
X123876584Y-78765000D01*
X123377791Y-78864216D01*
X122812159Y-79242159D01*
X122434216Y-79807791D01*
X122301500Y-80475000D01*
X122434216Y-81142209D01*
X122812159Y-81707841D01*
X123377791Y-82085784D01*
X123596861Y-82129360D01*
X122933424Y-82356550D01*
X122285792Y-82927584D01*
X122019982Y-83405069D01*
X50710000Y-83405069D01*
X50710000Y-73475000D01*
X122301500Y-73475000D01*
X122434216Y-74142209D01*
X122812159Y-74707841D01*
X123377791Y-75085784D01*
X123876584Y-75185000D01*
X126063416Y-75185000D01*
X126562209Y-75085784D01*
X127127841Y-74707841D01*
X127470000Y-74195764D01*
X127812159Y-74707841D01*
X128377791Y-75085784D01*
X128876584Y-75185000D01*
X131063416Y-75185000D01*
X131562209Y-75085784D01*
X132127841Y-74707841D01*
X132505784Y-74142209D01*
X132638500Y-73475000D01*
X132505784Y-72807791D01*
X132127841Y-72242159D01*
X132036235Y-72180950D01*
X133506183Y-71929052D01*
X133713226Y-71843291D01*
X134089368Y-71323977D01*
X132000000Y-69234608D01*
X129910632Y-71323977D01*
X130230067Y-71765000D01*
X128876584Y-71765000D01*
X128377791Y-71864216D01*
X127812159Y-72242159D01*
X127470000Y-72754236D01*
X127127841Y-72242159D01*
X126562209Y-71864216D01*
X126063416Y-71765000D01*
X123876584Y-71765000D01*
X123377791Y-71864216D01*
X122812159Y-72242159D01*
X122434216Y-72807791D01*
X122301500Y-73475000D01*
X50710000Y-73475000D01*
X50710000Y-71323977D01*
X57910632Y-71323977D01*
X58286774Y-71843291D01*
X59887948Y-72206361D01*
X61506183Y-71929052D01*
X61713226Y-71843291D01*
X62089368Y-71323977D01*
X60000000Y-69234608D01*
X57910632Y-71323977D01*
X50710000Y-71323977D01*
X50710000Y-70294090D01*
X53116142Y-67887948D01*
X55793639Y-67887948D01*
X56070948Y-69506183D01*
X56156709Y-69713226D01*
X56676023Y-70089368D01*
X58765392Y-68000000D01*
X61234608Y-68000000D01*
X63323977Y-70089368D01*
X63843291Y-69713226D01*
X64206361Y-68112052D01*
X64167958Y-67887948D01*
X127793639Y-67887948D01*
X128070948Y-69506183D01*
X128156709Y-69713226D01*
X128676023Y-70089368D01*
X130765392Y-68000000D01*
X133234608Y-68000000D01*
X135323977Y-70089368D01*
X135843291Y-69713226D01*
X136206361Y-68112052D01*
X135929052Y-66493817D01*
X135843291Y-66286774D01*
X135323977Y-65910632D01*
X133234608Y-68000000D01*
X130765392Y-68000000D01*
X128676023Y-65910632D01*
X128156709Y-66286774D01*
X127793639Y-67887948D01*
X64167958Y-67887948D01*
X63929052Y-66493817D01*
X63843291Y-66286774D01*
X63323977Y-65910632D01*
X61234608Y-68000000D01*
X58765392Y-68000000D01*
X56676023Y-65910632D01*
X56156709Y-66286774D01*
X55793639Y-67887948D01*
X53116142Y-67887948D01*
X56328067Y-64676023D01*
X57910632Y-64676023D01*
X60000000Y-66765392D01*
X62089368Y-64676023D01*
X129910632Y-64676023D01*
X132000000Y-66765392D01*
X134089368Y-64676023D01*
X133713226Y-64156709D01*
X132112052Y-63793639D01*
X130493817Y-64070948D01*
X130286774Y-64156709D01*
X129910632Y-64676023D01*
X62089368Y-64676023D01*
X61713226Y-64156709D01*
X60112052Y-63793639D01*
X58493817Y-64070948D01*
X58286774Y-64156709D01*
X57910632Y-64676023D01*
X56328067Y-64676023D01*
X62294092Y-58710000D01*
X129705910Y-58710000D01*
X141290000Y-70294092D01*
X141290000Y-70294092D01*
G37*
X141290000Y-70294092D02*
X141290001Y-137705907D01*
X129705910Y-149290000D01*
X62294092Y-149290000D01*
X56328069Y-143323977D01*
X57910632Y-143323977D01*
X58286774Y-143843291D01*
X59887948Y-144206361D01*
X61506183Y-143929052D01*
X61713226Y-143843291D01*
X62089368Y-143323977D01*
X129910632Y-143323977D01*
X130286774Y-143843291D01*
X131887948Y-144206361D01*
X133506183Y-143929052D01*
X133713226Y-143843291D01*
X134089368Y-143323977D01*
X132000000Y-141234608D01*
X129910632Y-143323977D01*
X62089368Y-143323977D01*
X60000000Y-141234608D01*
X57910632Y-143323977D01*
X56328069Y-143323977D01*
X52892039Y-139887948D01*
X55793639Y-139887948D01*
X56070948Y-141506183D01*
X56156709Y-141713226D01*
X56676023Y-142089368D01*
X58765392Y-140000000D01*
X61234608Y-140000000D01*
X63323977Y-142089368D01*
X63843291Y-141713226D01*
X64206361Y-140112052D01*
X64167958Y-139887948D01*
X127793639Y-139887948D01*
X128070948Y-141506183D01*
X128156709Y-141713226D01*
X128676023Y-142089368D01*
X130765392Y-140000000D01*
X133234608Y-140000000D01*
X135323977Y-142089368D01*
X135843291Y-141713226D01*
X136206361Y-140112052D01*
X135929052Y-138493817D01*
X135843291Y-138286774D01*
X135323977Y-137910632D01*
X133234608Y-140000000D01*
X130765392Y-140000000D01*
X128676023Y-137910632D01*
X128156709Y-138286774D01*
X127793639Y-139887948D01*
X64167958Y-139887948D01*
X63929052Y-138493817D01*
X63843291Y-138286774D01*
X63323977Y-137910632D01*
X61234608Y-140000000D01*
X58765392Y-140000000D01*
X56676023Y-137910632D01*
X56156709Y-138286774D01*
X55793639Y-139887948D01*
X52892039Y-139887948D01*
X50710000Y-137705910D01*
X50710000Y-136676023D01*
X57910632Y-136676023D01*
X60000000Y-138765392D01*
X62089368Y-136676023D01*
X61713226Y-136156709D01*
X60112052Y-135793639D01*
X58493817Y-136070948D01*
X58286774Y-136156709D01*
X57910632Y-136676023D01*
X50710000Y-136676023D01*
X50710000Y-135314931D01*
X122019982Y-135314931D01*
X122285792Y-135792416D01*
X122933424Y-136363450D01*
X123750283Y-136643179D01*
X124097000Y-136380531D01*
X124097000Y-134987500D01*
X125843000Y-134987500D01*
X125843000Y-136380531D01*
X126189717Y-136643179D01*
X127006576Y-136363450D01*
X127470000Y-135954837D01*
X127933424Y-136363450D01*
X128750283Y-136643179D01*
X129096998Y-136380533D01*
X129096998Y-136652000D01*
X129928032Y-136652000D01*
X129910632Y-136676023D01*
X132000000Y-138765392D01*
X134089368Y-136676023D01*
X133713226Y-136156709D01*
X132542200Y-135891176D01*
X132654208Y-135792416D01*
X132920018Y-135314931D01*
X132738490Y-134987500D01*
X130843000Y-134987500D01*
X130843000Y-135343000D01*
X129097000Y-135343000D01*
X129097000Y-134987500D01*
X125843000Y-134987500D01*
X124097000Y-134987500D01*
X122201510Y-134987500D01*
X122019982Y-135314931D01*
X50710000Y-135314931D01*
X50710000Y-133585069D01*
X122019982Y-133585069D01*
X122201510Y-133912500D01*
X124097000Y-133912500D01*
X124097000Y-132519469D01*
X125843000Y-132519469D01*
X125843000Y-133912500D01*
X129097000Y-133912500D01*
X129097000Y-132519469D01*
X130843000Y-132519469D01*
X130843000Y-133912500D01*
X132738490Y-133912500D01*
X132920018Y-133585069D01*
X132654208Y-133107584D01*
X132006576Y-132536550D01*
X131189717Y-132256821D01*
X130843000Y-132519469D01*
X129097000Y-132519469D01*
X128750283Y-132256821D01*
X127933424Y-132536550D01*
X127470000Y-132945163D01*
X127006576Y-132536550D01*
X126189717Y-132256821D01*
X125843000Y-132519469D01*
X124097000Y-132519469D01*
X123750283Y-132256821D01*
X122933424Y-132536550D01*
X122285792Y-133107584D01*
X122019982Y-133585069D01*
X50710000Y-133585069D01*
X50710000Y-128314931D01*
X122019982Y-128314931D01*
X122285792Y-128792416D01*
X122933424Y-129363450D01*
X123750283Y-129643179D01*
X124097000Y-129380531D01*
X124097000Y-127987500D01*
X125843000Y-127987500D01*
X125843000Y-129380531D01*
X126189717Y-129643179D01*
X127006576Y-129363450D01*
X127470000Y-128954837D01*
X127933424Y-129363450D01*
X128750283Y-129643179D01*
X129097000Y-129380531D01*
X129097000Y-127987500D01*
X130843000Y-127987500D01*
X130843000Y-129380531D01*
X131189717Y-129643179D01*
X132006576Y-129363450D01*
X132654208Y-128792416D01*
X132920018Y-128314931D01*
X132738490Y-127987500D01*
X130843000Y-127987500D01*
X129097000Y-127987500D01*
X125843000Y-127987500D01*
X124097000Y-127987500D01*
X122201510Y-127987500D01*
X122019982Y-128314931D01*
X50710000Y-128314931D01*
X50710000Y-126585069D01*
X122019982Y-126585069D01*
X122201510Y-126912500D01*
X124097000Y-126912500D01*
X124097000Y-126557000D01*
X125843000Y-126557000D01*
X125843000Y-126912500D01*
X129097000Y-126912500D01*
X129097000Y-126557000D01*
X130843000Y-126557000D01*
X130843000Y-126912500D01*
X132738490Y-126912500D01*
X132920018Y-126585069D01*
X132654208Y-126107584D01*
X132006576Y-125536550D01*
X131343139Y-125309360D01*
X131562209Y-125265784D01*
X132127841Y-124887841D01*
X132505784Y-124322209D01*
X132638500Y-123655000D01*
X132505784Y-122987791D01*
X132127841Y-122422159D01*
X131562209Y-122044216D01*
X131063416Y-121945000D01*
X128876584Y-121945000D01*
X128377791Y-122044216D01*
X127812159Y-122422159D01*
X127470000Y-122934236D01*
X127127841Y-122422159D01*
X126562209Y-122044216D01*
X126063416Y-121945000D01*
X123876584Y-121945000D01*
X123377791Y-122044216D01*
X122812159Y-122422159D01*
X122434216Y-122987791D01*
X122301500Y-123655000D01*
X122434216Y-124322209D01*
X122812159Y-124887841D01*
X123377791Y-125265784D01*
X123596861Y-125309360D01*
X122933424Y-125536550D01*
X122285792Y-126107584D01*
X122019982Y-126585069D01*
X50710000Y-126585069D01*
X50710000Y-118804931D01*
X59789982Y-118804931D01*
X60055792Y-119282416D01*
X60703424Y-119853450D01*
X61520283Y-120133179D01*
X61867000Y-119870531D01*
X61867000Y-118477500D01*
X63613000Y-118477500D01*
X63613000Y-119870531D01*
X63959717Y-120133179D01*
X64776576Y-119853450D01*
X65240000Y-119444837D01*
X65703424Y-119853450D01*
X66520283Y-120133179D01*
X66867000Y-119870531D01*
X66867000Y-118477500D01*
X68613000Y-118477500D01*
X68613000Y-119870531D01*
X68959717Y-120133179D01*
X69776576Y-119853450D01*
X70424208Y-119282416D01*
X70690018Y-118804931D01*
X70508490Y-118477500D01*
X68613000Y-118477500D01*
X66867000Y-118477500D01*
X63613000Y-118477500D01*
X61867000Y-118477500D01*
X59971510Y-118477500D01*
X59789982Y-118804931D01*
X50710000Y-118804931D01*
X50710000Y-117075069D01*
X59789982Y-117075069D01*
X59971510Y-117402500D01*
X61867000Y-117402500D01*
X61867000Y-116009469D01*
X63613000Y-116009469D01*
X63613000Y-117402500D01*
X66867000Y-117402500D01*
X66867000Y-116009469D01*
X68613000Y-116009469D01*
X68613000Y-117402500D01*
X70508490Y-117402500D01*
X70690018Y-117075069D01*
X70424208Y-116597584D01*
X69776576Y-116026550D01*
X68959717Y-115746821D01*
X68613000Y-116009469D01*
X66867000Y-116009469D01*
X66520283Y-115746821D01*
X65703424Y-116026550D01*
X65240000Y-116435163D01*
X64776576Y-116026550D01*
X63959717Y-115746821D01*
X63613000Y-116009469D01*
X61867000Y-116009469D01*
X61520283Y-115746821D01*
X60703424Y-116026550D01*
X60055792Y-116597584D01*
X59789982Y-117075069D01*
X50710000Y-117075069D01*
X50710000Y-113724931D01*
X122019982Y-113724931D01*
X122285792Y-114202416D01*
X122933424Y-114773450D01*
X123596861Y-115000640D01*
X123377791Y-115044216D01*
X122812159Y-115422159D01*
X122434216Y-115987791D01*
X122301500Y-116655000D01*
X122434216Y-117322209D01*
X122812159Y-117887841D01*
X123377791Y-118265784D01*
X123876584Y-118365000D01*
X126063416Y-118365000D01*
X126562209Y-118265784D01*
X127127841Y-117887841D01*
X127470000Y-117375764D01*
X127812159Y-117887841D01*
X128377791Y-118265784D01*
X128876584Y-118365000D01*
X131063416Y-118365000D01*
X131562209Y-118265784D01*
X132127841Y-117887841D01*
X132505784Y-117322209D01*
X132638500Y-116655000D01*
X132505784Y-115987791D01*
X132127841Y-115422159D01*
X131562209Y-115044216D01*
X131343139Y-115000640D01*
X132006576Y-114773450D01*
X132654208Y-114202416D01*
X132920018Y-113724931D01*
X132738490Y-113397500D01*
X130843000Y-113397500D01*
X130843000Y-113753000D01*
X129097000Y-113753000D01*
X129097000Y-113397500D01*
X125843000Y-113397500D01*
X125843000Y-113753000D01*
X124097000Y-113753000D01*
X124097000Y-113397500D01*
X122201510Y-113397500D01*
X122019982Y-113724931D01*
X50710000Y-113724931D01*
X50710000Y-111804931D01*
X59789982Y-111804931D01*
X60055792Y-112282416D01*
X60703424Y-112853450D01*
X61520283Y-113133179D01*
X61867000Y-112870531D01*
X61867000Y-111477500D01*
X63613000Y-111477500D01*
X63613000Y-112870531D01*
X63959717Y-113133179D01*
X64776576Y-112853450D01*
X65240000Y-112444837D01*
X65703424Y-112853450D01*
X66520283Y-113133179D01*
X66867000Y-112870531D01*
X66867000Y-111477500D01*
X68613000Y-111477500D01*
X68613000Y-112870531D01*
X68959717Y-113133179D01*
X69776576Y-112853450D01*
X70424208Y-112282416D01*
X70584170Y-111995069D01*
X122019982Y-111995069D01*
X122201510Y-112322500D01*
X124097000Y-112322500D01*
X124097000Y-110929469D01*
X125843000Y-110929469D01*
X125843000Y-112322500D01*
X129097000Y-112322500D01*
X129097000Y-110929469D01*
X130843000Y-110929469D01*
X130843000Y-112322500D01*
X132738490Y-112322500D01*
X132920018Y-111995069D01*
X132654208Y-111517584D01*
X132006576Y-110946550D01*
X131189717Y-110666821D01*
X130843000Y-110929469D01*
X129097000Y-110929469D01*
X128750283Y-110666821D01*
X127933424Y-110946550D01*
X127470000Y-111355163D01*
X127006576Y-110946550D01*
X126189717Y-110666821D01*
X125843000Y-110929469D01*
X124097000Y-110929469D01*
X123750283Y-110666821D01*
X122933424Y-110946550D01*
X122285792Y-111517584D01*
X122019982Y-111995069D01*
X70584170Y-111995069D01*
X70690018Y-111804931D01*
X70508490Y-111477500D01*
X68613000Y-111477500D01*
X66867000Y-111477500D01*
X63613000Y-111477500D01*
X61867000Y-111477500D01*
X59971510Y-111477500D01*
X59789982Y-111804931D01*
X50710000Y-111804931D01*
X50710000Y-110075069D01*
X59789982Y-110075069D01*
X59971510Y-110402500D01*
X61867000Y-110402500D01*
X61867000Y-109009469D01*
X63613000Y-109009469D01*
X63613000Y-110402500D01*
X66867000Y-110402500D01*
X66867000Y-109009469D01*
X68613000Y-109009469D01*
X68613000Y-110402500D01*
X70508490Y-110402500D01*
X70690018Y-110075069D01*
X70424208Y-109597584D01*
X69776576Y-109026550D01*
X68959717Y-108746821D01*
X68613000Y-109009469D01*
X66867000Y-109009469D01*
X66520283Y-108746821D01*
X65703424Y-109026550D01*
X65240000Y-109435163D01*
X64776576Y-109026550D01*
X63959717Y-108746821D01*
X63613000Y-109009469D01*
X61867000Y-109009469D01*
X61520283Y-108746821D01*
X60703424Y-109026550D01*
X60055792Y-109597584D01*
X59789982Y-110075069D01*
X50710000Y-110075069D01*
X50710000Y-106724931D01*
X122019982Y-106724931D01*
X122285792Y-107202416D01*
X122933424Y-107773450D01*
X123750283Y-108053179D01*
X124097000Y-107790531D01*
X124097000Y-106397500D01*
X125843000Y-106397500D01*
X125843000Y-107790531D01*
X126189717Y-108053179D01*
X127006576Y-107773450D01*
X127470000Y-107364837D01*
X127933424Y-107773450D01*
X128750283Y-108053179D01*
X129097000Y-107790531D01*
X129097000Y-106397500D01*
X130843000Y-106397500D01*
X130843000Y-107790531D01*
X131189717Y-108053179D01*
X132006576Y-107773450D01*
X132654208Y-107202416D01*
X132920018Y-106724931D01*
X132738490Y-106397500D01*
X130843000Y-106397500D01*
X129097000Y-106397500D01*
X125843000Y-106397500D01*
X124097000Y-106397500D01*
X122201510Y-106397500D01*
X122019982Y-106724931D01*
X50710000Y-106724931D01*
X50710000Y-104995069D01*
X122019982Y-104995069D01*
X122201510Y-105322500D01*
X124097000Y-105322500D01*
X124097000Y-104967000D01*
X125843000Y-104967000D01*
X125843000Y-105322500D01*
X129097000Y-105322500D01*
X129097000Y-104967000D01*
X130843000Y-104967000D01*
X130843000Y-105322500D01*
X132738490Y-105322500D01*
X132920018Y-104995069D01*
X132654208Y-104517584D01*
X132006576Y-103946550D01*
X131343139Y-103719360D01*
X131562209Y-103675784D01*
X132127841Y-103297841D01*
X132505784Y-102732209D01*
X132638500Y-102065000D01*
X132505784Y-101397791D01*
X132127841Y-100832159D01*
X131562209Y-100454216D01*
X131063416Y-100355000D01*
X128876584Y-100355000D01*
X128377791Y-100454216D01*
X127812159Y-100832159D01*
X127470000Y-101344236D01*
X127127841Y-100832159D01*
X126562209Y-100454216D01*
X126063416Y-100355000D01*
X123876584Y-100355000D01*
X123377791Y-100454216D01*
X122812159Y-100832159D01*
X122434216Y-101397791D01*
X122301500Y-102065000D01*
X122434216Y-102732209D01*
X122812159Y-103297841D01*
X123377791Y-103675784D01*
X123596861Y-103719360D01*
X122933424Y-103946550D01*
X122285792Y-104517584D01*
X122019982Y-104995069D01*
X50710000Y-104995069D01*
X50710000Y-95080000D01*
X60071500Y-95080000D01*
X60204216Y-95747209D01*
X60582159Y-96312841D01*
X61147791Y-96690784D01*
X61646584Y-96790000D01*
X63833416Y-96790000D01*
X64332209Y-96690784D01*
X64897841Y-96312841D01*
X65240000Y-95800764D01*
X65582159Y-96312841D01*
X66147791Y-96690784D01*
X66646584Y-96790000D01*
X68833416Y-96790000D01*
X69332209Y-96690784D01*
X69897841Y-96312841D01*
X70275784Y-95747209D01*
X70408500Y-95080000D01*
X70275784Y-94412791D01*
X69897841Y-93847159D01*
X69332209Y-93469216D01*
X68833416Y-93370000D01*
X66646584Y-93370000D01*
X66147791Y-93469216D01*
X65582159Y-93847159D01*
X65240000Y-94359236D01*
X64897841Y-93847159D01*
X64332209Y-93469216D01*
X63833416Y-93370000D01*
X61646584Y-93370000D01*
X61147791Y-93469216D01*
X60582159Y-93847159D01*
X60204216Y-94412791D01*
X60071500Y-95080000D01*
X50710000Y-95080000D01*
X50710000Y-92134931D01*
X122019982Y-92134931D01*
X122285792Y-92612416D01*
X122933424Y-93183450D01*
X123596861Y-93410640D01*
X123377791Y-93454216D01*
X122812159Y-93832159D01*
X122434216Y-94397791D01*
X122301500Y-95065000D01*
X122434216Y-95732209D01*
X122812159Y-96297841D01*
X123377791Y-96675784D01*
X123876584Y-96775000D01*
X126063416Y-96775000D01*
X126562209Y-96675784D01*
X127127841Y-96297841D01*
X127470000Y-95785764D01*
X127812159Y-96297841D01*
X128377791Y-96675784D01*
X128876584Y-96775000D01*
X131063416Y-96775000D01*
X131562209Y-96675784D01*
X132127841Y-96297841D01*
X132505784Y-95732209D01*
X132638500Y-95065000D01*
X132505784Y-94397791D01*
X132127841Y-93832159D01*
X131562209Y-93454216D01*
X131343139Y-93410640D01*
X132006576Y-93183450D01*
X132654208Y-92612416D01*
X132920018Y-92134931D01*
X132738490Y-91807500D01*
X130843000Y-91807500D01*
X130843000Y-92163000D01*
X129097000Y-92163000D01*
X129097000Y-91807500D01*
X125843000Y-91807500D01*
X125843000Y-92163000D01*
X124097000Y-92163000D01*
X124097000Y-91807500D01*
X122201510Y-91807500D01*
X122019982Y-92134931D01*
X50710000Y-92134931D01*
X50710000Y-90405069D01*
X122019982Y-90405069D01*
X122201510Y-90732500D01*
X124097000Y-90732500D01*
X124097000Y-89339469D01*
X125843000Y-89339469D01*
X125843000Y-90732500D01*
X129097000Y-90732500D01*
X129097000Y-89339469D01*
X130843000Y-89339469D01*
X130843000Y-90732500D01*
X132738490Y-90732500D01*
X132920018Y-90405069D01*
X132654208Y-89927584D01*
X132006576Y-89356550D01*
X131189717Y-89076821D01*
X130843000Y-89339469D01*
X129097000Y-89339469D01*
X128750283Y-89076821D01*
X127933424Y-89356550D01*
X127470000Y-89765163D01*
X127006576Y-89356550D01*
X126189717Y-89076821D01*
X125843000Y-89339469D01*
X124097000Y-89339469D01*
X123750283Y-89076821D01*
X122933424Y-89356550D01*
X122285792Y-89927584D01*
X122019982Y-90405069D01*
X50710000Y-90405069D01*
X50710000Y-88080000D01*
X60071500Y-88080000D01*
X60204216Y-88747209D01*
X60582159Y-89312841D01*
X61147791Y-89690784D01*
X61646584Y-89790000D01*
X63833416Y-89790000D01*
X64332209Y-89690784D01*
X64897841Y-89312841D01*
X65240000Y-88800764D01*
X65582159Y-89312841D01*
X66147791Y-89690784D01*
X66646584Y-89790000D01*
X68833416Y-89790000D01*
X69332209Y-89690784D01*
X69897841Y-89312841D01*
X70275784Y-88747209D01*
X70408500Y-88080000D01*
X70275784Y-87412791D01*
X69897841Y-86847159D01*
X69332209Y-86469216D01*
X68833416Y-86370000D01*
X66646584Y-86370000D01*
X66147791Y-86469216D01*
X65582159Y-86847159D01*
X65240000Y-87359236D01*
X64897841Y-86847159D01*
X64332209Y-86469216D01*
X63833416Y-86370000D01*
X61646584Y-86370000D01*
X61147791Y-86469216D01*
X60582159Y-86847159D01*
X60204216Y-87412791D01*
X60071500Y-88080000D01*
X50710000Y-88080000D01*
X50710000Y-85134931D01*
X122019982Y-85134931D01*
X122285792Y-85612416D01*
X122933424Y-86183450D01*
X123750283Y-86463179D01*
X124097000Y-86200531D01*
X124097000Y-84807500D01*
X125843000Y-84807500D01*
X125843000Y-86200531D01*
X126189717Y-86463179D01*
X127006576Y-86183450D01*
X127470000Y-85774837D01*
X127933424Y-86183450D01*
X128750283Y-86463179D01*
X129097000Y-86200531D01*
X129097000Y-84807500D01*
X130843000Y-84807500D01*
X130843000Y-86200531D01*
X131189717Y-86463179D01*
X132006576Y-86183450D01*
X132654208Y-85612416D01*
X132920018Y-85134931D01*
X132738490Y-84807500D01*
X130843000Y-84807500D01*
X129097000Y-84807500D01*
X125843000Y-84807500D01*
X124097000Y-84807500D01*
X122201510Y-84807500D01*
X122019982Y-85134931D01*
X50710000Y-85134931D01*
X50710000Y-83405069D01*
X122019982Y-83405069D01*
X122201510Y-83732500D01*
X124097000Y-83732500D01*
X124097000Y-83377000D01*
X125843000Y-83377000D01*
X125843000Y-83732500D01*
X129097000Y-83732500D01*
X129097000Y-83377000D01*
X130843000Y-83377000D01*
X130843000Y-83732500D01*
X132738490Y-83732500D01*
X132920018Y-83405069D01*
X132654208Y-82927584D01*
X132006576Y-82356550D01*
X131343139Y-82129360D01*
X131562209Y-82085784D01*
X132127841Y-81707841D01*
X132505784Y-81142209D01*
X132638500Y-80475000D01*
X132505784Y-79807791D01*
X132127841Y-79242159D01*
X131562209Y-78864216D01*
X131063416Y-78765000D01*
X128876584Y-78765000D01*
X128377791Y-78864216D01*
X127812159Y-79242159D01*
X127470000Y-79754236D01*
X127127841Y-79242159D01*
X126562209Y-78864216D01*
X126063416Y-78765000D01*
X123876584Y-78765000D01*
X123377791Y-78864216D01*
X122812159Y-79242159D01*
X122434216Y-79807791D01*
X122301500Y-80475000D01*
X122434216Y-81142209D01*
X122812159Y-81707841D01*
X123377791Y-82085784D01*
X123596861Y-82129360D01*
X122933424Y-82356550D01*
X122285792Y-82927584D01*
X122019982Y-83405069D01*
X50710000Y-83405069D01*
X50710000Y-73475000D01*
X122301500Y-73475000D01*
X122434216Y-74142209D01*
X122812159Y-74707841D01*
X123377791Y-75085784D01*
X123876584Y-75185000D01*
X126063416Y-75185000D01*
X126562209Y-75085784D01*
X127127841Y-74707841D01*
X127470000Y-74195764D01*
X127812159Y-74707841D01*
X128377791Y-75085784D01*
X128876584Y-75185000D01*
X131063416Y-75185000D01*
X131562209Y-75085784D01*
X132127841Y-74707841D01*
X132505784Y-74142209D01*
X132638500Y-73475000D01*
X132505784Y-72807791D01*
X132127841Y-72242159D01*
X132036235Y-72180950D01*
X133506183Y-71929052D01*
X133713226Y-71843291D01*
X134089368Y-71323977D01*
X132000000Y-69234608D01*
X129910632Y-71323977D01*
X130230067Y-71765000D01*
X128876584Y-71765000D01*
X128377791Y-71864216D01*
X127812159Y-72242159D01*
X127470000Y-72754236D01*
X127127841Y-72242159D01*
X126562209Y-71864216D01*
X126063416Y-71765000D01*
X123876584Y-71765000D01*
X123377791Y-71864216D01*
X122812159Y-72242159D01*
X122434216Y-72807791D01*
X122301500Y-73475000D01*
X50710000Y-73475000D01*
X50710000Y-71323977D01*
X57910632Y-71323977D01*
X58286774Y-71843291D01*
X59887948Y-72206361D01*
X61506183Y-71929052D01*
X61713226Y-71843291D01*
X62089368Y-71323977D01*
X60000000Y-69234608D01*
X57910632Y-71323977D01*
X50710000Y-71323977D01*
X50710000Y-70294090D01*
X53116142Y-67887948D01*
X55793639Y-67887948D01*
X56070948Y-69506183D01*
X56156709Y-69713226D01*
X56676023Y-70089368D01*
X58765392Y-68000000D01*
X61234608Y-68000000D01*
X63323977Y-70089368D01*
X63843291Y-69713226D01*
X64206361Y-68112052D01*
X64167958Y-67887948D01*
X127793639Y-67887948D01*
X128070948Y-69506183D01*
X128156709Y-69713226D01*
X128676023Y-70089368D01*
X130765392Y-68000000D01*
X133234608Y-68000000D01*
X135323977Y-70089368D01*
X135843291Y-69713226D01*
X136206361Y-68112052D01*
X135929052Y-66493817D01*
X135843291Y-66286774D01*
X135323977Y-65910632D01*
X133234608Y-68000000D01*
X130765392Y-68000000D01*
X128676023Y-65910632D01*
X128156709Y-66286774D01*
X127793639Y-67887948D01*
X64167958Y-67887948D01*
X63929052Y-66493817D01*
X63843291Y-66286774D01*
X63323977Y-65910632D01*
X61234608Y-68000000D01*
X58765392Y-68000000D01*
X56676023Y-65910632D01*
X56156709Y-66286774D01*
X55793639Y-67887948D01*
X53116142Y-67887948D01*
X56328067Y-64676023D01*
X57910632Y-64676023D01*
X60000000Y-66765392D01*
X62089368Y-64676023D01*
X129910632Y-64676023D01*
X132000000Y-66765392D01*
X134089368Y-64676023D01*
X133713226Y-64156709D01*
X132112052Y-63793639D01*
X130493817Y-64070948D01*
X130286774Y-64156709D01*
X129910632Y-64676023D01*
X62089368Y-64676023D01*
X61713226Y-64156709D01*
X60112052Y-63793639D01*
X58493817Y-64070948D01*
X58286774Y-64156709D01*
X57910632Y-64676023D01*
X56328067Y-64676023D01*
X62294092Y-58710000D01*
X129705910Y-58710000D01*
X141290000Y-70294092D01*
G04 #@! TD*
M02*
