G04 #@! TF.GenerationSoftware,KiCad,Pcbnew,(5.0.2)-1*
G04 #@! TF.CreationDate,2019-05-25T13:24:05-02:30*
G04 #@! TF.ProjectId,PowerPCB,506f7765-7250-4434-922e-6b696361645f,rev?*
G04 #@! TF.SameCoordinates,Original*
G04 #@! TF.FileFunction,Legend,Bot*
G04 #@! TF.FilePolarity,Positive*
%FSLAX46Y46*%
G04 Gerber Fmt 4.6, Leading zero omitted, Abs format (unit mm)*
G04 Created by KiCad (PCBNEW (5.0.2)-1) date 5/25/2019 1:24:05 PM*
%MOMM*%
%LPD*%
G01*
G04 APERTURE LIST*
%ADD10C,0.375000*%
%ADD11C,0.500000*%
%ADD12C,0.250000*%
%ADD13C,0.381000*%
%ADD14C,0.150000*%
%ADD15C,0.010000*%
G04 APERTURE END LIST*
D10*
X141285714Y-118678571D02*
X140785714Y-120178571D01*
X140285714Y-118678571D01*
X139500000Y-118678571D02*
X139214285Y-118678571D01*
X139071428Y-118750000D01*
X138928571Y-118892857D01*
X138857142Y-119178571D01*
X138857142Y-119678571D01*
X138928571Y-119964285D01*
X139071428Y-120107142D01*
X139214285Y-120178571D01*
X139500000Y-120178571D01*
X139642857Y-120107142D01*
X139785714Y-119964285D01*
X139857142Y-119678571D01*
X139857142Y-119178571D01*
X139785714Y-118892857D01*
X139642857Y-118750000D01*
X139500000Y-118678571D01*
X138214285Y-118678571D02*
X138214285Y-119892857D01*
X138142857Y-120035714D01*
X138071428Y-120107142D01*
X137928571Y-120178571D01*
X137642857Y-120178571D01*
X137500000Y-120107142D01*
X137428571Y-120035714D01*
X137357142Y-119892857D01*
X137357142Y-118678571D01*
X136857142Y-118678571D02*
X136000000Y-118678571D01*
X136428571Y-120178571D02*
X136428571Y-118678571D01*
X135642857Y-118678571D02*
X134714285Y-118678571D01*
X135214285Y-119250000D01*
X135000000Y-119250000D01*
X134857142Y-119321428D01*
X134785714Y-119392857D01*
X134714285Y-119535714D01*
X134714285Y-119892857D01*
X134785714Y-120035714D01*
X134857142Y-120107142D01*
X135000000Y-120178571D01*
X135428571Y-120178571D01*
X135571428Y-120107142D01*
X135642857Y-120035714D01*
X134071428Y-119607142D02*
X132928571Y-119607142D01*
X133500000Y-120178571D02*
X133500000Y-119035714D01*
X141035714Y-97928571D02*
X140535714Y-99428571D01*
X140035714Y-97928571D01*
X139250000Y-97928571D02*
X138964285Y-97928571D01*
X138821428Y-98000000D01*
X138678571Y-98142857D01*
X138607142Y-98428571D01*
X138607142Y-98928571D01*
X138678571Y-99214285D01*
X138821428Y-99357142D01*
X138964285Y-99428571D01*
X139250000Y-99428571D01*
X139392857Y-99357142D01*
X139535714Y-99214285D01*
X139607142Y-98928571D01*
X139607142Y-98428571D01*
X139535714Y-98142857D01*
X139392857Y-98000000D01*
X139250000Y-97928571D01*
X137964285Y-97928571D02*
X137964285Y-99142857D01*
X137892857Y-99285714D01*
X137821428Y-99357142D01*
X137678571Y-99428571D01*
X137392857Y-99428571D01*
X137250000Y-99357142D01*
X137178571Y-99285714D01*
X137107142Y-99142857D01*
X137107142Y-97928571D01*
X136607142Y-97928571D02*
X135750000Y-97928571D01*
X136178571Y-99428571D02*
X136178571Y-97928571D01*
X135321428Y-98071428D02*
X135250000Y-98000000D01*
X135107142Y-97928571D01*
X134750000Y-97928571D01*
X134607142Y-98000000D01*
X134535714Y-98071428D01*
X134464285Y-98214285D01*
X134464285Y-98357142D01*
X134535714Y-98571428D01*
X135392857Y-99428571D01*
X134464285Y-99428571D01*
X133821428Y-98857142D02*
X132678571Y-98857142D01*
X133250000Y-99428571D02*
X133250000Y-98285714D01*
X141035714Y-76178571D02*
X140535714Y-77678571D01*
X140035714Y-76178571D01*
X139250000Y-76178571D02*
X138964285Y-76178571D01*
X138821428Y-76250000D01*
X138678571Y-76392857D01*
X138607142Y-76678571D01*
X138607142Y-77178571D01*
X138678571Y-77464285D01*
X138821428Y-77607142D01*
X138964285Y-77678571D01*
X139250000Y-77678571D01*
X139392857Y-77607142D01*
X139535714Y-77464285D01*
X139607142Y-77178571D01*
X139607142Y-76678571D01*
X139535714Y-76392857D01*
X139392857Y-76250000D01*
X139250000Y-76178571D01*
X137964285Y-76178571D02*
X137964285Y-77392857D01*
X137892857Y-77535714D01*
X137821428Y-77607142D01*
X137678571Y-77678571D01*
X137392857Y-77678571D01*
X137250000Y-77607142D01*
X137178571Y-77535714D01*
X137107142Y-77392857D01*
X137107142Y-76178571D01*
X136607142Y-76178571D02*
X135750000Y-76178571D01*
X136178571Y-77678571D02*
X136178571Y-76178571D01*
X134464285Y-77678571D02*
X135321428Y-77678571D01*
X134892857Y-77678571D02*
X134892857Y-76178571D01*
X135035714Y-76392857D01*
X135178571Y-76535714D01*
X135321428Y-76607142D01*
X133821428Y-77107142D02*
X132678571Y-77107142D01*
X133250000Y-77678571D02*
X133250000Y-76535714D01*
D11*
X138773809Y-87000000D02*
X138964285Y-86904761D01*
X139250000Y-86904761D01*
X139535714Y-87000000D01*
X139726190Y-87190476D01*
X139821428Y-87380952D01*
X139916666Y-87761904D01*
X139916666Y-88047619D01*
X139821428Y-88428571D01*
X139726190Y-88619047D01*
X139535714Y-88809523D01*
X139250000Y-88904761D01*
X139059523Y-88904761D01*
X138773809Y-88809523D01*
X138678571Y-88714285D01*
X138678571Y-88047619D01*
X139059523Y-88047619D01*
X137821428Y-88904761D02*
X137821428Y-86904761D01*
X136678571Y-88904761D01*
X136678571Y-86904761D01*
X135726190Y-88904761D02*
X135726190Y-86904761D01*
X135250000Y-86904761D01*
X134964285Y-87000000D01*
X134773809Y-87190476D01*
X134678571Y-87380952D01*
X134583333Y-87761904D01*
X134583333Y-88047619D01*
X134678571Y-88428571D01*
X134773809Y-88619047D01*
X134964285Y-88809523D01*
X135250000Y-88904761D01*
X135726190Y-88904761D01*
X138523809Y-108500000D02*
X138714285Y-108404761D01*
X139000000Y-108404761D01*
X139285714Y-108500000D01*
X139476190Y-108690476D01*
X139571428Y-108880952D01*
X139666666Y-109261904D01*
X139666666Y-109547619D01*
X139571428Y-109928571D01*
X139476190Y-110119047D01*
X139285714Y-110309523D01*
X139000000Y-110404761D01*
X138809523Y-110404761D01*
X138523809Y-110309523D01*
X138428571Y-110214285D01*
X138428571Y-109547619D01*
X138809523Y-109547619D01*
X137571428Y-110404761D02*
X137571428Y-108404761D01*
X136428571Y-110404761D01*
X136428571Y-108404761D01*
X135476190Y-110404761D02*
X135476190Y-108404761D01*
X135000000Y-108404761D01*
X134714285Y-108500000D01*
X134523809Y-108690476D01*
X134428571Y-108880952D01*
X134333333Y-109261904D01*
X134333333Y-109547619D01*
X134428571Y-109928571D01*
X134523809Y-110119047D01*
X134714285Y-110309523D01*
X135000000Y-110404761D01*
X135476190Y-110404761D01*
X138523809Y-130250000D02*
X138714285Y-130154761D01*
X139000000Y-130154761D01*
X139285714Y-130250000D01*
X139476190Y-130440476D01*
X139571428Y-130630952D01*
X139666666Y-131011904D01*
X139666666Y-131297619D01*
X139571428Y-131678571D01*
X139476190Y-131869047D01*
X139285714Y-132059523D01*
X139000000Y-132154761D01*
X138809523Y-132154761D01*
X138523809Y-132059523D01*
X138428571Y-131964285D01*
X138428571Y-131297619D01*
X138809523Y-131297619D01*
X137571428Y-132154761D02*
X137571428Y-130154761D01*
X136428571Y-132154761D01*
X136428571Y-130154761D01*
X135476190Y-132154761D02*
X135476190Y-130154761D01*
X135000000Y-130154761D01*
X134714285Y-130250000D01*
X134523809Y-130440476D01*
X134428571Y-130630952D01*
X134333333Y-131011904D01*
X134333333Y-131297619D01*
X134428571Y-131678571D01*
X134523809Y-131869047D01*
X134714285Y-132059523D01*
X135000000Y-132154761D01*
X135476190Y-132154761D01*
X56773809Y-113500000D02*
X56964285Y-113404761D01*
X57250000Y-113404761D01*
X57535714Y-113500000D01*
X57726190Y-113690476D01*
X57821428Y-113880952D01*
X57916666Y-114261904D01*
X57916666Y-114547619D01*
X57821428Y-114928571D01*
X57726190Y-115119047D01*
X57535714Y-115309523D01*
X57250000Y-115404761D01*
X57059523Y-115404761D01*
X56773809Y-115309523D01*
X56678571Y-115214285D01*
X56678571Y-114547619D01*
X57059523Y-114547619D01*
X55821428Y-115404761D02*
X55821428Y-113404761D01*
X54678571Y-115404761D01*
X54678571Y-113404761D01*
X53726190Y-115404761D02*
X53726190Y-113404761D01*
X53250000Y-113404761D01*
X52964285Y-113500000D01*
X52773809Y-113690476D01*
X52678571Y-113880952D01*
X52583333Y-114261904D01*
X52583333Y-114547619D01*
X52678571Y-114928571D01*
X52773809Y-115119047D01*
X52964285Y-115309523D01*
X53250000Y-115404761D01*
X53726190Y-115404761D01*
X58678571Y-90904761D02*
X58011904Y-92904761D01*
X57345238Y-90904761D01*
X56678571Y-92904761D02*
X56678571Y-90904761D01*
X55726190Y-92904761D02*
X55726190Y-90904761D01*
X54583333Y-92904761D01*
X54583333Y-90904761D01*
X53630952Y-92142857D02*
X52107142Y-92142857D01*
X52869047Y-92904761D02*
X52869047Y-91380952D01*
D12*
X109638690Y-145908333D02*
X109686309Y-145860714D01*
X109781547Y-145717857D01*
X109829166Y-145622619D01*
X109876785Y-145479761D01*
X109924404Y-145241666D01*
X109924404Y-145051190D01*
X109876785Y-144813095D01*
X109829166Y-144670238D01*
X109781547Y-144575000D01*
X109686309Y-144432142D01*
X109638690Y-144384523D01*
X108829166Y-145479761D02*
X108924404Y-145527380D01*
X109114880Y-145527380D01*
X109210119Y-145479761D01*
X109257738Y-145432142D01*
X109305357Y-145336904D01*
X109305357Y-145051190D01*
X109257738Y-144955952D01*
X109210119Y-144908333D01*
X109114880Y-144860714D01*
X108924404Y-144860714D01*
X108829166Y-144908333D01*
X108495833Y-145908333D02*
X108448214Y-145860714D01*
X108352976Y-145717857D01*
X108305357Y-145622619D01*
X108257738Y-145479761D01*
X108210119Y-145241666D01*
X108210119Y-145051190D01*
X108257738Y-144813095D01*
X108305357Y-144670238D01*
X108352976Y-144575000D01*
X108448214Y-144432142D01*
X108495833Y-144384523D01*
X106972023Y-145527380D02*
X106972023Y-144527380D01*
X106638690Y-145241666D01*
X106305357Y-144527380D01*
X106305357Y-145527380D01*
X105448214Y-145479761D02*
X105543452Y-145527380D01*
X105733928Y-145527380D01*
X105829166Y-145479761D01*
X105876785Y-145384523D01*
X105876785Y-145003571D01*
X105829166Y-144908333D01*
X105733928Y-144860714D01*
X105543452Y-144860714D01*
X105448214Y-144908333D01*
X105400595Y-145003571D01*
X105400595Y-145098809D01*
X105876785Y-145194047D01*
X104972023Y-145527380D02*
X104972023Y-144860714D01*
X104972023Y-144955952D02*
X104924404Y-144908333D01*
X104829166Y-144860714D01*
X104686309Y-144860714D01*
X104591071Y-144908333D01*
X104543452Y-145003571D01*
X104543452Y-145527380D01*
X104543452Y-145003571D02*
X104495833Y-144908333D01*
X104400595Y-144860714D01*
X104257738Y-144860714D01*
X104162500Y-144908333D01*
X104114880Y-145003571D01*
X104114880Y-145527380D01*
X103495833Y-145527380D02*
X103591071Y-145479761D01*
X103638690Y-145432142D01*
X103686309Y-145336904D01*
X103686309Y-145051190D01*
X103638690Y-144955952D01*
X103591071Y-144908333D01*
X103495833Y-144860714D01*
X103352976Y-144860714D01*
X103257738Y-144908333D01*
X103210119Y-144955952D01*
X103162500Y-145051190D01*
X103162500Y-145336904D01*
X103210119Y-145432142D01*
X103257738Y-145479761D01*
X103352976Y-145527380D01*
X103495833Y-145527380D01*
X102733928Y-145527380D02*
X102733928Y-144860714D01*
X102733928Y-145051190D02*
X102686309Y-144955952D01*
X102638690Y-144908333D01*
X102543452Y-144860714D01*
X102448214Y-144860714D01*
X102114880Y-145527380D02*
X102114880Y-144860714D01*
X102114880Y-144527380D02*
X102162500Y-144575000D01*
X102114880Y-144622619D01*
X102067261Y-144575000D01*
X102114880Y-144527380D01*
X102114880Y-144622619D01*
X101210119Y-145527380D02*
X101210119Y-145003571D01*
X101257738Y-144908333D01*
X101352976Y-144860714D01*
X101543452Y-144860714D01*
X101638690Y-144908333D01*
X101210119Y-145479761D02*
X101305357Y-145527380D01*
X101543452Y-145527380D01*
X101638690Y-145479761D01*
X101686309Y-145384523D01*
X101686309Y-145289285D01*
X101638690Y-145194047D01*
X101543452Y-145146428D01*
X101305357Y-145146428D01*
X101210119Y-145098809D01*
X100591071Y-145527380D02*
X100686309Y-145479761D01*
X100733928Y-145384523D01*
X100733928Y-144527380D01*
X99114880Y-145003571D02*
X98972023Y-145051190D01*
X98924404Y-145098809D01*
X98876785Y-145194047D01*
X98876785Y-145336904D01*
X98924404Y-145432142D01*
X98972023Y-145479761D01*
X99067261Y-145527380D01*
X99448214Y-145527380D01*
X99448214Y-144527380D01*
X99114880Y-144527380D01*
X99019642Y-144575000D01*
X98972023Y-144622619D01*
X98924404Y-144717857D01*
X98924404Y-144813095D01*
X98972023Y-144908333D01*
X99019642Y-144955952D01*
X99114880Y-145003571D01*
X99448214Y-145003571D01*
X98019642Y-145527380D02*
X98019642Y-145003571D01*
X98067261Y-144908333D01*
X98162500Y-144860714D01*
X98352976Y-144860714D01*
X98448214Y-144908333D01*
X98019642Y-145479761D02*
X98114880Y-145527380D01*
X98352976Y-145527380D01*
X98448214Y-145479761D01*
X98495833Y-145384523D01*
X98495833Y-145289285D01*
X98448214Y-145194047D01*
X98352976Y-145146428D01*
X98114880Y-145146428D01*
X98019642Y-145098809D01*
X97543452Y-144860714D02*
X97543452Y-145717857D01*
X97591071Y-145813095D01*
X97686309Y-145860714D01*
X97733928Y-145860714D01*
X97543452Y-144527380D02*
X97591071Y-144575000D01*
X97543452Y-144622619D01*
X97495833Y-144575000D01*
X97543452Y-144527380D01*
X97543452Y-144622619D01*
X96638690Y-145527380D02*
X96638690Y-145003571D01*
X96686309Y-144908333D01*
X96781547Y-144860714D01*
X96972023Y-144860714D01*
X97067261Y-144908333D01*
X96638690Y-145479761D02*
X96733928Y-145527380D01*
X96972023Y-145527380D01*
X97067261Y-145479761D01*
X97114880Y-145384523D01*
X97114880Y-145289285D01*
X97067261Y-145194047D01*
X96972023Y-145146428D01*
X96733928Y-145146428D01*
X96638690Y-145098809D01*
X109591071Y-146753571D02*
X109924404Y-146753571D01*
X109924404Y-147277380D02*
X109924404Y-146277380D01*
X109448214Y-146277380D01*
X108638690Y-146610714D02*
X108638690Y-147277380D01*
X109067261Y-146610714D02*
X109067261Y-147134523D01*
X109019642Y-147229761D01*
X108924404Y-147277380D01*
X108781547Y-147277380D01*
X108686309Y-147229761D01*
X108638690Y-147182142D01*
X108210119Y-147229761D02*
X108114880Y-147277380D01*
X107924404Y-147277380D01*
X107829166Y-147229761D01*
X107781547Y-147134523D01*
X107781547Y-147086904D01*
X107829166Y-146991666D01*
X107924404Y-146944047D01*
X108067261Y-146944047D01*
X108162500Y-146896428D01*
X108210119Y-146801190D01*
X108210119Y-146753571D01*
X108162500Y-146658333D01*
X108067261Y-146610714D01*
X107924404Y-146610714D01*
X107829166Y-146658333D01*
X106972023Y-147229761D02*
X107067261Y-147277380D01*
X107257738Y-147277380D01*
X107352976Y-147229761D01*
X107400595Y-147134523D01*
X107400595Y-146753571D01*
X107352976Y-146658333D01*
X107257738Y-146610714D01*
X107067261Y-146610714D01*
X106972023Y-146658333D01*
X106924404Y-146753571D01*
X106924404Y-146848809D01*
X107400595Y-146944047D01*
X105400595Y-146753571D02*
X105257738Y-146801190D01*
X105210119Y-146848809D01*
X105162500Y-146944047D01*
X105162500Y-147086904D01*
X105210119Y-147182142D01*
X105257738Y-147229761D01*
X105352976Y-147277380D01*
X105733928Y-147277380D01*
X105733928Y-146277380D01*
X105400595Y-146277380D01*
X105305357Y-146325000D01*
X105257738Y-146372619D01*
X105210119Y-146467857D01*
X105210119Y-146563095D01*
X105257738Y-146658333D01*
X105305357Y-146705952D01*
X105400595Y-146753571D01*
X105733928Y-146753571D01*
X104591071Y-147277380D02*
X104686309Y-147229761D01*
X104733928Y-147182142D01*
X104781547Y-147086904D01*
X104781547Y-146801190D01*
X104733928Y-146705952D01*
X104686309Y-146658333D01*
X104591071Y-146610714D01*
X104448214Y-146610714D01*
X104352976Y-146658333D01*
X104305357Y-146705952D01*
X104257738Y-146801190D01*
X104257738Y-147086904D01*
X104305357Y-147182142D01*
X104352976Y-147229761D01*
X104448214Y-147277380D01*
X104591071Y-147277380D01*
X103924404Y-147277380D02*
X103400595Y-146610714D01*
X103924404Y-146610714D02*
X103400595Y-147277380D01*
X102257738Y-147277380D02*
X102257738Y-146277380D01*
X101876785Y-146277380D01*
X101781547Y-146325000D01*
X101733928Y-146372619D01*
X101686309Y-146467857D01*
X101686309Y-146610714D01*
X101733928Y-146705952D01*
X101781547Y-146753571D01*
X101876785Y-146801190D01*
X102257738Y-146801190D01*
X100686309Y-147182142D02*
X100733928Y-147229761D01*
X100876785Y-147277380D01*
X100972023Y-147277380D01*
X101114880Y-147229761D01*
X101210119Y-147134523D01*
X101257738Y-147039285D01*
X101305357Y-146848809D01*
X101305357Y-146705952D01*
X101257738Y-146515476D01*
X101210119Y-146420238D01*
X101114880Y-146325000D01*
X100972023Y-146277380D01*
X100876785Y-146277380D01*
X100733928Y-146325000D01*
X100686309Y-146372619D01*
X99924404Y-146753571D02*
X99781547Y-146801190D01*
X99733928Y-146848809D01*
X99686309Y-146944047D01*
X99686309Y-147086904D01*
X99733928Y-147182142D01*
X99781547Y-147229761D01*
X99876785Y-147277380D01*
X100257738Y-147277380D01*
X100257738Y-146277380D01*
X99924404Y-146277380D01*
X99829166Y-146325000D01*
X99781547Y-146372619D01*
X99733928Y-146467857D01*
X99733928Y-146563095D01*
X99781547Y-146658333D01*
X99829166Y-146705952D01*
X99924404Y-146753571D01*
X100257738Y-146753571D01*
X109924404Y-149027380D02*
X109924404Y-148027380D01*
X109543452Y-148027380D01*
X109448214Y-148075000D01*
X109400595Y-148122619D01*
X109352976Y-148217857D01*
X109352976Y-148360714D01*
X109400595Y-148455952D01*
X109448214Y-148503571D01*
X109543452Y-148551190D01*
X109924404Y-148551190D01*
X108924404Y-149027380D02*
X108924404Y-148027380D01*
X108352976Y-149027380D01*
X108352976Y-148027380D01*
X107876785Y-148932142D02*
X107829166Y-148979761D01*
X107876785Y-149027380D01*
X107924404Y-148979761D01*
X107876785Y-148932142D01*
X107876785Y-149027380D01*
X107876785Y-148408333D02*
X107829166Y-148455952D01*
X107876785Y-148503571D01*
X107924404Y-148455952D01*
X107876785Y-148408333D01*
X107876785Y-148503571D01*
X106686309Y-148122619D02*
X106638690Y-148075000D01*
X106543452Y-148027380D01*
X106305357Y-148027380D01*
X106210119Y-148075000D01*
X106162500Y-148122619D01*
X106114880Y-148217857D01*
X106114880Y-148313095D01*
X106162500Y-148455952D01*
X106733928Y-149027380D01*
X106114880Y-149027380D01*
X105495833Y-148027380D02*
X105400595Y-148027380D01*
X105305357Y-148075000D01*
X105257738Y-148122619D01*
X105210119Y-148217857D01*
X105162500Y-148408333D01*
X105162500Y-148646428D01*
X105210119Y-148836904D01*
X105257738Y-148932142D01*
X105305357Y-148979761D01*
X105400595Y-149027380D01*
X105495833Y-149027380D01*
X105591071Y-148979761D01*
X105638690Y-148932142D01*
X105686309Y-148836904D01*
X105733928Y-148646428D01*
X105733928Y-148408333D01*
X105686309Y-148217857D01*
X105638690Y-148122619D01*
X105591071Y-148075000D01*
X105495833Y-148027380D01*
X104210119Y-149027380D02*
X104781547Y-149027380D01*
X104495833Y-149027380D02*
X104495833Y-148027380D01*
X104591071Y-148170238D01*
X104686309Y-148265476D01*
X104781547Y-148313095D01*
X103733928Y-149027380D02*
X103543452Y-149027380D01*
X103448214Y-148979761D01*
X103400595Y-148932142D01*
X103305357Y-148789285D01*
X103257738Y-148598809D01*
X103257738Y-148217857D01*
X103305357Y-148122619D01*
X103352976Y-148075000D01*
X103448214Y-148027380D01*
X103638690Y-148027380D01*
X103733928Y-148075000D01*
X103781547Y-148122619D01*
X103829166Y-148217857D01*
X103829166Y-148455952D01*
X103781547Y-148551190D01*
X103733928Y-148598809D01*
X103638690Y-148646428D01*
X103448214Y-148646428D01*
X103352976Y-148598809D01*
X103305357Y-148551190D01*
X103257738Y-148455952D01*
X102829166Y-148646428D02*
X102067261Y-148646428D01*
X101400595Y-148027380D02*
X101305357Y-148027380D01*
X101210119Y-148075000D01*
X101162500Y-148122619D01*
X101114880Y-148217857D01*
X101067261Y-148408333D01*
X101067261Y-148646428D01*
X101114880Y-148836904D01*
X101162500Y-148932142D01*
X101210119Y-148979761D01*
X101305357Y-149027380D01*
X101400595Y-149027380D01*
X101495833Y-148979761D01*
X101543452Y-148932142D01*
X101591071Y-148836904D01*
X101638690Y-148646428D01*
X101638690Y-148408333D01*
X101591071Y-148217857D01*
X101543452Y-148122619D01*
X101495833Y-148075000D01*
X101400595Y-148027380D01*
X100114880Y-149027380D02*
X100686309Y-149027380D01*
X100400595Y-149027380D02*
X100400595Y-148027380D01*
X100495833Y-148170238D01*
X100591071Y-148265476D01*
X100686309Y-148313095D01*
X99019642Y-148360714D02*
X98781547Y-149027380D01*
X98543452Y-148360714D01*
X97638690Y-149027380D02*
X98210119Y-149027380D01*
X97924404Y-149027380D02*
X97924404Y-148027380D01*
X98019642Y-148170238D01*
X98114880Y-148265476D01*
X98210119Y-148313095D01*
X97210119Y-148932142D02*
X97162500Y-148979761D01*
X97210119Y-149027380D01*
X97257738Y-148979761D01*
X97210119Y-148932142D01*
X97210119Y-149027380D01*
X96543452Y-148027380D02*
X96448214Y-148027380D01*
X96352976Y-148075000D01*
X96305357Y-148122619D01*
X96257738Y-148217857D01*
X96210119Y-148408333D01*
X96210119Y-148646428D01*
X96257738Y-148836904D01*
X96305357Y-148932142D01*
X96352976Y-148979761D01*
X96448214Y-149027380D01*
X96543452Y-149027380D01*
X96638690Y-148979761D01*
X96686309Y-148932142D01*
X96733928Y-148836904D01*
X96781547Y-148646428D01*
X96781547Y-148408333D01*
X96733928Y-148217857D01*
X96686309Y-148122619D01*
X96638690Y-148075000D01*
X96543452Y-148027380D01*
X94305357Y-148979761D02*
X94162500Y-149027380D01*
X93924404Y-149027380D01*
X93829166Y-148979761D01*
X93781547Y-148932142D01*
X93733928Y-148836904D01*
X93733928Y-148741666D01*
X93781547Y-148646428D01*
X93829166Y-148598809D01*
X93924404Y-148551190D01*
X94114880Y-148503571D01*
X94210119Y-148455952D01*
X94257738Y-148408333D01*
X94305357Y-148313095D01*
X94305357Y-148217857D01*
X94257738Y-148122619D01*
X94210119Y-148075000D01*
X94114880Y-148027380D01*
X93876785Y-148027380D01*
X93733928Y-148075000D01*
X93305357Y-149027380D02*
X93305357Y-148027380D01*
X92733928Y-149027380D01*
X92733928Y-148027380D01*
X92257738Y-148932142D02*
X92210119Y-148979761D01*
X92257738Y-149027380D01*
X92305357Y-148979761D01*
X92257738Y-148932142D01*
X92257738Y-149027380D01*
X92257738Y-148408333D02*
X92210119Y-148455952D01*
X92257738Y-148503571D01*
X92305357Y-148455952D01*
X92257738Y-148408333D01*
X92257738Y-148503571D01*
D13*
G04 #@! TO.C,J1*
X65490000Y-87580000D02*
X64990000Y-87580000D01*
X69240000Y-93330000D02*
X69240000Y-90080000D01*
X64990000Y-95580000D02*
X65490000Y-95580000D01*
X61240000Y-89830000D02*
X61240000Y-93330000D01*
G04 #@! TO.C,J2*
X69240000Y-116190000D02*
X69240000Y-112690000D01*
X65490000Y-110440000D02*
X64990000Y-110440000D01*
X61240000Y-112690000D02*
X61240000Y-115940000D01*
X64990000Y-118440000D02*
X65490000Y-118440000D01*
G04 #@! TO.C,J5*
X131470000Y-121905000D02*
X131470000Y-118405000D01*
X127720000Y-116155000D02*
X127220000Y-116155000D01*
X123470000Y-118405000D02*
X123470000Y-121655000D01*
X127220000Y-124155000D02*
X127720000Y-124155000D01*
G04 #@! TO.C,J7*
X127220000Y-80975000D02*
X127720000Y-80975000D01*
X123470000Y-75225000D02*
X123470000Y-78475000D01*
X127720000Y-72975000D02*
X127220000Y-72975000D01*
X131470000Y-78725000D02*
X131470000Y-75225000D01*
G04 #@! TO.C,J8*
X127220000Y-91770000D02*
X127720000Y-91770000D01*
X123470000Y-86020000D02*
X123470000Y-89270000D01*
X127720000Y-83770000D02*
X127220000Y-83770000D01*
X131470000Y-89520000D02*
X131470000Y-86020000D01*
G04 #@! TO.C,J9*
X127720000Y-94565000D02*
X127220000Y-94565000D01*
X131470000Y-100315000D02*
X131470000Y-97065000D01*
X127220000Y-102565000D02*
X127720000Y-102565000D01*
X123470000Y-96815000D02*
X123470000Y-100315000D01*
G04 #@! TO.C,J10*
X127220000Y-113360000D02*
X127720000Y-113360000D01*
X123470000Y-107610000D02*
X123470000Y-110860000D01*
X127720000Y-105360000D02*
X127220000Y-105360000D01*
X131470000Y-111110000D02*
X131470000Y-107610000D01*
D14*
G04 #@! TO.C,logo2*
X85550000Y-146250000D02*
X90950000Y-146250000D01*
X90950000Y-146350000D02*
X85550000Y-146350000D01*
X85550000Y-146450000D02*
X90950000Y-146450000D01*
X90950000Y-146550000D02*
X85550000Y-146550000D01*
X85550000Y-146650000D02*
X90950000Y-146650000D01*
X90950000Y-146750000D02*
X85550000Y-146750000D01*
X85550000Y-146850000D02*
X90950000Y-146850000D01*
X90950000Y-146950000D02*
X85550000Y-146950000D01*
X85550000Y-147050000D02*
X90950000Y-147050000D01*
X90950000Y-147150000D02*
X85550000Y-147150000D01*
X85550000Y-147250000D02*
X90950000Y-147250000D01*
X90950000Y-147350000D02*
X85550000Y-147350000D01*
X85550000Y-147450000D02*
X90950000Y-147450000D01*
X90950000Y-147550000D02*
X85550000Y-147550000D01*
X85550000Y-147650000D02*
X90950000Y-147650000D01*
X90950000Y-147750000D02*
X85550000Y-147750000D01*
X85550000Y-147850000D02*
X90950000Y-147850000D01*
X90950000Y-147950000D02*
X85550000Y-147950000D01*
X85550000Y-148050000D02*
X90950000Y-148050000D01*
X90950000Y-148150000D02*
X85550000Y-148150000D01*
X85550000Y-148250000D02*
X90950000Y-148250000D01*
X90950000Y-148350000D02*
X85550000Y-148350000D01*
X85550000Y-148450000D02*
X90950000Y-148450000D01*
X90950000Y-148550000D02*
X85550000Y-148550000D01*
X85550000Y-148650000D02*
X90950000Y-148650000D01*
X90950000Y-148750000D02*
X85550000Y-148750000D01*
X85550000Y-148850000D02*
X90950000Y-148850000D01*
X90950000Y-148950000D02*
X85550000Y-148950000D01*
X85550000Y-149050000D02*
X90950000Y-149050000D01*
X90950000Y-149150000D02*
X85550000Y-149150000D01*
X85550000Y-149250000D02*
X90950000Y-149250000D01*
X85500000Y-149250000D02*
X85500000Y-146250000D01*
X91000000Y-149250000D02*
X91000000Y-146250000D01*
D15*
G04 #@! TO.C,logo3*
G36*
X99957318Y-64168933D02*
X99821071Y-64216172D01*
X99694221Y-64290527D01*
X99580933Y-64391987D01*
X99485372Y-64520543D01*
X99442446Y-64601572D01*
X99405295Y-64714908D01*
X99387288Y-64845751D01*
X99389283Y-64980265D01*
X99411423Y-65102158D01*
X99471936Y-65251107D01*
X99559686Y-65380309D01*
X99670212Y-65487223D01*
X99799054Y-65569306D01*
X99941753Y-65624016D01*
X100093849Y-65648810D01*
X100250881Y-65641147D01*
X100328286Y-65624772D01*
X100479141Y-65566089D01*
X100613125Y-65476543D01*
X100727006Y-65358893D01*
X100817552Y-65215902D01*
X100825212Y-65200286D01*
X100851694Y-65141686D01*
X100868322Y-65092334D01*
X100877350Y-65040270D01*
X100881032Y-64973539D01*
X100881643Y-64900929D01*
X100880633Y-64813691D01*
X100876072Y-64750624D01*
X100865666Y-64699636D01*
X100847121Y-64648633D01*
X100824230Y-64598313D01*
X100738846Y-64455470D01*
X100633699Y-64339810D01*
X100512955Y-64251325D01*
X100380779Y-64190005D01*
X100241337Y-64155839D01*
X100098795Y-64148818D01*
X99957318Y-64168933D01*
X99957318Y-64168933D01*
G37*
X99957318Y-64168933D02*
X99821071Y-64216172D01*
X99694221Y-64290527D01*
X99580933Y-64391987D01*
X99485372Y-64520543D01*
X99442446Y-64601572D01*
X99405295Y-64714908D01*
X99387288Y-64845751D01*
X99389283Y-64980265D01*
X99411423Y-65102158D01*
X99471936Y-65251107D01*
X99559686Y-65380309D01*
X99670212Y-65487223D01*
X99799054Y-65569306D01*
X99941753Y-65624016D01*
X100093849Y-65648810D01*
X100250881Y-65641147D01*
X100328286Y-65624772D01*
X100479141Y-65566089D01*
X100613125Y-65476543D01*
X100727006Y-65358893D01*
X100817552Y-65215902D01*
X100825212Y-65200286D01*
X100851694Y-65141686D01*
X100868322Y-65092334D01*
X100877350Y-65040270D01*
X100881032Y-64973539D01*
X100881643Y-64900929D01*
X100880633Y-64813691D01*
X100876072Y-64750624D01*
X100865666Y-64699636D01*
X100847121Y-64648633D01*
X100824230Y-64598313D01*
X100738846Y-64455470D01*
X100633699Y-64339810D01*
X100512955Y-64251325D01*
X100380779Y-64190005D01*
X100241337Y-64155839D01*
X100098795Y-64148818D01*
X99957318Y-64168933D01*
G36*
X87313429Y-65385089D02*
X87159124Y-65385723D01*
X87106679Y-65386042D01*
X86385500Y-65390786D01*
X86376429Y-68157572D01*
X86375231Y-68532756D01*
X86374168Y-68873417D01*
X86373173Y-69181318D01*
X86372177Y-69458221D01*
X86371112Y-69705888D01*
X86369909Y-69926081D01*
X86368501Y-70120562D01*
X86366818Y-70291094D01*
X86364794Y-70439440D01*
X86362359Y-70567361D01*
X86359446Y-70676620D01*
X86355985Y-70768979D01*
X86351910Y-70846200D01*
X86347151Y-70910046D01*
X86341640Y-70962278D01*
X86335309Y-71004660D01*
X86328090Y-71038953D01*
X86319915Y-71066920D01*
X86310715Y-71090324D01*
X86300423Y-71110925D01*
X86288969Y-71130487D01*
X86276285Y-71150772D01*
X86262305Y-71173543D01*
X86259439Y-71178393D01*
X86211360Y-71260433D01*
X87601072Y-71250929D01*
X87610143Y-71098295D01*
X87615082Y-71025045D01*
X87620229Y-70982696D01*
X87627214Y-70965892D01*
X87637663Y-70969277D01*
X87646429Y-70978960D01*
X87684612Y-71014229D01*
X87746845Y-71059563D01*
X87824359Y-71109546D01*
X87908387Y-71158761D01*
X87990161Y-71201791D01*
X88052948Y-71230101D01*
X88200046Y-71276624D01*
X88368820Y-71309579D01*
X88546809Y-71327707D01*
X88721553Y-71329750D01*
X88880593Y-71314447D01*
X88883212Y-71314009D01*
X89100832Y-71259402D01*
X89304545Y-71172401D01*
X89492387Y-71054876D01*
X89662393Y-70908697D01*
X89812598Y-70735734D01*
X89941036Y-70537857D01*
X90045743Y-70316936D01*
X90102754Y-70153286D01*
X90140349Y-70016375D01*
X90168229Y-69883798D01*
X90187247Y-69747502D01*
X90198255Y-69599433D01*
X90202105Y-69431537D01*
X90200400Y-69294440D01*
X88861641Y-69294440D01*
X88855306Y-69524329D01*
X88835321Y-69722111D01*
X88801073Y-69889539D01*
X88751945Y-70028369D01*
X88687324Y-70140358D01*
X88606595Y-70227259D01*
X88513409Y-70288692D01*
X88464920Y-70311626D01*
X88422866Y-70325375D01*
X88375980Y-70331666D01*
X88312996Y-70332222D01*
X88245143Y-70329773D01*
X88111705Y-70318004D01*
X88006168Y-70294955D01*
X87973000Y-70283410D01*
X87897265Y-70249311D01*
X87817386Y-70206491D01*
X87782500Y-70185057D01*
X87691786Y-70125556D01*
X87691786Y-68239584D01*
X87791572Y-68179771D01*
X87930733Y-68112185D01*
X88072913Y-68072214D01*
X88212910Y-68059622D01*
X88345526Y-68074173D01*
X88465560Y-68115632D01*
X88567812Y-68183763D01*
X88600805Y-68216466D01*
X88680333Y-68323619D01*
X88744701Y-68453327D01*
X88794447Y-68607814D01*
X88830109Y-68789302D01*
X88852225Y-69000015D01*
X88861333Y-69242175D01*
X88861641Y-69294440D01*
X90200400Y-69294440D01*
X90199690Y-69237374D01*
X90184395Y-68938713D01*
X90153642Y-68669325D01*
X90106619Y-68425285D01*
X90042518Y-68202670D01*
X89960528Y-67997556D01*
X89931270Y-67936746D01*
X89813419Y-67738440D01*
X89671004Y-67562212D01*
X89507371Y-67410908D01*
X89325869Y-67287371D01*
X89129847Y-67194447D01*
X89012345Y-67156115D01*
X88896946Y-67133359D01*
X88758093Y-67119820D01*
X88607426Y-67115492D01*
X88456587Y-67120368D01*
X88317215Y-67134444D01*
X88205309Y-67156525D01*
X88072116Y-67199828D01*
X87943021Y-67255511D01*
X87830072Y-67317936D01*
X87769957Y-67360303D01*
X87728490Y-67391807D01*
X87699455Y-67410990D01*
X87692850Y-67413714D01*
X87690802Y-67396163D01*
X87688893Y-67345875D01*
X87687164Y-67266400D01*
X87685659Y-67161286D01*
X87684419Y-67034083D01*
X87683487Y-66888339D01*
X87682905Y-66727603D01*
X87682714Y-66563884D01*
X87682821Y-66354188D01*
X87683342Y-66177396D01*
X87684584Y-66030126D01*
X87686852Y-65908997D01*
X87690450Y-65810627D01*
X87695683Y-65731634D01*
X87702856Y-65668638D01*
X87712274Y-65618255D01*
X87724242Y-65577105D01*
X87739065Y-65541806D01*
X87757048Y-65508977D01*
X87778495Y-65475235D01*
X87781255Y-65471057D01*
X87808917Y-65427356D01*
X87825618Y-65397305D01*
X87827857Y-65390967D01*
X87810357Y-65388967D01*
X87760426Y-65387340D01*
X87681915Y-65386112D01*
X87578677Y-65385311D01*
X87454564Y-65384961D01*
X87313429Y-65385089D01*
X87313429Y-65385089D01*
G37*
X87313429Y-65385089D02*
X87159124Y-65385723D01*
X87106679Y-65386042D01*
X86385500Y-65390786D01*
X86376429Y-68157572D01*
X86375231Y-68532756D01*
X86374168Y-68873417D01*
X86373173Y-69181318D01*
X86372177Y-69458221D01*
X86371112Y-69705888D01*
X86369909Y-69926081D01*
X86368501Y-70120562D01*
X86366818Y-70291094D01*
X86364794Y-70439440D01*
X86362359Y-70567361D01*
X86359446Y-70676620D01*
X86355985Y-70768979D01*
X86351910Y-70846200D01*
X86347151Y-70910046D01*
X86341640Y-70962278D01*
X86335309Y-71004660D01*
X86328090Y-71038953D01*
X86319915Y-71066920D01*
X86310715Y-71090324D01*
X86300423Y-71110925D01*
X86288969Y-71130487D01*
X86276285Y-71150772D01*
X86262305Y-71173543D01*
X86259439Y-71178393D01*
X86211360Y-71260433D01*
X87601072Y-71250929D01*
X87610143Y-71098295D01*
X87615082Y-71025045D01*
X87620229Y-70982696D01*
X87627214Y-70965892D01*
X87637663Y-70969277D01*
X87646429Y-70978960D01*
X87684612Y-71014229D01*
X87746845Y-71059563D01*
X87824359Y-71109546D01*
X87908387Y-71158761D01*
X87990161Y-71201791D01*
X88052948Y-71230101D01*
X88200046Y-71276624D01*
X88368820Y-71309579D01*
X88546809Y-71327707D01*
X88721553Y-71329750D01*
X88880593Y-71314447D01*
X88883212Y-71314009D01*
X89100832Y-71259402D01*
X89304545Y-71172401D01*
X89492387Y-71054876D01*
X89662393Y-70908697D01*
X89812598Y-70735734D01*
X89941036Y-70537857D01*
X90045743Y-70316936D01*
X90102754Y-70153286D01*
X90140349Y-70016375D01*
X90168229Y-69883798D01*
X90187247Y-69747502D01*
X90198255Y-69599433D01*
X90202105Y-69431537D01*
X90200400Y-69294440D01*
X88861641Y-69294440D01*
X88855306Y-69524329D01*
X88835321Y-69722111D01*
X88801073Y-69889539D01*
X88751945Y-70028369D01*
X88687324Y-70140358D01*
X88606595Y-70227259D01*
X88513409Y-70288692D01*
X88464920Y-70311626D01*
X88422866Y-70325375D01*
X88375980Y-70331666D01*
X88312996Y-70332222D01*
X88245143Y-70329773D01*
X88111705Y-70318004D01*
X88006168Y-70294955D01*
X87973000Y-70283410D01*
X87897265Y-70249311D01*
X87817386Y-70206491D01*
X87782500Y-70185057D01*
X87691786Y-70125556D01*
X87691786Y-68239584D01*
X87791572Y-68179771D01*
X87930733Y-68112185D01*
X88072913Y-68072214D01*
X88212910Y-68059622D01*
X88345526Y-68074173D01*
X88465560Y-68115632D01*
X88567812Y-68183763D01*
X88600805Y-68216466D01*
X88680333Y-68323619D01*
X88744701Y-68453327D01*
X88794447Y-68607814D01*
X88830109Y-68789302D01*
X88852225Y-69000015D01*
X88861333Y-69242175D01*
X88861641Y-69294440D01*
X90200400Y-69294440D01*
X90199690Y-69237374D01*
X90184395Y-68938713D01*
X90153642Y-68669325D01*
X90106619Y-68425285D01*
X90042518Y-68202670D01*
X89960528Y-67997556D01*
X89931270Y-67936746D01*
X89813419Y-67738440D01*
X89671004Y-67562212D01*
X89507371Y-67410908D01*
X89325869Y-67287371D01*
X89129847Y-67194447D01*
X89012345Y-67156115D01*
X88896946Y-67133359D01*
X88758093Y-67119820D01*
X88607426Y-67115492D01*
X88456587Y-67120368D01*
X88317215Y-67134444D01*
X88205309Y-67156525D01*
X88072116Y-67199828D01*
X87943021Y-67255511D01*
X87830072Y-67317936D01*
X87769957Y-67360303D01*
X87728490Y-67391807D01*
X87699455Y-67410990D01*
X87692850Y-67413714D01*
X87690802Y-67396163D01*
X87688893Y-67345875D01*
X87687164Y-67266400D01*
X87685659Y-67161286D01*
X87684419Y-67034083D01*
X87683487Y-66888339D01*
X87682905Y-66727603D01*
X87682714Y-66563884D01*
X87682821Y-66354188D01*
X87683342Y-66177396D01*
X87684584Y-66030126D01*
X87686852Y-65908997D01*
X87690450Y-65810627D01*
X87695683Y-65731634D01*
X87702856Y-65668638D01*
X87712274Y-65618255D01*
X87724242Y-65577105D01*
X87739065Y-65541806D01*
X87757048Y-65508977D01*
X87778495Y-65475235D01*
X87781255Y-65471057D01*
X87808917Y-65427356D01*
X87825618Y-65397305D01*
X87827857Y-65390967D01*
X87810357Y-65388967D01*
X87760426Y-65387340D01*
X87681915Y-65386112D01*
X87578677Y-65385311D01*
X87454564Y-65384961D01*
X87313429Y-65385089D01*
G36*
X92169368Y-67112730D02*
X92079477Y-67119535D01*
X91822285Y-67153753D01*
X91594515Y-67208331D01*
X91395057Y-67284020D01*
X91222803Y-67381570D01*
X91076641Y-67501732D01*
X90955464Y-67645258D01*
X90858161Y-67812898D01*
X90787109Y-67994286D01*
X90769073Y-68052146D01*
X90753368Y-68106329D01*
X90739808Y-68159752D01*
X90728208Y-68215333D01*
X90718383Y-68275988D01*
X90710147Y-68344635D01*
X90703316Y-68424190D01*
X90697705Y-68517572D01*
X90693128Y-68627696D01*
X90689400Y-68757481D01*
X90686335Y-68909842D01*
X90683750Y-69087698D01*
X90681458Y-69293965D01*
X90679275Y-69531561D01*
X90677714Y-69717857D01*
X90667215Y-70996929D01*
X90599179Y-71120018D01*
X90566962Y-71179317D01*
X90542988Y-71225377D01*
X90531550Y-71249893D01*
X90531143Y-71251553D01*
X90548625Y-71253454D01*
X90598426Y-71255205D01*
X90676579Y-71256758D01*
X90779118Y-71258062D01*
X90902078Y-71259070D01*
X91041490Y-71259731D01*
X91193389Y-71259997D01*
X91211500Y-71260000D01*
X91891857Y-71260000D01*
X91891857Y-71105786D01*
X91893018Y-71036094D01*
X91896113Y-70982794D01*
X91900568Y-70954217D01*
X91902537Y-70951572D01*
X91920545Y-70962653D01*
X91957607Y-70991736D01*
X92005778Y-71032579D01*
X92006859Y-71033524D01*
X92094765Y-71098971D01*
X92205783Y-71164688D01*
X92327369Y-71224219D01*
X92446979Y-71271109D01*
X92499643Y-71287133D01*
X92604449Y-71307485D01*
X92733050Y-71320472D01*
X92873675Y-71325909D01*
X93014552Y-71323611D01*
X93143907Y-71313392D01*
X93234429Y-71298689D01*
X93456420Y-71233499D01*
X93656271Y-71140594D01*
X93832681Y-71021126D01*
X93984350Y-70876247D01*
X94109976Y-70707110D01*
X94208259Y-70514867D01*
X94250659Y-70398214D01*
X94277232Y-70284833D01*
X94294842Y-70148722D01*
X94302990Y-70002437D01*
X94302722Y-69981151D01*
X93075679Y-69981151D01*
X93065504Y-70089850D01*
X93031622Y-70180185D01*
X92969000Y-70263995D01*
X92944948Y-70288571D01*
X92859449Y-70355011D01*
X92760627Y-70397574D01*
X92642232Y-70418177D01*
X92517555Y-70419694D01*
X92399302Y-70409677D01*
X92308761Y-70390085D01*
X92269440Y-70375370D01*
X92198568Y-70335265D01*
X92123475Y-70278863D01*
X92054962Y-70215561D01*
X92003828Y-70154755D01*
X91990250Y-70132449D01*
X91979695Y-70101212D01*
X91972190Y-70051507D01*
X91967387Y-69978587D01*
X91964935Y-69877703D01*
X91964429Y-69781689D01*
X91964772Y-69669750D01*
X91966157Y-69588809D01*
X91969119Y-69533585D01*
X91974192Y-69498794D01*
X91981910Y-69479154D01*
X91992808Y-69469380D01*
X91996179Y-69467824D01*
X92025471Y-69463029D01*
X92083244Y-69459108D01*
X92161696Y-69456414D01*
X92253026Y-69455299D01*
X92272857Y-69455298D01*
X92394937Y-69457246D01*
X92489251Y-69463041D01*
X92564193Y-69473475D01*
X92626097Y-69488714D01*
X92779651Y-69546784D01*
X92900068Y-69618179D01*
X92988390Y-69704039D01*
X93045661Y-69805507D01*
X93072922Y-69923725D01*
X93075679Y-69981151D01*
X94302722Y-69981151D01*
X94301177Y-69858533D01*
X94288904Y-69729565D01*
X94279330Y-69677460D01*
X94218199Y-69483997D01*
X94125243Y-69305993D01*
X94002217Y-69145155D01*
X93850876Y-69003190D01*
X93672975Y-68881806D01*
X93470268Y-68782709D01*
X93297929Y-68722533D01*
X93182747Y-68690919D01*
X93072577Y-68666354D01*
X92960281Y-68648039D01*
X92838725Y-68635178D01*
X92700771Y-68626972D01*
X92539285Y-68622624D01*
X92393285Y-68621400D01*
X91960355Y-68620215D01*
X91968649Y-68490080D01*
X91992199Y-68348883D01*
X92042297Y-68227518D01*
X92116809Y-68129017D01*
X92213601Y-68056409D01*
X92298829Y-68020979D01*
X92420944Y-67998650D01*
X92566317Y-67995443D01*
X92728133Y-68010177D01*
X92899578Y-68041670D01*
X93073837Y-68088740D01*
X93244096Y-68150203D01*
X93367824Y-68206417D01*
X93427353Y-68235283D01*
X93472758Y-68255443D01*
X93495850Y-68263310D01*
X93497103Y-68263058D01*
X93505071Y-68245437D01*
X93524969Y-68198733D01*
X93554923Y-68127418D01*
X93593061Y-68035969D01*
X93637512Y-67928859D01*
X93682695Y-67819549D01*
X93863333Y-67381740D01*
X93734845Y-67360636D01*
X93679154Y-67350047D01*
X93595436Y-67332263D01*
X93490861Y-67308898D01*
X93372601Y-67281565D01*
X93247828Y-67251881D01*
X93198143Y-67239818D01*
X92983193Y-67189962D01*
X92795005Y-67152584D01*
X92626554Y-67126927D01*
X92470814Y-67112235D01*
X92320760Y-67107755D01*
X92169368Y-67112730D01*
X92169368Y-67112730D01*
G37*
X92169368Y-67112730D02*
X92079477Y-67119535D01*
X91822285Y-67153753D01*
X91594515Y-67208331D01*
X91395057Y-67284020D01*
X91222803Y-67381570D01*
X91076641Y-67501732D01*
X90955464Y-67645258D01*
X90858161Y-67812898D01*
X90787109Y-67994286D01*
X90769073Y-68052146D01*
X90753368Y-68106329D01*
X90739808Y-68159752D01*
X90728208Y-68215333D01*
X90718383Y-68275988D01*
X90710147Y-68344635D01*
X90703316Y-68424190D01*
X90697705Y-68517572D01*
X90693128Y-68627696D01*
X90689400Y-68757481D01*
X90686335Y-68909842D01*
X90683750Y-69087698D01*
X90681458Y-69293965D01*
X90679275Y-69531561D01*
X90677714Y-69717857D01*
X90667215Y-70996929D01*
X90599179Y-71120018D01*
X90566962Y-71179317D01*
X90542988Y-71225377D01*
X90531550Y-71249893D01*
X90531143Y-71251553D01*
X90548625Y-71253454D01*
X90598426Y-71255205D01*
X90676579Y-71256758D01*
X90779118Y-71258062D01*
X90902078Y-71259070D01*
X91041490Y-71259731D01*
X91193389Y-71259997D01*
X91211500Y-71260000D01*
X91891857Y-71260000D01*
X91891857Y-71105786D01*
X91893018Y-71036094D01*
X91896113Y-70982794D01*
X91900568Y-70954217D01*
X91902537Y-70951572D01*
X91920545Y-70962653D01*
X91957607Y-70991736D01*
X92005778Y-71032579D01*
X92006859Y-71033524D01*
X92094765Y-71098971D01*
X92205783Y-71164688D01*
X92327369Y-71224219D01*
X92446979Y-71271109D01*
X92499643Y-71287133D01*
X92604449Y-71307485D01*
X92733050Y-71320472D01*
X92873675Y-71325909D01*
X93014552Y-71323611D01*
X93143907Y-71313392D01*
X93234429Y-71298689D01*
X93456420Y-71233499D01*
X93656271Y-71140594D01*
X93832681Y-71021126D01*
X93984350Y-70876247D01*
X94109976Y-70707110D01*
X94208259Y-70514867D01*
X94250659Y-70398214D01*
X94277232Y-70284833D01*
X94294842Y-70148722D01*
X94302990Y-70002437D01*
X94302722Y-69981151D01*
X93075679Y-69981151D01*
X93065504Y-70089850D01*
X93031622Y-70180185D01*
X92969000Y-70263995D01*
X92944948Y-70288571D01*
X92859449Y-70355011D01*
X92760627Y-70397574D01*
X92642232Y-70418177D01*
X92517555Y-70419694D01*
X92399302Y-70409677D01*
X92308761Y-70390085D01*
X92269440Y-70375370D01*
X92198568Y-70335265D01*
X92123475Y-70278863D01*
X92054962Y-70215561D01*
X92003828Y-70154755D01*
X91990250Y-70132449D01*
X91979695Y-70101212D01*
X91972190Y-70051507D01*
X91967387Y-69978587D01*
X91964935Y-69877703D01*
X91964429Y-69781689D01*
X91964772Y-69669750D01*
X91966157Y-69588809D01*
X91969119Y-69533585D01*
X91974192Y-69498794D01*
X91981910Y-69479154D01*
X91992808Y-69469380D01*
X91996179Y-69467824D01*
X92025471Y-69463029D01*
X92083244Y-69459108D01*
X92161696Y-69456414D01*
X92253026Y-69455299D01*
X92272857Y-69455298D01*
X92394937Y-69457246D01*
X92489251Y-69463041D01*
X92564193Y-69473475D01*
X92626097Y-69488714D01*
X92779651Y-69546784D01*
X92900068Y-69618179D01*
X92988390Y-69704039D01*
X93045661Y-69805507D01*
X93072922Y-69923725D01*
X93075679Y-69981151D01*
X94302722Y-69981151D01*
X94301177Y-69858533D01*
X94288904Y-69729565D01*
X94279330Y-69677460D01*
X94218199Y-69483997D01*
X94125243Y-69305993D01*
X94002217Y-69145155D01*
X93850876Y-69003190D01*
X93672975Y-68881806D01*
X93470268Y-68782709D01*
X93297929Y-68722533D01*
X93182747Y-68690919D01*
X93072577Y-68666354D01*
X92960281Y-68648039D01*
X92838725Y-68635178D01*
X92700771Y-68626972D01*
X92539285Y-68622624D01*
X92393285Y-68621400D01*
X91960355Y-68620215D01*
X91968649Y-68490080D01*
X91992199Y-68348883D01*
X92042297Y-68227518D01*
X92116809Y-68129017D01*
X92213601Y-68056409D01*
X92298829Y-68020979D01*
X92420944Y-67998650D01*
X92566317Y-67995443D01*
X92728133Y-68010177D01*
X92899578Y-68041670D01*
X93073837Y-68088740D01*
X93244096Y-68150203D01*
X93367824Y-68206417D01*
X93427353Y-68235283D01*
X93472758Y-68255443D01*
X93495850Y-68263310D01*
X93497103Y-68263058D01*
X93505071Y-68245437D01*
X93524969Y-68198733D01*
X93554923Y-68127418D01*
X93593061Y-68035969D01*
X93637512Y-67928859D01*
X93682695Y-67819549D01*
X93863333Y-67381740D01*
X93734845Y-67360636D01*
X93679154Y-67350047D01*
X93595436Y-67332263D01*
X93490861Y-67308898D01*
X93372601Y-67281565D01*
X93247828Y-67251881D01*
X93198143Y-67239818D01*
X92983193Y-67189962D01*
X92795005Y-67152584D01*
X92626554Y-67126927D01*
X92470814Y-67112235D01*
X92320760Y-67107755D01*
X92169368Y-67112730D01*
G36*
X95773622Y-65654231D02*
X95577981Y-65675649D01*
X95388438Y-65713985D01*
X95197283Y-65771238D01*
X94996804Y-65849409D01*
X94779292Y-65950496D01*
X94740120Y-65970076D01*
X94650228Y-66014362D01*
X94565447Y-66054239D01*
X94494145Y-66085898D01*
X94444690Y-66105532D01*
X94437092Y-66108004D01*
X94364286Y-66129817D01*
X94690197Y-66603944D01*
X94769877Y-66719823D01*
X94842728Y-66825694D01*
X94906270Y-66917962D01*
X94958028Y-66993033D01*
X94995523Y-67047313D01*
X95016277Y-67077207D01*
X95019649Y-67081941D01*
X95033345Y-67072042D01*
X95067057Y-67042285D01*
X95114756Y-66998073D01*
X95141080Y-66973084D01*
X95290228Y-66854456D01*
X95457732Y-66764313D01*
X95602072Y-66714936D01*
X95688717Y-66699429D01*
X95797204Y-66689979D01*
X95914773Y-66686761D01*
X96028666Y-66689951D01*
X96126121Y-66699724D01*
X96165010Y-66707209D01*
X96340288Y-66767512D01*
X96498235Y-66859590D01*
X96638732Y-66983273D01*
X96761665Y-67138393D01*
X96866915Y-67324781D01*
X96954365Y-67542270D01*
X97023900Y-67790692D01*
X97065225Y-68003357D01*
X97076006Y-68097241D01*
X97083352Y-68218524D01*
X97087333Y-68358493D01*
X97088021Y-68508431D01*
X97085486Y-68659622D01*
X97079800Y-68803351D01*
X97071033Y-68930903D01*
X97059256Y-69033562D01*
X97056707Y-69049401D01*
X97000519Y-69304536D01*
X96923964Y-69530342D01*
X96826574Y-69727831D01*
X96707886Y-69898014D01*
X96623637Y-69990022D01*
X96472230Y-70114943D01*
X96306183Y-70207540D01*
X96128299Y-70267309D01*
X95941378Y-70293746D01*
X95748222Y-70286348D01*
X95551631Y-70244611D01*
X95435403Y-70203771D01*
X95274562Y-70121990D01*
X95108787Y-70004678D01*
X95015927Y-69925345D01*
X94963786Y-69879429D01*
X94922820Y-69845742D01*
X94899502Y-69829510D01*
X94896607Y-69829015D01*
X94886200Y-69845601D01*
X94859233Y-69889432D01*
X94818004Y-69956748D01*
X94764811Y-70043794D01*
X94701950Y-70146810D01*
X94631719Y-70262041D01*
X94592628Y-70326231D01*
X94294036Y-70816677D01*
X94666839Y-71000915D01*
X94801631Y-71067093D01*
X94910825Y-71119278D01*
X95001093Y-71160060D01*
X95079112Y-71192033D01*
X95151556Y-71217787D01*
X95225099Y-71239914D01*
X95306416Y-71261007D01*
X95384357Y-71279530D01*
X95453634Y-71293863D01*
X95526083Y-71304694D01*
X95608958Y-71312626D01*
X95709512Y-71318258D01*
X95834997Y-71322192D01*
X95919572Y-71323891D01*
X96040246Y-71325050D01*
X96155958Y-71324465D01*
X96259049Y-71322304D01*
X96341862Y-71318732D01*
X96396740Y-71313917D01*
X96399992Y-71313437D01*
X96684957Y-71251786D01*
X96952558Y-71158285D01*
X97202703Y-71032993D01*
X97435296Y-70875974D01*
X97650243Y-70687289D01*
X97847450Y-70467000D01*
X97990273Y-70271214D01*
X98142320Y-70014949D01*
X98265227Y-69744317D01*
X98359590Y-69457149D01*
X98426001Y-69151276D01*
X98465056Y-68824528D01*
X98477360Y-68492739D01*
X98467241Y-68171779D01*
X98435439Y-67875646D01*
X98380946Y-67599345D01*
X98302750Y-67337881D01*
X98199841Y-67086258D01*
X98187553Y-67060190D01*
X98052180Y-66816507D01*
X97885911Y-66584618D01*
X97693459Y-66369323D01*
X97479534Y-66175422D01*
X97248845Y-66007715D01*
X97033891Y-65884696D01*
X96816742Y-65788345D01*
X96599132Y-65718551D01*
X96372638Y-65673413D01*
X96128834Y-65651031D01*
X95983072Y-65647731D01*
X95773622Y-65654231D01*
X95773622Y-65654231D01*
G37*
X95773622Y-65654231D02*
X95577981Y-65675649D01*
X95388438Y-65713985D01*
X95197283Y-65771238D01*
X94996804Y-65849409D01*
X94779292Y-65950496D01*
X94740120Y-65970076D01*
X94650228Y-66014362D01*
X94565447Y-66054239D01*
X94494145Y-66085898D01*
X94444690Y-66105532D01*
X94437092Y-66108004D01*
X94364286Y-66129817D01*
X94690197Y-66603944D01*
X94769877Y-66719823D01*
X94842728Y-66825694D01*
X94906270Y-66917962D01*
X94958028Y-66993033D01*
X94995523Y-67047313D01*
X95016277Y-67077207D01*
X95019649Y-67081941D01*
X95033345Y-67072042D01*
X95067057Y-67042285D01*
X95114756Y-66998073D01*
X95141080Y-66973084D01*
X95290228Y-66854456D01*
X95457732Y-66764313D01*
X95602072Y-66714936D01*
X95688717Y-66699429D01*
X95797204Y-66689979D01*
X95914773Y-66686761D01*
X96028666Y-66689951D01*
X96126121Y-66699724D01*
X96165010Y-66707209D01*
X96340288Y-66767512D01*
X96498235Y-66859590D01*
X96638732Y-66983273D01*
X96761665Y-67138393D01*
X96866915Y-67324781D01*
X96954365Y-67542270D01*
X97023900Y-67790692D01*
X97065225Y-68003357D01*
X97076006Y-68097241D01*
X97083352Y-68218524D01*
X97087333Y-68358493D01*
X97088021Y-68508431D01*
X97085486Y-68659622D01*
X97079800Y-68803351D01*
X97071033Y-68930903D01*
X97059256Y-69033562D01*
X97056707Y-69049401D01*
X97000519Y-69304536D01*
X96923964Y-69530342D01*
X96826574Y-69727831D01*
X96707886Y-69898014D01*
X96623637Y-69990022D01*
X96472230Y-70114943D01*
X96306183Y-70207540D01*
X96128299Y-70267309D01*
X95941378Y-70293746D01*
X95748222Y-70286348D01*
X95551631Y-70244611D01*
X95435403Y-70203771D01*
X95274562Y-70121990D01*
X95108787Y-70004678D01*
X95015927Y-69925345D01*
X94963786Y-69879429D01*
X94922820Y-69845742D01*
X94899502Y-69829510D01*
X94896607Y-69829015D01*
X94886200Y-69845601D01*
X94859233Y-69889432D01*
X94818004Y-69956748D01*
X94764811Y-70043794D01*
X94701950Y-70146810D01*
X94631719Y-70262041D01*
X94592628Y-70326231D01*
X94294036Y-70816677D01*
X94666839Y-71000915D01*
X94801631Y-71067093D01*
X94910825Y-71119278D01*
X95001093Y-71160060D01*
X95079112Y-71192033D01*
X95151556Y-71217787D01*
X95225099Y-71239914D01*
X95306416Y-71261007D01*
X95384357Y-71279530D01*
X95453634Y-71293863D01*
X95526083Y-71304694D01*
X95608958Y-71312626D01*
X95709512Y-71318258D01*
X95834997Y-71322192D01*
X95919572Y-71323891D01*
X96040246Y-71325050D01*
X96155958Y-71324465D01*
X96259049Y-71322304D01*
X96341862Y-71318732D01*
X96396740Y-71313917D01*
X96399992Y-71313437D01*
X96684957Y-71251786D01*
X96952558Y-71158285D01*
X97202703Y-71032993D01*
X97435296Y-70875974D01*
X97650243Y-70687289D01*
X97847450Y-70467000D01*
X97990273Y-70271214D01*
X98142320Y-70014949D01*
X98265227Y-69744317D01*
X98359590Y-69457149D01*
X98426001Y-69151276D01*
X98465056Y-68824528D01*
X98477360Y-68492739D01*
X98467241Y-68171779D01*
X98435439Y-67875646D01*
X98380946Y-67599345D01*
X98302750Y-67337881D01*
X98199841Y-67086258D01*
X98187553Y-67060190D01*
X98052180Y-66816507D01*
X97885911Y-66584618D01*
X97693459Y-66369323D01*
X97479534Y-66175422D01*
X97248845Y-66007715D01*
X97033891Y-65884696D01*
X96816742Y-65788345D01*
X96599132Y-65718551D01*
X96372638Y-65673413D01*
X96128834Y-65651031D01*
X95983072Y-65647731D01*
X95773622Y-65654231D01*
G36*
X104225089Y-64746660D02*
X103875540Y-64746707D01*
X103712830Y-64746714D01*
X101108429Y-64746715D01*
X101108429Y-64900238D01*
X101092043Y-65087063D01*
X101042588Y-65259367D01*
X100959620Y-65418175D01*
X100842695Y-65564510D01*
X100803136Y-65604032D01*
X100660830Y-65716138D01*
X100503922Y-65797899D01*
X100337072Y-65849353D01*
X100164939Y-65870537D01*
X99992185Y-65861487D01*
X99823470Y-65822242D01*
X99663454Y-65752838D01*
X99516798Y-65653311D01*
X99450932Y-65593265D01*
X99328192Y-65446043D01*
X99238188Y-65284147D01*
X99181706Y-65109427D01*
X99159529Y-64923735D01*
X99159234Y-64905467D01*
X99158072Y-64746720D01*
X99088300Y-64746717D01*
X99026405Y-64755118D01*
X98969865Y-64775556D01*
X98966128Y-64777667D01*
X98953358Y-64784293D01*
X98941632Y-64789454D01*
X98930906Y-64794651D01*
X98921139Y-64801390D01*
X98912288Y-64811171D01*
X98904311Y-64825500D01*
X98897165Y-64845878D01*
X98890808Y-64873808D01*
X98885198Y-64910795D01*
X98880293Y-64958340D01*
X98876049Y-65017947D01*
X98872424Y-65091119D01*
X98869377Y-65179359D01*
X98866864Y-65284170D01*
X98864844Y-65407055D01*
X98863274Y-65549517D01*
X98862112Y-65713060D01*
X98861314Y-65899186D01*
X98860840Y-66109398D01*
X98860646Y-66345200D01*
X98860690Y-66608094D01*
X98860930Y-66899584D01*
X98861323Y-67221172D01*
X98861827Y-67574362D01*
X98862400Y-67960657D01*
X98862999Y-68381560D01*
X98863068Y-68432840D01*
X98863605Y-68856426D01*
X98864061Y-69245230D01*
X98864484Y-69600753D01*
X98864921Y-69924498D01*
X98865422Y-70217966D01*
X98866035Y-70482661D01*
X98866808Y-70720085D01*
X98867789Y-70931740D01*
X98869026Y-71119129D01*
X98870568Y-71283754D01*
X98872463Y-71427117D01*
X98874759Y-71550720D01*
X98877504Y-71656067D01*
X98880747Y-71744659D01*
X98884536Y-71818000D01*
X98888919Y-71877590D01*
X98893945Y-71924933D01*
X98899661Y-71961531D01*
X98906116Y-71988886D01*
X98913359Y-72008502D01*
X98921437Y-72021879D01*
X98930398Y-72030521D01*
X98940292Y-72035930D01*
X98951165Y-72039608D01*
X98963067Y-72043058D01*
X98976046Y-72047782D01*
X98979217Y-72049220D01*
X98989181Y-72052451D01*
X99005859Y-72055420D01*
X99030707Y-72058137D01*
X99065180Y-72060613D01*
X99110736Y-72062858D01*
X99168830Y-72064883D01*
X99240919Y-72066698D01*
X99328458Y-72068315D01*
X99432905Y-72069743D01*
X99555715Y-72070993D01*
X99698345Y-72072076D01*
X99862251Y-72073002D01*
X100048890Y-72073782D01*
X100259716Y-72074426D01*
X100496188Y-72074946D01*
X100759761Y-72075351D01*
X101051890Y-72075652D01*
X101374034Y-72075860D01*
X101727647Y-72075985D01*
X102114186Y-72076038D01*
X102535108Y-72076029D01*
X102671456Y-72076016D01*
X103101716Y-72075947D01*
X103497164Y-72075834D01*
X103859273Y-72075665D01*
X104189517Y-72075430D01*
X104489371Y-72075116D01*
X104760308Y-72074713D01*
X105003800Y-72074207D01*
X105221323Y-72073589D01*
X105414350Y-72072846D01*
X105584354Y-72071968D01*
X105732810Y-72070941D01*
X105861190Y-72069756D01*
X105970969Y-72068400D01*
X106063620Y-72066862D01*
X106140617Y-72065130D01*
X106203434Y-72063194D01*
X106253544Y-72061040D01*
X106292421Y-72058659D01*
X106321538Y-72056037D01*
X106342371Y-72053165D01*
X106356391Y-72050030D01*
X106364034Y-72047159D01*
X106377618Y-72041430D01*
X106390090Y-72037206D01*
X106401498Y-72032985D01*
X106411889Y-72027268D01*
X106421309Y-72018555D01*
X106429808Y-72005345D01*
X106437430Y-71986137D01*
X106444225Y-71959433D01*
X106450238Y-71923730D01*
X106455517Y-71877530D01*
X106460110Y-71819332D01*
X106464064Y-71747635D01*
X106467425Y-71660940D01*
X106470241Y-71557746D01*
X106472560Y-71436553D01*
X106474428Y-71295860D01*
X106474916Y-71241857D01*
X105990704Y-71241857D01*
X104279256Y-71241857D01*
X104312187Y-71191964D01*
X104344947Y-71140693D01*
X104372689Y-71091869D01*
X104395807Y-71042076D01*
X104414697Y-70987898D01*
X104429751Y-70925916D01*
X104441367Y-70852715D01*
X104449936Y-70764878D01*
X104455856Y-70658988D01*
X104459519Y-70531628D01*
X104461321Y-70379381D01*
X104461656Y-70198832D01*
X104460919Y-69986562D01*
X104460501Y-69907755D01*
X104455786Y-69062911D01*
X103920572Y-69791557D01*
X103768946Y-69998265D01*
X103637581Y-70178260D01*
X103525057Y-70333925D01*
X103429957Y-70467647D01*
X103350862Y-70581809D01*
X103286353Y-70678797D01*
X103235012Y-70760994D01*
X103195420Y-70830786D01*
X103166160Y-70890558D01*
X103145812Y-70942693D01*
X103132958Y-70989576D01*
X103126181Y-71033593D01*
X103124060Y-71077127D01*
X103125179Y-71122564D01*
X103125464Y-71128275D01*
X103131357Y-71241933D01*
X101255771Y-71241857D01*
X101395278Y-71101189D01*
X101433135Y-71062715D01*
X101469047Y-71025279D01*
X101504593Y-70986814D01*
X101541347Y-70945258D01*
X101580886Y-70898545D01*
X101624786Y-70844610D01*
X101674623Y-70781390D01*
X101731972Y-70706818D01*
X101798411Y-70618832D01*
X101875515Y-70515365D01*
X101964861Y-70394354D01*
X102068024Y-70253734D01*
X102186580Y-70091440D01*
X102322105Y-69905407D01*
X102476177Y-69693571D01*
X102602462Y-69519804D01*
X102760954Y-69301501D01*
X102899216Y-69110629D01*
X103018499Y-68945374D01*
X103120057Y-68803926D01*
X103205141Y-68684471D01*
X103275005Y-68585198D01*
X103330900Y-68504295D01*
X103374080Y-68439949D01*
X103405797Y-68390347D01*
X103427302Y-68353679D01*
X103439850Y-68328132D01*
X103444692Y-68311893D01*
X103443237Y-68303355D01*
X103425599Y-68280635D01*
X103387466Y-68232543D01*
X103331138Y-68161938D01*
X103258916Y-68071678D01*
X103173101Y-67964621D01*
X103075994Y-67843627D01*
X102969896Y-67711554D01*
X102857109Y-67571260D01*
X102739932Y-67425603D01*
X102620667Y-67277444D01*
X102555067Y-67196000D01*
X100926314Y-67196000D01*
X100858621Y-67318465D01*
X100790929Y-67440929D01*
X100790929Y-70996929D01*
X100858621Y-71119393D01*
X100926314Y-71241857D01*
X100125559Y-71241857D01*
X99934398Y-71241802D01*
X99776501Y-71241551D01*
X99648848Y-71240979D01*
X99548419Y-71239959D01*
X99472193Y-71238365D01*
X99417148Y-71236070D01*
X99380264Y-71232950D01*
X99358521Y-71228877D01*
X99348898Y-71223725D01*
X99348373Y-71217367D01*
X99353926Y-71209679D01*
X99353984Y-71209615D01*
X99376860Y-71176524D01*
X99407151Y-71122719D01*
X99433903Y-71069008D01*
X99484643Y-70960643D01*
X99489818Y-69078322D01*
X99494993Y-67196000D01*
X100926314Y-67196000D01*
X102555067Y-67196000D01*
X102501615Y-67129639D01*
X102385077Y-66985047D01*
X102273354Y-66846528D01*
X102168746Y-66716939D01*
X102073556Y-66599140D01*
X101990083Y-66495988D01*
X101920629Y-66410343D01*
X101867494Y-66345062D01*
X101836285Y-66307000D01*
X101715097Y-66164670D01*
X101598507Y-66036230D01*
X101490603Y-65925886D01*
X101395470Y-65837841D01*
X101327957Y-65783862D01*
X101248127Y-65726429D01*
X103084108Y-65726429D01*
X103083592Y-65834165D01*
X103088724Y-65913372D01*
X103108015Y-65986805D01*
X103137877Y-66056415D01*
X103157288Y-66095741D01*
X103178159Y-66134707D01*
X103202396Y-66175901D01*
X103231906Y-66221908D01*
X103268594Y-66275317D01*
X103314368Y-66338714D01*
X103371135Y-66414685D01*
X103440800Y-66505817D01*
X103525270Y-66614698D01*
X103626453Y-66743914D01*
X103746253Y-66896052D01*
X103886579Y-67073698D01*
X103902429Y-67093742D01*
X104455786Y-67793508D01*
X104461143Y-67018504D01*
X104462221Y-66786368D01*
X104461992Y-66589846D01*
X104460443Y-66428292D01*
X104457563Y-66301056D01*
X104453341Y-66207492D01*
X104447766Y-66146952D01*
X104445893Y-66135468D01*
X104416495Y-66014499D01*
X104377978Y-65905446D01*
X104334026Y-65817763D01*
X104307621Y-65780574D01*
X104262060Y-65726429D01*
X105126530Y-65726429D01*
X105332745Y-65726605D01*
X105505188Y-65727179D01*
X105646373Y-65728217D01*
X105758812Y-65729787D01*
X105845017Y-65731954D01*
X105907502Y-65734788D01*
X105948779Y-65738353D01*
X105971360Y-65742718D01*
X105977759Y-65747949D01*
X105977317Y-65749107D01*
X105958991Y-65776769D01*
X105928396Y-65820615D01*
X105912567Y-65842791D01*
X105896202Y-65864920D01*
X105881492Y-65884709D01*
X105868344Y-65904106D01*
X105856667Y-65925058D01*
X105846368Y-65949512D01*
X105837354Y-65979416D01*
X105829532Y-66016717D01*
X105822809Y-66063363D01*
X105817094Y-66121301D01*
X105812293Y-66192479D01*
X105808315Y-66278844D01*
X105805065Y-66382344D01*
X105802452Y-66504925D01*
X105800383Y-66648537D01*
X105798766Y-66815125D01*
X105797507Y-67006637D01*
X105796515Y-67225022D01*
X105795696Y-67472226D01*
X105794958Y-67750196D01*
X105794209Y-68060881D01*
X105793508Y-68346300D01*
X105792847Y-68664492D01*
X105792503Y-68968077D01*
X105792468Y-69255115D01*
X105792732Y-69523669D01*
X105793285Y-69771798D01*
X105794120Y-69997563D01*
X105795227Y-70199026D01*
X105796596Y-70374246D01*
X105798219Y-70521286D01*
X105800087Y-70638206D01*
X105802189Y-70723067D01*
X105804518Y-70773929D01*
X105804959Y-70779304D01*
X105821008Y-70902613D01*
X105846064Y-71001644D01*
X105884221Y-71088070D01*
X105939572Y-71173565D01*
X105946496Y-71182893D01*
X105990704Y-71241857D01*
X106474916Y-71241857D01*
X106475892Y-71134168D01*
X106477001Y-70949976D01*
X106477801Y-70741784D01*
X106478339Y-70508091D01*
X106478662Y-70247398D01*
X106478817Y-69958204D01*
X106478854Y-69639009D01*
X106478817Y-69288313D01*
X106478755Y-68904614D01*
X106478715Y-68486414D01*
X106478714Y-68403393D01*
X106478691Y-67980789D01*
X106478612Y-67592981D01*
X106478467Y-67238480D01*
X106478244Y-66915797D01*
X106477931Y-66623442D01*
X106477517Y-66359927D01*
X106476991Y-66123762D01*
X106476340Y-65913458D01*
X106475553Y-65727526D01*
X106474619Y-65564475D01*
X106473526Y-65422818D01*
X106472263Y-65301064D01*
X106470817Y-65197725D01*
X106469179Y-65111311D01*
X106467334Y-65040333D01*
X106465274Y-64983301D01*
X106462985Y-64938727D01*
X106460456Y-64905121D01*
X106457676Y-64880993D01*
X106454633Y-64864856D01*
X106451316Y-64855218D01*
X106451193Y-64854978D01*
X106444360Y-64840255D01*
X106438670Y-64826926D01*
X106432374Y-64814922D01*
X106423728Y-64804173D01*
X106410986Y-64794611D01*
X106392400Y-64786167D01*
X106366226Y-64778771D01*
X106330716Y-64772354D01*
X106284125Y-64766848D01*
X106224707Y-64762183D01*
X106150715Y-64758291D01*
X106060403Y-64755102D01*
X105952025Y-64752547D01*
X105823835Y-64750558D01*
X105674087Y-64749065D01*
X105501034Y-64747998D01*
X105302931Y-64747291D01*
X105078031Y-64746872D01*
X104824588Y-64746673D01*
X104540856Y-64746626D01*
X104225089Y-64746660D01*
X104225089Y-64746660D01*
G37*
X104225089Y-64746660D02*
X103875540Y-64746707D01*
X103712830Y-64746714D01*
X101108429Y-64746715D01*
X101108429Y-64900238D01*
X101092043Y-65087063D01*
X101042588Y-65259367D01*
X100959620Y-65418175D01*
X100842695Y-65564510D01*
X100803136Y-65604032D01*
X100660830Y-65716138D01*
X100503922Y-65797899D01*
X100337072Y-65849353D01*
X100164939Y-65870537D01*
X99992185Y-65861487D01*
X99823470Y-65822242D01*
X99663454Y-65752838D01*
X99516798Y-65653311D01*
X99450932Y-65593265D01*
X99328192Y-65446043D01*
X99238188Y-65284147D01*
X99181706Y-65109427D01*
X99159529Y-64923735D01*
X99159234Y-64905467D01*
X99158072Y-64746720D01*
X99088300Y-64746717D01*
X99026405Y-64755118D01*
X98969865Y-64775556D01*
X98966128Y-64777667D01*
X98953358Y-64784293D01*
X98941632Y-64789454D01*
X98930906Y-64794651D01*
X98921139Y-64801390D01*
X98912288Y-64811171D01*
X98904311Y-64825500D01*
X98897165Y-64845878D01*
X98890808Y-64873808D01*
X98885198Y-64910795D01*
X98880293Y-64958340D01*
X98876049Y-65017947D01*
X98872424Y-65091119D01*
X98869377Y-65179359D01*
X98866864Y-65284170D01*
X98864844Y-65407055D01*
X98863274Y-65549517D01*
X98862112Y-65713060D01*
X98861314Y-65899186D01*
X98860840Y-66109398D01*
X98860646Y-66345200D01*
X98860690Y-66608094D01*
X98860930Y-66899584D01*
X98861323Y-67221172D01*
X98861827Y-67574362D01*
X98862400Y-67960657D01*
X98862999Y-68381560D01*
X98863068Y-68432840D01*
X98863605Y-68856426D01*
X98864061Y-69245230D01*
X98864484Y-69600753D01*
X98864921Y-69924498D01*
X98865422Y-70217966D01*
X98866035Y-70482661D01*
X98866808Y-70720085D01*
X98867789Y-70931740D01*
X98869026Y-71119129D01*
X98870568Y-71283754D01*
X98872463Y-71427117D01*
X98874759Y-71550720D01*
X98877504Y-71656067D01*
X98880747Y-71744659D01*
X98884536Y-71818000D01*
X98888919Y-71877590D01*
X98893945Y-71924933D01*
X98899661Y-71961531D01*
X98906116Y-71988886D01*
X98913359Y-72008502D01*
X98921437Y-72021879D01*
X98930398Y-72030521D01*
X98940292Y-72035930D01*
X98951165Y-72039608D01*
X98963067Y-72043058D01*
X98976046Y-72047782D01*
X98979217Y-72049220D01*
X98989181Y-72052451D01*
X99005859Y-72055420D01*
X99030707Y-72058137D01*
X99065180Y-72060613D01*
X99110736Y-72062858D01*
X99168830Y-72064883D01*
X99240919Y-72066698D01*
X99328458Y-72068315D01*
X99432905Y-72069743D01*
X99555715Y-72070993D01*
X99698345Y-72072076D01*
X99862251Y-72073002D01*
X100048890Y-72073782D01*
X100259716Y-72074426D01*
X100496188Y-72074946D01*
X100759761Y-72075351D01*
X101051890Y-72075652D01*
X101374034Y-72075860D01*
X101727647Y-72075985D01*
X102114186Y-72076038D01*
X102535108Y-72076029D01*
X102671456Y-72076016D01*
X103101716Y-72075947D01*
X103497164Y-72075834D01*
X103859273Y-72075665D01*
X104189517Y-72075430D01*
X104489371Y-72075116D01*
X104760308Y-72074713D01*
X105003800Y-72074207D01*
X105221323Y-72073589D01*
X105414350Y-72072846D01*
X105584354Y-72071968D01*
X105732810Y-72070941D01*
X105861190Y-72069756D01*
X105970969Y-72068400D01*
X106063620Y-72066862D01*
X106140617Y-72065130D01*
X106203434Y-72063194D01*
X106253544Y-72061040D01*
X106292421Y-72058659D01*
X106321538Y-72056037D01*
X106342371Y-72053165D01*
X106356391Y-72050030D01*
X106364034Y-72047159D01*
X106377618Y-72041430D01*
X106390090Y-72037206D01*
X106401498Y-72032985D01*
X106411889Y-72027268D01*
X106421309Y-72018555D01*
X106429808Y-72005345D01*
X106437430Y-71986137D01*
X106444225Y-71959433D01*
X106450238Y-71923730D01*
X106455517Y-71877530D01*
X106460110Y-71819332D01*
X106464064Y-71747635D01*
X106467425Y-71660940D01*
X106470241Y-71557746D01*
X106472560Y-71436553D01*
X106474428Y-71295860D01*
X106474916Y-71241857D01*
X105990704Y-71241857D01*
X104279256Y-71241857D01*
X104312187Y-71191964D01*
X104344947Y-71140693D01*
X104372689Y-71091869D01*
X104395807Y-71042076D01*
X104414697Y-70987898D01*
X104429751Y-70925916D01*
X104441367Y-70852715D01*
X104449936Y-70764878D01*
X104455856Y-70658988D01*
X104459519Y-70531628D01*
X104461321Y-70379381D01*
X104461656Y-70198832D01*
X104460919Y-69986562D01*
X104460501Y-69907755D01*
X104455786Y-69062911D01*
X103920572Y-69791557D01*
X103768946Y-69998265D01*
X103637581Y-70178260D01*
X103525057Y-70333925D01*
X103429957Y-70467647D01*
X103350862Y-70581809D01*
X103286353Y-70678797D01*
X103235012Y-70760994D01*
X103195420Y-70830786D01*
X103166160Y-70890558D01*
X103145812Y-70942693D01*
X103132958Y-70989576D01*
X103126181Y-71033593D01*
X103124060Y-71077127D01*
X103125179Y-71122564D01*
X103125464Y-71128275D01*
X103131357Y-71241933D01*
X101255771Y-71241857D01*
X101395278Y-71101189D01*
X101433135Y-71062715D01*
X101469047Y-71025279D01*
X101504593Y-70986814D01*
X101541347Y-70945258D01*
X101580886Y-70898545D01*
X101624786Y-70844610D01*
X101674623Y-70781390D01*
X101731972Y-70706818D01*
X101798411Y-70618832D01*
X101875515Y-70515365D01*
X101964861Y-70394354D01*
X102068024Y-70253734D01*
X102186580Y-70091440D01*
X102322105Y-69905407D01*
X102476177Y-69693571D01*
X102602462Y-69519804D01*
X102760954Y-69301501D01*
X102899216Y-69110629D01*
X103018499Y-68945374D01*
X103120057Y-68803926D01*
X103205141Y-68684471D01*
X103275005Y-68585198D01*
X103330900Y-68504295D01*
X103374080Y-68439949D01*
X103405797Y-68390347D01*
X103427302Y-68353679D01*
X103439850Y-68328132D01*
X103444692Y-68311893D01*
X103443237Y-68303355D01*
X103425599Y-68280635D01*
X103387466Y-68232543D01*
X103331138Y-68161938D01*
X103258916Y-68071678D01*
X103173101Y-67964621D01*
X103075994Y-67843627D01*
X102969896Y-67711554D01*
X102857109Y-67571260D01*
X102739932Y-67425603D01*
X102620667Y-67277444D01*
X102555067Y-67196000D01*
X100926314Y-67196000D01*
X100858621Y-67318465D01*
X100790929Y-67440929D01*
X100790929Y-70996929D01*
X100858621Y-71119393D01*
X100926314Y-71241857D01*
X100125559Y-71241857D01*
X99934398Y-71241802D01*
X99776501Y-71241551D01*
X99648848Y-71240979D01*
X99548419Y-71239959D01*
X99472193Y-71238365D01*
X99417148Y-71236070D01*
X99380264Y-71232950D01*
X99358521Y-71228877D01*
X99348898Y-71223725D01*
X99348373Y-71217367D01*
X99353926Y-71209679D01*
X99353984Y-71209615D01*
X99376860Y-71176524D01*
X99407151Y-71122719D01*
X99433903Y-71069008D01*
X99484643Y-70960643D01*
X99489818Y-69078322D01*
X99494993Y-67196000D01*
X100926314Y-67196000D01*
X102555067Y-67196000D01*
X102501615Y-67129639D01*
X102385077Y-66985047D01*
X102273354Y-66846528D01*
X102168746Y-66716939D01*
X102073556Y-66599140D01*
X101990083Y-66495988D01*
X101920629Y-66410343D01*
X101867494Y-66345062D01*
X101836285Y-66307000D01*
X101715097Y-66164670D01*
X101598507Y-66036230D01*
X101490603Y-65925886D01*
X101395470Y-65837841D01*
X101327957Y-65783862D01*
X101248127Y-65726429D01*
X103084108Y-65726429D01*
X103083592Y-65834165D01*
X103088724Y-65913372D01*
X103108015Y-65986805D01*
X103137877Y-66056415D01*
X103157288Y-66095741D01*
X103178159Y-66134707D01*
X103202396Y-66175901D01*
X103231906Y-66221908D01*
X103268594Y-66275317D01*
X103314368Y-66338714D01*
X103371135Y-66414685D01*
X103440800Y-66505817D01*
X103525270Y-66614698D01*
X103626453Y-66743914D01*
X103746253Y-66896052D01*
X103886579Y-67073698D01*
X103902429Y-67093742D01*
X104455786Y-67793508D01*
X104461143Y-67018504D01*
X104462221Y-66786368D01*
X104461992Y-66589846D01*
X104460443Y-66428292D01*
X104457563Y-66301056D01*
X104453341Y-66207492D01*
X104447766Y-66146952D01*
X104445893Y-66135468D01*
X104416495Y-66014499D01*
X104377978Y-65905446D01*
X104334026Y-65817763D01*
X104307621Y-65780574D01*
X104262060Y-65726429D01*
X105126530Y-65726429D01*
X105332745Y-65726605D01*
X105505188Y-65727179D01*
X105646373Y-65728217D01*
X105758812Y-65729787D01*
X105845017Y-65731954D01*
X105907502Y-65734788D01*
X105948779Y-65738353D01*
X105971360Y-65742718D01*
X105977759Y-65747949D01*
X105977317Y-65749107D01*
X105958991Y-65776769D01*
X105928396Y-65820615D01*
X105912567Y-65842791D01*
X105896202Y-65864920D01*
X105881492Y-65884709D01*
X105868344Y-65904106D01*
X105856667Y-65925058D01*
X105846368Y-65949512D01*
X105837354Y-65979416D01*
X105829532Y-66016717D01*
X105822809Y-66063363D01*
X105817094Y-66121301D01*
X105812293Y-66192479D01*
X105808315Y-66278844D01*
X105805065Y-66382344D01*
X105802452Y-66504925D01*
X105800383Y-66648537D01*
X105798766Y-66815125D01*
X105797507Y-67006637D01*
X105796515Y-67225022D01*
X105795696Y-67472226D01*
X105794958Y-67750196D01*
X105794209Y-68060881D01*
X105793508Y-68346300D01*
X105792847Y-68664492D01*
X105792503Y-68968077D01*
X105792468Y-69255115D01*
X105792732Y-69523669D01*
X105793285Y-69771798D01*
X105794120Y-69997563D01*
X105795227Y-70199026D01*
X105796596Y-70374246D01*
X105798219Y-70521286D01*
X105800087Y-70638206D01*
X105802189Y-70723067D01*
X105804518Y-70773929D01*
X105804959Y-70779304D01*
X105821008Y-70902613D01*
X105846064Y-71001644D01*
X105884221Y-71088070D01*
X105939572Y-71173565D01*
X105946496Y-71182893D01*
X105990704Y-71241857D01*
X106474916Y-71241857D01*
X106475892Y-71134168D01*
X106477001Y-70949976D01*
X106477801Y-70741784D01*
X106478339Y-70508091D01*
X106478662Y-70247398D01*
X106478817Y-69958204D01*
X106478854Y-69639009D01*
X106478817Y-69288313D01*
X106478755Y-68904614D01*
X106478715Y-68486414D01*
X106478714Y-68403393D01*
X106478691Y-67980789D01*
X106478612Y-67592981D01*
X106478467Y-67238480D01*
X106478244Y-66915797D01*
X106477931Y-66623442D01*
X106477517Y-66359927D01*
X106476991Y-66123762D01*
X106476340Y-65913458D01*
X106475553Y-65727526D01*
X106474619Y-65564475D01*
X106473526Y-65422818D01*
X106472263Y-65301064D01*
X106470817Y-65197725D01*
X106469179Y-65111311D01*
X106467334Y-65040333D01*
X106465274Y-64983301D01*
X106462985Y-64938727D01*
X106460456Y-64905121D01*
X106457676Y-64880993D01*
X106454633Y-64864856D01*
X106451316Y-64855218D01*
X106451193Y-64854978D01*
X106444360Y-64840255D01*
X106438670Y-64826926D01*
X106432374Y-64814922D01*
X106423728Y-64804173D01*
X106410986Y-64794611D01*
X106392400Y-64786167D01*
X106366226Y-64778771D01*
X106330716Y-64772354D01*
X106284125Y-64766848D01*
X106224707Y-64762183D01*
X106150715Y-64758291D01*
X106060403Y-64755102D01*
X105952025Y-64752547D01*
X105823835Y-64750558D01*
X105674087Y-64749065D01*
X105501034Y-64747998D01*
X105302931Y-64747291D01*
X105078031Y-64746872D01*
X104824588Y-64746673D01*
X104540856Y-64746626D01*
X104225089Y-64746660D01*
D13*
G04 #@! TO.C,J6*
X131470000Y-132700000D02*
X131470000Y-129200000D01*
X127720000Y-126950000D02*
X127220000Y-126950000D01*
X123470000Y-129200000D02*
X123470000Y-132450000D01*
X127220000Y-134950000D02*
X127720000Y-134950000D01*
G04 #@! TO.C,J1*
D14*
X64573333Y-97782380D02*
X64573333Y-98496666D01*
X64620952Y-98639523D01*
X64716190Y-98734761D01*
X64859047Y-98782380D01*
X64954285Y-98782380D01*
X63573333Y-98782380D02*
X64144761Y-98782380D01*
X63859047Y-98782380D02*
X63859047Y-97782380D01*
X63954285Y-97925238D01*
X64049523Y-98020476D01*
X64144761Y-98068095D01*
G04 #@! TO.C,J2*
X66573333Y-107142380D02*
X66573333Y-107856666D01*
X66620952Y-107999523D01*
X66716190Y-108094761D01*
X66859047Y-108142380D01*
X66954285Y-108142380D01*
X66144761Y-107237619D02*
X66097142Y-107190000D01*
X66001904Y-107142380D01*
X65763809Y-107142380D01*
X65668571Y-107190000D01*
X65620952Y-107237619D01*
X65573333Y-107332857D01*
X65573333Y-107428095D01*
X65620952Y-107570952D01*
X66192380Y-108142380D01*
X65573333Y-108142380D01*
G04 #@! TO.C,J5*
X128803333Y-112857380D02*
X128803333Y-113571666D01*
X128850952Y-113714523D01*
X128946190Y-113809761D01*
X129089047Y-113857380D01*
X129184285Y-113857380D01*
X127850952Y-112857380D02*
X128327142Y-112857380D01*
X128374761Y-113333571D01*
X128327142Y-113285952D01*
X128231904Y-113238333D01*
X127993809Y-113238333D01*
X127898571Y-113285952D01*
X127850952Y-113333571D01*
X127803333Y-113428809D01*
X127803333Y-113666904D01*
X127850952Y-113762142D01*
X127898571Y-113809761D01*
X127993809Y-113857380D01*
X128231904Y-113857380D01*
X128327142Y-113809761D01*
X128374761Y-113762142D01*
G04 #@! TO.C,J7*
X128803333Y-69677380D02*
X128803333Y-70391666D01*
X128850952Y-70534523D01*
X128946190Y-70629761D01*
X129089047Y-70677380D01*
X129184285Y-70677380D01*
X128422380Y-69677380D02*
X127755714Y-69677380D01*
X128184285Y-70677380D01*
G04 #@! TO.C,J8*
X128803333Y-80472380D02*
X128803333Y-81186666D01*
X128850952Y-81329523D01*
X128946190Y-81424761D01*
X129089047Y-81472380D01*
X129184285Y-81472380D01*
X128184285Y-80900952D02*
X128279523Y-80853333D01*
X128327142Y-80805714D01*
X128374761Y-80710476D01*
X128374761Y-80662857D01*
X128327142Y-80567619D01*
X128279523Y-80520000D01*
X128184285Y-80472380D01*
X127993809Y-80472380D01*
X127898571Y-80520000D01*
X127850952Y-80567619D01*
X127803333Y-80662857D01*
X127803333Y-80710476D01*
X127850952Y-80805714D01*
X127898571Y-80853333D01*
X127993809Y-80900952D01*
X128184285Y-80900952D01*
X128279523Y-80948571D01*
X128327142Y-80996190D01*
X128374761Y-81091428D01*
X128374761Y-81281904D01*
X128327142Y-81377142D01*
X128279523Y-81424761D01*
X128184285Y-81472380D01*
X127993809Y-81472380D01*
X127898571Y-81424761D01*
X127850952Y-81377142D01*
X127803333Y-81281904D01*
X127803333Y-81091428D01*
X127850952Y-80996190D01*
X127898571Y-80948571D01*
X127993809Y-80900952D01*
G04 #@! TO.C,J9*
X126803333Y-104767380D02*
X126803333Y-105481666D01*
X126850952Y-105624523D01*
X126946190Y-105719761D01*
X127089047Y-105767380D01*
X127184285Y-105767380D01*
X126279523Y-105767380D02*
X126089047Y-105767380D01*
X125993809Y-105719761D01*
X125946190Y-105672142D01*
X125850952Y-105529285D01*
X125803333Y-105338809D01*
X125803333Y-104957857D01*
X125850952Y-104862619D01*
X125898571Y-104815000D01*
X125993809Y-104767380D01*
X126184285Y-104767380D01*
X126279523Y-104815000D01*
X126327142Y-104862619D01*
X126374761Y-104957857D01*
X126374761Y-105195952D01*
X126327142Y-105291190D01*
X126279523Y-105338809D01*
X126184285Y-105386428D01*
X125993809Y-105386428D01*
X125898571Y-105338809D01*
X125850952Y-105291190D01*
X125803333Y-105195952D01*
G04 #@! TO.C,J10*
X129279523Y-102062380D02*
X129279523Y-102776666D01*
X129327142Y-102919523D01*
X129422380Y-103014761D01*
X129565238Y-103062380D01*
X129660476Y-103062380D01*
X128279523Y-103062380D02*
X128850952Y-103062380D01*
X128565238Y-103062380D02*
X128565238Y-102062380D01*
X128660476Y-102205238D01*
X128755714Y-102300476D01*
X128850952Y-102348095D01*
X127660476Y-102062380D02*
X127565238Y-102062380D01*
X127470000Y-102110000D01*
X127422380Y-102157619D01*
X127374761Y-102252857D01*
X127327142Y-102443333D01*
X127327142Y-102681428D01*
X127374761Y-102871904D01*
X127422380Y-102967142D01*
X127470000Y-103014761D01*
X127565238Y-103062380D01*
X127660476Y-103062380D01*
X127755714Y-103014761D01*
X127803333Y-102967142D01*
X127850952Y-102871904D01*
X127898571Y-102681428D01*
X127898571Y-102443333D01*
X127850952Y-102252857D01*
X127803333Y-102157619D01*
X127755714Y-102110000D01*
X127660476Y-102062380D01*
G04 #@! TO.C,J6*
X128803333Y-123652380D02*
X128803333Y-124366666D01*
X128850952Y-124509523D01*
X128946190Y-124604761D01*
X129089047Y-124652380D01*
X129184285Y-124652380D01*
X127898571Y-123652380D02*
X128089047Y-123652380D01*
X128184285Y-123700000D01*
X128231904Y-123747619D01*
X128327142Y-123890476D01*
X128374761Y-124080952D01*
X128374761Y-124461904D01*
X128327142Y-124557142D01*
X128279523Y-124604761D01*
X128184285Y-124652380D01*
X127993809Y-124652380D01*
X127898571Y-124604761D01*
X127850952Y-124557142D01*
X127803333Y-124461904D01*
X127803333Y-124223809D01*
X127850952Y-124128571D01*
X127898571Y-124080952D01*
X127993809Y-124033333D01*
X128184285Y-124033333D01*
X128279523Y-124080952D01*
X128327142Y-124128571D01*
X128374761Y-124223809D01*
G04 #@! TD*
M02*
