M48
;DRILL file {KiCad (5.0.2)-1} date 5/25/2019 1:24:07 PM
;FORMAT={3:3/ absolute / metric / suppress leading zeros}
FMAT,2
METRIC,TZ
T1C0.400
T2C2.000
T3C3.400
%
G90
G05
T1
X85000Y-109250
X85000Y-112000
X85000Y-114250
X85500Y-81000
X85500Y-83000
X85500Y-85250
X85750Y-139000
X85750Y-141000
X85750Y-143500
X110000Y-138500
X110000Y-140750
X110000Y-143250
X110250Y-80250
X110250Y-82750
X110250Y-85250
X110750Y-109750
X110750Y-112000
X110750Y-114250
T2
X124970Y-116655
X124970Y-123655
X129970Y-116655
X129970Y-123655
X124970Y-84270
X124970Y-91270
X129970Y-84270
X129970Y-91270
X124970Y-105860
X124970Y-112860
X129970Y-105860
X129970Y-112860
X62740Y-110940
X62740Y-117940
X67740Y-110940
X67740Y-117940
X124970Y-127450
X124970Y-134450
X129970Y-127450
X129970Y-134450
X124970Y-73475
X124970Y-80475
X129970Y-73475
X129970Y-80475
X124970Y-95065
X124970Y-102065
X129970Y-95065
X129970Y-102065
X62740Y-88080
X62740Y-95080
X67740Y-88080
X67740Y-95080
T3
X132000Y-140000
X60000Y-140000
X60000Y-68000
X132000Y-68000
T0
M30
