G04 #@! TF.GenerationSoftware,KiCad,Pcbnew,(5.0.2)-1*
G04 #@! TF.CreationDate,2019-05-25T13:24:05-02:30*
G04 #@! TF.ProjectId,PowerPCB,506f7765-7250-4434-922e-6b696361645f,rev?*
G04 #@! TF.SameCoordinates,Original*
G04 #@! TF.FileFunction,Copper,L1,Top*
G04 #@! TF.FilePolarity,Positive*
%FSLAX46Y46*%
G04 Gerber Fmt 4.6, Leading zero omitted, Abs format (unit mm)*
G04 Created by KiCad (PCBNEW (5.0.2)-1) date 5/25/2019 1:24:05 PM*
%MOMM*%
%LPD*%
G01*
G04 APERTURE LIST*
G04 #@! TA.AperFunction,ComponentPad*
%ADD10C,6.000000*%
G04 #@! TD*
G04 #@! TA.AperFunction,ComponentPad*
%ADD11O,4.000000X2.150000*%
G04 #@! TD*
G04 #@! TA.AperFunction,SMDPad,CuDef*
%ADD12R,6.500000X6.500000*%
G04 #@! TD*
G04 #@! TA.AperFunction,ViaPad*
%ADD13C,0.800000*%
G04 #@! TD*
G04 #@! TA.AperFunction,Conductor*
%ADD14C,0.250000*%
G04 #@! TD*
G04 #@! TA.AperFunction,Conductor*
%ADD15C,3.000000*%
G04 #@! TD*
G04 #@! TA.AperFunction,Conductor*
%ADD16C,0.254000*%
G04 #@! TD*
G04 APERTURE END LIST*
D10*
G04 #@! TO.P,H1,1*
G04 #@! TO.N,GND*
X132000000Y-68000000D03*
G04 #@! TD*
G04 #@! TO.P,H2,1*
G04 #@! TO.N,GND*
X60000000Y-68000000D03*
G04 #@! TD*
G04 #@! TO.P,H3,1*
G04 #@! TO.N,GND*
X132000000Y-140000000D03*
G04 #@! TD*
G04 #@! TO.P,H4,1*
G04 #@! TO.N,GND*
X60000000Y-140000000D03*
G04 #@! TD*
D11*
G04 #@! TO.P,J1,1*
G04 #@! TO.N,+V*
X67740000Y-88080000D03*
X67740000Y-95080000D03*
X62740000Y-95080000D03*
X62740000Y-88080000D03*
G04 #@! TD*
G04 #@! TO.P,J2,1*
G04 #@! TO.N,GND*
X67740000Y-117940000D03*
X67740000Y-110940000D03*
X62740000Y-110940000D03*
X62740000Y-117940000D03*
G04 #@! TD*
G04 #@! TO.P,J5,1*
G04 #@! TO.N,Net-(J5-Pad1)*
X129970000Y-123655000D03*
X129970000Y-116655000D03*
X124970000Y-116655000D03*
X124970000Y-123655000D03*
G04 #@! TD*
G04 #@! TO.P,J7,1*
G04 #@! TO.N,Net-(J7-Pad1)*
X124970000Y-80475000D03*
X124970000Y-73475000D03*
X129970000Y-73475000D03*
X129970000Y-80475000D03*
G04 #@! TD*
G04 #@! TO.P,J8,1*
G04 #@! TO.N,GND*
X124970000Y-91270000D03*
X124970000Y-84270000D03*
X129970000Y-84270000D03*
X129970000Y-91270000D03*
G04 #@! TD*
G04 #@! TO.P,J9,1*
G04 #@! TO.N,Net-(J9-Pad1)*
X129970000Y-95065000D03*
X129970000Y-102065000D03*
X124970000Y-102065000D03*
X124970000Y-95065000D03*
G04 #@! TD*
G04 #@! TO.P,J10,1*
G04 #@! TO.N,GND*
X124970000Y-112860000D03*
X124970000Y-105860000D03*
X129970000Y-105860000D03*
X129970000Y-112860000D03*
G04 #@! TD*
G04 #@! TO.P,J6,1*
G04 #@! TO.N,GND*
X129970000Y-134450000D03*
X129970000Y-127450000D03*
X124970000Y-127450000D03*
X124970000Y-134450000D03*
G04 #@! TD*
D12*
G04 #@! TO.P,U2,3*
G04 #@! TO.N,Net-(J5-Pad1)*
X117000000Y-123560000D03*
G04 #@! TO.P,U2,2*
G04 #@! TO.N,GND*
X117000000Y-141560000D03*
X77000000Y-141560000D03*
G04 #@! TO.P,U2,1*
G04 #@! TO.N,+V*
X76750000Y-123810000D03*
G04 #@! TD*
G04 #@! TO.P,U3,1*
G04 #@! TO.N,+V*
X76900000Y-94250000D03*
G04 #@! TO.P,U3,2*
G04 #@! TO.N,GND*
X77150000Y-112000000D03*
X117150000Y-112000000D03*
G04 #@! TO.P,U3,3*
G04 #@! TO.N,Net-(J9-Pad1)*
X117150000Y-94000000D03*
G04 #@! TD*
G04 #@! TO.P,U4,3*
G04 #@! TO.N,Net-(J7-Pad1)*
X117000000Y-65140000D03*
G04 #@! TO.P,U4,2*
G04 #@! TO.N,GND*
X117000000Y-83140000D03*
X77000000Y-83140000D03*
G04 #@! TO.P,U4,1*
G04 #@! TO.N,+V*
X76750000Y-65390000D03*
G04 #@! TD*
D13*
G04 #@! TO.N,GND*
X85500000Y-81000000D03*
X85500000Y-83000000D03*
X85500000Y-85250000D03*
X85000000Y-109250000D03*
X85000000Y-112000000D03*
X85000000Y-114250000D03*
X85750000Y-139000000D03*
X85750000Y-141000000D03*
X85750000Y-143500000D03*
X110000000Y-138500000D03*
X110000000Y-140750000D03*
X110000000Y-143250000D03*
X110750000Y-114250000D03*
X110750000Y-112000000D03*
X110750000Y-109750000D03*
X110250000Y-85250000D03*
X110250000Y-82750000D03*
X110250000Y-80250000D03*
G04 #@! TD*
D14*
G04 #@! TO.N,GND*
X77000000Y-83140000D02*
X83360000Y-83140000D01*
X83360000Y-83140000D02*
X85500000Y-81000000D01*
X85500000Y-83000000D02*
X85500000Y-85250000D01*
X77150000Y-112000000D02*
X82250000Y-112000000D01*
X82250000Y-112000000D02*
X85000000Y-109250000D01*
X85000000Y-112000000D02*
X85000000Y-114250000D01*
X77000000Y-141560000D02*
X83190000Y-141560000D01*
X83190000Y-141560000D02*
X85750000Y-139000000D01*
X85750000Y-141000000D02*
X85750000Y-143500000D01*
X110440000Y-138500000D02*
X110000000Y-138500000D01*
X117000000Y-141560000D02*
X113500000Y-141560000D01*
X113500000Y-141560000D02*
X110440000Y-138500000D01*
X110000000Y-140750000D02*
X110000000Y-143250000D01*
X111400000Y-114250000D02*
X110750000Y-114250000D01*
X117150000Y-112000000D02*
X113650000Y-112000000D01*
X113650000Y-112000000D02*
X111400000Y-114250000D01*
X110750000Y-112000000D02*
X110750000Y-109750000D01*
X117000000Y-83140000D02*
X112360000Y-83140000D01*
X112360000Y-83140000D02*
X110250000Y-85250000D01*
X110250000Y-82750000D02*
X110250000Y-80250000D01*
D15*
G04 #@! TO.N,Net-(J5-Pad1)*
X124970000Y-116655000D02*
X124345000Y-116655000D01*
X124345000Y-116655000D02*
X122500000Y-118500000D01*
G04 #@! TO.N,Net-(J7-Pad1)*
X124970000Y-80475000D02*
X124970000Y-79470000D01*
X124970000Y-79470000D02*
X122750000Y-77250000D01*
X122750000Y-77250000D02*
X121500000Y-76000000D01*
G04 #@! TD*
D16*
G04 #@! TO.N,+V*
G36*
X82873000Y-78873000D02*
X73000000Y-78873000D01*
X72951399Y-78882667D01*
X72910197Y-78910197D01*
X72882667Y-78951399D01*
X72873000Y-79000000D01*
X72873000Y-87250000D01*
X72882667Y-87298601D01*
X72910197Y-87339803D01*
X72951399Y-87367333D01*
X73000000Y-87377000D01*
X82873000Y-87377000D01*
X82873000Y-107373000D01*
X72750000Y-107373000D01*
X72701399Y-107382667D01*
X72660197Y-107410197D01*
X72632667Y-107451399D01*
X72623000Y-107500000D01*
X72623000Y-116250000D01*
X72632667Y-116298601D01*
X72660197Y-116339803D01*
X72701399Y-116367333D01*
X72750000Y-116377000D01*
X82873000Y-116377000D01*
X82873000Y-137123000D01*
X72750000Y-137123000D01*
X72701399Y-137132667D01*
X72660197Y-137160197D01*
X72632667Y-137201399D01*
X72623000Y-137250000D01*
X72623000Y-146250000D01*
X72632667Y-146298601D01*
X72660197Y-146339803D01*
X72701399Y-146367333D01*
X72750000Y-146377000D01*
X82873000Y-146377000D01*
X82873000Y-149290000D01*
X62294092Y-149290000D01*
X57530698Y-144526606D01*
X58980176Y-145127000D01*
X61019824Y-145127000D01*
X62904212Y-144346461D01*
X64346461Y-142904212D01*
X65127000Y-141019824D01*
X65127000Y-138980176D01*
X64346461Y-137095788D01*
X62904212Y-135653539D01*
X61019824Y-134873000D01*
X58980176Y-134873000D01*
X57095788Y-135653539D01*
X55653539Y-137095788D01*
X54873000Y-138980176D01*
X54873000Y-141019824D01*
X55473394Y-142469303D01*
X50710000Y-137705910D01*
X50710000Y-124964750D01*
X72373000Y-124964750D01*
X72373000Y-127284174D01*
X72544576Y-127698394D01*
X72861606Y-128015425D01*
X73275826Y-128187000D01*
X75595250Y-128187000D01*
X75877000Y-127905250D01*
X75877000Y-124683000D01*
X77623000Y-124683000D01*
X77623000Y-127905250D01*
X77904750Y-128187000D01*
X80224174Y-128187000D01*
X80638394Y-128015425D01*
X80955424Y-127698394D01*
X81127000Y-127284174D01*
X81127000Y-124964750D01*
X80845250Y-124683000D01*
X77623000Y-124683000D01*
X75877000Y-124683000D01*
X72654750Y-124683000D01*
X72373000Y-124964750D01*
X50710000Y-124964750D01*
X50710000Y-120335826D01*
X72373000Y-120335826D01*
X72373000Y-122655250D01*
X72654750Y-122937000D01*
X75877000Y-122937000D01*
X75877000Y-119714750D01*
X77623000Y-119714750D01*
X77623000Y-122937000D01*
X80845250Y-122937000D01*
X81127000Y-122655250D01*
X81127000Y-120335826D01*
X80955424Y-119921606D01*
X80638394Y-119604575D01*
X80224174Y-119433000D01*
X77904750Y-119433000D01*
X77623000Y-119714750D01*
X75877000Y-119714750D01*
X75595250Y-119433000D01*
X73275826Y-119433000D01*
X72861606Y-119604575D01*
X72544576Y-119921606D01*
X72373000Y-120335826D01*
X50710000Y-120335826D01*
X50710000Y-117940000D01*
X60071500Y-117940000D01*
X60204216Y-118607209D01*
X60582159Y-119172841D01*
X61147791Y-119550784D01*
X61646584Y-119650000D01*
X63833416Y-119650000D01*
X64332209Y-119550784D01*
X64897841Y-119172841D01*
X65240000Y-118660764D01*
X65582159Y-119172841D01*
X66147791Y-119550784D01*
X66646584Y-119650000D01*
X68833416Y-119650000D01*
X69332209Y-119550784D01*
X69897841Y-119172841D01*
X70275784Y-118607209D01*
X70408500Y-117940000D01*
X70275784Y-117272791D01*
X69897841Y-116707159D01*
X69332209Y-116329216D01*
X68833416Y-116230000D01*
X66646584Y-116230000D01*
X66147791Y-116329216D01*
X65582159Y-116707159D01*
X65240000Y-117219236D01*
X64897841Y-116707159D01*
X64332209Y-116329216D01*
X63833416Y-116230000D01*
X61646584Y-116230000D01*
X61147791Y-116329216D01*
X60582159Y-116707159D01*
X60204216Y-117272791D01*
X60071500Y-117940000D01*
X50710000Y-117940000D01*
X50710000Y-110940000D01*
X60071500Y-110940000D01*
X60204216Y-111607209D01*
X60582159Y-112172841D01*
X61147791Y-112550784D01*
X61646584Y-112650000D01*
X63833416Y-112650000D01*
X64332209Y-112550784D01*
X64897841Y-112172841D01*
X65240000Y-111660764D01*
X65582159Y-112172841D01*
X66147791Y-112550784D01*
X66646584Y-112650000D01*
X68833416Y-112650000D01*
X69332209Y-112550784D01*
X69897841Y-112172841D01*
X70275784Y-111607209D01*
X70408500Y-110940000D01*
X70275784Y-110272791D01*
X69897841Y-109707159D01*
X69332209Y-109329216D01*
X68833416Y-109230000D01*
X66646584Y-109230000D01*
X66147791Y-109329216D01*
X65582159Y-109707159D01*
X65240000Y-110219236D01*
X64897841Y-109707159D01*
X64332209Y-109329216D01*
X63833416Y-109230000D01*
X61646584Y-109230000D01*
X61147791Y-109329216D01*
X60582159Y-109707159D01*
X60204216Y-110272791D01*
X60071500Y-110940000D01*
X50710000Y-110940000D01*
X50710000Y-95944931D01*
X59789982Y-95944931D01*
X60055792Y-96422416D01*
X60703424Y-96993450D01*
X61520283Y-97273179D01*
X61867000Y-97010531D01*
X61867000Y-95617500D01*
X63613000Y-95617500D01*
X63613000Y-97010531D01*
X63959717Y-97273179D01*
X64776576Y-96993450D01*
X65240000Y-96584837D01*
X65703424Y-96993450D01*
X66520283Y-97273179D01*
X66867000Y-97010531D01*
X66867000Y-95617500D01*
X68613000Y-95617500D01*
X68613000Y-97010531D01*
X68959717Y-97273179D01*
X69776576Y-96993450D01*
X70424208Y-96422416D01*
X70690018Y-95944931D01*
X70508490Y-95617500D01*
X68613000Y-95617500D01*
X66867000Y-95617500D01*
X63613000Y-95617500D01*
X61867000Y-95617500D01*
X59971510Y-95617500D01*
X59789982Y-95944931D01*
X50710000Y-95944931D01*
X50710000Y-95404750D01*
X72523000Y-95404750D01*
X72523000Y-97724174D01*
X72694576Y-98138394D01*
X73011606Y-98455425D01*
X73425826Y-98627000D01*
X75745250Y-98627000D01*
X76027000Y-98345250D01*
X76027000Y-95123000D01*
X77773000Y-95123000D01*
X77773000Y-98345250D01*
X78054750Y-98627000D01*
X80374174Y-98627000D01*
X80788394Y-98455425D01*
X81105424Y-98138394D01*
X81277000Y-97724174D01*
X81277000Y-95404750D01*
X80995250Y-95123000D01*
X77773000Y-95123000D01*
X76027000Y-95123000D01*
X72804750Y-95123000D01*
X72523000Y-95404750D01*
X50710000Y-95404750D01*
X50710000Y-94215069D01*
X59789982Y-94215069D01*
X59971510Y-94542500D01*
X61867000Y-94542500D01*
X61867000Y-93149469D01*
X63613000Y-93149469D01*
X63613000Y-94542500D01*
X66867000Y-94542500D01*
X66867000Y-93149469D01*
X68613000Y-93149469D01*
X68613000Y-94542500D01*
X70508490Y-94542500D01*
X70690018Y-94215069D01*
X70424208Y-93737584D01*
X69776576Y-93166550D01*
X68959717Y-92886821D01*
X68613000Y-93149469D01*
X66867000Y-93149469D01*
X66520283Y-92886821D01*
X65703424Y-93166550D01*
X65240000Y-93575163D01*
X64776576Y-93166550D01*
X63959717Y-92886821D01*
X63613000Y-93149469D01*
X61867000Y-93149469D01*
X61520283Y-92886821D01*
X60703424Y-93166550D01*
X60055792Y-93737584D01*
X59789982Y-94215069D01*
X50710000Y-94215069D01*
X50710000Y-90775826D01*
X72523000Y-90775826D01*
X72523000Y-93095250D01*
X72804750Y-93377000D01*
X76027000Y-93377000D01*
X76027000Y-90154750D01*
X77773000Y-90154750D01*
X77773000Y-93377000D01*
X80995250Y-93377000D01*
X81277000Y-93095250D01*
X81277000Y-90775826D01*
X81105424Y-90361606D01*
X80788394Y-90044575D01*
X80374174Y-89873000D01*
X78054750Y-89873000D01*
X77773000Y-90154750D01*
X76027000Y-90154750D01*
X75745250Y-89873000D01*
X73425826Y-89873000D01*
X73011606Y-90044575D01*
X72694576Y-90361606D01*
X72523000Y-90775826D01*
X50710000Y-90775826D01*
X50710000Y-88944931D01*
X59789982Y-88944931D01*
X60055792Y-89422416D01*
X60703424Y-89993450D01*
X61520283Y-90273179D01*
X61867000Y-90010531D01*
X61867000Y-88617500D01*
X63613000Y-88617500D01*
X63613000Y-90010531D01*
X63959717Y-90273179D01*
X64776576Y-89993450D01*
X65240000Y-89584837D01*
X65703424Y-89993450D01*
X66520283Y-90273179D01*
X66867000Y-90010531D01*
X66867000Y-88617500D01*
X68613000Y-88617500D01*
X68613000Y-90010531D01*
X68959717Y-90273179D01*
X69776576Y-89993450D01*
X70424208Y-89422416D01*
X70690018Y-88944931D01*
X70508490Y-88617500D01*
X68613000Y-88617500D01*
X66867000Y-88617500D01*
X63613000Y-88617500D01*
X61867000Y-88617500D01*
X59971510Y-88617500D01*
X59789982Y-88944931D01*
X50710000Y-88944931D01*
X50710000Y-87215069D01*
X59789982Y-87215069D01*
X59971510Y-87542500D01*
X61867000Y-87542500D01*
X61867000Y-86149469D01*
X63613000Y-86149469D01*
X63613000Y-87542500D01*
X66867000Y-87542500D01*
X66867000Y-86149469D01*
X68613000Y-86149469D01*
X68613000Y-87542500D01*
X70508490Y-87542500D01*
X70690018Y-87215069D01*
X70424208Y-86737584D01*
X69776576Y-86166550D01*
X68959717Y-85886821D01*
X68613000Y-86149469D01*
X66867000Y-86149469D01*
X66520283Y-85886821D01*
X65703424Y-86166550D01*
X65240000Y-86575163D01*
X64776576Y-86166550D01*
X63959717Y-85886821D01*
X63613000Y-86149469D01*
X61867000Y-86149469D01*
X61520283Y-85886821D01*
X60703424Y-86166550D01*
X60055792Y-86737584D01*
X59789982Y-87215069D01*
X50710000Y-87215069D01*
X50710000Y-70294090D01*
X55473394Y-65530697D01*
X54873000Y-66980176D01*
X54873000Y-69019824D01*
X55653539Y-70904212D01*
X57095788Y-72346461D01*
X58980176Y-73127000D01*
X61019824Y-73127000D01*
X62904212Y-72346461D01*
X64346461Y-70904212D01*
X65127000Y-69019824D01*
X65127000Y-66980176D01*
X64946641Y-66544750D01*
X72373000Y-66544750D01*
X72373000Y-68864174D01*
X72544576Y-69278394D01*
X72861606Y-69595425D01*
X73275826Y-69767000D01*
X75595250Y-69767000D01*
X75877000Y-69485250D01*
X75877000Y-66263000D01*
X77623000Y-66263000D01*
X77623000Y-69485250D01*
X77904750Y-69767000D01*
X80224174Y-69767000D01*
X80638394Y-69595425D01*
X80955424Y-69278394D01*
X81127000Y-68864174D01*
X81127000Y-66544750D01*
X80845250Y-66263000D01*
X77623000Y-66263000D01*
X75877000Y-66263000D01*
X72654750Y-66263000D01*
X72373000Y-66544750D01*
X64946641Y-66544750D01*
X64346461Y-65095788D01*
X62904212Y-63653539D01*
X61019824Y-62873000D01*
X58980176Y-62873000D01*
X57530698Y-63473394D01*
X59088266Y-61915826D01*
X72373000Y-61915826D01*
X72373000Y-64235250D01*
X72654750Y-64517000D01*
X75877000Y-64517000D01*
X75877000Y-61294750D01*
X77623000Y-61294750D01*
X77623000Y-64517000D01*
X80845250Y-64517000D01*
X81127000Y-64235250D01*
X81127000Y-61915826D01*
X80955424Y-61501606D01*
X80638394Y-61184575D01*
X80224174Y-61013000D01*
X77904750Y-61013000D01*
X77623000Y-61294750D01*
X75877000Y-61294750D01*
X75595250Y-61013000D01*
X73275826Y-61013000D01*
X72861606Y-61184575D01*
X72544576Y-61501606D01*
X72373000Y-61915826D01*
X59088266Y-61915826D01*
X62294092Y-58710000D01*
X82873000Y-58710000D01*
X82873000Y-78873000D01*
X82873000Y-78873000D01*
G37*
X82873000Y-78873000D02*
X73000000Y-78873000D01*
X72951399Y-78882667D01*
X72910197Y-78910197D01*
X72882667Y-78951399D01*
X72873000Y-79000000D01*
X72873000Y-87250000D01*
X72882667Y-87298601D01*
X72910197Y-87339803D01*
X72951399Y-87367333D01*
X73000000Y-87377000D01*
X82873000Y-87377000D01*
X82873000Y-107373000D01*
X72750000Y-107373000D01*
X72701399Y-107382667D01*
X72660197Y-107410197D01*
X72632667Y-107451399D01*
X72623000Y-107500000D01*
X72623000Y-116250000D01*
X72632667Y-116298601D01*
X72660197Y-116339803D01*
X72701399Y-116367333D01*
X72750000Y-116377000D01*
X82873000Y-116377000D01*
X82873000Y-137123000D01*
X72750000Y-137123000D01*
X72701399Y-137132667D01*
X72660197Y-137160197D01*
X72632667Y-137201399D01*
X72623000Y-137250000D01*
X72623000Y-146250000D01*
X72632667Y-146298601D01*
X72660197Y-146339803D01*
X72701399Y-146367333D01*
X72750000Y-146377000D01*
X82873000Y-146377000D01*
X82873000Y-149290000D01*
X62294092Y-149290000D01*
X57530698Y-144526606D01*
X58980176Y-145127000D01*
X61019824Y-145127000D01*
X62904212Y-144346461D01*
X64346461Y-142904212D01*
X65127000Y-141019824D01*
X65127000Y-138980176D01*
X64346461Y-137095788D01*
X62904212Y-135653539D01*
X61019824Y-134873000D01*
X58980176Y-134873000D01*
X57095788Y-135653539D01*
X55653539Y-137095788D01*
X54873000Y-138980176D01*
X54873000Y-141019824D01*
X55473394Y-142469303D01*
X50710000Y-137705910D01*
X50710000Y-124964750D01*
X72373000Y-124964750D01*
X72373000Y-127284174D01*
X72544576Y-127698394D01*
X72861606Y-128015425D01*
X73275826Y-128187000D01*
X75595250Y-128187000D01*
X75877000Y-127905250D01*
X75877000Y-124683000D01*
X77623000Y-124683000D01*
X77623000Y-127905250D01*
X77904750Y-128187000D01*
X80224174Y-128187000D01*
X80638394Y-128015425D01*
X80955424Y-127698394D01*
X81127000Y-127284174D01*
X81127000Y-124964750D01*
X80845250Y-124683000D01*
X77623000Y-124683000D01*
X75877000Y-124683000D01*
X72654750Y-124683000D01*
X72373000Y-124964750D01*
X50710000Y-124964750D01*
X50710000Y-120335826D01*
X72373000Y-120335826D01*
X72373000Y-122655250D01*
X72654750Y-122937000D01*
X75877000Y-122937000D01*
X75877000Y-119714750D01*
X77623000Y-119714750D01*
X77623000Y-122937000D01*
X80845250Y-122937000D01*
X81127000Y-122655250D01*
X81127000Y-120335826D01*
X80955424Y-119921606D01*
X80638394Y-119604575D01*
X80224174Y-119433000D01*
X77904750Y-119433000D01*
X77623000Y-119714750D01*
X75877000Y-119714750D01*
X75595250Y-119433000D01*
X73275826Y-119433000D01*
X72861606Y-119604575D01*
X72544576Y-119921606D01*
X72373000Y-120335826D01*
X50710000Y-120335826D01*
X50710000Y-117940000D01*
X60071500Y-117940000D01*
X60204216Y-118607209D01*
X60582159Y-119172841D01*
X61147791Y-119550784D01*
X61646584Y-119650000D01*
X63833416Y-119650000D01*
X64332209Y-119550784D01*
X64897841Y-119172841D01*
X65240000Y-118660764D01*
X65582159Y-119172841D01*
X66147791Y-119550784D01*
X66646584Y-119650000D01*
X68833416Y-119650000D01*
X69332209Y-119550784D01*
X69897841Y-119172841D01*
X70275784Y-118607209D01*
X70408500Y-117940000D01*
X70275784Y-117272791D01*
X69897841Y-116707159D01*
X69332209Y-116329216D01*
X68833416Y-116230000D01*
X66646584Y-116230000D01*
X66147791Y-116329216D01*
X65582159Y-116707159D01*
X65240000Y-117219236D01*
X64897841Y-116707159D01*
X64332209Y-116329216D01*
X63833416Y-116230000D01*
X61646584Y-116230000D01*
X61147791Y-116329216D01*
X60582159Y-116707159D01*
X60204216Y-117272791D01*
X60071500Y-117940000D01*
X50710000Y-117940000D01*
X50710000Y-110940000D01*
X60071500Y-110940000D01*
X60204216Y-111607209D01*
X60582159Y-112172841D01*
X61147791Y-112550784D01*
X61646584Y-112650000D01*
X63833416Y-112650000D01*
X64332209Y-112550784D01*
X64897841Y-112172841D01*
X65240000Y-111660764D01*
X65582159Y-112172841D01*
X66147791Y-112550784D01*
X66646584Y-112650000D01*
X68833416Y-112650000D01*
X69332209Y-112550784D01*
X69897841Y-112172841D01*
X70275784Y-111607209D01*
X70408500Y-110940000D01*
X70275784Y-110272791D01*
X69897841Y-109707159D01*
X69332209Y-109329216D01*
X68833416Y-109230000D01*
X66646584Y-109230000D01*
X66147791Y-109329216D01*
X65582159Y-109707159D01*
X65240000Y-110219236D01*
X64897841Y-109707159D01*
X64332209Y-109329216D01*
X63833416Y-109230000D01*
X61646584Y-109230000D01*
X61147791Y-109329216D01*
X60582159Y-109707159D01*
X60204216Y-110272791D01*
X60071500Y-110940000D01*
X50710000Y-110940000D01*
X50710000Y-95944931D01*
X59789982Y-95944931D01*
X60055792Y-96422416D01*
X60703424Y-96993450D01*
X61520283Y-97273179D01*
X61867000Y-97010531D01*
X61867000Y-95617500D01*
X63613000Y-95617500D01*
X63613000Y-97010531D01*
X63959717Y-97273179D01*
X64776576Y-96993450D01*
X65240000Y-96584837D01*
X65703424Y-96993450D01*
X66520283Y-97273179D01*
X66867000Y-97010531D01*
X66867000Y-95617500D01*
X68613000Y-95617500D01*
X68613000Y-97010531D01*
X68959717Y-97273179D01*
X69776576Y-96993450D01*
X70424208Y-96422416D01*
X70690018Y-95944931D01*
X70508490Y-95617500D01*
X68613000Y-95617500D01*
X66867000Y-95617500D01*
X63613000Y-95617500D01*
X61867000Y-95617500D01*
X59971510Y-95617500D01*
X59789982Y-95944931D01*
X50710000Y-95944931D01*
X50710000Y-95404750D01*
X72523000Y-95404750D01*
X72523000Y-97724174D01*
X72694576Y-98138394D01*
X73011606Y-98455425D01*
X73425826Y-98627000D01*
X75745250Y-98627000D01*
X76027000Y-98345250D01*
X76027000Y-95123000D01*
X77773000Y-95123000D01*
X77773000Y-98345250D01*
X78054750Y-98627000D01*
X80374174Y-98627000D01*
X80788394Y-98455425D01*
X81105424Y-98138394D01*
X81277000Y-97724174D01*
X81277000Y-95404750D01*
X80995250Y-95123000D01*
X77773000Y-95123000D01*
X76027000Y-95123000D01*
X72804750Y-95123000D01*
X72523000Y-95404750D01*
X50710000Y-95404750D01*
X50710000Y-94215069D01*
X59789982Y-94215069D01*
X59971510Y-94542500D01*
X61867000Y-94542500D01*
X61867000Y-93149469D01*
X63613000Y-93149469D01*
X63613000Y-94542500D01*
X66867000Y-94542500D01*
X66867000Y-93149469D01*
X68613000Y-93149469D01*
X68613000Y-94542500D01*
X70508490Y-94542500D01*
X70690018Y-94215069D01*
X70424208Y-93737584D01*
X69776576Y-93166550D01*
X68959717Y-92886821D01*
X68613000Y-93149469D01*
X66867000Y-93149469D01*
X66520283Y-92886821D01*
X65703424Y-93166550D01*
X65240000Y-93575163D01*
X64776576Y-93166550D01*
X63959717Y-92886821D01*
X63613000Y-93149469D01*
X61867000Y-93149469D01*
X61520283Y-92886821D01*
X60703424Y-93166550D01*
X60055792Y-93737584D01*
X59789982Y-94215069D01*
X50710000Y-94215069D01*
X50710000Y-90775826D01*
X72523000Y-90775826D01*
X72523000Y-93095250D01*
X72804750Y-93377000D01*
X76027000Y-93377000D01*
X76027000Y-90154750D01*
X77773000Y-90154750D01*
X77773000Y-93377000D01*
X80995250Y-93377000D01*
X81277000Y-93095250D01*
X81277000Y-90775826D01*
X81105424Y-90361606D01*
X80788394Y-90044575D01*
X80374174Y-89873000D01*
X78054750Y-89873000D01*
X77773000Y-90154750D01*
X76027000Y-90154750D01*
X75745250Y-89873000D01*
X73425826Y-89873000D01*
X73011606Y-90044575D01*
X72694576Y-90361606D01*
X72523000Y-90775826D01*
X50710000Y-90775826D01*
X50710000Y-88944931D01*
X59789982Y-88944931D01*
X60055792Y-89422416D01*
X60703424Y-89993450D01*
X61520283Y-90273179D01*
X61867000Y-90010531D01*
X61867000Y-88617500D01*
X63613000Y-88617500D01*
X63613000Y-90010531D01*
X63959717Y-90273179D01*
X64776576Y-89993450D01*
X65240000Y-89584837D01*
X65703424Y-89993450D01*
X66520283Y-90273179D01*
X66867000Y-90010531D01*
X66867000Y-88617500D01*
X68613000Y-88617500D01*
X68613000Y-90010531D01*
X68959717Y-90273179D01*
X69776576Y-89993450D01*
X70424208Y-89422416D01*
X70690018Y-88944931D01*
X70508490Y-88617500D01*
X68613000Y-88617500D01*
X66867000Y-88617500D01*
X63613000Y-88617500D01*
X61867000Y-88617500D01*
X59971510Y-88617500D01*
X59789982Y-88944931D01*
X50710000Y-88944931D01*
X50710000Y-87215069D01*
X59789982Y-87215069D01*
X59971510Y-87542500D01*
X61867000Y-87542500D01*
X61867000Y-86149469D01*
X63613000Y-86149469D01*
X63613000Y-87542500D01*
X66867000Y-87542500D01*
X66867000Y-86149469D01*
X68613000Y-86149469D01*
X68613000Y-87542500D01*
X70508490Y-87542500D01*
X70690018Y-87215069D01*
X70424208Y-86737584D01*
X69776576Y-86166550D01*
X68959717Y-85886821D01*
X68613000Y-86149469D01*
X66867000Y-86149469D01*
X66520283Y-85886821D01*
X65703424Y-86166550D01*
X65240000Y-86575163D01*
X64776576Y-86166550D01*
X63959717Y-85886821D01*
X63613000Y-86149469D01*
X61867000Y-86149469D01*
X61520283Y-85886821D01*
X60703424Y-86166550D01*
X60055792Y-86737584D01*
X59789982Y-87215069D01*
X50710000Y-87215069D01*
X50710000Y-70294090D01*
X55473394Y-65530697D01*
X54873000Y-66980176D01*
X54873000Y-69019824D01*
X55653539Y-70904212D01*
X57095788Y-72346461D01*
X58980176Y-73127000D01*
X61019824Y-73127000D01*
X62904212Y-72346461D01*
X64346461Y-70904212D01*
X65127000Y-69019824D01*
X65127000Y-66980176D01*
X64946641Y-66544750D01*
X72373000Y-66544750D01*
X72373000Y-68864174D01*
X72544576Y-69278394D01*
X72861606Y-69595425D01*
X73275826Y-69767000D01*
X75595250Y-69767000D01*
X75877000Y-69485250D01*
X75877000Y-66263000D01*
X77623000Y-66263000D01*
X77623000Y-69485250D01*
X77904750Y-69767000D01*
X80224174Y-69767000D01*
X80638394Y-69595425D01*
X80955424Y-69278394D01*
X81127000Y-68864174D01*
X81127000Y-66544750D01*
X80845250Y-66263000D01*
X77623000Y-66263000D01*
X75877000Y-66263000D01*
X72654750Y-66263000D01*
X72373000Y-66544750D01*
X64946641Y-66544750D01*
X64346461Y-65095788D01*
X62904212Y-63653539D01*
X61019824Y-62873000D01*
X58980176Y-62873000D01*
X57530698Y-63473394D01*
X59088266Y-61915826D01*
X72373000Y-61915826D01*
X72373000Y-64235250D01*
X72654750Y-64517000D01*
X75877000Y-64517000D01*
X75877000Y-61294750D01*
X77623000Y-61294750D01*
X77623000Y-64517000D01*
X80845250Y-64517000D01*
X81127000Y-64235250D01*
X81127000Y-61915826D01*
X80955424Y-61501606D01*
X80638394Y-61184575D01*
X80224174Y-61013000D01*
X77904750Y-61013000D01*
X77623000Y-61294750D01*
X75877000Y-61294750D01*
X75595250Y-61013000D01*
X73275826Y-61013000D01*
X72861606Y-61184575D01*
X72544576Y-61501606D01*
X72373000Y-61915826D01*
X59088266Y-61915826D01*
X62294092Y-58710000D01*
X82873000Y-58710000D01*
X82873000Y-78873000D01*
G04 #@! TO.N,Net-(J7-Pad1)*
G36*
X126376421Y-69279289D02*
X126894217Y-71523073D01*
X126189717Y-71281821D01*
X125843000Y-71544469D01*
X125843000Y-72937500D01*
X129097000Y-72937500D01*
X129097000Y-72627000D01*
X129773069Y-72627000D01*
X130863000Y-73078464D01*
X130863000Y-74012500D01*
X130843000Y-74012500D01*
X130843000Y-75405531D01*
X131189717Y-75668179D01*
X132006576Y-75388450D01*
X132123000Y-75285796D01*
X132123000Y-78664204D01*
X132006576Y-78561550D01*
X131189717Y-78281821D01*
X130843000Y-78544469D01*
X130843000Y-79937500D01*
X130863000Y-79937500D01*
X130863000Y-81012500D01*
X130843000Y-81012500D01*
X130843000Y-81368000D01*
X129097000Y-81368000D01*
X129097000Y-81012500D01*
X125843000Y-81012500D01*
X125843000Y-81368000D01*
X124097000Y-81368000D01*
X124097000Y-81012500D01*
X124077000Y-81012500D01*
X124077000Y-79937500D01*
X124097000Y-79937500D01*
X124097000Y-78544469D01*
X125843000Y-78544469D01*
X125843000Y-79937500D01*
X129097000Y-79937500D01*
X129097000Y-78544469D01*
X128750283Y-78281821D01*
X127933424Y-78561550D01*
X127470000Y-78970163D01*
X127006576Y-78561550D01*
X126189717Y-78281821D01*
X125843000Y-78544469D01*
X124097000Y-78544469D01*
X123750283Y-78281821D01*
X122933424Y-78561550D01*
X122627000Y-78831732D01*
X122627000Y-77500000D01*
X122617333Y-77451399D01*
X122589803Y-77410197D01*
X122548601Y-77382667D01*
X122500000Y-77373000D01*
X113127000Y-77373000D01*
X113127000Y-74339931D01*
X122019982Y-74339931D01*
X122285792Y-74817416D01*
X122933424Y-75388450D01*
X123750283Y-75668179D01*
X124097000Y-75405531D01*
X124097000Y-74012500D01*
X125843000Y-74012500D01*
X125843000Y-75405531D01*
X126189717Y-75668179D01*
X127006576Y-75388450D01*
X127470000Y-74979837D01*
X127933424Y-75388450D01*
X128750283Y-75668179D01*
X129097000Y-75405531D01*
X129097000Y-74012500D01*
X125843000Y-74012500D01*
X124097000Y-74012500D01*
X122201510Y-74012500D01*
X122019982Y-74339931D01*
X113127000Y-74339931D01*
X113127000Y-72610069D01*
X122019982Y-72610069D01*
X122201510Y-72937500D01*
X124097000Y-72937500D01*
X124097000Y-71544469D01*
X123750283Y-71281821D01*
X122933424Y-71561550D01*
X122285792Y-72132584D01*
X122019982Y-72610069D01*
X113127000Y-72610069D01*
X113127000Y-60127000D01*
X124150188Y-60127000D01*
X126376421Y-69279289D01*
X126376421Y-69279289D01*
G37*
X126376421Y-69279289D02*
X126894217Y-71523073D01*
X126189717Y-71281821D01*
X125843000Y-71544469D01*
X125843000Y-72937500D01*
X129097000Y-72937500D01*
X129097000Y-72627000D01*
X129773069Y-72627000D01*
X130863000Y-73078464D01*
X130863000Y-74012500D01*
X130843000Y-74012500D01*
X130843000Y-75405531D01*
X131189717Y-75668179D01*
X132006576Y-75388450D01*
X132123000Y-75285796D01*
X132123000Y-78664204D01*
X132006576Y-78561550D01*
X131189717Y-78281821D01*
X130843000Y-78544469D01*
X130843000Y-79937500D01*
X130863000Y-79937500D01*
X130863000Y-81012500D01*
X130843000Y-81012500D01*
X130843000Y-81368000D01*
X129097000Y-81368000D01*
X129097000Y-81012500D01*
X125843000Y-81012500D01*
X125843000Y-81368000D01*
X124097000Y-81368000D01*
X124097000Y-81012500D01*
X124077000Y-81012500D01*
X124077000Y-79937500D01*
X124097000Y-79937500D01*
X124097000Y-78544469D01*
X125843000Y-78544469D01*
X125843000Y-79937500D01*
X129097000Y-79937500D01*
X129097000Y-78544469D01*
X128750283Y-78281821D01*
X127933424Y-78561550D01*
X127470000Y-78970163D01*
X127006576Y-78561550D01*
X126189717Y-78281821D01*
X125843000Y-78544469D01*
X124097000Y-78544469D01*
X123750283Y-78281821D01*
X122933424Y-78561550D01*
X122627000Y-78831732D01*
X122627000Y-77500000D01*
X122617333Y-77451399D01*
X122589803Y-77410197D01*
X122548601Y-77382667D01*
X122500000Y-77373000D01*
X113127000Y-77373000D01*
X113127000Y-74339931D01*
X122019982Y-74339931D01*
X122285792Y-74817416D01*
X122933424Y-75388450D01*
X123750283Y-75668179D01*
X124097000Y-75405531D01*
X124097000Y-74012500D01*
X125843000Y-74012500D01*
X125843000Y-75405531D01*
X126189717Y-75668179D01*
X127006576Y-75388450D01*
X127470000Y-74979837D01*
X127933424Y-75388450D01*
X128750283Y-75668179D01*
X129097000Y-75405531D01*
X129097000Y-74012500D01*
X125843000Y-74012500D01*
X124097000Y-74012500D01*
X122201510Y-74012500D01*
X122019982Y-74339931D01*
X113127000Y-74339931D01*
X113127000Y-72610069D01*
X122019982Y-72610069D01*
X122201510Y-72937500D01*
X124097000Y-72937500D01*
X124097000Y-71544469D01*
X123750283Y-71281821D01*
X122933424Y-71561550D01*
X122285792Y-72132584D01*
X122019982Y-72610069D01*
X113127000Y-72610069D01*
X113127000Y-60127000D01*
X124150188Y-60127000D01*
X126376421Y-69279289D01*
G04 #@! TO.N,Net-(J9-Pad1)*
G36*
X121123000Y-92500000D02*
X121132667Y-92548601D01*
X121160197Y-92589803D01*
X122160197Y-93589803D01*
X122201399Y-93617333D01*
X122250000Y-93627000D01*
X122394198Y-93627000D01*
X122285792Y-93722584D01*
X122019982Y-94200069D01*
X122201510Y-94527500D01*
X124097000Y-94527500D01*
X124097000Y-94172000D01*
X125843000Y-94172000D01*
X125843000Y-94527500D01*
X129097000Y-94527500D01*
X129097000Y-94172000D01*
X130843000Y-94172000D01*
X130843000Y-94527500D01*
X130863000Y-94527500D01*
X130863000Y-95602500D01*
X130843000Y-95602500D01*
X130843000Y-96995531D01*
X131189717Y-97258179D01*
X132006576Y-96978450D01*
X132373000Y-96655364D01*
X132373000Y-100474636D01*
X132006576Y-100151550D01*
X131189717Y-99871821D01*
X130843000Y-100134469D01*
X130843000Y-101527500D01*
X130863000Y-101527500D01*
X130863000Y-102602500D01*
X130843000Y-102602500D01*
X130843000Y-102958000D01*
X129097000Y-102958000D01*
X129097000Y-102602500D01*
X125843000Y-102602500D01*
X125843000Y-102958000D01*
X124097000Y-102958000D01*
X124097000Y-102602500D01*
X122201510Y-102602500D01*
X122019982Y-102929931D01*
X122285792Y-103407416D01*
X122510013Y-103605117D01*
X118802231Y-101200069D01*
X122019982Y-101200069D01*
X122201510Y-101527500D01*
X124097000Y-101527500D01*
X124097000Y-100134469D01*
X125843000Y-100134469D01*
X125843000Y-101527500D01*
X129097000Y-101527500D01*
X129097000Y-100134469D01*
X128750283Y-99871821D01*
X127933424Y-100151550D01*
X127470000Y-100560163D01*
X127006576Y-100151550D01*
X126189717Y-99871821D01*
X125843000Y-100134469D01*
X124097000Y-100134469D01*
X123750283Y-99871821D01*
X122933424Y-100151550D01*
X122285792Y-100722584D01*
X122019982Y-101200069D01*
X118802231Y-101200069D01*
X113377000Y-97681001D01*
X113377000Y-95929931D01*
X122019982Y-95929931D01*
X122285792Y-96407416D01*
X122933424Y-96978450D01*
X123750283Y-97258179D01*
X124097000Y-96995531D01*
X124097000Y-95602500D01*
X125843000Y-95602500D01*
X125843000Y-96995531D01*
X126189717Y-97258179D01*
X127006576Y-96978450D01*
X127470000Y-96569837D01*
X127933424Y-96978450D01*
X128750283Y-97258179D01*
X129097000Y-96995531D01*
X129097000Y-95602500D01*
X125843000Y-95602500D01*
X124097000Y-95602500D01*
X122201510Y-95602500D01*
X122019982Y-95929931D01*
X113377000Y-95929931D01*
X113377000Y-90127000D01*
X121123000Y-90127000D01*
X121123000Y-92500000D01*
X121123000Y-92500000D01*
G37*
X121123000Y-92500000D02*
X121132667Y-92548601D01*
X121160197Y-92589803D01*
X122160197Y-93589803D01*
X122201399Y-93617333D01*
X122250000Y-93627000D01*
X122394198Y-93627000D01*
X122285792Y-93722584D01*
X122019982Y-94200069D01*
X122201510Y-94527500D01*
X124097000Y-94527500D01*
X124097000Y-94172000D01*
X125843000Y-94172000D01*
X125843000Y-94527500D01*
X129097000Y-94527500D01*
X129097000Y-94172000D01*
X130843000Y-94172000D01*
X130843000Y-94527500D01*
X130863000Y-94527500D01*
X130863000Y-95602500D01*
X130843000Y-95602500D01*
X130843000Y-96995531D01*
X131189717Y-97258179D01*
X132006576Y-96978450D01*
X132373000Y-96655364D01*
X132373000Y-100474636D01*
X132006576Y-100151550D01*
X131189717Y-99871821D01*
X130843000Y-100134469D01*
X130843000Y-101527500D01*
X130863000Y-101527500D01*
X130863000Y-102602500D01*
X130843000Y-102602500D01*
X130843000Y-102958000D01*
X129097000Y-102958000D01*
X129097000Y-102602500D01*
X125843000Y-102602500D01*
X125843000Y-102958000D01*
X124097000Y-102958000D01*
X124097000Y-102602500D01*
X122201510Y-102602500D01*
X122019982Y-102929931D01*
X122285792Y-103407416D01*
X122510013Y-103605117D01*
X118802231Y-101200069D01*
X122019982Y-101200069D01*
X122201510Y-101527500D01*
X124097000Y-101527500D01*
X124097000Y-100134469D01*
X125843000Y-100134469D01*
X125843000Y-101527500D01*
X129097000Y-101527500D01*
X129097000Y-100134469D01*
X128750283Y-99871821D01*
X127933424Y-100151550D01*
X127470000Y-100560163D01*
X127006576Y-100151550D01*
X126189717Y-99871821D01*
X125843000Y-100134469D01*
X124097000Y-100134469D01*
X123750283Y-99871821D01*
X122933424Y-100151550D01*
X122285792Y-100722584D01*
X122019982Y-101200069D01*
X118802231Y-101200069D01*
X113377000Y-97681001D01*
X113377000Y-95929931D01*
X122019982Y-95929931D01*
X122285792Y-96407416D01*
X122933424Y-96978450D01*
X123750283Y-97258179D01*
X124097000Y-96995531D01*
X124097000Y-95602500D01*
X125843000Y-95602500D01*
X125843000Y-96995531D01*
X126189717Y-97258179D01*
X127006576Y-96978450D01*
X127470000Y-96569837D01*
X127933424Y-96978450D01*
X128750283Y-97258179D01*
X129097000Y-96995531D01*
X129097000Y-95602500D01*
X125843000Y-95602500D01*
X124097000Y-95602500D01*
X122201510Y-95602500D01*
X122019982Y-95929931D01*
X113377000Y-95929931D01*
X113377000Y-90127000D01*
X121123000Y-90127000D01*
X121123000Y-92500000D01*
G04 #@! TO.N,Net-(J5-Pad1)*
G36*
X125843000Y-116117500D02*
X129097000Y-116117500D01*
X129097000Y-115762000D01*
X130843000Y-115762000D01*
X130843000Y-116117500D01*
X130863000Y-116117500D01*
X130863000Y-117192500D01*
X130843000Y-117192500D01*
X130843000Y-118585531D01*
X131189717Y-118848179D01*
X132006576Y-118568450D01*
X132623000Y-118024933D01*
X132623000Y-122285067D01*
X132006576Y-121741550D01*
X131189717Y-121461821D01*
X130843000Y-121724469D01*
X130843000Y-123117500D01*
X130863000Y-123117500D01*
X130863000Y-124192500D01*
X130843000Y-124192500D01*
X130843000Y-124548000D01*
X129097000Y-124548000D01*
X129097000Y-124192500D01*
X125843000Y-124192500D01*
X125843000Y-124548000D01*
X124097000Y-124548000D01*
X124097000Y-124192500D01*
X122201510Y-124192500D01*
X122019982Y-124519931D01*
X122285792Y-124997416D01*
X122933424Y-125568450D01*
X123151226Y-125643035D01*
X120951265Y-127623000D01*
X112877000Y-127623000D01*
X112877000Y-122790069D01*
X122019982Y-122790069D01*
X122201510Y-123117500D01*
X124097000Y-123117500D01*
X124097000Y-121724469D01*
X125843000Y-121724469D01*
X125843000Y-123117500D01*
X129097000Y-123117500D01*
X129097000Y-121724469D01*
X128750283Y-121461821D01*
X127933424Y-121741550D01*
X127470000Y-122150163D01*
X127006576Y-121741550D01*
X126189717Y-121461821D01*
X125843000Y-121724469D01*
X124097000Y-121724469D01*
X123750283Y-121461821D01*
X122933424Y-121741550D01*
X122285792Y-122312584D01*
X122019982Y-122790069D01*
X112877000Y-122790069D01*
X112877000Y-119841537D01*
X121843000Y-116852870D01*
X121843000Y-117528002D01*
X122024475Y-117528002D01*
X122285792Y-117997416D01*
X122933424Y-118568450D01*
X123750283Y-118848179D01*
X124097000Y-118585531D01*
X124097000Y-117192500D01*
X125843000Y-117192500D01*
X125843000Y-118585531D01*
X126189717Y-118848179D01*
X127006576Y-118568450D01*
X127470000Y-118159837D01*
X127933424Y-118568450D01*
X128750283Y-118848179D01*
X129097000Y-118585531D01*
X129097000Y-117192500D01*
X125843000Y-117192500D01*
X124097000Y-117192500D01*
X124077000Y-117192500D01*
X124077000Y-116117500D01*
X124097000Y-116117500D01*
X124097000Y-115762000D01*
X125843000Y-115762000D01*
X125843000Y-116117500D01*
X125843000Y-116117500D01*
G37*
X125843000Y-116117500D02*
X129097000Y-116117500D01*
X129097000Y-115762000D01*
X130843000Y-115762000D01*
X130843000Y-116117500D01*
X130863000Y-116117500D01*
X130863000Y-117192500D01*
X130843000Y-117192500D01*
X130843000Y-118585531D01*
X131189717Y-118848179D01*
X132006576Y-118568450D01*
X132623000Y-118024933D01*
X132623000Y-122285067D01*
X132006576Y-121741550D01*
X131189717Y-121461821D01*
X130843000Y-121724469D01*
X130843000Y-123117500D01*
X130863000Y-123117500D01*
X130863000Y-124192500D01*
X130843000Y-124192500D01*
X130843000Y-124548000D01*
X129097000Y-124548000D01*
X129097000Y-124192500D01*
X125843000Y-124192500D01*
X125843000Y-124548000D01*
X124097000Y-124548000D01*
X124097000Y-124192500D01*
X122201510Y-124192500D01*
X122019982Y-124519931D01*
X122285792Y-124997416D01*
X122933424Y-125568450D01*
X123151226Y-125643035D01*
X120951265Y-127623000D01*
X112877000Y-127623000D01*
X112877000Y-122790069D01*
X122019982Y-122790069D01*
X122201510Y-123117500D01*
X124097000Y-123117500D01*
X124097000Y-121724469D01*
X125843000Y-121724469D01*
X125843000Y-123117500D01*
X129097000Y-123117500D01*
X129097000Y-121724469D01*
X128750283Y-121461821D01*
X127933424Y-121741550D01*
X127470000Y-122150163D01*
X127006576Y-121741550D01*
X126189717Y-121461821D01*
X125843000Y-121724469D01*
X124097000Y-121724469D01*
X123750283Y-121461821D01*
X122933424Y-121741550D01*
X122285792Y-122312584D01*
X122019982Y-122790069D01*
X112877000Y-122790069D01*
X112877000Y-119841537D01*
X121843000Y-116852870D01*
X121843000Y-117528002D01*
X122024475Y-117528002D01*
X122285792Y-117997416D01*
X122933424Y-118568450D01*
X123750283Y-118848179D01*
X124097000Y-118585531D01*
X124097000Y-117192500D01*
X125843000Y-117192500D01*
X125843000Y-118585531D01*
X126189717Y-118848179D01*
X127006576Y-118568450D01*
X127470000Y-118159837D01*
X127933424Y-118568450D01*
X128750283Y-118848179D01*
X129097000Y-118585531D01*
X129097000Y-117192500D01*
X125843000Y-117192500D01*
X124097000Y-117192500D01*
X124077000Y-117192500D01*
X124077000Y-116117500D01*
X124097000Y-116117500D01*
X124097000Y-115762000D01*
X125843000Y-115762000D01*
X125843000Y-116117500D01*
G04 #@! TO.N,GND*
G36*
X141290000Y-70294092D02*
X141290001Y-137705907D01*
X129705910Y-149290000D01*
X83942306Y-149290000D01*
X83942306Y-145451505D01*
X83932639Y-145402904D01*
X83905109Y-145361702D01*
X83863907Y-145334172D01*
X83815306Y-145324505D01*
X73692306Y-145324505D01*
X73692306Y-143323977D01*
X129910632Y-143323977D01*
X130286774Y-143843291D01*
X131887948Y-144206361D01*
X133506183Y-143929052D01*
X133713226Y-143843291D01*
X134089368Y-143323977D01*
X132000000Y-141234608D01*
X129910632Y-143323977D01*
X73692306Y-143323977D01*
X73692306Y-139887948D01*
X127793639Y-139887948D01*
X128070948Y-141506183D01*
X128156709Y-141713226D01*
X128676023Y-142089368D01*
X130765392Y-140000000D01*
X133234608Y-140000000D01*
X135323977Y-142089368D01*
X135843291Y-141713226D01*
X136206361Y-140112052D01*
X135929052Y-138493817D01*
X135843291Y-138286774D01*
X135323977Y-137910632D01*
X133234608Y-140000000D01*
X130765392Y-140000000D01*
X128676023Y-137910632D01*
X128156709Y-138286774D01*
X127793639Y-139887948D01*
X73692306Y-139887948D01*
X73692306Y-138078505D01*
X83815306Y-138078505D01*
X83863907Y-138068838D01*
X83905109Y-138041308D01*
X83932639Y-138000106D01*
X83942306Y-137951505D01*
X83942306Y-135314931D01*
X122019982Y-135314931D01*
X122285792Y-135792416D01*
X122933424Y-136363450D01*
X123750283Y-136643179D01*
X124097000Y-136380531D01*
X124097000Y-134987500D01*
X125843000Y-134987500D01*
X125843000Y-136380531D01*
X126189717Y-136643179D01*
X127006576Y-136363450D01*
X127470000Y-135954837D01*
X127933424Y-136363450D01*
X128750283Y-136643179D01*
X129096998Y-136380533D01*
X129096998Y-136652000D01*
X129928032Y-136652000D01*
X129910632Y-136676023D01*
X132000000Y-138765392D01*
X134089368Y-136676023D01*
X133713226Y-136156709D01*
X132542200Y-135891176D01*
X132654208Y-135792416D01*
X132920018Y-135314931D01*
X132738490Y-134987500D01*
X130843000Y-134987500D01*
X130843000Y-135343000D01*
X129097000Y-135343000D01*
X129097000Y-134987500D01*
X125843000Y-134987500D01*
X124097000Y-134987500D01*
X122201510Y-134987500D01*
X122019982Y-135314931D01*
X83942306Y-135314931D01*
X83942306Y-133585069D01*
X122019982Y-133585069D01*
X122201510Y-133912500D01*
X124097000Y-133912500D01*
X124097000Y-132519469D01*
X125843000Y-132519469D01*
X125843000Y-133912500D01*
X129097000Y-133912500D01*
X129097000Y-132519469D01*
X130843000Y-132519469D01*
X130843000Y-133912500D01*
X132738490Y-133912500D01*
X132920018Y-133585069D01*
X132654208Y-133107584D01*
X132006576Y-132536550D01*
X131189717Y-132256821D01*
X130843000Y-132519469D01*
X129097000Y-132519469D01*
X128750283Y-132256821D01*
X127933424Y-132536550D01*
X127470000Y-132945163D01*
X127006576Y-132536550D01*
X126189717Y-132256821D01*
X125843000Y-132519469D01*
X124097000Y-132519469D01*
X123750283Y-132256821D01*
X122933424Y-132536550D01*
X122285792Y-133107584D01*
X122019982Y-133585069D01*
X83942306Y-133585069D01*
X83942306Y-119000000D01*
X111623000Y-119000000D01*
X111623000Y-128500000D01*
X111632667Y-128548601D01*
X111660197Y-128589803D01*
X111701399Y-128617333D01*
X111750000Y-128627000D01*
X121250000Y-128627000D01*
X121298601Y-128617333D01*
X121334959Y-128594398D01*
X121843000Y-128137161D01*
X121843000Y-128323002D01*
X122024475Y-128323002D01*
X122285792Y-128792416D01*
X122933424Y-129363450D01*
X123750283Y-129643179D01*
X124097000Y-129380531D01*
X124097000Y-127987500D01*
X125843000Y-127987500D01*
X125843000Y-129380531D01*
X126189717Y-129643179D01*
X127006576Y-129363450D01*
X127470000Y-128954837D01*
X127933424Y-129363450D01*
X128750283Y-129643179D01*
X129097000Y-129380531D01*
X129097000Y-127987500D01*
X130843000Y-127987500D01*
X130843000Y-129380531D01*
X131189717Y-129643179D01*
X132006576Y-129363450D01*
X132654208Y-128792416D01*
X132920018Y-128314931D01*
X132738490Y-127987500D01*
X130843000Y-127987500D01*
X129097000Y-127987500D01*
X125843000Y-127987500D01*
X124097000Y-127987500D01*
X124077000Y-127987500D01*
X124077000Y-126912500D01*
X124097000Y-126912500D01*
X124097000Y-126557000D01*
X125843000Y-126557000D01*
X125843000Y-126912500D01*
X129097000Y-126912500D01*
X129097000Y-126557000D01*
X130843000Y-126557000D01*
X130843000Y-126912500D01*
X132738490Y-126912500D01*
X132920018Y-126585069D01*
X132804189Y-126377000D01*
X133500000Y-126377000D01*
X133548601Y-126367333D01*
X133589803Y-126339803D01*
X133617333Y-126298601D01*
X133627000Y-126250000D01*
X133627000Y-114250000D01*
X133617333Y-114201399D01*
X133589803Y-114160197D01*
X133548601Y-114132667D01*
X133500000Y-114123000D01*
X132698418Y-114123000D01*
X132920018Y-113724931D01*
X132738490Y-113397500D01*
X130843000Y-113397500D01*
X130843000Y-113753000D01*
X129097000Y-113753000D01*
X129097000Y-113397500D01*
X125843000Y-113397500D01*
X125843000Y-113753000D01*
X124097000Y-113753000D01*
X124097000Y-113397500D01*
X122201510Y-113397500D01*
X122019982Y-113724931D01*
X122241582Y-114123000D01*
X121750000Y-114123000D01*
X121701399Y-114132667D01*
X121660197Y-114160197D01*
X121632667Y-114201399D01*
X121623000Y-114250000D01*
X121623000Y-115657736D01*
X111710746Y-118879219D01*
X111667513Y-118903434D01*
X111636838Y-118942351D01*
X111623000Y-119000000D01*
X83942306Y-119000000D01*
X83942306Y-115701505D01*
X83932639Y-115652904D01*
X83905109Y-115611702D01*
X83863907Y-115584172D01*
X83815306Y-115574505D01*
X73942306Y-115574505D01*
X73942306Y-111995069D01*
X122019982Y-111995069D01*
X122201510Y-112322500D01*
X124097000Y-112322500D01*
X124097000Y-110929469D01*
X125843000Y-110929469D01*
X125843000Y-112322500D01*
X129097000Y-112322500D01*
X129097000Y-110929469D01*
X130843000Y-110929469D01*
X130843000Y-112322500D01*
X132738490Y-112322500D01*
X132920018Y-111995069D01*
X132654208Y-111517584D01*
X132006576Y-110946550D01*
X131189717Y-110666821D01*
X130843000Y-110929469D01*
X129097000Y-110929469D01*
X128750283Y-110666821D01*
X127933424Y-110946550D01*
X127470000Y-111355163D01*
X127006576Y-110946550D01*
X126189717Y-110666821D01*
X125843000Y-110929469D01*
X124097000Y-110929469D01*
X123750283Y-110666821D01*
X122933424Y-110946550D01*
X122285792Y-111517584D01*
X122019982Y-111995069D01*
X73942306Y-111995069D01*
X73942306Y-108328505D01*
X83815306Y-108328505D01*
X83863907Y-108318838D01*
X83905109Y-108291308D01*
X83932639Y-108250106D01*
X83942306Y-108201505D01*
X83942306Y-106724931D01*
X122019982Y-106724931D01*
X122285792Y-107202416D01*
X122933424Y-107773450D01*
X123750283Y-108053179D01*
X124097000Y-107790531D01*
X124097000Y-106397500D01*
X125843000Y-106397500D01*
X125843000Y-107790531D01*
X126189717Y-108053179D01*
X127006576Y-107773450D01*
X127470000Y-107364837D01*
X127933424Y-107773450D01*
X128750283Y-108053179D01*
X129097000Y-107790531D01*
X129097000Y-106397500D01*
X130843000Y-106397500D01*
X130843000Y-107790531D01*
X131189717Y-108053179D01*
X132006576Y-107773450D01*
X132654208Y-107202416D01*
X132920018Y-106724931D01*
X132738490Y-106397500D01*
X130843000Y-106397500D01*
X129097000Y-106397500D01*
X125843000Y-106397500D01*
X124097000Y-106397500D01*
X122201510Y-106397500D01*
X122019982Y-106724931D01*
X83942306Y-106724931D01*
X83942306Y-89250000D01*
X112373000Y-89250000D01*
X112373000Y-98250000D01*
X112382667Y-98298601D01*
X112410197Y-98339803D01*
X112432690Y-98357696D01*
X122286920Y-104516590D01*
X122285792Y-104517584D01*
X122019982Y-104995069D01*
X122201510Y-105322500D01*
X124097000Y-105322500D01*
X124097000Y-104967000D01*
X125843000Y-104967000D01*
X125843000Y-105322500D01*
X129097000Y-105322500D01*
X129097000Y-104967000D01*
X130843000Y-104967000D01*
X130843000Y-105322500D01*
X132738490Y-105322500D01*
X132920018Y-104995069D01*
X132715119Y-104627000D01*
X133250000Y-104627000D01*
X133298601Y-104617333D01*
X133339803Y-104589803D01*
X133367333Y-104548601D01*
X133377000Y-104500000D01*
X133377000Y-92750000D01*
X133367333Y-92701399D01*
X133339803Y-92660197D01*
X133298601Y-92632667D01*
X133250000Y-92623000D01*
X132642204Y-92623000D01*
X132654208Y-92612416D01*
X132920018Y-92134931D01*
X132738490Y-91807500D01*
X130843000Y-91807500D01*
X130843000Y-92163000D01*
X129097000Y-92163000D01*
X129097000Y-91807500D01*
X125843000Y-91807500D01*
X125843000Y-92163000D01*
X124097000Y-92163000D01*
X124097000Y-91807500D01*
X124077000Y-91807500D01*
X124077000Y-90732500D01*
X124097000Y-90732500D01*
X124097000Y-89339469D01*
X125843000Y-89339469D01*
X125843000Y-90732500D01*
X129097000Y-90732500D01*
X129097000Y-89339469D01*
X130843000Y-89339469D01*
X130843000Y-90732500D01*
X132738490Y-90732500D01*
X132920018Y-90405069D01*
X132654208Y-89927584D01*
X132006576Y-89356550D01*
X131189717Y-89076821D01*
X130843000Y-89339469D01*
X129097000Y-89339469D01*
X128750283Y-89076821D01*
X127933424Y-89356550D01*
X127470000Y-89765163D01*
X127006576Y-89356550D01*
X126189717Y-89076821D01*
X125843000Y-89339469D01*
X124097000Y-89339469D01*
X123750283Y-89076821D01*
X122933424Y-89356550D01*
X122285792Y-89927584D01*
X122278057Y-89941478D01*
X122124181Y-89223390D01*
X122104545Y-89177893D01*
X122068993Y-89143375D01*
X122000000Y-89123000D01*
X112500000Y-89123000D01*
X112451399Y-89132667D01*
X112410197Y-89160197D01*
X112382667Y-89201399D01*
X112373000Y-89250000D01*
X83942306Y-89250000D01*
X83942306Y-86451505D01*
X83932639Y-86402904D01*
X83905109Y-86361702D01*
X83863907Y-86334172D01*
X83815306Y-86324505D01*
X73942306Y-86324505D01*
X73942306Y-85134931D01*
X122019982Y-85134931D01*
X122285792Y-85612416D01*
X122933424Y-86183450D01*
X123750283Y-86463179D01*
X124097000Y-86200531D01*
X124097000Y-84807500D01*
X125843000Y-84807500D01*
X125843000Y-86200531D01*
X126189717Y-86463179D01*
X127006576Y-86183450D01*
X127470000Y-85774837D01*
X127933424Y-86183450D01*
X128750283Y-86463179D01*
X129097000Y-86200531D01*
X129097000Y-84807500D01*
X130843000Y-84807500D01*
X130843000Y-86200531D01*
X131189717Y-86463179D01*
X132006576Y-86183450D01*
X132654208Y-85612416D01*
X132920018Y-85134931D01*
X132738490Y-84807500D01*
X130843000Y-84807500D01*
X129097000Y-84807500D01*
X125843000Y-84807500D01*
X124097000Y-84807500D01*
X122201510Y-84807500D01*
X122019982Y-85134931D01*
X73942306Y-85134931D01*
X73942306Y-79828505D01*
X83815306Y-79828505D01*
X83863907Y-79818838D01*
X83905109Y-79791308D01*
X83932639Y-79750106D01*
X83942306Y-79701505D01*
X83942306Y-59250000D01*
X112123000Y-59250000D01*
X112123000Y-78750000D01*
X112132667Y-78798601D01*
X112160197Y-78839803D01*
X112201399Y-78867333D01*
X112250000Y-78877000D01*
X120947394Y-78877000D01*
X121873000Y-79802606D01*
X121873000Y-82750000D01*
X121882667Y-82798601D01*
X121910197Y-82839803D01*
X121951399Y-82867333D01*
X122000544Y-82876999D01*
X122344836Y-82875523D01*
X122285792Y-82927584D01*
X122019982Y-83405069D01*
X122201510Y-83732500D01*
X124097000Y-83732500D01*
X124097000Y-83377000D01*
X125843000Y-83377000D01*
X125843000Y-83732500D01*
X129097000Y-83732500D01*
X129097000Y-83377000D01*
X130843000Y-83377000D01*
X130843000Y-83732500D01*
X132738490Y-83732500D01*
X132920018Y-83405069D01*
X132654208Y-82927584D01*
X132545582Y-82831805D01*
X133315850Y-82828504D01*
X133364409Y-82818628D01*
X133405493Y-82790922D01*
X133432846Y-82749602D01*
X133442306Y-82701679D01*
X133457076Y-71951679D01*
X133454361Y-71937932D01*
X133506183Y-71929052D01*
X133713226Y-71843291D01*
X134089368Y-71323977D01*
X132000000Y-69234608D01*
X129910632Y-71323977D01*
X130230067Y-71765000D01*
X128876584Y-71765000D01*
X128577432Y-71824505D01*
X128424301Y-71824505D01*
X127231706Y-67887948D01*
X127793639Y-67887948D01*
X128070948Y-69506183D01*
X128156709Y-69713226D01*
X128676023Y-70089368D01*
X130765392Y-68000000D01*
X133234608Y-68000000D01*
X135323977Y-70089368D01*
X135843291Y-69713226D01*
X136206361Y-68112052D01*
X135929052Y-66493817D01*
X135843291Y-66286774D01*
X135323977Y-65910632D01*
X133234608Y-68000000D01*
X130765392Y-68000000D01*
X128676023Y-65910632D01*
X128156709Y-66286774D01*
X127793639Y-67887948D01*
X127231706Y-67887948D01*
X126938006Y-66918495D01*
X126409438Y-64676023D01*
X129910632Y-64676023D01*
X132000000Y-66765392D01*
X134089368Y-64676023D01*
X133713226Y-64156709D01*
X132112052Y-63793639D01*
X130493817Y-64070948D01*
X130286774Y-64156709D01*
X129910632Y-64676023D01*
X126409438Y-64676023D01*
X125123613Y-59220864D01*
X125103053Y-59175777D01*
X125066805Y-59141990D01*
X125000000Y-59123000D01*
X112250000Y-59123000D01*
X112201399Y-59132667D01*
X112160197Y-59160197D01*
X112132667Y-59201399D01*
X112123000Y-59250000D01*
X83942306Y-59250000D01*
X83942306Y-58710000D01*
X129705910Y-58710000D01*
X141290000Y-70294092D01*
X141290000Y-70294092D01*
G37*
X141290000Y-70294092D02*
X141290001Y-137705907D01*
X129705910Y-149290000D01*
X83942306Y-149290000D01*
X83942306Y-145451505D01*
X83932639Y-145402904D01*
X83905109Y-145361702D01*
X83863907Y-145334172D01*
X83815306Y-145324505D01*
X73692306Y-145324505D01*
X73692306Y-143323977D01*
X129910632Y-143323977D01*
X130286774Y-143843291D01*
X131887948Y-144206361D01*
X133506183Y-143929052D01*
X133713226Y-143843291D01*
X134089368Y-143323977D01*
X132000000Y-141234608D01*
X129910632Y-143323977D01*
X73692306Y-143323977D01*
X73692306Y-139887948D01*
X127793639Y-139887948D01*
X128070948Y-141506183D01*
X128156709Y-141713226D01*
X128676023Y-142089368D01*
X130765392Y-140000000D01*
X133234608Y-140000000D01*
X135323977Y-142089368D01*
X135843291Y-141713226D01*
X136206361Y-140112052D01*
X135929052Y-138493817D01*
X135843291Y-138286774D01*
X135323977Y-137910632D01*
X133234608Y-140000000D01*
X130765392Y-140000000D01*
X128676023Y-137910632D01*
X128156709Y-138286774D01*
X127793639Y-139887948D01*
X73692306Y-139887948D01*
X73692306Y-138078505D01*
X83815306Y-138078505D01*
X83863907Y-138068838D01*
X83905109Y-138041308D01*
X83932639Y-138000106D01*
X83942306Y-137951505D01*
X83942306Y-135314931D01*
X122019982Y-135314931D01*
X122285792Y-135792416D01*
X122933424Y-136363450D01*
X123750283Y-136643179D01*
X124097000Y-136380531D01*
X124097000Y-134987500D01*
X125843000Y-134987500D01*
X125843000Y-136380531D01*
X126189717Y-136643179D01*
X127006576Y-136363450D01*
X127470000Y-135954837D01*
X127933424Y-136363450D01*
X128750283Y-136643179D01*
X129096998Y-136380533D01*
X129096998Y-136652000D01*
X129928032Y-136652000D01*
X129910632Y-136676023D01*
X132000000Y-138765392D01*
X134089368Y-136676023D01*
X133713226Y-136156709D01*
X132542200Y-135891176D01*
X132654208Y-135792416D01*
X132920018Y-135314931D01*
X132738490Y-134987500D01*
X130843000Y-134987500D01*
X130843000Y-135343000D01*
X129097000Y-135343000D01*
X129097000Y-134987500D01*
X125843000Y-134987500D01*
X124097000Y-134987500D01*
X122201510Y-134987500D01*
X122019982Y-135314931D01*
X83942306Y-135314931D01*
X83942306Y-133585069D01*
X122019982Y-133585069D01*
X122201510Y-133912500D01*
X124097000Y-133912500D01*
X124097000Y-132519469D01*
X125843000Y-132519469D01*
X125843000Y-133912500D01*
X129097000Y-133912500D01*
X129097000Y-132519469D01*
X130843000Y-132519469D01*
X130843000Y-133912500D01*
X132738490Y-133912500D01*
X132920018Y-133585069D01*
X132654208Y-133107584D01*
X132006576Y-132536550D01*
X131189717Y-132256821D01*
X130843000Y-132519469D01*
X129097000Y-132519469D01*
X128750283Y-132256821D01*
X127933424Y-132536550D01*
X127470000Y-132945163D01*
X127006576Y-132536550D01*
X126189717Y-132256821D01*
X125843000Y-132519469D01*
X124097000Y-132519469D01*
X123750283Y-132256821D01*
X122933424Y-132536550D01*
X122285792Y-133107584D01*
X122019982Y-133585069D01*
X83942306Y-133585069D01*
X83942306Y-119000000D01*
X111623000Y-119000000D01*
X111623000Y-128500000D01*
X111632667Y-128548601D01*
X111660197Y-128589803D01*
X111701399Y-128617333D01*
X111750000Y-128627000D01*
X121250000Y-128627000D01*
X121298601Y-128617333D01*
X121334959Y-128594398D01*
X121843000Y-128137161D01*
X121843000Y-128323002D01*
X122024475Y-128323002D01*
X122285792Y-128792416D01*
X122933424Y-129363450D01*
X123750283Y-129643179D01*
X124097000Y-129380531D01*
X124097000Y-127987500D01*
X125843000Y-127987500D01*
X125843000Y-129380531D01*
X126189717Y-129643179D01*
X127006576Y-129363450D01*
X127470000Y-128954837D01*
X127933424Y-129363450D01*
X128750283Y-129643179D01*
X129097000Y-129380531D01*
X129097000Y-127987500D01*
X130843000Y-127987500D01*
X130843000Y-129380531D01*
X131189717Y-129643179D01*
X132006576Y-129363450D01*
X132654208Y-128792416D01*
X132920018Y-128314931D01*
X132738490Y-127987500D01*
X130843000Y-127987500D01*
X129097000Y-127987500D01*
X125843000Y-127987500D01*
X124097000Y-127987500D01*
X124077000Y-127987500D01*
X124077000Y-126912500D01*
X124097000Y-126912500D01*
X124097000Y-126557000D01*
X125843000Y-126557000D01*
X125843000Y-126912500D01*
X129097000Y-126912500D01*
X129097000Y-126557000D01*
X130843000Y-126557000D01*
X130843000Y-126912500D01*
X132738490Y-126912500D01*
X132920018Y-126585069D01*
X132804189Y-126377000D01*
X133500000Y-126377000D01*
X133548601Y-126367333D01*
X133589803Y-126339803D01*
X133617333Y-126298601D01*
X133627000Y-126250000D01*
X133627000Y-114250000D01*
X133617333Y-114201399D01*
X133589803Y-114160197D01*
X133548601Y-114132667D01*
X133500000Y-114123000D01*
X132698418Y-114123000D01*
X132920018Y-113724931D01*
X132738490Y-113397500D01*
X130843000Y-113397500D01*
X130843000Y-113753000D01*
X129097000Y-113753000D01*
X129097000Y-113397500D01*
X125843000Y-113397500D01*
X125843000Y-113753000D01*
X124097000Y-113753000D01*
X124097000Y-113397500D01*
X122201510Y-113397500D01*
X122019982Y-113724931D01*
X122241582Y-114123000D01*
X121750000Y-114123000D01*
X121701399Y-114132667D01*
X121660197Y-114160197D01*
X121632667Y-114201399D01*
X121623000Y-114250000D01*
X121623000Y-115657736D01*
X111710746Y-118879219D01*
X111667513Y-118903434D01*
X111636838Y-118942351D01*
X111623000Y-119000000D01*
X83942306Y-119000000D01*
X83942306Y-115701505D01*
X83932639Y-115652904D01*
X83905109Y-115611702D01*
X83863907Y-115584172D01*
X83815306Y-115574505D01*
X73942306Y-115574505D01*
X73942306Y-111995069D01*
X122019982Y-111995069D01*
X122201510Y-112322500D01*
X124097000Y-112322500D01*
X124097000Y-110929469D01*
X125843000Y-110929469D01*
X125843000Y-112322500D01*
X129097000Y-112322500D01*
X129097000Y-110929469D01*
X130843000Y-110929469D01*
X130843000Y-112322500D01*
X132738490Y-112322500D01*
X132920018Y-111995069D01*
X132654208Y-111517584D01*
X132006576Y-110946550D01*
X131189717Y-110666821D01*
X130843000Y-110929469D01*
X129097000Y-110929469D01*
X128750283Y-110666821D01*
X127933424Y-110946550D01*
X127470000Y-111355163D01*
X127006576Y-110946550D01*
X126189717Y-110666821D01*
X125843000Y-110929469D01*
X124097000Y-110929469D01*
X123750283Y-110666821D01*
X122933424Y-110946550D01*
X122285792Y-111517584D01*
X122019982Y-111995069D01*
X73942306Y-111995069D01*
X73942306Y-108328505D01*
X83815306Y-108328505D01*
X83863907Y-108318838D01*
X83905109Y-108291308D01*
X83932639Y-108250106D01*
X83942306Y-108201505D01*
X83942306Y-106724931D01*
X122019982Y-106724931D01*
X122285792Y-107202416D01*
X122933424Y-107773450D01*
X123750283Y-108053179D01*
X124097000Y-107790531D01*
X124097000Y-106397500D01*
X125843000Y-106397500D01*
X125843000Y-107790531D01*
X126189717Y-108053179D01*
X127006576Y-107773450D01*
X127470000Y-107364837D01*
X127933424Y-107773450D01*
X128750283Y-108053179D01*
X129097000Y-107790531D01*
X129097000Y-106397500D01*
X130843000Y-106397500D01*
X130843000Y-107790531D01*
X131189717Y-108053179D01*
X132006576Y-107773450D01*
X132654208Y-107202416D01*
X132920018Y-106724931D01*
X132738490Y-106397500D01*
X130843000Y-106397500D01*
X129097000Y-106397500D01*
X125843000Y-106397500D01*
X124097000Y-106397500D01*
X122201510Y-106397500D01*
X122019982Y-106724931D01*
X83942306Y-106724931D01*
X83942306Y-89250000D01*
X112373000Y-89250000D01*
X112373000Y-98250000D01*
X112382667Y-98298601D01*
X112410197Y-98339803D01*
X112432690Y-98357696D01*
X122286920Y-104516590D01*
X122285792Y-104517584D01*
X122019982Y-104995069D01*
X122201510Y-105322500D01*
X124097000Y-105322500D01*
X124097000Y-104967000D01*
X125843000Y-104967000D01*
X125843000Y-105322500D01*
X129097000Y-105322500D01*
X129097000Y-104967000D01*
X130843000Y-104967000D01*
X130843000Y-105322500D01*
X132738490Y-105322500D01*
X132920018Y-104995069D01*
X132715119Y-104627000D01*
X133250000Y-104627000D01*
X133298601Y-104617333D01*
X133339803Y-104589803D01*
X133367333Y-104548601D01*
X133377000Y-104500000D01*
X133377000Y-92750000D01*
X133367333Y-92701399D01*
X133339803Y-92660197D01*
X133298601Y-92632667D01*
X133250000Y-92623000D01*
X132642204Y-92623000D01*
X132654208Y-92612416D01*
X132920018Y-92134931D01*
X132738490Y-91807500D01*
X130843000Y-91807500D01*
X130843000Y-92163000D01*
X129097000Y-92163000D01*
X129097000Y-91807500D01*
X125843000Y-91807500D01*
X125843000Y-92163000D01*
X124097000Y-92163000D01*
X124097000Y-91807500D01*
X124077000Y-91807500D01*
X124077000Y-90732500D01*
X124097000Y-90732500D01*
X124097000Y-89339469D01*
X125843000Y-89339469D01*
X125843000Y-90732500D01*
X129097000Y-90732500D01*
X129097000Y-89339469D01*
X130843000Y-89339469D01*
X130843000Y-90732500D01*
X132738490Y-90732500D01*
X132920018Y-90405069D01*
X132654208Y-89927584D01*
X132006576Y-89356550D01*
X131189717Y-89076821D01*
X130843000Y-89339469D01*
X129097000Y-89339469D01*
X128750283Y-89076821D01*
X127933424Y-89356550D01*
X127470000Y-89765163D01*
X127006576Y-89356550D01*
X126189717Y-89076821D01*
X125843000Y-89339469D01*
X124097000Y-89339469D01*
X123750283Y-89076821D01*
X122933424Y-89356550D01*
X122285792Y-89927584D01*
X122278057Y-89941478D01*
X122124181Y-89223390D01*
X122104545Y-89177893D01*
X122068993Y-89143375D01*
X122000000Y-89123000D01*
X112500000Y-89123000D01*
X112451399Y-89132667D01*
X112410197Y-89160197D01*
X112382667Y-89201399D01*
X112373000Y-89250000D01*
X83942306Y-89250000D01*
X83942306Y-86451505D01*
X83932639Y-86402904D01*
X83905109Y-86361702D01*
X83863907Y-86334172D01*
X83815306Y-86324505D01*
X73942306Y-86324505D01*
X73942306Y-85134931D01*
X122019982Y-85134931D01*
X122285792Y-85612416D01*
X122933424Y-86183450D01*
X123750283Y-86463179D01*
X124097000Y-86200531D01*
X124097000Y-84807500D01*
X125843000Y-84807500D01*
X125843000Y-86200531D01*
X126189717Y-86463179D01*
X127006576Y-86183450D01*
X127470000Y-85774837D01*
X127933424Y-86183450D01*
X128750283Y-86463179D01*
X129097000Y-86200531D01*
X129097000Y-84807500D01*
X130843000Y-84807500D01*
X130843000Y-86200531D01*
X131189717Y-86463179D01*
X132006576Y-86183450D01*
X132654208Y-85612416D01*
X132920018Y-85134931D01*
X132738490Y-84807500D01*
X130843000Y-84807500D01*
X129097000Y-84807500D01*
X125843000Y-84807500D01*
X124097000Y-84807500D01*
X122201510Y-84807500D01*
X122019982Y-85134931D01*
X73942306Y-85134931D01*
X73942306Y-79828505D01*
X83815306Y-79828505D01*
X83863907Y-79818838D01*
X83905109Y-79791308D01*
X83932639Y-79750106D01*
X83942306Y-79701505D01*
X83942306Y-59250000D01*
X112123000Y-59250000D01*
X112123000Y-78750000D01*
X112132667Y-78798601D01*
X112160197Y-78839803D01*
X112201399Y-78867333D01*
X112250000Y-78877000D01*
X120947394Y-78877000D01*
X121873000Y-79802606D01*
X121873000Y-82750000D01*
X121882667Y-82798601D01*
X121910197Y-82839803D01*
X121951399Y-82867333D01*
X122000544Y-82876999D01*
X122344836Y-82875523D01*
X122285792Y-82927584D01*
X122019982Y-83405069D01*
X122201510Y-83732500D01*
X124097000Y-83732500D01*
X124097000Y-83377000D01*
X125843000Y-83377000D01*
X125843000Y-83732500D01*
X129097000Y-83732500D01*
X129097000Y-83377000D01*
X130843000Y-83377000D01*
X130843000Y-83732500D01*
X132738490Y-83732500D01*
X132920018Y-83405069D01*
X132654208Y-82927584D01*
X132545582Y-82831805D01*
X133315850Y-82828504D01*
X133364409Y-82818628D01*
X133405493Y-82790922D01*
X133432846Y-82749602D01*
X133442306Y-82701679D01*
X133457076Y-71951679D01*
X133454361Y-71937932D01*
X133506183Y-71929052D01*
X133713226Y-71843291D01*
X134089368Y-71323977D01*
X132000000Y-69234608D01*
X129910632Y-71323977D01*
X130230067Y-71765000D01*
X128876584Y-71765000D01*
X128577432Y-71824505D01*
X128424301Y-71824505D01*
X127231706Y-67887948D01*
X127793639Y-67887948D01*
X128070948Y-69506183D01*
X128156709Y-69713226D01*
X128676023Y-70089368D01*
X130765392Y-68000000D01*
X133234608Y-68000000D01*
X135323977Y-70089368D01*
X135843291Y-69713226D01*
X136206361Y-68112052D01*
X135929052Y-66493817D01*
X135843291Y-66286774D01*
X135323977Y-65910632D01*
X133234608Y-68000000D01*
X130765392Y-68000000D01*
X128676023Y-65910632D01*
X128156709Y-66286774D01*
X127793639Y-67887948D01*
X127231706Y-67887948D01*
X126938006Y-66918495D01*
X126409438Y-64676023D01*
X129910632Y-64676023D01*
X132000000Y-66765392D01*
X134089368Y-64676023D01*
X133713226Y-64156709D01*
X132112052Y-63793639D01*
X130493817Y-64070948D01*
X130286774Y-64156709D01*
X129910632Y-64676023D01*
X126409438Y-64676023D01*
X125123613Y-59220864D01*
X125103053Y-59175777D01*
X125066805Y-59141990D01*
X125000000Y-59123000D01*
X112250000Y-59123000D01*
X112201399Y-59132667D01*
X112160197Y-59160197D01*
X112132667Y-59201399D01*
X112123000Y-59250000D01*
X83942306Y-59250000D01*
X83942306Y-58710000D01*
X129705910Y-58710000D01*
X141290000Y-70294092D01*
G04 #@! TD*
M02*
