M48
;DRILL file {KiCad (5.0.2)-1} date 5/25/2019 7:54:12 PM
;FORMAT={3:3/ absolute / metric / suppress leading zeros}
FMAT,2
METRIC,TZ
T1C0.300
T2C0.400
T3C0.500
T4C0.650
T5C1.000
T6C1.016
T7C1.100
T8C3.048
%
G90
G05
T1
X142548Y-85165
X147173Y-77190
X148928Y-78570
X149598Y-78515
X150998Y-97615
X151048Y-99765
X151073Y-96465
X153448Y-98140
X153523Y-96890
X153523Y-97540
X155073Y-92840
X155498Y-77115
X156248Y-98190
X159723Y-99715
X160273Y-77415
X161971Y-101961
X162122Y-104012
X162248Y-85365
X162248Y-92336
X162398Y-104990
X162423Y-116290
X162448Y-119265
X162473Y-102290
X162702Y-96434
X162717Y-77681
X162723Y-97115
X162873Y-97840
X162980Y-110363
X163086Y-115527
X163723Y-119215
X163748Y-115515
X165773Y-85490
X166473Y-88090
X166498Y-85490
X167223Y-88165
X167448Y-81140
X167448Y-85365
X167773Y-82690
X167898Y-81715
X167898Y-85840
X167998Y-110365
X168698Y-104115
X169174Y-104594
X170123Y-107665
X170623Y-102290
X171098Y-102790
X171323Y-107640
X172073Y-121265
X172715Y-86040
X172730Y-85381
X172798Y-120815
X173598Y-104440
X173623Y-105715
X173748Y-77290
X174197Y-104411
X174723Y-103690
X174748Y-105715
T2
X112748Y-117615
X113248Y-87115
X114998Y-117615
X115498Y-87115
X116998Y-117615
X117498Y-87115
X118248Y-106365
X119498Y-86365
X119498Y-117615
X119498Y-119865
X119498Y-122365
X119498Y-124865
X119998Y-80615
X119998Y-83115
X134498Y-110865
X138498Y-94365
X139248Y-80115
X140248Y-102865
X140998Y-93865
X141748Y-103615
X142248Y-118365
X144248Y-79115
X146748Y-97615
X146748Y-113115
X149248Y-105865
X149498Y-81615
X149498Y-87615
X150498Y-92865
X150748Y-100865
X151748Y-119865
X154248Y-119865
X155998Y-121115
X156923Y-95540
X162498Y-111115
X162823Y-95540
X162998Y-120365
X163342Y-101196
X163698Y-111390
X166748Y-78115
X166748Y-121865
X173498Y-116865
X176498Y-106365
X176498Y-112115
X179748Y-108365
X179748Y-114365
T3
X164598Y-108365
X166498Y-108365
T4
X176998Y-79865
X176998Y-81135
X176998Y-82405
X176998Y-83675
X168998Y-79865
X168998Y-81135
X168998Y-82405
X164998Y-79865
X164998Y-81135
X164998Y-82405
X172748Y-79865
X172748Y-81135
X172748Y-82405
X172748Y-83675
T5
X120748Y-103865
X120748Y-106365
X185748Y-76865
X185748Y-79365
X185748Y-81865
X185748Y-84365
X185748Y-86865
X185748Y-89365
X185748Y-91865
X185748Y-94365
X174623Y-95900
X174623Y-98440
X174623Y-100980
X177163Y-95900
X177163Y-98440
X177163Y-100980
X154498Y-81365
X156998Y-81365
X159498Y-81365
T6
X161798Y-123825
X164338Y-123825
X166878Y-123825
X169418Y-123825
X171958Y-123825
X174498Y-123825
X156718Y-75565
X159258Y-75565
X161798Y-75565
X164338Y-75565
X166878Y-75565
X169418Y-75565
X171958Y-75565
X174498Y-75565
X138938Y-123825
X141478Y-123825
X144018Y-123825
X146558Y-123825
X149098Y-123825
X151638Y-123825
X154178Y-123825
X156718Y-123825
X129794Y-75565
X132334Y-75565
X134874Y-75565
X137414Y-75565
X139954Y-75565
X142494Y-75565
X145034Y-75565
X147574Y-75565
X150114Y-75565
X152654Y-75565
T7
X184404Y-102997
X184404Y-108077
X184404Y-116615
X184404Y-121695
T8
X177038Y-90805
X126238Y-75565
X177038Y-118745
X124968Y-123825
T0
M30
