G04 #@! TF.GenerationSoftware,KiCad,Pcbnew,(5.0.2)-1*
G04 #@! TF.CreationDate,2019-05-25T19:55:33-02:30*
G04 #@! TF.ProjectId,ControllerPCB,436f6e74-726f-46c6-9c65-725043422e6b,rev?*
G04 #@! TF.SameCoordinates,Original*
G04 #@! TF.FileFunction,Legend,Bot*
G04 #@! TF.FilePolarity,Positive*
%FSLAX46Y46*%
G04 Gerber Fmt 4.6, Leading zero omitted, Abs format (unit mm)*
G04 Created by KiCad (PCBNEW (5.0.2)-1) date 5/25/2019 7:55:33 PM*
%MOMM*%
%LPD*%
G01*
G04 APERTURE LIST*
%ADD10C,0.300000*%
%ADD11C,0.010000*%
%ADD12C,0.100000*%
%ADD13C,0.150000*%
%ADD14C,0.120000*%
G04 APERTURE END LIST*
D10*
X120201571Y-99722142D02*
X121344428Y-99722142D01*
X120773000Y-100293571D02*
X120773000Y-99150714D01*
D11*
G04 #@! TO.C,logo3*
G36*
X150895682Y-118031067D02*
X151031929Y-117983828D01*
X151158779Y-117909473D01*
X151272067Y-117808013D01*
X151367628Y-117679457D01*
X151410554Y-117598428D01*
X151447705Y-117485092D01*
X151465712Y-117354249D01*
X151463717Y-117219735D01*
X151441577Y-117097842D01*
X151381064Y-116948893D01*
X151293314Y-116819691D01*
X151182788Y-116712777D01*
X151053946Y-116630694D01*
X150911247Y-116575984D01*
X150759151Y-116551190D01*
X150602119Y-116558853D01*
X150524714Y-116575228D01*
X150373859Y-116633911D01*
X150239875Y-116723457D01*
X150125994Y-116841107D01*
X150035448Y-116984098D01*
X150027788Y-116999714D01*
X150001306Y-117058314D01*
X149984678Y-117107666D01*
X149975650Y-117159730D01*
X149971968Y-117226461D01*
X149971357Y-117299071D01*
X149972367Y-117386309D01*
X149976928Y-117449376D01*
X149987334Y-117500364D01*
X150005879Y-117551367D01*
X150028770Y-117601687D01*
X150114154Y-117744530D01*
X150219301Y-117860190D01*
X150340045Y-117948675D01*
X150472221Y-118009995D01*
X150611663Y-118044161D01*
X150754205Y-118051182D01*
X150895682Y-118031067D01*
X150895682Y-118031067D01*
G37*
X150895682Y-118031067D02*
X151031929Y-117983828D01*
X151158779Y-117909473D01*
X151272067Y-117808013D01*
X151367628Y-117679457D01*
X151410554Y-117598428D01*
X151447705Y-117485092D01*
X151465712Y-117354249D01*
X151463717Y-117219735D01*
X151441577Y-117097842D01*
X151381064Y-116948893D01*
X151293314Y-116819691D01*
X151182788Y-116712777D01*
X151053946Y-116630694D01*
X150911247Y-116575984D01*
X150759151Y-116551190D01*
X150602119Y-116558853D01*
X150524714Y-116575228D01*
X150373859Y-116633911D01*
X150239875Y-116723457D01*
X150125994Y-116841107D01*
X150035448Y-116984098D01*
X150027788Y-116999714D01*
X150001306Y-117058314D01*
X149984678Y-117107666D01*
X149975650Y-117159730D01*
X149971968Y-117226461D01*
X149971357Y-117299071D01*
X149972367Y-117386309D01*
X149976928Y-117449376D01*
X149987334Y-117500364D01*
X150005879Y-117551367D01*
X150028770Y-117601687D01*
X150114154Y-117744530D01*
X150219301Y-117860190D01*
X150340045Y-117948675D01*
X150472221Y-118009995D01*
X150611663Y-118044161D01*
X150754205Y-118051182D01*
X150895682Y-118031067D01*
G36*
X163539571Y-116814911D02*
X163693876Y-116814277D01*
X163746321Y-116813958D01*
X164467500Y-116809214D01*
X164476571Y-114042428D01*
X164477769Y-113667244D01*
X164478832Y-113326583D01*
X164479827Y-113018682D01*
X164480823Y-112741779D01*
X164481888Y-112494112D01*
X164483091Y-112273919D01*
X164484499Y-112079438D01*
X164486182Y-111908906D01*
X164488206Y-111760560D01*
X164490641Y-111632639D01*
X164493554Y-111523380D01*
X164497015Y-111431021D01*
X164501090Y-111353800D01*
X164505849Y-111289954D01*
X164511360Y-111237722D01*
X164517691Y-111195340D01*
X164524910Y-111161047D01*
X164533085Y-111133080D01*
X164542285Y-111109676D01*
X164552577Y-111089075D01*
X164564031Y-111069513D01*
X164576715Y-111049228D01*
X164590695Y-111026457D01*
X164593561Y-111021607D01*
X164641640Y-110939567D01*
X163251928Y-110949071D01*
X163242857Y-111101705D01*
X163237918Y-111174955D01*
X163232771Y-111217304D01*
X163225786Y-111234108D01*
X163215337Y-111230723D01*
X163206571Y-111221040D01*
X163168388Y-111185771D01*
X163106155Y-111140437D01*
X163028641Y-111090454D01*
X162944613Y-111041239D01*
X162862839Y-110998209D01*
X162800052Y-110969899D01*
X162652954Y-110923376D01*
X162484180Y-110890421D01*
X162306191Y-110872293D01*
X162131447Y-110870250D01*
X161972407Y-110885553D01*
X161969788Y-110885991D01*
X161752168Y-110940598D01*
X161548455Y-111027599D01*
X161360613Y-111145124D01*
X161190607Y-111291303D01*
X161040402Y-111464266D01*
X160911964Y-111662143D01*
X160807257Y-111883064D01*
X160750246Y-112046714D01*
X160712651Y-112183625D01*
X160684771Y-112316202D01*
X160665753Y-112452498D01*
X160654745Y-112600567D01*
X160650895Y-112768463D01*
X160652600Y-112905560D01*
X161991359Y-112905560D01*
X161997694Y-112675671D01*
X162017679Y-112477889D01*
X162051927Y-112310461D01*
X162101055Y-112171631D01*
X162165676Y-112059642D01*
X162246405Y-111972741D01*
X162339591Y-111911308D01*
X162388080Y-111888374D01*
X162430134Y-111874625D01*
X162477020Y-111868334D01*
X162540004Y-111867778D01*
X162607857Y-111870227D01*
X162741295Y-111881996D01*
X162846832Y-111905045D01*
X162880000Y-111916590D01*
X162955735Y-111950689D01*
X163035614Y-111993509D01*
X163070500Y-112014943D01*
X163161214Y-112074444D01*
X163161214Y-113960416D01*
X163061428Y-114020229D01*
X162922267Y-114087815D01*
X162780087Y-114127786D01*
X162640090Y-114140378D01*
X162507474Y-114125827D01*
X162387440Y-114084368D01*
X162285188Y-114016237D01*
X162252195Y-113983534D01*
X162172667Y-113876381D01*
X162108299Y-113746673D01*
X162058553Y-113592186D01*
X162022891Y-113410698D01*
X162000775Y-113199985D01*
X161991667Y-112957825D01*
X161991359Y-112905560D01*
X160652600Y-112905560D01*
X160653310Y-112962626D01*
X160668605Y-113261287D01*
X160699358Y-113530675D01*
X160746381Y-113774715D01*
X160810482Y-113997330D01*
X160892472Y-114202444D01*
X160921730Y-114263254D01*
X161039581Y-114461560D01*
X161181996Y-114637788D01*
X161345629Y-114789092D01*
X161527131Y-114912629D01*
X161723153Y-115005553D01*
X161840655Y-115043885D01*
X161956054Y-115066641D01*
X162094907Y-115080180D01*
X162245574Y-115084508D01*
X162396413Y-115079632D01*
X162535785Y-115065556D01*
X162647691Y-115043475D01*
X162780884Y-115000172D01*
X162909979Y-114944489D01*
X163022928Y-114882064D01*
X163083043Y-114839697D01*
X163124510Y-114808193D01*
X163153545Y-114789010D01*
X163160150Y-114786286D01*
X163162198Y-114803837D01*
X163164107Y-114854125D01*
X163165836Y-114933600D01*
X163167341Y-115038714D01*
X163168581Y-115165917D01*
X163169513Y-115311661D01*
X163170095Y-115472397D01*
X163170286Y-115636116D01*
X163170179Y-115845812D01*
X163169658Y-116022604D01*
X163168416Y-116169874D01*
X163166148Y-116291003D01*
X163162550Y-116389373D01*
X163157317Y-116468366D01*
X163150144Y-116531362D01*
X163140726Y-116581745D01*
X163128758Y-116622895D01*
X163113935Y-116658194D01*
X163095952Y-116691023D01*
X163074505Y-116724765D01*
X163071745Y-116728943D01*
X163044083Y-116772644D01*
X163027382Y-116802695D01*
X163025143Y-116809033D01*
X163042643Y-116811033D01*
X163092574Y-116812660D01*
X163171085Y-116813888D01*
X163274323Y-116814689D01*
X163398436Y-116815039D01*
X163539571Y-116814911D01*
X163539571Y-116814911D01*
G37*
X163539571Y-116814911D02*
X163693876Y-116814277D01*
X163746321Y-116813958D01*
X164467500Y-116809214D01*
X164476571Y-114042428D01*
X164477769Y-113667244D01*
X164478832Y-113326583D01*
X164479827Y-113018682D01*
X164480823Y-112741779D01*
X164481888Y-112494112D01*
X164483091Y-112273919D01*
X164484499Y-112079438D01*
X164486182Y-111908906D01*
X164488206Y-111760560D01*
X164490641Y-111632639D01*
X164493554Y-111523380D01*
X164497015Y-111431021D01*
X164501090Y-111353800D01*
X164505849Y-111289954D01*
X164511360Y-111237722D01*
X164517691Y-111195340D01*
X164524910Y-111161047D01*
X164533085Y-111133080D01*
X164542285Y-111109676D01*
X164552577Y-111089075D01*
X164564031Y-111069513D01*
X164576715Y-111049228D01*
X164590695Y-111026457D01*
X164593561Y-111021607D01*
X164641640Y-110939567D01*
X163251928Y-110949071D01*
X163242857Y-111101705D01*
X163237918Y-111174955D01*
X163232771Y-111217304D01*
X163225786Y-111234108D01*
X163215337Y-111230723D01*
X163206571Y-111221040D01*
X163168388Y-111185771D01*
X163106155Y-111140437D01*
X163028641Y-111090454D01*
X162944613Y-111041239D01*
X162862839Y-110998209D01*
X162800052Y-110969899D01*
X162652954Y-110923376D01*
X162484180Y-110890421D01*
X162306191Y-110872293D01*
X162131447Y-110870250D01*
X161972407Y-110885553D01*
X161969788Y-110885991D01*
X161752168Y-110940598D01*
X161548455Y-111027599D01*
X161360613Y-111145124D01*
X161190607Y-111291303D01*
X161040402Y-111464266D01*
X160911964Y-111662143D01*
X160807257Y-111883064D01*
X160750246Y-112046714D01*
X160712651Y-112183625D01*
X160684771Y-112316202D01*
X160665753Y-112452498D01*
X160654745Y-112600567D01*
X160650895Y-112768463D01*
X160652600Y-112905560D01*
X161991359Y-112905560D01*
X161997694Y-112675671D01*
X162017679Y-112477889D01*
X162051927Y-112310461D01*
X162101055Y-112171631D01*
X162165676Y-112059642D01*
X162246405Y-111972741D01*
X162339591Y-111911308D01*
X162388080Y-111888374D01*
X162430134Y-111874625D01*
X162477020Y-111868334D01*
X162540004Y-111867778D01*
X162607857Y-111870227D01*
X162741295Y-111881996D01*
X162846832Y-111905045D01*
X162880000Y-111916590D01*
X162955735Y-111950689D01*
X163035614Y-111993509D01*
X163070500Y-112014943D01*
X163161214Y-112074444D01*
X163161214Y-113960416D01*
X163061428Y-114020229D01*
X162922267Y-114087815D01*
X162780087Y-114127786D01*
X162640090Y-114140378D01*
X162507474Y-114125827D01*
X162387440Y-114084368D01*
X162285188Y-114016237D01*
X162252195Y-113983534D01*
X162172667Y-113876381D01*
X162108299Y-113746673D01*
X162058553Y-113592186D01*
X162022891Y-113410698D01*
X162000775Y-113199985D01*
X161991667Y-112957825D01*
X161991359Y-112905560D01*
X160652600Y-112905560D01*
X160653310Y-112962626D01*
X160668605Y-113261287D01*
X160699358Y-113530675D01*
X160746381Y-113774715D01*
X160810482Y-113997330D01*
X160892472Y-114202444D01*
X160921730Y-114263254D01*
X161039581Y-114461560D01*
X161181996Y-114637788D01*
X161345629Y-114789092D01*
X161527131Y-114912629D01*
X161723153Y-115005553D01*
X161840655Y-115043885D01*
X161956054Y-115066641D01*
X162094907Y-115080180D01*
X162245574Y-115084508D01*
X162396413Y-115079632D01*
X162535785Y-115065556D01*
X162647691Y-115043475D01*
X162780884Y-115000172D01*
X162909979Y-114944489D01*
X163022928Y-114882064D01*
X163083043Y-114839697D01*
X163124510Y-114808193D01*
X163153545Y-114789010D01*
X163160150Y-114786286D01*
X163162198Y-114803837D01*
X163164107Y-114854125D01*
X163165836Y-114933600D01*
X163167341Y-115038714D01*
X163168581Y-115165917D01*
X163169513Y-115311661D01*
X163170095Y-115472397D01*
X163170286Y-115636116D01*
X163170179Y-115845812D01*
X163169658Y-116022604D01*
X163168416Y-116169874D01*
X163166148Y-116291003D01*
X163162550Y-116389373D01*
X163157317Y-116468366D01*
X163150144Y-116531362D01*
X163140726Y-116581745D01*
X163128758Y-116622895D01*
X163113935Y-116658194D01*
X163095952Y-116691023D01*
X163074505Y-116724765D01*
X163071745Y-116728943D01*
X163044083Y-116772644D01*
X163027382Y-116802695D01*
X163025143Y-116809033D01*
X163042643Y-116811033D01*
X163092574Y-116812660D01*
X163171085Y-116813888D01*
X163274323Y-116814689D01*
X163398436Y-116815039D01*
X163539571Y-116814911D01*
G36*
X158683632Y-115087270D02*
X158773523Y-115080465D01*
X159030715Y-115046247D01*
X159258485Y-114991669D01*
X159457943Y-114915980D01*
X159630197Y-114818430D01*
X159776359Y-114698268D01*
X159897536Y-114554742D01*
X159994839Y-114387102D01*
X160065891Y-114205714D01*
X160083927Y-114147854D01*
X160099632Y-114093671D01*
X160113192Y-114040248D01*
X160124792Y-113984667D01*
X160134617Y-113924012D01*
X160142853Y-113855365D01*
X160149684Y-113775810D01*
X160155295Y-113682428D01*
X160159872Y-113572304D01*
X160163600Y-113442519D01*
X160166665Y-113290158D01*
X160169250Y-113112302D01*
X160171542Y-112906035D01*
X160173725Y-112668439D01*
X160175286Y-112482143D01*
X160185785Y-111203071D01*
X160253821Y-111079982D01*
X160286038Y-111020683D01*
X160310012Y-110974623D01*
X160321450Y-110950107D01*
X160321857Y-110948447D01*
X160304375Y-110946546D01*
X160254574Y-110944795D01*
X160176421Y-110943242D01*
X160073882Y-110941938D01*
X159950922Y-110940930D01*
X159811510Y-110940269D01*
X159659611Y-110940003D01*
X159641500Y-110940000D01*
X158961143Y-110940000D01*
X158961143Y-111094214D01*
X158959982Y-111163906D01*
X158956887Y-111217206D01*
X158952432Y-111245783D01*
X158950463Y-111248428D01*
X158932455Y-111237347D01*
X158895393Y-111208264D01*
X158847222Y-111167421D01*
X158846141Y-111166476D01*
X158758235Y-111101029D01*
X158647217Y-111035312D01*
X158525631Y-110975781D01*
X158406021Y-110928891D01*
X158353357Y-110912867D01*
X158248551Y-110892515D01*
X158119950Y-110879528D01*
X157979325Y-110874091D01*
X157838448Y-110876389D01*
X157709093Y-110886608D01*
X157618571Y-110901311D01*
X157396580Y-110966501D01*
X157196729Y-111059406D01*
X157020319Y-111178874D01*
X156868650Y-111323753D01*
X156743024Y-111492890D01*
X156644741Y-111685133D01*
X156602341Y-111801786D01*
X156575768Y-111915167D01*
X156558158Y-112051278D01*
X156550010Y-112197563D01*
X156550278Y-112218849D01*
X157777321Y-112218849D01*
X157787496Y-112110150D01*
X157821378Y-112019815D01*
X157884000Y-111936005D01*
X157908052Y-111911429D01*
X157993551Y-111844989D01*
X158092373Y-111802426D01*
X158210768Y-111781823D01*
X158335445Y-111780306D01*
X158453698Y-111790323D01*
X158544239Y-111809915D01*
X158583560Y-111824630D01*
X158654432Y-111864735D01*
X158729525Y-111921137D01*
X158798038Y-111984439D01*
X158849172Y-112045245D01*
X158862750Y-112067551D01*
X158873305Y-112098788D01*
X158880810Y-112148493D01*
X158885613Y-112221413D01*
X158888065Y-112322297D01*
X158888571Y-112418311D01*
X158888228Y-112530250D01*
X158886843Y-112611191D01*
X158883881Y-112666415D01*
X158878808Y-112701206D01*
X158871090Y-112720846D01*
X158860192Y-112730620D01*
X158856821Y-112732176D01*
X158827529Y-112736971D01*
X158769756Y-112740892D01*
X158691304Y-112743586D01*
X158599974Y-112744701D01*
X158580143Y-112744702D01*
X158458063Y-112742754D01*
X158363749Y-112736959D01*
X158288807Y-112726525D01*
X158226903Y-112711286D01*
X158073349Y-112653216D01*
X157952932Y-112581821D01*
X157864610Y-112495961D01*
X157807339Y-112394493D01*
X157780078Y-112276275D01*
X157777321Y-112218849D01*
X156550278Y-112218849D01*
X156551823Y-112341467D01*
X156564096Y-112470435D01*
X156573670Y-112522540D01*
X156634801Y-112716003D01*
X156727757Y-112894007D01*
X156850783Y-113054845D01*
X157002124Y-113196810D01*
X157180025Y-113318194D01*
X157382732Y-113417291D01*
X157555071Y-113477467D01*
X157670253Y-113509081D01*
X157780423Y-113533646D01*
X157892719Y-113551961D01*
X158014275Y-113564822D01*
X158152229Y-113573028D01*
X158313715Y-113577376D01*
X158459715Y-113578600D01*
X158892645Y-113579785D01*
X158884351Y-113709920D01*
X158860801Y-113851117D01*
X158810703Y-113972482D01*
X158736191Y-114070983D01*
X158639399Y-114143591D01*
X158554171Y-114179021D01*
X158432056Y-114201350D01*
X158286683Y-114204557D01*
X158124867Y-114189823D01*
X157953422Y-114158330D01*
X157779163Y-114111260D01*
X157608904Y-114049797D01*
X157485176Y-113993583D01*
X157425647Y-113964717D01*
X157380242Y-113944557D01*
X157357150Y-113936690D01*
X157355897Y-113936942D01*
X157347929Y-113954563D01*
X157328031Y-114001267D01*
X157298077Y-114072582D01*
X157259939Y-114164031D01*
X157215488Y-114271141D01*
X157170305Y-114380451D01*
X156989667Y-114818260D01*
X157118155Y-114839364D01*
X157173846Y-114849953D01*
X157257564Y-114867737D01*
X157362139Y-114891102D01*
X157480399Y-114918435D01*
X157605172Y-114948119D01*
X157654857Y-114960182D01*
X157869807Y-115010038D01*
X158057995Y-115047416D01*
X158226446Y-115073073D01*
X158382186Y-115087765D01*
X158532240Y-115092245D01*
X158683632Y-115087270D01*
X158683632Y-115087270D01*
G37*
X158683632Y-115087270D02*
X158773523Y-115080465D01*
X159030715Y-115046247D01*
X159258485Y-114991669D01*
X159457943Y-114915980D01*
X159630197Y-114818430D01*
X159776359Y-114698268D01*
X159897536Y-114554742D01*
X159994839Y-114387102D01*
X160065891Y-114205714D01*
X160083927Y-114147854D01*
X160099632Y-114093671D01*
X160113192Y-114040248D01*
X160124792Y-113984667D01*
X160134617Y-113924012D01*
X160142853Y-113855365D01*
X160149684Y-113775810D01*
X160155295Y-113682428D01*
X160159872Y-113572304D01*
X160163600Y-113442519D01*
X160166665Y-113290158D01*
X160169250Y-113112302D01*
X160171542Y-112906035D01*
X160173725Y-112668439D01*
X160175286Y-112482143D01*
X160185785Y-111203071D01*
X160253821Y-111079982D01*
X160286038Y-111020683D01*
X160310012Y-110974623D01*
X160321450Y-110950107D01*
X160321857Y-110948447D01*
X160304375Y-110946546D01*
X160254574Y-110944795D01*
X160176421Y-110943242D01*
X160073882Y-110941938D01*
X159950922Y-110940930D01*
X159811510Y-110940269D01*
X159659611Y-110940003D01*
X159641500Y-110940000D01*
X158961143Y-110940000D01*
X158961143Y-111094214D01*
X158959982Y-111163906D01*
X158956887Y-111217206D01*
X158952432Y-111245783D01*
X158950463Y-111248428D01*
X158932455Y-111237347D01*
X158895393Y-111208264D01*
X158847222Y-111167421D01*
X158846141Y-111166476D01*
X158758235Y-111101029D01*
X158647217Y-111035312D01*
X158525631Y-110975781D01*
X158406021Y-110928891D01*
X158353357Y-110912867D01*
X158248551Y-110892515D01*
X158119950Y-110879528D01*
X157979325Y-110874091D01*
X157838448Y-110876389D01*
X157709093Y-110886608D01*
X157618571Y-110901311D01*
X157396580Y-110966501D01*
X157196729Y-111059406D01*
X157020319Y-111178874D01*
X156868650Y-111323753D01*
X156743024Y-111492890D01*
X156644741Y-111685133D01*
X156602341Y-111801786D01*
X156575768Y-111915167D01*
X156558158Y-112051278D01*
X156550010Y-112197563D01*
X156550278Y-112218849D01*
X157777321Y-112218849D01*
X157787496Y-112110150D01*
X157821378Y-112019815D01*
X157884000Y-111936005D01*
X157908052Y-111911429D01*
X157993551Y-111844989D01*
X158092373Y-111802426D01*
X158210768Y-111781823D01*
X158335445Y-111780306D01*
X158453698Y-111790323D01*
X158544239Y-111809915D01*
X158583560Y-111824630D01*
X158654432Y-111864735D01*
X158729525Y-111921137D01*
X158798038Y-111984439D01*
X158849172Y-112045245D01*
X158862750Y-112067551D01*
X158873305Y-112098788D01*
X158880810Y-112148493D01*
X158885613Y-112221413D01*
X158888065Y-112322297D01*
X158888571Y-112418311D01*
X158888228Y-112530250D01*
X158886843Y-112611191D01*
X158883881Y-112666415D01*
X158878808Y-112701206D01*
X158871090Y-112720846D01*
X158860192Y-112730620D01*
X158856821Y-112732176D01*
X158827529Y-112736971D01*
X158769756Y-112740892D01*
X158691304Y-112743586D01*
X158599974Y-112744701D01*
X158580143Y-112744702D01*
X158458063Y-112742754D01*
X158363749Y-112736959D01*
X158288807Y-112726525D01*
X158226903Y-112711286D01*
X158073349Y-112653216D01*
X157952932Y-112581821D01*
X157864610Y-112495961D01*
X157807339Y-112394493D01*
X157780078Y-112276275D01*
X157777321Y-112218849D01*
X156550278Y-112218849D01*
X156551823Y-112341467D01*
X156564096Y-112470435D01*
X156573670Y-112522540D01*
X156634801Y-112716003D01*
X156727757Y-112894007D01*
X156850783Y-113054845D01*
X157002124Y-113196810D01*
X157180025Y-113318194D01*
X157382732Y-113417291D01*
X157555071Y-113477467D01*
X157670253Y-113509081D01*
X157780423Y-113533646D01*
X157892719Y-113551961D01*
X158014275Y-113564822D01*
X158152229Y-113573028D01*
X158313715Y-113577376D01*
X158459715Y-113578600D01*
X158892645Y-113579785D01*
X158884351Y-113709920D01*
X158860801Y-113851117D01*
X158810703Y-113972482D01*
X158736191Y-114070983D01*
X158639399Y-114143591D01*
X158554171Y-114179021D01*
X158432056Y-114201350D01*
X158286683Y-114204557D01*
X158124867Y-114189823D01*
X157953422Y-114158330D01*
X157779163Y-114111260D01*
X157608904Y-114049797D01*
X157485176Y-113993583D01*
X157425647Y-113964717D01*
X157380242Y-113944557D01*
X157357150Y-113936690D01*
X157355897Y-113936942D01*
X157347929Y-113954563D01*
X157328031Y-114001267D01*
X157298077Y-114072582D01*
X157259939Y-114164031D01*
X157215488Y-114271141D01*
X157170305Y-114380451D01*
X156989667Y-114818260D01*
X157118155Y-114839364D01*
X157173846Y-114849953D01*
X157257564Y-114867737D01*
X157362139Y-114891102D01*
X157480399Y-114918435D01*
X157605172Y-114948119D01*
X157654857Y-114960182D01*
X157869807Y-115010038D01*
X158057995Y-115047416D01*
X158226446Y-115073073D01*
X158382186Y-115087765D01*
X158532240Y-115092245D01*
X158683632Y-115087270D01*
G36*
X155079378Y-116545769D02*
X155275019Y-116524351D01*
X155464562Y-116486015D01*
X155655717Y-116428762D01*
X155856196Y-116350591D01*
X156073708Y-116249504D01*
X156112880Y-116229924D01*
X156202772Y-116185638D01*
X156287553Y-116145761D01*
X156358855Y-116114102D01*
X156408310Y-116094468D01*
X156415908Y-116091996D01*
X156488714Y-116070183D01*
X156162803Y-115596056D01*
X156083123Y-115480177D01*
X156010272Y-115374306D01*
X155946730Y-115282038D01*
X155894972Y-115206967D01*
X155857477Y-115152687D01*
X155836723Y-115122793D01*
X155833351Y-115118059D01*
X155819655Y-115127958D01*
X155785943Y-115157715D01*
X155738244Y-115201927D01*
X155711920Y-115226916D01*
X155562772Y-115345544D01*
X155395268Y-115435687D01*
X155250928Y-115485064D01*
X155164283Y-115500571D01*
X155055796Y-115510021D01*
X154938227Y-115513239D01*
X154824334Y-115510049D01*
X154726879Y-115500276D01*
X154687990Y-115492791D01*
X154512712Y-115432488D01*
X154354765Y-115340410D01*
X154214268Y-115216727D01*
X154091335Y-115061607D01*
X153986085Y-114875219D01*
X153898635Y-114657730D01*
X153829100Y-114409308D01*
X153787775Y-114196643D01*
X153776994Y-114102759D01*
X153769648Y-113981476D01*
X153765667Y-113841507D01*
X153764979Y-113691569D01*
X153767514Y-113540378D01*
X153773200Y-113396649D01*
X153781967Y-113269097D01*
X153793744Y-113166438D01*
X153796293Y-113150599D01*
X153852481Y-112895464D01*
X153929036Y-112669658D01*
X154026426Y-112472169D01*
X154145114Y-112301986D01*
X154229363Y-112209978D01*
X154380770Y-112085057D01*
X154546817Y-111992460D01*
X154724701Y-111932691D01*
X154911622Y-111906254D01*
X155104778Y-111913652D01*
X155301369Y-111955389D01*
X155417597Y-111996229D01*
X155578438Y-112078010D01*
X155744213Y-112195322D01*
X155837073Y-112274655D01*
X155889214Y-112320571D01*
X155930180Y-112354258D01*
X155953498Y-112370490D01*
X155956393Y-112370985D01*
X155966800Y-112354399D01*
X155993767Y-112310568D01*
X156034996Y-112243252D01*
X156088189Y-112156206D01*
X156151050Y-112053190D01*
X156221281Y-111937959D01*
X156260372Y-111873769D01*
X156558964Y-111383323D01*
X156186161Y-111199085D01*
X156051369Y-111132907D01*
X155942175Y-111080722D01*
X155851907Y-111039940D01*
X155773888Y-111007967D01*
X155701444Y-110982213D01*
X155627901Y-110960086D01*
X155546584Y-110938993D01*
X155468643Y-110920470D01*
X155399366Y-110906137D01*
X155326917Y-110895306D01*
X155244042Y-110887374D01*
X155143488Y-110881742D01*
X155018003Y-110877808D01*
X154933428Y-110876109D01*
X154812754Y-110874950D01*
X154697042Y-110875535D01*
X154593951Y-110877696D01*
X154511138Y-110881268D01*
X154456260Y-110886083D01*
X154453008Y-110886563D01*
X154168043Y-110948214D01*
X153900442Y-111041715D01*
X153650297Y-111167007D01*
X153417704Y-111324026D01*
X153202757Y-111512711D01*
X153005550Y-111733000D01*
X152862727Y-111928786D01*
X152710680Y-112185051D01*
X152587773Y-112455683D01*
X152493410Y-112742851D01*
X152426999Y-113048724D01*
X152387944Y-113375472D01*
X152375640Y-113707261D01*
X152385759Y-114028221D01*
X152417561Y-114324354D01*
X152472054Y-114600655D01*
X152550250Y-114862119D01*
X152653159Y-115113742D01*
X152665447Y-115139810D01*
X152800820Y-115383493D01*
X152967089Y-115615382D01*
X153159541Y-115830677D01*
X153373466Y-116024578D01*
X153604155Y-116192285D01*
X153819109Y-116315304D01*
X154036258Y-116411655D01*
X154253868Y-116481449D01*
X154480362Y-116526587D01*
X154724166Y-116548969D01*
X154869928Y-116552269D01*
X155079378Y-116545769D01*
X155079378Y-116545769D01*
G37*
X155079378Y-116545769D02*
X155275019Y-116524351D01*
X155464562Y-116486015D01*
X155655717Y-116428762D01*
X155856196Y-116350591D01*
X156073708Y-116249504D01*
X156112880Y-116229924D01*
X156202772Y-116185638D01*
X156287553Y-116145761D01*
X156358855Y-116114102D01*
X156408310Y-116094468D01*
X156415908Y-116091996D01*
X156488714Y-116070183D01*
X156162803Y-115596056D01*
X156083123Y-115480177D01*
X156010272Y-115374306D01*
X155946730Y-115282038D01*
X155894972Y-115206967D01*
X155857477Y-115152687D01*
X155836723Y-115122793D01*
X155833351Y-115118059D01*
X155819655Y-115127958D01*
X155785943Y-115157715D01*
X155738244Y-115201927D01*
X155711920Y-115226916D01*
X155562772Y-115345544D01*
X155395268Y-115435687D01*
X155250928Y-115485064D01*
X155164283Y-115500571D01*
X155055796Y-115510021D01*
X154938227Y-115513239D01*
X154824334Y-115510049D01*
X154726879Y-115500276D01*
X154687990Y-115492791D01*
X154512712Y-115432488D01*
X154354765Y-115340410D01*
X154214268Y-115216727D01*
X154091335Y-115061607D01*
X153986085Y-114875219D01*
X153898635Y-114657730D01*
X153829100Y-114409308D01*
X153787775Y-114196643D01*
X153776994Y-114102759D01*
X153769648Y-113981476D01*
X153765667Y-113841507D01*
X153764979Y-113691569D01*
X153767514Y-113540378D01*
X153773200Y-113396649D01*
X153781967Y-113269097D01*
X153793744Y-113166438D01*
X153796293Y-113150599D01*
X153852481Y-112895464D01*
X153929036Y-112669658D01*
X154026426Y-112472169D01*
X154145114Y-112301986D01*
X154229363Y-112209978D01*
X154380770Y-112085057D01*
X154546817Y-111992460D01*
X154724701Y-111932691D01*
X154911622Y-111906254D01*
X155104778Y-111913652D01*
X155301369Y-111955389D01*
X155417597Y-111996229D01*
X155578438Y-112078010D01*
X155744213Y-112195322D01*
X155837073Y-112274655D01*
X155889214Y-112320571D01*
X155930180Y-112354258D01*
X155953498Y-112370490D01*
X155956393Y-112370985D01*
X155966800Y-112354399D01*
X155993767Y-112310568D01*
X156034996Y-112243252D01*
X156088189Y-112156206D01*
X156151050Y-112053190D01*
X156221281Y-111937959D01*
X156260372Y-111873769D01*
X156558964Y-111383323D01*
X156186161Y-111199085D01*
X156051369Y-111132907D01*
X155942175Y-111080722D01*
X155851907Y-111039940D01*
X155773888Y-111007967D01*
X155701444Y-110982213D01*
X155627901Y-110960086D01*
X155546584Y-110938993D01*
X155468643Y-110920470D01*
X155399366Y-110906137D01*
X155326917Y-110895306D01*
X155244042Y-110887374D01*
X155143488Y-110881742D01*
X155018003Y-110877808D01*
X154933428Y-110876109D01*
X154812754Y-110874950D01*
X154697042Y-110875535D01*
X154593951Y-110877696D01*
X154511138Y-110881268D01*
X154456260Y-110886083D01*
X154453008Y-110886563D01*
X154168043Y-110948214D01*
X153900442Y-111041715D01*
X153650297Y-111167007D01*
X153417704Y-111324026D01*
X153202757Y-111512711D01*
X153005550Y-111733000D01*
X152862727Y-111928786D01*
X152710680Y-112185051D01*
X152587773Y-112455683D01*
X152493410Y-112742851D01*
X152426999Y-113048724D01*
X152387944Y-113375472D01*
X152375640Y-113707261D01*
X152385759Y-114028221D01*
X152417561Y-114324354D01*
X152472054Y-114600655D01*
X152550250Y-114862119D01*
X152653159Y-115113742D01*
X152665447Y-115139810D01*
X152800820Y-115383493D01*
X152967089Y-115615382D01*
X153159541Y-115830677D01*
X153373466Y-116024578D01*
X153604155Y-116192285D01*
X153819109Y-116315304D01*
X154036258Y-116411655D01*
X154253868Y-116481449D01*
X154480362Y-116526587D01*
X154724166Y-116548969D01*
X154869928Y-116552269D01*
X155079378Y-116545769D01*
G36*
X146627911Y-117453340D02*
X146977460Y-117453293D01*
X147140170Y-117453286D01*
X149744571Y-117453285D01*
X149744571Y-117299762D01*
X149760957Y-117112937D01*
X149810412Y-116940633D01*
X149893380Y-116781825D01*
X150010305Y-116635490D01*
X150049864Y-116595968D01*
X150192170Y-116483862D01*
X150349078Y-116402101D01*
X150515928Y-116350647D01*
X150688061Y-116329463D01*
X150860815Y-116338513D01*
X151029530Y-116377758D01*
X151189546Y-116447162D01*
X151336202Y-116546689D01*
X151402068Y-116606735D01*
X151524808Y-116753957D01*
X151614812Y-116915853D01*
X151671294Y-117090573D01*
X151693471Y-117276265D01*
X151693766Y-117294533D01*
X151694928Y-117453280D01*
X151764700Y-117453283D01*
X151826595Y-117444882D01*
X151883135Y-117424444D01*
X151886872Y-117422333D01*
X151899642Y-117415707D01*
X151911368Y-117410546D01*
X151922094Y-117405349D01*
X151931861Y-117398610D01*
X151940712Y-117388829D01*
X151948689Y-117374500D01*
X151955835Y-117354122D01*
X151962192Y-117326192D01*
X151967802Y-117289205D01*
X151972707Y-117241660D01*
X151976951Y-117182053D01*
X151980576Y-117108881D01*
X151983623Y-117020641D01*
X151986136Y-116915830D01*
X151988156Y-116792945D01*
X151989726Y-116650483D01*
X151990888Y-116486940D01*
X151991686Y-116300814D01*
X151992160Y-116090602D01*
X151992354Y-115854800D01*
X151992310Y-115591906D01*
X151992070Y-115300416D01*
X151991677Y-114978828D01*
X151991173Y-114625638D01*
X151990600Y-114239343D01*
X151990001Y-113818440D01*
X151989932Y-113767160D01*
X151989395Y-113343574D01*
X151988939Y-112954770D01*
X151988516Y-112599247D01*
X151988079Y-112275502D01*
X151987578Y-111982034D01*
X151986965Y-111717339D01*
X151986192Y-111479915D01*
X151985211Y-111268260D01*
X151983974Y-111080871D01*
X151982432Y-110916246D01*
X151980537Y-110772883D01*
X151978241Y-110649280D01*
X151975496Y-110543933D01*
X151972253Y-110455341D01*
X151968464Y-110382000D01*
X151964081Y-110322410D01*
X151959055Y-110275067D01*
X151953339Y-110238469D01*
X151946884Y-110211114D01*
X151939641Y-110191498D01*
X151931563Y-110178121D01*
X151922602Y-110169479D01*
X151912708Y-110164070D01*
X151901835Y-110160392D01*
X151889933Y-110156942D01*
X151876954Y-110152218D01*
X151873783Y-110150780D01*
X151863819Y-110147549D01*
X151847141Y-110144580D01*
X151822293Y-110141863D01*
X151787820Y-110139387D01*
X151742264Y-110137142D01*
X151684170Y-110135117D01*
X151612081Y-110133302D01*
X151524542Y-110131685D01*
X151420095Y-110130257D01*
X151297285Y-110129007D01*
X151154655Y-110127924D01*
X150990749Y-110126998D01*
X150804110Y-110126218D01*
X150593284Y-110125574D01*
X150356812Y-110125054D01*
X150093239Y-110124649D01*
X149801110Y-110124348D01*
X149478966Y-110124140D01*
X149125353Y-110124015D01*
X148738814Y-110123962D01*
X148317892Y-110123971D01*
X148181544Y-110123984D01*
X147751284Y-110124053D01*
X147355836Y-110124166D01*
X146993727Y-110124335D01*
X146663483Y-110124570D01*
X146363629Y-110124884D01*
X146092692Y-110125287D01*
X145849200Y-110125793D01*
X145631677Y-110126411D01*
X145438650Y-110127154D01*
X145268646Y-110128032D01*
X145120190Y-110129059D01*
X144991810Y-110130244D01*
X144882031Y-110131600D01*
X144789380Y-110133138D01*
X144712383Y-110134870D01*
X144649566Y-110136806D01*
X144599456Y-110138960D01*
X144560579Y-110141341D01*
X144531462Y-110143963D01*
X144510629Y-110146835D01*
X144496609Y-110149970D01*
X144488966Y-110152841D01*
X144475382Y-110158570D01*
X144462910Y-110162794D01*
X144451502Y-110167015D01*
X144441111Y-110172732D01*
X144431691Y-110181445D01*
X144423192Y-110194655D01*
X144415570Y-110213863D01*
X144408775Y-110240567D01*
X144402762Y-110276270D01*
X144397483Y-110322470D01*
X144392890Y-110380668D01*
X144388936Y-110452365D01*
X144385575Y-110539060D01*
X144382759Y-110642254D01*
X144380440Y-110763447D01*
X144378572Y-110904140D01*
X144378084Y-110958143D01*
X144862296Y-110958143D01*
X146573744Y-110958143D01*
X146540813Y-111008036D01*
X146508053Y-111059307D01*
X146480311Y-111108131D01*
X146457193Y-111157924D01*
X146438303Y-111212102D01*
X146423249Y-111274084D01*
X146411633Y-111347285D01*
X146403064Y-111435122D01*
X146397144Y-111541012D01*
X146393481Y-111668372D01*
X146391679Y-111820619D01*
X146391344Y-112001168D01*
X146392081Y-112213438D01*
X146392499Y-112292245D01*
X146397214Y-113137089D01*
X146932428Y-112408443D01*
X147084054Y-112201735D01*
X147215419Y-112021740D01*
X147327943Y-111866075D01*
X147423043Y-111732353D01*
X147502138Y-111618191D01*
X147566647Y-111521203D01*
X147617988Y-111439006D01*
X147657580Y-111369214D01*
X147686840Y-111309442D01*
X147707188Y-111257307D01*
X147720042Y-111210424D01*
X147726819Y-111166407D01*
X147728940Y-111122873D01*
X147727821Y-111077436D01*
X147727536Y-111071725D01*
X147721643Y-110958067D01*
X149597229Y-110958143D01*
X149457722Y-111098811D01*
X149419865Y-111137285D01*
X149383953Y-111174721D01*
X149348407Y-111213186D01*
X149311653Y-111254742D01*
X149272114Y-111301455D01*
X149228214Y-111355390D01*
X149178377Y-111418610D01*
X149121028Y-111493182D01*
X149054589Y-111581168D01*
X148977485Y-111684635D01*
X148888139Y-111805646D01*
X148784976Y-111946266D01*
X148666420Y-112108560D01*
X148530895Y-112294593D01*
X148376823Y-112506429D01*
X148250538Y-112680196D01*
X148092046Y-112898499D01*
X147953784Y-113089371D01*
X147834501Y-113254626D01*
X147732943Y-113396074D01*
X147647859Y-113515529D01*
X147577995Y-113614802D01*
X147522100Y-113695705D01*
X147478920Y-113760051D01*
X147447203Y-113809653D01*
X147425698Y-113846321D01*
X147413150Y-113871868D01*
X147408308Y-113888107D01*
X147409763Y-113896645D01*
X147427401Y-113919365D01*
X147465534Y-113967457D01*
X147521862Y-114038062D01*
X147594084Y-114128322D01*
X147679899Y-114235379D01*
X147777006Y-114356373D01*
X147883104Y-114488446D01*
X147995891Y-114628740D01*
X148113068Y-114774397D01*
X148232333Y-114922556D01*
X148297933Y-115004000D01*
X149926686Y-115004000D01*
X149994379Y-114881535D01*
X150062071Y-114759071D01*
X150062071Y-111203071D01*
X149994379Y-111080607D01*
X149926686Y-110958143D01*
X150727441Y-110958143D01*
X150918602Y-110958198D01*
X151076499Y-110958449D01*
X151204152Y-110959021D01*
X151304581Y-110960041D01*
X151380807Y-110961635D01*
X151435852Y-110963930D01*
X151472736Y-110967050D01*
X151494479Y-110971123D01*
X151504102Y-110976275D01*
X151504627Y-110982633D01*
X151499074Y-110990321D01*
X151499016Y-110990385D01*
X151476140Y-111023476D01*
X151445849Y-111077281D01*
X151419097Y-111130992D01*
X151368357Y-111239357D01*
X151363182Y-113121678D01*
X151358007Y-115004000D01*
X149926686Y-115004000D01*
X148297933Y-115004000D01*
X148351385Y-115070361D01*
X148467923Y-115214953D01*
X148579646Y-115353472D01*
X148684254Y-115483061D01*
X148779444Y-115600860D01*
X148862917Y-115704012D01*
X148932371Y-115789657D01*
X148985506Y-115854938D01*
X149016715Y-115893000D01*
X149137903Y-116035330D01*
X149254493Y-116163770D01*
X149362397Y-116274114D01*
X149457530Y-116362159D01*
X149525043Y-116416138D01*
X149604873Y-116473571D01*
X147768892Y-116473571D01*
X147769408Y-116365835D01*
X147764276Y-116286628D01*
X147744985Y-116213195D01*
X147715123Y-116143585D01*
X147695712Y-116104259D01*
X147674841Y-116065293D01*
X147650604Y-116024099D01*
X147621094Y-115978092D01*
X147584406Y-115924683D01*
X147538632Y-115861286D01*
X147481865Y-115785315D01*
X147412200Y-115694183D01*
X147327730Y-115585302D01*
X147226547Y-115456086D01*
X147106747Y-115303948D01*
X146966421Y-115126302D01*
X146950571Y-115106258D01*
X146397214Y-114406492D01*
X146391857Y-115181496D01*
X146390779Y-115413632D01*
X146391008Y-115610154D01*
X146392557Y-115771708D01*
X146395437Y-115898944D01*
X146399659Y-115992508D01*
X146405234Y-116053048D01*
X146407107Y-116064532D01*
X146436505Y-116185501D01*
X146475022Y-116294554D01*
X146518974Y-116382237D01*
X146545379Y-116419426D01*
X146590940Y-116473571D01*
X145726470Y-116473571D01*
X145520255Y-116473395D01*
X145347812Y-116472821D01*
X145206627Y-116471783D01*
X145094188Y-116470213D01*
X145007983Y-116468046D01*
X144945498Y-116465212D01*
X144904221Y-116461647D01*
X144881640Y-116457282D01*
X144875241Y-116452051D01*
X144875683Y-116450893D01*
X144894009Y-116423231D01*
X144924604Y-116379385D01*
X144940433Y-116357209D01*
X144956798Y-116335080D01*
X144971508Y-116315291D01*
X144984656Y-116295894D01*
X144996333Y-116274942D01*
X145006632Y-116250488D01*
X145015646Y-116220584D01*
X145023468Y-116183283D01*
X145030191Y-116136637D01*
X145035906Y-116078699D01*
X145040707Y-116007521D01*
X145044685Y-115921156D01*
X145047935Y-115817656D01*
X145050548Y-115695075D01*
X145052617Y-115551463D01*
X145054234Y-115384875D01*
X145055493Y-115193363D01*
X145056485Y-114974978D01*
X145057304Y-114727774D01*
X145058042Y-114449804D01*
X145058791Y-114139119D01*
X145059492Y-113853700D01*
X145060153Y-113535508D01*
X145060497Y-113231923D01*
X145060532Y-112944885D01*
X145060268Y-112676331D01*
X145059715Y-112428202D01*
X145058880Y-112202437D01*
X145057773Y-112000974D01*
X145056404Y-111825754D01*
X145054781Y-111678714D01*
X145052913Y-111561794D01*
X145050811Y-111476933D01*
X145048482Y-111426071D01*
X145048041Y-111420696D01*
X145031992Y-111297387D01*
X145006936Y-111198356D01*
X144968779Y-111111930D01*
X144913428Y-111026435D01*
X144906504Y-111017107D01*
X144862296Y-110958143D01*
X144378084Y-110958143D01*
X144377108Y-111065832D01*
X144375999Y-111250024D01*
X144375199Y-111458216D01*
X144374661Y-111691909D01*
X144374338Y-111952602D01*
X144374183Y-112241796D01*
X144374146Y-112560991D01*
X144374183Y-112911687D01*
X144374245Y-113295386D01*
X144374285Y-113713586D01*
X144374286Y-113796607D01*
X144374309Y-114219211D01*
X144374388Y-114607019D01*
X144374533Y-114961520D01*
X144374756Y-115284203D01*
X144375069Y-115576558D01*
X144375483Y-115840073D01*
X144376009Y-116076238D01*
X144376660Y-116286542D01*
X144377447Y-116472474D01*
X144378381Y-116635525D01*
X144379474Y-116777182D01*
X144380737Y-116898936D01*
X144382183Y-117002275D01*
X144383821Y-117088689D01*
X144385666Y-117159667D01*
X144387726Y-117216699D01*
X144390015Y-117261273D01*
X144392544Y-117294879D01*
X144395324Y-117319007D01*
X144398367Y-117335144D01*
X144401684Y-117344782D01*
X144401807Y-117345022D01*
X144408640Y-117359745D01*
X144414330Y-117373074D01*
X144420626Y-117385078D01*
X144429272Y-117395827D01*
X144442014Y-117405389D01*
X144460600Y-117413833D01*
X144486774Y-117421229D01*
X144522284Y-117427646D01*
X144568875Y-117433152D01*
X144628293Y-117437817D01*
X144702285Y-117441709D01*
X144792597Y-117444898D01*
X144900975Y-117447453D01*
X145029165Y-117449442D01*
X145178913Y-117450935D01*
X145351966Y-117452002D01*
X145550069Y-117452709D01*
X145774969Y-117453128D01*
X146028412Y-117453327D01*
X146312144Y-117453374D01*
X146627911Y-117453340D01*
X146627911Y-117453340D01*
G37*
X146627911Y-117453340D02*
X146977460Y-117453293D01*
X147140170Y-117453286D01*
X149744571Y-117453285D01*
X149744571Y-117299762D01*
X149760957Y-117112937D01*
X149810412Y-116940633D01*
X149893380Y-116781825D01*
X150010305Y-116635490D01*
X150049864Y-116595968D01*
X150192170Y-116483862D01*
X150349078Y-116402101D01*
X150515928Y-116350647D01*
X150688061Y-116329463D01*
X150860815Y-116338513D01*
X151029530Y-116377758D01*
X151189546Y-116447162D01*
X151336202Y-116546689D01*
X151402068Y-116606735D01*
X151524808Y-116753957D01*
X151614812Y-116915853D01*
X151671294Y-117090573D01*
X151693471Y-117276265D01*
X151693766Y-117294533D01*
X151694928Y-117453280D01*
X151764700Y-117453283D01*
X151826595Y-117444882D01*
X151883135Y-117424444D01*
X151886872Y-117422333D01*
X151899642Y-117415707D01*
X151911368Y-117410546D01*
X151922094Y-117405349D01*
X151931861Y-117398610D01*
X151940712Y-117388829D01*
X151948689Y-117374500D01*
X151955835Y-117354122D01*
X151962192Y-117326192D01*
X151967802Y-117289205D01*
X151972707Y-117241660D01*
X151976951Y-117182053D01*
X151980576Y-117108881D01*
X151983623Y-117020641D01*
X151986136Y-116915830D01*
X151988156Y-116792945D01*
X151989726Y-116650483D01*
X151990888Y-116486940D01*
X151991686Y-116300814D01*
X151992160Y-116090602D01*
X151992354Y-115854800D01*
X151992310Y-115591906D01*
X151992070Y-115300416D01*
X151991677Y-114978828D01*
X151991173Y-114625638D01*
X151990600Y-114239343D01*
X151990001Y-113818440D01*
X151989932Y-113767160D01*
X151989395Y-113343574D01*
X151988939Y-112954770D01*
X151988516Y-112599247D01*
X151988079Y-112275502D01*
X151987578Y-111982034D01*
X151986965Y-111717339D01*
X151986192Y-111479915D01*
X151985211Y-111268260D01*
X151983974Y-111080871D01*
X151982432Y-110916246D01*
X151980537Y-110772883D01*
X151978241Y-110649280D01*
X151975496Y-110543933D01*
X151972253Y-110455341D01*
X151968464Y-110382000D01*
X151964081Y-110322410D01*
X151959055Y-110275067D01*
X151953339Y-110238469D01*
X151946884Y-110211114D01*
X151939641Y-110191498D01*
X151931563Y-110178121D01*
X151922602Y-110169479D01*
X151912708Y-110164070D01*
X151901835Y-110160392D01*
X151889933Y-110156942D01*
X151876954Y-110152218D01*
X151873783Y-110150780D01*
X151863819Y-110147549D01*
X151847141Y-110144580D01*
X151822293Y-110141863D01*
X151787820Y-110139387D01*
X151742264Y-110137142D01*
X151684170Y-110135117D01*
X151612081Y-110133302D01*
X151524542Y-110131685D01*
X151420095Y-110130257D01*
X151297285Y-110129007D01*
X151154655Y-110127924D01*
X150990749Y-110126998D01*
X150804110Y-110126218D01*
X150593284Y-110125574D01*
X150356812Y-110125054D01*
X150093239Y-110124649D01*
X149801110Y-110124348D01*
X149478966Y-110124140D01*
X149125353Y-110124015D01*
X148738814Y-110123962D01*
X148317892Y-110123971D01*
X148181544Y-110123984D01*
X147751284Y-110124053D01*
X147355836Y-110124166D01*
X146993727Y-110124335D01*
X146663483Y-110124570D01*
X146363629Y-110124884D01*
X146092692Y-110125287D01*
X145849200Y-110125793D01*
X145631677Y-110126411D01*
X145438650Y-110127154D01*
X145268646Y-110128032D01*
X145120190Y-110129059D01*
X144991810Y-110130244D01*
X144882031Y-110131600D01*
X144789380Y-110133138D01*
X144712383Y-110134870D01*
X144649566Y-110136806D01*
X144599456Y-110138960D01*
X144560579Y-110141341D01*
X144531462Y-110143963D01*
X144510629Y-110146835D01*
X144496609Y-110149970D01*
X144488966Y-110152841D01*
X144475382Y-110158570D01*
X144462910Y-110162794D01*
X144451502Y-110167015D01*
X144441111Y-110172732D01*
X144431691Y-110181445D01*
X144423192Y-110194655D01*
X144415570Y-110213863D01*
X144408775Y-110240567D01*
X144402762Y-110276270D01*
X144397483Y-110322470D01*
X144392890Y-110380668D01*
X144388936Y-110452365D01*
X144385575Y-110539060D01*
X144382759Y-110642254D01*
X144380440Y-110763447D01*
X144378572Y-110904140D01*
X144378084Y-110958143D01*
X144862296Y-110958143D01*
X146573744Y-110958143D01*
X146540813Y-111008036D01*
X146508053Y-111059307D01*
X146480311Y-111108131D01*
X146457193Y-111157924D01*
X146438303Y-111212102D01*
X146423249Y-111274084D01*
X146411633Y-111347285D01*
X146403064Y-111435122D01*
X146397144Y-111541012D01*
X146393481Y-111668372D01*
X146391679Y-111820619D01*
X146391344Y-112001168D01*
X146392081Y-112213438D01*
X146392499Y-112292245D01*
X146397214Y-113137089D01*
X146932428Y-112408443D01*
X147084054Y-112201735D01*
X147215419Y-112021740D01*
X147327943Y-111866075D01*
X147423043Y-111732353D01*
X147502138Y-111618191D01*
X147566647Y-111521203D01*
X147617988Y-111439006D01*
X147657580Y-111369214D01*
X147686840Y-111309442D01*
X147707188Y-111257307D01*
X147720042Y-111210424D01*
X147726819Y-111166407D01*
X147728940Y-111122873D01*
X147727821Y-111077436D01*
X147727536Y-111071725D01*
X147721643Y-110958067D01*
X149597229Y-110958143D01*
X149457722Y-111098811D01*
X149419865Y-111137285D01*
X149383953Y-111174721D01*
X149348407Y-111213186D01*
X149311653Y-111254742D01*
X149272114Y-111301455D01*
X149228214Y-111355390D01*
X149178377Y-111418610D01*
X149121028Y-111493182D01*
X149054589Y-111581168D01*
X148977485Y-111684635D01*
X148888139Y-111805646D01*
X148784976Y-111946266D01*
X148666420Y-112108560D01*
X148530895Y-112294593D01*
X148376823Y-112506429D01*
X148250538Y-112680196D01*
X148092046Y-112898499D01*
X147953784Y-113089371D01*
X147834501Y-113254626D01*
X147732943Y-113396074D01*
X147647859Y-113515529D01*
X147577995Y-113614802D01*
X147522100Y-113695705D01*
X147478920Y-113760051D01*
X147447203Y-113809653D01*
X147425698Y-113846321D01*
X147413150Y-113871868D01*
X147408308Y-113888107D01*
X147409763Y-113896645D01*
X147427401Y-113919365D01*
X147465534Y-113967457D01*
X147521862Y-114038062D01*
X147594084Y-114128322D01*
X147679899Y-114235379D01*
X147777006Y-114356373D01*
X147883104Y-114488446D01*
X147995891Y-114628740D01*
X148113068Y-114774397D01*
X148232333Y-114922556D01*
X148297933Y-115004000D01*
X149926686Y-115004000D01*
X149994379Y-114881535D01*
X150062071Y-114759071D01*
X150062071Y-111203071D01*
X149994379Y-111080607D01*
X149926686Y-110958143D01*
X150727441Y-110958143D01*
X150918602Y-110958198D01*
X151076499Y-110958449D01*
X151204152Y-110959021D01*
X151304581Y-110960041D01*
X151380807Y-110961635D01*
X151435852Y-110963930D01*
X151472736Y-110967050D01*
X151494479Y-110971123D01*
X151504102Y-110976275D01*
X151504627Y-110982633D01*
X151499074Y-110990321D01*
X151499016Y-110990385D01*
X151476140Y-111023476D01*
X151445849Y-111077281D01*
X151419097Y-111130992D01*
X151368357Y-111239357D01*
X151363182Y-113121678D01*
X151358007Y-115004000D01*
X149926686Y-115004000D01*
X148297933Y-115004000D01*
X148351385Y-115070361D01*
X148467923Y-115214953D01*
X148579646Y-115353472D01*
X148684254Y-115483061D01*
X148779444Y-115600860D01*
X148862917Y-115704012D01*
X148932371Y-115789657D01*
X148985506Y-115854938D01*
X149016715Y-115893000D01*
X149137903Y-116035330D01*
X149254493Y-116163770D01*
X149362397Y-116274114D01*
X149457530Y-116362159D01*
X149525043Y-116416138D01*
X149604873Y-116473571D01*
X147768892Y-116473571D01*
X147769408Y-116365835D01*
X147764276Y-116286628D01*
X147744985Y-116213195D01*
X147715123Y-116143585D01*
X147695712Y-116104259D01*
X147674841Y-116065293D01*
X147650604Y-116024099D01*
X147621094Y-115978092D01*
X147584406Y-115924683D01*
X147538632Y-115861286D01*
X147481865Y-115785315D01*
X147412200Y-115694183D01*
X147327730Y-115585302D01*
X147226547Y-115456086D01*
X147106747Y-115303948D01*
X146966421Y-115126302D01*
X146950571Y-115106258D01*
X146397214Y-114406492D01*
X146391857Y-115181496D01*
X146390779Y-115413632D01*
X146391008Y-115610154D01*
X146392557Y-115771708D01*
X146395437Y-115898944D01*
X146399659Y-115992508D01*
X146405234Y-116053048D01*
X146407107Y-116064532D01*
X146436505Y-116185501D01*
X146475022Y-116294554D01*
X146518974Y-116382237D01*
X146545379Y-116419426D01*
X146590940Y-116473571D01*
X145726470Y-116473571D01*
X145520255Y-116473395D01*
X145347812Y-116472821D01*
X145206627Y-116471783D01*
X145094188Y-116470213D01*
X145007983Y-116468046D01*
X144945498Y-116465212D01*
X144904221Y-116461647D01*
X144881640Y-116457282D01*
X144875241Y-116452051D01*
X144875683Y-116450893D01*
X144894009Y-116423231D01*
X144924604Y-116379385D01*
X144940433Y-116357209D01*
X144956798Y-116335080D01*
X144971508Y-116315291D01*
X144984656Y-116295894D01*
X144996333Y-116274942D01*
X145006632Y-116250488D01*
X145015646Y-116220584D01*
X145023468Y-116183283D01*
X145030191Y-116136637D01*
X145035906Y-116078699D01*
X145040707Y-116007521D01*
X145044685Y-115921156D01*
X145047935Y-115817656D01*
X145050548Y-115695075D01*
X145052617Y-115551463D01*
X145054234Y-115384875D01*
X145055493Y-115193363D01*
X145056485Y-114974978D01*
X145057304Y-114727774D01*
X145058042Y-114449804D01*
X145058791Y-114139119D01*
X145059492Y-113853700D01*
X145060153Y-113535508D01*
X145060497Y-113231923D01*
X145060532Y-112944885D01*
X145060268Y-112676331D01*
X145059715Y-112428202D01*
X145058880Y-112202437D01*
X145057773Y-112000974D01*
X145056404Y-111825754D01*
X145054781Y-111678714D01*
X145052913Y-111561794D01*
X145050811Y-111476933D01*
X145048482Y-111426071D01*
X145048041Y-111420696D01*
X145031992Y-111297387D01*
X145006936Y-111198356D01*
X144968779Y-111111930D01*
X144913428Y-111026435D01*
X144906504Y-111017107D01*
X144862296Y-110958143D01*
X144378084Y-110958143D01*
X144377108Y-111065832D01*
X144375999Y-111250024D01*
X144375199Y-111458216D01*
X144374661Y-111691909D01*
X144374338Y-111952602D01*
X144374183Y-112241796D01*
X144374146Y-112560991D01*
X144374183Y-112911687D01*
X144374245Y-113295386D01*
X144374285Y-113713586D01*
X144374286Y-113796607D01*
X144374309Y-114219211D01*
X144374388Y-114607019D01*
X144374533Y-114961520D01*
X144374756Y-115284203D01*
X144375069Y-115576558D01*
X144375483Y-115840073D01*
X144376009Y-116076238D01*
X144376660Y-116286542D01*
X144377447Y-116472474D01*
X144378381Y-116635525D01*
X144379474Y-116777182D01*
X144380737Y-116898936D01*
X144382183Y-117002275D01*
X144383821Y-117088689D01*
X144385666Y-117159667D01*
X144387726Y-117216699D01*
X144390015Y-117261273D01*
X144392544Y-117294879D01*
X144395324Y-117319007D01*
X144398367Y-117335144D01*
X144401684Y-117344782D01*
X144401807Y-117345022D01*
X144408640Y-117359745D01*
X144414330Y-117373074D01*
X144420626Y-117385078D01*
X144429272Y-117395827D01*
X144442014Y-117405389D01*
X144460600Y-117413833D01*
X144486774Y-117421229D01*
X144522284Y-117427646D01*
X144568875Y-117433152D01*
X144628293Y-117437817D01*
X144702285Y-117441709D01*
X144792597Y-117444898D01*
X144900975Y-117447453D01*
X145029165Y-117449442D01*
X145178913Y-117450935D01*
X145351966Y-117452002D01*
X145550069Y-117452709D01*
X145774969Y-117453128D01*
X146028412Y-117453327D01*
X146312144Y-117453374D01*
X146627911Y-117453340D01*
D12*
G04 #@! TO.C,BT1*
X170528000Y-93865000D02*
X170528000Y-93235000D01*
X170528000Y-102325000D02*
X170528000Y-99865000D01*
X148968000Y-93865000D02*
X148968000Y-93235000D01*
X148968000Y-102325000D02*
X148968000Y-99865000D01*
X169073244Y-89276831D02*
G75*
G03X165748000Y-88315000I-2015244J-738169D01*
G01*
X170528000Y-93235000D02*
X169088000Y-89285000D01*
X168448000Y-104405000D02*
X170528000Y-102325000D01*
X168448000Y-104405000D02*
X151048000Y-104405000D01*
X151048000Y-104405000D02*
X148968000Y-102325000D01*
X148968000Y-93235000D02*
X150408000Y-89285000D01*
X153744646Y-88298470D02*
G75*
G03X150408000Y-89285000I-1306646J-1716530D01*
G01*
X153743399Y-88311464D02*
G75*
G03X165748000Y-88315000I6004601J7806464D01*
G01*
D13*
G04 #@! TO.C,C7*
X145873000Y-99265000D02*
X145873000Y-100465000D01*
X147623000Y-100465000D02*
X147623000Y-99265000D01*
G04 #@! TO.C,C8*
X181548000Y-83740000D02*
X182748000Y-83740000D01*
X182748000Y-81990000D02*
X181548000Y-81990000D01*
G04 #@! TO.C,C9*
X182748000Y-78990000D02*
X181548000Y-78990000D01*
X181548000Y-80740000D02*
X182748000Y-80740000D01*
G04 #@! TO.C,C10*
X181548000Y-77740000D02*
X182748000Y-77740000D01*
X182748000Y-75990000D02*
X181548000Y-75990000D01*
G04 #@! TO.C,C11*
X178873000Y-113715000D02*
X178873000Y-112515000D01*
X177123000Y-112515000D02*
X177123000Y-113715000D01*
G04 #@! TO.C,C12*
X177123000Y-106515000D02*
X177123000Y-107715000D01*
X178873000Y-107715000D02*
X178873000Y-106515000D01*
D14*
G04 #@! TO.C,J1*
X122848000Y-106065000D02*
X122248000Y-106365000D01*
X122848000Y-106665000D02*
X122848000Y-106065000D01*
X122248000Y-106365000D02*
X122848000Y-106665000D01*
X118698000Y-102465000D02*
X118698000Y-105115000D01*
X123198000Y-102465000D02*
X118698000Y-102465000D01*
X123198000Y-101265000D02*
X123198000Y-102465000D01*
X111398000Y-101265000D02*
X123198000Y-101265000D01*
X111398000Y-105115000D02*
X111398000Y-101265000D01*
X118698000Y-107765000D02*
X118698000Y-105115000D01*
X123198000Y-107765000D02*
X118698000Y-107765000D01*
X123198000Y-108965000D02*
X123198000Y-107765000D01*
X111398000Y-108965000D02*
X123198000Y-108965000D01*
X111398000Y-105115000D02*
X111398000Y-108965000D01*
G04 #@! TO.C,BT1*
D13*
X160533714Y-108293571D02*
X160390857Y-108341190D01*
X160343238Y-108388809D01*
X160295619Y-108484047D01*
X160295619Y-108626904D01*
X160343238Y-108722142D01*
X160390857Y-108769761D01*
X160486095Y-108817380D01*
X160867047Y-108817380D01*
X160867047Y-107817380D01*
X160533714Y-107817380D01*
X160438476Y-107865000D01*
X160390857Y-107912619D01*
X160343238Y-108007857D01*
X160343238Y-108103095D01*
X160390857Y-108198333D01*
X160438476Y-108245952D01*
X160533714Y-108293571D01*
X160867047Y-108293571D01*
X160009904Y-107817380D02*
X159438476Y-107817380D01*
X159724190Y-108817380D02*
X159724190Y-107817380D01*
X158581333Y-108817380D02*
X159152761Y-108817380D01*
X158867047Y-108817380D02*
X158867047Y-107817380D01*
X158962285Y-107960238D01*
X159057523Y-108055476D01*
X159152761Y-108103095D01*
G04 #@! TO.C,C7*
D12*
X146998000Y-102373333D02*
X147031333Y-102340000D01*
X147064666Y-102240000D01*
X147064666Y-102173333D01*
X147031333Y-102073333D01*
X146964666Y-102006666D01*
X146898000Y-101973333D01*
X146764666Y-101940000D01*
X146664666Y-101940000D01*
X146531333Y-101973333D01*
X146464666Y-102006666D01*
X146398000Y-102073333D01*
X146364666Y-102173333D01*
X146364666Y-102240000D01*
X146398000Y-102340000D01*
X146431333Y-102373333D01*
X146364666Y-102606666D02*
X146364666Y-103073333D01*
X147064666Y-102773333D01*
G04 #@! TO.C,C8*
X182264666Y-81615000D02*
X182298000Y-81648333D01*
X182398000Y-81681666D01*
X182464666Y-81681666D01*
X182564666Y-81648333D01*
X182631333Y-81581666D01*
X182664666Y-81515000D01*
X182698000Y-81381666D01*
X182698000Y-81281666D01*
X182664666Y-81148333D01*
X182631333Y-81081666D01*
X182564666Y-81015000D01*
X182464666Y-80981666D01*
X182398000Y-80981666D01*
X182298000Y-81015000D01*
X182264666Y-81048333D01*
X181864666Y-81281666D02*
X181931333Y-81248333D01*
X181964666Y-81215000D01*
X181998000Y-81148333D01*
X181998000Y-81115000D01*
X181964666Y-81048333D01*
X181931333Y-81015000D01*
X181864666Y-80981666D01*
X181731333Y-80981666D01*
X181664666Y-81015000D01*
X181631333Y-81048333D01*
X181598000Y-81115000D01*
X181598000Y-81148333D01*
X181631333Y-81215000D01*
X181664666Y-81248333D01*
X181731333Y-81281666D01*
X181864666Y-81281666D01*
X181931333Y-81315000D01*
X181964666Y-81348333D01*
X181998000Y-81415000D01*
X181998000Y-81548333D01*
X181964666Y-81615000D01*
X181931333Y-81648333D01*
X181864666Y-81681666D01*
X181731333Y-81681666D01*
X181664666Y-81648333D01*
X181631333Y-81615000D01*
X181598000Y-81548333D01*
X181598000Y-81415000D01*
X181631333Y-81348333D01*
X181664666Y-81315000D01*
X181731333Y-81281666D01*
G04 #@! TO.C,C9*
X182264666Y-78615000D02*
X182298000Y-78648333D01*
X182398000Y-78681666D01*
X182464666Y-78681666D01*
X182564666Y-78648333D01*
X182631333Y-78581666D01*
X182664666Y-78515000D01*
X182698000Y-78381666D01*
X182698000Y-78281666D01*
X182664666Y-78148333D01*
X182631333Y-78081666D01*
X182564666Y-78015000D01*
X182464666Y-77981666D01*
X182398000Y-77981666D01*
X182298000Y-78015000D01*
X182264666Y-78048333D01*
X181931333Y-78681666D02*
X181798000Y-78681666D01*
X181731333Y-78648333D01*
X181698000Y-78615000D01*
X181631333Y-78515000D01*
X181598000Y-78381666D01*
X181598000Y-78115000D01*
X181631333Y-78048333D01*
X181664666Y-78015000D01*
X181731333Y-77981666D01*
X181864666Y-77981666D01*
X181931333Y-78015000D01*
X181964666Y-78048333D01*
X181998000Y-78115000D01*
X181998000Y-78281666D01*
X181964666Y-78348333D01*
X181931333Y-78381666D01*
X181864666Y-78415000D01*
X181731333Y-78415000D01*
X181664666Y-78381666D01*
X181631333Y-78348333D01*
X181598000Y-78281666D01*
G04 #@! TO.C,C10*
X182598000Y-75615000D02*
X182631333Y-75648333D01*
X182731333Y-75681666D01*
X182798000Y-75681666D01*
X182898000Y-75648333D01*
X182964666Y-75581666D01*
X182998000Y-75515000D01*
X183031333Y-75381666D01*
X183031333Y-75281666D01*
X182998000Y-75148333D01*
X182964666Y-75081666D01*
X182898000Y-75015000D01*
X182798000Y-74981666D01*
X182731333Y-74981666D01*
X182631333Y-75015000D01*
X182598000Y-75048333D01*
X181931333Y-75681666D02*
X182331333Y-75681666D01*
X182131333Y-75681666D02*
X182131333Y-74981666D01*
X182198000Y-75081666D01*
X182264666Y-75148333D01*
X182331333Y-75181666D01*
X181498000Y-74981666D02*
X181431333Y-74981666D01*
X181364666Y-75015000D01*
X181331333Y-75048333D01*
X181298000Y-75115000D01*
X181264666Y-75248333D01*
X181264666Y-75415000D01*
X181298000Y-75548333D01*
X181331333Y-75615000D01*
X181364666Y-75648333D01*
X181431333Y-75681666D01*
X181498000Y-75681666D01*
X181564666Y-75648333D01*
X181598000Y-75615000D01*
X181631333Y-75548333D01*
X181664666Y-75415000D01*
X181664666Y-75248333D01*
X181631333Y-75115000D01*
X181598000Y-75048333D01*
X181564666Y-75015000D01*
X181498000Y-74981666D01*
G04 #@! TO.C,C11*
X176748000Y-112665000D02*
X176781333Y-112631666D01*
X176814666Y-112531666D01*
X176814666Y-112465000D01*
X176781333Y-112365000D01*
X176714666Y-112298333D01*
X176648000Y-112265000D01*
X176514666Y-112231666D01*
X176414666Y-112231666D01*
X176281333Y-112265000D01*
X176214666Y-112298333D01*
X176148000Y-112365000D01*
X176114666Y-112465000D01*
X176114666Y-112531666D01*
X176148000Y-112631666D01*
X176181333Y-112665000D01*
X176814666Y-113331666D02*
X176814666Y-112931666D01*
X176814666Y-113131666D02*
X176114666Y-113131666D01*
X176214666Y-113065000D01*
X176281333Y-112998333D01*
X176314666Y-112931666D01*
X176814666Y-113998333D02*
X176814666Y-113598333D01*
X176814666Y-113798333D02*
X176114666Y-113798333D01*
X176214666Y-113731666D01*
X176281333Y-113665000D01*
X176314666Y-113598333D01*
G04 #@! TO.C,C12*
X176748000Y-106665000D02*
X176781333Y-106631666D01*
X176814666Y-106531666D01*
X176814666Y-106465000D01*
X176781333Y-106365000D01*
X176714666Y-106298333D01*
X176648000Y-106265000D01*
X176514666Y-106231666D01*
X176414666Y-106231666D01*
X176281333Y-106265000D01*
X176214666Y-106298333D01*
X176148000Y-106365000D01*
X176114666Y-106465000D01*
X176114666Y-106531666D01*
X176148000Y-106631666D01*
X176181333Y-106665000D01*
X176814666Y-107331666D02*
X176814666Y-106931666D01*
X176814666Y-107131666D02*
X176114666Y-107131666D01*
X176214666Y-107065000D01*
X176281333Y-106998333D01*
X176314666Y-106931666D01*
X176181333Y-107598333D02*
X176148000Y-107631666D01*
X176114666Y-107698333D01*
X176114666Y-107865000D01*
X176148000Y-107931666D01*
X176181333Y-107965000D01*
X176248000Y-107998333D01*
X176314666Y-107998333D01*
X176414666Y-107965000D01*
X176814666Y-107565000D01*
X176814666Y-107998333D01*
G04 #@! TO.C,J1*
D13*
X123700380Y-104781666D02*
X124414666Y-104781666D01*
X124557523Y-104734047D01*
X124652761Y-104638809D01*
X124700380Y-104495952D01*
X124700380Y-104400714D01*
X124700380Y-105781666D02*
X124700380Y-105210238D01*
X124700380Y-105495952D02*
X123700380Y-105495952D01*
X123843238Y-105400714D01*
X123938476Y-105305476D01*
X123986095Y-105210238D01*
G04 #@! TD*
M02*
