G04 #@! TF.GenerationSoftware,KiCad,Pcbnew,(5.0.2)-1*
G04 #@! TF.CreationDate,2019-05-25T19:55:33-02:30*
G04 #@! TF.ProjectId,ControllerPCB,436f6e74-726f-46c6-9c65-725043422e6b,rev?*
G04 #@! TF.SameCoordinates,Original*
G04 #@! TF.FileFunction,Paste,Top*
G04 #@! TF.FilePolarity,Positive*
%FSLAX46Y46*%
G04 Gerber Fmt 4.6, Leading zero omitted, Abs format (unit mm)*
G04 Created by KiCad (PCBNEW (5.0.2)-1) date 5/25/2019 7:55:33 PM*
%MOMM*%
%LPD*%
G01*
G04 APERTURE LIST*
%ADD10R,1.000000X1.250000*%
%ADD11R,1.250000X1.000000*%
%ADD12R,6.500000X6.500000*%
%ADD13R,2.000000X1.500000*%
%ADD14R,2.000000X3.800000*%
%ADD15R,1.550000X1.000000*%
%ADD16R,1.500000X1.500000*%
%ADD17R,1.750000X0.700000*%
%ADD18R,1.400000X0.800000*%
%ADD19R,1.000000X1.450000*%
%ADD20R,1.500000X0.800000*%
%ADD21R,1.500000X1.300000*%
%ADD22C,1.000000*%
%ADD23R,0.600000X1.550000*%
%ADD24R,1.550000X0.600000*%
%ADD25R,0.400000X0.600000*%
%ADD26R,0.600000X1.800000*%
G04 APERTURE END LIST*
D10*
G04 #@! TO.C,C1*
X140698000Y-118365000D03*
X138498000Y-118365000D03*
G04 #@! TD*
D11*
G04 #@! TO.C,C2*
X135998000Y-113065000D03*
X135998000Y-110865000D03*
G04 #@! TD*
D12*
G04 #@! TO.C,U1*
X132748000Y-82115000D03*
X114998000Y-82365000D03*
X114998000Y-122365000D03*
X132998000Y-122365000D03*
G04 #@! TD*
D13*
G04 #@! TO.C,U2*
X138448000Y-110815000D03*
X138448000Y-115415000D03*
X138448000Y-113115000D03*
D14*
X144748000Y-113115000D03*
G04 #@! TD*
D10*
G04 #@! TO.C,C5*
X145798000Y-79115000D03*
X147998000Y-79115000D03*
G04 #@! TD*
G04 #@! TO.C,C6*
X164548000Y-120365000D03*
X166748000Y-120365000D03*
G04 #@! TD*
D15*
G04 #@! TO.C,J4*
X138573000Y-93015000D03*
D16*
X149248000Y-92965000D03*
D17*
X149373000Y-95415000D03*
X149373000Y-96515000D03*
X149373000Y-97615000D03*
X149373000Y-98715000D03*
X149373000Y-99815000D03*
X149373000Y-100915000D03*
X149373000Y-102015000D03*
D18*
X140998000Y-92615000D03*
D19*
X140148000Y-104240000D03*
D20*
X141648000Y-104565000D03*
D21*
X149248000Y-104315000D03*
D17*
X149373000Y-103115000D03*
G04 #@! TD*
D11*
G04 #@! TO.C,R1*
X159248000Y-119215000D03*
X159248000Y-117015000D03*
G04 #@! TD*
G04 #@! TO.C,R2*
X159248000Y-112415000D03*
X159248000Y-114615000D03*
G04 #@! TD*
G04 #@! TO.C,R3*
X162248000Y-90865000D03*
X162248000Y-88665000D03*
G04 #@! TD*
G04 #@! TO.C,R4*
X159748000Y-90965000D03*
X159748000Y-88765000D03*
G04 #@! TD*
G04 #@! TO.C,R5*
X156998000Y-90965000D03*
X156998000Y-88765000D03*
G04 #@! TD*
D22*
G04 #@! TO.C,TP1*
X181248000Y-81865000D03*
G04 #@! TD*
G04 #@! TO.C,TP2*
X180748000Y-94365000D03*
G04 #@! TD*
G04 #@! TO.C,TP3*
X168498000Y-84865000D03*
G04 #@! TD*
G04 #@! TO.C,TP4*
X169248000Y-120365000D03*
G04 #@! TD*
G04 #@! TO.C,TP5*
X171248000Y-120365000D03*
G04 #@! TD*
D23*
G04 #@! TO.C,U3*
X166227999Y-112530001D03*
X164957999Y-112530001D03*
X163687999Y-112530001D03*
X162417999Y-112530001D03*
X162417999Y-117930001D03*
X163687999Y-117930001D03*
X164957999Y-117930001D03*
X166227999Y-117930001D03*
G04 #@! TD*
D24*
G04 #@! TO.C,U6*
X177948000Y-115020000D03*
X177948000Y-113750000D03*
X177948000Y-112480000D03*
X177948000Y-111210000D03*
X172548000Y-111210000D03*
X172548000Y-112480000D03*
X172548000Y-113750000D03*
X172548000Y-115020000D03*
G04 #@! TD*
G04 #@! TO.C,U7*
X172498000Y-108905000D03*
X172498000Y-107635000D03*
X172498000Y-106365000D03*
X172498000Y-105095000D03*
X177898000Y-105095000D03*
X177898000Y-106365000D03*
X177898000Y-107635000D03*
X177898000Y-108905000D03*
G04 #@! TD*
D25*
G04 #@! TO.C,C3*
X167198000Y-110365000D03*
X166298000Y-110365000D03*
G04 #@! TD*
D26*
G04 #@! TO.C,U4*
X148193000Y-81915000D03*
X146923000Y-81915000D03*
X145653000Y-81915000D03*
X144383000Y-81915000D03*
X143113000Y-81915000D03*
X141843000Y-81915000D03*
X140573000Y-81915000D03*
X139303000Y-81915000D03*
X139303000Y-87315000D03*
X140573000Y-87315000D03*
X141843000Y-87315000D03*
X143113000Y-87315000D03*
X144383000Y-87315000D03*
X145653000Y-87315000D03*
X146923000Y-87315000D03*
X148193000Y-87315000D03*
G04 #@! TD*
D25*
G04 #@! TO.C,C4*
X163848000Y-110365000D03*
X164748000Y-110365000D03*
G04 #@! TD*
M02*
