G04 #@! TF.GenerationSoftware,KiCad,Pcbnew,(5.0.2)-1*
G04 #@! TF.CreationDate,2019-05-25T19:55:33-02:30*
G04 #@! TF.ProjectId,ControllerPCB,436f6e74-726f-46c6-9c65-725043422e6b,rev?*
G04 #@! TF.SameCoordinates,Original*
G04 #@! TF.FileFunction,Copper,L2,Bot*
G04 #@! TF.FilePolarity,Positive*
%FSLAX46Y46*%
G04 Gerber Fmt 4.6, Leading zero omitted, Abs format (unit mm)*
G04 Created by KiCad (PCBNEW (5.0.2)-1) date 5/25/2019 7:55:33 PM*
%MOMM*%
%LPD*%
G01*
G04 APERTURE LIST*
G04 #@! TA.AperFunction,ComponentPad*
%ADD10O,1.727200X2.032000*%
G04 #@! TD*
G04 #@! TA.AperFunction,ComponentPad*
%ADD11C,4.064000*%
G04 #@! TD*
G04 #@! TA.AperFunction,SMDPad,CuDef*
%ADD12R,1.270000X5.080000*%
G04 #@! TD*
G04 #@! TA.AperFunction,SMDPad,CuDef*
%ADD13R,3.960000X3.960000*%
G04 #@! TD*
G04 #@! TA.AperFunction,SMDPad,CuDef*
%ADD14R,1.250000X1.000000*%
G04 #@! TD*
G04 #@! TA.AperFunction,SMDPad,CuDef*
%ADD15R,1.000000X1.250000*%
G04 #@! TD*
G04 #@! TA.AperFunction,ComponentPad*
%ADD16R,2.100000X2.100000*%
G04 #@! TD*
G04 #@! TA.AperFunction,ComponentPad*
%ADD17C,2.100000*%
G04 #@! TD*
G04 #@! TA.AperFunction,ComponentPad*
%ADD18O,1.000000X1.000000*%
G04 #@! TD*
G04 #@! TA.AperFunction,ComponentPad*
%ADD19R,1.000000X1.000000*%
G04 #@! TD*
G04 #@! TA.AperFunction,ComponentPad*
%ADD20C,1.750000*%
G04 #@! TD*
G04 #@! TA.AperFunction,ComponentPad*
%ADD21R,1.750000X1.750000*%
G04 #@! TD*
G04 #@! TA.AperFunction,ComponentPad*
%ADD22C,1.000000*%
G04 #@! TD*
G04 #@! TA.AperFunction,ComponentPad*
%ADD23O,1.700000X1.700000*%
G04 #@! TD*
G04 #@! TA.AperFunction,ComponentPad*
%ADD24R,1.700000X1.700000*%
G04 #@! TD*
G04 #@! TA.AperFunction,ViaPad*
%ADD25C,0.600000*%
G04 #@! TD*
G04 #@! TA.AperFunction,ViaPad*
%ADD26C,0.400000*%
G04 #@! TD*
G04 #@! TA.AperFunction,Conductor*
%ADD27C,0.762000*%
G04 #@! TD*
G04 #@! TA.AperFunction,Conductor*
%ADD28C,0.152400*%
G04 #@! TD*
G04 #@! TA.AperFunction,Conductor*
%ADD29C,0.635000*%
G04 #@! TD*
G04 #@! TA.AperFunction,Conductor*
%ADD30C,0.150000*%
G04 #@! TD*
G04 APERTURE END LIST*
D10*
G04 #@! TO.P,P1,1*
G04 #@! TO.N,Net-(P1-Pad1)*
X138938000Y-123825000D03*
G04 #@! TO.P,P1,2*
G04 #@! TO.N,/IOREF*
X141478000Y-123825000D03*
G04 #@! TO.P,P1,3*
G04 #@! TO.N,/Reset*
X144018000Y-123825000D03*
G04 #@! TO.P,P1,4*
G04 #@! TO.N,+3V3*
X146558000Y-123825000D03*
G04 #@! TO.P,P1,5*
G04 #@! TO.N,+5V*
X149098000Y-123825000D03*
G04 #@! TO.P,P1,6*
G04 #@! TO.N,GND*
X151638000Y-123825000D03*
G04 #@! TO.P,P1,7*
X154178000Y-123825000D03*
G04 #@! TO.P,P1,8*
G04 #@! TO.N,/Vin*
X156718000Y-123825000D03*
G04 #@! TD*
G04 #@! TO.P,P2,1*
G04 #@! TO.N,/A0*
X161798000Y-123825000D03*
G04 #@! TO.P,P2,2*
G04 #@! TO.N,/A1*
X164338000Y-123825000D03*
G04 #@! TO.P,P2,3*
G04 #@! TO.N,/A2*
X166878000Y-123825000D03*
G04 #@! TO.P,P2,4*
G04 #@! TO.N,/A3*
X169418000Y-123825000D03*
G04 #@! TO.P,P2,5*
G04 #@! TO.N,/A4(SDA)*
X171958000Y-123825000D03*
G04 #@! TO.P,P2,6*
G04 #@! TO.N,/A5(SCL)*
X174498000Y-123825000D03*
G04 #@! TD*
G04 #@! TO.P,P3,1*
G04 #@! TO.N,Net-(P3-Pad1)*
X129794000Y-75565000D03*
G04 #@! TO.P,P3,2*
G04 #@! TO.N,Net-(P3-Pad2)*
X132334000Y-75565000D03*
G04 #@! TO.P,P3,3*
G04 #@! TO.N,/AREF*
X134874000Y-75565000D03*
G04 #@! TO.P,P3,4*
G04 #@! TO.N,GND*
X137414000Y-75565000D03*
G04 #@! TO.P,P3,5*
G04 #@! TO.N,/13(SCK)*
X139954000Y-75565000D03*
G04 #@! TO.P,P3,6*
G04 #@! TO.N,/12(MISO)*
X142494000Y-75565000D03*
G04 #@! TO.P,P3,7*
G04 #@! TO.N,/11(\002A\002A/MOSI)*
X145034000Y-75565000D03*
G04 #@! TO.P,P3,8*
G04 #@! TO.N,/10(\002A\002A/SS)*
X147574000Y-75565000D03*
G04 #@! TO.P,P3,9*
G04 #@! TO.N,/9(\002A\002A)*
X150114000Y-75565000D03*
G04 #@! TO.P,P3,10*
G04 #@! TO.N,/8*
X152654000Y-75565000D03*
G04 #@! TD*
G04 #@! TO.P,P4,1*
G04 #@! TO.N,/7*
X156718000Y-75565000D03*
G04 #@! TO.P,P4,2*
G04 #@! TO.N,/6(\002A\002A)*
X159258000Y-75565000D03*
G04 #@! TO.P,P4,3*
G04 #@! TO.N,/5(\002A\002A)*
X161798000Y-75565000D03*
G04 #@! TO.P,P4,4*
G04 #@! TO.N,/4*
X164338000Y-75565000D03*
G04 #@! TO.P,P4,5*
G04 #@! TO.N,/3(\002A\002A)*
X166878000Y-75565000D03*
G04 #@! TO.P,P4,6*
G04 #@! TO.N,/2*
X169418000Y-75565000D03*
G04 #@! TO.P,P4,7*
G04 #@! TO.N,/1(Tx)*
X171958000Y-75565000D03*
G04 #@! TO.P,P4,8*
G04 #@! TO.N,/0(Rx)*
X174498000Y-75565000D03*
G04 #@! TD*
D11*
G04 #@! TO.P,P5,1*
G04 #@! TO.N,Net-(P5-Pad1)*
X124968000Y-123825000D03*
G04 #@! TD*
G04 #@! TO.P,P6,1*
G04 #@! TO.N,Net-(P6-Pad1)*
X177038000Y-118745000D03*
G04 #@! TD*
G04 #@! TO.P,P7,1*
G04 #@! TO.N,Net-(P7-Pad1)*
X126238000Y-75565000D03*
G04 #@! TD*
G04 #@! TO.P,P8,1*
G04 #@! TO.N,Net-(P8-Pad1)*
X177038000Y-90805000D03*
G04 #@! TD*
D12*
G04 #@! TO.P,BT1,1*
G04 #@! TO.N,Net-(BT1-Pad1)*
X148763000Y-96865000D03*
X170733000Y-96865000D03*
D13*
G04 #@! TO.P,BT1,2*
G04 #@! TO.N,GND*
X159748000Y-96865000D03*
G04 #@! TD*
D14*
G04 #@! TO.P,C7,2*
G04 #@! TO.N,GND*
X146748000Y-100965000D03*
G04 #@! TO.P,C7,1*
G04 #@! TO.N,3V3_AUX*
X146748000Y-98765000D03*
G04 #@! TD*
D15*
G04 #@! TO.P,C8,1*
G04 #@! TO.N,3V3_AUX*
X183248000Y-82865000D03*
G04 #@! TO.P,C8,2*
G04 #@! TO.N,GND*
X181048000Y-82865000D03*
G04 #@! TD*
G04 #@! TO.P,C9,2*
G04 #@! TO.N,GND*
X181048000Y-79865000D03*
G04 #@! TO.P,C9,1*
G04 #@! TO.N,3V3_AUX*
X183248000Y-79865000D03*
G04 #@! TD*
G04 #@! TO.P,C10,1*
G04 #@! TO.N,3V3_AUX*
X183248000Y-76865000D03*
G04 #@! TO.P,C10,2*
G04 #@! TO.N,GND*
X181048000Y-76865000D03*
G04 #@! TD*
D14*
G04 #@! TO.P,C11,1*
G04 #@! TO.N,3V3_AUX*
X177998000Y-112015000D03*
G04 #@! TO.P,C11,2*
G04 #@! TO.N,GND*
X177998000Y-114215000D03*
G04 #@! TD*
G04 #@! TO.P,C12,2*
G04 #@! TO.N,GND*
X177998000Y-108215000D03*
G04 #@! TO.P,C12,1*
G04 #@! TO.N,3V3_AUX*
X177998000Y-106015000D03*
G04 #@! TD*
D16*
G04 #@! TO.P,J2,1*
G04 #@! TO.N,Net-(J2-Pad1)*
X184404000Y-116615000D03*
D17*
G04 #@! TO.P,J2,2*
G04 #@! TO.N,Net-(J2-Pad2)*
X184404000Y-121695000D03*
G04 #@! TD*
G04 #@! TO.P,J3,2*
G04 #@! TO.N,Net-(J3-Pad2)*
X184404000Y-108077000D03*
D16*
G04 #@! TO.P,J3,1*
G04 #@! TO.N,Net-(J3-Pad1)*
X184404000Y-102997000D03*
G04 #@! TD*
D18*
G04 #@! TO.P,J5,3*
G04 #@! TO.N,Net-(J5-Pad3)*
X168998000Y-82405000D03*
G04 #@! TO.P,J5,2*
G04 #@! TO.N,/9(\002A\002A)*
X168998000Y-81135000D03*
D19*
G04 #@! TO.P,J5,1*
G04 #@! TO.N,GND*
X168998000Y-79865000D03*
G04 #@! TD*
G04 #@! TO.P,J7,1*
G04 #@! TO.N,GND*
X164998000Y-79865000D03*
D18*
G04 #@! TO.P,J7,2*
G04 #@! TO.N,/0(Rx)*
X164998000Y-81135000D03*
G04 #@! TO.P,J7,3*
G04 #@! TO.N,/1(Tx)*
X164998000Y-82405000D03*
G04 #@! TD*
G04 #@! TO.P,J8,4*
G04 #@! TO.N,/A4(SDA)*
X176998000Y-83675000D03*
G04 #@! TO.P,J8,3*
G04 #@! TO.N,/A5(SCL)*
X176998000Y-82405000D03*
G04 #@! TO.P,J8,2*
G04 #@! TO.N,GND*
X176998000Y-81135000D03*
D19*
G04 #@! TO.P,J8,1*
G04 #@! TO.N,3V3_AUX*
X176998000Y-79865000D03*
G04 #@! TD*
D20*
G04 #@! TO.P,J9,3*
G04 #@! TO.N,3V3_AUX*
X159498000Y-81365000D03*
G04 #@! TO.P,J9,2*
G04 #@! TO.N,/4*
X156998000Y-81365000D03*
D21*
G04 #@! TO.P,J9,1*
G04 #@! TO.N,GND*
X154498000Y-81365000D03*
G04 #@! TD*
D22*
G04 #@! TO.P,Y1,2*
G04 #@! TO.N,Net-(C4-Pad1)*
X164598000Y-108365000D03*
G04 #@! TO.P,Y1,1*
G04 #@! TO.N,Net-(C3-Pad1)*
X166498000Y-108365000D03*
G04 #@! TD*
D20*
G04 #@! TO.P,U5,8*
G04 #@! TO.N,Net-(TP2-Pad1)*
X185748000Y-94365000D03*
G04 #@! TO.P,U5,7*
G04 #@! TO.N,/12(MISO)*
X185748000Y-91865000D03*
G04 #@! TO.P,U5,6*
G04 #@! TO.N,/11(\002A\002A/MOSI)*
X185748000Y-89365000D03*
G04 #@! TO.P,U5,5*
G04 #@! TO.N,/13(SCK)*
X185748000Y-86865000D03*
G04 #@! TO.P,U5,4*
G04 #@! TO.N,/10(\002A\002A/SS)*
X185748000Y-84365000D03*
G04 #@! TO.P,U5,3*
G04 #@! TO.N,Net-(TP1-Pad1)*
X185748000Y-81865000D03*
G04 #@! TO.P,U5,2*
G04 #@! TO.N,3V3_AUX*
X185748000Y-79365000D03*
D21*
G04 #@! TO.P,U5,1*
G04 #@! TO.N,GND*
X185748000Y-76865000D03*
G04 #@! TD*
D20*
G04 #@! TO.P,J1,2*
G04 #@! TO.N,+V*
X120748000Y-103865000D03*
D21*
G04 #@! TO.P,J1,1*
G04 #@! TO.N,GND*
X120748000Y-106365000D03*
G04 #@! TD*
D18*
G04 #@! TO.P,J6,4*
G04 #@! TO.N,Net-(J6-Pad4)*
X172748000Y-83675000D03*
G04 #@! TO.P,J6,3*
G04 #@! TO.N,Net-(J6-Pad3)*
X172748000Y-82405000D03*
G04 #@! TO.P,J6,2*
G04 #@! TO.N,Net-(J6-Pad2)*
X172748000Y-81135000D03*
D19*
G04 #@! TO.P,J6,1*
G04 #@! TO.N,GND*
X172748000Y-79865000D03*
G04 #@! TD*
D23*
G04 #@! TO.P,J10,6*
G04 #@! TO.N,Net-(J10-Pad6)*
X177163000Y-100980000D03*
G04 #@! TO.P,J10,5*
G04 #@! TO.N,Net-(J10-Pad5)*
X174623000Y-100980000D03*
G04 #@! TO.P,J10,4*
G04 #@! TO.N,Net-(J10-Pad4)*
X177163000Y-98440000D03*
G04 #@! TO.P,J10,3*
G04 #@! TO.N,Net-(J10-Pad3)*
X174623000Y-98440000D03*
G04 #@! TO.P,J10,2*
G04 #@! TO.N,Net-(J10-Pad2)*
X177163000Y-95900000D03*
D24*
G04 #@! TO.P,J10,1*
G04 #@! TO.N,Net-(J10-Pad1)*
X174623000Y-95900000D03*
G04 #@! TD*
D25*
G04 #@! TO.N,GND*
X134498000Y-110865000D03*
X114998000Y-117615000D03*
X116998000Y-117615000D03*
X119498000Y-117615000D03*
X119498000Y-119865000D03*
X119498000Y-122365000D03*
X119498000Y-124865000D03*
X112748000Y-117615000D03*
X119998000Y-80615000D03*
X119998000Y-83115000D03*
X119498000Y-86365000D03*
X117498000Y-87115000D03*
X115498000Y-87115000D03*
X113248000Y-87115000D03*
X118248000Y-106365000D03*
X142248000Y-118365000D03*
X162998000Y-120365000D03*
X154248000Y-119865000D03*
X151748000Y-119865000D03*
X162498000Y-111115000D03*
X179748000Y-114365000D03*
X179748000Y-108365000D03*
X144248000Y-79115000D03*
X139248000Y-80115000D03*
D26*
X167998000Y-110365000D03*
X162980490Y-110363029D03*
X162701913Y-96433627D03*
X162723000Y-97115000D03*
X162872998Y-97840000D03*
D25*
X141748000Y-103615000D03*
X140248000Y-102865000D03*
X138498000Y-94365000D03*
X140998000Y-93865000D03*
X150498000Y-92865000D03*
X150748000Y-100865000D03*
X149248000Y-105865000D03*
D26*
X159723000Y-99715000D03*
X156248000Y-98190000D03*
X155073000Y-92840000D03*
G04 #@! TO.N,/A0*
X162473000Y-102290000D03*
X172798000Y-120815000D03*
X163748000Y-115515000D03*
X162398000Y-104990000D03*
G04 #@! TO.N,/A1*
X172073000Y-121265000D03*
X161971242Y-101960982D03*
X163086268Y-115526732D03*
X162121789Y-104011650D03*
G04 #@! TO.N,/A4(SDA)*
X162448000Y-119265000D03*
X170623000Y-102290000D03*
X168698000Y-104115000D03*
X162423000Y-116290000D03*
G04 #@! TO.N,/A5(SCL)*
X163723000Y-119215000D03*
X171098000Y-102790000D03*
X169174210Y-104593576D03*
G04 #@! TO.N,/9(\002A\002A)*
X167448000Y-81140000D03*
X160273000Y-77415000D03*
G04 #@! TO.N,/7*
X155498000Y-77115000D03*
X162248000Y-85365000D03*
X162248000Y-92336379D03*
G04 #@! TO.N,/5(\002A\002A)*
X174748000Y-105715000D03*
X174723000Y-103690000D03*
X167223000Y-88165000D03*
X166498000Y-85490000D03*
X167773000Y-82690000D03*
X162717326Y-77680610D03*
G04 #@! TO.N,/3(\002A\002A)*
X173623000Y-105715000D03*
X173598000Y-104440000D03*
X166473000Y-88090000D03*
X167898000Y-81715000D03*
X165773000Y-85490000D03*
G04 #@! TO.N,/1(Tx)*
X173748000Y-77290000D03*
G04 #@! TO.N,/10(\002A\002A/SS)*
X149598000Y-78515000D03*
X167448000Y-85365000D03*
X172729919Y-85381020D03*
G04 #@! TO.N,/12(MISO)*
X170123000Y-107665000D03*
X171323000Y-107640000D03*
X142548000Y-85165000D03*
X174197333Y-104411461D03*
G04 #@! TO.N,/11(\002A\002A/MOSI)*
X147173000Y-77190000D03*
X167898000Y-85840000D03*
X148928194Y-78569930D03*
X172715200Y-86039765D03*
D25*
G04 #@! TO.N,Net-(BT1-Pad1)*
X156923000Y-95540000D03*
X162823000Y-95540000D03*
X163698000Y-111390000D03*
X163342098Y-101195902D03*
G04 #@! TO.N,3V3_AUX*
X146748000Y-113115000D03*
X146748000Y-97615000D03*
X149498000Y-81615000D03*
X149498000Y-87615000D03*
X166748000Y-78115000D03*
X166748000Y-121865000D03*
X155998000Y-121115000D03*
X173498000Y-116865000D03*
X176498000Y-106365000D03*
X176498000Y-112115000D03*
D26*
G04 #@! TO.N,/8_CS_3V3*
X151073000Y-96465000D03*
X153523000Y-96890000D03*
G04 #@! TO.N,/11(\002A\002A/MOSI)_3V3*
X150998000Y-97615000D03*
X153523000Y-97540000D03*
G04 #@! TO.N,/13(SCK)_3V3*
X151048000Y-99765000D03*
X153448000Y-98140000D03*
G04 #@! TD*
D27*
G04 #@! TO.N,GND*
X154178000Y-123825000D02*
X154178000Y-119935000D01*
X154178000Y-119935000D02*
X154248000Y-119865000D01*
X151638000Y-123825000D02*
X151638000Y-119975000D01*
X151638000Y-119975000D02*
X151748000Y-119865000D01*
X178148000Y-114365000D02*
X177998000Y-114215000D01*
X179748000Y-114365000D02*
X178148000Y-114365000D01*
X178148000Y-108365000D02*
X177998000Y-108215000D01*
X179748000Y-108365000D02*
X178148000Y-108365000D01*
D28*
X159748000Y-96865000D02*
X161880400Y-96865000D01*
X161880400Y-96865000D02*
X162270540Y-96865000D01*
X162270540Y-96865000D02*
X162501914Y-96633626D01*
X162501914Y-96633626D02*
X162701913Y-96433627D01*
X162130400Y-97115000D02*
X162440158Y-97115000D01*
X162440158Y-97115000D02*
X162723000Y-97115000D01*
X161880400Y-96865000D02*
X162130400Y-97115000D01*
X161880400Y-96865000D02*
X161897998Y-96865000D01*
X162672999Y-97640001D02*
X162872998Y-97840000D01*
X161897998Y-96865000D02*
X162672999Y-97640001D01*
X159748000Y-96865000D02*
X159748000Y-99690000D01*
X159748000Y-99690000D02*
X159723000Y-99715000D01*
G04 #@! TO.N,/A0*
X172515158Y-120815000D02*
X172290158Y-120590000D01*
X172798000Y-120815000D02*
X172515158Y-120815000D01*
X172290158Y-120590000D02*
X170898000Y-120590000D01*
X170898000Y-120590000D02*
X170023000Y-119715000D01*
X170023000Y-119715000D02*
X165623000Y-119715000D01*
X165623000Y-119715000D02*
X163748000Y-117840000D01*
X163748000Y-117840000D02*
X163748000Y-115515000D01*
X162473000Y-102572842D02*
X162473000Y-102290000D01*
X162597999Y-102697841D02*
X162473000Y-102572842D01*
X162597999Y-104790001D02*
X162597999Y-102697841D01*
X162398000Y-104990000D02*
X162597999Y-104790001D01*
G04 #@! TO.N,/A1*
X172073000Y-121265000D02*
X171074616Y-121265000D01*
X171074616Y-121265000D02*
X169877027Y-120067411D01*
X169877027Y-120067411D02*
X165477026Y-120067410D01*
X165477026Y-120067410D02*
X163086268Y-117676652D01*
X163086268Y-115809574D02*
X163086268Y-115526732D01*
X163086268Y-117676652D02*
X163086268Y-115809574D01*
X161971242Y-103861103D02*
X162121789Y-104011650D01*
X161971242Y-101960982D02*
X161971242Y-103861103D01*
G04 #@! TO.N,/A4(SDA)*
X171958000Y-123672600D02*
X169275400Y-120990000D01*
X171958000Y-123825000D02*
X171958000Y-123672600D01*
X162647999Y-119464999D02*
X163072999Y-119464999D01*
X162448000Y-119265000D02*
X162647999Y-119464999D01*
X164598000Y-120990000D02*
X164848000Y-120990000D01*
X163072999Y-119464999D02*
X164598000Y-120990000D01*
X169275400Y-120990000D02*
X164848000Y-120990000D01*
X170623000Y-102290000D02*
X168798000Y-104115000D01*
X168798000Y-104115000D02*
X168698000Y-104115000D01*
X162423000Y-119240000D02*
X162448000Y-119265000D01*
X162423000Y-116290000D02*
X162423000Y-119240000D01*
G04 #@! TO.N,/A5(SCL)*
X174498000Y-123672600D02*
X173065400Y-122240000D01*
X174498000Y-123825000D02*
X174498000Y-123672600D01*
X173065400Y-122240000D02*
X171423000Y-122240000D01*
X171423000Y-122240000D02*
X169773000Y-120590000D01*
X165098000Y-120590000D02*
X163723000Y-119215000D01*
X169773000Y-120590000D02*
X165098000Y-120590000D01*
X171098000Y-102790000D02*
X169294424Y-104593576D01*
X169294424Y-104593576D02*
X169174210Y-104593576D01*
G04 #@! TO.N,/9(\002A\002A)*
X160575411Y-77112589D02*
X160472999Y-77215001D01*
X160472999Y-77215001D02*
X160273000Y-77415000D01*
X167448000Y-80319454D02*
X164241135Y-77112589D01*
X167448000Y-81140000D02*
X167448000Y-80319454D01*
X164241135Y-77112589D02*
X160575411Y-77112589D01*
G04 #@! TO.N,/7*
X155498000Y-76937400D02*
X155498000Y-77115000D01*
X156718000Y-75717400D02*
X155498000Y-76937400D01*
X156718000Y-75565000D02*
X156718000Y-75717400D01*
X162248000Y-85365000D02*
X162248000Y-92336379D01*
G04 #@! TO.N,/5(\002A\002A)*
X174748000Y-105715000D02*
X174748000Y-103715000D01*
X174748000Y-103715000D02*
X174723000Y-103690000D01*
X167223000Y-88165000D02*
X166448000Y-87390000D01*
X166448000Y-87390000D02*
X166448000Y-85540000D01*
X166448000Y-85540000D02*
X166498000Y-85490000D01*
X163000168Y-77680610D02*
X162717326Y-77680610D01*
X166923000Y-80292838D02*
X164310772Y-77680610D01*
X164310772Y-77680610D02*
X163000168Y-77680610D01*
X166923000Y-81840000D02*
X166923000Y-80292838D01*
X167773000Y-82690000D02*
X166923000Y-81840000D01*
G04 #@! TO.N,/3(\002A\002A)*
X173623000Y-104465000D02*
X173598000Y-104440000D01*
X173623000Y-105715000D02*
X173623000Y-104465000D01*
X166473000Y-88090000D02*
X165773000Y-87390000D01*
X165773000Y-85772842D02*
X165773000Y-85490000D01*
X165773000Y-87390000D02*
X165773000Y-85772842D01*
X165862000Y-76733400D02*
X166878000Y-75717400D01*
X168097999Y-80471069D02*
X165862000Y-78235070D01*
X166878000Y-75717400D02*
X166878000Y-75565000D01*
X165862000Y-78235070D02*
X165862000Y-76733400D01*
X167898000Y-81715000D02*
X168097999Y-81515001D01*
X168097999Y-81515001D02*
X168097999Y-80471069D01*
G04 #@! TO.N,/1(Tx)*
X173530600Y-77290000D02*
X173748000Y-77290000D01*
X171958000Y-75565000D02*
X171958000Y-75717400D01*
X171958000Y-75717400D02*
X173530600Y-77290000D01*
G04 #@! TO.N,/10(\002A\002A/SS)*
X147574000Y-76491000D02*
X147574000Y-75565000D01*
X149598000Y-78515000D02*
X147574000Y-76491000D01*
X167647999Y-85165001D02*
X172513900Y-85165001D01*
X172513900Y-85165001D02*
X172529920Y-85181021D01*
X172529920Y-85181021D02*
X172729919Y-85381020D01*
X167448000Y-85365000D02*
X167647999Y-85165001D01*
G04 #@! TO.N,/12(MISO)*
X170123000Y-107665000D02*
X171298000Y-107665000D01*
X171298000Y-107665000D02*
X171323000Y-107640000D01*
X142494000Y-75565000D02*
X142494000Y-85111000D01*
X142494000Y-85111000D02*
X142548000Y-85165000D01*
X171323000Y-107640000D02*
X173173000Y-107640000D01*
X173173000Y-107640000D02*
X174197333Y-106615667D01*
X174197333Y-106615667D02*
X174197333Y-104694303D01*
X174197333Y-104694303D02*
X174197333Y-104411461D01*
G04 #@! TO.N,/11(\002A\002A/MOSI)*
X148728195Y-78369931D02*
X148928194Y-78569930D01*
X147173000Y-77190000D02*
X147548264Y-77190000D01*
X147548264Y-77190000D02*
X148728195Y-78369931D01*
X172290435Y-85615000D02*
X172715200Y-86039765D01*
X168405842Y-85615000D02*
X172290435Y-85615000D01*
X168180842Y-85840000D02*
X168405842Y-85615000D01*
X167898000Y-85840000D02*
X168180842Y-85840000D01*
D29*
G04 #@! TO.N,Net-(BT1-Pad1)*
X148763000Y-96865000D02*
X148763000Y-96550000D01*
X148763000Y-96550000D02*
X149773000Y-95540000D01*
X149773000Y-95540000D02*
X156923000Y-95540000D01*
X169408000Y-95540000D02*
X170733000Y-96865000D01*
X162823000Y-95540000D02*
X169408000Y-95540000D01*
X163698000Y-110965736D02*
X163823000Y-110840736D01*
X163698000Y-111390000D02*
X163698000Y-110965736D01*
X163365501Y-101643569D02*
X163342098Y-101620166D01*
X163365501Y-108638403D02*
X163365501Y-101643569D01*
X163342098Y-101620166D02*
X163342098Y-101195902D01*
X163698000Y-108970902D02*
X163365501Y-108638403D01*
X163698000Y-110965736D02*
X163698000Y-108970902D01*
D27*
G04 #@! TO.N,3V3_AUX*
X146623000Y-98765000D02*
X146748000Y-98765000D01*
X145361000Y-100027000D02*
X146623000Y-98765000D01*
X145361000Y-102478000D02*
X145361000Y-100027000D01*
X146748000Y-103865000D02*
X145361000Y-102478000D01*
X146748000Y-113115000D02*
X146748000Y-103865000D01*
X146748000Y-98765000D02*
X146748000Y-97615000D01*
X152748000Y-79615000D02*
X152498000Y-79865000D01*
X159498000Y-81365000D02*
X157748000Y-79615000D01*
X157748000Y-79615000D02*
X152748000Y-79615000D01*
X152748000Y-79615000D02*
X151498000Y-79615000D01*
X151498000Y-79615000D02*
X149498000Y-81615000D01*
X149498000Y-81615000D02*
X149498000Y-87615000D01*
X183248000Y-76865000D02*
X183248000Y-79865000D01*
X183248000Y-82865000D02*
X183248000Y-79865000D01*
X183748000Y-79365000D02*
X183248000Y-79865000D01*
X185748000Y-79365000D02*
X183748000Y-79365000D01*
X183248000Y-79990000D02*
X181873000Y-81365000D01*
X183248000Y-79865000D02*
X183248000Y-79990000D01*
X181873000Y-81365000D02*
X180248000Y-81365000D01*
X178748000Y-79865000D02*
X176998000Y-79865000D01*
X180248000Y-81365000D02*
X178748000Y-79865000D01*
X176998000Y-79365000D02*
X176998000Y-79865000D01*
X166748000Y-78115000D02*
X175748000Y-78115000D01*
X175748000Y-78115000D02*
X176998000Y-79365000D01*
X161498000Y-121115000D02*
X162248000Y-121865000D01*
X162248000Y-121865000D02*
X166748000Y-121865000D01*
X155998000Y-121115000D02*
X161498000Y-121115000D01*
X173498000Y-116865000D02*
X176498000Y-113865000D01*
X176498000Y-106789264D02*
X176498000Y-106365000D01*
X177998000Y-106015000D02*
X176611000Y-106015000D01*
X176611000Y-106015000D02*
X176498000Y-106128000D01*
X176498000Y-106128000D02*
X176498000Y-106365000D01*
X177098000Y-112015000D02*
X177998000Y-112015000D01*
X176498000Y-113865000D02*
X176498000Y-112615000D01*
X176498000Y-112615000D02*
X177098000Y-112015000D01*
X176498000Y-113865000D02*
X176498000Y-112115000D01*
X176498000Y-112115000D02*
X176498000Y-106789264D01*
D28*
G04 #@! TO.N,/8_CS_3V3*
X153323000Y-97090000D02*
X153523000Y-96890000D01*
X151073000Y-96465000D02*
X151698000Y-97090000D01*
X151698000Y-97090000D02*
X153323000Y-97090000D01*
G04 #@! TO.N,/11(\002A\002A/MOSI)_3V3*
X151073000Y-97540000D02*
X153523000Y-97540000D01*
X150998000Y-97615000D02*
X151073000Y-97540000D01*
G04 #@! TO.N,/13(SCK)_3V3*
X153165158Y-98140000D02*
X153448000Y-98140000D01*
X152965158Y-97940000D02*
X153165158Y-98140000D01*
X151048000Y-99765000D02*
X151048000Y-98965000D01*
X151048000Y-98965000D02*
X152073000Y-97940000D01*
X152073000Y-97940000D02*
X152965158Y-97940000D01*
G04 #@! TD*
D30*
G04 #@! TO.N,GND*
G36*
X124900601Y-73563441D02*
X124236441Y-74227601D01*
X123877000Y-75095368D01*
X123877000Y-76034632D01*
X124236441Y-76902399D01*
X124900601Y-77566559D01*
X125768368Y-77926000D01*
X126707632Y-77926000D01*
X127575399Y-77566559D01*
X128239559Y-76902399D01*
X128599000Y-76034632D01*
X128599000Y-75295143D01*
X128601400Y-75295143D01*
X128601400Y-75834858D01*
X128670596Y-76182729D01*
X128934185Y-76577216D01*
X129328672Y-76840804D01*
X129794000Y-76933364D01*
X130259329Y-76840804D01*
X130653816Y-76577216D01*
X130917404Y-76182728D01*
X130986600Y-75834857D01*
X130986600Y-75295143D01*
X131141400Y-75295143D01*
X131141400Y-75834858D01*
X131210596Y-76182729D01*
X131474185Y-76577216D01*
X131868672Y-76840804D01*
X132334000Y-76933364D01*
X132799329Y-76840804D01*
X133193816Y-76577216D01*
X133457404Y-76182728D01*
X133526600Y-75834857D01*
X133526600Y-75295143D01*
X133681400Y-75295143D01*
X133681400Y-75834858D01*
X133750596Y-76182729D01*
X134014185Y-76577216D01*
X134408672Y-76840804D01*
X134874000Y-76933364D01*
X135339329Y-76840804D01*
X135733816Y-76577216D01*
X135997404Y-76182728D01*
X136035740Y-75990002D01*
X136153741Y-75990002D01*
X136067946Y-76206592D01*
X136357614Y-76684467D01*
X136777921Y-77016651D01*
X136989000Y-76946866D01*
X136989000Y-75990000D01*
X136969000Y-75990000D01*
X136969000Y-75140000D01*
X136989000Y-75140000D01*
X136989000Y-74183134D01*
X137839000Y-74183134D01*
X137839000Y-75140000D01*
X137859000Y-75140000D01*
X137859000Y-75990000D01*
X137839000Y-75990000D01*
X137839000Y-76946866D01*
X138050079Y-77016651D01*
X138470386Y-76684467D01*
X138760054Y-76206592D01*
X138674259Y-75990002D01*
X138792260Y-75990002D01*
X138830596Y-76182729D01*
X139094185Y-76577216D01*
X139488672Y-76840804D01*
X139954000Y-76933364D01*
X140419329Y-76840804D01*
X140813816Y-76577216D01*
X141077404Y-76182728D01*
X141146600Y-75834857D01*
X141146600Y-75295143D01*
X141301400Y-75295143D01*
X141301400Y-75834858D01*
X141370596Y-76182729D01*
X141634185Y-76577216D01*
X142028672Y-76840804D01*
X142088800Y-76852764D01*
X142088801Y-84891259D01*
X142019000Y-85059775D01*
X142019000Y-85270225D01*
X142099535Y-85464655D01*
X142248345Y-85613465D01*
X142442775Y-85694000D01*
X142653225Y-85694000D01*
X142847655Y-85613465D01*
X142996465Y-85464655D01*
X143077000Y-85270225D01*
X143077000Y-85059775D01*
X142996465Y-84865345D01*
X142899200Y-84768080D01*
X142899200Y-81615000D01*
X148774091Y-81615000D01*
X148788000Y-81684924D01*
X148788001Y-87684926D01*
X148829196Y-87892028D01*
X148986120Y-88126881D01*
X149220973Y-88283805D01*
X149498000Y-88338909D01*
X149775028Y-88283805D01*
X150009881Y-88126881D01*
X150166805Y-87892028D01*
X150208000Y-87684926D01*
X150208000Y-85259775D01*
X161719000Y-85259775D01*
X161719000Y-85470225D01*
X161799535Y-85664655D01*
X161842800Y-85707920D01*
X161842801Y-91993458D01*
X161799535Y-92036724D01*
X161719000Y-92231154D01*
X161719000Y-92441604D01*
X161799535Y-92636034D01*
X161948345Y-92784844D01*
X162142775Y-92865379D01*
X162353225Y-92865379D01*
X162547655Y-92784844D01*
X162696465Y-92636034D01*
X162777000Y-92441604D01*
X162777000Y-92231154D01*
X162696465Y-92036724D01*
X162653200Y-91993459D01*
X162653200Y-90335368D01*
X174677000Y-90335368D01*
X174677000Y-91274632D01*
X175036441Y-92142399D01*
X175700601Y-92806559D01*
X176568368Y-93166000D01*
X177507632Y-93166000D01*
X178375399Y-92806559D01*
X179039559Y-92142399D01*
X179253661Y-91625509D01*
X184544000Y-91625509D01*
X184544000Y-92104491D01*
X184727298Y-92547011D01*
X185065989Y-92885702D01*
X185508509Y-93069000D01*
X185987491Y-93069000D01*
X186430011Y-92885702D01*
X186768702Y-92547011D01*
X186952000Y-92104491D01*
X186952000Y-91625509D01*
X186768702Y-91182989D01*
X186430011Y-90844298D01*
X185987491Y-90661000D01*
X185508509Y-90661000D01*
X185065989Y-90844298D01*
X184727298Y-91182989D01*
X184544000Y-91625509D01*
X179253661Y-91625509D01*
X179399000Y-91274632D01*
X179399000Y-90335368D01*
X179039559Y-89467601D01*
X178697467Y-89125509D01*
X184544000Y-89125509D01*
X184544000Y-89604491D01*
X184727298Y-90047011D01*
X185065989Y-90385702D01*
X185508509Y-90569000D01*
X185987491Y-90569000D01*
X186430011Y-90385702D01*
X186768702Y-90047011D01*
X186952000Y-89604491D01*
X186952000Y-89125509D01*
X186768702Y-88682989D01*
X186430011Y-88344298D01*
X185987491Y-88161000D01*
X185508509Y-88161000D01*
X185065989Y-88344298D01*
X184727298Y-88682989D01*
X184544000Y-89125509D01*
X178697467Y-89125509D01*
X178375399Y-88803441D01*
X177507632Y-88444000D01*
X176568368Y-88444000D01*
X175700601Y-88803441D01*
X175036441Y-89467601D01*
X174677000Y-90335368D01*
X162653200Y-90335368D01*
X162653200Y-85707920D01*
X162696465Y-85664655D01*
X162777000Y-85470225D01*
X162777000Y-85384775D01*
X165244000Y-85384775D01*
X165244000Y-85595225D01*
X165324535Y-85789655D01*
X165367801Y-85832921D01*
X165367800Y-87350094D01*
X165359862Y-87390000D01*
X165367800Y-87429906D01*
X165391310Y-87548100D01*
X165480867Y-87682133D01*
X165514701Y-87704740D01*
X165944000Y-88134039D01*
X165944000Y-88195225D01*
X166024535Y-88389655D01*
X166173345Y-88538465D01*
X166367775Y-88619000D01*
X166578225Y-88619000D01*
X166772655Y-88538465D01*
X166810500Y-88500620D01*
X166923345Y-88613465D01*
X167117775Y-88694000D01*
X167328225Y-88694000D01*
X167522655Y-88613465D01*
X167671465Y-88464655D01*
X167752000Y-88270225D01*
X167752000Y-88059775D01*
X167671465Y-87865345D01*
X167522655Y-87716535D01*
X167328225Y-87636000D01*
X167267039Y-87636000D01*
X166853200Y-87222161D01*
X166853200Y-86625509D01*
X184544000Y-86625509D01*
X184544000Y-87104491D01*
X184727298Y-87547011D01*
X185065989Y-87885702D01*
X185508509Y-88069000D01*
X185987491Y-88069000D01*
X186430011Y-87885702D01*
X186768702Y-87547011D01*
X186952000Y-87104491D01*
X186952000Y-86625509D01*
X186768702Y-86182989D01*
X186430011Y-85844298D01*
X185987491Y-85661000D01*
X185508509Y-85661000D01*
X185065989Y-85844298D01*
X184727298Y-86182989D01*
X184544000Y-86625509D01*
X166853200Y-86625509D01*
X166853200Y-85882920D01*
X166946465Y-85789655D01*
X166998888Y-85663093D01*
X166999535Y-85664655D01*
X167148345Y-85813465D01*
X167342775Y-85894000D01*
X167369000Y-85894000D01*
X167369000Y-85945225D01*
X167449535Y-86139655D01*
X167598345Y-86288465D01*
X167792775Y-86369000D01*
X168003225Y-86369000D01*
X168197655Y-86288465D01*
X168245928Y-86240192D01*
X168338943Y-86221690D01*
X168472975Y-86132133D01*
X168495582Y-86098299D01*
X168573681Y-86020200D01*
X172122596Y-86020200D01*
X172186200Y-86083804D01*
X172186200Y-86144990D01*
X172266735Y-86339420D01*
X172415545Y-86488230D01*
X172609975Y-86568765D01*
X172820425Y-86568765D01*
X173014855Y-86488230D01*
X173163665Y-86339420D01*
X173244200Y-86144990D01*
X173244200Y-85934540D01*
X173163665Y-85740110D01*
X173141307Y-85717752D01*
X173178384Y-85680675D01*
X173258919Y-85486245D01*
X173258919Y-85275795D01*
X173178384Y-85081365D01*
X173029574Y-84932555D01*
X172835144Y-84852020D01*
X172774832Y-84852020D01*
X172672001Y-84783311D01*
X172553807Y-84759801D01*
X172553806Y-84759801D01*
X172513900Y-84751863D01*
X172473994Y-84759801D01*
X167687904Y-84759801D01*
X167647998Y-84751863D01*
X167608092Y-84759801D01*
X167489898Y-84783311D01*
X167411043Y-84836000D01*
X167342775Y-84836000D01*
X167148345Y-84916535D01*
X166999535Y-85065345D01*
X166947112Y-85191907D01*
X166946465Y-85190345D01*
X166797655Y-85041535D01*
X166603225Y-84961000D01*
X166392775Y-84961000D01*
X166198345Y-85041535D01*
X166135500Y-85104380D01*
X166072655Y-85041535D01*
X165878225Y-84961000D01*
X165667775Y-84961000D01*
X165473345Y-85041535D01*
X165324535Y-85190345D01*
X165244000Y-85384775D01*
X162777000Y-85384775D01*
X162777000Y-85259775D01*
X162696465Y-85065345D01*
X162547655Y-84916535D01*
X162353225Y-84836000D01*
X162142775Y-84836000D01*
X161948345Y-84916535D01*
X161799535Y-85065345D01*
X161719000Y-85259775D01*
X150208000Y-85259775D01*
X150208000Y-81935750D01*
X153040000Y-81935750D01*
X153040000Y-82355966D01*
X153128756Y-82570243D01*
X153292757Y-82734244D01*
X153507034Y-82823000D01*
X153927250Y-82823000D01*
X154073000Y-82677250D01*
X154073000Y-81790000D01*
X153185750Y-81790000D01*
X153040000Y-81935750D01*
X150208000Y-81935750D01*
X150208000Y-81909090D01*
X151792091Y-80325000D01*
X151951455Y-80325000D01*
X151986120Y-80376880D01*
X152220972Y-80533804D01*
X152498000Y-80588909D01*
X152775028Y-80533804D01*
X152950600Y-80416490D01*
X153042090Y-80325000D01*
X153060310Y-80325000D01*
X153040000Y-80374034D01*
X153040000Y-80794250D01*
X153185750Y-80940000D01*
X154073000Y-80940000D01*
X154073000Y-80920000D01*
X154923000Y-80920000D01*
X154923000Y-80940000D01*
X154943000Y-80940000D01*
X154943000Y-81790000D01*
X154923000Y-81790000D01*
X154923000Y-82677250D01*
X155068750Y-82823000D01*
X155488966Y-82823000D01*
X155703243Y-82734244D01*
X155867244Y-82570243D01*
X155956000Y-82355966D01*
X155956000Y-81995593D01*
X155977298Y-82047011D01*
X156315989Y-82385702D01*
X156758509Y-82569000D01*
X157237491Y-82569000D01*
X157680011Y-82385702D01*
X158018702Y-82047011D01*
X158202000Y-81604491D01*
X158202000Y-81125509D01*
X158164935Y-81036026D01*
X158294000Y-81165091D01*
X158294000Y-81604491D01*
X158477298Y-82047011D01*
X158815989Y-82385702D01*
X159258509Y-82569000D01*
X159737491Y-82569000D01*
X160180011Y-82385702D01*
X160518702Y-82047011D01*
X160702000Y-81604491D01*
X160702000Y-81125509D01*
X160518702Y-80682989D01*
X160180011Y-80344298D01*
X159737491Y-80161000D01*
X159298091Y-80161000D01*
X158299494Y-79162404D01*
X158259881Y-79103119D01*
X158025028Y-78946195D01*
X157817926Y-78905000D01*
X157817924Y-78905000D01*
X157748000Y-78891091D01*
X157678076Y-78905000D01*
X152817920Y-78905000D01*
X152747999Y-78891092D01*
X152678079Y-78905000D01*
X151567920Y-78905000D01*
X151497999Y-78891092D01*
X151428078Y-78905000D01*
X151428074Y-78905000D01*
X151220972Y-78946195D01*
X150986119Y-79103119D01*
X150946508Y-79162401D01*
X149045402Y-81063508D01*
X148986119Y-81103120D01*
X148829195Y-81337973D01*
X148805229Y-81458460D01*
X148774091Y-81615000D01*
X142899200Y-81615000D01*
X142899200Y-76852764D01*
X142959329Y-76840804D01*
X143353816Y-76577216D01*
X143617404Y-76182728D01*
X143686600Y-75834857D01*
X143686600Y-75295143D01*
X143841400Y-75295143D01*
X143841400Y-75834858D01*
X143910596Y-76182729D01*
X144174185Y-76577216D01*
X144568672Y-76840804D01*
X145034000Y-76933364D01*
X145499329Y-76840804D01*
X145893816Y-76577216D01*
X146157404Y-76182728D01*
X146226600Y-75834857D01*
X146226600Y-75295143D01*
X146381400Y-75295143D01*
X146381400Y-75834858D01*
X146450596Y-76182729D01*
X146714185Y-76577216D01*
X146926904Y-76719350D01*
X146873345Y-76741535D01*
X146724535Y-76890345D01*
X146644000Y-77084775D01*
X146644000Y-77295225D01*
X146724535Y-77489655D01*
X146873345Y-77638465D01*
X147067775Y-77719000D01*
X147278225Y-77719000D01*
X147438031Y-77652806D01*
X148399194Y-78613969D01*
X148399194Y-78675155D01*
X148479729Y-78869585D01*
X148628539Y-79018395D01*
X148822969Y-79098930D01*
X149033419Y-79098930D01*
X149227849Y-79018395D01*
X149290562Y-78955682D01*
X149298345Y-78963465D01*
X149492775Y-79044000D01*
X149703225Y-79044000D01*
X149897655Y-78963465D01*
X150046465Y-78814655D01*
X150127000Y-78620225D01*
X150127000Y-78409775D01*
X150046465Y-78215345D01*
X149897655Y-78066535D01*
X149703225Y-77986000D01*
X149642040Y-77986000D01*
X148665815Y-77009775D01*
X154969000Y-77009775D01*
X154969000Y-77220225D01*
X155049535Y-77414655D01*
X155198345Y-77563465D01*
X155392775Y-77644000D01*
X155603225Y-77644000D01*
X155797655Y-77563465D01*
X155946465Y-77414655D01*
X155989907Y-77309775D01*
X159744000Y-77309775D01*
X159744000Y-77520225D01*
X159824535Y-77714655D01*
X159973345Y-77863465D01*
X160167775Y-77944000D01*
X160378225Y-77944000D01*
X160572655Y-77863465D01*
X160721465Y-77714655D01*
X160802000Y-77520225D01*
X160802000Y-77517789D01*
X162212183Y-77517789D01*
X162188326Y-77575385D01*
X162188326Y-77785835D01*
X162268861Y-77980265D01*
X162417671Y-78129075D01*
X162612101Y-78209610D01*
X162822551Y-78209610D01*
X163016981Y-78129075D01*
X163060246Y-78085810D01*
X164142933Y-78085810D01*
X164839123Y-78782000D01*
X164382034Y-78782000D01*
X164167757Y-78870756D01*
X164003756Y-79034757D01*
X163915000Y-79249034D01*
X163915000Y-79469250D01*
X164060750Y-79615000D01*
X164748000Y-79615000D01*
X164748000Y-79420000D01*
X165248000Y-79420000D01*
X165248000Y-79615000D01*
X165443000Y-79615000D01*
X165443000Y-80115000D01*
X165248000Y-80115000D01*
X165248000Y-80310000D01*
X165099758Y-80310000D01*
X165079649Y-80306000D01*
X164916351Y-80306000D01*
X164896242Y-80310000D01*
X164748000Y-80310000D01*
X164748000Y-80115000D01*
X164060750Y-80115000D01*
X163915000Y-80260750D01*
X163915000Y-80480966D01*
X164003756Y-80695243D01*
X164167757Y-80859244D01*
X164204576Y-80874495D01*
X164152759Y-81135000D01*
X164217099Y-81458460D01*
X164400324Y-81732676D01*
X164456183Y-81770000D01*
X164400324Y-81807324D01*
X164217099Y-82081540D01*
X164152759Y-82405000D01*
X164217099Y-82728460D01*
X164400324Y-83002676D01*
X164674540Y-83185901D01*
X164916351Y-83234000D01*
X165079649Y-83234000D01*
X165321460Y-83185901D01*
X165595676Y-83002676D01*
X165778901Y-82728460D01*
X165843241Y-82405000D01*
X165778901Y-82081540D01*
X165595676Y-81807324D01*
X165539817Y-81770000D01*
X165595676Y-81732676D01*
X165778901Y-81458460D01*
X165843241Y-81135000D01*
X165791424Y-80874495D01*
X165828243Y-80859244D01*
X165992244Y-80695243D01*
X166081000Y-80480966D01*
X166081000Y-80023877D01*
X166517801Y-80460678D01*
X166517800Y-81800094D01*
X166509862Y-81840000D01*
X166517800Y-81879906D01*
X166541310Y-81998100D01*
X166630867Y-82132133D01*
X166664701Y-82154740D01*
X167244000Y-82734039D01*
X167244000Y-82795225D01*
X167324535Y-82989655D01*
X167473345Y-83138465D01*
X167667775Y-83219000D01*
X167878225Y-83219000D01*
X168072655Y-83138465D01*
X168221465Y-82989655D01*
X168286582Y-82832448D01*
X168400324Y-83002676D01*
X168674540Y-83185901D01*
X168916351Y-83234000D01*
X169079649Y-83234000D01*
X169321460Y-83185901D01*
X169595676Y-83002676D01*
X169778901Y-82728460D01*
X169843241Y-82405000D01*
X169778901Y-82081540D01*
X169595676Y-81807324D01*
X169539817Y-81770000D01*
X169595676Y-81732676D01*
X169778901Y-81458460D01*
X169843241Y-81135000D01*
X169791424Y-80874495D01*
X169828243Y-80859244D01*
X169992244Y-80695243D01*
X170081000Y-80480966D01*
X170081000Y-80260750D01*
X171665000Y-80260750D01*
X171665000Y-80480966D01*
X171753756Y-80695243D01*
X171917757Y-80859244D01*
X171954576Y-80874495D01*
X171902759Y-81135000D01*
X171967099Y-81458460D01*
X172150324Y-81732676D01*
X172206183Y-81770000D01*
X172150324Y-81807324D01*
X171967099Y-82081540D01*
X171902759Y-82405000D01*
X171967099Y-82728460D01*
X172150324Y-83002676D01*
X172206183Y-83040000D01*
X172150324Y-83077324D01*
X171967099Y-83351540D01*
X171902759Y-83675000D01*
X171967099Y-83998460D01*
X172150324Y-84272676D01*
X172424540Y-84455901D01*
X172666351Y-84504000D01*
X172829649Y-84504000D01*
X173071460Y-84455901D01*
X173345676Y-84272676D01*
X173528901Y-83998460D01*
X173593241Y-83675000D01*
X173528901Y-83351540D01*
X173345676Y-83077324D01*
X173289817Y-83040000D01*
X173345676Y-83002676D01*
X173528901Y-82728460D01*
X173593241Y-82405000D01*
X173528901Y-82081540D01*
X173345676Y-81807324D01*
X173289817Y-81770000D01*
X173345676Y-81732676D01*
X173469897Y-81546765D01*
X175996332Y-81546765D01*
X175998530Y-81552140D01*
X176234243Y-81902868D01*
X176305053Y-81949907D01*
X176217099Y-82081540D01*
X176152759Y-82405000D01*
X176217099Y-82728460D01*
X176400324Y-83002676D01*
X176456183Y-83040000D01*
X176400324Y-83077324D01*
X176217099Y-83351540D01*
X176152759Y-83675000D01*
X176217099Y-83998460D01*
X176400324Y-84272676D01*
X176674540Y-84455901D01*
X176916351Y-84504000D01*
X177079649Y-84504000D01*
X177321460Y-84455901D01*
X177595676Y-84272676D01*
X177694009Y-84125509D01*
X184544000Y-84125509D01*
X184544000Y-84604491D01*
X184727298Y-85047011D01*
X185065989Y-85385702D01*
X185508509Y-85569000D01*
X185987491Y-85569000D01*
X186430011Y-85385702D01*
X186768702Y-85047011D01*
X186952000Y-84604491D01*
X186952000Y-84125509D01*
X186768702Y-83682989D01*
X186430011Y-83344298D01*
X185987491Y-83161000D01*
X185508509Y-83161000D01*
X185065989Y-83344298D01*
X184727298Y-83682989D01*
X184544000Y-84125509D01*
X177694009Y-84125509D01*
X177778901Y-83998460D01*
X177843241Y-83675000D01*
X177778901Y-83351540D01*
X177595676Y-83077324D01*
X177539817Y-83040000D01*
X177595676Y-83002676D01*
X177778901Y-82728460D01*
X177843241Y-82405000D01*
X177778901Y-82081540D01*
X177690947Y-81949907D01*
X177761757Y-81902868D01*
X177997470Y-81552140D01*
X177999668Y-81546765D01*
X177901293Y-81385000D01*
X177248000Y-81385000D01*
X177248000Y-81580000D01*
X177099758Y-81580000D01*
X177079649Y-81576000D01*
X176916351Y-81576000D01*
X176896242Y-81580000D01*
X176748000Y-81580000D01*
X176748000Y-81385000D01*
X176094707Y-81385000D01*
X175996332Y-81546765D01*
X173469897Y-81546765D01*
X173528901Y-81458460D01*
X173593241Y-81135000D01*
X173541424Y-80874495D01*
X173578243Y-80859244D01*
X173742244Y-80695243D01*
X173831000Y-80480966D01*
X173831000Y-80260750D01*
X173685250Y-80115000D01*
X172998000Y-80115000D01*
X172998000Y-80310000D01*
X172849758Y-80310000D01*
X172829649Y-80306000D01*
X172666351Y-80306000D01*
X172646242Y-80310000D01*
X172498000Y-80310000D01*
X172498000Y-80115000D01*
X171810750Y-80115000D01*
X171665000Y-80260750D01*
X170081000Y-80260750D01*
X169935250Y-80115000D01*
X169248000Y-80115000D01*
X169248000Y-80310000D01*
X169099758Y-80310000D01*
X169079649Y-80306000D01*
X168916351Y-80306000D01*
X168896242Y-80310000D01*
X168748000Y-80310000D01*
X168748000Y-80115000D01*
X168553000Y-80115000D01*
X168553000Y-79615000D01*
X168748000Y-79615000D01*
X168748000Y-79420000D01*
X169248000Y-79420000D01*
X169248000Y-79615000D01*
X169935250Y-79615000D01*
X170081000Y-79469250D01*
X170081000Y-79249034D01*
X169992244Y-79034757D01*
X169828243Y-78870756D01*
X169717778Y-78825000D01*
X172028222Y-78825000D01*
X171917757Y-78870756D01*
X171753756Y-79034757D01*
X171665000Y-79249034D01*
X171665000Y-79469250D01*
X171810750Y-79615000D01*
X172498000Y-79615000D01*
X172498000Y-79420000D01*
X172998000Y-79420000D01*
X172998000Y-79615000D01*
X173685250Y-79615000D01*
X173831000Y-79469250D01*
X173831000Y-79249034D01*
X173742244Y-79034757D01*
X173578243Y-78870756D01*
X173467778Y-78825000D01*
X175453910Y-78825000D01*
X176162555Y-79533646D01*
X176162555Y-80365000D01*
X176179254Y-80448953D01*
X175998530Y-80717860D01*
X175996332Y-80723235D01*
X176094707Y-80885000D01*
X176748000Y-80885000D01*
X176748000Y-80700445D01*
X177248000Y-80700445D01*
X177248000Y-80885000D01*
X177901293Y-80885000D01*
X177999668Y-80723235D01*
X177997470Y-80717860D01*
X177901458Y-80575000D01*
X178453910Y-80575000D01*
X179696508Y-81817599D01*
X179736119Y-81876881D01*
X179970972Y-82033805D01*
X180178074Y-82075000D01*
X180178078Y-82075000D01*
X180247999Y-82088908D01*
X180317920Y-82075000D01*
X181803076Y-82075000D01*
X181873000Y-82088909D01*
X181942924Y-82075000D01*
X181942926Y-82075000D01*
X182150028Y-82033805D01*
X182384881Y-81876881D01*
X182424494Y-81817596D01*
X182538000Y-81704090D01*
X182538000Y-81984633D01*
X182510805Y-82002805D01*
X182438089Y-82111631D01*
X182412555Y-82240000D01*
X182412555Y-83490000D01*
X182438089Y-83618369D01*
X182510805Y-83727195D01*
X182619631Y-83799911D01*
X182748000Y-83825445D01*
X183748000Y-83825445D01*
X183876369Y-83799911D01*
X183985195Y-83727195D01*
X184057911Y-83618369D01*
X184083445Y-83490000D01*
X184083445Y-82240000D01*
X184057911Y-82111631D01*
X183985195Y-82002805D01*
X183958000Y-81984634D01*
X183958000Y-81625509D01*
X184544000Y-81625509D01*
X184544000Y-82104491D01*
X184727298Y-82547011D01*
X185065989Y-82885702D01*
X185508509Y-83069000D01*
X185987491Y-83069000D01*
X186430011Y-82885702D01*
X186768702Y-82547011D01*
X186952000Y-82104491D01*
X186952000Y-81625509D01*
X186768702Y-81182989D01*
X186430011Y-80844298D01*
X185987491Y-80661000D01*
X185508509Y-80661000D01*
X185065989Y-80844298D01*
X184727298Y-81182989D01*
X184544000Y-81625509D01*
X183958000Y-81625509D01*
X183958000Y-80745366D01*
X183985195Y-80727195D01*
X184057911Y-80618369D01*
X184083445Y-80490000D01*
X184083445Y-80075000D01*
X184755287Y-80075000D01*
X185065989Y-80385702D01*
X185508509Y-80569000D01*
X185987491Y-80569000D01*
X186430011Y-80385702D01*
X186768702Y-80047011D01*
X186952000Y-79604491D01*
X186952000Y-79125509D01*
X186768702Y-78682989D01*
X186430011Y-78344298D01*
X186378593Y-78323000D01*
X186738966Y-78323000D01*
X186953243Y-78234244D01*
X187117244Y-78070243D01*
X187206000Y-77855966D01*
X187206000Y-77435750D01*
X187060250Y-77290000D01*
X186173000Y-77290000D01*
X186173000Y-77310000D01*
X185323000Y-77310000D01*
X185323000Y-77290000D01*
X184435750Y-77290000D01*
X184290000Y-77435750D01*
X184290000Y-77855966D01*
X184378756Y-78070243D01*
X184542757Y-78234244D01*
X184757034Y-78323000D01*
X185117407Y-78323000D01*
X185065989Y-78344298D01*
X184755287Y-78655000D01*
X183958000Y-78655000D01*
X183958000Y-77745366D01*
X183985195Y-77727195D01*
X184057911Y-77618369D01*
X184083445Y-77490000D01*
X184083445Y-76240000D01*
X184057911Y-76111631D01*
X183985195Y-76002805D01*
X183876369Y-75930089D01*
X183748000Y-75904555D01*
X182748000Y-75904555D01*
X182619631Y-75930089D01*
X182510805Y-76002805D01*
X182438089Y-76111631D01*
X182412555Y-76240000D01*
X182412555Y-77490000D01*
X182438089Y-77618369D01*
X182510805Y-77727195D01*
X182538000Y-77745367D01*
X182538001Y-78984633D01*
X182510805Y-79002805D01*
X182438089Y-79111631D01*
X182412555Y-79240000D01*
X182412555Y-79821354D01*
X181578910Y-80655000D01*
X180542091Y-80655000D01*
X179299494Y-79412404D01*
X179259881Y-79353119D01*
X179025028Y-79196195D01*
X178817926Y-79155000D01*
X178817924Y-79155000D01*
X178748000Y-79141091D01*
X178678076Y-79155000D01*
X177753366Y-79155000D01*
X177735195Y-79127805D01*
X177659726Y-79077378D01*
X177561310Y-78930089D01*
X177549490Y-78912399D01*
X177509880Y-78853119D01*
X177450600Y-78813509D01*
X176299494Y-77662404D01*
X176259881Y-77603119D01*
X176025028Y-77446195D01*
X175817926Y-77405000D01*
X175817924Y-77405000D01*
X175748000Y-77391091D01*
X175678076Y-77405000D01*
X174272951Y-77405000D01*
X174277000Y-77395225D01*
X174277000Y-77184775D01*
X174196465Y-76990345D01*
X174050463Y-76844343D01*
X174498000Y-76933364D01*
X174963329Y-76840804D01*
X175357816Y-76577216D01*
X175621404Y-76182728D01*
X175682807Y-75874034D01*
X184290000Y-75874034D01*
X184290000Y-76294250D01*
X184435750Y-76440000D01*
X185323000Y-76440000D01*
X185323000Y-75552750D01*
X186173000Y-75552750D01*
X186173000Y-76440000D01*
X187060250Y-76440000D01*
X187206000Y-76294250D01*
X187206000Y-75874034D01*
X187117244Y-75659757D01*
X186953243Y-75495756D01*
X186738966Y-75407000D01*
X186318750Y-75407000D01*
X186173000Y-75552750D01*
X185323000Y-75552750D01*
X185177250Y-75407000D01*
X184757034Y-75407000D01*
X184542757Y-75495756D01*
X184378756Y-75659757D01*
X184290000Y-75874034D01*
X175682807Y-75874034D01*
X175690600Y-75834857D01*
X175690600Y-75295142D01*
X175621404Y-74947271D01*
X175357816Y-74552784D01*
X174963328Y-74289196D01*
X174498000Y-74196636D01*
X174032671Y-74289196D01*
X173638184Y-74552784D01*
X173374596Y-74947272D01*
X173305400Y-75295143D01*
X173305400Y-75834858D01*
X173374596Y-76182729D01*
X173638185Y-76577216D01*
X174011114Y-76826399D01*
X173853225Y-76761000D01*
X173642775Y-76761000D01*
X173594596Y-76780956D01*
X173047343Y-76233704D01*
X173081404Y-76182728D01*
X173150600Y-75834857D01*
X173150600Y-75295142D01*
X173081404Y-74947271D01*
X172817816Y-74552784D01*
X172423328Y-74289196D01*
X171958000Y-74196636D01*
X171492671Y-74289196D01*
X171098184Y-74552784D01*
X170834596Y-74947272D01*
X170765400Y-75295143D01*
X170765400Y-75834858D01*
X170834596Y-76182729D01*
X171098185Y-76577216D01*
X171492672Y-76840804D01*
X171958000Y-76933364D01*
X172423329Y-76840804D01*
X172474304Y-76806744D01*
X173072560Y-77405000D01*
X166678074Y-77405000D01*
X166470972Y-77446195D01*
X166267200Y-77582351D01*
X166267200Y-76901239D01*
X166361696Y-76806743D01*
X166412672Y-76840804D01*
X166878000Y-76933364D01*
X167343329Y-76840804D01*
X167737816Y-76577216D01*
X168001404Y-76182728D01*
X168070600Y-75834857D01*
X168070600Y-75295143D01*
X168225400Y-75295143D01*
X168225400Y-75834858D01*
X168294596Y-76182729D01*
X168558185Y-76577216D01*
X168952672Y-76840804D01*
X169418000Y-76933364D01*
X169883329Y-76840804D01*
X170277816Y-76577216D01*
X170541404Y-76182728D01*
X170610600Y-75834857D01*
X170610600Y-75295142D01*
X170541404Y-74947271D01*
X170277816Y-74552784D01*
X169883328Y-74289196D01*
X169418000Y-74196636D01*
X168952671Y-74289196D01*
X168558184Y-74552784D01*
X168294596Y-74947272D01*
X168225400Y-75295143D01*
X168070600Y-75295143D01*
X168070600Y-75295142D01*
X168001404Y-74947271D01*
X167737816Y-74552784D01*
X167343328Y-74289196D01*
X166878000Y-74196636D01*
X166412671Y-74289196D01*
X166018184Y-74552784D01*
X165754596Y-74947272D01*
X165685400Y-75295143D01*
X165685400Y-75834858D01*
X165754596Y-76182729D01*
X165788657Y-76233704D01*
X165603699Y-76418662D01*
X165569868Y-76441267D01*
X165547263Y-76475098D01*
X165547262Y-76475099D01*
X165480311Y-76575299D01*
X165448862Y-76733400D01*
X165456801Y-76773311D01*
X165456800Y-77755215D01*
X164585682Y-76884097D01*
X164803329Y-76840804D01*
X165197816Y-76577216D01*
X165461404Y-76182728D01*
X165530600Y-75834857D01*
X165530600Y-75295142D01*
X165461404Y-74947271D01*
X165197816Y-74552784D01*
X164803328Y-74289196D01*
X164338000Y-74196636D01*
X163872671Y-74289196D01*
X163478184Y-74552784D01*
X163214596Y-74947272D01*
X163145400Y-75295143D01*
X163145400Y-75834858D01*
X163214596Y-76182729D01*
X163478185Y-76577216D01*
X163673003Y-76707389D01*
X162462998Y-76707389D01*
X162657816Y-76577216D01*
X162921404Y-76182728D01*
X162990600Y-75834857D01*
X162990600Y-75295142D01*
X162921404Y-74947271D01*
X162657816Y-74552784D01*
X162263328Y-74289196D01*
X161798000Y-74196636D01*
X161332671Y-74289196D01*
X160938184Y-74552784D01*
X160674596Y-74947272D01*
X160605400Y-75295143D01*
X160605400Y-75834858D01*
X160674596Y-76182729D01*
X160938185Y-76577216D01*
X161133003Y-76707389D01*
X160615316Y-76707389D01*
X160575410Y-76699451D01*
X160535504Y-76707389D01*
X160417310Y-76730899D01*
X160283278Y-76820456D01*
X160260669Y-76854292D01*
X160228961Y-76886000D01*
X160167775Y-76886000D01*
X159973345Y-76966535D01*
X159824535Y-77115345D01*
X159744000Y-77309775D01*
X155989907Y-77309775D01*
X156027000Y-77220225D01*
X156027000Y-77009775D01*
X156018701Y-76989738D01*
X156201696Y-76806743D01*
X156252672Y-76840804D01*
X156718000Y-76933364D01*
X157183329Y-76840804D01*
X157577816Y-76577216D01*
X157841404Y-76182728D01*
X157910600Y-75834857D01*
X157910600Y-75295143D01*
X158065400Y-75295143D01*
X158065400Y-75834858D01*
X158134596Y-76182729D01*
X158398185Y-76577216D01*
X158792672Y-76840804D01*
X159258000Y-76933364D01*
X159723329Y-76840804D01*
X160117816Y-76577216D01*
X160381404Y-76182728D01*
X160450600Y-75834857D01*
X160450600Y-75295142D01*
X160381404Y-74947271D01*
X160117816Y-74552784D01*
X159723328Y-74289196D01*
X159258000Y-74196636D01*
X158792671Y-74289196D01*
X158398184Y-74552784D01*
X158134596Y-74947272D01*
X158065400Y-75295143D01*
X157910600Y-75295143D01*
X157910600Y-75295142D01*
X157841404Y-74947271D01*
X157577816Y-74552784D01*
X157183328Y-74289196D01*
X156718000Y-74196636D01*
X156252671Y-74289196D01*
X155858184Y-74552784D01*
X155594596Y-74947272D01*
X155525400Y-75295143D01*
X155525400Y-75834858D01*
X155594596Y-76182729D01*
X155628657Y-76233704D01*
X155239701Y-76622660D01*
X155205867Y-76645267D01*
X155178188Y-76686692D01*
X155049535Y-76815345D01*
X154969000Y-77009775D01*
X148665815Y-77009775D01*
X148313589Y-76657549D01*
X148433816Y-76577216D01*
X148697404Y-76182728D01*
X148766600Y-75834857D01*
X148766600Y-75295143D01*
X148921400Y-75295143D01*
X148921400Y-75834858D01*
X148990596Y-76182729D01*
X149254185Y-76577216D01*
X149648672Y-76840804D01*
X150114000Y-76933364D01*
X150579329Y-76840804D01*
X150973816Y-76577216D01*
X151237404Y-76182728D01*
X151306600Y-75834857D01*
X151306600Y-75295143D01*
X151461400Y-75295143D01*
X151461400Y-75834858D01*
X151530596Y-76182729D01*
X151794185Y-76577216D01*
X152188672Y-76840804D01*
X152654000Y-76933364D01*
X153119329Y-76840804D01*
X153513816Y-76577216D01*
X153777404Y-76182728D01*
X153846600Y-75834857D01*
X153846600Y-75295142D01*
X153777404Y-74947271D01*
X153513816Y-74552784D01*
X153119328Y-74289196D01*
X152654000Y-74196636D01*
X152188671Y-74289196D01*
X151794184Y-74552784D01*
X151530596Y-74947272D01*
X151461400Y-75295143D01*
X151306600Y-75295143D01*
X151306600Y-75295142D01*
X151237404Y-74947271D01*
X150973816Y-74552784D01*
X150579328Y-74289196D01*
X150114000Y-74196636D01*
X149648671Y-74289196D01*
X149254184Y-74552784D01*
X148990596Y-74947272D01*
X148921400Y-75295143D01*
X148766600Y-75295143D01*
X148766600Y-75295142D01*
X148697404Y-74947271D01*
X148433816Y-74552784D01*
X148039328Y-74289196D01*
X147574000Y-74196636D01*
X147108671Y-74289196D01*
X146714184Y-74552784D01*
X146450596Y-74947272D01*
X146381400Y-75295143D01*
X146226600Y-75295143D01*
X146226600Y-75295142D01*
X146157404Y-74947271D01*
X145893816Y-74552784D01*
X145499328Y-74289196D01*
X145034000Y-74196636D01*
X144568671Y-74289196D01*
X144174184Y-74552784D01*
X143910596Y-74947272D01*
X143841400Y-75295143D01*
X143686600Y-75295143D01*
X143686600Y-75295142D01*
X143617404Y-74947271D01*
X143353816Y-74552784D01*
X142959328Y-74289196D01*
X142494000Y-74196636D01*
X142028671Y-74289196D01*
X141634184Y-74552784D01*
X141370596Y-74947272D01*
X141301400Y-75295143D01*
X141146600Y-75295143D01*
X141146600Y-75295142D01*
X141077404Y-74947271D01*
X140813816Y-74552784D01*
X140419328Y-74289196D01*
X139954000Y-74196636D01*
X139488671Y-74289196D01*
X139094184Y-74552784D01*
X138830596Y-74947272D01*
X138792260Y-75139998D01*
X138674259Y-75139998D01*
X138760054Y-74923408D01*
X138470386Y-74445533D01*
X138050079Y-74113349D01*
X137839000Y-74183134D01*
X136989000Y-74183134D01*
X136777921Y-74113349D01*
X136357614Y-74445533D01*
X136067946Y-74923408D01*
X136153741Y-75139998D01*
X136035740Y-75139998D01*
X135997404Y-74947271D01*
X135733816Y-74552784D01*
X135339328Y-74289196D01*
X134874000Y-74196636D01*
X134408671Y-74289196D01*
X134014184Y-74552784D01*
X133750596Y-74947272D01*
X133681400Y-75295143D01*
X133526600Y-75295143D01*
X133526600Y-75295142D01*
X133457404Y-74947271D01*
X133193816Y-74552784D01*
X132799328Y-74289196D01*
X132334000Y-74196636D01*
X131868671Y-74289196D01*
X131474184Y-74552784D01*
X131210596Y-74947272D01*
X131141400Y-75295143D01*
X130986600Y-75295143D01*
X130986600Y-75295142D01*
X130917404Y-74947271D01*
X130653816Y-74552784D01*
X130259328Y-74289196D01*
X129794000Y-74196636D01*
X129328671Y-74289196D01*
X128934184Y-74552784D01*
X128670596Y-74947272D01*
X128601400Y-75295143D01*
X128599000Y-75295143D01*
X128599000Y-75095368D01*
X128239559Y-74227601D01*
X127575399Y-73563441D01*
X127250830Y-73429000D01*
X187792659Y-73429000D01*
X189080000Y-74716342D01*
X189080001Y-124673657D01*
X187792659Y-125961000D01*
X125980830Y-125961000D01*
X126305399Y-125826559D01*
X126969559Y-125162399D01*
X127329000Y-124294632D01*
X127329000Y-123555143D01*
X137745400Y-123555143D01*
X137745400Y-124094858D01*
X137814596Y-124442729D01*
X138078185Y-124837216D01*
X138472672Y-125100804D01*
X138938000Y-125193364D01*
X139403329Y-125100804D01*
X139797816Y-124837216D01*
X140061404Y-124442728D01*
X140130600Y-124094857D01*
X140130600Y-123555143D01*
X140285400Y-123555143D01*
X140285400Y-124094858D01*
X140354596Y-124442729D01*
X140618185Y-124837216D01*
X141012672Y-125100804D01*
X141478000Y-125193364D01*
X141943329Y-125100804D01*
X142337816Y-124837216D01*
X142601404Y-124442728D01*
X142670600Y-124094857D01*
X142670600Y-123555143D01*
X142825400Y-123555143D01*
X142825400Y-124094858D01*
X142894596Y-124442729D01*
X143158185Y-124837216D01*
X143552672Y-125100804D01*
X144018000Y-125193364D01*
X144483329Y-125100804D01*
X144877816Y-124837216D01*
X145141404Y-124442728D01*
X145210600Y-124094857D01*
X145210600Y-123555143D01*
X145365400Y-123555143D01*
X145365400Y-124094858D01*
X145434596Y-124442729D01*
X145698185Y-124837216D01*
X146092672Y-125100804D01*
X146558000Y-125193364D01*
X147023329Y-125100804D01*
X147417816Y-124837216D01*
X147681404Y-124442728D01*
X147750600Y-124094857D01*
X147750600Y-123555143D01*
X147905400Y-123555143D01*
X147905400Y-124094858D01*
X147974596Y-124442729D01*
X148238185Y-124837216D01*
X148632672Y-125100804D01*
X149098000Y-125193364D01*
X149563329Y-125100804D01*
X149957816Y-124837216D01*
X150221404Y-124442728D01*
X150259740Y-124250002D01*
X150377741Y-124250002D01*
X150291946Y-124466592D01*
X150581614Y-124944467D01*
X151001921Y-125276651D01*
X151213000Y-125206866D01*
X151213000Y-124250000D01*
X152063000Y-124250000D01*
X152063000Y-125206866D01*
X152274079Y-125276651D01*
X152694386Y-124944467D01*
X152908000Y-124592061D01*
X153121614Y-124944467D01*
X153541921Y-125276651D01*
X153753000Y-125206866D01*
X153753000Y-124250000D01*
X152917742Y-124250000D01*
X152908000Y-124274594D01*
X152898258Y-124250000D01*
X152063000Y-124250000D01*
X151213000Y-124250000D01*
X151193000Y-124250000D01*
X151193000Y-123400000D01*
X151213000Y-123400000D01*
X151213000Y-122443134D01*
X152063000Y-122443134D01*
X152063000Y-123400000D01*
X152898258Y-123400000D01*
X152908000Y-123375406D01*
X152917742Y-123400000D01*
X153753000Y-123400000D01*
X153753000Y-122443134D01*
X154603000Y-122443134D01*
X154603000Y-123400000D01*
X154623000Y-123400000D01*
X154623000Y-124250000D01*
X154603000Y-124250000D01*
X154603000Y-125206866D01*
X154814079Y-125276651D01*
X155234386Y-124944467D01*
X155524054Y-124466592D01*
X155438259Y-124250002D01*
X155556260Y-124250002D01*
X155594596Y-124442729D01*
X155858185Y-124837216D01*
X156252672Y-125100804D01*
X156718000Y-125193364D01*
X157183329Y-125100804D01*
X157577816Y-124837216D01*
X157841404Y-124442728D01*
X157910600Y-124094857D01*
X157910600Y-123555142D01*
X157841404Y-123207271D01*
X157577816Y-122812784D01*
X157183328Y-122549196D01*
X156718000Y-122456636D01*
X156252671Y-122549196D01*
X155858184Y-122812784D01*
X155594596Y-123207272D01*
X155556260Y-123399998D01*
X155438259Y-123399998D01*
X155524054Y-123183408D01*
X155234386Y-122705533D01*
X154814079Y-122373349D01*
X154603000Y-122443134D01*
X153753000Y-122443134D01*
X153541921Y-122373349D01*
X153121614Y-122705533D01*
X152908000Y-123057939D01*
X152694386Y-122705533D01*
X152274079Y-122373349D01*
X152063000Y-122443134D01*
X151213000Y-122443134D01*
X151001921Y-122373349D01*
X150581614Y-122705533D01*
X150291946Y-123183408D01*
X150377741Y-123399998D01*
X150259740Y-123399998D01*
X150221404Y-123207271D01*
X149957816Y-122812784D01*
X149563328Y-122549196D01*
X149098000Y-122456636D01*
X148632671Y-122549196D01*
X148238184Y-122812784D01*
X147974596Y-123207272D01*
X147905400Y-123555143D01*
X147750600Y-123555143D01*
X147750600Y-123555142D01*
X147681404Y-123207271D01*
X147417816Y-122812784D01*
X147023328Y-122549196D01*
X146558000Y-122456636D01*
X146092671Y-122549196D01*
X145698184Y-122812784D01*
X145434596Y-123207272D01*
X145365400Y-123555143D01*
X145210600Y-123555143D01*
X145210600Y-123555142D01*
X145141404Y-123207271D01*
X144877816Y-122812784D01*
X144483328Y-122549196D01*
X144018000Y-122456636D01*
X143552671Y-122549196D01*
X143158184Y-122812784D01*
X142894596Y-123207272D01*
X142825400Y-123555143D01*
X142670600Y-123555143D01*
X142670600Y-123555142D01*
X142601404Y-123207271D01*
X142337816Y-122812784D01*
X141943328Y-122549196D01*
X141478000Y-122456636D01*
X141012671Y-122549196D01*
X140618184Y-122812784D01*
X140354596Y-123207272D01*
X140285400Y-123555143D01*
X140130600Y-123555143D01*
X140130600Y-123555142D01*
X140061404Y-123207271D01*
X139797816Y-122812784D01*
X139403328Y-122549196D01*
X138938000Y-122456636D01*
X138472671Y-122549196D01*
X138078184Y-122812784D01*
X137814596Y-123207272D01*
X137745400Y-123555143D01*
X127329000Y-123555143D01*
X127329000Y-123355368D01*
X126969559Y-122487601D01*
X126305399Y-121823441D01*
X125437632Y-121464000D01*
X124498368Y-121464000D01*
X123630601Y-121823441D01*
X122966441Y-122487601D01*
X122607000Y-123355368D01*
X122607000Y-124294632D01*
X122966441Y-125162399D01*
X123630601Y-125826559D01*
X123955170Y-125961000D01*
X111402000Y-125961000D01*
X111402000Y-121115000D01*
X155274091Y-121115000D01*
X155329195Y-121392028D01*
X155486119Y-121626881D01*
X155720972Y-121783805D01*
X155928074Y-121825000D01*
X161203910Y-121825000D01*
X161696508Y-122317599D01*
X161736119Y-122376881D01*
X161879846Y-122472916D01*
X161798000Y-122456636D01*
X161332671Y-122549196D01*
X160938184Y-122812784D01*
X160674596Y-123207272D01*
X160605400Y-123555143D01*
X160605400Y-124094858D01*
X160674596Y-124442729D01*
X160938185Y-124837216D01*
X161332672Y-125100804D01*
X161798000Y-125193364D01*
X162263329Y-125100804D01*
X162657816Y-124837216D01*
X162921404Y-124442728D01*
X162990600Y-124094857D01*
X162990600Y-123555142D01*
X162921404Y-123207271D01*
X162657816Y-122812784D01*
X162305611Y-122577448D01*
X162317920Y-122575000D01*
X163834053Y-122575000D01*
X163478184Y-122812784D01*
X163214596Y-123207272D01*
X163145400Y-123555143D01*
X163145400Y-124094858D01*
X163214596Y-124442729D01*
X163478185Y-124837216D01*
X163872672Y-125100804D01*
X164338000Y-125193364D01*
X164803329Y-125100804D01*
X165197816Y-124837216D01*
X165461404Y-124442728D01*
X165530600Y-124094857D01*
X165530600Y-123555142D01*
X165461404Y-123207271D01*
X165197816Y-122812784D01*
X164841946Y-122575000D01*
X166374053Y-122575000D01*
X166018184Y-122812784D01*
X165754596Y-123207272D01*
X165685400Y-123555143D01*
X165685400Y-124094858D01*
X165754596Y-124442729D01*
X166018185Y-124837216D01*
X166412672Y-125100804D01*
X166878000Y-125193364D01*
X167343329Y-125100804D01*
X167737816Y-124837216D01*
X168001404Y-124442728D01*
X168070600Y-124094857D01*
X168070600Y-123555143D01*
X168225400Y-123555143D01*
X168225400Y-124094858D01*
X168294596Y-124442729D01*
X168558185Y-124837216D01*
X168952672Y-125100804D01*
X169418000Y-125193364D01*
X169883329Y-125100804D01*
X170277816Y-124837216D01*
X170541404Y-124442728D01*
X170610600Y-124094857D01*
X170610600Y-123555142D01*
X170541404Y-123207271D01*
X170277816Y-122812784D01*
X169883328Y-122549196D01*
X169418000Y-122456636D01*
X168952671Y-122549196D01*
X168558184Y-122812784D01*
X168294596Y-123207272D01*
X168225400Y-123555143D01*
X168070600Y-123555143D01*
X168070600Y-123555142D01*
X168001404Y-123207271D01*
X167737816Y-122812784D01*
X167343328Y-122549196D01*
X167080297Y-122496876D01*
X167259881Y-122376881D01*
X167416805Y-122142028D01*
X167471909Y-121865000D01*
X167416805Y-121587972D01*
X167287999Y-121395200D01*
X169107561Y-121395200D01*
X170868657Y-123156296D01*
X170834596Y-123207272D01*
X170765400Y-123555143D01*
X170765400Y-124094858D01*
X170834596Y-124442729D01*
X171098185Y-124837216D01*
X171492672Y-125100804D01*
X171958000Y-125193364D01*
X172423329Y-125100804D01*
X172817816Y-124837216D01*
X173081404Y-124442728D01*
X173150600Y-124094857D01*
X173150600Y-123555142D01*
X173081404Y-123207271D01*
X172817816Y-122812784D01*
X172567008Y-122645200D01*
X172897561Y-122645200D01*
X173408657Y-123156296D01*
X173374596Y-123207272D01*
X173305400Y-123555143D01*
X173305400Y-124094858D01*
X173374596Y-124442729D01*
X173638185Y-124837216D01*
X174032672Y-125100804D01*
X174498000Y-125193364D01*
X174963329Y-125100804D01*
X175357816Y-124837216D01*
X175621404Y-124442728D01*
X175690600Y-124094857D01*
X175690600Y-123555142D01*
X175621404Y-123207271D01*
X175357816Y-122812784D01*
X174963328Y-122549196D01*
X174498000Y-122456636D01*
X174032671Y-122549196D01*
X173981696Y-122583257D01*
X173380140Y-121981701D01*
X173357533Y-121947867D01*
X173223501Y-121858310D01*
X173105307Y-121834800D01*
X173105306Y-121834800D01*
X173065400Y-121826862D01*
X173025494Y-121834800D01*
X171590839Y-121834800D01*
X171426239Y-121670200D01*
X171730080Y-121670200D01*
X171773345Y-121713465D01*
X171967775Y-121794000D01*
X172178225Y-121794000D01*
X172372655Y-121713465D01*
X172521465Y-121564655D01*
X172581092Y-121420700D01*
X183025000Y-121420700D01*
X183025000Y-121969300D01*
X183234940Y-122476141D01*
X183622859Y-122864060D01*
X184129700Y-123074000D01*
X184678300Y-123074000D01*
X185185141Y-122864060D01*
X185573060Y-122476141D01*
X185783000Y-121969300D01*
X185783000Y-121420700D01*
X185573060Y-120913859D01*
X185185141Y-120525940D01*
X184678300Y-120316000D01*
X184129700Y-120316000D01*
X183622859Y-120525940D01*
X183234940Y-120913859D01*
X183025000Y-121420700D01*
X172581092Y-121420700D01*
X172602000Y-121370225D01*
X172602000Y-121306400D01*
X172692775Y-121344000D01*
X172903225Y-121344000D01*
X173097655Y-121263465D01*
X173246465Y-121114655D01*
X173327000Y-120920225D01*
X173327000Y-120709775D01*
X173246465Y-120515345D01*
X173097655Y-120366535D01*
X172903225Y-120286000D01*
X172692775Y-120286000D01*
X172600030Y-120324416D01*
X172582291Y-120297867D01*
X172448259Y-120208310D01*
X172330065Y-120184800D01*
X172330064Y-120184800D01*
X172290158Y-120176862D01*
X172250252Y-120184800D01*
X171065840Y-120184800D01*
X170337740Y-119456701D01*
X170315133Y-119422867D01*
X170181101Y-119333310D01*
X170062907Y-119309800D01*
X170062906Y-119309800D01*
X170023000Y-119301862D01*
X169983094Y-119309800D01*
X165790839Y-119309800D01*
X164756407Y-118275368D01*
X174677000Y-118275368D01*
X174677000Y-119214632D01*
X175036441Y-120082399D01*
X175700601Y-120746559D01*
X176568368Y-121106000D01*
X177507632Y-121106000D01*
X178375399Y-120746559D01*
X179039559Y-120082399D01*
X179399000Y-119214632D01*
X179399000Y-118275368D01*
X179039559Y-117407601D01*
X178375399Y-116743441D01*
X177507632Y-116384000D01*
X176568368Y-116384000D01*
X175700601Y-116743441D01*
X175036441Y-117407601D01*
X174677000Y-118275368D01*
X164756407Y-118275368D01*
X164153200Y-117672161D01*
X164153200Y-116865000D01*
X172774091Y-116865000D01*
X172829196Y-117142028D01*
X172986120Y-117376880D01*
X173220972Y-117533804D01*
X173498000Y-117588909D01*
X173775028Y-117533804D01*
X173950600Y-117416490D01*
X175802091Y-115565000D01*
X183018555Y-115565000D01*
X183018555Y-117665000D01*
X183044089Y-117793369D01*
X183116805Y-117902195D01*
X183225631Y-117974911D01*
X183354000Y-118000445D01*
X185454000Y-118000445D01*
X185582369Y-117974911D01*
X185691195Y-117902195D01*
X185763911Y-117793369D01*
X185789445Y-117665000D01*
X185789445Y-115565000D01*
X185763911Y-115436631D01*
X185691195Y-115327805D01*
X185582369Y-115255089D01*
X185454000Y-115229555D01*
X183354000Y-115229555D01*
X183225631Y-115255089D01*
X183116805Y-115327805D01*
X183044089Y-115436631D01*
X183018555Y-115565000D01*
X175802091Y-115565000D01*
X176950604Y-114416488D01*
X177009880Y-114376881D01*
X177049488Y-114317604D01*
X177049491Y-114317601D01*
X177166805Y-114142028D01*
X177221909Y-113865000D01*
X177208000Y-113795074D01*
X177208000Y-112909090D01*
X177284291Y-112832800D01*
X177373000Y-112850445D01*
X178623000Y-112850445D01*
X178751369Y-112824911D01*
X178860195Y-112752195D01*
X178932911Y-112643369D01*
X178958445Y-112515000D01*
X178958445Y-111515000D01*
X178932911Y-111386631D01*
X178860195Y-111277805D01*
X178751369Y-111205089D01*
X178623000Y-111179555D01*
X177373000Y-111179555D01*
X177244631Y-111205089D01*
X177208000Y-111229565D01*
X177208000Y-107802700D01*
X183025000Y-107802700D01*
X183025000Y-108351300D01*
X183234940Y-108858141D01*
X183622859Y-109246060D01*
X184129700Y-109456000D01*
X184678300Y-109456000D01*
X185185141Y-109246060D01*
X185573060Y-108858141D01*
X185783000Y-108351300D01*
X185783000Y-107802700D01*
X185573060Y-107295859D01*
X185185141Y-106907940D01*
X184678300Y-106698000D01*
X184129700Y-106698000D01*
X183622859Y-106907940D01*
X183234940Y-107295859D01*
X183025000Y-107802700D01*
X177208000Y-107802700D01*
X177208000Y-106800435D01*
X177244631Y-106824911D01*
X177373000Y-106850445D01*
X178623000Y-106850445D01*
X178751369Y-106824911D01*
X178860195Y-106752195D01*
X178932911Y-106643369D01*
X178958445Y-106515000D01*
X178958445Y-105515000D01*
X178932911Y-105386631D01*
X178860195Y-105277805D01*
X178751369Y-105205089D01*
X178623000Y-105179555D01*
X177373000Y-105179555D01*
X177244631Y-105205089D01*
X177135805Y-105277805D01*
X177117634Y-105305000D01*
X176680920Y-105305000D01*
X176610999Y-105291092D01*
X176541079Y-105305000D01*
X176541074Y-105305000D01*
X176333972Y-105346195D01*
X176099119Y-105503119D01*
X176059506Y-105562404D01*
X176045402Y-105576508D01*
X175986119Y-105616120D01*
X175829195Y-105850973D01*
X175796637Y-106014655D01*
X175774091Y-106128000D01*
X175788000Y-106197924D01*
X175788000Y-106859189D01*
X175788001Y-106859194D01*
X175788000Y-112184925D01*
X175788001Y-112184930D01*
X175788001Y-112545072D01*
X175774091Y-112615000D01*
X175788001Y-112684928D01*
X175788000Y-113570908D01*
X172946510Y-116412400D01*
X172829196Y-116587972D01*
X172774091Y-116865000D01*
X164153200Y-116865000D01*
X164153200Y-115857920D01*
X164196465Y-115814655D01*
X164277000Y-115620225D01*
X164277000Y-115409775D01*
X164196465Y-115215345D01*
X164047655Y-115066535D01*
X163853225Y-114986000D01*
X163642775Y-114986000D01*
X163448345Y-115066535D01*
X163411268Y-115103612D01*
X163385923Y-115078267D01*
X163191493Y-114997732D01*
X162981043Y-114997732D01*
X162786613Y-115078267D01*
X162637803Y-115227077D01*
X162557268Y-115421507D01*
X162557268Y-115631957D01*
X162627804Y-115802247D01*
X162528225Y-115761000D01*
X162317775Y-115761000D01*
X162123345Y-115841535D01*
X161974535Y-115990345D01*
X161894000Y-116184775D01*
X161894000Y-116395225D01*
X161974535Y-116589655D01*
X162017800Y-116632920D01*
X162017801Y-118947079D01*
X161999535Y-118965345D01*
X161919000Y-119159775D01*
X161919000Y-119370225D01*
X161999535Y-119564655D01*
X162148345Y-119713465D01*
X162342775Y-119794000D01*
X162411043Y-119794000D01*
X162489898Y-119846689D01*
X162608092Y-119870199D01*
X162647998Y-119878137D01*
X162687904Y-119870199D01*
X162905160Y-119870199D01*
X164189960Y-121155000D01*
X162542091Y-121155000D01*
X162049494Y-120662404D01*
X162009881Y-120603119D01*
X161775028Y-120446195D01*
X161567926Y-120405000D01*
X161567924Y-120405000D01*
X161498000Y-120391091D01*
X161428076Y-120405000D01*
X155928074Y-120405000D01*
X155720972Y-120446195D01*
X155486119Y-120603119D01*
X155329195Y-120837972D01*
X155274091Y-121115000D01*
X111402000Y-121115000D01*
X111402000Y-106935750D01*
X119290000Y-106935750D01*
X119290000Y-107355966D01*
X119378756Y-107570243D01*
X119542757Y-107734244D01*
X119757034Y-107823000D01*
X120177250Y-107823000D01*
X120323000Y-107677250D01*
X120323000Y-106790000D01*
X121173000Y-106790000D01*
X121173000Y-107677250D01*
X121318750Y-107823000D01*
X121738966Y-107823000D01*
X121953243Y-107734244D01*
X122117244Y-107570243D01*
X122206000Y-107355966D01*
X122206000Y-106935750D01*
X122060250Y-106790000D01*
X121173000Y-106790000D01*
X120323000Y-106790000D01*
X119435750Y-106790000D01*
X119290000Y-106935750D01*
X111402000Y-106935750D01*
X111402000Y-105374034D01*
X119290000Y-105374034D01*
X119290000Y-105794250D01*
X119435750Y-105940000D01*
X120323000Y-105940000D01*
X120323000Y-105920000D01*
X121173000Y-105920000D01*
X121173000Y-105940000D01*
X122060250Y-105940000D01*
X122206000Y-105794250D01*
X122206000Y-105374034D01*
X122117244Y-105159757D01*
X121953243Y-104995756D01*
X121738966Y-104907000D01*
X121378593Y-104907000D01*
X121430011Y-104885702D01*
X121768702Y-104547011D01*
X121952000Y-104104491D01*
X121952000Y-103625509D01*
X121768702Y-103182989D01*
X121430011Y-102844298D01*
X120987491Y-102661000D01*
X120508509Y-102661000D01*
X120065989Y-102844298D01*
X119727298Y-103182989D01*
X119544000Y-103625509D01*
X119544000Y-104104491D01*
X119727298Y-104547011D01*
X120065989Y-104885702D01*
X120117407Y-104907000D01*
X119757034Y-104907000D01*
X119542757Y-104995756D01*
X119378756Y-105159757D01*
X119290000Y-105374034D01*
X111402000Y-105374034D01*
X111402000Y-94791306D01*
X137698011Y-94791306D01*
X137823011Y-101966306D01*
X137828522Y-101993245D01*
X137844619Y-102017683D01*
X137868844Y-102034101D01*
X137897507Y-102039998D01*
X141650863Y-102064691D01*
X142430514Y-103672721D01*
X142443957Y-103692004D01*
X142467972Y-103708726D01*
X142496558Y-103714986D01*
X145096558Y-103764986D01*
X145126936Y-103759193D01*
X145151212Y-103742853D01*
X145167388Y-103718466D01*
X145173000Y-103689746D01*
X145171654Y-103292744D01*
X146038001Y-104159092D01*
X146038000Y-113184925D01*
X146079195Y-113392027D01*
X146236119Y-113626880D01*
X146470972Y-113783805D01*
X146748000Y-113838909D01*
X147025027Y-113783805D01*
X147259880Y-113626881D01*
X147416805Y-113392028D01*
X147458000Y-113184926D01*
X147458000Y-103934920D01*
X147471908Y-103864999D01*
X147458000Y-103795078D01*
X147458000Y-103795074D01*
X147416805Y-103587972D01*
X147259881Y-103353119D01*
X147200599Y-103313508D01*
X146071000Y-102183910D01*
X146071000Y-101855757D01*
X161442242Y-101855757D01*
X161442242Y-102066207D01*
X161522777Y-102260637D01*
X161566042Y-102303902D01*
X161566043Y-103821192D01*
X161558104Y-103861103D01*
X161589553Y-104019204D01*
X161592789Y-104024047D01*
X161592789Y-104116875D01*
X161673324Y-104311305D01*
X161822134Y-104460115D01*
X162016564Y-104540650D01*
X162100482Y-104540650D01*
X162098345Y-104541535D01*
X161949535Y-104690345D01*
X161869000Y-104884775D01*
X161869000Y-105095225D01*
X161949535Y-105289655D01*
X162098345Y-105438465D01*
X162292775Y-105519000D01*
X162503225Y-105519000D01*
X162697655Y-105438465D01*
X162719001Y-105417119D01*
X162719001Y-108574736D01*
X162706337Y-108638403D01*
X162719001Y-108702070D01*
X162719001Y-108702073D01*
X162756512Y-108890654D01*
X162899401Y-109104503D01*
X162953381Y-109140572D01*
X163051501Y-109238691D01*
X163051500Y-110902065D01*
X163051500Y-110902069D01*
X163038836Y-110965736D01*
X163051500Y-111029403D01*
X163051500Y-111453670D01*
X163089011Y-111642251D01*
X163231900Y-111856100D01*
X163445748Y-111998989D01*
X163698000Y-112049165D01*
X163950251Y-111998989D01*
X164164100Y-111856100D01*
X164306989Y-111642252D01*
X164344500Y-111453671D01*
X164344500Y-111223923D01*
X164431989Y-111092986D01*
X164482165Y-110840736D01*
X164431989Y-110588485D01*
X164344500Y-110457548D01*
X164344500Y-109157300D01*
X164433102Y-109194000D01*
X164762898Y-109194000D01*
X165067591Y-109067792D01*
X165300792Y-108834591D01*
X165427000Y-108529898D01*
X165427000Y-108200102D01*
X165669000Y-108200102D01*
X165669000Y-108529898D01*
X165795208Y-108834591D01*
X166028409Y-109067792D01*
X166333102Y-109194000D01*
X166662898Y-109194000D01*
X166967591Y-109067792D01*
X167200792Y-108834591D01*
X167327000Y-108529898D01*
X167327000Y-108200102D01*
X167200792Y-107895409D01*
X166967591Y-107662208D01*
X166720296Y-107559775D01*
X169594000Y-107559775D01*
X169594000Y-107770225D01*
X169674535Y-107964655D01*
X169823345Y-108113465D01*
X170017775Y-108194000D01*
X170228225Y-108194000D01*
X170422655Y-108113465D01*
X170465920Y-108070200D01*
X171005080Y-108070200D01*
X171023345Y-108088465D01*
X171217775Y-108169000D01*
X171428225Y-108169000D01*
X171622655Y-108088465D01*
X171665920Y-108045200D01*
X173133094Y-108045200D01*
X173173000Y-108053138D01*
X173212906Y-108045200D01*
X173212907Y-108045200D01*
X173331101Y-108021690D01*
X173465133Y-107932133D01*
X173487740Y-107898299D01*
X174455632Y-106930407D01*
X174489466Y-106907800D01*
X174563631Y-106796804D01*
X174579023Y-106773769D01*
X174610471Y-106615667D01*
X174602533Y-106575760D01*
X174602533Y-106227331D01*
X174642775Y-106244000D01*
X174853225Y-106244000D01*
X175047655Y-106163465D01*
X175196465Y-106014655D01*
X175277000Y-105820225D01*
X175277000Y-105609775D01*
X175196465Y-105415345D01*
X175153200Y-105372080D01*
X175153200Y-104007920D01*
X175171465Y-103989655D01*
X175252000Y-103795225D01*
X175252000Y-103584775D01*
X175171465Y-103390345D01*
X175022655Y-103241535D01*
X174828225Y-103161000D01*
X174617775Y-103161000D01*
X174423345Y-103241535D01*
X174274535Y-103390345D01*
X174194000Y-103584775D01*
X174194000Y-103795225D01*
X174230134Y-103882461D01*
X174092108Y-103882461D01*
X173897678Y-103962996D01*
X173877491Y-103983183D01*
X173703225Y-103911000D01*
X173492775Y-103911000D01*
X173298345Y-103991535D01*
X173149535Y-104140345D01*
X173069000Y-104334775D01*
X173069000Y-104545225D01*
X173149535Y-104739655D01*
X173217801Y-104807921D01*
X173217800Y-105372080D01*
X173174535Y-105415345D01*
X173094000Y-105609775D01*
X173094000Y-105820225D01*
X173174535Y-106014655D01*
X173323345Y-106163465D01*
X173517775Y-106244000D01*
X173728225Y-106244000D01*
X173792133Y-106217529D01*
X173792133Y-106447828D01*
X173005161Y-107234800D01*
X171665920Y-107234800D01*
X171622655Y-107191535D01*
X171428225Y-107111000D01*
X171217775Y-107111000D01*
X171023345Y-107191535D01*
X170955080Y-107259800D01*
X170465920Y-107259800D01*
X170422655Y-107216535D01*
X170228225Y-107136000D01*
X170017775Y-107136000D01*
X169823345Y-107216535D01*
X169674535Y-107365345D01*
X169594000Y-107559775D01*
X166720296Y-107559775D01*
X166662898Y-107536000D01*
X166333102Y-107536000D01*
X166028409Y-107662208D01*
X165795208Y-107895409D01*
X165669000Y-108200102D01*
X165427000Y-108200102D01*
X165300792Y-107895409D01*
X165067591Y-107662208D01*
X164762898Y-107536000D01*
X164433102Y-107536000D01*
X164128409Y-107662208D01*
X164012001Y-107778616D01*
X164012001Y-104009775D01*
X168169000Y-104009775D01*
X168169000Y-104220225D01*
X168249535Y-104414655D01*
X168398345Y-104563465D01*
X168592775Y-104644000D01*
X168645210Y-104644000D01*
X168645210Y-104698801D01*
X168725745Y-104893231D01*
X168874555Y-105042041D01*
X169068985Y-105122576D01*
X169279435Y-105122576D01*
X169473865Y-105042041D01*
X169622675Y-104893231D01*
X169661471Y-104799568D01*
X171142039Y-103319000D01*
X171203225Y-103319000D01*
X171397655Y-103238465D01*
X171546465Y-103089655D01*
X171627000Y-102895225D01*
X171627000Y-102684775D01*
X171546465Y-102490345D01*
X171397655Y-102341535D01*
X171203225Y-102261000D01*
X171152000Y-102261000D01*
X171152000Y-102184775D01*
X171071465Y-101990345D01*
X170922655Y-101841535D01*
X170728225Y-101761000D01*
X170517775Y-101761000D01*
X170323345Y-101841535D01*
X170174535Y-101990345D01*
X170094000Y-102184775D01*
X170094000Y-102245961D01*
X168753961Y-103586000D01*
X168592775Y-103586000D01*
X168398345Y-103666535D01*
X168249535Y-103815345D01*
X168169000Y-104009775D01*
X164012001Y-104009775D01*
X164012001Y-101707240D01*
X164024666Y-101643569D01*
X163988598Y-101462243D01*
X163988598Y-101132232D01*
X163958318Y-100980000D01*
X173420903Y-100980000D01*
X173512407Y-101440023D01*
X173772989Y-101830011D01*
X174162977Y-102090593D01*
X174506883Y-102159000D01*
X174739117Y-102159000D01*
X175083023Y-102090593D01*
X175473011Y-101830011D01*
X175733593Y-101440023D01*
X175825097Y-100980000D01*
X175960903Y-100980000D01*
X176052407Y-101440023D01*
X176312989Y-101830011D01*
X176702977Y-102090593D01*
X177046883Y-102159000D01*
X177279117Y-102159000D01*
X177623023Y-102090593D01*
X177837924Y-101947000D01*
X183018555Y-101947000D01*
X183018555Y-104047000D01*
X183044089Y-104175369D01*
X183116805Y-104284195D01*
X183225631Y-104356911D01*
X183354000Y-104382445D01*
X185454000Y-104382445D01*
X185582369Y-104356911D01*
X185691195Y-104284195D01*
X185763911Y-104175369D01*
X185789445Y-104047000D01*
X185789445Y-101947000D01*
X185763911Y-101818631D01*
X185691195Y-101709805D01*
X185582369Y-101637089D01*
X185454000Y-101611555D01*
X183354000Y-101611555D01*
X183225631Y-101637089D01*
X183116805Y-101709805D01*
X183044089Y-101818631D01*
X183018555Y-101947000D01*
X177837924Y-101947000D01*
X178013011Y-101830011D01*
X178273593Y-101440023D01*
X178365097Y-100980000D01*
X178273593Y-100519977D01*
X178013011Y-100129989D01*
X177623023Y-99869407D01*
X177279117Y-99801000D01*
X177046883Y-99801000D01*
X176702977Y-99869407D01*
X176312989Y-100129989D01*
X176052407Y-100519977D01*
X175960903Y-100980000D01*
X175825097Y-100980000D01*
X175733593Y-100519977D01*
X175473011Y-100129989D01*
X175083023Y-99869407D01*
X174739117Y-99801000D01*
X174506883Y-99801000D01*
X174162977Y-99869407D01*
X173772989Y-100129989D01*
X173512407Y-100519977D01*
X173420903Y-100980000D01*
X163958318Y-100980000D01*
X163951087Y-100943650D01*
X163808198Y-100729802D01*
X163594350Y-100586913D01*
X163342098Y-100536737D01*
X163089847Y-100586913D01*
X162875999Y-100729802D01*
X162733109Y-100943650D01*
X162695598Y-101132231D01*
X162695598Y-101556499D01*
X162682934Y-101620166D01*
X162695598Y-101683833D01*
X162695598Y-101683836D01*
X162719002Y-101801496D01*
X162719002Y-101819311D01*
X162578225Y-101761000D01*
X162460993Y-101761000D01*
X162419707Y-101661327D01*
X162270897Y-101512517D01*
X162076467Y-101431982D01*
X161866017Y-101431982D01*
X161671587Y-101512517D01*
X161522777Y-101661327D01*
X161442242Y-101855757D01*
X146071000Y-101855757D01*
X146071000Y-100321090D01*
X146791646Y-99600445D01*
X147373000Y-99600445D01*
X147501369Y-99574911D01*
X147610195Y-99502195D01*
X147682911Y-99393369D01*
X147708445Y-99265000D01*
X147708445Y-98265000D01*
X147682911Y-98136631D01*
X147610195Y-98027805D01*
X147501369Y-97955089D01*
X147458000Y-97946462D01*
X147458000Y-97545074D01*
X147416805Y-97337972D01*
X147259881Y-97103119D01*
X147025028Y-96946195D01*
X146748000Y-96891091D01*
X146470973Y-96946195D01*
X146236120Y-97103119D01*
X146079196Y-97337972D01*
X146038001Y-97545074D01*
X146038001Y-97946462D01*
X145994631Y-97955089D01*
X145885805Y-98027805D01*
X145813089Y-98136631D01*
X145787555Y-98265000D01*
X145787555Y-98596354D01*
X145157869Y-99226041D01*
X145148000Y-96314746D01*
X145147990Y-96313771D01*
X145122990Y-94788771D01*
X145117291Y-94761299D01*
X145101033Y-94736967D01*
X145076701Y-94720709D01*
X145048000Y-94715000D01*
X137773000Y-94715000D01*
X137743096Y-94721219D01*
X137719051Y-94737899D01*
X137703220Y-94762510D01*
X137698011Y-94791306D01*
X111402000Y-94791306D01*
X111402000Y-94325000D01*
X147792555Y-94325000D01*
X147792555Y-99405000D01*
X147818089Y-99533369D01*
X147890805Y-99642195D01*
X147999631Y-99714911D01*
X148128000Y-99740445D01*
X149398000Y-99740445D01*
X149526369Y-99714911D01*
X149635195Y-99642195D01*
X149707911Y-99533369D01*
X149733445Y-99405000D01*
X149733445Y-96493844D01*
X150040789Y-96186500D01*
X150615772Y-96186500D01*
X150544000Y-96359775D01*
X150544000Y-96570225D01*
X150624535Y-96764655D01*
X150773345Y-96913465D01*
X150967775Y-96994000D01*
X151028961Y-96994000D01*
X151133502Y-97098541D01*
X151103225Y-97086000D01*
X150892775Y-97086000D01*
X150698345Y-97166535D01*
X150549535Y-97315345D01*
X150469000Y-97509775D01*
X150469000Y-97720225D01*
X150549535Y-97914655D01*
X150698345Y-98063465D01*
X150892775Y-98144000D01*
X151103225Y-98144000D01*
X151297655Y-98063465D01*
X151415920Y-97945200D01*
X151494760Y-97945200D01*
X150789699Y-98650262D01*
X150755868Y-98672867D01*
X150733263Y-98706698D01*
X150733262Y-98706699D01*
X150666311Y-98806899D01*
X150634862Y-98965000D01*
X150642801Y-99004911D01*
X150642800Y-99422080D01*
X150599535Y-99465345D01*
X150519000Y-99659775D01*
X150519000Y-99870225D01*
X150599535Y-100064655D01*
X150748345Y-100213465D01*
X150942775Y-100294000D01*
X151153225Y-100294000D01*
X151347655Y-100213465D01*
X151496465Y-100064655D01*
X151577000Y-99870225D01*
X151577000Y-99659775D01*
X151496465Y-99465345D01*
X151453200Y-99422080D01*
X151453200Y-99132839D01*
X152240840Y-98345200D01*
X152797320Y-98345200D01*
X152850416Y-98398296D01*
X152873025Y-98432133D01*
X152974798Y-98500135D01*
X153007056Y-98521690D01*
X153100072Y-98540192D01*
X153148345Y-98588465D01*
X153342775Y-98669000D01*
X153553225Y-98669000D01*
X153747655Y-98588465D01*
X153896465Y-98439655D01*
X153977000Y-98245225D01*
X153977000Y-98034775D01*
X153918230Y-97892890D01*
X153971465Y-97839655D01*
X154052000Y-97645225D01*
X154052000Y-97434775D01*
X153971465Y-97240345D01*
X153946120Y-97215000D01*
X153971465Y-97189655D01*
X154052000Y-96995225D01*
X154052000Y-96784775D01*
X153971465Y-96590345D01*
X153822655Y-96441535D01*
X153628225Y-96361000D01*
X153417775Y-96361000D01*
X153223345Y-96441535D01*
X153074535Y-96590345D01*
X153035411Y-96684800D01*
X151865839Y-96684800D01*
X151602000Y-96420961D01*
X151602000Y-96359775D01*
X151530228Y-96186500D01*
X156986671Y-96186500D01*
X157175252Y-96148989D01*
X157389100Y-96006100D01*
X157531989Y-95792252D01*
X157582165Y-95540000D01*
X162163835Y-95540000D01*
X162214011Y-95792252D01*
X162356900Y-96006100D01*
X162570748Y-96148989D01*
X162759329Y-96186500D01*
X169140212Y-96186500D01*
X169762555Y-96808844D01*
X169762555Y-99405000D01*
X169788089Y-99533369D01*
X169860805Y-99642195D01*
X169969631Y-99714911D01*
X170098000Y-99740445D01*
X171368000Y-99740445D01*
X171496369Y-99714911D01*
X171605195Y-99642195D01*
X171677911Y-99533369D01*
X171703445Y-99405000D01*
X171703445Y-98440000D01*
X173420903Y-98440000D01*
X173512407Y-98900023D01*
X173772989Y-99290011D01*
X174162977Y-99550593D01*
X174506883Y-99619000D01*
X174739117Y-99619000D01*
X175083023Y-99550593D01*
X175473011Y-99290011D01*
X175733593Y-98900023D01*
X175825097Y-98440000D01*
X175960903Y-98440000D01*
X176052407Y-98900023D01*
X176312989Y-99290011D01*
X176702977Y-99550593D01*
X177046883Y-99619000D01*
X177279117Y-99619000D01*
X177623023Y-99550593D01*
X178013011Y-99290011D01*
X178273593Y-98900023D01*
X178365097Y-98440000D01*
X178273593Y-97979977D01*
X178013011Y-97589989D01*
X177623023Y-97329407D01*
X177279117Y-97261000D01*
X177046883Y-97261000D01*
X176702977Y-97329407D01*
X176312989Y-97589989D01*
X176052407Y-97979977D01*
X175960903Y-98440000D01*
X175825097Y-98440000D01*
X175733593Y-97979977D01*
X175473011Y-97589989D01*
X175083023Y-97329407D01*
X174739117Y-97261000D01*
X174506883Y-97261000D01*
X174162977Y-97329407D01*
X173772989Y-97589989D01*
X173512407Y-97979977D01*
X173420903Y-98440000D01*
X171703445Y-98440000D01*
X171703445Y-95050000D01*
X173437555Y-95050000D01*
X173437555Y-96750000D01*
X173463089Y-96878369D01*
X173535805Y-96987195D01*
X173644631Y-97059911D01*
X173773000Y-97085445D01*
X175473000Y-97085445D01*
X175601369Y-97059911D01*
X175710195Y-96987195D01*
X175782911Y-96878369D01*
X175808445Y-96750000D01*
X175808445Y-95900000D01*
X175960903Y-95900000D01*
X176052407Y-96360023D01*
X176312989Y-96750011D01*
X176702977Y-97010593D01*
X177046883Y-97079000D01*
X177279117Y-97079000D01*
X177623023Y-97010593D01*
X178013011Y-96750011D01*
X178273593Y-96360023D01*
X178365097Y-95900000D01*
X178273593Y-95439977D01*
X178013011Y-95049989D01*
X177623023Y-94789407D01*
X177279117Y-94721000D01*
X177046883Y-94721000D01*
X176702977Y-94789407D01*
X176312989Y-95049989D01*
X176052407Y-95439977D01*
X175960903Y-95900000D01*
X175808445Y-95900000D01*
X175808445Y-95050000D01*
X175782911Y-94921631D01*
X175710195Y-94812805D01*
X175601369Y-94740089D01*
X175473000Y-94714555D01*
X173773000Y-94714555D01*
X173644631Y-94740089D01*
X173535805Y-94812805D01*
X173463089Y-94921631D01*
X173437555Y-95050000D01*
X171703445Y-95050000D01*
X171703445Y-94325000D01*
X171677911Y-94196631D01*
X171630389Y-94125509D01*
X184544000Y-94125509D01*
X184544000Y-94604491D01*
X184727298Y-95047011D01*
X185065989Y-95385702D01*
X185508509Y-95569000D01*
X185987491Y-95569000D01*
X186430011Y-95385702D01*
X186768702Y-95047011D01*
X186952000Y-94604491D01*
X186952000Y-94125509D01*
X186768702Y-93682989D01*
X186430011Y-93344298D01*
X185987491Y-93161000D01*
X185508509Y-93161000D01*
X185065989Y-93344298D01*
X184727298Y-93682989D01*
X184544000Y-94125509D01*
X171630389Y-94125509D01*
X171605195Y-94087805D01*
X171496369Y-94015089D01*
X171368000Y-93989555D01*
X170098000Y-93989555D01*
X169969631Y-94015089D01*
X169860805Y-94087805D01*
X169788089Y-94196631D01*
X169762555Y-94325000D01*
X169762555Y-94999368D01*
X169660252Y-94931011D01*
X169471671Y-94893500D01*
X169471667Y-94893500D01*
X169408000Y-94880836D01*
X169344333Y-94893500D01*
X162759329Y-94893500D01*
X162570748Y-94931011D01*
X162356900Y-95073900D01*
X162214011Y-95287748D01*
X162163835Y-95540000D01*
X157582165Y-95540000D01*
X157531989Y-95287748D01*
X157389100Y-95073900D01*
X157175252Y-94931011D01*
X156986671Y-94893500D01*
X149836671Y-94893500D01*
X149773000Y-94880835D01*
X149733445Y-94888703D01*
X149733445Y-94325000D01*
X149707911Y-94196631D01*
X149635195Y-94087805D01*
X149526369Y-94015089D01*
X149398000Y-93989555D01*
X148128000Y-93989555D01*
X147999631Y-94015089D01*
X147890805Y-94087805D01*
X147818089Y-94196631D01*
X147792555Y-94325000D01*
X111402000Y-94325000D01*
X111402000Y-73429000D01*
X125225170Y-73429000D01*
X124900601Y-73563441D01*
X124900601Y-73563441D01*
G37*
X124900601Y-73563441D02*
X124236441Y-74227601D01*
X123877000Y-75095368D01*
X123877000Y-76034632D01*
X124236441Y-76902399D01*
X124900601Y-77566559D01*
X125768368Y-77926000D01*
X126707632Y-77926000D01*
X127575399Y-77566559D01*
X128239559Y-76902399D01*
X128599000Y-76034632D01*
X128599000Y-75295143D01*
X128601400Y-75295143D01*
X128601400Y-75834858D01*
X128670596Y-76182729D01*
X128934185Y-76577216D01*
X129328672Y-76840804D01*
X129794000Y-76933364D01*
X130259329Y-76840804D01*
X130653816Y-76577216D01*
X130917404Y-76182728D01*
X130986600Y-75834857D01*
X130986600Y-75295143D01*
X131141400Y-75295143D01*
X131141400Y-75834858D01*
X131210596Y-76182729D01*
X131474185Y-76577216D01*
X131868672Y-76840804D01*
X132334000Y-76933364D01*
X132799329Y-76840804D01*
X133193816Y-76577216D01*
X133457404Y-76182728D01*
X133526600Y-75834857D01*
X133526600Y-75295143D01*
X133681400Y-75295143D01*
X133681400Y-75834858D01*
X133750596Y-76182729D01*
X134014185Y-76577216D01*
X134408672Y-76840804D01*
X134874000Y-76933364D01*
X135339329Y-76840804D01*
X135733816Y-76577216D01*
X135997404Y-76182728D01*
X136035740Y-75990002D01*
X136153741Y-75990002D01*
X136067946Y-76206592D01*
X136357614Y-76684467D01*
X136777921Y-77016651D01*
X136989000Y-76946866D01*
X136989000Y-75990000D01*
X136969000Y-75990000D01*
X136969000Y-75140000D01*
X136989000Y-75140000D01*
X136989000Y-74183134D01*
X137839000Y-74183134D01*
X137839000Y-75140000D01*
X137859000Y-75140000D01*
X137859000Y-75990000D01*
X137839000Y-75990000D01*
X137839000Y-76946866D01*
X138050079Y-77016651D01*
X138470386Y-76684467D01*
X138760054Y-76206592D01*
X138674259Y-75990002D01*
X138792260Y-75990002D01*
X138830596Y-76182729D01*
X139094185Y-76577216D01*
X139488672Y-76840804D01*
X139954000Y-76933364D01*
X140419329Y-76840804D01*
X140813816Y-76577216D01*
X141077404Y-76182728D01*
X141146600Y-75834857D01*
X141146600Y-75295143D01*
X141301400Y-75295143D01*
X141301400Y-75834858D01*
X141370596Y-76182729D01*
X141634185Y-76577216D01*
X142028672Y-76840804D01*
X142088800Y-76852764D01*
X142088801Y-84891259D01*
X142019000Y-85059775D01*
X142019000Y-85270225D01*
X142099535Y-85464655D01*
X142248345Y-85613465D01*
X142442775Y-85694000D01*
X142653225Y-85694000D01*
X142847655Y-85613465D01*
X142996465Y-85464655D01*
X143077000Y-85270225D01*
X143077000Y-85059775D01*
X142996465Y-84865345D01*
X142899200Y-84768080D01*
X142899200Y-81615000D01*
X148774091Y-81615000D01*
X148788000Y-81684924D01*
X148788001Y-87684926D01*
X148829196Y-87892028D01*
X148986120Y-88126881D01*
X149220973Y-88283805D01*
X149498000Y-88338909D01*
X149775028Y-88283805D01*
X150009881Y-88126881D01*
X150166805Y-87892028D01*
X150208000Y-87684926D01*
X150208000Y-85259775D01*
X161719000Y-85259775D01*
X161719000Y-85470225D01*
X161799535Y-85664655D01*
X161842800Y-85707920D01*
X161842801Y-91993458D01*
X161799535Y-92036724D01*
X161719000Y-92231154D01*
X161719000Y-92441604D01*
X161799535Y-92636034D01*
X161948345Y-92784844D01*
X162142775Y-92865379D01*
X162353225Y-92865379D01*
X162547655Y-92784844D01*
X162696465Y-92636034D01*
X162777000Y-92441604D01*
X162777000Y-92231154D01*
X162696465Y-92036724D01*
X162653200Y-91993459D01*
X162653200Y-90335368D01*
X174677000Y-90335368D01*
X174677000Y-91274632D01*
X175036441Y-92142399D01*
X175700601Y-92806559D01*
X176568368Y-93166000D01*
X177507632Y-93166000D01*
X178375399Y-92806559D01*
X179039559Y-92142399D01*
X179253661Y-91625509D01*
X184544000Y-91625509D01*
X184544000Y-92104491D01*
X184727298Y-92547011D01*
X185065989Y-92885702D01*
X185508509Y-93069000D01*
X185987491Y-93069000D01*
X186430011Y-92885702D01*
X186768702Y-92547011D01*
X186952000Y-92104491D01*
X186952000Y-91625509D01*
X186768702Y-91182989D01*
X186430011Y-90844298D01*
X185987491Y-90661000D01*
X185508509Y-90661000D01*
X185065989Y-90844298D01*
X184727298Y-91182989D01*
X184544000Y-91625509D01*
X179253661Y-91625509D01*
X179399000Y-91274632D01*
X179399000Y-90335368D01*
X179039559Y-89467601D01*
X178697467Y-89125509D01*
X184544000Y-89125509D01*
X184544000Y-89604491D01*
X184727298Y-90047011D01*
X185065989Y-90385702D01*
X185508509Y-90569000D01*
X185987491Y-90569000D01*
X186430011Y-90385702D01*
X186768702Y-90047011D01*
X186952000Y-89604491D01*
X186952000Y-89125509D01*
X186768702Y-88682989D01*
X186430011Y-88344298D01*
X185987491Y-88161000D01*
X185508509Y-88161000D01*
X185065989Y-88344298D01*
X184727298Y-88682989D01*
X184544000Y-89125509D01*
X178697467Y-89125509D01*
X178375399Y-88803441D01*
X177507632Y-88444000D01*
X176568368Y-88444000D01*
X175700601Y-88803441D01*
X175036441Y-89467601D01*
X174677000Y-90335368D01*
X162653200Y-90335368D01*
X162653200Y-85707920D01*
X162696465Y-85664655D01*
X162777000Y-85470225D01*
X162777000Y-85384775D01*
X165244000Y-85384775D01*
X165244000Y-85595225D01*
X165324535Y-85789655D01*
X165367801Y-85832921D01*
X165367800Y-87350094D01*
X165359862Y-87390000D01*
X165367800Y-87429906D01*
X165391310Y-87548100D01*
X165480867Y-87682133D01*
X165514701Y-87704740D01*
X165944000Y-88134039D01*
X165944000Y-88195225D01*
X166024535Y-88389655D01*
X166173345Y-88538465D01*
X166367775Y-88619000D01*
X166578225Y-88619000D01*
X166772655Y-88538465D01*
X166810500Y-88500620D01*
X166923345Y-88613465D01*
X167117775Y-88694000D01*
X167328225Y-88694000D01*
X167522655Y-88613465D01*
X167671465Y-88464655D01*
X167752000Y-88270225D01*
X167752000Y-88059775D01*
X167671465Y-87865345D01*
X167522655Y-87716535D01*
X167328225Y-87636000D01*
X167267039Y-87636000D01*
X166853200Y-87222161D01*
X166853200Y-86625509D01*
X184544000Y-86625509D01*
X184544000Y-87104491D01*
X184727298Y-87547011D01*
X185065989Y-87885702D01*
X185508509Y-88069000D01*
X185987491Y-88069000D01*
X186430011Y-87885702D01*
X186768702Y-87547011D01*
X186952000Y-87104491D01*
X186952000Y-86625509D01*
X186768702Y-86182989D01*
X186430011Y-85844298D01*
X185987491Y-85661000D01*
X185508509Y-85661000D01*
X185065989Y-85844298D01*
X184727298Y-86182989D01*
X184544000Y-86625509D01*
X166853200Y-86625509D01*
X166853200Y-85882920D01*
X166946465Y-85789655D01*
X166998888Y-85663093D01*
X166999535Y-85664655D01*
X167148345Y-85813465D01*
X167342775Y-85894000D01*
X167369000Y-85894000D01*
X167369000Y-85945225D01*
X167449535Y-86139655D01*
X167598345Y-86288465D01*
X167792775Y-86369000D01*
X168003225Y-86369000D01*
X168197655Y-86288465D01*
X168245928Y-86240192D01*
X168338943Y-86221690D01*
X168472975Y-86132133D01*
X168495582Y-86098299D01*
X168573681Y-86020200D01*
X172122596Y-86020200D01*
X172186200Y-86083804D01*
X172186200Y-86144990D01*
X172266735Y-86339420D01*
X172415545Y-86488230D01*
X172609975Y-86568765D01*
X172820425Y-86568765D01*
X173014855Y-86488230D01*
X173163665Y-86339420D01*
X173244200Y-86144990D01*
X173244200Y-85934540D01*
X173163665Y-85740110D01*
X173141307Y-85717752D01*
X173178384Y-85680675D01*
X173258919Y-85486245D01*
X173258919Y-85275795D01*
X173178384Y-85081365D01*
X173029574Y-84932555D01*
X172835144Y-84852020D01*
X172774832Y-84852020D01*
X172672001Y-84783311D01*
X172553807Y-84759801D01*
X172553806Y-84759801D01*
X172513900Y-84751863D01*
X172473994Y-84759801D01*
X167687904Y-84759801D01*
X167647998Y-84751863D01*
X167608092Y-84759801D01*
X167489898Y-84783311D01*
X167411043Y-84836000D01*
X167342775Y-84836000D01*
X167148345Y-84916535D01*
X166999535Y-85065345D01*
X166947112Y-85191907D01*
X166946465Y-85190345D01*
X166797655Y-85041535D01*
X166603225Y-84961000D01*
X166392775Y-84961000D01*
X166198345Y-85041535D01*
X166135500Y-85104380D01*
X166072655Y-85041535D01*
X165878225Y-84961000D01*
X165667775Y-84961000D01*
X165473345Y-85041535D01*
X165324535Y-85190345D01*
X165244000Y-85384775D01*
X162777000Y-85384775D01*
X162777000Y-85259775D01*
X162696465Y-85065345D01*
X162547655Y-84916535D01*
X162353225Y-84836000D01*
X162142775Y-84836000D01*
X161948345Y-84916535D01*
X161799535Y-85065345D01*
X161719000Y-85259775D01*
X150208000Y-85259775D01*
X150208000Y-81935750D01*
X153040000Y-81935750D01*
X153040000Y-82355966D01*
X153128756Y-82570243D01*
X153292757Y-82734244D01*
X153507034Y-82823000D01*
X153927250Y-82823000D01*
X154073000Y-82677250D01*
X154073000Y-81790000D01*
X153185750Y-81790000D01*
X153040000Y-81935750D01*
X150208000Y-81935750D01*
X150208000Y-81909090D01*
X151792091Y-80325000D01*
X151951455Y-80325000D01*
X151986120Y-80376880D01*
X152220972Y-80533804D01*
X152498000Y-80588909D01*
X152775028Y-80533804D01*
X152950600Y-80416490D01*
X153042090Y-80325000D01*
X153060310Y-80325000D01*
X153040000Y-80374034D01*
X153040000Y-80794250D01*
X153185750Y-80940000D01*
X154073000Y-80940000D01*
X154073000Y-80920000D01*
X154923000Y-80920000D01*
X154923000Y-80940000D01*
X154943000Y-80940000D01*
X154943000Y-81790000D01*
X154923000Y-81790000D01*
X154923000Y-82677250D01*
X155068750Y-82823000D01*
X155488966Y-82823000D01*
X155703243Y-82734244D01*
X155867244Y-82570243D01*
X155956000Y-82355966D01*
X155956000Y-81995593D01*
X155977298Y-82047011D01*
X156315989Y-82385702D01*
X156758509Y-82569000D01*
X157237491Y-82569000D01*
X157680011Y-82385702D01*
X158018702Y-82047011D01*
X158202000Y-81604491D01*
X158202000Y-81125509D01*
X158164935Y-81036026D01*
X158294000Y-81165091D01*
X158294000Y-81604491D01*
X158477298Y-82047011D01*
X158815989Y-82385702D01*
X159258509Y-82569000D01*
X159737491Y-82569000D01*
X160180011Y-82385702D01*
X160518702Y-82047011D01*
X160702000Y-81604491D01*
X160702000Y-81125509D01*
X160518702Y-80682989D01*
X160180011Y-80344298D01*
X159737491Y-80161000D01*
X159298091Y-80161000D01*
X158299494Y-79162404D01*
X158259881Y-79103119D01*
X158025028Y-78946195D01*
X157817926Y-78905000D01*
X157817924Y-78905000D01*
X157748000Y-78891091D01*
X157678076Y-78905000D01*
X152817920Y-78905000D01*
X152747999Y-78891092D01*
X152678079Y-78905000D01*
X151567920Y-78905000D01*
X151497999Y-78891092D01*
X151428078Y-78905000D01*
X151428074Y-78905000D01*
X151220972Y-78946195D01*
X150986119Y-79103119D01*
X150946508Y-79162401D01*
X149045402Y-81063508D01*
X148986119Y-81103120D01*
X148829195Y-81337973D01*
X148805229Y-81458460D01*
X148774091Y-81615000D01*
X142899200Y-81615000D01*
X142899200Y-76852764D01*
X142959329Y-76840804D01*
X143353816Y-76577216D01*
X143617404Y-76182728D01*
X143686600Y-75834857D01*
X143686600Y-75295143D01*
X143841400Y-75295143D01*
X143841400Y-75834858D01*
X143910596Y-76182729D01*
X144174185Y-76577216D01*
X144568672Y-76840804D01*
X145034000Y-76933364D01*
X145499329Y-76840804D01*
X145893816Y-76577216D01*
X146157404Y-76182728D01*
X146226600Y-75834857D01*
X146226600Y-75295143D01*
X146381400Y-75295143D01*
X146381400Y-75834858D01*
X146450596Y-76182729D01*
X146714185Y-76577216D01*
X146926904Y-76719350D01*
X146873345Y-76741535D01*
X146724535Y-76890345D01*
X146644000Y-77084775D01*
X146644000Y-77295225D01*
X146724535Y-77489655D01*
X146873345Y-77638465D01*
X147067775Y-77719000D01*
X147278225Y-77719000D01*
X147438031Y-77652806D01*
X148399194Y-78613969D01*
X148399194Y-78675155D01*
X148479729Y-78869585D01*
X148628539Y-79018395D01*
X148822969Y-79098930D01*
X149033419Y-79098930D01*
X149227849Y-79018395D01*
X149290562Y-78955682D01*
X149298345Y-78963465D01*
X149492775Y-79044000D01*
X149703225Y-79044000D01*
X149897655Y-78963465D01*
X150046465Y-78814655D01*
X150127000Y-78620225D01*
X150127000Y-78409775D01*
X150046465Y-78215345D01*
X149897655Y-78066535D01*
X149703225Y-77986000D01*
X149642040Y-77986000D01*
X148665815Y-77009775D01*
X154969000Y-77009775D01*
X154969000Y-77220225D01*
X155049535Y-77414655D01*
X155198345Y-77563465D01*
X155392775Y-77644000D01*
X155603225Y-77644000D01*
X155797655Y-77563465D01*
X155946465Y-77414655D01*
X155989907Y-77309775D01*
X159744000Y-77309775D01*
X159744000Y-77520225D01*
X159824535Y-77714655D01*
X159973345Y-77863465D01*
X160167775Y-77944000D01*
X160378225Y-77944000D01*
X160572655Y-77863465D01*
X160721465Y-77714655D01*
X160802000Y-77520225D01*
X160802000Y-77517789D01*
X162212183Y-77517789D01*
X162188326Y-77575385D01*
X162188326Y-77785835D01*
X162268861Y-77980265D01*
X162417671Y-78129075D01*
X162612101Y-78209610D01*
X162822551Y-78209610D01*
X163016981Y-78129075D01*
X163060246Y-78085810D01*
X164142933Y-78085810D01*
X164839123Y-78782000D01*
X164382034Y-78782000D01*
X164167757Y-78870756D01*
X164003756Y-79034757D01*
X163915000Y-79249034D01*
X163915000Y-79469250D01*
X164060750Y-79615000D01*
X164748000Y-79615000D01*
X164748000Y-79420000D01*
X165248000Y-79420000D01*
X165248000Y-79615000D01*
X165443000Y-79615000D01*
X165443000Y-80115000D01*
X165248000Y-80115000D01*
X165248000Y-80310000D01*
X165099758Y-80310000D01*
X165079649Y-80306000D01*
X164916351Y-80306000D01*
X164896242Y-80310000D01*
X164748000Y-80310000D01*
X164748000Y-80115000D01*
X164060750Y-80115000D01*
X163915000Y-80260750D01*
X163915000Y-80480966D01*
X164003756Y-80695243D01*
X164167757Y-80859244D01*
X164204576Y-80874495D01*
X164152759Y-81135000D01*
X164217099Y-81458460D01*
X164400324Y-81732676D01*
X164456183Y-81770000D01*
X164400324Y-81807324D01*
X164217099Y-82081540D01*
X164152759Y-82405000D01*
X164217099Y-82728460D01*
X164400324Y-83002676D01*
X164674540Y-83185901D01*
X164916351Y-83234000D01*
X165079649Y-83234000D01*
X165321460Y-83185901D01*
X165595676Y-83002676D01*
X165778901Y-82728460D01*
X165843241Y-82405000D01*
X165778901Y-82081540D01*
X165595676Y-81807324D01*
X165539817Y-81770000D01*
X165595676Y-81732676D01*
X165778901Y-81458460D01*
X165843241Y-81135000D01*
X165791424Y-80874495D01*
X165828243Y-80859244D01*
X165992244Y-80695243D01*
X166081000Y-80480966D01*
X166081000Y-80023877D01*
X166517801Y-80460678D01*
X166517800Y-81800094D01*
X166509862Y-81840000D01*
X166517800Y-81879906D01*
X166541310Y-81998100D01*
X166630867Y-82132133D01*
X166664701Y-82154740D01*
X167244000Y-82734039D01*
X167244000Y-82795225D01*
X167324535Y-82989655D01*
X167473345Y-83138465D01*
X167667775Y-83219000D01*
X167878225Y-83219000D01*
X168072655Y-83138465D01*
X168221465Y-82989655D01*
X168286582Y-82832448D01*
X168400324Y-83002676D01*
X168674540Y-83185901D01*
X168916351Y-83234000D01*
X169079649Y-83234000D01*
X169321460Y-83185901D01*
X169595676Y-83002676D01*
X169778901Y-82728460D01*
X169843241Y-82405000D01*
X169778901Y-82081540D01*
X169595676Y-81807324D01*
X169539817Y-81770000D01*
X169595676Y-81732676D01*
X169778901Y-81458460D01*
X169843241Y-81135000D01*
X169791424Y-80874495D01*
X169828243Y-80859244D01*
X169992244Y-80695243D01*
X170081000Y-80480966D01*
X170081000Y-80260750D01*
X171665000Y-80260750D01*
X171665000Y-80480966D01*
X171753756Y-80695243D01*
X171917757Y-80859244D01*
X171954576Y-80874495D01*
X171902759Y-81135000D01*
X171967099Y-81458460D01*
X172150324Y-81732676D01*
X172206183Y-81770000D01*
X172150324Y-81807324D01*
X171967099Y-82081540D01*
X171902759Y-82405000D01*
X171967099Y-82728460D01*
X172150324Y-83002676D01*
X172206183Y-83040000D01*
X172150324Y-83077324D01*
X171967099Y-83351540D01*
X171902759Y-83675000D01*
X171967099Y-83998460D01*
X172150324Y-84272676D01*
X172424540Y-84455901D01*
X172666351Y-84504000D01*
X172829649Y-84504000D01*
X173071460Y-84455901D01*
X173345676Y-84272676D01*
X173528901Y-83998460D01*
X173593241Y-83675000D01*
X173528901Y-83351540D01*
X173345676Y-83077324D01*
X173289817Y-83040000D01*
X173345676Y-83002676D01*
X173528901Y-82728460D01*
X173593241Y-82405000D01*
X173528901Y-82081540D01*
X173345676Y-81807324D01*
X173289817Y-81770000D01*
X173345676Y-81732676D01*
X173469897Y-81546765D01*
X175996332Y-81546765D01*
X175998530Y-81552140D01*
X176234243Y-81902868D01*
X176305053Y-81949907D01*
X176217099Y-82081540D01*
X176152759Y-82405000D01*
X176217099Y-82728460D01*
X176400324Y-83002676D01*
X176456183Y-83040000D01*
X176400324Y-83077324D01*
X176217099Y-83351540D01*
X176152759Y-83675000D01*
X176217099Y-83998460D01*
X176400324Y-84272676D01*
X176674540Y-84455901D01*
X176916351Y-84504000D01*
X177079649Y-84504000D01*
X177321460Y-84455901D01*
X177595676Y-84272676D01*
X177694009Y-84125509D01*
X184544000Y-84125509D01*
X184544000Y-84604491D01*
X184727298Y-85047011D01*
X185065989Y-85385702D01*
X185508509Y-85569000D01*
X185987491Y-85569000D01*
X186430011Y-85385702D01*
X186768702Y-85047011D01*
X186952000Y-84604491D01*
X186952000Y-84125509D01*
X186768702Y-83682989D01*
X186430011Y-83344298D01*
X185987491Y-83161000D01*
X185508509Y-83161000D01*
X185065989Y-83344298D01*
X184727298Y-83682989D01*
X184544000Y-84125509D01*
X177694009Y-84125509D01*
X177778901Y-83998460D01*
X177843241Y-83675000D01*
X177778901Y-83351540D01*
X177595676Y-83077324D01*
X177539817Y-83040000D01*
X177595676Y-83002676D01*
X177778901Y-82728460D01*
X177843241Y-82405000D01*
X177778901Y-82081540D01*
X177690947Y-81949907D01*
X177761757Y-81902868D01*
X177997470Y-81552140D01*
X177999668Y-81546765D01*
X177901293Y-81385000D01*
X177248000Y-81385000D01*
X177248000Y-81580000D01*
X177099758Y-81580000D01*
X177079649Y-81576000D01*
X176916351Y-81576000D01*
X176896242Y-81580000D01*
X176748000Y-81580000D01*
X176748000Y-81385000D01*
X176094707Y-81385000D01*
X175996332Y-81546765D01*
X173469897Y-81546765D01*
X173528901Y-81458460D01*
X173593241Y-81135000D01*
X173541424Y-80874495D01*
X173578243Y-80859244D01*
X173742244Y-80695243D01*
X173831000Y-80480966D01*
X173831000Y-80260750D01*
X173685250Y-80115000D01*
X172998000Y-80115000D01*
X172998000Y-80310000D01*
X172849758Y-80310000D01*
X172829649Y-80306000D01*
X172666351Y-80306000D01*
X172646242Y-80310000D01*
X172498000Y-80310000D01*
X172498000Y-80115000D01*
X171810750Y-80115000D01*
X171665000Y-80260750D01*
X170081000Y-80260750D01*
X169935250Y-80115000D01*
X169248000Y-80115000D01*
X169248000Y-80310000D01*
X169099758Y-80310000D01*
X169079649Y-80306000D01*
X168916351Y-80306000D01*
X168896242Y-80310000D01*
X168748000Y-80310000D01*
X168748000Y-80115000D01*
X168553000Y-80115000D01*
X168553000Y-79615000D01*
X168748000Y-79615000D01*
X168748000Y-79420000D01*
X169248000Y-79420000D01*
X169248000Y-79615000D01*
X169935250Y-79615000D01*
X170081000Y-79469250D01*
X170081000Y-79249034D01*
X169992244Y-79034757D01*
X169828243Y-78870756D01*
X169717778Y-78825000D01*
X172028222Y-78825000D01*
X171917757Y-78870756D01*
X171753756Y-79034757D01*
X171665000Y-79249034D01*
X171665000Y-79469250D01*
X171810750Y-79615000D01*
X172498000Y-79615000D01*
X172498000Y-79420000D01*
X172998000Y-79420000D01*
X172998000Y-79615000D01*
X173685250Y-79615000D01*
X173831000Y-79469250D01*
X173831000Y-79249034D01*
X173742244Y-79034757D01*
X173578243Y-78870756D01*
X173467778Y-78825000D01*
X175453910Y-78825000D01*
X176162555Y-79533646D01*
X176162555Y-80365000D01*
X176179254Y-80448953D01*
X175998530Y-80717860D01*
X175996332Y-80723235D01*
X176094707Y-80885000D01*
X176748000Y-80885000D01*
X176748000Y-80700445D01*
X177248000Y-80700445D01*
X177248000Y-80885000D01*
X177901293Y-80885000D01*
X177999668Y-80723235D01*
X177997470Y-80717860D01*
X177901458Y-80575000D01*
X178453910Y-80575000D01*
X179696508Y-81817599D01*
X179736119Y-81876881D01*
X179970972Y-82033805D01*
X180178074Y-82075000D01*
X180178078Y-82075000D01*
X180247999Y-82088908D01*
X180317920Y-82075000D01*
X181803076Y-82075000D01*
X181873000Y-82088909D01*
X181942924Y-82075000D01*
X181942926Y-82075000D01*
X182150028Y-82033805D01*
X182384881Y-81876881D01*
X182424494Y-81817596D01*
X182538000Y-81704090D01*
X182538000Y-81984633D01*
X182510805Y-82002805D01*
X182438089Y-82111631D01*
X182412555Y-82240000D01*
X182412555Y-83490000D01*
X182438089Y-83618369D01*
X182510805Y-83727195D01*
X182619631Y-83799911D01*
X182748000Y-83825445D01*
X183748000Y-83825445D01*
X183876369Y-83799911D01*
X183985195Y-83727195D01*
X184057911Y-83618369D01*
X184083445Y-83490000D01*
X184083445Y-82240000D01*
X184057911Y-82111631D01*
X183985195Y-82002805D01*
X183958000Y-81984634D01*
X183958000Y-81625509D01*
X184544000Y-81625509D01*
X184544000Y-82104491D01*
X184727298Y-82547011D01*
X185065989Y-82885702D01*
X185508509Y-83069000D01*
X185987491Y-83069000D01*
X186430011Y-82885702D01*
X186768702Y-82547011D01*
X186952000Y-82104491D01*
X186952000Y-81625509D01*
X186768702Y-81182989D01*
X186430011Y-80844298D01*
X185987491Y-80661000D01*
X185508509Y-80661000D01*
X185065989Y-80844298D01*
X184727298Y-81182989D01*
X184544000Y-81625509D01*
X183958000Y-81625509D01*
X183958000Y-80745366D01*
X183985195Y-80727195D01*
X184057911Y-80618369D01*
X184083445Y-80490000D01*
X184083445Y-80075000D01*
X184755287Y-80075000D01*
X185065989Y-80385702D01*
X185508509Y-80569000D01*
X185987491Y-80569000D01*
X186430011Y-80385702D01*
X186768702Y-80047011D01*
X186952000Y-79604491D01*
X186952000Y-79125509D01*
X186768702Y-78682989D01*
X186430011Y-78344298D01*
X186378593Y-78323000D01*
X186738966Y-78323000D01*
X186953243Y-78234244D01*
X187117244Y-78070243D01*
X187206000Y-77855966D01*
X187206000Y-77435750D01*
X187060250Y-77290000D01*
X186173000Y-77290000D01*
X186173000Y-77310000D01*
X185323000Y-77310000D01*
X185323000Y-77290000D01*
X184435750Y-77290000D01*
X184290000Y-77435750D01*
X184290000Y-77855966D01*
X184378756Y-78070243D01*
X184542757Y-78234244D01*
X184757034Y-78323000D01*
X185117407Y-78323000D01*
X185065989Y-78344298D01*
X184755287Y-78655000D01*
X183958000Y-78655000D01*
X183958000Y-77745366D01*
X183985195Y-77727195D01*
X184057911Y-77618369D01*
X184083445Y-77490000D01*
X184083445Y-76240000D01*
X184057911Y-76111631D01*
X183985195Y-76002805D01*
X183876369Y-75930089D01*
X183748000Y-75904555D01*
X182748000Y-75904555D01*
X182619631Y-75930089D01*
X182510805Y-76002805D01*
X182438089Y-76111631D01*
X182412555Y-76240000D01*
X182412555Y-77490000D01*
X182438089Y-77618369D01*
X182510805Y-77727195D01*
X182538000Y-77745367D01*
X182538001Y-78984633D01*
X182510805Y-79002805D01*
X182438089Y-79111631D01*
X182412555Y-79240000D01*
X182412555Y-79821354D01*
X181578910Y-80655000D01*
X180542091Y-80655000D01*
X179299494Y-79412404D01*
X179259881Y-79353119D01*
X179025028Y-79196195D01*
X178817926Y-79155000D01*
X178817924Y-79155000D01*
X178748000Y-79141091D01*
X178678076Y-79155000D01*
X177753366Y-79155000D01*
X177735195Y-79127805D01*
X177659726Y-79077378D01*
X177561310Y-78930089D01*
X177549490Y-78912399D01*
X177509880Y-78853119D01*
X177450600Y-78813509D01*
X176299494Y-77662404D01*
X176259881Y-77603119D01*
X176025028Y-77446195D01*
X175817926Y-77405000D01*
X175817924Y-77405000D01*
X175748000Y-77391091D01*
X175678076Y-77405000D01*
X174272951Y-77405000D01*
X174277000Y-77395225D01*
X174277000Y-77184775D01*
X174196465Y-76990345D01*
X174050463Y-76844343D01*
X174498000Y-76933364D01*
X174963329Y-76840804D01*
X175357816Y-76577216D01*
X175621404Y-76182728D01*
X175682807Y-75874034D01*
X184290000Y-75874034D01*
X184290000Y-76294250D01*
X184435750Y-76440000D01*
X185323000Y-76440000D01*
X185323000Y-75552750D01*
X186173000Y-75552750D01*
X186173000Y-76440000D01*
X187060250Y-76440000D01*
X187206000Y-76294250D01*
X187206000Y-75874034D01*
X187117244Y-75659757D01*
X186953243Y-75495756D01*
X186738966Y-75407000D01*
X186318750Y-75407000D01*
X186173000Y-75552750D01*
X185323000Y-75552750D01*
X185177250Y-75407000D01*
X184757034Y-75407000D01*
X184542757Y-75495756D01*
X184378756Y-75659757D01*
X184290000Y-75874034D01*
X175682807Y-75874034D01*
X175690600Y-75834857D01*
X175690600Y-75295142D01*
X175621404Y-74947271D01*
X175357816Y-74552784D01*
X174963328Y-74289196D01*
X174498000Y-74196636D01*
X174032671Y-74289196D01*
X173638184Y-74552784D01*
X173374596Y-74947272D01*
X173305400Y-75295143D01*
X173305400Y-75834858D01*
X173374596Y-76182729D01*
X173638185Y-76577216D01*
X174011114Y-76826399D01*
X173853225Y-76761000D01*
X173642775Y-76761000D01*
X173594596Y-76780956D01*
X173047343Y-76233704D01*
X173081404Y-76182728D01*
X173150600Y-75834857D01*
X173150600Y-75295142D01*
X173081404Y-74947271D01*
X172817816Y-74552784D01*
X172423328Y-74289196D01*
X171958000Y-74196636D01*
X171492671Y-74289196D01*
X171098184Y-74552784D01*
X170834596Y-74947272D01*
X170765400Y-75295143D01*
X170765400Y-75834858D01*
X170834596Y-76182729D01*
X171098185Y-76577216D01*
X171492672Y-76840804D01*
X171958000Y-76933364D01*
X172423329Y-76840804D01*
X172474304Y-76806744D01*
X173072560Y-77405000D01*
X166678074Y-77405000D01*
X166470972Y-77446195D01*
X166267200Y-77582351D01*
X166267200Y-76901239D01*
X166361696Y-76806743D01*
X166412672Y-76840804D01*
X166878000Y-76933364D01*
X167343329Y-76840804D01*
X167737816Y-76577216D01*
X168001404Y-76182728D01*
X168070600Y-75834857D01*
X168070600Y-75295143D01*
X168225400Y-75295143D01*
X168225400Y-75834858D01*
X168294596Y-76182729D01*
X168558185Y-76577216D01*
X168952672Y-76840804D01*
X169418000Y-76933364D01*
X169883329Y-76840804D01*
X170277816Y-76577216D01*
X170541404Y-76182728D01*
X170610600Y-75834857D01*
X170610600Y-75295142D01*
X170541404Y-74947271D01*
X170277816Y-74552784D01*
X169883328Y-74289196D01*
X169418000Y-74196636D01*
X168952671Y-74289196D01*
X168558184Y-74552784D01*
X168294596Y-74947272D01*
X168225400Y-75295143D01*
X168070600Y-75295143D01*
X168070600Y-75295142D01*
X168001404Y-74947271D01*
X167737816Y-74552784D01*
X167343328Y-74289196D01*
X166878000Y-74196636D01*
X166412671Y-74289196D01*
X166018184Y-74552784D01*
X165754596Y-74947272D01*
X165685400Y-75295143D01*
X165685400Y-75834858D01*
X165754596Y-76182729D01*
X165788657Y-76233704D01*
X165603699Y-76418662D01*
X165569868Y-76441267D01*
X165547263Y-76475098D01*
X165547262Y-76475099D01*
X165480311Y-76575299D01*
X165448862Y-76733400D01*
X165456801Y-76773311D01*
X165456800Y-77755215D01*
X164585682Y-76884097D01*
X164803329Y-76840804D01*
X165197816Y-76577216D01*
X165461404Y-76182728D01*
X165530600Y-75834857D01*
X165530600Y-75295142D01*
X165461404Y-74947271D01*
X165197816Y-74552784D01*
X164803328Y-74289196D01*
X164338000Y-74196636D01*
X163872671Y-74289196D01*
X163478184Y-74552784D01*
X163214596Y-74947272D01*
X163145400Y-75295143D01*
X163145400Y-75834858D01*
X163214596Y-76182729D01*
X163478185Y-76577216D01*
X163673003Y-76707389D01*
X162462998Y-76707389D01*
X162657816Y-76577216D01*
X162921404Y-76182728D01*
X162990600Y-75834857D01*
X162990600Y-75295142D01*
X162921404Y-74947271D01*
X162657816Y-74552784D01*
X162263328Y-74289196D01*
X161798000Y-74196636D01*
X161332671Y-74289196D01*
X160938184Y-74552784D01*
X160674596Y-74947272D01*
X160605400Y-75295143D01*
X160605400Y-75834858D01*
X160674596Y-76182729D01*
X160938185Y-76577216D01*
X161133003Y-76707389D01*
X160615316Y-76707389D01*
X160575410Y-76699451D01*
X160535504Y-76707389D01*
X160417310Y-76730899D01*
X160283278Y-76820456D01*
X160260669Y-76854292D01*
X160228961Y-76886000D01*
X160167775Y-76886000D01*
X159973345Y-76966535D01*
X159824535Y-77115345D01*
X159744000Y-77309775D01*
X155989907Y-77309775D01*
X156027000Y-77220225D01*
X156027000Y-77009775D01*
X156018701Y-76989738D01*
X156201696Y-76806743D01*
X156252672Y-76840804D01*
X156718000Y-76933364D01*
X157183329Y-76840804D01*
X157577816Y-76577216D01*
X157841404Y-76182728D01*
X157910600Y-75834857D01*
X157910600Y-75295143D01*
X158065400Y-75295143D01*
X158065400Y-75834858D01*
X158134596Y-76182729D01*
X158398185Y-76577216D01*
X158792672Y-76840804D01*
X159258000Y-76933364D01*
X159723329Y-76840804D01*
X160117816Y-76577216D01*
X160381404Y-76182728D01*
X160450600Y-75834857D01*
X160450600Y-75295142D01*
X160381404Y-74947271D01*
X160117816Y-74552784D01*
X159723328Y-74289196D01*
X159258000Y-74196636D01*
X158792671Y-74289196D01*
X158398184Y-74552784D01*
X158134596Y-74947272D01*
X158065400Y-75295143D01*
X157910600Y-75295143D01*
X157910600Y-75295142D01*
X157841404Y-74947271D01*
X157577816Y-74552784D01*
X157183328Y-74289196D01*
X156718000Y-74196636D01*
X156252671Y-74289196D01*
X155858184Y-74552784D01*
X155594596Y-74947272D01*
X155525400Y-75295143D01*
X155525400Y-75834858D01*
X155594596Y-76182729D01*
X155628657Y-76233704D01*
X155239701Y-76622660D01*
X155205867Y-76645267D01*
X155178188Y-76686692D01*
X155049535Y-76815345D01*
X154969000Y-77009775D01*
X148665815Y-77009775D01*
X148313589Y-76657549D01*
X148433816Y-76577216D01*
X148697404Y-76182728D01*
X148766600Y-75834857D01*
X148766600Y-75295143D01*
X148921400Y-75295143D01*
X148921400Y-75834858D01*
X148990596Y-76182729D01*
X149254185Y-76577216D01*
X149648672Y-76840804D01*
X150114000Y-76933364D01*
X150579329Y-76840804D01*
X150973816Y-76577216D01*
X151237404Y-76182728D01*
X151306600Y-75834857D01*
X151306600Y-75295143D01*
X151461400Y-75295143D01*
X151461400Y-75834858D01*
X151530596Y-76182729D01*
X151794185Y-76577216D01*
X152188672Y-76840804D01*
X152654000Y-76933364D01*
X153119329Y-76840804D01*
X153513816Y-76577216D01*
X153777404Y-76182728D01*
X153846600Y-75834857D01*
X153846600Y-75295142D01*
X153777404Y-74947271D01*
X153513816Y-74552784D01*
X153119328Y-74289196D01*
X152654000Y-74196636D01*
X152188671Y-74289196D01*
X151794184Y-74552784D01*
X151530596Y-74947272D01*
X151461400Y-75295143D01*
X151306600Y-75295143D01*
X151306600Y-75295142D01*
X151237404Y-74947271D01*
X150973816Y-74552784D01*
X150579328Y-74289196D01*
X150114000Y-74196636D01*
X149648671Y-74289196D01*
X149254184Y-74552784D01*
X148990596Y-74947272D01*
X148921400Y-75295143D01*
X148766600Y-75295143D01*
X148766600Y-75295142D01*
X148697404Y-74947271D01*
X148433816Y-74552784D01*
X148039328Y-74289196D01*
X147574000Y-74196636D01*
X147108671Y-74289196D01*
X146714184Y-74552784D01*
X146450596Y-74947272D01*
X146381400Y-75295143D01*
X146226600Y-75295143D01*
X146226600Y-75295142D01*
X146157404Y-74947271D01*
X145893816Y-74552784D01*
X145499328Y-74289196D01*
X145034000Y-74196636D01*
X144568671Y-74289196D01*
X144174184Y-74552784D01*
X143910596Y-74947272D01*
X143841400Y-75295143D01*
X143686600Y-75295143D01*
X143686600Y-75295142D01*
X143617404Y-74947271D01*
X143353816Y-74552784D01*
X142959328Y-74289196D01*
X142494000Y-74196636D01*
X142028671Y-74289196D01*
X141634184Y-74552784D01*
X141370596Y-74947272D01*
X141301400Y-75295143D01*
X141146600Y-75295143D01*
X141146600Y-75295142D01*
X141077404Y-74947271D01*
X140813816Y-74552784D01*
X140419328Y-74289196D01*
X139954000Y-74196636D01*
X139488671Y-74289196D01*
X139094184Y-74552784D01*
X138830596Y-74947272D01*
X138792260Y-75139998D01*
X138674259Y-75139998D01*
X138760054Y-74923408D01*
X138470386Y-74445533D01*
X138050079Y-74113349D01*
X137839000Y-74183134D01*
X136989000Y-74183134D01*
X136777921Y-74113349D01*
X136357614Y-74445533D01*
X136067946Y-74923408D01*
X136153741Y-75139998D01*
X136035740Y-75139998D01*
X135997404Y-74947271D01*
X135733816Y-74552784D01*
X135339328Y-74289196D01*
X134874000Y-74196636D01*
X134408671Y-74289196D01*
X134014184Y-74552784D01*
X133750596Y-74947272D01*
X133681400Y-75295143D01*
X133526600Y-75295143D01*
X133526600Y-75295142D01*
X133457404Y-74947271D01*
X133193816Y-74552784D01*
X132799328Y-74289196D01*
X132334000Y-74196636D01*
X131868671Y-74289196D01*
X131474184Y-74552784D01*
X131210596Y-74947272D01*
X131141400Y-75295143D01*
X130986600Y-75295143D01*
X130986600Y-75295142D01*
X130917404Y-74947271D01*
X130653816Y-74552784D01*
X130259328Y-74289196D01*
X129794000Y-74196636D01*
X129328671Y-74289196D01*
X128934184Y-74552784D01*
X128670596Y-74947272D01*
X128601400Y-75295143D01*
X128599000Y-75295143D01*
X128599000Y-75095368D01*
X128239559Y-74227601D01*
X127575399Y-73563441D01*
X127250830Y-73429000D01*
X187792659Y-73429000D01*
X189080000Y-74716342D01*
X189080001Y-124673657D01*
X187792659Y-125961000D01*
X125980830Y-125961000D01*
X126305399Y-125826559D01*
X126969559Y-125162399D01*
X127329000Y-124294632D01*
X127329000Y-123555143D01*
X137745400Y-123555143D01*
X137745400Y-124094858D01*
X137814596Y-124442729D01*
X138078185Y-124837216D01*
X138472672Y-125100804D01*
X138938000Y-125193364D01*
X139403329Y-125100804D01*
X139797816Y-124837216D01*
X140061404Y-124442728D01*
X140130600Y-124094857D01*
X140130600Y-123555143D01*
X140285400Y-123555143D01*
X140285400Y-124094858D01*
X140354596Y-124442729D01*
X140618185Y-124837216D01*
X141012672Y-125100804D01*
X141478000Y-125193364D01*
X141943329Y-125100804D01*
X142337816Y-124837216D01*
X142601404Y-124442728D01*
X142670600Y-124094857D01*
X142670600Y-123555143D01*
X142825400Y-123555143D01*
X142825400Y-124094858D01*
X142894596Y-124442729D01*
X143158185Y-124837216D01*
X143552672Y-125100804D01*
X144018000Y-125193364D01*
X144483329Y-125100804D01*
X144877816Y-124837216D01*
X145141404Y-124442728D01*
X145210600Y-124094857D01*
X145210600Y-123555143D01*
X145365400Y-123555143D01*
X145365400Y-124094858D01*
X145434596Y-124442729D01*
X145698185Y-124837216D01*
X146092672Y-125100804D01*
X146558000Y-125193364D01*
X147023329Y-125100804D01*
X147417816Y-124837216D01*
X147681404Y-124442728D01*
X147750600Y-124094857D01*
X147750600Y-123555143D01*
X147905400Y-123555143D01*
X147905400Y-124094858D01*
X147974596Y-124442729D01*
X148238185Y-124837216D01*
X148632672Y-125100804D01*
X149098000Y-125193364D01*
X149563329Y-125100804D01*
X149957816Y-124837216D01*
X150221404Y-124442728D01*
X150259740Y-124250002D01*
X150377741Y-124250002D01*
X150291946Y-124466592D01*
X150581614Y-124944467D01*
X151001921Y-125276651D01*
X151213000Y-125206866D01*
X151213000Y-124250000D01*
X152063000Y-124250000D01*
X152063000Y-125206866D01*
X152274079Y-125276651D01*
X152694386Y-124944467D01*
X152908000Y-124592061D01*
X153121614Y-124944467D01*
X153541921Y-125276651D01*
X153753000Y-125206866D01*
X153753000Y-124250000D01*
X152917742Y-124250000D01*
X152908000Y-124274594D01*
X152898258Y-124250000D01*
X152063000Y-124250000D01*
X151213000Y-124250000D01*
X151193000Y-124250000D01*
X151193000Y-123400000D01*
X151213000Y-123400000D01*
X151213000Y-122443134D01*
X152063000Y-122443134D01*
X152063000Y-123400000D01*
X152898258Y-123400000D01*
X152908000Y-123375406D01*
X152917742Y-123400000D01*
X153753000Y-123400000D01*
X153753000Y-122443134D01*
X154603000Y-122443134D01*
X154603000Y-123400000D01*
X154623000Y-123400000D01*
X154623000Y-124250000D01*
X154603000Y-124250000D01*
X154603000Y-125206866D01*
X154814079Y-125276651D01*
X155234386Y-124944467D01*
X155524054Y-124466592D01*
X155438259Y-124250002D01*
X155556260Y-124250002D01*
X155594596Y-124442729D01*
X155858185Y-124837216D01*
X156252672Y-125100804D01*
X156718000Y-125193364D01*
X157183329Y-125100804D01*
X157577816Y-124837216D01*
X157841404Y-124442728D01*
X157910600Y-124094857D01*
X157910600Y-123555142D01*
X157841404Y-123207271D01*
X157577816Y-122812784D01*
X157183328Y-122549196D01*
X156718000Y-122456636D01*
X156252671Y-122549196D01*
X155858184Y-122812784D01*
X155594596Y-123207272D01*
X155556260Y-123399998D01*
X155438259Y-123399998D01*
X155524054Y-123183408D01*
X155234386Y-122705533D01*
X154814079Y-122373349D01*
X154603000Y-122443134D01*
X153753000Y-122443134D01*
X153541921Y-122373349D01*
X153121614Y-122705533D01*
X152908000Y-123057939D01*
X152694386Y-122705533D01*
X152274079Y-122373349D01*
X152063000Y-122443134D01*
X151213000Y-122443134D01*
X151001921Y-122373349D01*
X150581614Y-122705533D01*
X150291946Y-123183408D01*
X150377741Y-123399998D01*
X150259740Y-123399998D01*
X150221404Y-123207271D01*
X149957816Y-122812784D01*
X149563328Y-122549196D01*
X149098000Y-122456636D01*
X148632671Y-122549196D01*
X148238184Y-122812784D01*
X147974596Y-123207272D01*
X147905400Y-123555143D01*
X147750600Y-123555143D01*
X147750600Y-123555142D01*
X147681404Y-123207271D01*
X147417816Y-122812784D01*
X147023328Y-122549196D01*
X146558000Y-122456636D01*
X146092671Y-122549196D01*
X145698184Y-122812784D01*
X145434596Y-123207272D01*
X145365400Y-123555143D01*
X145210600Y-123555143D01*
X145210600Y-123555142D01*
X145141404Y-123207271D01*
X144877816Y-122812784D01*
X144483328Y-122549196D01*
X144018000Y-122456636D01*
X143552671Y-122549196D01*
X143158184Y-122812784D01*
X142894596Y-123207272D01*
X142825400Y-123555143D01*
X142670600Y-123555143D01*
X142670600Y-123555142D01*
X142601404Y-123207271D01*
X142337816Y-122812784D01*
X141943328Y-122549196D01*
X141478000Y-122456636D01*
X141012671Y-122549196D01*
X140618184Y-122812784D01*
X140354596Y-123207272D01*
X140285400Y-123555143D01*
X140130600Y-123555143D01*
X140130600Y-123555142D01*
X140061404Y-123207271D01*
X139797816Y-122812784D01*
X139403328Y-122549196D01*
X138938000Y-122456636D01*
X138472671Y-122549196D01*
X138078184Y-122812784D01*
X137814596Y-123207272D01*
X137745400Y-123555143D01*
X127329000Y-123555143D01*
X127329000Y-123355368D01*
X126969559Y-122487601D01*
X126305399Y-121823441D01*
X125437632Y-121464000D01*
X124498368Y-121464000D01*
X123630601Y-121823441D01*
X122966441Y-122487601D01*
X122607000Y-123355368D01*
X122607000Y-124294632D01*
X122966441Y-125162399D01*
X123630601Y-125826559D01*
X123955170Y-125961000D01*
X111402000Y-125961000D01*
X111402000Y-121115000D01*
X155274091Y-121115000D01*
X155329195Y-121392028D01*
X155486119Y-121626881D01*
X155720972Y-121783805D01*
X155928074Y-121825000D01*
X161203910Y-121825000D01*
X161696508Y-122317599D01*
X161736119Y-122376881D01*
X161879846Y-122472916D01*
X161798000Y-122456636D01*
X161332671Y-122549196D01*
X160938184Y-122812784D01*
X160674596Y-123207272D01*
X160605400Y-123555143D01*
X160605400Y-124094858D01*
X160674596Y-124442729D01*
X160938185Y-124837216D01*
X161332672Y-125100804D01*
X161798000Y-125193364D01*
X162263329Y-125100804D01*
X162657816Y-124837216D01*
X162921404Y-124442728D01*
X162990600Y-124094857D01*
X162990600Y-123555142D01*
X162921404Y-123207271D01*
X162657816Y-122812784D01*
X162305611Y-122577448D01*
X162317920Y-122575000D01*
X163834053Y-122575000D01*
X163478184Y-122812784D01*
X163214596Y-123207272D01*
X163145400Y-123555143D01*
X163145400Y-124094858D01*
X163214596Y-124442729D01*
X163478185Y-124837216D01*
X163872672Y-125100804D01*
X164338000Y-125193364D01*
X164803329Y-125100804D01*
X165197816Y-124837216D01*
X165461404Y-124442728D01*
X165530600Y-124094857D01*
X165530600Y-123555142D01*
X165461404Y-123207271D01*
X165197816Y-122812784D01*
X164841946Y-122575000D01*
X166374053Y-122575000D01*
X166018184Y-122812784D01*
X165754596Y-123207272D01*
X165685400Y-123555143D01*
X165685400Y-124094858D01*
X165754596Y-124442729D01*
X166018185Y-124837216D01*
X166412672Y-125100804D01*
X166878000Y-125193364D01*
X167343329Y-125100804D01*
X167737816Y-124837216D01*
X168001404Y-124442728D01*
X168070600Y-124094857D01*
X168070600Y-123555143D01*
X168225400Y-123555143D01*
X168225400Y-124094858D01*
X168294596Y-124442729D01*
X168558185Y-124837216D01*
X168952672Y-125100804D01*
X169418000Y-125193364D01*
X169883329Y-125100804D01*
X170277816Y-124837216D01*
X170541404Y-124442728D01*
X170610600Y-124094857D01*
X170610600Y-123555142D01*
X170541404Y-123207271D01*
X170277816Y-122812784D01*
X169883328Y-122549196D01*
X169418000Y-122456636D01*
X168952671Y-122549196D01*
X168558184Y-122812784D01*
X168294596Y-123207272D01*
X168225400Y-123555143D01*
X168070600Y-123555143D01*
X168070600Y-123555142D01*
X168001404Y-123207271D01*
X167737816Y-122812784D01*
X167343328Y-122549196D01*
X167080297Y-122496876D01*
X167259881Y-122376881D01*
X167416805Y-122142028D01*
X167471909Y-121865000D01*
X167416805Y-121587972D01*
X167287999Y-121395200D01*
X169107561Y-121395200D01*
X170868657Y-123156296D01*
X170834596Y-123207272D01*
X170765400Y-123555143D01*
X170765400Y-124094858D01*
X170834596Y-124442729D01*
X171098185Y-124837216D01*
X171492672Y-125100804D01*
X171958000Y-125193364D01*
X172423329Y-125100804D01*
X172817816Y-124837216D01*
X173081404Y-124442728D01*
X173150600Y-124094857D01*
X173150600Y-123555142D01*
X173081404Y-123207271D01*
X172817816Y-122812784D01*
X172567008Y-122645200D01*
X172897561Y-122645200D01*
X173408657Y-123156296D01*
X173374596Y-123207272D01*
X173305400Y-123555143D01*
X173305400Y-124094858D01*
X173374596Y-124442729D01*
X173638185Y-124837216D01*
X174032672Y-125100804D01*
X174498000Y-125193364D01*
X174963329Y-125100804D01*
X175357816Y-124837216D01*
X175621404Y-124442728D01*
X175690600Y-124094857D01*
X175690600Y-123555142D01*
X175621404Y-123207271D01*
X175357816Y-122812784D01*
X174963328Y-122549196D01*
X174498000Y-122456636D01*
X174032671Y-122549196D01*
X173981696Y-122583257D01*
X173380140Y-121981701D01*
X173357533Y-121947867D01*
X173223501Y-121858310D01*
X173105307Y-121834800D01*
X173105306Y-121834800D01*
X173065400Y-121826862D01*
X173025494Y-121834800D01*
X171590839Y-121834800D01*
X171426239Y-121670200D01*
X171730080Y-121670200D01*
X171773345Y-121713465D01*
X171967775Y-121794000D01*
X172178225Y-121794000D01*
X172372655Y-121713465D01*
X172521465Y-121564655D01*
X172581092Y-121420700D01*
X183025000Y-121420700D01*
X183025000Y-121969300D01*
X183234940Y-122476141D01*
X183622859Y-122864060D01*
X184129700Y-123074000D01*
X184678300Y-123074000D01*
X185185141Y-122864060D01*
X185573060Y-122476141D01*
X185783000Y-121969300D01*
X185783000Y-121420700D01*
X185573060Y-120913859D01*
X185185141Y-120525940D01*
X184678300Y-120316000D01*
X184129700Y-120316000D01*
X183622859Y-120525940D01*
X183234940Y-120913859D01*
X183025000Y-121420700D01*
X172581092Y-121420700D01*
X172602000Y-121370225D01*
X172602000Y-121306400D01*
X172692775Y-121344000D01*
X172903225Y-121344000D01*
X173097655Y-121263465D01*
X173246465Y-121114655D01*
X173327000Y-120920225D01*
X173327000Y-120709775D01*
X173246465Y-120515345D01*
X173097655Y-120366535D01*
X172903225Y-120286000D01*
X172692775Y-120286000D01*
X172600030Y-120324416D01*
X172582291Y-120297867D01*
X172448259Y-120208310D01*
X172330065Y-120184800D01*
X172330064Y-120184800D01*
X172290158Y-120176862D01*
X172250252Y-120184800D01*
X171065840Y-120184800D01*
X170337740Y-119456701D01*
X170315133Y-119422867D01*
X170181101Y-119333310D01*
X170062907Y-119309800D01*
X170062906Y-119309800D01*
X170023000Y-119301862D01*
X169983094Y-119309800D01*
X165790839Y-119309800D01*
X164756407Y-118275368D01*
X174677000Y-118275368D01*
X174677000Y-119214632D01*
X175036441Y-120082399D01*
X175700601Y-120746559D01*
X176568368Y-121106000D01*
X177507632Y-121106000D01*
X178375399Y-120746559D01*
X179039559Y-120082399D01*
X179399000Y-119214632D01*
X179399000Y-118275368D01*
X179039559Y-117407601D01*
X178375399Y-116743441D01*
X177507632Y-116384000D01*
X176568368Y-116384000D01*
X175700601Y-116743441D01*
X175036441Y-117407601D01*
X174677000Y-118275368D01*
X164756407Y-118275368D01*
X164153200Y-117672161D01*
X164153200Y-116865000D01*
X172774091Y-116865000D01*
X172829196Y-117142028D01*
X172986120Y-117376880D01*
X173220972Y-117533804D01*
X173498000Y-117588909D01*
X173775028Y-117533804D01*
X173950600Y-117416490D01*
X175802091Y-115565000D01*
X183018555Y-115565000D01*
X183018555Y-117665000D01*
X183044089Y-117793369D01*
X183116805Y-117902195D01*
X183225631Y-117974911D01*
X183354000Y-118000445D01*
X185454000Y-118000445D01*
X185582369Y-117974911D01*
X185691195Y-117902195D01*
X185763911Y-117793369D01*
X185789445Y-117665000D01*
X185789445Y-115565000D01*
X185763911Y-115436631D01*
X185691195Y-115327805D01*
X185582369Y-115255089D01*
X185454000Y-115229555D01*
X183354000Y-115229555D01*
X183225631Y-115255089D01*
X183116805Y-115327805D01*
X183044089Y-115436631D01*
X183018555Y-115565000D01*
X175802091Y-115565000D01*
X176950604Y-114416488D01*
X177009880Y-114376881D01*
X177049488Y-114317604D01*
X177049491Y-114317601D01*
X177166805Y-114142028D01*
X177221909Y-113865000D01*
X177208000Y-113795074D01*
X177208000Y-112909090D01*
X177284291Y-112832800D01*
X177373000Y-112850445D01*
X178623000Y-112850445D01*
X178751369Y-112824911D01*
X178860195Y-112752195D01*
X178932911Y-112643369D01*
X178958445Y-112515000D01*
X178958445Y-111515000D01*
X178932911Y-111386631D01*
X178860195Y-111277805D01*
X178751369Y-111205089D01*
X178623000Y-111179555D01*
X177373000Y-111179555D01*
X177244631Y-111205089D01*
X177208000Y-111229565D01*
X177208000Y-107802700D01*
X183025000Y-107802700D01*
X183025000Y-108351300D01*
X183234940Y-108858141D01*
X183622859Y-109246060D01*
X184129700Y-109456000D01*
X184678300Y-109456000D01*
X185185141Y-109246060D01*
X185573060Y-108858141D01*
X185783000Y-108351300D01*
X185783000Y-107802700D01*
X185573060Y-107295859D01*
X185185141Y-106907940D01*
X184678300Y-106698000D01*
X184129700Y-106698000D01*
X183622859Y-106907940D01*
X183234940Y-107295859D01*
X183025000Y-107802700D01*
X177208000Y-107802700D01*
X177208000Y-106800435D01*
X177244631Y-106824911D01*
X177373000Y-106850445D01*
X178623000Y-106850445D01*
X178751369Y-106824911D01*
X178860195Y-106752195D01*
X178932911Y-106643369D01*
X178958445Y-106515000D01*
X178958445Y-105515000D01*
X178932911Y-105386631D01*
X178860195Y-105277805D01*
X178751369Y-105205089D01*
X178623000Y-105179555D01*
X177373000Y-105179555D01*
X177244631Y-105205089D01*
X177135805Y-105277805D01*
X177117634Y-105305000D01*
X176680920Y-105305000D01*
X176610999Y-105291092D01*
X176541079Y-105305000D01*
X176541074Y-105305000D01*
X176333972Y-105346195D01*
X176099119Y-105503119D01*
X176059506Y-105562404D01*
X176045402Y-105576508D01*
X175986119Y-105616120D01*
X175829195Y-105850973D01*
X175796637Y-106014655D01*
X175774091Y-106128000D01*
X175788000Y-106197924D01*
X175788000Y-106859189D01*
X175788001Y-106859194D01*
X175788000Y-112184925D01*
X175788001Y-112184930D01*
X175788001Y-112545072D01*
X175774091Y-112615000D01*
X175788001Y-112684928D01*
X175788000Y-113570908D01*
X172946510Y-116412400D01*
X172829196Y-116587972D01*
X172774091Y-116865000D01*
X164153200Y-116865000D01*
X164153200Y-115857920D01*
X164196465Y-115814655D01*
X164277000Y-115620225D01*
X164277000Y-115409775D01*
X164196465Y-115215345D01*
X164047655Y-115066535D01*
X163853225Y-114986000D01*
X163642775Y-114986000D01*
X163448345Y-115066535D01*
X163411268Y-115103612D01*
X163385923Y-115078267D01*
X163191493Y-114997732D01*
X162981043Y-114997732D01*
X162786613Y-115078267D01*
X162637803Y-115227077D01*
X162557268Y-115421507D01*
X162557268Y-115631957D01*
X162627804Y-115802247D01*
X162528225Y-115761000D01*
X162317775Y-115761000D01*
X162123345Y-115841535D01*
X161974535Y-115990345D01*
X161894000Y-116184775D01*
X161894000Y-116395225D01*
X161974535Y-116589655D01*
X162017800Y-116632920D01*
X162017801Y-118947079D01*
X161999535Y-118965345D01*
X161919000Y-119159775D01*
X161919000Y-119370225D01*
X161999535Y-119564655D01*
X162148345Y-119713465D01*
X162342775Y-119794000D01*
X162411043Y-119794000D01*
X162489898Y-119846689D01*
X162608092Y-119870199D01*
X162647998Y-119878137D01*
X162687904Y-119870199D01*
X162905160Y-119870199D01*
X164189960Y-121155000D01*
X162542091Y-121155000D01*
X162049494Y-120662404D01*
X162009881Y-120603119D01*
X161775028Y-120446195D01*
X161567926Y-120405000D01*
X161567924Y-120405000D01*
X161498000Y-120391091D01*
X161428076Y-120405000D01*
X155928074Y-120405000D01*
X155720972Y-120446195D01*
X155486119Y-120603119D01*
X155329195Y-120837972D01*
X155274091Y-121115000D01*
X111402000Y-121115000D01*
X111402000Y-106935750D01*
X119290000Y-106935750D01*
X119290000Y-107355966D01*
X119378756Y-107570243D01*
X119542757Y-107734244D01*
X119757034Y-107823000D01*
X120177250Y-107823000D01*
X120323000Y-107677250D01*
X120323000Y-106790000D01*
X121173000Y-106790000D01*
X121173000Y-107677250D01*
X121318750Y-107823000D01*
X121738966Y-107823000D01*
X121953243Y-107734244D01*
X122117244Y-107570243D01*
X122206000Y-107355966D01*
X122206000Y-106935750D01*
X122060250Y-106790000D01*
X121173000Y-106790000D01*
X120323000Y-106790000D01*
X119435750Y-106790000D01*
X119290000Y-106935750D01*
X111402000Y-106935750D01*
X111402000Y-105374034D01*
X119290000Y-105374034D01*
X119290000Y-105794250D01*
X119435750Y-105940000D01*
X120323000Y-105940000D01*
X120323000Y-105920000D01*
X121173000Y-105920000D01*
X121173000Y-105940000D01*
X122060250Y-105940000D01*
X122206000Y-105794250D01*
X122206000Y-105374034D01*
X122117244Y-105159757D01*
X121953243Y-104995756D01*
X121738966Y-104907000D01*
X121378593Y-104907000D01*
X121430011Y-104885702D01*
X121768702Y-104547011D01*
X121952000Y-104104491D01*
X121952000Y-103625509D01*
X121768702Y-103182989D01*
X121430011Y-102844298D01*
X120987491Y-102661000D01*
X120508509Y-102661000D01*
X120065989Y-102844298D01*
X119727298Y-103182989D01*
X119544000Y-103625509D01*
X119544000Y-104104491D01*
X119727298Y-104547011D01*
X120065989Y-104885702D01*
X120117407Y-104907000D01*
X119757034Y-104907000D01*
X119542757Y-104995756D01*
X119378756Y-105159757D01*
X119290000Y-105374034D01*
X111402000Y-105374034D01*
X111402000Y-94791306D01*
X137698011Y-94791306D01*
X137823011Y-101966306D01*
X137828522Y-101993245D01*
X137844619Y-102017683D01*
X137868844Y-102034101D01*
X137897507Y-102039998D01*
X141650863Y-102064691D01*
X142430514Y-103672721D01*
X142443957Y-103692004D01*
X142467972Y-103708726D01*
X142496558Y-103714986D01*
X145096558Y-103764986D01*
X145126936Y-103759193D01*
X145151212Y-103742853D01*
X145167388Y-103718466D01*
X145173000Y-103689746D01*
X145171654Y-103292744D01*
X146038001Y-104159092D01*
X146038000Y-113184925D01*
X146079195Y-113392027D01*
X146236119Y-113626880D01*
X146470972Y-113783805D01*
X146748000Y-113838909D01*
X147025027Y-113783805D01*
X147259880Y-113626881D01*
X147416805Y-113392028D01*
X147458000Y-113184926D01*
X147458000Y-103934920D01*
X147471908Y-103864999D01*
X147458000Y-103795078D01*
X147458000Y-103795074D01*
X147416805Y-103587972D01*
X147259881Y-103353119D01*
X147200599Y-103313508D01*
X146071000Y-102183910D01*
X146071000Y-101855757D01*
X161442242Y-101855757D01*
X161442242Y-102066207D01*
X161522777Y-102260637D01*
X161566042Y-102303902D01*
X161566043Y-103821192D01*
X161558104Y-103861103D01*
X161589553Y-104019204D01*
X161592789Y-104024047D01*
X161592789Y-104116875D01*
X161673324Y-104311305D01*
X161822134Y-104460115D01*
X162016564Y-104540650D01*
X162100482Y-104540650D01*
X162098345Y-104541535D01*
X161949535Y-104690345D01*
X161869000Y-104884775D01*
X161869000Y-105095225D01*
X161949535Y-105289655D01*
X162098345Y-105438465D01*
X162292775Y-105519000D01*
X162503225Y-105519000D01*
X162697655Y-105438465D01*
X162719001Y-105417119D01*
X162719001Y-108574736D01*
X162706337Y-108638403D01*
X162719001Y-108702070D01*
X162719001Y-108702073D01*
X162756512Y-108890654D01*
X162899401Y-109104503D01*
X162953381Y-109140572D01*
X163051501Y-109238691D01*
X163051500Y-110902065D01*
X163051500Y-110902069D01*
X163038836Y-110965736D01*
X163051500Y-111029403D01*
X163051500Y-111453670D01*
X163089011Y-111642251D01*
X163231900Y-111856100D01*
X163445748Y-111998989D01*
X163698000Y-112049165D01*
X163950251Y-111998989D01*
X164164100Y-111856100D01*
X164306989Y-111642252D01*
X164344500Y-111453671D01*
X164344500Y-111223923D01*
X164431989Y-111092986D01*
X164482165Y-110840736D01*
X164431989Y-110588485D01*
X164344500Y-110457548D01*
X164344500Y-109157300D01*
X164433102Y-109194000D01*
X164762898Y-109194000D01*
X165067591Y-109067792D01*
X165300792Y-108834591D01*
X165427000Y-108529898D01*
X165427000Y-108200102D01*
X165669000Y-108200102D01*
X165669000Y-108529898D01*
X165795208Y-108834591D01*
X166028409Y-109067792D01*
X166333102Y-109194000D01*
X166662898Y-109194000D01*
X166967591Y-109067792D01*
X167200792Y-108834591D01*
X167327000Y-108529898D01*
X167327000Y-108200102D01*
X167200792Y-107895409D01*
X166967591Y-107662208D01*
X166720296Y-107559775D01*
X169594000Y-107559775D01*
X169594000Y-107770225D01*
X169674535Y-107964655D01*
X169823345Y-108113465D01*
X170017775Y-108194000D01*
X170228225Y-108194000D01*
X170422655Y-108113465D01*
X170465920Y-108070200D01*
X171005080Y-108070200D01*
X171023345Y-108088465D01*
X171217775Y-108169000D01*
X171428225Y-108169000D01*
X171622655Y-108088465D01*
X171665920Y-108045200D01*
X173133094Y-108045200D01*
X173173000Y-108053138D01*
X173212906Y-108045200D01*
X173212907Y-108045200D01*
X173331101Y-108021690D01*
X173465133Y-107932133D01*
X173487740Y-107898299D01*
X174455632Y-106930407D01*
X174489466Y-106907800D01*
X174563631Y-106796804D01*
X174579023Y-106773769D01*
X174610471Y-106615667D01*
X174602533Y-106575760D01*
X174602533Y-106227331D01*
X174642775Y-106244000D01*
X174853225Y-106244000D01*
X175047655Y-106163465D01*
X175196465Y-106014655D01*
X175277000Y-105820225D01*
X175277000Y-105609775D01*
X175196465Y-105415345D01*
X175153200Y-105372080D01*
X175153200Y-104007920D01*
X175171465Y-103989655D01*
X175252000Y-103795225D01*
X175252000Y-103584775D01*
X175171465Y-103390345D01*
X175022655Y-103241535D01*
X174828225Y-103161000D01*
X174617775Y-103161000D01*
X174423345Y-103241535D01*
X174274535Y-103390345D01*
X174194000Y-103584775D01*
X174194000Y-103795225D01*
X174230134Y-103882461D01*
X174092108Y-103882461D01*
X173897678Y-103962996D01*
X173877491Y-103983183D01*
X173703225Y-103911000D01*
X173492775Y-103911000D01*
X173298345Y-103991535D01*
X173149535Y-104140345D01*
X173069000Y-104334775D01*
X173069000Y-104545225D01*
X173149535Y-104739655D01*
X173217801Y-104807921D01*
X173217800Y-105372080D01*
X173174535Y-105415345D01*
X173094000Y-105609775D01*
X173094000Y-105820225D01*
X173174535Y-106014655D01*
X173323345Y-106163465D01*
X173517775Y-106244000D01*
X173728225Y-106244000D01*
X173792133Y-106217529D01*
X173792133Y-106447828D01*
X173005161Y-107234800D01*
X171665920Y-107234800D01*
X171622655Y-107191535D01*
X171428225Y-107111000D01*
X171217775Y-107111000D01*
X171023345Y-107191535D01*
X170955080Y-107259800D01*
X170465920Y-107259800D01*
X170422655Y-107216535D01*
X170228225Y-107136000D01*
X170017775Y-107136000D01*
X169823345Y-107216535D01*
X169674535Y-107365345D01*
X169594000Y-107559775D01*
X166720296Y-107559775D01*
X166662898Y-107536000D01*
X166333102Y-107536000D01*
X166028409Y-107662208D01*
X165795208Y-107895409D01*
X165669000Y-108200102D01*
X165427000Y-108200102D01*
X165300792Y-107895409D01*
X165067591Y-107662208D01*
X164762898Y-107536000D01*
X164433102Y-107536000D01*
X164128409Y-107662208D01*
X164012001Y-107778616D01*
X164012001Y-104009775D01*
X168169000Y-104009775D01*
X168169000Y-104220225D01*
X168249535Y-104414655D01*
X168398345Y-104563465D01*
X168592775Y-104644000D01*
X168645210Y-104644000D01*
X168645210Y-104698801D01*
X168725745Y-104893231D01*
X168874555Y-105042041D01*
X169068985Y-105122576D01*
X169279435Y-105122576D01*
X169473865Y-105042041D01*
X169622675Y-104893231D01*
X169661471Y-104799568D01*
X171142039Y-103319000D01*
X171203225Y-103319000D01*
X171397655Y-103238465D01*
X171546465Y-103089655D01*
X171627000Y-102895225D01*
X171627000Y-102684775D01*
X171546465Y-102490345D01*
X171397655Y-102341535D01*
X171203225Y-102261000D01*
X171152000Y-102261000D01*
X171152000Y-102184775D01*
X171071465Y-101990345D01*
X170922655Y-101841535D01*
X170728225Y-101761000D01*
X170517775Y-101761000D01*
X170323345Y-101841535D01*
X170174535Y-101990345D01*
X170094000Y-102184775D01*
X170094000Y-102245961D01*
X168753961Y-103586000D01*
X168592775Y-103586000D01*
X168398345Y-103666535D01*
X168249535Y-103815345D01*
X168169000Y-104009775D01*
X164012001Y-104009775D01*
X164012001Y-101707240D01*
X164024666Y-101643569D01*
X163988598Y-101462243D01*
X163988598Y-101132232D01*
X163958318Y-100980000D01*
X173420903Y-100980000D01*
X173512407Y-101440023D01*
X173772989Y-101830011D01*
X174162977Y-102090593D01*
X174506883Y-102159000D01*
X174739117Y-102159000D01*
X175083023Y-102090593D01*
X175473011Y-101830011D01*
X175733593Y-101440023D01*
X175825097Y-100980000D01*
X175960903Y-100980000D01*
X176052407Y-101440023D01*
X176312989Y-101830011D01*
X176702977Y-102090593D01*
X177046883Y-102159000D01*
X177279117Y-102159000D01*
X177623023Y-102090593D01*
X177837924Y-101947000D01*
X183018555Y-101947000D01*
X183018555Y-104047000D01*
X183044089Y-104175369D01*
X183116805Y-104284195D01*
X183225631Y-104356911D01*
X183354000Y-104382445D01*
X185454000Y-104382445D01*
X185582369Y-104356911D01*
X185691195Y-104284195D01*
X185763911Y-104175369D01*
X185789445Y-104047000D01*
X185789445Y-101947000D01*
X185763911Y-101818631D01*
X185691195Y-101709805D01*
X185582369Y-101637089D01*
X185454000Y-101611555D01*
X183354000Y-101611555D01*
X183225631Y-101637089D01*
X183116805Y-101709805D01*
X183044089Y-101818631D01*
X183018555Y-101947000D01*
X177837924Y-101947000D01*
X178013011Y-101830011D01*
X178273593Y-101440023D01*
X178365097Y-100980000D01*
X178273593Y-100519977D01*
X178013011Y-100129989D01*
X177623023Y-99869407D01*
X177279117Y-99801000D01*
X177046883Y-99801000D01*
X176702977Y-99869407D01*
X176312989Y-100129989D01*
X176052407Y-100519977D01*
X175960903Y-100980000D01*
X175825097Y-100980000D01*
X175733593Y-100519977D01*
X175473011Y-100129989D01*
X175083023Y-99869407D01*
X174739117Y-99801000D01*
X174506883Y-99801000D01*
X174162977Y-99869407D01*
X173772989Y-100129989D01*
X173512407Y-100519977D01*
X173420903Y-100980000D01*
X163958318Y-100980000D01*
X163951087Y-100943650D01*
X163808198Y-100729802D01*
X163594350Y-100586913D01*
X163342098Y-100536737D01*
X163089847Y-100586913D01*
X162875999Y-100729802D01*
X162733109Y-100943650D01*
X162695598Y-101132231D01*
X162695598Y-101556499D01*
X162682934Y-101620166D01*
X162695598Y-101683833D01*
X162695598Y-101683836D01*
X162719002Y-101801496D01*
X162719002Y-101819311D01*
X162578225Y-101761000D01*
X162460993Y-101761000D01*
X162419707Y-101661327D01*
X162270897Y-101512517D01*
X162076467Y-101431982D01*
X161866017Y-101431982D01*
X161671587Y-101512517D01*
X161522777Y-101661327D01*
X161442242Y-101855757D01*
X146071000Y-101855757D01*
X146071000Y-100321090D01*
X146791646Y-99600445D01*
X147373000Y-99600445D01*
X147501369Y-99574911D01*
X147610195Y-99502195D01*
X147682911Y-99393369D01*
X147708445Y-99265000D01*
X147708445Y-98265000D01*
X147682911Y-98136631D01*
X147610195Y-98027805D01*
X147501369Y-97955089D01*
X147458000Y-97946462D01*
X147458000Y-97545074D01*
X147416805Y-97337972D01*
X147259881Y-97103119D01*
X147025028Y-96946195D01*
X146748000Y-96891091D01*
X146470973Y-96946195D01*
X146236120Y-97103119D01*
X146079196Y-97337972D01*
X146038001Y-97545074D01*
X146038001Y-97946462D01*
X145994631Y-97955089D01*
X145885805Y-98027805D01*
X145813089Y-98136631D01*
X145787555Y-98265000D01*
X145787555Y-98596354D01*
X145157869Y-99226041D01*
X145148000Y-96314746D01*
X145147990Y-96313771D01*
X145122990Y-94788771D01*
X145117291Y-94761299D01*
X145101033Y-94736967D01*
X145076701Y-94720709D01*
X145048000Y-94715000D01*
X137773000Y-94715000D01*
X137743096Y-94721219D01*
X137719051Y-94737899D01*
X137703220Y-94762510D01*
X137698011Y-94791306D01*
X111402000Y-94791306D01*
X111402000Y-94325000D01*
X147792555Y-94325000D01*
X147792555Y-99405000D01*
X147818089Y-99533369D01*
X147890805Y-99642195D01*
X147999631Y-99714911D01*
X148128000Y-99740445D01*
X149398000Y-99740445D01*
X149526369Y-99714911D01*
X149635195Y-99642195D01*
X149707911Y-99533369D01*
X149733445Y-99405000D01*
X149733445Y-96493844D01*
X150040789Y-96186500D01*
X150615772Y-96186500D01*
X150544000Y-96359775D01*
X150544000Y-96570225D01*
X150624535Y-96764655D01*
X150773345Y-96913465D01*
X150967775Y-96994000D01*
X151028961Y-96994000D01*
X151133502Y-97098541D01*
X151103225Y-97086000D01*
X150892775Y-97086000D01*
X150698345Y-97166535D01*
X150549535Y-97315345D01*
X150469000Y-97509775D01*
X150469000Y-97720225D01*
X150549535Y-97914655D01*
X150698345Y-98063465D01*
X150892775Y-98144000D01*
X151103225Y-98144000D01*
X151297655Y-98063465D01*
X151415920Y-97945200D01*
X151494760Y-97945200D01*
X150789699Y-98650262D01*
X150755868Y-98672867D01*
X150733263Y-98706698D01*
X150733262Y-98706699D01*
X150666311Y-98806899D01*
X150634862Y-98965000D01*
X150642801Y-99004911D01*
X150642800Y-99422080D01*
X150599535Y-99465345D01*
X150519000Y-99659775D01*
X150519000Y-99870225D01*
X150599535Y-100064655D01*
X150748345Y-100213465D01*
X150942775Y-100294000D01*
X151153225Y-100294000D01*
X151347655Y-100213465D01*
X151496465Y-100064655D01*
X151577000Y-99870225D01*
X151577000Y-99659775D01*
X151496465Y-99465345D01*
X151453200Y-99422080D01*
X151453200Y-99132839D01*
X152240840Y-98345200D01*
X152797320Y-98345200D01*
X152850416Y-98398296D01*
X152873025Y-98432133D01*
X152974798Y-98500135D01*
X153007056Y-98521690D01*
X153100072Y-98540192D01*
X153148345Y-98588465D01*
X153342775Y-98669000D01*
X153553225Y-98669000D01*
X153747655Y-98588465D01*
X153896465Y-98439655D01*
X153977000Y-98245225D01*
X153977000Y-98034775D01*
X153918230Y-97892890D01*
X153971465Y-97839655D01*
X154052000Y-97645225D01*
X154052000Y-97434775D01*
X153971465Y-97240345D01*
X153946120Y-97215000D01*
X153971465Y-97189655D01*
X154052000Y-96995225D01*
X154052000Y-96784775D01*
X153971465Y-96590345D01*
X153822655Y-96441535D01*
X153628225Y-96361000D01*
X153417775Y-96361000D01*
X153223345Y-96441535D01*
X153074535Y-96590345D01*
X153035411Y-96684800D01*
X151865839Y-96684800D01*
X151602000Y-96420961D01*
X151602000Y-96359775D01*
X151530228Y-96186500D01*
X156986671Y-96186500D01*
X157175252Y-96148989D01*
X157389100Y-96006100D01*
X157531989Y-95792252D01*
X157582165Y-95540000D01*
X162163835Y-95540000D01*
X162214011Y-95792252D01*
X162356900Y-96006100D01*
X162570748Y-96148989D01*
X162759329Y-96186500D01*
X169140212Y-96186500D01*
X169762555Y-96808844D01*
X169762555Y-99405000D01*
X169788089Y-99533369D01*
X169860805Y-99642195D01*
X169969631Y-99714911D01*
X170098000Y-99740445D01*
X171368000Y-99740445D01*
X171496369Y-99714911D01*
X171605195Y-99642195D01*
X171677911Y-99533369D01*
X171703445Y-99405000D01*
X171703445Y-98440000D01*
X173420903Y-98440000D01*
X173512407Y-98900023D01*
X173772989Y-99290011D01*
X174162977Y-99550593D01*
X174506883Y-99619000D01*
X174739117Y-99619000D01*
X175083023Y-99550593D01*
X175473011Y-99290011D01*
X175733593Y-98900023D01*
X175825097Y-98440000D01*
X175960903Y-98440000D01*
X176052407Y-98900023D01*
X176312989Y-99290011D01*
X176702977Y-99550593D01*
X177046883Y-99619000D01*
X177279117Y-99619000D01*
X177623023Y-99550593D01*
X178013011Y-99290011D01*
X178273593Y-98900023D01*
X178365097Y-98440000D01*
X178273593Y-97979977D01*
X178013011Y-97589989D01*
X177623023Y-97329407D01*
X177279117Y-97261000D01*
X177046883Y-97261000D01*
X176702977Y-97329407D01*
X176312989Y-97589989D01*
X176052407Y-97979977D01*
X175960903Y-98440000D01*
X175825097Y-98440000D01*
X175733593Y-97979977D01*
X175473011Y-97589989D01*
X175083023Y-97329407D01*
X174739117Y-97261000D01*
X174506883Y-97261000D01*
X174162977Y-97329407D01*
X173772989Y-97589989D01*
X173512407Y-97979977D01*
X173420903Y-98440000D01*
X171703445Y-98440000D01*
X171703445Y-95050000D01*
X173437555Y-95050000D01*
X173437555Y-96750000D01*
X173463089Y-96878369D01*
X173535805Y-96987195D01*
X173644631Y-97059911D01*
X173773000Y-97085445D01*
X175473000Y-97085445D01*
X175601369Y-97059911D01*
X175710195Y-96987195D01*
X175782911Y-96878369D01*
X175808445Y-96750000D01*
X175808445Y-95900000D01*
X175960903Y-95900000D01*
X176052407Y-96360023D01*
X176312989Y-96750011D01*
X176702977Y-97010593D01*
X177046883Y-97079000D01*
X177279117Y-97079000D01*
X177623023Y-97010593D01*
X178013011Y-96750011D01*
X178273593Y-96360023D01*
X178365097Y-95900000D01*
X178273593Y-95439977D01*
X178013011Y-95049989D01*
X177623023Y-94789407D01*
X177279117Y-94721000D01*
X177046883Y-94721000D01*
X176702977Y-94789407D01*
X176312989Y-95049989D01*
X176052407Y-95439977D01*
X175960903Y-95900000D01*
X175808445Y-95900000D01*
X175808445Y-95050000D01*
X175782911Y-94921631D01*
X175710195Y-94812805D01*
X175601369Y-94740089D01*
X175473000Y-94714555D01*
X173773000Y-94714555D01*
X173644631Y-94740089D01*
X173535805Y-94812805D01*
X173463089Y-94921631D01*
X173437555Y-95050000D01*
X171703445Y-95050000D01*
X171703445Y-94325000D01*
X171677911Y-94196631D01*
X171630389Y-94125509D01*
X184544000Y-94125509D01*
X184544000Y-94604491D01*
X184727298Y-95047011D01*
X185065989Y-95385702D01*
X185508509Y-95569000D01*
X185987491Y-95569000D01*
X186430011Y-95385702D01*
X186768702Y-95047011D01*
X186952000Y-94604491D01*
X186952000Y-94125509D01*
X186768702Y-93682989D01*
X186430011Y-93344298D01*
X185987491Y-93161000D01*
X185508509Y-93161000D01*
X185065989Y-93344298D01*
X184727298Y-93682989D01*
X184544000Y-94125509D01*
X171630389Y-94125509D01*
X171605195Y-94087805D01*
X171496369Y-94015089D01*
X171368000Y-93989555D01*
X170098000Y-93989555D01*
X169969631Y-94015089D01*
X169860805Y-94087805D01*
X169788089Y-94196631D01*
X169762555Y-94325000D01*
X169762555Y-94999368D01*
X169660252Y-94931011D01*
X169471671Y-94893500D01*
X169471667Y-94893500D01*
X169408000Y-94880836D01*
X169344333Y-94893500D01*
X162759329Y-94893500D01*
X162570748Y-94931011D01*
X162356900Y-95073900D01*
X162214011Y-95287748D01*
X162163835Y-95540000D01*
X157582165Y-95540000D01*
X157531989Y-95287748D01*
X157389100Y-95073900D01*
X157175252Y-94931011D01*
X156986671Y-94893500D01*
X149836671Y-94893500D01*
X149773000Y-94880835D01*
X149733445Y-94888703D01*
X149733445Y-94325000D01*
X149707911Y-94196631D01*
X149635195Y-94087805D01*
X149526369Y-94015089D01*
X149398000Y-93989555D01*
X148128000Y-93989555D01*
X147999631Y-94015089D01*
X147890805Y-94087805D01*
X147818089Y-94196631D01*
X147792555Y-94325000D01*
X111402000Y-94325000D01*
X111402000Y-73429000D01*
X125225170Y-73429000D01*
X124900601Y-73563441D01*
G04 #@! TD*
M02*
