G04 #@! TF.GenerationSoftware,KiCad,Pcbnew,(5.0.2)-1*
G04 #@! TF.CreationDate,2019-05-25T19:55:33-02:30*
G04 #@! TF.ProjectId,ControllerPCB,436f6e74-726f-46c6-9c65-725043422e6b,rev?*
G04 #@! TF.SameCoordinates,Original*
G04 #@! TF.FileFunction,Soldermask,Bot*
G04 #@! TF.FilePolarity,Negative*
%FSLAX46Y46*%
G04 Gerber Fmt 4.6, Leading zero omitted, Abs format (unit mm)*
G04 Created by KiCad (PCBNEW (5.0.2)-1) date 5/25/2019 7:55:33 PM*
%MOMM*%
%LPD*%
G01*
G04 APERTURE LIST*
%ADD10C,0.100000*%
G04 APERTURE END LIST*
D10*
G36*
X125560712Y-121871088D02*
X125930510Y-122024263D01*
X125930513Y-122024265D01*
X126263325Y-122246643D01*
X126546357Y-122529675D01*
X126730204Y-122804822D01*
X126768737Y-122862490D01*
X126921912Y-123232288D01*
X127000000Y-123624864D01*
X127000000Y-124025136D01*
X126921912Y-124417712D01*
X126768737Y-124787510D01*
X126768735Y-124787513D01*
X126546357Y-125120325D01*
X126263325Y-125403357D01*
X125930513Y-125625735D01*
X125930510Y-125625737D01*
X125560712Y-125778912D01*
X125168136Y-125857000D01*
X124767864Y-125857000D01*
X124375288Y-125778912D01*
X124005490Y-125625737D01*
X124005487Y-125625735D01*
X123672675Y-125403357D01*
X123389643Y-125120325D01*
X123167265Y-124787513D01*
X123167263Y-124787510D01*
X123014088Y-124417712D01*
X122936000Y-124025136D01*
X122936000Y-123624864D01*
X123014088Y-123232288D01*
X123167263Y-122862490D01*
X123205796Y-122804822D01*
X123389643Y-122529675D01*
X123672675Y-122246643D01*
X124005487Y-122024265D01*
X124005490Y-122024263D01*
X124375288Y-121871088D01*
X124767864Y-121793000D01*
X125168136Y-121793000D01*
X125560712Y-121871088D01*
X125560712Y-121871088D01*
G37*
G36*
X139107294Y-122821496D02*
X139227726Y-122858029D01*
X139270087Y-122870879D01*
X139420112Y-122951068D01*
X139551612Y-123058988D01*
X139659532Y-123190488D01*
X139739721Y-123340512D01*
X139752571Y-123382873D01*
X139789104Y-123503305D01*
X139789104Y-123503307D01*
X139801600Y-123630179D01*
X139801600Y-124019820D01*
X139801076Y-124025136D01*
X139789104Y-124146694D01*
X139752571Y-124267128D01*
X139739721Y-124309488D01*
X139659532Y-124459512D01*
X139551612Y-124591012D01*
X139420112Y-124698932D01*
X139270088Y-124779121D01*
X139242433Y-124787510D01*
X139107295Y-124828504D01*
X138994432Y-124839620D01*
X138938001Y-124845178D01*
X138938000Y-124845178D01*
X138768706Y-124828504D01*
X138633568Y-124787510D01*
X138605913Y-124779121D01*
X138455889Y-124698932D01*
X138365946Y-124625117D01*
X138324388Y-124591012D01*
X138216469Y-124459512D01*
X138194127Y-124417713D01*
X138136279Y-124309488D01*
X138123429Y-124267127D01*
X138086896Y-124146695D01*
X138078565Y-124062112D01*
X138074400Y-124019821D01*
X138074400Y-123630180D01*
X138086896Y-123503308D01*
X138086896Y-123503306D01*
X138136278Y-123340517D01*
X138136279Y-123340513D01*
X138216468Y-123190488D01*
X138324388Y-123058988D01*
X138455888Y-122951068D01*
X138605912Y-122870879D01*
X138648273Y-122858029D01*
X138768705Y-122821496D01*
X138881568Y-122810380D01*
X138937999Y-122804822D01*
X138938000Y-122804822D01*
X139107294Y-122821496D01*
X139107294Y-122821496D01*
G37*
G36*
X174667294Y-122821496D02*
X174787726Y-122858029D01*
X174830087Y-122870879D01*
X174980112Y-122951068D01*
X175111612Y-123058988D01*
X175219532Y-123190488D01*
X175299721Y-123340512D01*
X175312571Y-123382873D01*
X175349104Y-123503305D01*
X175349104Y-123503307D01*
X175361600Y-123630179D01*
X175361600Y-124019820D01*
X175361076Y-124025136D01*
X175349104Y-124146694D01*
X175312571Y-124267128D01*
X175299721Y-124309488D01*
X175219532Y-124459512D01*
X175111612Y-124591012D01*
X174980112Y-124698932D01*
X174830088Y-124779121D01*
X174802433Y-124787510D01*
X174667295Y-124828504D01*
X174554432Y-124839620D01*
X174498001Y-124845178D01*
X174498000Y-124845178D01*
X174328706Y-124828504D01*
X174193568Y-124787510D01*
X174165913Y-124779121D01*
X174015889Y-124698932D01*
X173925946Y-124625117D01*
X173884388Y-124591012D01*
X173776469Y-124459512D01*
X173754127Y-124417713D01*
X173696279Y-124309488D01*
X173683429Y-124267127D01*
X173646896Y-124146695D01*
X173638565Y-124062112D01*
X173634400Y-124019821D01*
X173634400Y-123630180D01*
X173646896Y-123503308D01*
X173646896Y-123503306D01*
X173696278Y-123340517D01*
X173696279Y-123340513D01*
X173776468Y-123190488D01*
X173884388Y-123058988D01*
X174015888Y-122951068D01*
X174165912Y-122870879D01*
X174208273Y-122858029D01*
X174328705Y-122821496D01*
X174441568Y-122810380D01*
X174497999Y-122804822D01*
X174498000Y-122804822D01*
X174667294Y-122821496D01*
X174667294Y-122821496D01*
G37*
G36*
X172127294Y-122821496D02*
X172247726Y-122858029D01*
X172290087Y-122870879D01*
X172440112Y-122951068D01*
X172571612Y-123058988D01*
X172679532Y-123190488D01*
X172759721Y-123340512D01*
X172772571Y-123382873D01*
X172809104Y-123503305D01*
X172809104Y-123503307D01*
X172821600Y-123630179D01*
X172821600Y-124019820D01*
X172821076Y-124025136D01*
X172809104Y-124146694D01*
X172772571Y-124267128D01*
X172759721Y-124309488D01*
X172679532Y-124459512D01*
X172571612Y-124591012D01*
X172440112Y-124698932D01*
X172290088Y-124779121D01*
X172262433Y-124787510D01*
X172127295Y-124828504D01*
X172014432Y-124839620D01*
X171958001Y-124845178D01*
X171958000Y-124845178D01*
X171788706Y-124828504D01*
X171653568Y-124787510D01*
X171625913Y-124779121D01*
X171475889Y-124698932D01*
X171385946Y-124625117D01*
X171344388Y-124591012D01*
X171236469Y-124459512D01*
X171214127Y-124417713D01*
X171156279Y-124309488D01*
X171143429Y-124267127D01*
X171106896Y-124146695D01*
X171098565Y-124062112D01*
X171094400Y-124019821D01*
X171094400Y-123630180D01*
X171106896Y-123503308D01*
X171106896Y-123503306D01*
X171156278Y-123340517D01*
X171156279Y-123340513D01*
X171236468Y-123190488D01*
X171344388Y-123058988D01*
X171475888Y-122951068D01*
X171625912Y-122870879D01*
X171668273Y-122858029D01*
X171788705Y-122821496D01*
X171901568Y-122810380D01*
X171957999Y-122804822D01*
X171958000Y-122804822D01*
X172127294Y-122821496D01*
X172127294Y-122821496D01*
G37*
G36*
X169587294Y-122821496D02*
X169707726Y-122858029D01*
X169750087Y-122870879D01*
X169900112Y-122951068D01*
X170031612Y-123058988D01*
X170139532Y-123190488D01*
X170219721Y-123340512D01*
X170232571Y-123382873D01*
X170269104Y-123503305D01*
X170269104Y-123503307D01*
X170281600Y-123630179D01*
X170281600Y-124019820D01*
X170281076Y-124025136D01*
X170269104Y-124146694D01*
X170232571Y-124267128D01*
X170219721Y-124309488D01*
X170139532Y-124459512D01*
X170031612Y-124591012D01*
X169900112Y-124698932D01*
X169750088Y-124779121D01*
X169722433Y-124787510D01*
X169587295Y-124828504D01*
X169474432Y-124839620D01*
X169418001Y-124845178D01*
X169418000Y-124845178D01*
X169248706Y-124828504D01*
X169113568Y-124787510D01*
X169085913Y-124779121D01*
X168935889Y-124698932D01*
X168845946Y-124625117D01*
X168804388Y-124591012D01*
X168696469Y-124459512D01*
X168674127Y-124417713D01*
X168616279Y-124309488D01*
X168603429Y-124267127D01*
X168566896Y-124146695D01*
X168558565Y-124062112D01*
X168554400Y-124019821D01*
X168554400Y-123630180D01*
X168566896Y-123503308D01*
X168566896Y-123503306D01*
X168616278Y-123340517D01*
X168616279Y-123340513D01*
X168696468Y-123190488D01*
X168804388Y-123058988D01*
X168935888Y-122951068D01*
X169085912Y-122870879D01*
X169128273Y-122858029D01*
X169248705Y-122821496D01*
X169361568Y-122810380D01*
X169417999Y-122804822D01*
X169418000Y-122804822D01*
X169587294Y-122821496D01*
X169587294Y-122821496D01*
G37*
G36*
X167047294Y-122821496D02*
X167167726Y-122858029D01*
X167210087Y-122870879D01*
X167360112Y-122951068D01*
X167491612Y-123058988D01*
X167599532Y-123190488D01*
X167679721Y-123340512D01*
X167692571Y-123382873D01*
X167729104Y-123503305D01*
X167729104Y-123503307D01*
X167741600Y-123630179D01*
X167741600Y-124019820D01*
X167741076Y-124025136D01*
X167729104Y-124146694D01*
X167692571Y-124267128D01*
X167679721Y-124309488D01*
X167599532Y-124459512D01*
X167491612Y-124591012D01*
X167360112Y-124698932D01*
X167210088Y-124779121D01*
X167182433Y-124787510D01*
X167047295Y-124828504D01*
X166934432Y-124839620D01*
X166878001Y-124845178D01*
X166878000Y-124845178D01*
X166708706Y-124828504D01*
X166573568Y-124787510D01*
X166545913Y-124779121D01*
X166395889Y-124698932D01*
X166305946Y-124625117D01*
X166264388Y-124591012D01*
X166156469Y-124459512D01*
X166134127Y-124417713D01*
X166076279Y-124309488D01*
X166063429Y-124267127D01*
X166026896Y-124146695D01*
X166018565Y-124062112D01*
X166014400Y-124019821D01*
X166014400Y-123630180D01*
X166026896Y-123503308D01*
X166026896Y-123503306D01*
X166076278Y-123340517D01*
X166076279Y-123340513D01*
X166156468Y-123190488D01*
X166264388Y-123058988D01*
X166395888Y-122951068D01*
X166545912Y-122870879D01*
X166588273Y-122858029D01*
X166708705Y-122821496D01*
X166821568Y-122810380D01*
X166877999Y-122804822D01*
X166878000Y-122804822D01*
X167047294Y-122821496D01*
X167047294Y-122821496D01*
G37*
G36*
X164507294Y-122821496D02*
X164627726Y-122858029D01*
X164670087Y-122870879D01*
X164820112Y-122951068D01*
X164951612Y-123058988D01*
X165059532Y-123190488D01*
X165139721Y-123340512D01*
X165152571Y-123382873D01*
X165189104Y-123503305D01*
X165189104Y-123503307D01*
X165201600Y-123630179D01*
X165201600Y-124019820D01*
X165201076Y-124025136D01*
X165189104Y-124146694D01*
X165152571Y-124267128D01*
X165139721Y-124309488D01*
X165059532Y-124459512D01*
X164951612Y-124591012D01*
X164820112Y-124698932D01*
X164670088Y-124779121D01*
X164642433Y-124787510D01*
X164507295Y-124828504D01*
X164394432Y-124839620D01*
X164338001Y-124845178D01*
X164338000Y-124845178D01*
X164168706Y-124828504D01*
X164033568Y-124787510D01*
X164005913Y-124779121D01*
X163855889Y-124698932D01*
X163765946Y-124625117D01*
X163724388Y-124591012D01*
X163616469Y-124459512D01*
X163594127Y-124417713D01*
X163536279Y-124309488D01*
X163523429Y-124267127D01*
X163486896Y-124146695D01*
X163478565Y-124062112D01*
X163474400Y-124019821D01*
X163474400Y-123630180D01*
X163486896Y-123503308D01*
X163486896Y-123503306D01*
X163536278Y-123340517D01*
X163536279Y-123340513D01*
X163616468Y-123190488D01*
X163724388Y-123058988D01*
X163855888Y-122951068D01*
X164005912Y-122870879D01*
X164048273Y-122858029D01*
X164168705Y-122821496D01*
X164281568Y-122810380D01*
X164337999Y-122804822D01*
X164338000Y-122804822D01*
X164507294Y-122821496D01*
X164507294Y-122821496D01*
G37*
G36*
X161967294Y-122821496D02*
X162087726Y-122858029D01*
X162130087Y-122870879D01*
X162280112Y-122951068D01*
X162411612Y-123058988D01*
X162519532Y-123190488D01*
X162599721Y-123340512D01*
X162612571Y-123382873D01*
X162649104Y-123503305D01*
X162649104Y-123503307D01*
X162661600Y-123630179D01*
X162661600Y-124019820D01*
X162661076Y-124025136D01*
X162649104Y-124146694D01*
X162612571Y-124267128D01*
X162599721Y-124309488D01*
X162519532Y-124459512D01*
X162411612Y-124591012D01*
X162280112Y-124698932D01*
X162130088Y-124779121D01*
X162102433Y-124787510D01*
X161967295Y-124828504D01*
X161854432Y-124839620D01*
X161798001Y-124845178D01*
X161798000Y-124845178D01*
X161628706Y-124828504D01*
X161493568Y-124787510D01*
X161465913Y-124779121D01*
X161315889Y-124698932D01*
X161225946Y-124625117D01*
X161184388Y-124591012D01*
X161076469Y-124459512D01*
X161054127Y-124417713D01*
X160996279Y-124309488D01*
X160983429Y-124267127D01*
X160946896Y-124146695D01*
X160938565Y-124062112D01*
X160934400Y-124019821D01*
X160934400Y-123630180D01*
X160946896Y-123503308D01*
X160946896Y-123503306D01*
X160996278Y-123340517D01*
X160996279Y-123340513D01*
X161076468Y-123190488D01*
X161184388Y-123058988D01*
X161315888Y-122951068D01*
X161465912Y-122870879D01*
X161508273Y-122858029D01*
X161628705Y-122821496D01*
X161741568Y-122810380D01*
X161797999Y-122804822D01*
X161798000Y-122804822D01*
X161967294Y-122821496D01*
X161967294Y-122821496D01*
G37*
G36*
X154347294Y-122821496D02*
X154467726Y-122858029D01*
X154510087Y-122870879D01*
X154660112Y-122951068D01*
X154791612Y-123058988D01*
X154899532Y-123190488D01*
X154979721Y-123340512D01*
X154992571Y-123382873D01*
X155029104Y-123503305D01*
X155029104Y-123503307D01*
X155041600Y-123630179D01*
X155041600Y-124019820D01*
X155041076Y-124025136D01*
X155029104Y-124146694D01*
X154992571Y-124267128D01*
X154979721Y-124309488D01*
X154899532Y-124459512D01*
X154791612Y-124591012D01*
X154660112Y-124698932D01*
X154510088Y-124779121D01*
X154482433Y-124787510D01*
X154347295Y-124828504D01*
X154234432Y-124839620D01*
X154178001Y-124845178D01*
X154178000Y-124845178D01*
X154008706Y-124828504D01*
X153873568Y-124787510D01*
X153845913Y-124779121D01*
X153695889Y-124698932D01*
X153605946Y-124625117D01*
X153564388Y-124591012D01*
X153456469Y-124459512D01*
X153434127Y-124417713D01*
X153376279Y-124309488D01*
X153363429Y-124267127D01*
X153326896Y-124146695D01*
X153318565Y-124062112D01*
X153314400Y-124019821D01*
X153314400Y-123630180D01*
X153326896Y-123503308D01*
X153326896Y-123503306D01*
X153376278Y-123340517D01*
X153376279Y-123340513D01*
X153456468Y-123190488D01*
X153564388Y-123058988D01*
X153695888Y-122951068D01*
X153845912Y-122870879D01*
X153888273Y-122858029D01*
X154008705Y-122821496D01*
X154121568Y-122810380D01*
X154177999Y-122804822D01*
X154178000Y-122804822D01*
X154347294Y-122821496D01*
X154347294Y-122821496D01*
G37*
G36*
X156887294Y-122821496D02*
X157007726Y-122858029D01*
X157050087Y-122870879D01*
X157200112Y-122951068D01*
X157331612Y-123058988D01*
X157439532Y-123190488D01*
X157519721Y-123340512D01*
X157532571Y-123382873D01*
X157569104Y-123503305D01*
X157569104Y-123503307D01*
X157581600Y-123630179D01*
X157581600Y-124019820D01*
X157581076Y-124025136D01*
X157569104Y-124146694D01*
X157532571Y-124267128D01*
X157519721Y-124309488D01*
X157439532Y-124459512D01*
X157331612Y-124591012D01*
X157200112Y-124698932D01*
X157050088Y-124779121D01*
X157022433Y-124787510D01*
X156887295Y-124828504D01*
X156774432Y-124839620D01*
X156718001Y-124845178D01*
X156718000Y-124845178D01*
X156548706Y-124828504D01*
X156413568Y-124787510D01*
X156385913Y-124779121D01*
X156235889Y-124698932D01*
X156145946Y-124625117D01*
X156104388Y-124591012D01*
X155996469Y-124459512D01*
X155974127Y-124417713D01*
X155916279Y-124309488D01*
X155903429Y-124267127D01*
X155866896Y-124146695D01*
X155858565Y-124062112D01*
X155854400Y-124019821D01*
X155854400Y-123630180D01*
X155866896Y-123503308D01*
X155866896Y-123503306D01*
X155916278Y-123340517D01*
X155916279Y-123340513D01*
X155996468Y-123190488D01*
X156104388Y-123058988D01*
X156235888Y-122951068D01*
X156385912Y-122870879D01*
X156428273Y-122858029D01*
X156548705Y-122821496D01*
X156661568Y-122810380D01*
X156717999Y-122804822D01*
X156718000Y-122804822D01*
X156887294Y-122821496D01*
X156887294Y-122821496D01*
G37*
G36*
X141647294Y-122821496D02*
X141767726Y-122858029D01*
X141810087Y-122870879D01*
X141960112Y-122951068D01*
X142091612Y-123058988D01*
X142199532Y-123190488D01*
X142279721Y-123340512D01*
X142292571Y-123382873D01*
X142329104Y-123503305D01*
X142329104Y-123503307D01*
X142341600Y-123630179D01*
X142341600Y-124019820D01*
X142341076Y-124025136D01*
X142329104Y-124146694D01*
X142292571Y-124267128D01*
X142279721Y-124309488D01*
X142199532Y-124459512D01*
X142091612Y-124591012D01*
X141960112Y-124698932D01*
X141810088Y-124779121D01*
X141782433Y-124787510D01*
X141647295Y-124828504D01*
X141534432Y-124839620D01*
X141478001Y-124845178D01*
X141478000Y-124845178D01*
X141308706Y-124828504D01*
X141173568Y-124787510D01*
X141145913Y-124779121D01*
X140995889Y-124698932D01*
X140905946Y-124625117D01*
X140864388Y-124591012D01*
X140756469Y-124459512D01*
X140734127Y-124417713D01*
X140676279Y-124309488D01*
X140663429Y-124267127D01*
X140626896Y-124146695D01*
X140618565Y-124062112D01*
X140614400Y-124019821D01*
X140614400Y-123630180D01*
X140626896Y-123503308D01*
X140626896Y-123503306D01*
X140676278Y-123340517D01*
X140676279Y-123340513D01*
X140756468Y-123190488D01*
X140864388Y-123058988D01*
X140995888Y-122951068D01*
X141145912Y-122870879D01*
X141188273Y-122858029D01*
X141308705Y-122821496D01*
X141421568Y-122810380D01*
X141477999Y-122804822D01*
X141478000Y-122804822D01*
X141647294Y-122821496D01*
X141647294Y-122821496D01*
G37*
G36*
X144187294Y-122821496D02*
X144307726Y-122858029D01*
X144350087Y-122870879D01*
X144500112Y-122951068D01*
X144631612Y-123058988D01*
X144739532Y-123190488D01*
X144819721Y-123340512D01*
X144832571Y-123382873D01*
X144869104Y-123503305D01*
X144869104Y-123503307D01*
X144881600Y-123630179D01*
X144881600Y-124019820D01*
X144881076Y-124025136D01*
X144869104Y-124146694D01*
X144832571Y-124267128D01*
X144819721Y-124309488D01*
X144739532Y-124459512D01*
X144631612Y-124591012D01*
X144500112Y-124698932D01*
X144350088Y-124779121D01*
X144322433Y-124787510D01*
X144187295Y-124828504D01*
X144074432Y-124839620D01*
X144018001Y-124845178D01*
X144018000Y-124845178D01*
X143848706Y-124828504D01*
X143713568Y-124787510D01*
X143685913Y-124779121D01*
X143535889Y-124698932D01*
X143445946Y-124625117D01*
X143404388Y-124591012D01*
X143296469Y-124459512D01*
X143274127Y-124417713D01*
X143216279Y-124309488D01*
X143203429Y-124267127D01*
X143166896Y-124146695D01*
X143158565Y-124062112D01*
X143154400Y-124019821D01*
X143154400Y-123630180D01*
X143166896Y-123503308D01*
X143166896Y-123503306D01*
X143216278Y-123340517D01*
X143216279Y-123340513D01*
X143296468Y-123190488D01*
X143404388Y-123058988D01*
X143535888Y-122951068D01*
X143685912Y-122870879D01*
X143728273Y-122858029D01*
X143848705Y-122821496D01*
X143961568Y-122810380D01*
X144017999Y-122804822D01*
X144018000Y-122804822D01*
X144187294Y-122821496D01*
X144187294Y-122821496D01*
G37*
G36*
X146727294Y-122821496D02*
X146847726Y-122858029D01*
X146890087Y-122870879D01*
X147040112Y-122951068D01*
X147171612Y-123058988D01*
X147279532Y-123190488D01*
X147359721Y-123340512D01*
X147372571Y-123382873D01*
X147409104Y-123503305D01*
X147409104Y-123503307D01*
X147421600Y-123630179D01*
X147421600Y-124019820D01*
X147421076Y-124025136D01*
X147409104Y-124146694D01*
X147372571Y-124267128D01*
X147359721Y-124309488D01*
X147279532Y-124459512D01*
X147171612Y-124591012D01*
X147040112Y-124698932D01*
X146890088Y-124779121D01*
X146862433Y-124787510D01*
X146727295Y-124828504D01*
X146614432Y-124839620D01*
X146558001Y-124845178D01*
X146558000Y-124845178D01*
X146388706Y-124828504D01*
X146253568Y-124787510D01*
X146225913Y-124779121D01*
X146075889Y-124698932D01*
X145985946Y-124625117D01*
X145944388Y-124591012D01*
X145836469Y-124459512D01*
X145814127Y-124417713D01*
X145756279Y-124309488D01*
X145743429Y-124267127D01*
X145706896Y-124146695D01*
X145698565Y-124062112D01*
X145694400Y-124019821D01*
X145694400Y-123630180D01*
X145706896Y-123503308D01*
X145706896Y-123503306D01*
X145756278Y-123340517D01*
X145756279Y-123340513D01*
X145836468Y-123190488D01*
X145944388Y-123058988D01*
X146075888Y-122951068D01*
X146225912Y-122870879D01*
X146268273Y-122858029D01*
X146388705Y-122821496D01*
X146501568Y-122810380D01*
X146557999Y-122804822D01*
X146558000Y-122804822D01*
X146727294Y-122821496D01*
X146727294Y-122821496D01*
G37*
G36*
X149267294Y-122821496D02*
X149387726Y-122858029D01*
X149430087Y-122870879D01*
X149580112Y-122951068D01*
X149711612Y-123058988D01*
X149819532Y-123190488D01*
X149899721Y-123340512D01*
X149912571Y-123382873D01*
X149949104Y-123503305D01*
X149949104Y-123503307D01*
X149961600Y-123630179D01*
X149961600Y-124019820D01*
X149961076Y-124025136D01*
X149949104Y-124146694D01*
X149912571Y-124267128D01*
X149899721Y-124309488D01*
X149819532Y-124459512D01*
X149711612Y-124591012D01*
X149580112Y-124698932D01*
X149430088Y-124779121D01*
X149402433Y-124787510D01*
X149267295Y-124828504D01*
X149154432Y-124839620D01*
X149098001Y-124845178D01*
X149098000Y-124845178D01*
X148928706Y-124828504D01*
X148793568Y-124787510D01*
X148765913Y-124779121D01*
X148615889Y-124698932D01*
X148525946Y-124625117D01*
X148484388Y-124591012D01*
X148376469Y-124459512D01*
X148354127Y-124417713D01*
X148296279Y-124309488D01*
X148283429Y-124267127D01*
X148246896Y-124146695D01*
X148238565Y-124062112D01*
X148234400Y-124019821D01*
X148234400Y-123630180D01*
X148246896Y-123503308D01*
X148246896Y-123503306D01*
X148296278Y-123340517D01*
X148296279Y-123340513D01*
X148376468Y-123190488D01*
X148484388Y-123058988D01*
X148615888Y-122951068D01*
X148765912Y-122870879D01*
X148808273Y-122858029D01*
X148928705Y-122821496D01*
X149041568Y-122810380D01*
X149097999Y-122804822D01*
X149098000Y-122804822D01*
X149267294Y-122821496D01*
X149267294Y-122821496D01*
G37*
G36*
X151807294Y-122821496D02*
X151927726Y-122858029D01*
X151970087Y-122870879D01*
X152120112Y-122951068D01*
X152251612Y-123058988D01*
X152359532Y-123190488D01*
X152439721Y-123340512D01*
X152452571Y-123382873D01*
X152489104Y-123503305D01*
X152489104Y-123503307D01*
X152501600Y-123630179D01*
X152501600Y-124019820D01*
X152501076Y-124025136D01*
X152489104Y-124146694D01*
X152452571Y-124267128D01*
X152439721Y-124309488D01*
X152359532Y-124459512D01*
X152251612Y-124591012D01*
X152120112Y-124698932D01*
X151970088Y-124779121D01*
X151942433Y-124787510D01*
X151807295Y-124828504D01*
X151694432Y-124839620D01*
X151638001Y-124845178D01*
X151638000Y-124845178D01*
X151468706Y-124828504D01*
X151333568Y-124787510D01*
X151305913Y-124779121D01*
X151155889Y-124698932D01*
X151065946Y-124625117D01*
X151024388Y-124591012D01*
X150916469Y-124459512D01*
X150894127Y-124417713D01*
X150836279Y-124309488D01*
X150823429Y-124267127D01*
X150786896Y-124146695D01*
X150778565Y-124062112D01*
X150774400Y-124019821D01*
X150774400Y-123630180D01*
X150786896Y-123503308D01*
X150786896Y-123503306D01*
X150836278Y-123340517D01*
X150836279Y-123340513D01*
X150916468Y-123190488D01*
X151024388Y-123058988D01*
X151155888Y-122951068D01*
X151305912Y-122870879D01*
X151348273Y-122858029D01*
X151468705Y-122821496D01*
X151581568Y-122810380D01*
X151637999Y-122804822D01*
X151638000Y-122804822D01*
X151807294Y-122821496D01*
X151807294Y-122821496D01*
G37*
G36*
X184529888Y-120649470D02*
X184710274Y-120685350D01*
X184901362Y-120764502D01*
X185073336Y-120879411D01*
X185219589Y-121025664D01*
X185334498Y-121197638D01*
X185413650Y-121388726D01*
X185454000Y-121591584D01*
X185454000Y-121798416D01*
X185413650Y-122001274D01*
X185334498Y-122192362D01*
X185219589Y-122364336D01*
X185073336Y-122510589D01*
X184901362Y-122625498D01*
X184710274Y-122704650D01*
X184529888Y-122740530D01*
X184507417Y-122745000D01*
X184300583Y-122745000D01*
X184278112Y-122740530D01*
X184097726Y-122704650D01*
X183906638Y-122625498D01*
X183734664Y-122510589D01*
X183588411Y-122364336D01*
X183473502Y-122192362D01*
X183394350Y-122001274D01*
X183354000Y-121798416D01*
X183354000Y-121591584D01*
X183394350Y-121388726D01*
X183473502Y-121197638D01*
X183588411Y-121025664D01*
X183734664Y-120879411D01*
X183906638Y-120764502D01*
X184097726Y-120685350D01*
X184278112Y-120649470D01*
X184300583Y-120645000D01*
X184507417Y-120645000D01*
X184529888Y-120649470D01*
X184529888Y-120649470D01*
G37*
G36*
X177630712Y-116791088D02*
X178000510Y-116944263D01*
X178000513Y-116944265D01*
X178333325Y-117166643D01*
X178616357Y-117449675D01*
X178838735Y-117782487D01*
X178838737Y-117782490D01*
X178991912Y-118152288D01*
X179070000Y-118544864D01*
X179070000Y-118945136D01*
X178991912Y-119337712D01*
X178838737Y-119707510D01*
X178838735Y-119707513D01*
X178616357Y-120040325D01*
X178333325Y-120323357D01*
X178000513Y-120545735D01*
X178000510Y-120545737D01*
X177630712Y-120698912D01*
X177238136Y-120777000D01*
X176837864Y-120777000D01*
X176445288Y-120698912D01*
X176075490Y-120545737D01*
X176075487Y-120545735D01*
X175742675Y-120323357D01*
X175459643Y-120040325D01*
X175237265Y-119707513D01*
X175237263Y-119707510D01*
X175084088Y-119337712D01*
X175006000Y-118945136D01*
X175006000Y-118544864D01*
X175084088Y-118152288D01*
X175237263Y-117782490D01*
X175237265Y-117782487D01*
X175459643Y-117449675D01*
X175742675Y-117166643D01*
X176075487Y-116944265D01*
X176075490Y-116944263D01*
X176445288Y-116791088D01*
X176837864Y-116713000D01*
X177238136Y-116713000D01*
X177630712Y-116791088D01*
X177630712Y-116791088D01*
G37*
G36*
X185454000Y-117665000D02*
X183354000Y-117665000D01*
X183354000Y-115565000D01*
X185454000Y-115565000D01*
X185454000Y-117665000D01*
X185454000Y-117665000D01*
G37*
G36*
X178623000Y-114715000D02*
X177373000Y-114715000D01*
X177373000Y-113715000D01*
X178623000Y-113715000D01*
X178623000Y-114715000D01*
X178623000Y-114715000D01*
G37*
G36*
X178623000Y-112515000D02*
X177373000Y-112515000D01*
X177373000Y-111515000D01*
X178623000Y-111515000D01*
X178623000Y-112515000D01*
X178623000Y-112515000D01*
G37*
G36*
X184529888Y-107031470D02*
X184710274Y-107067350D01*
X184901362Y-107146502D01*
X185073336Y-107261411D01*
X185219589Y-107407664D01*
X185334498Y-107579638D01*
X185413650Y-107770726D01*
X185454000Y-107973584D01*
X185454000Y-108180416D01*
X185413650Y-108383274D01*
X185334498Y-108574362D01*
X185219589Y-108746336D01*
X185073336Y-108892589D01*
X184901362Y-109007498D01*
X184710274Y-109086650D01*
X184529888Y-109122530D01*
X184507417Y-109127000D01*
X184300583Y-109127000D01*
X184278112Y-109122530D01*
X184097726Y-109086650D01*
X183906638Y-109007498D01*
X183734664Y-108892589D01*
X183588411Y-108746336D01*
X183473502Y-108574362D01*
X183394350Y-108383274D01*
X183354000Y-108180416D01*
X183354000Y-107973584D01*
X183394350Y-107770726D01*
X183473502Y-107579638D01*
X183588411Y-107407664D01*
X183734664Y-107261411D01*
X183906638Y-107146502D01*
X184097726Y-107067350D01*
X184278112Y-107031470D01*
X184300583Y-107027000D01*
X184507417Y-107027000D01*
X184529888Y-107031470D01*
X184529888Y-107031470D01*
G37*
G36*
X164743845Y-107884215D02*
X164834839Y-107921906D01*
X164912178Y-107973583D01*
X164916734Y-107976627D01*
X164986373Y-108046266D01*
X165041095Y-108128163D01*
X165078785Y-108219155D01*
X165098000Y-108315755D01*
X165098000Y-108414245D01*
X165078785Y-108510845D01*
X165041095Y-108601837D01*
X164986373Y-108683734D01*
X164916734Y-108753373D01*
X164916731Y-108753375D01*
X164834839Y-108808094D01*
X164743845Y-108845785D01*
X164647246Y-108865000D01*
X164548754Y-108865000D01*
X164452155Y-108845785D01*
X164361161Y-108808094D01*
X164279269Y-108753375D01*
X164279266Y-108753373D01*
X164209627Y-108683734D01*
X164154905Y-108601837D01*
X164117215Y-108510845D01*
X164098000Y-108414245D01*
X164098000Y-108315755D01*
X164117215Y-108219155D01*
X164154905Y-108128163D01*
X164209627Y-108046266D01*
X164279266Y-107976627D01*
X164283822Y-107973583D01*
X164361161Y-107921906D01*
X164452155Y-107884215D01*
X164548754Y-107865000D01*
X164647246Y-107865000D01*
X164743845Y-107884215D01*
X164743845Y-107884215D01*
G37*
G36*
X166643845Y-107884215D02*
X166734839Y-107921906D01*
X166812178Y-107973583D01*
X166816734Y-107976627D01*
X166886373Y-108046266D01*
X166941095Y-108128163D01*
X166978785Y-108219155D01*
X166998000Y-108315755D01*
X166998000Y-108414245D01*
X166978785Y-108510845D01*
X166941095Y-108601837D01*
X166886373Y-108683734D01*
X166816734Y-108753373D01*
X166816731Y-108753375D01*
X166734839Y-108808094D01*
X166643845Y-108845785D01*
X166547246Y-108865000D01*
X166448754Y-108865000D01*
X166352155Y-108845785D01*
X166261161Y-108808094D01*
X166179269Y-108753375D01*
X166179266Y-108753373D01*
X166109627Y-108683734D01*
X166054905Y-108601837D01*
X166017215Y-108510845D01*
X165998000Y-108414245D01*
X165998000Y-108315755D01*
X166017215Y-108219155D01*
X166054905Y-108128163D01*
X166109627Y-108046266D01*
X166179266Y-107976627D01*
X166183822Y-107973583D01*
X166261161Y-107921906D01*
X166352155Y-107884215D01*
X166448754Y-107865000D01*
X166547246Y-107865000D01*
X166643845Y-107884215D01*
X166643845Y-107884215D01*
G37*
G36*
X178623000Y-108715000D02*
X177373000Y-108715000D01*
X177373000Y-107715000D01*
X178623000Y-107715000D01*
X178623000Y-108715000D01*
X178623000Y-108715000D01*
G37*
G36*
X121623000Y-107240000D02*
X119873000Y-107240000D01*
X119873000Y-105490000D01*
X121623000Y-105490000D01*
X121623000Y-107240000D01*
X121623000Y-107240000D01*
G37*
G36*
X178623000Y-106515000D02*
X177373000Y-106515000D01*
X177373000Y-105515000D01*
X178623000Y-105515000D01*
X178623000Y-106515000D01*
X178623000Y-106515000D01*
G37*
G36*
X121003228Y-103023625D02*
X121162467Y-103089584D01*
X121305783Y-103185345D01*
X121427655Y-103307217D01*
X121523416Y-103450533D01*
X121589375Y-103609772D01*
X121623000Y-103778819D01*
X121623000Y-103951181D01*
X121589375Y-104120228D01*
X121523416Y-104279467D01*
X121427655Y-104422783D01*
X121305783Y-104544655D01*
X121162467Y-104640416D01*
X121003228Y-104706375D01*
X120834181Y-104740000D01*
X120661819Y-104740000D01*
X120492772Y-104706375D01*
X120333533Y-104640416D01*
X120190217Y-104544655D01*
X120068345Y-104422783D01*
X119972584Y-104279467D01*
X119906625Y-104120228D01*
X119873000Y-103951181D01*
X119873000Y-103778819D01*
X119906625Y-103609772D01*
X119972584Y-103450533D01*
X120068345Y-103307217D01*
X120190217Y-103185345D01*
X120333533Y-103089584D01*
X120492772Y-103023625D01*
X120661819Y-102990000D01*
X120834181Y-102990000D01*
X121003228Y-103023625D01*
X121003228Y-103023625D01*
G37*
G36*
X185454000Y-104047000D02*
X183354000Y-104047000D01*
X183354000Y-101947000D01*
X185454000Y-101947000D01*
X185454000Y-104047000D01*
X185454000Y-104047000D01*
G37*
G36*
X174789630Y-100142299D02*
X174949855Y-100190903D01*
X175097520Y-100269831D01*
X175226949Y-100376051D01*
X175333169Y-100505480D01*
X175412097Y-100653145D01*
X175460701Y-100813370D01*
X175477112Y-100980000D01*
X175460701Y-101146630D01*
X175412097Y-101306855D01*
X175333169Y-101454520D01*
X175226949Y-101583949D01*
X175097520Y-101690169D01*
X174949855Y-101769097D01*
X174789630Y-101817701D01*
X174664752Y-101830000D01*
X174581248Y-101830000D01*
X174456370Y-101817701D01*
X174296145Y-101769097D01*
X174148480Y-101690169D01*
X174019051Y-101583949D01*
X173912831Y-101454520D01*
X173833903Y-101306855D01*
X173785299Y-101146630D01*
X173768888Y-100980000D01*
X173785299Y-100813370D01*
X173833903Y-100653145D01*
X173912831Y-100505480D01*
X174019051Y-100376051D01*
X174148480Y-100269831D01*
X174296145Y-100190903D01*
X174456370Y-100142299D01*
X174581248Y-100130000D01*
X174664752Y-100130000D01*
X174789630Y-100142299D01*
X174789630Y-100142299D01*
G37*
G36*
X177329630Y-100142299D02*
X177489855Y-100190903D01*
X177637520Y-100269831D01*
X177766949Y-100376051D01*
X177873169Y-100505480D01*
X177952097Y-100653145D01*
X178000701Y-100813370D01*
X178017112Y-100980000D01*
X178000701Y-101146630D01*
X177952097Y-101306855D01*
X177873169Y-101454520D01*
X177766949Y-101583949D01*
X177637520Y-101690169D01*
X177489855Y-101769097D01*
X177329630Y-101817701D01*
X177204752Y-101830000D01*
X177121248Y-101830000D01*
X176996370Y-101817701D01*
X176836145Y-101769097D01*
X176688480Y-101690169D01*
X176559051Y-101583949D01*
X176452831Y-101454520D01*
X176373903Y-101306855D01*
X176325299Y-101146630D01*
X176308888Y-100980000D01*
X176325299Y-100813370D01*
X176373903Y-100653145D01*
X176452831Y-100505480D01*
X176559051Y-100376051D01*
X176688480Y-100269831D01*
X176836145Y-100190903D01*
X176996370Y-100142299D01*
X177121248Y-100130000D01*
X177204752Y-100130000D01*
X177329630Y-100142299D01*
X177329630Y-100142299D01*
G37*
G36*
X147373000Y-101465000D02*
X146123000Y-101465000D01*
X146123000Y-100465000D01*
X147373000Y-100465000D01*
X147373000Y-101465000D01*
X147373000Y-101465000D01*
G37*
G36*
X149398000Y-99405000D02*
X148128000Y-99405000D01*
X148128000Y-94325000D01*
X149398000Y-94325000D01*
X149398000Y-99405000D01*
X149398000Y-99405000D01*
G37*
G36*
X171368000Y-99405000D02*
X170098000Y-99405000D01*
X170098000Y-94325000D01*
X171368000Y-94325000D01*
X171368000Y-99405000D01*
X171368000Y-99405000D01*
G37*
G36*
X177329630Y-97602299D02*
X177489855Y-97650903D01*
X177637520Y-97729831D01*
X177766949Y-97836051D01*
X177873169Y-97965480D01*
X177952097Y-98113145D01*
X178000701Y-98273370D01*
X178017112Y-98440000D01*
X178000701Y-98606630D01*
X177952097Y-98766855D01*
X177873169Y-98914520D01*
X177766949Y-99043949D01*
X177637520Y-99150169D01*
X177489855Y-99229097D01*
X177329630Y-99277701D01*
X177204752Y-99290000D01*
X177121248Y-99290000D01*
X176996370Y-99277701D01*
X176836145Y-99229097D01*
X176688480Y-99150169D01*
X176559051Y-99043949D01*
X176452831Y-98914520D01*
X176373903Y-98766855D01*
X176325299Y-98606630D01*
X176308888Y-98440000D01*
X176325299Y-98273370D01*
X176373903Y-98113145D01*
X176452831Y-97965480D01*
X176559051Y-97836051D01*
X176688480Y-97729831D01*
X176836145Y-97650903D01*
X176996370Y-97602299D01*
X177121248Y-97590000D01*
X177204752Y-97590000D01*
X177329630Y-97602299D01*
X177329630Y-97602299D01*
G37*
G36*
X174789630Y-97602299D02*
X174949855Y-97650903D01*
X175097520Y-97729831D01*
X175226949Y-97836051D01*
X175333169Y-97965480D01*
X175412097Y-98113145D01*
X175460701Y-98273370D01*
X175477112Y-98440000D01*
X175460701Y-98606630D01*
X175412097Y-98766855D01*
X175333169Y-98914520D01*
X175226949Y-99043949D01*
X175097520Y-99150169D01*
X174949855Y-99229097D01*
X174789630Y-99277701D01*
X174664752Y-99290000D01*
X174581248Y-99290000D01*
X174456370Y-99277701D01*
X174296145Y-99229097D01*
X174148480Y-99150169D01*
X174019051Y-99043949D01*
X173912831Y-98914520D01*
X173833903Y-98766855D01*
X173785299Y-98606630D01*
X173768888Y-98440000D01*
X173785299Y-98273370D01*
X173833903Y-98113145D01*
X173912831Y-97965480D01*
X174019051Y-97836051D01*
X174148480Y-97729831D01*
X174296145Y-97650903D01*
X174456370Y-97602299D01*
X174581248Y-97590000D01*
X174664752Y-97590000D01*
X174789630Y-97602299D01*
X174789630Y-97602299D01*
G37*
G36*
X147373000Y-99265000D02*
X146123000Y-99265000D01*
X146123000Y-98265000D01*
X147373000Y-98265000D01*
X147373000Y-99265000D01*
X147373000Y-99265000D01*
G37*
G36*
X161728000Y-98845000D02*
X157768000Y-98845000D01*
X157768000Y-94885000D01*
X161728000Y-94885000D01*
X161728000Y-98845000D01*
X161728000Y-98845000D01*
G37*
G36*
X177329630Y-95062299D02*
X177489855Y-95110903D01*
X177637520Y-95189831D01*
X177766949Y-95296051D01*
X177873169Y-95425480D01*
X177952097Y-95573145D01*
X178000701Y-95733370D01*
X178017112Y-95900000D01*
X178000701Y-96066630D01*
X177952097Y-96226855D01*
X177873169Y-96374520D01*
X177766949Y-96503949D01*
X177637520Y-96610169D01*
X177489855Y-96689097D01*
X177329630Y-96737701D01*
X177204752Y-96750000D01*
X177121248Y-96750000D01*
X176996370Y-96737701D01*
X176836145Y-96689097D01*
X176688480Y-96610169D01*
X176559051Y-96503949D01*
X176452831Y-96374520D01*
X176373903Y-96226855D01*
X176325299Y-96066630D01*
X176308888Y-95900000D01*
X176325299Y-95733370D01*
X176373903Y-95573145D01*
X176452831Y-95425480D01*
X176559051Y-95296051D01*
X176688480Y-95189831D01*
X176836145Y-95110903D01*
X176996370Y-95062299D01*
X177121248Y-95050000D01*
X177204752Y-95050000D01*
X177329630Y-95062299D01*
X177329630Y-95062299D01*
G37*
G36*
X175473000Y-96750000D02*
X173773000Y-96750000D01*
X173773000Y-95050000D01*
X175473000Y-95050000D01*
X175473000Y-96750000D01*
X175473000Y-96750000D01*
G37*
G36*
X186003228Y-93523625D02*
X186162467Y-93589584D01*
X186305783Y-93685345D01*
X186427655Y-93807217D01*
X186523416Y-93950533D01*
X186589375Y-94109772D01*
X186623000Y-94278819D01*
X186623000Y-94451181D01*
X186589375Y-94620228D01*
X186523416Y-94779467D01*
X186427655Y-94922783D01*
X186305783Y-95044655D01*
X186162467Y-95140416D01*
X186003228Y-95206375D01*
X185834181Y-95240000D01*
X185661819Y-95240000D01*
X185492772Y-95206375D01*
X185333533Y-95140416D01*
X185190217Y-95044655D01*
X185068345Y-94922783D01*
X184972584Y-94779467D01*
X184906625Y-94620228D01*
X184873000Y-94451181D01*
X184873000Y-94278819D01*
X184906625Y-94109772D01*
X184972584Y-93950533D01*
X185068345Y-93807217D01*
X185190217Y-93685345D01*
X185333533Y-93589584D01*
X185492772Y-93523625D01*
X185661819Y-93490000D01*
X185834181Y-93490000D01*
X186003228Y-93523625D01*
X186003228Y-93523625D01*
G37*
G36*
X177630712Y-88851088D02*
X178000510Y-89004263D01*
X178000513Y-89004265D01*
X178333325Y-89226643D01*
X178616357Y-89509675D01*
X178690226Y-89620228D01*
X178838737Y-89842490D01*
X178991912Y-90212288D01*
X179070000Y-90604864D01*
X179070000Y-91005136D01*
X178991912Y-91397712D01*
X178838737Y-91767510D01*
X178838735Y-91767513D01*
X178616357Y-92100325D01*
X178333325Y-92383357D01*
X178000513Y-92605735D01*
X178000510Y-92605737D01*
X177630712Y-92758912D01*
X177238136Y-92837000D01*
X176837864Y-92837000D01*
X176445288Y-92758912D01*
X176075490Y-92605737D01*
X176075487Y-92605735D01*
X175742675Y-92383357D01*
X175459643Y-92100325D01*
X175237265Y-91767513D01*
X175237263Y-91767510D01*
X175084088Y-91397712D01*
X175006000Y-91005136D01*
X175006000Y-90604864D01*
X175084088Y-90212288D01*
X175237263Y-89842490D01*
X175385774Y-89620228D01*
X175459643Y-89509675D01*
X175742675Y-89226643D01*
X176075487Y-89004265D01*
X176075490Y-89004263D01*
X176445288Y-88851088D01*
X176837864Y-88773000D01*
X177238136Y-88773000D01*
X177630712Y-88851088D01*
X177630712Y-88851088D01*
G37*
G36*
X186003228Y-91023625D02*
X186162467Y-91089584D01*
X186305783Y-91185345D01*
X186427655Y-91307217D01*
X186523416Y-91450533D01*
X186589375Y-91609772D01*
X186623000Y-91778819D01*
X186623000Y-91951181D01*
X186589375Y-92120228D01*
X186523416Y-92279467D01*
X186427655Y-92422783D01*
X186305783Y-92544655D01*
X186162467Y-92640416D01*
X186003228Y-92706375D01*
X185834181Y-92740000D01*
X185661819Y-92740000D01*
X185492772Y-92706375D01*
X185333533Y-92640416D01*
X185190217Y-92544655D01*
X185068345Y-92422783D01*
X184972584Y-92279467D01*
X184906625Y-92120228D01*
X184873000Y-91951181D01*
X184873000Y-91778819D01*
X184906625Y-91609772D01*
X184972584Y-91450533D01*
X185068345Y-91307217D01*
X185190217Y-91185345D01*
X185333533Y-91089584D01*
X185492772Y-91023625D01*
X185661819Y-90990000D01*
X185834181Y-90990000D01*
X186003228Y-91023625D01*
X186003228Y-91023625D01*
G37*
G36*
X186003228Y-88523625D02*
X186162467Y-88589584D01*
X186305783Y-88685345D01*
X186427655Y-88807217D01*
X186523416Y-88950533D01*
X186589375Y-89109772D01*
X186623000Y-89278819D01*
X186623000Y-89451181D01*
X186589375Y-89620228D01*
X186523416Y-89779467D01*
X186427655Y-89922783D01*
X186305783Y-90044655D01*
X186162467Y-90140416D01*
X186003228Y-90206375D01*
X185834181Y-90240000D01*
X185661819Y-90240000D01*
X185492772Y-90206375D01*
X185333533Y-90140416D01*
X185190217Y-90044655D01*
X185068345Y-89922783D01*
X184972584Y-89779467D01*
X184906625Y-89620228D01*
X184873000Y-89451181D01*
X184873000Y-89278819D01*
X184906625Y-89109772D01*
X184972584Y-88950533D01*
X185068345Y-88807217D01*
X185190217Y-88685345D01*
X185333533Y-88589584D01*
X185492772Y-88523625D01*
X185661819Y-88490000D01*
X185834181Y-88490000D01*
X186003228Y-88523625D01*
X186003228Y-88523625D01*
G37*
G36*
X186003228Y-86023625D02*
X186162467Y-86089584D01*
X186305783Y-86185345D01*
X186427655Y-86307217D01*
X186523416Y-86450533D01*
X186589375Y-86609772D01*
X186623000Y-86778819D01*
X186623000Y-86951181D01*
X186589375Y-87120228D01*
X186523416Y-87279467D01*
X186427655Y-87422783D01*
X186305783Y-87544655D01*
X186162467Y-87640416D01*
X186003228Y-87706375D01*
X185834181Y-87740000D01*
X185661819Y-87740000D01*
X185492772Y-87706375D01*
X185333533Y-87640416D01*
X185190217Y-87544655D01*
X185068345Y-87422783D01*
X184972584Y-87279467D01*
X184906625Y-87120228D01*
X184873000Y-86951181D01*
X184873000Y-86778819D01*
X184906625Y-86609772D01*
X184972584Y-86450533D01*
X185068345Y-86307217D01*
X185190217Y-86185345D01*
X185333533Y-86089584D01*
X185492772Y-86023625D01*
X185661819Y-85990000D01*
X185834181Y-85990000D01*
X186003228Y-86023625D01*
X186003228Y-86023625D01*
G37*
G36*
X186003228Y-83523625D02*
X186162467Y-83589584D01*
X186305783Y-83685345D01*
X186427655Y-83807217D01*
X186523416Y-83950533D01*
X186589375Y-84109772D01*
X186623000Y-84278819D01*
X186623000Y-84451181D01*
X186589375Y-84620228D01*
X186523416Y-84779467D01*
X186427655Y-84922783D01*
X186305783Y-85044655D01*
X186162467Y-85140416D01*
X186003228Y-85206375D01*
X185834181Y-85240000D01*
X185661819Y-85240000D01*
X185492772Y-85206375D01*
X185333533Y-85140416D01*
X185190217Y-85044655D01*
X185068345Y-84922783D01*
X184972584Y-84779467D01*
X184906625Y-84620228D01*
X184873000Y-84451181D01*
X184873000Y-84278819D01*
X184906625Y-84109772D01*
X184972584Y-83950533D01*
X185068345Y-83807217D01*
X185190217Y-83685345D01*
X185333533Y-83589584D01*
X185492772Y-83523625D01*
X185661819Y-83490000D01*
X185834181Y-83490000D01*
X186003228Y-83523625D01*
X186003228Y-83523625D01*
G37*
G36*
X177096015Y-83182234D02*
X177190268Y-83210825D01*
X177236697Y-83235643D01*
X177277129Y-83257254D01*
X177277131Y-83257255D01*
X177277130Y-83257255D01*
X177353264Y-83319736D01*
X177415745Y-83395870D01*
X177462175Y-83482732D01*
X177490766Y-83576985D01*
X177500419Y-83675000D01*
X177490766Y-83773015D01*
X177462175Y-83867268D01*
X177437357Y-83913697D01*
X177415746Y-83954129D01*
X177353264Y-84030264D01*
X177277129Y-84092746D01*
X177245276Y-84109772D01*
X177190268Y-84139175D01*
X177096015Y-84167766D01*
X177022564Y-84175000D01*
X176973436Y-84175000D01*
X176899985Y-84167766D01*
X176805732Y-84139175D01*
X176750724Y-84109772D01*
X176718871Y-84092746D01*
X176642736Y-84030264D01*
X176580254Y-83954129D01*
X176558643Y-83913697D01*
X176533825Y-83867268D01*
X176505234Y-83773015D01*
X176495581Y-83675000D01*
X176505234Y-83576985D01*
X176533825Y-83482732D01*
X176580255Y-83395870D01*
X176642736Y-83319736D01*
X176718870Y-83257255D01*
X176718869Y-83257255D01*
X176718871Y-83257254D01*
X176759303Y-83235643D01*
X176805732Y-83210825D01*
X176899985Y-83182234D01*
X176973436Y-83175000D01*
X177022564Y-83175000D01*
X177096015Y-83182234D01*
X177096015Y-83182234D01*
G37*
G36*
X172846015Y-83182234D02*
X172940268Y-83210825D01*
X172986697Y-83235643D01*
X173027129Y-83257254D01*
X173027131Y-83257255D01*
X173027130Y-83257255D01*
X173103264Y-83319736D01*
X173165745Y-83395870D01*
X173212175Y-83482732D01*
X173240766Y-83576985D01*
X173250419Y-83675000D01*
X173240766Y-83773015D01*
X173212175Y-83867268D01*
X173187357Y-83913697D01*
X173165746Y-83954129D01*
X173103264Y-84030264D01*
X173027129Y-84092746D01*
X172995276Y-84109772D01*
X172940268Y-84139175D01*
X172846015Y-84167766D01*
X172772564Y-84175000D01*
X172723436Y-84175000D01*
X172649985Y-84167766D01*
X172555732Y-84139175D01*
X172500724Y-84109772D01*
X172468871Y-84092746D01*
X172392736Y-84030264D01*
X172330254Y-83954129D01*
X172308643Y-83913697D01*
X172283825Y-83867268D01*
X172255234Y-83773015D01*
X172245581Y-83675000D01*
X172255234Y-83576985D01*
X172283825Y-83482732D01*
X172330255Y-83395870D01*
X172392736Y-83319736D01*
X172468870Y-83257255D01*
X172468869Y-83257255D01*
X172468871Y-83257254D01*
X172509303Y-83235643D01*
X172555732Y-83210825D01*
X172649985Y-83182234D01*
X172723436Y-83175000D01*
X172772564Y-83175000D01*
X172846015Y-83182234D01*
X172846015Y-83182234D01*
G37*
G36*
X181548000Y-83490000D02*
X180548000Y-83490000D01*
X180548000Y-82240000D01*
X181548000Y-82240000D01*
X181548000Y-83490000D01*
X181548000Y-83490000D01*
G37*
G36*
X183748000Y-83490000D02*
X182748000Y-83490000D01*
X182748000Y-82240000D01*
X183748000Y-82240000D01*
X183748000Y-83490000D01*
X183748000Y-83490000D01*
G37*
G36*
X177096015Y-81912234D02*
X177190268Y-81940825D01*
X177209640Y-81951180D01*
X177277129Y-81987254D01*
X177353264Y-82049736D01*
X177415746Y-82125871D01*
X177437357Y-82166303D01*
X177462175Y-82212732D01*
X177490766Y-82306985D01*
X177500419Y-82405000D01*
X177490766Y-82503015D01*
X177462175Y-82597268D01*
X177439112Y-82640415D01*
X177415746Y-82684129D01*
X177353264Y-82760264D01*
X177277129Y-82822746D01*
X177236697Y-82844357D01*
X177190268Y-82869175D01*
X177096015Y-82897766D01*
X177022564Y-82905000D01*
X176973436Y-82905000D01*
X176899985Y-82897766D01*
X176805732Y-82869175D01*
X176759303Y-82844357D01*
X176718871Y-82822746D01*
X176642736Y-82760264D01*
X176580254Y-82684129D01*
X176556888Y-82640415D01*
X176533825Y-82597268D01*
X176505234Y-82503015D01*
X176495581Y-82405000D01*
X176505234Y-82306985D01*
X176533825Y-82212732D01*
X176558643Y-82166303D01*
X176580254Y-82125871D01*
X176642736Y-82049736D01*
X176718871Y-81987254D01*
X176786360Y-81951180D01*
X176805732Y-81940825D01*
X176899985Y-81912234D01*
X176973436Y-81905000D01*
X177022564Y-81905000D01*
X177096015Y-81912234D01*
X177096015Y-81912234D01*
G37*
G36*
X172846015Y-81912234D02*
X172940268Y-81940825D01*
X172959640Y-81951180D01*
X173027129Y-81987254D01*
X173103264Y-82049736D01*
X173165746Y-82125871D01*
X173187357Y-82166303D01*
X173212175Y-82212732D01*
X173240766Y-82306985D01*
X173250419Y-82405000D01*
X173240766Y-82503015D01*
X173212175Y-82597268D01*
X173189112Y-82640415D01*
X173165746Y-82684129D01*
X173103264Y-82760264D01*
X173027129Y-82822746D01*
X172986697Y-82844357D01*
X172940268Y-82869175D01*
X172846015Y-82897766D01*
X172772564Y-82905000D01*
X172723436Y-82905000D01*
X172649985Y-82897766D01*
X172555732Y-82869175D01*
X172509303Y-82844357D01*
X172468871Y-82822746D01*
X172392736Y-82760264D01*
X172330254Y-82684129D01*
X172306888Y-82640415D01*
X172283825Y-82597268D01*
X172255234Y-82503015D01*
X172245581Y-82405000D01*
X172255234Y-82306985D01*
X172283825Y-82212732D01*
X172308643Y-82166303D01*
X172330254Y-82125871D01*
X172392736Y-82049736D01*
X172468871Y-81987254D01*
X172536360Y-81951180D01*
X172555732Y-81940825D01*
X172649985Y-81912234D01*
X172723436Y-81905000D01*
X172772564Y-81905000D01*
X172846015Y-81912234D01*
X172846015Y-81912234D01*
G37*
G36*
X165096015Y-81912234D02*
X165190268Y-81940825D01*
X165209640Y-81951180D01*
X165277129Y-81987254D01*
X165353264Y-82049736D01*
X165415746Y-82125871D01*
X165437357Y-82166303D01*
X165462175Y-82212732D01*
X165490766Y-82306985D01*
X165500419Y-82405000D01*
X165490766Y-82503015D01*
X165462175Y-82597268D01*
X165439112Y-82640415D01*
X165415746Y-82684129D01*
X165353264Y-82760264D01*
X165277129Y-82822746D01*
X165236697Y-82844357D01*
X165190268Y-82869175D01*
X165096015Y-82897766D01*
X165022564Y-82905000D01*
X164973436Y-82905000D01*
X164899985Y-82897766D01*
X164805732Y-82869175D01*
X164759303Y-82844357D01*
X164718871Y-82822746D01*
X164642736Y-82760264D01*
X164580254Y-82684129D01*
X164556888Y-82640415D01*
X164533825Y-82597268D01*
X164505234Y-82503015D01*
X164495581Y-82405000D01*
X164505234Y-82306985D01*
X164533825Y-82212732D01*
X164558643Y-82166303D01*
X164580254Y-82125871D01*
X164642736Y-82049736D01*
X164718871Y-81987254D01*
X164786360Y-81951180D01*
X164805732Y-81940825D01*
X164899985Y-81912234D01*
X164973436Y-81905000D01*
X165022564Y-81905000D01*
X165096015Y-81912234D01*
X165096015Y-81912234D01*
G37*
G36*
X169096015Y-81912234D02*
X169190268Y-81940825D01*
X169209640Y-81951180D01*
X169277129Y-81987254D01*
X169353264Y-82049736D01*
X169415746Y-82125871D01*
X169437357Y-82166303D01*
X169462175Y-82212732D01*
X169490766Y-82306985D01*
X169500419Y-82405000D01*
X169490766Y-82503015D01*
X169462175Y-82597268D01*
X169439112Y-82640415D01*
X169415746Y-82684129D01*
X169353264Y-82760264D01*
X169277129Y-82822746D01*
X169236697Y-82844357D01*
X169190268Y-82869175D01*
X169096015Y-82897766D01*
X169022564Y-82905000D01*
X168973436Y-82905000D01*
X168899985Y-82897766D01*
X168805732Y-82869175D01*
X168759303Y-82844357D01*
X168718871Y-82822746D01*
X168642736Y-82760264D01*
X168580254Y-82684129D01*
X168556888Y-82640415D01*
X168533825Y-82597268D01*
X168505234Y-82503015D01*
X168495581Y-82405000D01*
X168505234Y-82306985D01*
X168533825Y-82212732D01*
X168558643Y-82166303D01*
X168580254Y-82125871D01*
X168642736Y-82049736D01*
X168718871Y-81987254D01*
X168786360Y-81951180D01*
X168805732Y-81940825D01*
X168899985Y-81912234D01*
X168973436Y-81905000D01*
X169022564Y-81905000D01*
X169096015Y-81912234D01*
X169096015Y-81912234D01*
G37*
G36*
X186003228Y-81023625D02*
X186162467Y-81089584D01*
X186305783Y-81185345D01*
X186427655Y-81307217D01*
X186523416Y-81450533D01*
X186589375Y-81609772D01*
X186623000Y-81778819D01*
X186623000Y-81951181D01*
X186589375Y-82120228D01*
X186523416Y-82279467D01*
X186427655Y-82422783D01*
X186305783Y-82544655D01*
X186162467Y-82640416D01*
X186003228Y-82706375D01*
X185834181Y-82740000D01*
X185661819Y-82740000D01*
X185492772Y-82706375D01*
X185333533Y-82640416D01*
X185190217Y-82544655D01*
X185068345Y-82422783D01*
X184972584Y-82279467D01*
X184906625Y-82120228D01*
X184873000Y-81951181D01*
X184873000Y-81778819D01*
X184906625Y-81609772D01*
X184972584Y-81450533D01*
X185068345Y-81307217D01*
X185190217Y-81185345D01*
X185333533Y-81089584D01*
X185492772Y-81023625D01*
X185661819Y-80990000D01*
X185834181Y-80990000D01*
X186003228Y-81023625D01*
X186003228Y-81023625D01*
G37*
G36*
X159753228Y-80523625D02*
X159912467Y-80589584D01*
X160055783Y-80685345D01*
X160177655Y-80807217D01*
X160273416Y-80950533D01*
X160339375Y-81109772D01*
X160373000Y-81278819D01*
X160373000Y-81451181D01*
X160339375Y-81620228D01*
X160273416Y-81779467D01*
X160177655Y-81922783D01*
X160055783Y-82044655D01*
X159912467Y-82140416D01*
X159753228Y-82206375D01*
X159584181Y-82240000D01*
X159411819Y-82240000D01*
X159242772Y-82206375D01*
X159083533Y-82140416D01*
X158940217Y-82044655D01*
X158818345Y-81922783D01*
X158722584Y-81779467D01*
X158656625Y-81620228D01*
X158623000Y-81451181D01*
X158623000Y-81278819D01*
X158656625Y-81109772D01*
X158722584Y-80950533D01*
X158818345Y-80807217D01*
X158940217Y-80685345D01*
X159083533Y-80589584D01*
X159242772Y-80523625D01*
X159411819Y-80490000D01*
X159584181Y-80490000D01*
X159753228Y-80523625D01*
X159753228Y-80523625D01*
G37*
G36*
X155373000Y-82240000D02*
X153623000Y-82240000D01*
X153623000Y-80490000D01*
X155373000Y-80490000D01*
X155373000Y-82240000D01*
X155373000Y-82240000D01*
G37*
G36*
X157253228Y-80523625D02*
X157412467Y-80589584D01*
X157555783Y-80685345D01*
X157677655Y-80807217D01*
X157773416Y-80950533D01*
X157839375Y-81109772D01*
X157873000Y-81278819D01*
X157873000Y-81451181D01*
X157839375Y-81620228D01*
X157773416Y-81779467D01*
X157677655Y-81922783D01*
X157555783Y-82044655D01*
X157412467Y-82140416D01*
X157253228Y-82206375D01*
X157084181Y-82240000D01*
X156911819Y-82240000D01*
X156742772Y-82206375D01*
X156583533Y-82140416D01*
X156440217Y-82044655D01*
X156318345Y-81922783D01*
X156222584Y-81779467D01*
X156156625Y-81620228D01*
X156123000Y-81451181D01*
X156123000Y-81278819D01*
X156156625Y-81109772D01*
X156222584Y-80950533D01*
X156318345Y-80807217D01*
X156440217Y-80685345D01*
X156583533Y-80589584D01*
X156742772Y-80523625D01*
X156911819Y-80490000D01*
X157084181Y-80490000D01*
X157253228Y-80523625D01*
X157253228Y-80523625D01*
G37*
G36*
X165096015Y-80642234D02*
X165190268Y-80670825D01*
X165217432Y-80685345D01*
X165277129Y-80717254D01*
X165277131Y-80717255D01*
X165277130Y-80717255D01*
X165353264Y-80779736D01*
X165415745Y-80855870D01*
X165462175Y-80942732D01*
X165490766Y-81036985D01*
X165500419Y-81135000D01*
X165490766Y-81233015D01*
X165462175Y-81327268D01*
X165437357Y-81373697D01*
X165415746Y-81414129D01*
X165353264Y-81490264D01*
X165277129Y-81552746D01*
X165236697Y-81574357D01*
X165190268Y-81599175D01*
X165096015Y-81627766D01*
X165022564Y-81635000D01*
X164973436Y-81635000D01*
X164899985Y-81627766D01*
X164805732Y-81599175D01*
X164759303Y-81574357D01*
X164718871Y-81552746D01*
X164642736Y-81490264D01*
X164580254Y-81414129D01*
X164558643Y-81373697D01*
X164533825Y-81327268D01*
X164505234Y-81233015D01*
X164495581Y-81135000D01*
X164505234Y-81036985D01*
X164533825Y-80942732D01*
X164580255Y-80855870D01*
X164642736Y-80779736D01*
X164718870Y-80717255D01*
X164718869Y-80717255D01*
X164718871Y-80717254D01*
X164778568Y-80685345D01*
X164805732Y-80670825D01*
X164899985Y-80642234D01*
X164973436Y-80635000D01*
X165022564Y-80635000D01*
X165096015Y-80642234D01*
X165096015Y-80642234D01*
G37*
G36*
X172846015Y-80642234D02*
X172940268Y-80670825D01*
X172967432Y-80685345D01*
X173027129Y-80717254D01*
X173027131Y-80717255D01*
X173027130Y-80717255D01*
X173103264Y-80779736D01*
X173165745Y-80855870D01*
X173212175Y-80942732D01*
X173240766Y-81036985D01*
X173250419Y-81135000D01*
X173240766Y-81233015D01*
X173212175Y-81327268D01*
X173187357Y-81373697D01*
X173165746Y-81414129D01*
X173103264Y-81490264D01*
X173027129Y-81552746D01*
X172986697Y-81574357D01*
X172940268Y-81599175D01*
X172846015Y-81627766D01*
X172772564Y-81635000D01*
X172723436Y-81635000D01*
X172649985Y-81627766D01*
X172555732Y-81599175D01*
X172509303Y-81574357D01*
X172468871Y-81552746D01*
X172392736Y-81490264D01*
X172330254Y-81414129D01*
X172308643Y-81373697D01*
X172283825Y-81327268D01*
X172255234Y-81233015D01*
X172245581Y-81135000D01*
X172255234Y-81036985D01*
X172283825Y-80942732D01*
X172330255Y-80855870D01*
X172392736Y-80779736D01*
X172468870Y-80717255D01*
X172468869Y-80717255D01*
X172468871Y-80717254D01*
X172528568Y-80685345D01*
X172555732Y-80670825D01*
X172649985Y-80642234D01*
X172723436Y-80635000D01*
X172772564Y-80635000D01*
X172846015Y-80642234D01*
X172846015Y-80642234D01*
G37*
G36*
X177096015Y-80642234D02*
X177190268Y-80670825D01*
X177217432Y-80685345D01*
X177277129Y-80717254D01*
X177277131Y-80717255D01*
X177277130Y-80717255D01*
X177353264Y-80779736D01*
X177415745Y-80855870D01*
X177462175Y-80942732D01*
X177490766Y-81036985D01*
X177500419Y-81135000D01*
X177490766Y-81233015D01*
X177462175Y-81327268D01*
X177437357Y-81373697D01*
X177415746Y-81414129D01*
X177353264Y-81490264D01*
X177277129Y-81552746D01*
X177236697Y-81574357D01*
X177190268Y-81599175D01*
X177096015Y-81627766D01*
X177022564Y-81635000D01*
X176973436Y-81635000D01*
X176899985Y-81627766D01*
X176805732Y-81599175D01*
X176759303Y-81574357D01*
X176718871Y-81552746D01*
X176642736Y-81490264D01*
X176580254Y-81414129D01*
X176558643Y-81373697D01*
X176533825Y-81327268D01*
X176505234Y-81233015D01*
X176495581Y-81135000D01*
X176505234Y-81036985D01*
X176533825Y-80942732D01*
X176580255Y-80855870D01*
X176642736Y-80779736D01*
X176718870Y-80717255D01*
X176718869Y-80717255D01*
X176718871Y-80717254D01*
X176778568Y-80685345D01*
X176805732Y-80670825D01*
X176899985Y-80642234D01*
X176973436Y-80635000D01*
X177022564Y-80635000D01*
X177096015Y-80642234D01*
X177096015Y-80642234D01*
G37*
G36*
X169096015Y-80642234D02*
X169190268Y-80670825D01*
X169217432Y-80685345D01*
X169277129Y-80717254D01*
X169277131Y-80717255D01*
X169277130Y-80717255D01*
X169353264Y-80779736D01*
X169415745Y-80855870D01*
X169462175Y-80942732D01*
X169490766Y-81036985D01*
X169500419Y-81135000D01*
X169490766Y-81233015D01*
X169462175Y-81327268D01*
X169437357Y-81373697D01*
X169415746Y-81414129D01*
X169353264Y-81490264D01*
X169277129Y-81552746D01*
X169236697Y-81574357D01*
X169190268Y-81599175D01*
X169096015Y-81627766D01*
X169022564Y-81635000D01*
X168973436Y-81635000D01*
X168899985Y-81627766D01*
X168805732Y-81599175D01*
X168759303Y-81574357D01*
X168718871Y-81552746D01*
X168642736Y-81490264D01*
X168580254Y-81414129D01*
X168558643Y-81373697D01*
X168533825Y-81327268D01*
X168505234Y-81233015D01*
X168495581Y-81135000D01*
X168505234Y-81036985D01*
X168533825Y-80942732D01*
X168580255Y-80855870D01*
X168642736Y-80779736D01*
X168718870Y-80717255D01*
X168718869Y-80717255D01*
X168718871Y-80717254D01*
X168778568Y-80685345D01*
X168805732Y-80670825D01*
X168899985Y-80642234D01*
X168973436Y-80635000D01*
X169022564Y-80635000D01*
X169096015Y-80642234D01*
X169096015Y-80642234D01*
G37*
G36*
X181548000Y-80490000D02*
X180548000Y-80490000D01*
X180548000Y-79240000D01*
X181548000Y-79240000D01*
X181548000Y-80490000D01*
X181548000Y-80490000D01*
G37*
G36*
X183748000Y-80490000D02*
X182748000Y-80490000D01*
X182748000Y-79240000D01*
X183748000Y-79240000D01*
X183748000Y-80490000D01*
X183748000Y-80490000D01*
G37*
G36*
X173248000Y-80365000D02*
X172248000Y-80365000D01*
X172248000Y-79365000D01*
X173248000Y-79365000D01*
X173248000Y-80365000D01*
X173248000Y-80365000D01*
G37*
G36*
X169498000Y-80365000D02*
X168498000Y-80365000D01*
X168498000Y-79365000D01*
X169498000Y-79365000D01*
X169498000Y-80365000D01*
X169498000Y-80365000D01*
G37*
G36*
X177498000Y-80365000D02*
X176498000Y-80365000D01*
X176498000Y-79365000D01*
X177498000Y-79365000D01*
X177498000Y-80365000D01*
X177498000Y-80365000D01*
G37*
G36*
X165498000Y-80365000D02*
X164498000Y-80365000D01*
X164498000Y-79365000D01*
X165498000Y-79365000D01*
X165498000Y-80365000D01*
X165498000Y-80365000D01*
G37*
G36*
X186003228Y-78523625D02*
X186162467Y-78589584D01*
X186305783Y-78685345D01*
X186427655Y-78807217D01*
X186523416Y-78950533D01*
X186589375Y-79109772D01*
X186623000Y-79278819D01*
X186623000Y-79451181D01*
X186589375Y-79620228D01*
X186523416Y-79779467D01*
X186427655Y-79922783D01*
X186305783Y-80044655D01*
X186162467Y-80140416D01*
X186003228Y-80206375D01*
X185834181Y-80240000D01*
X185661819Y-80240000D01*
X185492772Y-80206375D01*
X185333533Y-80140416D01*
X185190217Y-80044655D01*
X185068345Y-79922783D01*
X184972584Y-79779467D01*
X184906625Y-79620228D01*
X184873000Y-79451181D01*
X184873000Y-79278819D01*
X184906625Y-79109772D01*
X184972584Y-78950533D01*
X185068345Y-78807217D01*
X185190217Y-78685345D01*
X185333533Y-78589584D01*
X185492772Y-78523625D01*
X185661819Y-78490000D01*
X185834181Y-78490000D01*
X186003228Y-78523625D01*
X186003228Y-78523625D01*
G37*
G36*
X186623000Y-77740000D02*
X184873000Y-77740000D01*
X184873000Y-75990000D01*
X186623000Y-75990000D01*
X186623000Y-77740000D01*
X186623000Y-77740000D01*
G37*
G36*
X126830712Y-73611088D02*
X127200510Y-73764263D01*
X127200513Y-73764265D01*
X127533325Y-73986643D01*
X127816357Y-74269675D01*
X128000204Y-74544822D01*
X128038737Y-74602490D01*
X128191912Y-74972288D01*
X128270000Y-75364864D01*
X128270000Y-75765136D01*
X128191912Y-76157712D01*
X128038737Y-76527510D01*
X128038735Y-76527513D01*
X127816357Y-76860325D01*
X127533325Y-77143357D01*
X127200513Y-77365735D01*
X127200510Y-77365737D01*
X126830712Y-77518912D01*
X126438136Y-77597000D01*
X126037864Y-77597000D01*
X125645288Y-77518912D01*
X125275490Y-77365737D01*
X125275487Y-77365735D01*
X124942675Y-77143357D01*
X124659643Y-76860325D01*
X124437265Y-76527513D01*
X124437263Y-76527510D01*
X124284088Y-76157712D01*
X124206000Y-75765136D01*
X124206000Y-75364864D01*
X124284088Y-74972288D01*
X124437263Y-74602490D01*
X124475796Y-74544822D01*
X124659643Y-74269675D01*
X124942675Y-73986643D01*
X125275487Y-73764265D01*
X125275490Y-73764263D01*
X125645288Y-73611088D01*
X126037864Y-73533000D01*
X126438136Y-73533000D01*
X126830712Y-73611088D01*
X126830712Y-73611088D01*
G37*
G36*
X181548000Y-77490000D02*
X180548000Y-77490000D01*
X180548000Y-76240000D01*
X181548000Y-76240000D01*
X181548000Y-77490000D01*
X181548000Y-77490000D01*
G37*
G36*
X183748000Y-77490000D02*
X182748000Y-77490000D01*
X182748000Y-76240000D01*
X183748000Y-76240000D01*
X183748000Y-77490000D01*
X183748000Y-77490000D01*
G37*
G36*
X156887294Y-74561496D02*
X157007726Y-74598029D01*
X157050087Y-74610879D01*
X157200112Y-74691068D01*
X157331612Y-74798988D01*
X157439532Y-74930488D01*
X157519721Y-75080512D01*
X157532571Y-75122873D01*
X157569104Y-75243305D01*
X157569104Y-75243307D01*
X157581600Y-75370179D01*
X157581600Y-75759820D01*
X157581076Y-75765136D01*
X157569104Y-75886694D01*
X157537766Y-75990000D01*
X157519721Y-76049488D01*
X157439532Y-76199512D01*
X157331612Y-76331012D01*
X157200112Y-76438932D01*
X157050088Y-76519121D01*
X157022433Y-76527510D01*
X156887295Y-76568504D01*
X156774432Y-76579620D01*
X156718001Y-76585178D01*
X156718000Y-76585178D01*
X156548706Y-76568504D01*
X156413568Y-76527510D01*
X156385913Y-76519121D01*
X156235889Y-76438932D01*
X156145946Y-76365117D01*
X156104388Y-76331012D01*
X155996469Y-76199512D01*
X155974127Y-76157713D01*
X155916279Y-76049488D01*
X155898234Y-75990000D01*
X155866896Y-75886695D01*
X155858565Y-75802112D01*
X155854400Y-75759821D01*
X155854400Y-75370180D01*
X155866896Y-75243308D01*
X155866896Y-75243306D01*
X155916278Y-75080517D01*
X155916279Y-75080513D01*
X155996468Y-74930488D01*
X156104388Y-74798988D01*
X156235888Y-74691068D01*
X156385912Y-74610879D01*
X156428273Y-74598029D01*
X156548705Y-74561496D01*
X156661568Y-74550380D01*
X156717999Y-74544822D01*
X156718000Y-74544822D01*
X156887294Y-74561496D01*
X156887294Y-74561496D01*
G37*
G36*
X152823294Y-74561496D02*
X152943726Y-74598029D01*
X152986087Y-74610879D01*
X153136112Y-74691068D01*
X153267612Y-74798988D01*
X153375532Y-74930488D01*
X153455721Y-75080512D01*
X153468571Y-75122873D01*
X153505104Y-75243305D01*
X153505104Y-75243307D01*
X153517600Y-75370179D01*
X153517600Y-75759820D01*
X153517076Y-75765136D01*
X153505104Y-75886694D01*
X153473766Y-75990000D01*
X153455721Y-76049488D01*
X153375532Y-76199512D01*
X153267612Y-76331012D01*
X153136112Y-76438932D01*
X152986088Y-76519121D01*
X152958433Y-76527510D01*
X152823295Y-76568504D01*
X152710432Y-76579620D01*
X152654001Y-76585178D01*
X152654000Y-76585178D01*
X152484706Y-76568504D01*
X152349568Y-76527510D01*
X152321913Y-76519121D01*
X152171889Y-76438932D01*
X152081946Y-76365117D01*
X152040388Y-76331012D01*
X151932469Y-76199512D01*
X151910127Y-76157713D01*
X151852279Y-76049488D01*
X151834234Y-75990000D01*
X151802896Y-75886695D01*
X151794565Y-75802112D01*
X151790400Y-75759821D01*
X151790400Y-75370180D01*
X151802896Y-75243308D01*
X151802896Y-75243306D01*
X151852278Y-75080517D01*
X151852279Y-75080513D01*
X151932468Y-74930488D01*
X152040388Y-74798988D01*
X152171888Y-74691068D01*
X152321912Y-74610879D01*
X152364273Y-74598029D01*
X152484705Y-74561496D01*
X152597568Y-74550380D01*
X152653999Y-74544822D01*
X152654000Y-74544822D01*
X152823294Y-74561496D01*
X152823294Y-74561496D01*
G37*
G36*
X161967294Y-74561496D02*
X162087726Y-74598029D01*
X162130087Y-74610879D01*
X162280112Y-74691068D01*
X162411612Y-74798988D01*
X162519532Y-74930488D01*
X162599721Y-75080512D01*
X162612571Y-75122873D01*
X162649104Y-75243305D01*
X162649104Y-75243307D01*
X162661600Y-75370179D01*
X162661600Y-75759820D01*
X162661076Y-75765136D01*
X162649104Y-75886694D01*
X162617766Y-75990000D01*
X162599721Y-76049488D01*
X162519532Y-76199512D01*
X162411612Y-76331012D01*
X162280112Y-76438932D01*
X162130088Y-76519121D01*
X162102433Y-76527510D01*
X161967295Y-76568504D01*
X161854432Y-76579620D01*
X161798001Y-76585178D01*
X161798000Y-76585178D01*
X161628706Y-76568504D01*
X161493568Y-76527510D01*
X161465913Y-76519121D01*
X161315889Y-76438932D01*
X161225946Y-76365117D01*
X161184388Y-76331012D01*
X161076469Y-76199512D01*
X161054127Y-76157713D01*
X160996279Y-76049488D01*
X160978234Y-75990000D01*
X160946896Y-75886695D01*
X160938565Y-75802112D01*
X160934400Y-75759821D01*
X160934400Y-75370180D01*
X160946896Y-75243308D01*
X160946896Y-75243306D01*
X160996278Y-75080517D01*
X160996279Y-75080513D01*
X161076468Y-74930488D01*
X161184388Y-74798988D01*
X161315888Y-74691068D01*
X161465912Y-74610879D01*
X161508273Y-74598029D01*
X161628705Y-74561496D01*
X161741568Y-74550380D01*
X161797999Y-74544822D01*
X161798000Y-74544822D01*
X161967294Y-74561496D01*
X161967294Y-74561496D01*
G37*
G36*
X132503294Y-74561496D02*
X132623726Y-74598029D01*
X132666087Y-74610879D01*
X132816112Y-74691068D01*
X132947612Y-74798988D01*
X133055532Y-74930488D01*
X133135721Y-75080512D01*
X133148571Y-75122873D01*
X133185104Y-75243305D01*
X133185104Y-75243307D01*
X133197600Y-75370179D01*
X133197600Y-75759820D01*
X133197076Y-75765136D01*
X133185104Y-75886694D01*
X133153766Y-75990000D01*
X133135721Y-76049488D01*
X133055532Y-76199512D01*
X132947612Y-76331012D01*
X132816112Y-76438932D01*
X132666088Y-76519121D01*
X132638433Y-76527510D01*
X132503295Y-76568504D01*
X132390432Y-76579620D01*
X132334001Y-76585178D01*
X132334000Y-76585178D01*
X132164706Y-76568504D01*
X132029568Y-76527510D01*
X132001913Y-76519121D01*
X131851889Y-76438932D01*
X131761946Y-76365117D01*
X131720388Y-76331012D01*
X131612469Y-76199512D01*
X131590127Y-76157713D01*
X131532279Y-76049488D01*
X131514234Y-75990000D01*
X131482896Y-75886695D01*
X131474565Y-75802112D01*
X131470400Y-75759821D01*
X131470400Y-75370180D01*
X131482896Y-75243308D01*
X131482896Y-75243306D01*
X131532278Y-75080517D01*
X131532279Y-75080513D01*
X131612468Y-74930488D01*
X131720388Y-74798988D01*
X131851888Y-74691068D01*
X132001912Y-74610879D01*
X132044273Y-74598029D01*
X132164705Y-74561496D01*
X132277568Y-74550380D01*
X132333999Y-74544822D01*
X132334000Y-74544822D01*
X132503294Y-74561496D01*
X132503294Y-74561496D01*
G37*
G36*
X135043294Y-74561496D02*
X135163726Y-74598029D01*
X135206087Y-74610879D01*
X135356112Y-74691068D01*
X135487612Y-74798988D01*
X135595532Y-74930488D01*
X135675721Y-75080512D01*
X135688571Y-75122873D01*
X135725104Y-75243305D01*
X135725104Y-75243307D01*
X135737600Y-75370179D01*
X135737600Y-75759820D01*
X135737076Y-75765136D01*
X135725104Y-75886694D01*
X135693766Y-75990000D01*
X135675721Y-76049488D01*
X135595532Y-76199512D01*
X135487612Y-76331012D01*
X135356112Y-76438932D01*
X135206088Y-76519121D01*
X135178433Y-76527510D01*
X135043295Y-76568504D01*
X134930432Y-76579620D01*
X134874001Y-76585178D01*
X134874000Y-76585178D01*
X134704706Y-76568504D01*
X134569568Y-76527510D01*
X134541913Y-76519121D01*
X134391889Y-76438932D01*
X134301946Y-76365117D01*
X134260388Y-76331012D01*
X134152469Y-76199512D01*
X134130127Y-76157713D01*
X134072279Y-76049488D01*
X134054234Y-75990000D01*
X134022896Y-75886695D01*
X134014565Y-75802112D01*
X134010400Y-75759821D01*
X134010400Y-75370180D01*
X134022896Y-75243308D01*
X134022896Y-75243306D01*
X134072278Y-75080517D01*
X134072279Y-75080513D01*
X134152468Y-74930488D01*
X134260388Y-74798988D01*
X134391888Y-74691068D01*
X134541912Y-74610879D01*
X134584273Y-74598029D01*
X134704705Y-74561496D01*
X134817568Y-74550380D01*
X134873999Y-74544822D01*
X134874000Y-74544822D01*
X135043294Y-74561496D01*
X135043294Y-74561496D01*
G37*
G36*
X164507294Y-74561496D02*
X164627726Y-74598029D01*
X164670087Y-74610879D01*
X164820112Y-74691068D01*
X164951612Y-74798988D01*
X165059532Y-74930488D01*
X165139721Y-75080512D01*
X165152571Y-75122873D01*
X165189104Y-75243305D01*
X165189104Y-75243307D01*
X165201600Y-75370179D01*
X165201600Y-75759820D01*
X165201076Y-75765136D01*
X165189104Y-75886694D01*
X165157766Y-75990000D01*
X165139721Y-76049488D01*
X165059532Y-76199512D01*
X164951612Y-76331012D01*
X164820112Y-76438932D01*
X164670088Y-76519121D01*
X164642433Y-76527510D01*
X164507295Y-76568504D01*
X164394432Y-76579620D01*
X164338001Y-76585178D01*
X164338000Y-76585178D01*
X164168706Y-76568504D01*
X164033568Y-76527510D01*
X164005913Y-76519121D01*
X163855889Y-76438932D01*
X163765946Y-76365117D01*
X163724388Y-76331012D01*
X163616469Y-76199512D01*
X163594127Y-76157713D01*
X163536279Y-76049488D01*
X163518234Y-75990000D01*
X163486896Y-75886695D01*
X163478565Y-75802112D01*
X163474400Y-75759821D01*
X163474400Y-75370180D01*
X163486896Y-75243308D01*
X163486896Y-75243306D01*
X163536278Y-75080517D01*
X163536279Y-75080513D01*
X163616468Y-74930488D01*
X163724388Y-74798988D01*
X163855888Y-74691068D01*
X164005912Y-74610879D01*
X164048273Y-74598029D01*
X164168705Y-74561496D01*
X164281568Y-74550380D01*
X164337999Y-74544822D01*
X164338000Y-74544822D01*
X164507294Y-74561496D01*
X164507294Y-74561496D01*
G37*
G36*
X137583294Y-74561496D02*
X137703726Y-74598029D01*
X137746087Y-74610879D01*
X137896112Y-74691068D01*
X138027612Y-74798988D01*
X138135532Y-74930488D01*
X138215721Y-75080512D01*
X138228571Y-75122873D01*
X138265104Y-75243305D01*
X138265104Y-75243307D01*
X138277600Y-75370179D01*
X138277600Y-75759820D01*
X138277076Y-75765136D01*
X138265104Y-75886694D01*
X138233766Y-75990000D01*
X138215721Y-76049488D01*
X138135532Y-76199512D01*
X138027612Y-76331012D01*
X137896112Y-76438932D01*
X137746088Y-76519121D01*
X137718433Y-76527510D01*
X137583295Y-76568504D01*
X137470432Y-76579620D01*
X137414001Y-76585178D01*
X137414000Y-76585178D01*
X137244706Y-76568504D01*
X137109568Y-76527510D01*
X137081913Y-76519121D01*
X136931889Y-76438932D01*
X136841946Y-76365117D01*
X136800388Y-76331012D01*
X136692469Y-76199512D01*
X136670127Y-76157713D01*
X136612279Y-76049488D01*
X136594234Y-75990000D01*
X136562896Y-75886695D01*
X136554565Y-75802112D01*
X136550400Y-75759821D01*
X136550400Y-75370180D01*
X136562896Y-75243308D01*
X136562896Y-75243306D01*
X136612278Y-75080517D01*
X136612279Y-75080513D01*
X136692468Y-74930488D01*
X136800388Y-74798988D01*
X136931888Y-74691068D01*
X137081912Y-74610879D01*
X137124273Y-74598029D01*
X137244705Y-74561496D01*
X137357568Y-74550380D01*
X137413999Y-74544822D01*
X137414000Y-74544822D01*
X137583294Y-74561496D01*
X137583294Y-74561496D01*
G37*
G36*
X140123294Y-74561496D02*
X140243726Y-74598029D01*
X140286087Y-74610879D01*
X140436112Y-74691068D01*
X140567612Y-74798988D01*
X140675532Y-74930488D01*
X140755721Y-75080512D01*
X140768571Y-75122873D01*
X140805104Y-75243305D01*
X140805104Y-75243307D01*
X140817600Y-75370179D01*
X140817600Y-75759820D01*
X140817076Y-75765136D01*
X140805104Y-75886694D01*
X140773766Y-75990000D01*
X140755721Y-76049488D01*
X140675532Y-76199512D01*
X140567612Y-76331012D01*
X140436112Y-76438932D01*
X140286088Y-76519121D01*
X140258433Y-76527510D01*
X140123295Y-76568504D01*
X140010432Y-76579620D01*
X139954001Y-76585178D01*
X139954000Y-76585178D01*
X139784706Y-76568504D01*
X139649568Y-76527510D01*
X139621913Y-76519121D01*
X139471889Y-76438932D01*
X139381946Y-76365117D01*
X139340388Y-76331012D01*
X139232469Y-76199512D01*
X139210127Y-76157713D01*
X139152279Y-76049488D01*
X139134234Y-75990000D01*
X139102896Y-75886695D01*
X139094565Y-75802112D01*
X139090400Y-75759821D01*
X139090400Y-75370180D01*
X139102896Y-75243308D01*
X139102896Y-75243306D01*
X139152278Y-75080517D01*
X139152279Y-75080513D01*
X139232468Y-74930488D01*
X139340388Y-74798988D01*
X139471888Y-74691068D01*
X139621912Y-74610879D01*
X139664273Y-74598029D01*
X139784705Y-74561496D01*
X139897568Y-74550380D01*
X139953999Y-74544822D01*
X139954000Y-74544822D01*
X140123294Y-74561496D01*
X140123294Y-74561496D01*
G37*
G36*
X167047294Y-74561496D02*
X167167726Y-74598029D01*
X167210087Y-74610879D01*
X167360112Y-74691068D01*
X167491612Y-74798988D01*
X167599532Y-74930488D01*
X167679721Y-75080512D01*
X167692571Y-75122873D01*
X167729104Y-75243305D01*
X167729104Y-75243307D01*
X167741600Y-75370179D01*
X167741600Y-75759820D01*
X167741076Y-75765136D01*
X167729104Y-75886694D01*
X167697766Y-75990000D01*
X167679721Y-76049488D01*
X167599532Y-76199512D01*
X167491612Y-76331012D01*
X167360112Y-76438932D01*
X167210088Y-76519121D01*
X167182433Y-76527510D01*
X167047295Y-76568504D01*
X166934432Y-76579620D01*
X166878001Y-76585178D01*
X166878000Y-76585178D01*
X166708706Y-76568504D01*
X166573568Y-76527510D01*
X166545913Y-76519121D01*
X166395889Y-76438932D01*
X166305946Y-76365117D01*
X166264388Y-76331012D01*
X166156469Y-76199512D01*
X166134127Y-76157713D01*
X166076279Y-76049488D01*
X166058234Y-75990000D01*
X166026896Y-75886695D01*
X166018565Y-75802112D01*
X166014400Y-75759821D01*
X166014400Y-75370180D01*
X166026896Y-75243308D01*
X166026896Y-75243306D01*
X166076278Y-75080517D01*
X166076279Y-75080513D01*
X166156468Y-74930488D01*
X166264388Y-74798988D01*
X166395888Y-74691068D01*
X166545912Y-74610879D01*
X166588273Y-74598029D01*
X166708705Y-74561496D01*
X166821568Y-74550380D01*
X166877999Y-74544822D01*
X166878000Y-74544822D01*
X167047294Y-74561496D01*
X167047294Y-74561496D01*
G37*
G36*
X169587294Y-74561496D02*
X169707726Y-74598029D01*
X169750087Y-74610879D01*
X169900112Y-74691068D01*
X170031612Y-74798988D01*
X170139532Y-74930488D01*
X170219721Y-75080512D01*
X170232571Y-75122873D01*
X170269104Y-75243305D01*
X170269104Y-75243307D01*
X170281600Y-75370179D01*
X170281600Y-75759820D01*
X170281076Y-75765136D01*
X170269104Y-75886694D01*
X170237766Y-75990000D01*
X170219721Y-76049488D01*
X170139532Y-76199512D01*
X170031612Y-76331012D01*
X169900112Y-76438932D01*
X169750088Y-76519121D01*
X169722433Y-76527510D01*
X169587295Y-76568504D01*
X169474432Y-76579620D01*
X169418001Y-76585178D01*
X169418000Y-76585178D01*
X169248706Y-76568504D01*
X169113568Y-76527510D01*
X169085913Y-76519121D01*
X168935889Y-76438932D01*
X168845946Y-76365117D01*
X168804388Y-76331012D01*
X168696469Y-76199512D01*
X168674127Y-76157713D01*
X168616279Y-76049488D01*
X168598234Y-75990000D01*
X168566896Y-75886695D01*
X168558565Y-75802112D01*
X168554400Y-75759821D01*
X168554400Y-75370180D01*
X168566896Y-75243308D01*
X168566896Y-75243306D01*
X168616278Y-75080517D01*
X168616279Y-75080513D01*
X168696468Y-74930488D01*
X168804388Y-74798988D01*
X168935888Y-74691068D01*
X169085912Y-74610879D01*
X169128273Y-74598029D01*
X169248705Y-74561496D01*
X169361568Y-74550380D01*
X169417999Y-74544822D01*
X169418000Y-74544822D01*
X169587294Y-74561496D01*
X169587294Y-74561496D01*
G37*
G36*
X159427294Y-74561496D02*
X159547726Y-74598029D01*
X159590087Y-74610879D01*
X159740112Y-74691068D01*
X159871612Y-74798988D01*
X159979532Y-74930488D01*
X160059721Y-75080512D01*
X160072571Y-75122873D01*
X160109104Y-75243305D01*
X160109104Y-75243307D01*
X160121600Y-75370179D01*
X160121600Y-75759820D01*
X160121076Y-75765136D01*
X160109104Y-75886694D01*
X160077766Y-75990000D01*
X160059721Y-76049488D01*
X159979532Y-76199512D01*
X159871612Y-76331012D01*
X159740112Y-76438932D01*
X159590088Y-76519121D01*
X159562433Y-76527510D01*
X159427295Y-76568504D01*
X159314432Y-76579620D01*
X159258001Y-76585178D01*
X159258000Y-76585178D01*
X159088706Y-76568504D01*
X158953568Y-76527510D01*
X158925913Y-76519121D01*
X158775889Y-76438932D01*
X158685946Y-76365117D01*
X158644388Y-76331012D01*
X158536469Y-76199512D01*
X158514127Y-76157713D01*
X158456279Y-76049488D01*
X158438234Y-75990000D01*
X158406896Y-75886695D01*
X158398565Y-75802112D01*
X158394400Y-75759821D01*
X158394400Y-75370180D01*
X158406896Y-75243308D01*
X158406896Y-75243306D01*
X158456278Y-75080517D01*
X158456279Y-75080513D01*
X158536468Y-74930488D01*
X158644388Y-74798988D01*
X158775888Y-74691068D01*
X158925912Y-74610879D01*
X158968273Y-74598029D01*
X159088705Y-74561496D01*
X159201568Y-74550380D01*
X159257999Y-74544822D01*
X159258000Y-74544822D01*
X159427294Y-74561496D01*
X159427294Y-74561496D01*
G37*
G36*
X174667294Y-74561496D02*
X174787726Y-74598029D01*
X174830087Y-74610879D01*
X174980112Y-74691068D01*
X175111612Y-74798988D01*
X175219532Y-74930488D01*
X175299721Y-75080512D01*
X175312571Y-75122873D01*
X175349104Y-75243305D01*
X175349104Y-75243307D01*
X175361600Y-75370179D01*
X175361600Y-75759820D01*
X175361076Y-75765136D01*
X175349104Y-75886694D01*
X175317766Y-75990000D01*
X175299721Y-76049488D01*
X175219532Y-76199512D01*
X175111612Y-76331012D01*
X174980112Y-76438932D01*
X174830088Y-76519121D01*
X174802433Y-76527510D01*
X174667295Y-76568504D01*
X174554432Y-76579620D01*
X174498001Y-76585178D01*
X174498000Y-76585178D01*
X174328706Y-76568504D01*
X174193568Y-76527510D01*
X174165913Y-76519121D01*
X174015889Y-76438932D01*
X173925946Y-76365117D01*
X173884388Y-76331012D01*
X173776469Y-76199512D01*
X173754127Y-76157713D01*
X173696279Y-76049488D01*
X173678234Y-75990000D01*
X173646896Y-75886695D01*
X173638565Y-75802112D01*
X173634400Y-75759821D01*
X173634400Y-75370180D01*
X173646896Y-75243308D01*
X173646896Y-75243306D01*
X173696278Y-75080517D01*
X173696279Y-75080513D01*
X173776468Y-74930488D01*
X173884388Y-74798988D01*
X174015888Y-74691068D01*
X174165912Y-74610879D01*
X174208273Y-74598029D01*
X174328705Y-74561496D01*
X174441568Y-74550380D01*
X174497999Y-74544822D01*
X174498000Y-74544822D01*
X174667294Y-74561496D01*
X174667294Y-74561496D01*
G37*
G36*
X142663294Y-74561496D02*
X142783726Y-74598029D01*
X142826087Y-74610879D01*
X142976112Y-74691068D01*
X143107612Y-74798988D01*
X143215532Y-74930488D01*
X143295721Y-75080512D01*
X143308571Y-75122873D01*
X143345104Y-75243305D01*
X143345104Y-75243307D01*
X143357600Y-75370179D01*
X143357600Y-75759820D01*
X143357076Y-75765136D01*
X143345104Y-75886694D01*
X143313766Y-75990000D01*
X143295721Y-76049488D01*
X143215532Y-76199512D01*
X143107612Y-76331012D01*
X142976112Y-76438932D01*
X142826088Y-76519121D01*
X142798433Y-76527510D01*
X142663295Y-76568504D01*
X142550432Y-76579620D01*
X142494001Y-76585178D01*
X142494000Y-76585178D01*
X142324706Y-76568504D01*
X142189568Y-76527510D01*
X142161913Y-76519121D01*
X142011889Y-76438932D01*
X141921946Y-76365117D01*
X141880388Y-76331012D01*
X141772469Y-76199512D01*
X141750127Y-76157713D01*
X141692279Y-76049488D01*
X141674234Y-75990000D01*
X141642896Y-75886695D01*
X141634565Y-75802112D01*
X141630400Y-75759821D01*
X141630400Y-75370180D01*
X141642896Y-75243308D01*
X141642896Y-75243306D01*
X141692278Y-75080517D01*
X141692279Y-75080513D01*
X141772468Y-74930488D01*
X141880388Y-74798988D01*
X142011888Y-74691068D01*
X142161912Y-74610879D01*
X142204273Y-74598029D01*
X142324705Y-74561496D01*
X142437568Y-74550380D01*
X142493999Y-74544822D01*
X142494000Y-74544822D01*
X142663294Y-74561496D01*
X142663294Y-74561496D01*
G37*
G36*
X145203294Y-74561496D02*
X145323726Y-74598029D01*
X145366087Y-74610879D01*
X145516112Y-74691068D01*
X145647612Y-74798988D01*
X145755532Y-74930488D01*
X145835721Y-75080512D01*
X145848571Y-75122873D01*
X145885104Y-75243305D01*
X145885104Y-75243307D01*
X145897600Y-75370179D01*
X145897600Y-75759820D01*
X145897076Y-75765136D01*
X145885104Y-75886694D01*
X145853766Y-75990000D01*
X145835721Y-76049488D01*
X145755532Y-76199512D01*
X145647612Y-76331012D01*
X145516112Y-76438932D01*
X145366088Y-76519121D01*
X145338433Y-76527510D01*
X145203295Y-76568504D01*
X145090432Y-76579620D01*
X145034001Y-76585178D01*
X145034000Y-76585178D01*
X144864706Y-76568504D01*
X144729568Y-76527510D01*
X144701913Y-76519121D01*
X144551889Y-76438932D01*
X144461946Y-76365117D01*
X144420388Y-76331012D01*
X144312469Y-76199512D01*
X144290127Y-76157713D01*
X144232279Y-76049488D01*
X144214234Y-75990000D01*
X144182896Y-75886695D01*
X144174565Y-75802112D01*
X144170400Y-75759821D01*
X144170400Y-75370180D01*
X144182896Y-75243308D01*
X144182896Y-75243306D01*
X144232278Y-75080517D01*
X144232279Y-75080513D01*
X144312468Y-74930488D01*
X144420388Y-74798988D01*
X144551888Y-74691068D01*
X144701912Y-74610879D01*
X144744273Y-74598029D01*
X144864705Y-74561496D01*
X144977568Y-74550380D01*
X145033999Y-74544822D01*
X145034000Y-74544822D01*
X145203294Y-74561496D01*
X145203294Y-74561496D01*
G37*
G36*
X147743294Y-74561496D02*
X147863726Y-74598029D01*
X147906087Y-74610879D01*
X148056112Y-74691068D01*
X148187612Y-74798988D01*
X148295532Y-74930488D01*
X148375721Y-75080512D01*
X148388571Y-75122873D01*
X148425104Y-75243305D01*
X148425104Y-75243307D01*
X148437600Y-75370179D01*
X148437600Y-75759820D01*
X148437076Y-75765136D01*
X148425104Y-75886694D01*
X148393766Y-75990000D01*
X148375721Y-76049488D01*
X148295532Y-76199512D01*
X148187612Y-76331012D01*
X148056112Y-76438932D01*
X147906088Y-76519121D01*
X147878433Y-76527510D01*
X147743295Y-76568504D01*
X147630432Y-76579620D01*
X147574001Y-76585178D01*
X147574000Y-76585178D01*
X147404706Y-76568504D01*
X147269568Y-76527510D01*
X147241913Y-76519121D01*
X147091889Y-76438932D01*
X147001946Y-76365117D01*
X146960388Y-76331012D01*
X146852469Y-76199512D01*
X146830127Y-76157713D01*
X146772279Y-76049488D01*
X146754234Y-75990000D01*
X146722896Y-75886695D01*
X146714565Y-75802112D01*
X146710400Y-75759821D01*
X146710400Y-75370180D01*
X146722896Y-75243308D01*
X146722896Y-75243306D01*
X146772278Y-75080517D01*
X146772279Y-75080513D01*
X146852468Y-74930488D01*
X146960388Y-74798988D01*
X147091888Y-74691068D01*
X147241912Y-74610879D01*
X147284273Y-74598029D01*
X147404705Y-74561496D01*
X147517568Y-74550380D01*
X147573999Y-74544822D01*
X147574000Y-74544822D01*
X147743294Y-74561496D01*
X147743294Y-74561496D01*
G37*
G36*
X150283294Y-74561496D02*
X150403726Y-74598029D01*
X150446087Y-74610879D01*
X150596112Y-74691068D01*
X150727612Y-74798988D01*
X150835532Y-74930488D01*
X150915721Y-75080512D01*
X150928571Y-75122873D01*
X150965104Y-75243305D01*
X150965104Y-75243307D01*
X150977600Y-75370179D01*
X150977600Y-75759820D01*
X150977076Y-75765136D01*
X150965104Y-75886694D01*
X150933766Y-75990000D01*
X150915721Y-76049488D01*
X150835532Y-76199512D01*
X150727612Y-76331012D01*
X150596112Y-76438932D01*
X150446088Y-76519121D01*
X150418433Y-76527510D01*
X150283295Y-76568504D01*
X150170432Y-76579620D01*
X150114001Y-76585178D01*
X150114000Y-76585178D01*
X149944706Y-76568504D01*
X149809568Y-76527510D01*
X149781913Y-76519121D01*
X149631889Y-76438932D01*
X149541946Y-76365117D01*
X149500388Y-76331012D01*
X149392469Y-76199512D01*
X149370127Y-76157713D01*
X149312279Y-76049488D01*
X149294234Y-75990000D01*
X149262896Y-75886695D01*
X149254565Y-75802112D01*
X149250400Y-75759821D01*
X149250400Y-75370180D01*
X149262896Y-75243308D01*
X149262896Y-75243306D01*
X149312278Y-75080517D01*
X149312279Y-75080513D01*
X149392468Y-74930488D01*
X149500388Y-74798988D01*
X149631888Y-74691068D01*
X149781912Y-74610879D01*
X149824273Y-74598029D01*
X149944705Y-74561496D01*
X150057568Y-74550380D01*
X150113999Y-74544822D01*
X150114000Y-74544822D01*
X150283294Y-74561496D01*
X150283294Y-74561496D01*
G37*
G36*
X129963294Y-74561496D02*
X130083726Y-74598029D01*
X130126087Y-74610879D01*
X130276112Y-74691068D01*
X130407612Y-74798988D01*
X130515532Y-74930488D01*
X130595721Y-75080512D01*
X130608571Y-75122873D01*
X130645104Y-75243305D01*
X130645104Y-75243307D01*
X130657600Y-75370179D01*
X130657600Y-75759820D01*
X130657076Y-75765136D01*
X130645104Y-75886694D01*
X130613766Y-75990000D01*
X130595721Y-76049488D01*
X130515532Y-76199512D01*
X130407612Y-76331012D01*
X130276112Y-76438932D01*
X130126088Y-76519121D01*
X130098433Y-76527510D01*
X129963295Y-76568504D01*
X129850432Y-76579620D01*
X129794001Y-76585178D01*
X129794000Y-76585178D01*
X129624706Y-76568504D01*
X129489568Y-76527510D01*
X129461913Y-76519121D01*
X129311889Y-76438932D01*
X129221946Y-76365117D01*
X129180388Y-76331012D01*
X129072469Y-76199512D01*
X129050127Y-76157713D01*
X128992279Y-76049488D01*
X128974234Y-75990000D01*
X128942896Y-75886695D01*
X128934565Y-75802112D01*
X128930400Y-75759821D01*
X128930400Y-75370180D01*
X128942896Y-75243308D01*
X128942896Y-75243306D01*
X128992278Y-75080517D01*
X128992279Y-75080513D01*
X129072468Y-74930488D01*
X129180388Y-74798988D01*
X129311888Y-74691068D01*
X129461912Y-74610879D01*
X129504273Y-74598029D01*
X129624705Y-74561496D01*
X129737568Y-74550380D01*
X129793999Y-74544822D01*
X129794000Y-74544822D01*
X129963294Y-74561496D01*
X129963294Y-74561496D01*
G37*
G36*
X172127294Y-74561496D02*
X172247726Y-74598029D01*
X172290087Y-74610879D01*
X172440112Y-74691068D01*
X172571612Y-74798988D01*
X172679532Y-74930488D01*
X172759721Y-75080512D01*
X172772571Y-75122873D01*
X172809104Y-75243305D01*
X172809104Y-75243307D01*
X172821600Y-75370179D01*
X172821600Y-75759820D01*
X172821076Y-75765136D01*
X172809104Y-75886694D01*
X172777766Y-75990000D01*
X172759721Y-76049488D01*
X172679532Y-76199512D01*
X172571612Y-76331012D01*
X172440112Y-76438932D01*
X172290088Y-76519121D01*
X172262433Y-76527510D01*
X172127295Y-76568504D01*
X172014432Y-76579620D01*
X171958001Y-76585178D01*
X171958000Y-76585178D01*
X171788706Y-76568504D01*
X171653568Y-76527510D01*
X171625913Y-76519121D01*
X171475889Y-76438932D01*
X171385946Y-76365117D01*
X171344388Y-76331012D01*
X171236469Y-76199512D01*
X171214127Y-76157713D01*
X171156279Y-76049488D01*
X171138234Y-75990000D01*
X171106896Y-75886695D01*
X171098565Y-75802112D01*
X171094400Y-75759821D01*
X171094400Y-75370180D01*
X171106896Y-75243308D01*
X171106896Y-75243306D01*
X171156278Y-75080517D01*
X171156279Y-75080513D01*
X171236468Y-74930488D01*
X171344388Y-74798988D01*
X171475888Y-74691068D01*
X171625912Y-74610879D01*
X171668273Y-74598029D01*
X171788705Y-74561496D01*
X171901568Y-74550380D01*
X171957999Y-74544822D01*
X171958000Y-74544822D01*
X172127294Y-74561496D01*
X172127294Y-74561496D01*
G37*
M02*
