G04 #@! TF.GenerationSoftware,KiCad,Pcbnew,(5.0.2)-1*
G04 #@! TF.CreationDate,2019-05-25T19:55:33-02:30*
G04 #@! TF.ProjectId,ControllerPCB,436f6e74-726f-46c6-9c65-725043422e6b,rev?*
G04 #@! TF.SameCoordinates,Original*
G04 #@! TF.FileFunction,Legend,Top*
G04 #@! TF.FilePolarity,Positive*
%FSLAX46Y46*%
G04 Gerber Fmt 4.6, Leading zero omitted, Abs format (unit mm)*
G04 Created by KiCad (PCBNEW (5.0.2)-1) date 5/25/2019 7:55:33 PM*
%MOMM*%
%LPD*%
G01*
G04 APERTURE LIST*
%ADD10C,0.250000*%
%ADD11C,0.175000*%
%ADD12C,0.150000*%
%ADD13C,0.187500*%
%ADD14C,0.381000*%
%ADD15C,0.120000*%
%ADD16C,0.100000*%
G04 APERTURE END LIST*
D10*
X142873595Y-90375714D02*
X142873595Y-91375714D01*
X143349785Y-90899523D02*
X143397404Y-90994761D01*
X143492642Y-91042380D01*
X142873595Y-90899523D02*
X142921214Y-90994761D01*
X143016452Y-91042380D01*
X143206928Y-91042380D01*
X143302166Y-90994761D01*
X143349785Y-90899523D01*
X143349785Y-90375714D01*
X143873595Y-90994761D02*
X144016452Y-91042380D01*
X144254547Y-91042380D01*
X144349785Y-90994761D01*
X144397404Y-90947142D01*
X144445023Y-90851904D01*
X144445023Y-90756666D01*
X144397404Y-90661428D01*
X144349785Y-90613809D01*
X144254547Y-90566190D01*
X144064071Y-90518571D01*
X143968833Y-90470952D01*
X143921214Y-90423333D01*
X143873595Y-90328095D01*
X143873595Y-90232857D01*
X143921214Y-90137619D01*
X143968833Y-90090000D01*
X144064071Y-90042380D01*
X144302166Y-90042380D01*
X144445023Y-90090000D01*
X144873595Y-91042380D02*
X144873595Y-90042380D01*
X145111690Y-90042380D01*
X145254547Y-90090000D01*
X145349785Y-90185238D01*
X145397404Y-90280476D01*
X145445023Y-90470952D01*
X145445023Y-90613809D01*
X145397404Y-90804285D01*
X145349785Y-90899523D01*
X145254547Y-90994761D01*
X145111690Y-91042380D01*
X144873595Y-91042380D01*
X147206928Y-90947142D02*
X147159309Y-90994761D01*
X147016452Y-91042380D01*
X146921214Y-91042380D01*
X146778357Y-90994761D01*
X146683119Y-90899523D01*
X146635500Y-90804285D01*
X146587880Y-90613809D01*
X146587880Y-90470952D01*
X146635500Y-90280476D01*
X146683119Y-90185238D01*
X146778357Y-90090000D01*
X146921214Y-90042380D01*
X147016452Y-90042380D01*
X147159309Y-90090000D01*
X147206928Y-90137619D01*
X147587880Y-90756666D02*
X148064071Y-90756666D01*
X147492642Y-91042380D02*
X147825976Y-90042380D01*
X148159309Y-91042380D01*
X149064071Y-91042380D02*
X148730738Y-90566190D01*
X148492642Y-91042380D02*
X148492642Y-90042380D01*
X148873595Y-90042380D01*
X148968833Y-90090000D01*
X149016452Y-90137619D01*
X149064071Y-90232857D01*
X149064071Y-90375714D01*
X149016452Y-90470952D01*
X148968833Y-90518571D01*
X148873595Y-90566190D01*
X148492642Y-90566190D01*
X149492642Y-91042380D02*
X149492642Y-90042380D01*
X149730738Y-90042380D01*
X149873595Y-90090000D01*
X149968833Y-90185238D01*
X150016452Y-90280476D01*
X150064071Y-90470952D01*
X150064071Y-90613809D01*
X150016452Y-90804285D01*
X149968833Y-90899523D01*
X149873595Y-90994761D01*
X149730738Y-91042380D01*
X149492642Y-91042380D01*
X187173595Y-112486428D02*
X187935500Y-112486428D01*
X187554547Y-112867380D02*
X187554547Y-112105476D01*
X187173595Y-98786428D02*
X187935500Y-98786428D01*
X187554547Y-99167380D02*
X187554547Y-98405476D01*
D11*
X183728416Y-112556666D02*
X184128416Y-112556666D01*
X183928416Y-113256666D02*
X183928416Y-112556666D01*
X184761750Y-113190000D02*
X184728416Y-113223333D01*
X184628416Y-113256666D01*
X184561750Y-113256666D01*
X184461750Y-113223333D01*
X184395083Y-113156666D01*
X184361750Y-113090000D01*
X184328416Y-112956666D01*
X184328416Y-112856666D01*
X184361750Y-112723333D01*
X184395083Y-112656666D01*
X184461750Y-112590000D01*
X184561750Y-112556666D01*
X184628416Y-112556666D01*
X184728416Y-112590000D01*
X184761750Y-112623333D01*
X185028416Y-112623333D02*
X185061750Y-112590000D01*
X185128416Y-112556666D01*
X185295083Y-112556666D01*
X185361750Y-112590000D01*
X185395083Y-112623333D01*
X185428416Y-112690000D01*
X185428416Y-112756666D01*
X185395083Y-112856666D01*
X184995083Y-113256666D01*
X185428416Y-113256666D01*
X183228416Y-98856666D02*
X183628416Y-98856666D01*
X183428416Y-99556666D02*
X183428416Y-98856666D01*
X184261750Y-99490000D02*
X184228416Y-99523333D01*
X184128416Y-99556666D01*
X184061750Y-99556666D01*
X183961750Y-99523333D01*
X183895083Y-99456666D01*
X183861750Y-99390000D01*
X183828416Y-99256666D01*
X183828416Y-99156666D01*
X183861750Y-99023333D01*
X183895083Y-98956666D01*
X183961750Y-98890000D01*
X184061750Y-98856666D01*
X184128416Y-98856666D01*
X184228416Y-98890000D01*
X184261750Y-98923333D01*
X184928416Y-99556666D02*
X184528416Y-99556666D01*
X184728416Y-99556666D02*
X184728416Y-98856666D01*
X184661750Y-98956666D01*
X184595083Y-99023333D01*
X184528416Y-99056666D01*
D12*
X167448000Y-84215000D02*
X168398000Y-83365000D01*
D11*
X176589666Y-87401250D02*
X176589666Y-87267916D01*
X176623000Y-87201250D01*
X176689666Y-87134583D01*
X176823000Y-87101250D01*
X177056333Y-87101250D01*
X177189666Y-87134583D01*
X177256333Y-87201250D01*
X177289666Y-87267916D01*
X177289666Y-87401250D01*
X177256333Y-87467916D01*
X177189666Y-87534583D01*
X177056333Y-87567916D01*
X176823000Y-87567916D01*
X176689666Y-87534583D01*
X176623000Y-87467916D01*
X176589666Y-87401250D01*
X177289666Y-86467916D02*
X177289666Y-86801250D01*
X176589666Y-86801250D01*
X176923000Y-86234583D02*
X176923000Y-86001250D01*
X177289666Y-85901250D02*
X177289666Y-86234583D01*
X176589666Y-86234583D01*
X176589666Y-85901250D01*
X177289666Y-85601250D02*
X176589666Y-85601250D01*
X176589666Y-85434583D01*
X176623000Y-85334583D01*
X176689666Y-85267916D01*
X176756333Y-85234583D01*
X176889666Y-85201250D01*
X176989666Y-85201250D01*
X177123000Y-85234583D01*
X177189666Y-85267916D01*
X177256333Y-85334583D01*
X177289666Y-85434583D01*
X177289666Y-85601250D01*
X172864666Y-91226250D02*
X172864666Y-91559583D01*
X172164666Y-91559583D01*
X172498000Y-90992916D02*
X172498000Y-90759583D01*
X172864666Y-90659583D02*
X172864666Y-90992916D01*
X172164666Y-90992916D01*
X172164666Y-90659583D01*
X172864666Y-90359583D02*
X172164666Y-90359583D01*
X172164666Y-90192916D01*
X172198000Y-90092916D01*
X172264666Y-90026250D01*
X172331333Y-89992916D01*
X172464666Y-89959583D01*
X172564666Y-89959583D01*
X172698000Y-89992916D01*
X172764666Y-90026250D01*
X172831333Y-90092916D01*
X172864666Y-90192916D01*
X172864666Y-90359583D01*
X172864666Y-88559583D02*
X172864666Y-88592916D01*
X172831333Y-88659583D01*
X172731333Y-88759583D01*
X172531333Y-88926250D01*
X172431333Y-88992916D01*
X172331333Y-89026250D01*
X172264666Y-89026250D01*
X172198000Y-88992916D01*
X172164666Y-88926250D01*
X172164666Y-88892916D01*
X172198000Y-88826250D01*
X172264666Y-88792916D01*
X172298000Y-88792916D01*
X172364666Y-88826250D01*
X172398000Y-88859583D01*
X172531333Y-89059583D01*
X172564666Y-89092916D01*
X172631333Y-89126250D01*
X172731333Y-89126250D01*
X172798000Y-89092916D01*
X172831333Y-89059583D01*
X172864666Y-88992916D01*
X172864666Y-88892916D01*
X172831333Y-88826250D01*
X172798000Y-88792916D01*
X172664666Y-88692916D01*
X172564666Y-88659583D01*
X172498000Y-88659583D01*
X172498000Y-87492916D02*
X172531333Y-87392916D01*
X172564666Y-87359583D01*
X172631333Y-87326250D01*
X172731333Y-87326250D01*
X172798000Y-87359583D01*
X172831333Y-87392916D01*
X172864666Y-87459583D01*
X172864666Y-87726250D01*
X172164666Y-87726250D01*
X172164666Y-87492916D01*
X172198000Y-87426250D01*
X172231333Y-87392916D01*
X172298000Y-87359583D01*
X172364666Y-87359583D01*
X172431333Y-87392916D01*
X172464666Y-87426250D01*
X172498000Y-87492916D01*
X172498000Y-87726250D01*
X172164666Y-87026250D02*
X172731333Y-87026250D01*
X172798000Y-86992916D01*
X172831333Y-86959583D01*
X172864666Y-86892916D01*
X172864666Y-86759583D01*
X172831333Y-86692916D01*
X172798000Y-86659583D01*
X172731333Y-86626250D01*
X172164666Y-86626250D01*
X172164666Y-86359583D02*
X172164666Y-85892916D01*
X172864666Y-86359583D01*
X172864666Y-85892916D01*
X172164666Y-85692916D02*
X172164666Y-85226250D01*
X172864666Y-85692916D01*
X172864666Y-85226250D01*
D13*
X167462285Y-90039553D02*
X166712285Y-90039553D01*
X167069428Y-90039553D02*
X167069428Y-89610982D01*
X167462285Y-89610982D02*
X166712285Y-89610982D01*
X167248000Y-89289553D02*
X167248000Y-88932410D01*
X167462285Y-89360982D02*
X166712285Y-89110982D01*
X167462285Y-88860982D01*
X167462285Y-88253839D02*
X167462285Y-88610982D01*
X166712285Y-88610982D01*
X167462285Y-87646696D02*
X167462285Y-88003839D01*
X166712285Y-88003839D01*
X167176571Y-87396696D02*
X167176571Y-86825267D01*
X167462285Y-86039553D02*
X167105142Y-86289553D01*
X167462285Y-86468125D02*
X166712285Y-86468125D01*
X166712285Y-86182410D01*
X166748000Y-86110982D01*
X166783714Y-86075267D01*
X166855142Y-86039553D01*
X166962285Y-86039553D01*
X167033714Y-86075267D01*
X167069428Y-86110982D01*
X167105142Y-86182410D01*
X167105142Y-86468125D01*
X167462285Y-85718125D02*
X166712285Y-85718125D01*
X166712285Y-85432410D01*
X166748000Y-85360982D01*
X166783714Y-85325267D01*
X166855142Y-85289553D01*
X166962285Y-85289553D01*
X167033714Y-85325267D01*
X167069428Y-85360982D01*
X167105142Y-85432410D01*
X167105142Y-85718125D01*
X167462285Y-84968125D02*
X166712285Y-84968125D01*
X167248000Y-84718125D01*
X166712285Y-84468125D01*
X167462285Y-84468125D01*
D10*
X164525380Y-87639404D02*
X165334904Y-87639404D01*
X165430142Y-87591785D01*
X165477761Y-87544166D01*
X165525380Y-87448928D01*
X165525380Y-87258452D01*
X165477761Y-87163214D01*
X165430142Y-87115595D01*
X165334904Y-87067976D01*
X164525380Y-87067976D01*
X165239666Y-86639404D02*
X165239666Y-86163214D01*
X165525380Y-86734642D02*
X164525380Y-86401309D01*
X165525380Y-86067976D01*
X165525380Y-85163214D02*
X165049190Y-85496547D01*
X165525380Y-85734642D02*
X164525380Y-85734642D01*
X164525380Y-85353690D01*
X164573000Y-85258452D01*
X164620619Y-85210833D01*
X164715857Y-85163214D01*
X164858714Y-85163214D01*
X164953952Y-85210833D01*
X165001571Y-85258452D01*
X165049190Y-85353690D01*
X165049190Y-85734642D01*
X164525380Y-84877500D02*
X164525380Y-84306071D01*
X165525380Y-84591785D02*
X164525380Y-84591785D01*
X155205738Y-85667380D02*
X155777166Y-85667380D01*
X155491452Y-86667380D02*
X155491452Y-85667380D01*
X156110500Y-86143571D02*
X156443833Y-86143571D01*
X156586690Y-86667380D02*
X156110500Y-86667380D01*
X156110500Y-85667380D01*
X156586690Y-85667380D01*
X157015261Y-86667380D02*
X157015261Y-85667380D01*
X157348595Y-86381666D01*
X157681928Y-85667380D01*
X157681928Y-86667380D01*
X158158119Y-86667380D02*
X158158119Y-85667380D01*
X158539071Y-85667380D01*
X158634309Y-85715000D01*
X158681928Y-85762619D01*
X158729547Y-85857857D01*
X158729547Y-86000714D01*
X158681928Y-86095952D01*
X158634309Y-86143571D01*
X158539071Y-86191190D01*
X158158119Y-86191190D01*
X153331333Y-118178690D02*
X153283714Y-118226309D01*
X153140857Y-118321547D01*
X153045619Y-118369166D01*
X152902761Y-118416785D01*
X152664666Y-118464404D01*
X152474190Y-118464404D01*
X152236095Y-118416785D01*
X152093238Y-118369166D01*
X151998000Y-118321547D01*
X151855142Y-118226309D01*
X151807523Y-118178690D01*
X152902761Y-117369166D02*
X152950380Y-117464404D01*
X152950380Y-117654880D01*
X152902761Y-117750119D01*
X152855142Y-117797738D01*
X152759904Y-117845357D01*
X152474190Y-117845357D01*
X152378952Y-117797738D01*
X152331333Y-117750119D01*
X152283714Y-117654880D01*
X152283714Y-117464404D01*
X152331333Y-117369166D01*
X153331333Y-117035833D02*
X153283714Y-116988214D01*
X153140857Y-116892976D01*
X153045619Y-116845357D01*
X152902761Y-116797738D01*
X152664666Y-116750119D01*
X152474190Y-116750119D01*
X152236095Y-116797738D01*
X152093238Y-116845357D01*
X151998000Y-116892976D01*
X151855142Y-116988214D01*
X151807523Y-117035833D01*
X152950380Y-115512023D02*
X151950380Y-115512023D01*
X152664666Y-115178690D01*
X151950380Y-114845357D01*
X152950380Y-114845357D01*
X152902761Y-113988214D02*
X152950380Y-114083452D01*
X152950380Y-114273928D01*
X152902761Y-114369166D01*
X152807523Y-114416785D01*
X152426571Y-114416785D01*
X152331333Y-114369166D01*
X152283714Y-114273928D01*
X152283714Y-114083452D01*
X152331333Y-113988214D01*
X152426571Y-113940595D01*
X152521809Y-113940595D01*
X152617047Y-114416785D01*
X152950380Y-113512023D02*
X152283714Y-113512023D01*
X152378952Y-113512023D02*
X152331333Y-113464404D01*
X152283714Y-113369166D01*
X152283714Y-113226309D01*
X152331333Y-113131071D01*
X152426571Y-113083452D01*
X152950380Y-113083452D01*
X152426571Y-113083452D02*
X152331333Y-113035833D01*
X152283714Y-112940595D01*
X152283714Y-112797738D01*
X152331333Y-112702500D01*
X152426571Y-112654880D01*
X152950380Y-112654880D01*
X152950380Y-112035833D02*
X152902761Y-112131071D01*
X152855142Y-112178690D01*
X152759904Y-112226309D01*
X152474190Y-112226309D01*
X152378952Y-112178690D01*
X152331333Y-112131071D01*
X152283714Y-112035833D01*
X152283714Y-111892976D01*
X152331333Y-111797738D01*
X152378952Y-111750119D01*
X152474190Y-111702500D01*
X152759904Y-111702500D01*
X152855142Y-111750119D01*
X152902761Y-111797738D01*
X152950380Y-111892976D01*
X152950380Y-112035833D01*
X152950380Y-111273928D02*
X152283714Y-111273928D01*
X152474190Y-111273928D02*
X152378952Y-111226309D01*
X152331333Y-111178690D01*
X152283714Y-111083452D01*
X152283714Y-110988214D01*
X152950380Y-110654880D02*
X152283714Y-110654880D01*
X151950380Y-110654880D02*
X151998000Y-110702500D01*
X152045619Y-110654880D01*
X151998000Y-110607261D01*
X151950380Y-110654880D01*
X152045619Y-110654880D01*
X152950380Y-109750119D02*
X152426571Y-109750119D01*
X152331333Y-109797738D01*
X152283714Y-109892976D01*
X152283714Y-110083452D01*
X152331333Y-110178690D01*
X152902761Y-109750119D02*
X152950380Y-109845357D01*
X152950380Y-110083452D01*
X152902761Y-110178690D01*
X152807523Y-110226309D01*
X152712285Y-110226309D01*
X152617047Y-110178690D01*
X152569428Y-110083452D01*
X152569428Y-109845357D01*
X152521809Y-109750119D01*
X152950380Y-109131071D02*
X152902761Y-109226309D01*
X152807523Y-109273928D01*
X151950380Y-109273928D01*
X152426571Y-107654880D02*
X152474190Y-107512023D01*
X152521809Y-107464404D01*
X152617047Y-107416785D01*
X152759904Y-107416785D01*
X152855142Y-107464404D01*
X152902761Y-107512023D01*
X152950380Y-107607261D01*
X152950380Y-107988214D01*
X151950380Y-107988214D01*
X151950380Y-107654880D01*
X151998000Y-107559642D01*
X152045619Y-107512023D01*
X152140857Y-107464404D01*
X152236095Y-107464404D01*
X152331333Y-107512023D01*
X152378952Y-107559642D01*
X152426571Y-107654880D01*
X152426571Y-107988214D01*
X152950380Y-106559642D02*
X152426571Y-106559642D01*
X152331333Y-106607261D01*
X152283714Y-106702500D01*
X152283714Y-106892976D01*
X152331333Y-106988214D01*
X152902761Y-106559642D02*
X152950380Y-106654880D01*
X152950380Y-106892976D01*
X152902761Y-106988214D01*
X152807523Y-107035833D01*
X152712285Y-107035833D01*
X152617047Y-106988214D01*
X152569428Y-106892976D01*
X152569428Y-106654880D01*
X152521809Y-106559642D01*
X152283714Y-106083452D02*
X153140857Y-106083452D01*
X153236095Y-106131071D01*
X153283714Y-106226309D01*
X153283714Y-106273928D01*
X151950380Y-106083452D02*
X151998000Y-106131071D01*
X152045619Y-106083452D01*
X151998000Y-106035833D01*
X151950380Y-106083452D01*
X152045619Y-106083452D01*
X152950380Y-105178690D02*
X152426571Y-105178690D01*
X152331333Y-105226309D01*
X152283714Y-105321547D01*
X152283714Y-105512023D01*
X152331333Y-105607261D01*
X152902761Y-105178690D02*
X152950380Y-105273928D01*
X152950380Y-105512023D01*
X152902761Y-105607261D01*
X152807523Y-105654880D01*
X152712285Y-105654880D01*
X152617047Y-105607261D01*
X152569428Y-105512023D01*
X152569428Y-105273928D01*
X152521809Y-105178690D01*
X154605142Y-117892976D02*
X154652761Y-117940595D01*
X154700380Y-118083452D01*
X154700380Y-118178690D01*
X154652761Y-118321547D01*
X154557523Y-118416785D01*
X154462285Y-118464404D01*
X154271809Y-118512023D01*
X154128952Y-118512023D01*
X153938476Y-118464404D01*
X153843238Y-118416785D01*
X153748000Y-118321547D01*
X153700380Y-118178690D01*
X153700380Y-118083452D01*
X153748000Y-117940595D01*
X153795619Y-117892976D01*
X154700380Y-117321547D02*
X154652761Y-117416785D01*
X154605142Y-117464404D01*
X154509904Y-117512023D01*
X154224190Y-117512023D01*
X154128952Y-117464404D01*
X154081333Y-117416785D01*
X154033714Y-117321547D01*
X154033714Y-117178690D01*
X154081333Y-117083452D01*
X154128952Y-117035833D01*
X154224190Y-116988214D01*
X154509904Y-116988214D01*
X154605142Y-117035833D01*
X154652761Y-117083452D01*
X154700380Y-117178690D01*
X154700380Y-117321547D01*
X154033714Y-116559642D02*
X154700380Y-116559642D01*
X154128952Y-116559642D02*
X154081333Y-116512023D01*
X154033714Y-116416785D01*
X154033714Y-116273928D01*
X154081333Y-116178690D01*
X154176571Y-116131071D01*
X154700380Y-116131071D01*
X154033714Y-115797738D02*
X154033714Y-115416785D01*
X153700380Y-115654880D02*
X154557523Y-115654880D01*
X154652761Y-115607261D01*
X154700380Y-115512023D01*
X154700380Y-115416785D01*
X154700380Y-115083452D02*
X154033714Y-115083452D01*
X154224190Y-115083452D02*
X154128952Y-115035833D01*
X154081333Y-114988214D01*
X154033714Y-114892976D01*
X154033714Y-114797738D01*
X154700380Y-114321547D02*
X154652761Y-114416785D01*
X154605142Y-114464404D01*
X154509904Y-114512023D01*
X154224190Y-114512023D01*
X154128952Y-114464404D01*
X154081333Y-114416785D01*
X154033714Y-114321547D01*
X154033714Y-114178690D01*
X154081333Y-114083452D01*
X154128952Y-114035833D01*
X154224190Y-113988214D01*
X154509904Y-113988214D01*
X154605142Y-114035833D01*
X154652761Y-114083452D01*
X154700380Y-114178690D01*
X154700380Y-114321547D01*
X154700380Y-113416785D02*
X154652761Y-113512023D01*
X154557523Y-113559642D01*
X153700380Y-113559642D01*
X154700380Y-112892976D02*
X154652761Y-112988214D01*
X154557523Y-113035833D01*
X153700380Y-113035833D01*
X154652761Y-112131071D02*
X154700380Y-112226309D01*
X154700380Y-112416785D01*
X154652761Y-112512023D01*
X154557523Y-112559642D01*
X154176571Y-112559642D01*
X154081333Y-112512023D01*
X154033714Y-112416785D01*
X154033714Y-112226309D01*
X154081333Y-112131071D01*
X154176571Y-112083452D01*
X154271809Y-112083452D01*
X154367047Y-112559642D01*
X154700380Y-111654880D02*
X154033714Y-111654880D01*
X154224190Y-111654880D02*
X154128952Y-111607261D01*
X154081333Y-111559642D01*
X154033714Y-111464404D01*
X154033714Y-111369166D01*
X154700380Y-110273928D02*
X153700380Y-110273928D01*
X153700380Y-109892976D01*
X153748000Y-109797738D01*
X153795619Y-109750119D01*
X153890857Y-109702500D01*
X154033714Y-109702500D01*
X154128952Y-109750119D01*
X154176571Y-109797738D01*
X154224190Y-109892976D01*
X154224190Y-110273928D01*
X154605142Y-108702500D02*
X154652761Y-108750119D01*
X154700380Y-108892976D01*
X154700380Y-108988214D01*
X154652761Y-109131071D01*
X154557523Y-109226309D01*
X154462285Y-109273928D01*
X154271809Y-109321547D01*
X154128952Y-109321547D01*
X153938476Y-109273928D01*
X153843238Y-109226309D01*
X153748000Y-109131071D01*
X153700380Y-108988214D01*
X153700380Y-108892976D01*
X153748000Y-108750119D01*
X153795619Y-108702500D01*
X154176571Y-107940595D02*
X154224190Y-107797738D01*
X154271809Y-107750119D01*
X154367047Y-107702500D01*
X154509904Y-107702500D01*
X154605142Y-107750119D01*
X154652761Y-107797738D01*
X154700380Y-107892976D01*
X154700380Y-108273928D01*
X153700380Y-108273928D01*
X153700380Y-107940595D01*
X153748000Y-107845357D01*
X153795619Y-107797738D01*
X153890857Y-107750119D01*
X153986095Y-107750119D01*
X154081333Y-107797738D01*
X154128952Y-107845357D01*
X154176571Y-107940595D01*
X154176571Y-108273928D01*
X156450380Y-118464404D02*
X155450380Y-118464404D01*
X155450380Y-118083452D01*
X155498000Y-117988214D01*
X155545619Y-117940595D01*
X155640857Y-117892976D01*
X155783714Y-117892976D01*
X155878952Y-117940595D01*
X155926571Y-117988214D01*
X155974190Y-118083452D01*
X155974190Y-118464404D01*
X156450380Y-117464404D02*
X155450380Y-117464404D01*
X156450380Y-116892976D01*
X155450380Y-116892976D01*
X156355142Y-116416785D02*
X156402761Y-116369166D01*
X156450380Y-116416785D01*
X156402761Y-116464404D01*
X156355142Y-116416785D01*
X156450380Y-116416785D01*
X155831333Y-116416785D02*
X155878952Y-116369166D01*
X155926571Y-116416785D01*
X155878952Y-116464404D01*
X155831333Y-116416785D01*
X155926571Y-116416785D01*
X155545619Y-115226309D02*
X155498000Y-115178690D01*
X155450380Y-115083452D01*
X155450380Y-114845357D01*
X155498000Y-114750119D01*
X155545619Y-114702500D01*
X155640857Y-114654880D01*
X155736095Y-114654880D01*
X155878952Y-114702500D01*
X156450380Y-115273928D01*
X156450380Y-114654880D01*
X155450380Y-114035833D02*
X155450380Y-113940595D01*
X155498000Y-113845357D01*
X155545619Y-113797738D01*
X155640857Y-113750119D01*
X155831333Y-113702500D01*
X156069428Y-113702500D01*
X156259904Y-113750119D01*
X156355142Y-113797738D01*
X156402761Y-113845357D01*
X156450380Y-113940595D01*
X156450380Y-114035833D01*
X156402761Y-114131071D01*
X156355142Y-114178690D01*
X156259904Y-114226309D01*
X156069428Y-114273928D01*
X155831333Y-114273928D01*
X155640857Y-114226309D01*
X155545619Y-114178690D01*
X155498000Y-114131071D01*
X155450380Y-114035833D01*
X156450380Y-112750119D02*
X156450380Y-113321547D01*
X156450380Y-113035833D02*
X155450380Y-113035833D01*
X155593238Y-113131071D01*
X155688476Y-113226309D01*
X155736095Y-113321547D01*
X156450380Y-112273928D02*
X156450380Y-112083452D01*
X156402761Y-111988214D01*
X156355142Y-111940595D01*
X156212285Y-111845357D01*
X156021809Y-111797738D01*
X155640857Y-111797738D01*
X155545619Y-111845357D01*
X155498000Y-111892976D01*
X155450380Y-111988214D01*
X155450380Y-112178690D01*
X155498000Y-112273928D01*
X155545619Y-112321547D01*
X155640857Y-112369166D01*
X155878952Y-112369166D01*
X155974190Y-112321547D01*
X156021809Y-112273928D01*
X156069428Y-112178690D01*
X156069428Y-111988214D01*
X156021809Y-111892976D01*
X155974190Y-111845357D01*
X155878952Y-111797738D01*
X156069428Y-111369166D02*
X156069428Y-110607261D01*
X155450380Y-109940595D02*
X155450380Y-109845357D01*
X155498000Y-109750119D01*
X155545619Y-109702500D01*
X155640857Y-109654880D01*
X155831333Y-109607261D01*
X156069428Y-109607261D01*
X156259904Y-109654880D01*
X156355142Y-109702500D01*
X156402761Y-109750119D01*
X156450380Y-109845357D01*
X156450380Y-109940595D01*
X156402761Y-110035833D01*
X156355142Y-110083452D01*
X156259904Y-110131071D01*
X156069428Y-110178690D01*
X155831333Y-110178690D01*
X155640857Y-110131071D01*
X155545619Y-110083452D01*
X155498000Y-110035833D01*
X155450380Y-109940595D01*
X155450380Y-109273928D02*
X155450380Y-108654880D01*
X155831333Y-108988214D01*
X155831333Y-108845357D01*
X155878952Y-108750119D01*
X155926571Y-108702500D01*
X156021809Y-108654880D01*
X156259904Y-108654880D01*
X156355142Y-108702500D01*
X156402761Y-108750119D01*
X156450380Y-108845357D01*
X156450380Y-109131071D01*
X156402761Y-109226309D01*
X156355142Y-109273928D01*
X155783714Y-107559642D02*
X156450380Y-107321547D01*
X155783714Y-107083452D01*
X156450380Y-106178690D02*
X156450380Y-106750119D01*
X156450380Y-106464404D02*
X155450380Y-106464404D01*
X155593238Y-106559642D01*
X155688476Y-106654880D01*
X155736095Y-106750119D01*
X156355142Y-105750119D02*
X156402761Y-105702500D01*
X156450380Y-105750119D01*
X156402761Y-105797738D01*
X156355142Y-105750119D01*
X156450380Y-105750119D01*
X155450380Y-105083452D02*
X155450380Y-104988214D01*
X155498000Y-104892976D01*
X155545619Y-104845357D01*
X155640857Y-104797738D01*
X155831333Y-104750119D01*
X156069428Y-104750119D01*
X156259904Y-104797738D01*
X156355142Y-104845357D01*
X156402761Y-104892976D01*
X156450380Y-104988214D01*
X156450380Y-105083452D01*
X156402761Y-105178690D01*
X156355142Y-105226309D01*
X156259904Y-105273928D01*
X156069428Y-105321547D01*
X155831333Y-105321547D01*
X155640857Y-105273928D01*
X155545619Y-105226309D01*
X155498000Y-105178690D01*
X155450380Y-105083452D01*
X156402761Y-102845357D02*
X156450380Y-102702500D01*
X156450380Y-102464404D01*
X156402761Y-102369166D01*
X156355142Y-102321547D01*
X156259904Y-102273928D01*
X156164666Y-102273928D01*
X156069428Y-102321547D01*
X156021809Y-102369166D01*
X155974190Y-102464404D01*
X155926571Y-102654880D01*
X155878952Y-102750119D01*
X155831333Y-102797738D01*
X155736095Y-102845357D01*
X155640857Y-102845357D01*
X155545619Y-102797738D01*
X155498000Y-102750119D01*
X155450380Y-102654880D01*
X155450380Y-102416785D01*
X155498000Y-102273928D01*
X156450380Y-101845357D02*
X155450380Y-101845357D01*
X156450380Y-101273928D01*
X155450380Y-101273928D01*
X156355142Y-100797738D02*
X156402761Y-100750119D01*
X156450380Y-100797738D01*
X156402761Y-100845357D01*
X156355142Y-100797738D01*
X156450380Y-100797738D01*
X155831333Y-100797738D02*
X155878952Y-100750119D01*
X155926571Y-100797738D01*
X155878952Y-100845357D01*
X155831333Y-100797738D01*
X155926571Y-100797738D01*
D12*
X139390380Y-120999285D02*
X139390380Y-121570714D01*
X139390380Y-121285000D02*
X138390380Y-121285000D01*
X138533238Y-121380238D01*
X138628476Y-121475476D01*
X138676095Y-121570714D01*
G04 #@! TO.C,P1*
X140208000Y-125095000D02*
X157988000Y-125095000D01*
X157988000Y-125095000D02*
X157988000Y-122555000D01*
X157988000Y-122555000D02*
X140208000Y-122555000D01*
X137388000Y-125375000D02*
X138938000Y-125375000D01*
X140208000Y-125095000D02*
X140208000Y-122555000D01*
X138938000Y-122275000D02*
X137388000Y-122275000D01*
X137388000Y-122275000D02*
X137388000Y-125375000D01*
G04 #@! TO.C,P2*
X163068000Y-125095000D02*
X175768000Y-125095000D01*
X175768000Y-125095000D02*
X175768000Y-122555000D01*
X175768000Y-122555000D02*
X163068000Y-122555000D01*
X160248000Y-125375000D02*
X161798000Y-125375000D01*
X163068000Y-125095000D02*
X163068000Y-122555000D01*
X161798000Y-122275000D02*
X160248000Y-122275000D01*
X160248000Y-122275000D02*
X160248000Y-125375000D01*
G04 #@! TO.C,P3*
X131064000Y-76835000D02*
X153924000Y-76835000D01*
X153924000Y-76835000D02*
X153924000Y-74295000D01*
X153924000Y-74295000D02*
X131064000Y-74295000D01*
X128244000Y-77115000D02*
X129794000Y-77115000D01*
X131064000Y-76835000D02*
X131064000Y-74295000D01*
X129794000Y-74015000D02*
X128244000Y-74015000D01*
X128244000Y-74015000D02*
X128244000Y-77115000D01*
G04 #@! TO.C,P4*
X157988000Y-76835000D02*
X175768000Y-76835000D01*
X175768000Y-76835000D02*
X175768000Y-74295000D01*
X175768000Y-74295000D02*
X157988000Y-74295000D01*
X155168000Y-77115000D02*
X156718000Y-77115000D01*
X157988000Y-76835000D02*
X157988000Y-74295000D01*
X156718000Y-74015000D02*
X155168000Y-74015000D01*
X155168000Y-74015000D02*
X155168000Y-77115000D01*
G04 #@! TO.C,P5*
X127254000Y-123825000D02*
G75*
G03X127254000Y-123825000I-2286000J0D01*
G01*
G04 #@! TO.C,P6*
X179324000Y-118745000D02*
G75*
G03X179324000Y-118745000I-2286000J0D01*
G01*
G04 #@! TO.C,P7*
X128524000Y-75565000D02*
G75*
G03X128524000Y-75565000I-2286000J0D01*
G01*
G04 #@! TO.C,P8*
X179324000Y-90805000D02*
G75*
G03X179324000Y-90805000I-2286000J0D01*
G01*
G04 #@! TO.C,C1*
X138998000Y-117490000D02*
X140198000Y-117490000D01*
X140198000Y-119240000D02*
X138998000Y-119240000D01*
G04 #@! TO.C,C2*
X136873000Y-111365000D02*
X136873000Y-112565000D01*
X135123000Y-112565000D02*
X135123000Y-111365000D01*
G04 #@! TO.C,logo1*
X153748000Y-94115000D02*
X156748000Y-94115000D01*
X153748000Y-99615000D02*
X156748000Y-99615000D01*
X153748000Y-99565000D02*
X153748000Y-94165000D01*
X153848000Y-94165000D02*
X153848000Y-99565000D01*
X153948000Y-99565000D02*
X153948000Y-94165000D01*
X154048000Y-94165000D02*
X154048000Y-99565000D01*
X154148000Y-99565000D02*
X154148000Y-94165000D01*
X154248000Y-94165000D02*
X154248000Y-99565000D01*
X154348000Y-99565000D02*
X154348000Y-94165000D01*
X154448000Y-94165000D02*
X154448000Y-99565000D01*
X154548000Y-99565000D02*
X154548000Y-94165000D01*
X154648000Y-94165000D02*
X154648000Y-99565000D01*
X154748000Y-99565000D02*
X154748000Y-94165000D01*
X154848000Y-94165000D02*
X154848000Y-99565000D01*
X154948000Y-99565000D02*
X154948000Y-94165000D01*
X155048000Y-94165000D02*
X155048000Y-99565000D01*
X155148000Y-99565000D02*
X155148000Y-94165000D01*
X155248000Y-94165000D02*
X155248000Y-99565000D01*
X155348000Y-99565000D02*
X155348000Y-94165000D01*
X155448000Y-94165000D02*
X155448000Y-99565000D01*
X155548000Y-99565000D02*
X155548000Y-94165000D01*
X155648000Y-94165000D02*
X155648000Y-99565000D01*
X155748000Y-99565000D02*
X155748000Y-94165000D01*
X155848000Y-94165000D02*
X155848000Y-99565000D01*
X155948000Y-99565000D02*
X155948000Y-94165000D01*
X156048000Y-94165000D02*
X156048000Y-99565000D01*
X156148000Y-99565000D02*
X156148000Y-94165000D01*
X156248000Y-94165000D02*
X156248000Y-99565000D01*
X156348000Y-99565000D02*
X156348000Y-94165000D01*
X156448000Y-94165000D02*
X156448000Y-99565000D01*
X156548000Y-99565000D02*
X156548000Y-94165000D01*
X156648000Y-94165000D02*
X156648000Y-99565000D01*
X156748000Y-99565000D02*
X156748000Y-94165000D01*
D14*
G04 #@! TO.C,U1*
X134498000Y-85865000D02*
X134498000Y-118615000D01*
X129248000Y-123865000D02*
X118748000Y-123865000D01*
X113248000Y-118865000D02*
X113248000Y-86115000D01*
X118748000Y-80615000D02*
X128998000Y-80615000D01*
D15*
G04 #@! TO.C,U2*
X137498000Y-109705000D02*
X143508000Y-109705000D01*
X139748000Y-116525000D02*
X143508000Y-116525000D01*
X143508000Y-109705000D02*
X143508000Y-110965000D01*
X143508000Y-116525000D02*
X143508000Y-115265000D01*
D12*
G04 #@! TO.C,C5*
X147498000Y-79990000D02*
X146298000Y-79990000D01*
X146298000Y-78240000D02*
X147498000Y-78240000D01*
G04 #@! TO.C,C6*
X166248000Y-121240000D02*
X165048000Y-121240000D01*
X165048000Y-119490000D02*
X166248000Y-119490000D01*
D15*
G04 #@! TO.C,J2*
X183118725Y-117241871D02*
G75*
G02X182974000Y-116615000I1285275J626871D01*
G01*
X185031362Y-117900824D02*
G75*
G02X183777000Y-117901000I-627362J1285824D01*
G01*
X185689824Y-115987638D02*
G75*
G02X185690000Y-117242000I-1285824J-627362D01*
G01*
X183777254Y-115328389D02*
G75*
G02X185032000Y-115329000I626746J-1286611D01*
G01*
X182973060Y-116639280D02*
G75*
G02X183118000Y-115987000I1430940J24280D01*
G01*
X185834000Y-121695000D02*
G75*
G03X185834000Y-121695000I-1430000J0D01*
G01*
X180854000Y-114015000D02*
X180854000Y-124295000D01*
X181954000Y-114015000D02*
X181954000Y-124295000D01*
X186954000Y-114015000D02*
X186954000Y-124295000D01*
X188864000Y-114015000D02*
X188864000Y-124295000D01*
X180294000Y-114015000D02*
X180294000Y-124295000D01*
X188864000Y-114015000D02*
X180294000Y-114015000D01*
X188864000Y-124295000D02*
X180294000Y-124295000D01*
X188804000Y-115365000D02*
X188804000Y-117865000D01*
X187804000Y-115365000D02*
X187804000Y-117865000D01*
X188804000Y-115365000D02*
X187804000Y-115365000D01*
X188804000Y-117865000D02*
X187804000Y-117865000D01*
X185314000Y-122780000D02*
X185255000Y-122720000D01*
X183359000Y-120825000D02*
X183319000Y-120785000D01*
X185489000Y-122606000D02*
X185449000Y-122566000D01*
X183554000Y-120671000D02*
X183494000Y-120611000D01*
X188804000Y-120445000D02*
X188804000Y-122945000D01*
X187804000Y-120445000D02*
X187804000Y-122945000D01*
X188804000Y-120445000D02*
X187804000Y-120445000D01*
X188804000Y-122945000D02*
X187804000Y-122945000D01*
X180794000Y-113775000D02*
X180054000Y-113775000D01*
X180054000Y-113775000D02*
X180054000Y-114275000D01*
G04 #@! TO.C,J3*
X180054000Y-100157000D02*
X180054000Y-100657000D01*
X180794000Y-100157000D02*
X180054000Y-100157000D01*
X188804000Y-109327000D02*
X187804000Y-109327000D01*
X188804000Y-106827000D02*
X187804000Y-106827000D01*
X187804000Y-106827000D02*
X187804000Y-109327000D01*
X188804000Y-106827000D02*
X188804000Y-109327000D01*
X183554000Y-107053000D02*
X183494000Y-106993000D01*
X185489000Y-108988000D02*
X185449000Y-108948000D01*
X183359000Y-107207000D02*
X183319000Y-107167000D01*
X185314000Y-109162000D02*
X185255000Y-109102000D01*
X188804000Y-104247000D02*
X187804000Y-104247000D01*
X188804000Y-101747000D02*
X187804000Y-101747000D01*
X187804000Y-101747000D02*
X187804000Y-104247000D01*
X188804000Y-101747000D02*
X188804000Y-104247000D01*
X188864000Y-110677000D02*
X180294000Y-110677000D01*
X188864000Y-100397000D02*
X180294000Y-100397000D01*
X180294000Y-100397000D02*
X180294000Y-110677000D01*
X188864000Y-100397000D02*
X188864000Y-110677000D01*
X186954000Y-100397000D02*
X186954000Y-110677000D01*
X181954000Y-100397000D02*
X181954000Y-110677000D01*
X180854000Y-100397000D02*
X180854000Y-110677000D01*
X185834000Y-108077000D02*
G75*
G03X185834000Y-108077000I-1430000J0D01*
G01*
X182973060Y-103021280D02*
G75*
G02X183118000Y-102369000I1430940J24280D01*
G01*
X183777254Y-101710389D02*
G75*
G02X185032000Y-101711000I626746J-1286611D01*
G01*
X185689824Y-102369638D02*
G75*
G02X185690000Y-103624000I-1285824J-627362D01*
G01*
X185031362Y-104282824D02*
G75*
G02X183777000Y-104283000I-627362J1285824D01*
G01*
X183118725Y-103623871D02*
G75*
G02X182974000Y-102997000I1285275J626871D01*
G01*
G04 #@! TO.C,J4*
X138238000Y-92265000D02*
X138238000Y-92155000D01*
X139398000Y-105025000D02*
X138238000Y-105025000D01*
X138238000Y-105025000D02*
X138238000Y-93765000D01*
X138238000Y-92155000D02*
X140048000Y-92155000D01*
X142648000Y-105025000D02*
X148248000Y-105025000D01*
X141948000Y-92155000D02*
X148248000Y-92155000D01*
G04 #@! TO.C,J5*
X167888000Y-79105000D02*
X168998000Y-79105000D01*
X167888000Y-79865000D02*
X167888000Y-79105000D01*
X169561471Y-80625000D02*
X170108000Y-80625000D01*
X167888000Y-80625000D02*
X168434529Y-80625000D01*
X170108000Y-80625000D02*
X170108000Y-83100000D01*
X167888000Y-80625000D02*
X167888000Y-83100000D01*
X169305530Y-83100000D02*
X170108000Y-83100000D01*
X167888000Y-83100000D02*
X168690470Y-83100000D01*
G04 #@! TO.C,J7*
X163888000Y-83100000D02*
X164690470Y-83100000D01*
X165305530Y-83100000D02*
X166108000Y-83100000D01*
X163888000Y-80625000D02*
X163888000Y-83100000D01*
X166108000Y-80625000D02*
X166108000Y-83100000D01*
X163888000Y-80625000D02*
X164434529Y-80625000D01*
X165561471Y-80625000D02*
X166108000Y-80625000D01*
X163888000Y-79865000D02*
X163888000Y-79105000D01*
X163888000Y-79105000D02*
X164998000Y-79105000D01*
G04 #@! TO.C,J8*
X175888000Y-79105000D02*
X176998000Y-79105000D01*
X175888000Y-79865000D02*
X175888000Y-79105000D01*
X177561471Y-80625000D02*
X178108000Y-80625000D01*
X175888000Y-80625000D02*
X176434529Y-80625000D01*
X178108000Y-80625000D02*
X178108000Y-84370000D01*
X175888000Y-80625000D02*
X175888000Y-84370000D01*
X177305530Y-84370000D02*
X178108000Y-84370000D01*
X175888000Y-84370000D02*
X176690470Y-84370000D01*
G04 #@! TO.C,J9*
X151648000Y-78615000D02*
X151648000Y-81115000D01*
X154148000Y-78615000D02*
X151648000Y-78615000D01*
X161298000Y-84115000D02*
X156998000Y-84115000D01*
X161298000Y-81165000D02*
X161298000Y-84115000D01*
X162048000Y-81165000D02*
X161298000Y-81165000D01*
X152698000Y-84115000D02*
X156998000Y-84115000D01*
X152698000Y-81165000D02*
X152698000Y-84115000D01*
X151948000Y-81165000D02*
X152698000Y-81165000D01*
X162048000Y-78915000D02*
X160248000Y-78915000D01*
X162048000Y-79665000D02*
X162048000Y-78915000D01*
X160248000Y-79665000D02*
X162048000Y-79665000D01*
X160248000Y-78915000D02*
X160248000Y-79665000D01*
X153748000Y-78915000D02*
X151948000Y-78915000D01*
X153748000Y-79665000D02*
X153748000Y-78915000D01*
X151948000Y-79665000D02*
X153748000Y-79665000D01*
X151948000Y-78915000D02*
X151948000Y-79665000D01*
X158748000Y-78915000D02*
X155248000Y-78915000D01*
X158748000Y-79665000D02*
X158748000Y-78915000D01*
X155248000Y-79665000D02*
X158748000Y-79665000D01*
X155248000Y-78915000D02*
X155248000Y-79665000D01*
X162048000Y-78915000D02*
X151948000Y-78915000D01*
X162048000Y-84865000D02*
X162048000Y-78915000D01*
X151948000Y-84865000D02*
X162048000Y-84865000D01*
X151948000Y-78915000D02*
X151948000Y-84865000D01*
D12*
G04 #@! TO.C,R1*
X160123000Y-117515000D02*
X160123000Y-118715000D01*
X158373000Y-118715000D02*
X158373000Y-117515000D01*
G04 #@! TO.C,R2*
X158373000Y-114115000D02*
X158373000Y-112915000D01*
X160123000Y-112915000D02*
X160123000Y-114115000D01*
G04 #@! TO.C,R3*
X163123000Y-89165000D02*
X163123000Y-90365000D01*
X161373000Y-90365000D02*
X161373000Y-89165000D01*
G04 #@! TO.C,R4*
X160623000Y-89265000D02*
X160623000Y-90465000D01*
X158873000Y-90465000D02*
X158873000Y-89265000D01*
G04 #@! TO.C,R5*
X157873000Y-89265000D02*
X157873000Y-90465000D01*
X156123000Y-90465000D02*
X156123000Y-89265000D01*
G04 #@! TO.C,U3*
X165822999Y-117330001D02*
X165422999Y-117330001D01*
X164522999Y-117330001D02*
X164122999Y-117330001D01*
X163222999Y-117330001D02*
X162822999Y-117330001D01*
X163222999Y-113130001D02*
X162822999Y-113130001D01*
X164522999Y-113130001D02*
X164122999Y-113130001D01*
X165822999Y-113130001D02*
X165422999Y-113130001D01*
X166897999Y-113155001D02*
X166752999Y-113155001D01*
X166897999Y-117305001D02*
X166752999Y-117305001D01*
X161747999Y-117305001D02*
X161892999Y-117305001D01*
X161747999Y-113155001D02*
X161892999Y-113155001D01*
X166897999Y-113155001D02*
X166897999Y-117305001D01*
X161747999Y-113155001D02*
X161747999Y-117305001D01*
X166752999Y-113155001D02*
X166752999Y-111755001D01*
G04 #@! TO.C,U6*
X173148000Y-114615000D02*
X173148000Y-114215000D01*
X173148000Y-113315000D02*
X173148000Y-112915000D01*
X173148000Y-112015000D02*
X173148000Y-111615000D01*
X177348000Y-112015000D02*
X177348000Y-111615000D01*
X177348000Y-113315000D02*
X177348000Y-112915000D01*
X177348000Y-114615000D02*
X177348000Y-114215000D01*
X177323000Y-115690000D02*
X177323000Y-115545000D01*
X173173000Y-115690000D02*
X173173000Y-115545000D01*
X173173000Y-110540000D02*
X173173000Y-110685000D01*
X177323000Y-110540000D02*
X177323000Y-110685000D01*
X177323000Y-115690000D02*
X173173000Y-115690000D01*
X177323000Y-110540000D02*
X173173000Y-110540000D01*
X177323000Y-115545000D02*
X178723000Y-115545000D01*
G04 #@! TO.C,U7*
X177273000Y-109430000D02*
X178673000Y-109430000D01*
X177273000Y-104425000D02*
X173123000Y-104425000D01*
X177273000Y-109575000D02*
X173123000Y-109575000D01*
X177273000Y-104425000D02*
X177273000Y-104570000D01*
X173123000Y-104425000D02*
X173123000Y-104570000D01*
X173123000Y-109575000D02*
X173123000Y-109430000D01*
X177273000Y-109575000D02*
X177273000Y-109430000D01*
X177298000Y-108500000D02*
X177298000Y-108100000D01*
X177298000Y-107200000D02*
X177298000Y-106800000D01*
X177298000Y-105900000D02*
X177298000Y-105500000D01*
X173098000Y-105900000D02*
X173098000Y-105500000D01*
X173098000Y-107200000D02*
X173098000Y-106800000D01*
X173098000Y-108500000D02*
X173098000Y-108100000D01*
D15*
G04 #@! TO.C,Y1*
X164598000Y-107215000D02*
X164598000Y-107665000D01*
X165003000Y-106065000D02*
X164598000Y-107215000D01*
X166498000Y-107215000D02*
X166498000Y-107665000D01*
X166093000Y-106065000D02*
X166498000Y-107215000D01*
X163848000Y-106065000D02*
X167248000Y-106065000D01*
X163848000Y-97665000D02*
X163848000Y-106065000D01*
X167248000Y-97665000D02*
X163848000Y-97665000D01*
X167248000Y-106065000D02*
X167248000Y-97665000D01*
G04 #@! TO.C,C3*
X166498000Y-110895000D02*
X166998000Y-110895000D01*
X166998000Y-109835000D02*
X166498000Y-109835000D01*
D12*
G04 #@! TO.C,U4*
X143948000Y-86715000D02*
X143548000Y-86715000D01*
X143948000Y-82515000D02*
X143548000Y-82515000D01*
X147748000Y-86715000D02*
X147348000Y-86715000D01*
X146448000Y-86715000D02*
X146048000Y-86715000D01*
X145248000Y-86715000D02*
X144848000Y-86715000D01*
X142648000Y-86715000D02*
X142248000Y-86715000D01*
X141448000Y-86715000D02*
X141048000Y-86715000D01*
X140148000Y-86715000D02*
X139748000Y-86715000D01*
X140148000Y-82515000D02*
X139748000Y-82515000D01*
X141448000Y-82515000D02*
X141048000Y-82515000D01*
X142648000Y-82515000D02*
X142248000Y-82515000D01*
X145248000Y-82515000D02*
X144848000Y-82515000D01*
X146448000Y-82515000D02*
X146048000Y-82515000D01*
X147748000Y-82515000D02*
X147348000Y-82515000D01*
X148798000Y-82540000D02*
X148683000Y-82540000D01*
X148798000Y-86690000D02*
X148683000Y-86690000D01*
X138798000Y-86690000D02*
X138913000Y-86690000D01*
X138798000Y-82540000D02*
X138913000Y-82540000D01*
X148798000Y-82540000D02*
X148798000Y-86690000D01*
X138798000Y-82540000D02*
X138798000Y-86690000D01*
X148683000Y-82540000D02*
X148683000Y-81165000D01*
D15*
G04 #@! TO.C,U5*
X188498000Y-74015000D02*
X185998000Y-74015000D01*
X188498000Y-76515000D02*
X188498000Y-74015000D01*
X182998000Y-96165000D02*
X182998000Y-85615000D01*
X185948000Y-96165000D02*
X182998000Y-96165000D01*
X185948000Y-96915000D02*
X185948000Y-96165000D01*
X182998000Y-75065000D02*
X182998000Y-85615000D01*
X185948000Y-75065000D02*
X182998000Y-75065000D01*
X185948000Y-74315000D02*
X185948000Y-75065000D01*
X188198000Y-96915000D02*
X188198000Y-95115000D01*
X187448000Y-96915000D02*
X188198000Y-96915000D01*
X187448000Y-95115000D02*
X187448000Y-96915000D01*
X188198000Y-95115000D02*
X187448000Y-95115000D01*
X188198000Y-76115000D02*
X188198000Y-74315000D01*
X187448000Y-76115000D02*
X188198000Y-76115000D01*
X187448000Y-74315000D02*
X187448000Y-76115000D01*
X188198000Y-74315000D02*
X187448000Y-74315000D01*
X188198000Y-93615000D02*
X188198000Y-77615000D01*
X187448000Y-93615000D02*
X188198000Y-93615000D01*
X187448000Y-77615000D02*
X187448000Y-93615000D01*
X188198000Y-77615000D02*
X187448000Y-77615000D01*
X188198000Y-96915000D02*
X188198000Y-74315000D01*
X182248000Y-96915000D02*
X188198000Y-96915000D01*
X182248000Y-74315000D02*
X182248000Y-96915000D01*
X188198000Y-74315000D02*
X182248000Y-74315000D01*
G04 #@! TO.C,C4*
X164548000Y-109835000D02*
X164048000Y-109835000D01*
X164048000Y-110895000D02*
X164548000Y-110895000D01*
G04 #@! TO.C,J6*
X171638000Y-79105000D02*
X172748000Y-79105000D01*
X171638000Y-79865000D02*
X171638000Y-79105000D01*
X173311471Y-80625000D02*
X173858000Y-80625000D01*
X171638000Y-80625000D02*
X172184529Y-80625000D01*
X173858000Y-80625000D02*
X173858000Y-84370000D01*
X171638000Y-80625000D02*
X171638000Y-84370000D01*
X173055530Y-84370000D02*
X173858000Y-84370000D01*
X171638000Y-84370000D02*
X172440470Y-84370000D01*
G04 #@! TO.C,J10*
X173293000Y-94570000D02*
X174623000Y-94570000D01*
X173293000Y-95900000D02*
X173293000Y-94570000D01*
X175893000Y-94570000D02*
X178493000Y-94570000D01*
X175893000Y-97170000D02*
X175893000Y-94570000D01*
X173293000Y-97170000D02*
X175893000Y-97170000D01*
X178493000Y-94570000D02*
X178493000Y-102310000D01*
X173293000Y-97170000D02*
X173293000Y-102310000D01*
X173293000Y-102310000D02*
X178493000Y-102310000D01*
G04 #@! TO.C,P1*
D12*
X147089904Y-121737380D02*
X147089904Y-120737380D01*
X147470857Y-120737380D01*
X147566095Y-120785000D01*
X147613714Y-120832619D01*
X147661333Y-120927857D01*
X147661333Y-121070714D01*
X147613714Y-121165952D01*
X147566095Y-121213571D01*
X147470857Y-121261190D01*
X147089904Y-121261190D01*
X148613714Y-121737380D02*
X148042285Y-121737380D01*
X148328000Y-121737380D02*
X148328000Y-120737380D01*
X148232761Y-120880238D01*
X148137523Y-120975476D01*
X148042285Y-121023095D01*
G04 #@! TO.C,P2*
X167663904Y-121737380D02*
X167663904Y-120737380D01*
X168044857Y-120737380D01*
X168140095Y-120785000D01*
X168187714Y-120832619D01*
X168235333Y-120927857D01*
X168235333Y-121070714D01*
X168187714Y-121165952D01*
X168140095Y-121213571D01*
X168044857Y-121261190D01*
X167663904Y-121261190D01*
X168616285Y-120832619D02*
X168663904Y-120785000D01*
X168759142Y-120737380D01*
X168997238Y-120737380D01*
X169092476Y-120785000D01*
X169140095Y-120832619D01*
X169187714Y-120927857D01*
X169187714Y-121023095D01*
X169140095Y-121165952D01*
X168568666Y-121737380D01*
X169187714Y-121737380D01*
G04 #@! TO.C,P3*
X140485904Y-78811380D02*
X140485904Y-77811380D01*
X140866857Y-77811380D01*
X140962095Y-77859000D01*
X141009714Y-77906619D01*
X141057333Y-78001857D01*
X141057333Y-78144714D01*
X141009714Y-78239952D01*
X140962095Y-78287571D01*
X140866857Y-78335190D01*
X140485904Y-78335190D01*
X141390666Y-77811380D02*
X142009714Y-77811380D01*
X141676380Y-78192333D01*
X141819238Y-78192333D01*
X141914476Y-78239952D01*
X141962095Y-78287571D01*
X142009714Y-78382809D01*
X142009714Y-78620904D01*
X141962095Y-78716142D01*
X141914476Y-78763761D01*
X141819238Y-78811380D01*
X141533523Y-78811380D01*
X141438285Y-78763761D01*
X141390666Y-78716142D01*
G04 #@! TO.C,P4*
X162634904Y-78442380D02*
X162634904Y-77442380D01*
X163015857Y-77442380D01*
X163111095Y-77490000D01*
X163158714Y-77537619D01*
X163206333Y-77632857D01*
X163206333Y-77775714D01*
X163158714Y-77870952D01*
X163111095Y-77918571D01*
X163015857Y-77966190D01*
X162634904Y-77966190D01*
X164063476Y-77775714D02*
X164063476Y-78442380D01*
X163825380Y-77394761D02*
X163587285Y-78109047D01*
X164206333Y-78109047D01*
G04 #@! TO.C,C1*
D16*
X142206333Y-118615000D02*
X142173000Y-118648333D01*
X142073000Y-118681666D01*
X142006333Y-118681666D01*
X141906333Y-118648333D01*
X141839666Y-118581666D01*
X141806333Y-118515000D01*
X141773000Y-118381666D01*
X141773000Y-118281666D01*
X141806333Y-118148333D01*
X141839666Y-118081666D01*
X141906333Y-118015000D01*
X142006333Y-117981666D01*
X142073000Y-117981666D01*
X142173000Y-118015000D01*
X142206333Y-118048333D01*
X142873000Y-118681666D02*
X142473000Y-118681666D01*
X142673000Y-118681666D02*
X142673000Y-117981666D01*
X142606333Y-118081666D01*
X142539666Y-118148333D01*
X142473000Y-118181666D01*
G04 #@! TO.C,C2*
X136298000Y-109631666D02*
X136331333Y-109665000D01*
X136364666Y-109765000D01*
X136364666Y-109831666D01*
X136331333Y-109931666D01*
X136264666Y-109998333D01*
X136198000Y-110031666D01*
X136064666Y-110065000D01*
X135964666Y-110065000D01*
X135831333Y-110031666D01*
X135764666Y-109998333D01*
X135698000Y-109931666D01*
X135664666Y-109831666D01*
X135664666Y-109765000D01*
X135698000Y-109665000D01*
X135731333Y-109631666D01*
X135731333Y-109365000D02*
X135698000Y-109331666D01*
X135664666Y-109265000D01*
X135664666Y-109098333D01*
X135698000Y-109031666D01*
X135731333Y-108998333D01*
X135798000Y-108965000D01*
X135864666Y-108965000D01*
X135964666Y-108998333D01*
X136364666Y-109398333D01*
X136364666Y-108965000D01*
G04 #@! TO.C,U1*
D12*
X137525380Y-86901904D02*
X138334904Y-86901904D01*
X138430142Y-86854285D01*
X138477761Y-86806666D01*
X138525380Y-86711428D01*
X138525380Y-86520952D01*
X138477761Y-86425714D01*
X138430142Y-86378095D01*
X138334904Y-86330476D01*
X137525380Y-86330476D01*
X138525380Y-85330476D02*
X138525380Y-85901904D01*
X138525380Y-85616190D02*
X137525380Y-85616190D01*
X137668238Y-85711428D01*
X137763476Y-85806666D01*
X137811095Y-85901904D01*
X124700380Y-104031666D02*
X124700380Y-104507857D01*
X123700380Y-104507857D01*
X124700380Y-103698333D02*
X123700380Y-103698333D01*
X124414666Y-103365000D01*
X123700380Y-103031666D01*
X124700380Y-103031666D01*
X123795619Y-102603095D02*
X123748000Y-102555476D01*
X123700380Y-102460238D01*
X123700380Y-102222142D01*
X123748000Y-102126904D01*
X123795619Y-102079285D01*
X123890857Y-102031666D01*
X123986095Y-102031666D01*
X124128952Y-102079285D01*
X124700380Y-102650714D01*
X124700380Y-102031666D01*
X123700380Y-101126904D02*
X123700380Y-101603095D01*
X124176571Y-101650714D01*
X124128952Y-101603095D01*
X124081333Y-101507857D01*
X124081333Y-101269761D01*
X124128952Y-101174523D01*
X124176571Y-101126904D01*
X124271809Y-101079285D01*
X124509904Y-101079285D01*
X124605142Y-101126904D01*
X124652761Y-101174523D01*
X124700380Y-101269761D01*
X124700380Y-101507857D01*
X124652761Y-101603095D01*
X124605142Y-101650714D01*
X124700380Y-100603095D02*
X124700380Y-100412619D01*
X124652761Y-100317380D01*
X124605142Y-100269761D01*
X124462285Y-100174523D01*
X124271809Y-100126904D01*
X123890857Y-100126904D01*
X123795619Y-100174523D01*
X123748000Y-100222142D01*
X123700380Y-100317380D01*
X123700380Y-100507857D01*
X123748000Y-100603095D01*
X123795619Y-100650714D01*
X123890857Y-100698333D01*
X124128952Y-100698333D01*
X124224190Y-100650714D01*
X124271809Y-100603095D01*
X124319428Y-100507857D01*
X124319428Y-100317380D01*
X124271809Y-100222142D01*
X124224190Y-100174523D01*
X124128952Y-100126904D01*
X123700380Y-99269761D02*
X123700380Y-99460238D01*
X123748000Y-99555476D01*
X123795619Y-99603095D01*
X123938476Y-99698333D01*
X124128952Y-99745952D01*
X124509904Y-99745952D01*
X124605142Y-99698333D01*
X124652761Y-99650714D01*
X124700380Y-99555476D01*
X124700380Y-99365000D01*
X124652761Y-99269761D01*
X124605142Y-99222142D01*
X124509904Y-99174523D01*
X124271809Y-99174523D01*
X124176571Y-99222142D01*
X124128952Y-99269761D01*
X124081333Y-99365000D01*
X124081333Y-99555476D01*
X124128952Y-99650714D01*
X124176571Y-99698333D01*
X124271809Y-99745952D01*
X131200380Y-89757857D02*
X130200380Y-89757857D01*
X131200380Y-89281666D02*
X130200380Y-89281666D01*
X131200380Y-88710238D01*
X130200380Y-88710238D01*
X130819428Y-88234047D02*
X130819428Y-87472142D01*
X131200380Y-87853095D02*
X130438476Y-87853095D01*
X129950380Y-118234047D02*
X129950380Y-118043571D01*
X129998000Y-117948333D01*
X130093238Y-117853095D01*
X130283714Y-117805476D01*
X130617047Y-117805476D01*
X130807523Y-117853095D01*
X130902761Y-117948333D01*
X130950380Y-118043571D01*
X130950380Y-118234047D01*
X130902761Y-118329285D01*
X130807523Y-118424523D01*
X130617047Y-118472142D01*
X130283714Y-118472142D01*
X130093238Y-118424523D01*
X129998000Y-118329285D01*
X129950380Y-118234047D01*
X129950380Y-117376904D02*
X130759904Y-117376904D01*
X130855142Y-117329285D01*
X130902761Y-117281666D01*
X130950380Y-117186428D01*
X130950380Y-116995952D01*
X130902761Y-116900714D01*
X130855142Y-116853095D01*
X130759904Y-116805476D01*
X129950380Y-116805476D01*
X129950380Y-116472142D02*
X129950380Y-115900714D01*
X130950380Y-116186428D02*
X129950380Y-116186428D01*
X130569428Y-115567380D02*
X130569428Y-114805476D01*
X130950380Y-115186428D02*
X130188476Y-115186428D01*
G04 #@! TO.C,U2*
X140836095Y-108067380D02*
X140836095Y-108876904D01*
X140883714Y-108972142D01*
X140931333Y-109019761D01*
X141026571Y-109067380D01*
X141217047Y-109067380D01*
X141312285Y-109019761D01*
X141359904Y-108972142D01*
X141407523Y-108876904D01*
X141407523Y-108067380D01*
X141836095Y-108162619D02*
X141883714Y-108115000D01*
X141978952Y-108067380D01*
X142217047Y-108067380D01*
X142312285Y-108115000D01*
X142359904Y-108162619D01*
X142407523Y-108257857D01*
X142407523Y-108353095D01*
X142359904Y-108495952D01*
X141788476Y-109067380D01*
X142407523Y-109067380D01*
G04 #@! TO.C,C5*
D16*
X146781333Y-80865000D02*
X146748000Y-80898333D01*
X146648000Y-80931666D01*
X146581333Y-80931666D01*
X146481333Y-80898333D01*
X146414666Y-80831666D01*
X146381333Y-80765000D01*
X146348000Y-80631666D01*
X146348000Y-80531666D01*
X146381333Y-80398333D01*
X146414666Y-80331666D01*
X146481333Y-80265000D01*
X146581333Y-80231666D01*
X146648000Y-80231666D01*
X146748000Y-80265000D01*
X146781333Y-80298333D01*
X147414666Y-80231666D02*
X147081333Y-80231666D01*
X147048000Y-80565000D01*
X147081333Y-80531666D01*
X147148000Y-80498333D01*
X147314666Y-80498333D01*
X147381333Y-80531666D01*
X147414666Y-80565000D01*
X147448000Y-80631666D01*
X147448000Y-80798333D01*
X147414666Y-80865000D01*
X147381333Y-80898333D01*
X147314666Y-80931666D01*
X147148000Y-80931666D01*
X147081333Y-80898333D01*
X147048000Y-80865000D01*
G04 #@! TO.C,C6*
X162831333Y-120690000D02*
X162798000Y-120723333D01*
X162698000Y-120756666D01*
X162631333Y-120756666D01*
X162531333Y-120723333D01*
X162464666Y-120656666D01*
X162431333Y-120590000D01*
X162398000Y-120456666D01*
X162398000Y-120356666D01*
X162431333Y-120223333D01*
X162464666Y-120156666D01*
X162531333Y-120090000D01*
X162631333Y-120056666D01*
X162698000Y-120056666D01*
X162798000Y-120090000D01*
X162831333Y-120123333D01*
X163431333Y-120056666D02*
X163298000Y-120056666D01*
X163231333Y-120090000D01*
X163198000Y-120123333D01*
X163131333Y-120223333D01*
X163098000Y-120356666D01*
X163098000Y-120623333D01*
X163131333Y-120690000D01*
X163164666Y-120723333D01*
X163231333Y-120756666D01*
X163364666Y-120756666D01*
X163431333Y-120723333D01*
X163464666Y-120690000D01*
X163498000Y-120623333D01*
X163498000Y-120456666D01*
X163464666Y-120390000D01*
X163431333Y-120356666D01*
X163364666Y-120323333D01*
X163231333Y-120323333D01*
X163164666Y-120356666D01*
X163131333Y-120390000D01*
X163098000Y-120456666D01*
G04 #@! TO.C,J2*
D12*
X180714666Y-112267380D02*
X180714666Y-112981666D01*
X180667047Y-113124523D01*
X180571809Y-113219761D01*
X180428952Y-113267380D01*
X180333714Y-113267380D01*
X181143238Y-112362619D02*
X181190857Y-112315000D01*
X181286095Y-112267380D01*
X181524190Y-112267380D01*
X181619428Y-112315000D01*
X181667047Y-112362619D01*
X181714666Y-112457857D01*
X181714666Y-112553095D01*
X181667047Y-112695952D01*
X181095619Y-113267380D01*
X181714666Y-113267380D01*
G04 #@! TO.C,J3*
X180614666Y-98642380D02*
X180614666Y-99356666D01*
X180567047Y-99499523D01*
X180471809Y-99594761D01*
X180328952Y-99642380D01*
X180233714Y-99642380D01*
X180995619Y-98642380D02*
X181614666Y-98642380D01*
X181281333Y-99023333D01*
X181424190Y-99023333D01*
X181519428Y-99070952D01*
X181567047Y-99118571D01*
X181614666Y-99213809D01*
X181614666Y-99451904D01*
X181567047Y-99547142D01*
X181519428Y-99594761D01*
X181424190Y-99642380D01*
X181138476Y-99642380D01*
X181043238Y-99594761D01*
X180995619Y-99547142D01*
G04 #@! TO.C,J4*
X135850380Y-98948333D02*
X136564666Y-98948333D01*
X136707523Y-98995952D01*
X136802761Y-99091190D01*
X136850380Y-99234047D01*
X136850380Y-99329285D01*
X136183714Y-98043571D02*
X136850380Y-98043571D01*
X135802761Y-98281666D02*
X136517047Y-98519761D01*
X136517047Y-97900714D01*
G04 #@! TO.C,J5*
X168664666Y-77622380D02*
X168664666Y-78336666D01*
X168617047Y-78479523D01*
X168521809Y-78574761D01*
X168378952Y-78622380D01*
X168283714Y-78622380D01*
X169617047Y-77622380D02*
X169140857Y-77622380D01*
X169093238Y-78098571D01*
X169140857Y-78050952D01*
X169236095Y-78003333D01*
X169474190Y-78003333D01*
X169569428Y-78050952D01*
X169617047Y-78098571D01*
X169664666Y-78193809D01*
X169664666Y-78431904D01*
X169617047Y-78527142D01*
X169569428Y-78574761D01*
X169474190Y-78622380D01*
X169236095Y-78622380D01*
X169140857Y-78574761D01*
X169093238Y-78527142D01*
G04 #@! TO.C,J7*
X165789666Y-77567380D02*
X165789666Y-78281666D01*
X165742047Y-78424523D01*
X165646809Y-78519761D01*
X165503952Y-78567380D01*
X165408714Y-78567380D01*
X166170619Y-77567380D02*
X166837285Y-77567380D01*
X166408714Y-78567380D01*
G04 #@! TO.C,J8*
X176664666Y-77622380D02*
X176664666Y-78336666D01*
X176617047Y-78479523D01*
X176521809Y-78574761D01*
X176378952Y-78622380D01*
X176283714Y-78622380D01*
X177283714Y-78050952D02*
X177188476Y-78003333D01*
X177140857Y-77955714D01*
X177093238Y-77860476D01*
X177093238Y-77812857D01*
X177140857Y-77717619D01*
X177188476Y-77670000D01*
X177283714Y-77622380D01*
X177474190Y-77622380D01*
X177569428Y-77670000D01*
X177617047Y-77717619D01*
X177664666Y-77812857D01*
X177664666Y-77860476D01*
X177617047Y-77955714D01*
X177569428Y-78003333D01*
X177474190Y-78050952D01*
X177283714Y-78050952D01*
X177188476Y-78098571D01*
X177140857Y-78146190D01*
X177093238Y-78241428D01*
X177093238Y-78431904D01*
X177140857Y-78527142D01*
X177188476Y-78574761D01*
X177283714Y-78622380D01*
X177474190Y-78622380D01*
X177569428Y-78574761D01*
X177617047Y-78527142D01*
X177664666Y-78431904D01*
X177664666Y-78241428D01*
X177617047Y-78146190D01*
X177569428Y-78098571D01*
X177474190Y-78050952D01*
G04 #@! TO.C,J9*
X152264666Y-85592380D02*
X152264666Y-86306666D01*
X152217047Y-86449523D01*
X152121809Y-86544761D01*
X151978952Y-86592380D01*
X151883714Y-86592380D01*
X152788476Y-86592380D02*
X152978952Y-86592380D01*
X153074190Y-86544761D01*
X153121809Y-86497142D01*
X153217047Y-86354285D01*
X153264666Y-86163809D01*
X153264666Y-85782857D01*
X153217047Y-85687619D01*
X153169428Y-85640000D01*
X153074190Y-85592380D01*
X152883714Y-85592380D01*
X152788476Y-85640000D01*
X152740857Y-85687619D01*
X152693238Y-85782857D01*
X152693238Y-86020952D01*
X152740857Y-86116190D01*
X152788476Y-86163809D01*
X152883714Y-86211428D01*
X153074190Y-86211428D01*
X153169428Y-86163809D01*
X153217047Y-86116190D01*
X153264666Y-86020952D01*
G04 #@! TO.C,R1*
D16*
X158064666Y-118231666D02*
X157731333Y-118465000D01*
X158064666Y-118631666D02*
X157364666Y-118631666D01*
X157364666Y-118365000D01*
X157398000Y-118298333D01*
X157431333Y-118265000D01*
X157498000Y-118231666D01*
X157598000Y-118231666D01*
X157664666Y-118265000D01*
X157698000Y-118298333D01*
X157731333Y-118365000D01*
X157731333Y-118631666D01*
X158064666Y-117565000D02*
X158064666Y-117965000D01*
X158064666Y-117765000D02*
X157364666Y-117765000D01*
X157464666Y-117831666D01*
X157531333Y-117898333D01*
X157564666Y-117965000D01*
G04 #@! TO.C,R2*
X158064666Y-113631666D02*
X157731333Y-113865000D01*
X158064666Y-114031666D02*
X157364666Y-114031666D01*
X157364666Y-113765000D01*
X157398000Y-113698333D01*
X157431333Y-113665000D01*
X157498000Y-113631666D01*
X157598000Y-113631666D01*
X157664666Y-113665000D01*
X157698000Y-113698333D01*
X157731333Y-113765000D01*
X157731333Y-114031666D01*
X157431333Y-113365000D02*
X157398000Y-113331666D01*
X157364666Y-113265000D01*
X157364666Y-113098333D01*
X157398000Y-113031666D01*
X157431333Y-112998333D01*
X157498000Y-112965000D01*
X157564666Y-112965000D01*
X157664666Y-112998333D01*
X158064666Y-113398333D01*
X158064666Y-112965000D01*
G04 #@! TO.C,R3*
X161064666Y-89881666D02*
X160731333Y-90115000D01*
X161064666Y-90281666D02*
X160364666Y-90281666D01*
X160364666Y-90015000D01*
X160398000Y-89948333D01*
X160431333Y-89915000D01*
X160498000Y-89881666D01*
X160598000Y-89881666D01*
X160664666Y-89915000D01*
X160698000Y-89948333D01*
X160731333Y-90015000D01*
X160731333Y-90281666D01*
X160364666Y-89648333D02*
X160364666Y-89215000D01*
X160631333Y-89448333D01*
X160631333Y-89348333D01*
X160664666Y-89281666D01*
X160698000Y-89248333D01*
X160764666Y-89215000D01*
X160931333Y-89215000D01*
X160998000Y-89248333D01*
X161031333Y-89281666D01*
X161064666Y-89348333D01*
X161064666Y-89548333D01*
X161031333Y-89615000D01*
X160998000Y-89648333D01*
G04 #@! TO.C,R4*
X158564666Y-89981666D02*
X158231333Y-90215000D01*
X158564666Y-90381666D02*
X157864666Y-90381666D01*
X157864666Y-90115000D01*
X157898000Y-90048333D01*
X157931333Y-90015000D01*
X157998000Y-89981666D01*
X158098000Y-89981666D01*
X158164666Y-90015000D01*
X158198000Y-90048333D01*
X158231333Y-90115000D01*
X158231333Y-90381666D01*
X158098000Y-89381666D02*
X158564666Y-89381666D01*
X157831333Y-89548333D02*
X158331333Y-89715000D01*
X158331333Y-89281666D01*
G04 #@! TO.C,R5*
X155814666Y-89981666D02*
X155481333Y-90215000D01*
X155814666Y-90381666D02*
X155114666Y-90381666D01*
X155114666Y-90115000D01*
X155148000Y-90048333D01*
X155181333Y-90015000D01*
X155248000Y-89981666D01*
X155348000Y-89981666D01*
X155414666Y-90015000D01*
X155448000Y-90048333D01*
X155481333Y-90115000D01*
X155481333Y-90381666D01*
X155114666Y-89348333D02*
X155114666Y-89681666D01*
X155448000Y-89715000D01*
X155414666Y-89681666D01*
X155381333Y-89615000D01*
X155381333Y-89448333D01*
X155414666Y-89381666D01*
X155448000Y-89348333D01*
X155514666Y-89315000D01*
X155681333Y-89315000D01*
X155748000Y-89348333D01*
X155781333Y-89381666D01*
X155814666Y-89448333D01*
X155814666Y-89615000D01*
X155781333Y-89681666D01*
X155748000Y-89715000D01*
G04 #@! TO.C,U3*
X167274190Y-114020952D02*
X167678952Y-114020952D01*
X167726571Y-113997142D01*
X167750380Y-113973333D01*
X167774190Y-113925714D01*
X167774190Y-113830476D01*
X167750380Y-113782857D01*
X167726571Y-113759047D01*
X167678952Y-113735238D01*
X167274190Y-113735238D01*
X167274190Y-113544761D02*
X167274190Y-113235238D01*
X167464666Y-113401904D01*
X167464666Y-113330476D01*
X167488476Y-113282857D01*
X167512285Y-113259047D01*
X167559904Y-113235238D01*
X167678952Y-113235238D01*
X167726571Y-113259047D01*
X167750380Y-113282857D01*
X167774190Y-113330476D01*
X167774190Y-113473333D01*
X167750380Y-113520952D01*
X167726571Y-113544761D01*
G04 #@! TO.C,U6*
X177617047Y-115841190D02*
X177617047Y-116245952D01*
X177640857Y-116293571D01*
X177664666Y-116317380D01*
X177712285Y-116341190D01*
X177807523Y-116341190D01*
X177855142Y-116317380D01*
X177878952Y-116293571D01*
X177902761Y-116245952D01*
X177902761Y-115841190D01*
X178355142Y-115841190D02*
X178259904Y-115841190D01*
X178212285Y-115865000D01*
X178188476Y-115888809D01*
X178140857Y-115960238D01*
X178117047Y-116055476D01*
X178117047Y-116245952D01*
X178140857Y-116293571D01*
X178164666Y-116317380D01*
X178212285Y-116341190D01*
X178307523Y-116341190D01*
X178355142Y-116317380D01*
X178378952Y-116293571D01*
X178402761Y-116245952D01*
X178402761Y-116126904D01*
X178378952Y-116079285D01*
X178355142Y-116055476D01*
X178307523Y-116031666D01*
X178212285Y-116031666D01*
X178164666Y-116055476D01*
X178140857Y-116079285D01*
X178117047Y-116126904D01*
G04 #@! TO.C,U7*
X177567047Y-109726190D02*
X177567047Y-110130952D01*
X177590857Y-110178571D01*
X177614666Y-110202380D01*
X177662285Y-110226190D01*
X177757523Y-110226190D01*
X177805142Y-110202380D01*
X177828952Y-110178571D01*
X177852761Y-110130952D01*
X177852761Y-109726190D01*
X178043238Y-109726190D02*
X178376571Y-109726190D01*
X178162285Y-110226190D01*
G04 #@! TO.C,Y1*
D12*
X168544190Y-106591190D02*
X169020380Y-106591190D01*
X168020380Y-106924523D02*
X168544190Y-106591190D01*
X168020380Y-106257857D01*
X169020380Y-105400714D02*
X169020380Y-105972142D01*
X169020380Y-105686428D02*
X168020380Y-105686428D01*
X168163238Y-105781666D01*
X168258476Y-105876904D01*
X168306095Y-105972142D01*
G04 #@! TO.C,C3*
X168931333Y-110772142D02*
X168883714Y-110819761D01*
X168740857Y-110867380D01*
X168645619Y-110867380D01*
X168502761Y-110819761D01*
X168407523Y-110724523D01*
X168359904Y-110629285D01*
X168312285Y-110438809D01*
X168312285Y-110295952D01*
X168359904Y-110105476D01*
X168407523Y-110010238D01*
X168502761Y-109915000D01*
X168645619Y-109867380D01*
X168740857Y-109867380D01*
X168883714Y-109915000D01*
X168931333Y-109962619D01*
X169264666Y-109867380D02*
X169883714Y-109867380D01*
X169550380Y-110248333D01*
X169693238Y-110248333D01*
X169788476Y-110295952D01*
X169836095Y-110343571D01*
X169883714Y-110438809D01*
X169883714Y-110676904D01*
X169836095Y-110772142D01*
X169788476Y-110819761D01*
X169693238Y-110867380D01*
X169407523Y-110867380D01*
X169312285Y-110819761D01*
X169264666Y-110772142D01*
G04 #@! TO.C,U4*
D16*
X148824190Y-82245952D02*
X149228952Y-82245952D01*
X149276571Y-82222142D01*
X149300380Y-82198333D01*
X149324190Y-82150714D01*
X149324190Y-82055476D01*
X149300380Y-82007857D01*
X149276571Y-81984047D01*
X149228952Y-81960238D01*
X148824190Y-81960238D01*
X148990857Y-81507857D02*
X149324190Y-81507857D01*
X148800380Y-81626904D02*
X149157523Y-81745952D01*
X149157523Y-81436428D01*
G04 #@! TO.C,U5*
D12*
X180425380Y-86976904D02*
X181234904Y-86976904D01*
X181330142Y-86929285D01*
X181377761Y-86881666D01*
X181425380Y-86786428D01*
X181425380Y-86595952D01*
X181377761Y-86500714D01*
X181330142Y-86453095D01*
X181234904Y-86405476D01*
X180425380Y-86405476D01*
X180425380Y-85453095D02*
X180425380Y-85929285D01*
X180901571Y-85976904D01*
X180853952Y-85929285D01*
X180806333Y-85834047D01*
X180806333Y-85595952D01*
X180853952Y-85500714D01*
X180901571Y-85453095D01*
X180996809Y-85405476D01*
X181234904Y-85405476D01*
X181330142Y-85453095D01*
X181377761Y-85500714D01*
X181425380Y-85595952D01*
X181425380Y-85834047D01*
X181377761Y-85929285D01*
X181330142Y-85976904D01*
G04 #@! TO.C,C4*
X162106333Y-110797142D02*
X162058714Y-110844761D01*
X161915857Y-110892380D01*
X161820619Y-110892380D01*
X161677761Y-110844761D01*
X161582523Y-110749523D01*
X161534904Y-110654285D01*
X161487285Y-110463809D01*
X161487285Y-110320952D01*
X161534904Y-110130476D01*
X161582523Y-110035238D01*
X161677761Y-109940000D01*
X161820619Y-109892380D01*
X161915857Y-109892380D01*
X162058714Y-109940000D01*
X162106333Y-109987619D01*
X162963476Y-110225714D02*
X162963476Y-110892380D01*
X162725380Y-109844761D02*
X162487285Y-110559047D01*
X163106333Y-110559047D01*
G04 #@! TO.C,J6*
X172414666Y-77622380D02*
X172414666Y-78336666D01*
X172367047Y-78479523D01*
X172271809Y-78574761D01*
X172128952Y-78622380D01*
X172033714Y-78622380D01*
X173319428Y-77622380D02*
X173128952Y-77622380D01*
X173033714Y-77670000D01*
X172986095Y-77717619D01*
X172890857Y-77860476D01*
X172843238Y-78050952D01*
X172843238Y-78431904D01*
X172890857Y-78527142D01*
X172938476Y-78574761D01*
X173033714Y-78622380D01*
X173224190Y-78622380D01*
X173319428Y-78574761D01*
X173367047Y-78527142D01*
X173414666Y-78431904D01*
X173414666Y-78193809D01*
X173367047Y-78098571D01*
X173319428Y-78050952D01*
X173224190Y-78003333D01*
X173033714Y-78003333D01*
X172938476Y-78050952D01*
X172890857Y-78098571D01*
X172843238Y-78193809D01*
G04 #@! TO.C,J10*
X174838476Y-102592380D02*
X174838476Y-103306666D01*
X174790857Y-103449523D01*
X174695619Y-103544761D01*
X174552761Y-103592380D01*
X174457523Y-103592380D01*
X175838476Y-103592380D02*
X175267047Y-103592380D01*
X175552761Y-103592380D02*
X175552761Y-102592380D01*
X175457523Y-102735238D01*
X175362285Y-102830476D01*
X175267047Y-102878095D01*
X176457523Y-102592380D02*
X176552761Y-102592380D01*
X176648000Y-102640000D01*
X176695619Y-102687619D01*
X176743238Y-102782857D01*
X176790857Y-102973333D01*
X176790857Y-103211428D01*
X176743238Y-103401904D01*
X176695619Y-103497142D01*
X176648000Y-103544761D01*
X176552761Y-103592380D01*
X176457523Y-103592380D01*
X176362285Y-103544761D01*
X176314666Y-103497142D01*
X176267047Y-103401904D01*
X176219428Y-103211428D01*
X176219428Y-102973333D01*
X176267047Y-102782857D01*
X176314666Y-102687619D01*
X176362285Y-102640000D01*
X176457523Y-102592380D01*
G04 #@! TD*
M02*
